<?xml version="1.0" encoding="UTF-8" standalone="no"?>
<svg
   width="512"
   height="512"
   version="1.1"
   id="svg38"
   inkscape:version="1.1 (c4e8f9ed74, 2021-05-24)"
   inkscape:export-xdpi="96"
   inkscape:export-ydpi="96"
   sodipodi:docname="gkueen.svg"
   xmlns:inkscape="http://www.inkscape.org/namespaces/inkscape"
   xmlns:sodipodi="http://sodipodi.sourceforge.net/DTD/sodipodi-0.dtd"
   xmlns:xlink="http://www.w3.org/1999/xlink"
   xmlns="http://www.w3.org/2000/svg"
   xmlns:svg="http://www.w3.org/2000/svg"
   xmlns:rdf="http://www.w3.org/1999/02/22-rdf-syntax-ns#"
   xmlns:cc="http://creativecommons.org/ns#"
   xmlns:dc="http://purl.org/dc/elements/1.1/">
  <metadata
     id="metadata44">
    <rdf:RDF>
      <cc:Work
         rdf:about="">
        <dc:format>image/svg+xml</dc:format>
        <dc:type
           rdf:resource="http://purl.org/dc/dcmitype/StillImage" />
      </cc:Work>
    </rdf:RDF>
  </metadata>
  <defs
     id="defs42">
    <path
       d="M119.5,53.43c-0.44-0.19-0.94-0.11-1.29,0.22L87.25,82.71L65.16,49.72c-0.22-0.33-0.58-0.52-0.98-0.52h0 c-0.39,0-0.76,0.19-0.98,0.51l-22.19,33L10.06,53.64c-0.35-0.33-0.85-0.41-1.29-0.22c-0.43,0.19-0.71,0.63-0.69,1.1l1.27,47.52 c0,10.33,24.06,18.43,54.78,18.43c30.72,0,54.78-8.1,54.78-18.4l1.27-47.55C120.2,54.06,119.93,53.62,119.5,53.43z"
       id="SVGID_1_" />
    <linearGradient
       id="a"
       x1="78.053001"
       x2="116.89"
       y1="65.140999"
       y2="30.308001"
       gradientUnits="userSpaceOnUse"
       gradientTransform="translate(-102.91995,173.11279)">
      <stop
         stop-color="#FF005D"
         offset="0"
         id="stop106" />
      <stop
         stop-color="#FF1468"
         offset=".0481"
         id="stop108" />
      <stop
         stop-color="#FF4684"
         offset=".1776"
         id="stop110" />
      <stop
         stop-color="#FF719C"
         offset=".3102"
         id="stop112" />
      <stop
         stop-color="#FF93AF"
         offset=".4437"
         id="stop114" />
      <stop
         stop-color="#FFAFBE"
         offset=".5784"
         id="stop116" />
      <stop
         stop-color="#FFC2C9"
         offset=".7148"
         id="stop118" />
      <stop
         stop-color="#FFCDCF"
         offset=".8539"
         id="stop120" />
      <stop
         stop-color="#FFD1D1"
         offset="1"
         id="stop122" />
    </linearGradient>
    <linearGradient
       id="b"
       x1="71.027"
       x2="124.44"
       y1="75.773003"
       y2="75.773003"
       gradientTransform="matrix(0.6472,0.8476,-0.7948,0.6069,-11.29095,130.34079)"
       gradientUnits="userSpaceOnUse">
      <stop
         stop-color="#FF005D"
         offset="0"
         id="stop85" />
      <stop
         stop-color="#FF0962"
         offset=".0218"
         id="stop87" />
      <stop
         stop-color="#FF3D7F"
         offset=".1619"
         id="stop89" />
      <stop
         stop-color="#FF6B98"
         offset=".304"
         id="stop91" />
      <stop
         stop-color="#FF90AD"
         offset=".4454"
         id="stop93" />
      <stop
         stop-color="#FFACBD"
         offset=".5861"
         id="stop95" />
      <stop
         stop-color="#FFC1C8"
         offset=".7259"
         id="stop97" />
      <stop
         stop-color="#FFCDCF"
         offset=".8643"
         id="stop99" />
      <stop
         stop-color="#FFD1D1"
         offset="1"
         id="stop101" />
    </linearGradient>
    <linearGradient
       id="c"
       x1="50.762001"
       x2="114.92"
       y1="169.47"
       y2="169.47"
       gradientTransform="matrix(-0.0948,-0.9955,1.045,-0.0996,-217.66995,309.55279)"
       gradientUnits="userSpaceOnUse"
       xlink:href="#d">
      <stop
         stop-color="#8A0032"
         offset=".0098938"
         id="stop46" />
      <stop
         stop-color="#FF005D"
         offset=".3091"
         id="stop48" />
      <stop
         stop-color="#FF1368"
         offset=".3489"
         id="stop50" />
      <stop
         stop-color="#FF4C87"
         offset=".4773"
         id="stop52" />
      <stop
         stop-color="#FF7CA2"
         offset=".6017"
         id="stop54" />
      <stop
         stop-color="#FFA1B6"
         offset=".7191"
         id="stop56" />
      <stop
         stop-color="#FFBBC5"
         offset=".8278"
         id="stop58" />
      <stop
         stop-color="#FFCBCE"
         offset=".9247"
         id="stop60" />
      <stop
         stop-color="#FFD1D1"
         offset="1"
         id="stop62" />
    </linearGradient>
    <linearGradient
       id="d"
       x1="50.970001"
       x2="116.3"
       y1="126.93"
       y2="126.93"
       gradientTransform="matrix(-0.9385,-0.3452,0.3452,-0.9385,-35.09595,390.87279)"
       gradientUnits="userSpaceOnUse">
      <stop
         stop-color="#8A0032"
         offset=".0098938"
         id="stop25" />
      <stop
         stop-color="#FF005D"
         offset=".4055"
         id="stop27" />
      <stop
         stop-color="#FF1368"
         offset=".4397"
         id="stop29" />
      <stop
         stop-color="#FF4C87"
         offset=".5501"
         id="stop31" />
      <stop
         stop-color="#FF7CA2"
         offset=".6572"
         id="stop33" />
      <stop
         stop-color="#FFA1B6"
         offset=".7583"
         id="stop35" />
      <stop
         stop-color="#FFBBC5"
         offset=".8518"
         id="stop37" />
      <stop
         stop-color="#FFCBCE"
         offset=".9352"
         id="stop39" />
      <stop
         stop-color="#FFD1D1"
         offset="1"
         id="stop41" />
    </linearGradient>
    <linearGradient
       id="e"
       x1="44.651001"
       x2="114.64"
       y1="99.073997"
       y2="99.073997"
       gradientTransform="matrix(-0.687,0.7266,-0.7266,-0.687,81.95005,276.29279)"
       gradientUnits="userSpaceOnUse">
      <stop
         stop-color="#8A0032"
         offset=".0098938"
         id="stop2" />
      <stop
         stop-color="#8E0034"
         offset=".1821"
         id="stop4" />
      <stop
         stop-color="#FF005D"
         offset=".4055"
         id="stop6" />
      <stop
         stop-color="#FF1368"
         offset=".4397"
         id="stop8" />
      <stop
         stop-color="#FF4C87"
         offset=".5501"
         id="stop10" />
      <stop
         stop-color="#FF7CA2"
         offset=".6572"
         id="stop12" />
      <stop
         stop-color="#FFA1B6"
         offset=".7583"
         id="stop14" />
      <stop
         stop-color="#FFBBC5"
         offset=".8518"
         id="stop16" />
      <stop
         stop-color="#FFCBCE"
         offset=".9352"
         id="stop18" />
      <stop
         stop-color="#FFD1D1"
         offset="1"
         id="stop20" />
    </linearGradient>
  </defs>
  <sodipodi:namedview
     pagecolor="#ffffff"
     bordercolor="#666666"
     borderopacity="1"
     objecttolerance="10"
     gridtolerance="10"
     guidetolerance="10"
     inkscape:pageopacity="0"
     inkscape:pageshadow="2"
     inkscape:window-width="1920"
     inkscape:window-height="1080"
     id="namedview40"
     showgrid="false"
     inkscape:zoom="7.3749999"
     inkscape:cx="228.1356"
     inkscape:cy="194.57627"
     inkscape:window-x="0"
     inkscape:window-y="0"
     inkscape:window-maximized="1"
     inkscape:current-layer="svg38"
     inkscape:pagecheckerboard="0" />
  <g
     id="g36"
     transform="matrix(2.8315731,0,0,2.8315731,66.871633,81.25246)"
     style="stroke-width:0.35316059">
    <path
       d="m 40.1,37.83 c 0,0 2.55,-1.48 3.98,-2.12 l 22.24,8.18 35.97,0.97 c 0,0 2.7,2.8 3.5,3.76 l 6.53,18.74 5.27,2.11 c 0,0 1.21,3.62 1.55,4.99 L 118.05,83.1 65.91,96.03 24.04,85.76 24.17,60.02 36.97,43.35 Z"
       style="fill:#2f2f2f;stroke-width:0.35316059"
       id="path2"
       inkscape:connector-curvature="0" />
    <g
       id="g34"
       style="stroke-width:0.35316059">
      <g
         id="g12"
         style="stroke-width:0.35316059">
        <path
           d="m 73.14,59.57 c -0.1,5.06 -0.38,19.6 -0.28,28.04 1.67,0.04 3.5,-0.05 5.52,-0.26 2.7,-0.27 5.52,-0.81 8.24,-1.33 l 1.73,-0.33 c 2.79,-0.53 5.37,-1.19 7.89,-2.02 3.89,-1.28 8.19,-2.93 12.07,-5.32 -2.85,-9.93 -7.96,-17.38 -9.6,-19.61 -11,-0.87 -21.54,0.29 -25.57,0.83 z"
           style="fill:#757f3f;stroke-width:0.35316059"
           id="path4"
           inkscape:connector-curvature="0" />
        <path
           d="m 102.38,56.52 c 1.95,2.67 6.63,9.73 9.61,19.22 2.18,-1.81 4.06,-3.97 5.5,-6.52 -1.34,-3.73 -2.96,-7.35 -4.9,-10.8 -1.95,-3.46 -4.22,-6.77 -6.79,-9.81 -0.95,3.11 -2.46,6.15 -3.42,7.91 z"
           style="fill:#757f3f;stroke-width:0.35316059"
           id="path6"
           inkscape:connector-curvature="0" />
        <path
           d="m 45.2,42.69 c 4.26,1.63 18.85,7.43 26.39,12.78 3.25,-0.48 14.69,-1.96 27.04,-1.02 1.6,-2.95 3.28,-6.91 3.65,-9.6 C 102.13,44.7 102,44.54 101.85,44.4 96.72,39.58 90.22,36.93 83.66,34.71 74.5,31.61 64.53,30.52 54.98,32.23 c -3.78,0.68 -7.43,1.85 -10.9,3.48 z"
           style="fill:#757f3f;stroke-width:0.35316059"
           id="path8"
           inkscape:connector-curvature="0" />
        <path
           d="m 119.11,74.49 c -1.99,2.55 -4.4,4.67 -6.98,6.43 -0.05,0.04 -0.11,0.07 -0.15,0.11 -4.74,3.2 -10.03,5.26 -14.4,6.69 -2.7,0.89 -5.45,1.6 -8.43,2.16 l -1.73,0.33 c -2.82,0.54 -5.72,1.1 -8.61,1.4 -1.7,0.17 -3.46,0.31 -5.23,0.31 -5.28,0 -10.58,-1.24 -14.45,-6.53 -1.56,-2.15 -3.3,-3.96 -5.15,-5.38 l -0.77,-0.6 c -1.17,-0.93 -3.36,-2.67 -4.49,-2.7 l 0.11,-4.27 c 2.56,0.07 5.15,2.12 7.04,3.62 l 0.7,0.55 c 2.17,1.66 4.2,3.76 6.01,6.25 1.63,2.23 3.62,3.5 6.01,4.17 -0.08,-9.02 0.21,-24.02 0.3,-28.24 -7.32,-5.13 -22.04,-10.92 -25.55,-12.26 -1.38,0.85 -4.94,3.81 -9.13,8.08 -0.42,0.43 -0.98,0.64 -1.53,0.64 -0.54,0 -1.08,-0.2 -1.49,-0.61 -0.84,-0.82 -0.86,-2.17 -0.03,-3.02 2.65,-2.69 6.85,-6.76 9.79,-8.58 L 40.1,37.82 c -7.16,4.28 -14.23,10.92 -18.48,18.64 -4.26,7.71 -5.7,16.48 -1.64,24.97 1.33,2.75 4,7.37 6.68,8.97 2.37,1.42 4.88,2.63 7.44,3.69 2.27,0.94 4.19,2.12 6.52,2.8 2.08,0.62 4.23,1.29 6.34,1.76 2.13,0.48 4.34,0.63 6.48,1.03 1.9,0.35 3.82,0.67 5.74,0.7 9.85,0.13 19.81,0.65 29.48,-1.69 5.88,-1.42 11.71,-3.19 17.24,-5.63 2.8,-1.22 5.53,-2.62 8.1,-4.26 2.09,-1.32 4.84,-2.62 5.93,-4.98 1.15,-2.49 0.17,-5.5 -0.44,-8.02 -0.11,-0.42 -0.26,-0.87 -0.38,-1.31 z"
           style="fill:#757f3f;stroke-width:0.35316059"
           id="path10"
           inkscape:connector-curvature="0" />
      </g>
      <g
         id="g32"
         style="stroke-width:0.35316059">
        <path
           d="m 29.95,98.37 c -0.98,-0.58 -2.38,-0.78 -4.28,-1.05 -2.5,-0.35 -5.22,-1.05 -7.72,-0.6 -2.15,0.39 -2.38,0.94 -3.08,2.93 -1.09,3.13 -4.26,12.51 -1.8,15.47 0.61,0.73 2.03,0.99 2.9,1.25 2.51,0.76 5.18,0.93 7.82,1.11 2.25,0.15 4.47,-0.26 6.62,-0.86 1.61,-0.45 2.32,-0.83 2.45,-2.61 0.29,-3.8 -0.56,-7.55 -0.9,-11.32 -0.24,-2.44 -0.84,-3.64 -2.01,-4.32 z"
           style="fill:#bdcf46;stroke-width:0.35316059"
           id="path14"
           inkscape:connector-curvature="0" />
        <g
           id="g20"
           style="stroke-width:0.35316059">
          <path
             d="m 116.78,87.1 c -0.93,0.62 -1.92,1.17 -2.79,1.72 -2.57,1.63 -5.3,3.03 -8.1,4.26 -5.53,2.44 -11.36,4.21 -17.24,5.63 -9.67,2.34 -19.63,1.82 -29.48,1.69 -1.93,-0.03 -3.85,-0.35 -5.74,-0.7 -0.53,-0.1 -1.05,-0.18 -1.58,-0.26 l 0.52,5.55 c 0,0 1.88,0.14 5.24,-0.07 -0.65,6.43 -0.86,13.37 0.78,14.69 0.74,0.6 2.31,0.71 3.27,0.87 2.82,0.47 5.74,0.4 8.64,0.35 2.47,-0.04 4.85,-0.58 7.13,-1.28 1.71,-0.52 2.45,-0.9 2.42,-2.47 -0.03,-2.01 -0.71,-8.47 -1.4,-14 6.34,-0.83 14.15,-2.4 21.21,-5.33 0.1,2.22 0.19,4.12 0.18,4.51 -0.06,1.53 -0.08,3.62 1.27,4.8 3.76,3.31 13.07,1.38 17.39,-0.06 3.22,-1.06 2.23,-4.81 1.59,-7 -0.37,-1.31 -1.86,-8.13 -3.31,-12.9 z"
             style="fill:#bdcf46;stroke-width:0.35316059"
             id="path16"
             inkscape:connector-curvature="0" />
          <path
             d="m 127.07,64.28 c -1.68,-1.58 -4.44,0.46 -5.98,1.28 -1.38,0.74 -2.75,1.47 -4.15,2.16 1.01,2.65 1.89,5.35 2.55,8.11 0.3,1.23 0.68,2.58 0.87,3.93 0.05,-0.06 0.1,-0.12 0.15,-0.17 0.51,-0.58 0.97,-1.17 1.42,-1.8 1.75,-2.48 3.08,-5.22 4.51,-7.88 0.69,-1.33 1.96,-4.37 0.63,-5.63 z"
             style="fill:#bdcf46;stroke-width:0.35316059"
             id="path18"
             inkscape:connector-curvature="0" />
        </g>
        <g
           id="g30"
           style="stroke-width:0.35316059">
          <path
             d="m 52.38,104.99 c -1.13,0.04 -2.27,0.03 -3.44,0.03 -8.33,0 -16.27,-0.22 -24.47,-2.08 C 12.02,100.13 2.32,92.68 0.63,79.36 -0.41,71.15 1.25,61.42 7.59,55.67 c 5.95,-5.4 16.65,-6.89 23.98,-4.4 8.54,2.92 14.76,9.94 18.31,18.04 2.73,6.24 4.58,11.84 5.73,18.57 0.17,1.03 2.06,16.6 -0.15,16.89 -1.02,0.12 -2.05,0.19 -3.08,0.22 z"
             style="fill:#bdcf46;stroke-width:0.35316059"
             id="path22"
             inkscape:connector-curvature="0" />
          <path
             d="m 30.25,63.47 c 2.46,-0.44 4.87,1.46 5.38,4.26 0.51,2.79 -1.07,5.43 -3.53,5.88 -2.45,0.44 -4.86,-1.46 -5.38,-4.25 -0.51,-2.8 1.07,-5.43 3.53,-5.89 z"
             style="fill:#2f2f2f;stroke-width:0.35316059"
             id="path24"
             inkscape:connector-curvature="0" />
          <path
             d="m 7.74,67.17 c 0.7,-2.75 3.25,-4.48 5.66,-3.86 2.42,0.62 3.81,3.36 3.11,6.11 -0.71,2.75 -3.24,4.48 -5.66,3.86 C 8.44,72.65 7.04,69.92 7.74,67.17 Z"
             style="fill:#2f2f2f;stroke-width:0.35316059"
             id="path26"
             inkscape:connector-curvature="0" />
          <path
             d="m 23.8,79.29 c -1.14,0.62 -2.12,1.28 -3.45,0.79 -0.77,-0.28 -1.5,-0.5 -2.17,-1 -0.48,-0.35 -1.02,-0.64 -1.5,-0.99 -0.25,-0.18 -0.49,-0.37 -0.74,-0.55 -0.28,-0.21 -0.38,-0.3 -0.74,-0.35 -0.29,-0.03 -0.86,-0.05 -1.08,0.19 -0.94,1.05 0.38,2.61 1.09,3.32 1.06,1.03 2.57,2.2 3.96,2.8 1.36,0.59 2.71,1.3 4.16,0.58 1.59,-0.8 2.97,-1.96 4.37,-3.03 0.92,-0.7 2.98,-1.93 2.62,-3.3 -0.25,-1 -1.41,-0.79 -2.17,-0.55 -0.96,0.29 -1.82,0.78 -2.71,1.23 -0.55,0.27 -1.09,0.57 -1.64,0.86 z"
             style="fill:#2f2f2f;stroke-width:0.35316059"
             id="path28"
             inkscape:connector-curvature="0" />
        </g>
      </g>
    </g>
  </g>
  <g
     id="g836"
     transform="matrix(1.8081919,0,0,1.8081919,140.47476,13.852036)">
    <polygon
       points="91.56,50.38 105.91,95.32 69.55,90.61 "
       style="fill:#b0bac0;fill-opacity:1"
       id="polygon832" />
    <path
       inkscape:connector-curvature="0"
       d="m 105.91,96.5 c -0.05,0 -0.1,0 -0.15,-0.01 L 69.39,91.78 C 69,91.73 68.67,91.49 68.49,91.14 68.31,90.79 68.32,90.38 68.5,90.04 L 90.52,49.81 c 0.23,-0.41 0.69,-0.65 1.15,-0.61 0.47,0.04 0.87,0.36 1.01,0.81 l 14.24,44.62 c 0.14,0.19 0.22,0.43 0.22,0.68 0,0.65 -0.53,1.18 -1.18,1.18 0,0.01 -0.03,0.01 -0.05,0.01 z M 71.4,89.66 104.22,93.91 91.28,53.36 Z"
       style="fill:#b0bac0;fill-opacity:1"
       id="path834" />
  </g>
  <g
     id="g854"
     transform="matrix(1.8081919,0,0,1.8081919,140.47476,13.852036)">
    <polygon
       points="36.43,50.38 22.09,95.32 58.45,90.61 "
       style="fill:#b0bac0;fill-opacity:1"
       id="polygon850" />
    <path
       inkscape:connector-curvature="0"
       d="m 22.09,96.5 c -0.34,0 -0.68,-0.15 -0.91,-0.42 -0.26,-0.31 -0.34,-0.73 -0.22,-1.11 L 35.3,50.03 c 0.14,-0.45 0.54,-0.77 1.01,-0.81 0.51,-0.05 0.92,0.19 1.15,0.61 l 22.02,40.23 c 0.18,0.34 0.19,0.75 0.01,1.1 -0.17,0.35 -0.51,0.58 -0.9,0.64 L 22.23,96.51 C 22.19,96.5 22.14,96.5 22.09,96.5 Z M 36.72,53.36 23.77,93.92 56.59,89.67 Z"
       style="fill:#b0bac0;fill-opacity:1"
       id="path852" />
  </g>
  <g
     id="g882"
     transform="matrix(1.8081919,0,0,1.8081919,140.47476,13.852036)">
    <defs
       id="defs871">
      <path
         inkscape:connector-curvature="0"
         id="path932"
         d="m 119.5,53.43 c -0.44,-0.19 -0.94,-0.11 -1.29,0.22 L 87.25,82.71 65.16,49.72 C 64.94,49.39 64.58,49.2 64.18,49.2 v 0 c -0.39,0 -0.76,0.19 -0.98,0.51 L 41.01,82.71 10.06,53.64 C 9.71,53.31 9.21,53.23 8.77,53.42 8.34,53.61 8.06,54.05 8.08,54.52 l 1.27,47.52 c 0,10.33 24.06,18.43 54.78,18.43 30.72,0 54.78,-8.1 54.78,-18.4 l 1.27,-47.55 c 0.02,-0.46 -0.25,-0.9 -0.68,-1.09 z" />
    </defs>
    <use
       height="100%"
       width="100%"
       y="0"
       x="0"
       style="overflow:visible;fill:#d4dee4;fill-opacity:1"
       xlink:href="#SVGID_1_"
       id="use873" />
    <clipPath
       id="SVGID_2_">
      <use
         height="100%"
         width="100%"
         y="0"
         x="0"
         style="overflow:visible"
         xlink:href="#SVGID_1_"
         id="use875" />
    </clipPath>
  </g>
  <g
     id="g2068"
     style="fill:#ff48b3;fill-opacity:1;stroke:none">
    <path
       inkscape:connector-curvature="0"
       d="m 119.91,78.06 0.01,0.01 -0.59,18.85 c -0.01,0 -0.01,0 -0.01,0 -4.2,-0.13 -7.46,-4.45 -7.3,-9.66 0.16,-5.22 3.69,-9.33 7.89,-9.2 z"
       style="fill-opacity:1;fill:#ff48b3;stroke:none"
       clip-path="url(#SVGID_2_)"
       id="path878"
       transform="matrix(1.8081919,0,0,1.8081919,140.47476,13.852036)" />
    <path
       inkscape:connector-curvature="0"
       d="m 8.37,78.06 -0.01,0.01 0.58,18.85 c 0.01,0 0.01,0 0.02,0 4.19,-0.13 7.46,-4.45 7.29,-9.66 -0.16,-5.22 -3.69,-9.33 -7.88,-9.2 z"
       style="fill-opacity:1;fill:#ff48b3;stroke:none"
       clip-path="url(#SVGID_2_)"
       id="path880"
       transform="matrix(1.8081919,0,0,1.8081919,140.47476,13.852036)" />
    <path
       id="path886"
       style="fill-opacity:1;stroke-width:1.8081919;fill:#ff48b3;stroke:none"
       d="m 272.11113,188.43296 c 0,10.08971 -7.01578,18.28082 -15.67702,18.28082 -8.64316,0 -15.65895,-8.19111 -15.65895,-18.28082 0,-10.10779 7.01579,-18.28082 15.65895,-18.28082 8.66124,-0.0181 15.67702,8.17303 15.67702,18.28082 z"
       inkscape:connector-curvature="0" />
  </g>
  <path
     style="fill:#000000;stroke:none;stroke-width:1px;stroke-linecap:round;stroke-linejoin:round;stroke-opacity:0.99502486;fill-opacity:0.05970149"
     d="m 247.59322,231.32203 35.52542,-90.84745 15.12086,22.93301 c 0,0 57.16017,-55.97913 58.1108,-52.50318 1.98088,-0.46607 0.71061,87.38381 -2.27769,93.03344 -2.54786,4.81695 -11.8043,11.40634 -20.16499,15.219 -33.24996,15.16272 -86.3144,12.16518 -86.3144,12.16518 z"
     id="path867"
     inkscape:connector-curvature="0"
     sodipodi:nodetypes="ccccssc" />
  <path
     style="fill:#ffffff;stroke:none;stroke-width:1px;stroke-linecap:butt;stroke-linejoin:miter;stroke-opacity:1;fill-opacity:0.22745098"
     d="m 171.43145,215.54249 19.94281,8.05382 23.25445,-60.18872 -17.88295,-16.96691 z"
     id="path989"
     inkscape:connector-curvature="0" />
  <g
     id="g2061"
     style="fill:#ff8fad;fill-opacity:1">
    <path
       inkscape:connector-curvature="0"
       d="m 303.03121,198.54076 c -0.23506,4.88211 -3.83337,8.66124 -8.02837,8.46233 -4.17692,-0.1989 -7.37742,-4.33966 -7.12428,-9.20369 0.25315,-4.9002 3.85145,-8.67932 8.02838,-8.46234 4.17692,0.18082 7.35934,4.32158 7.12427,9.2037 z"
       style="fill:#ff8fad;fill-opacity:1;stroke-width:1.80819"
       id="path890" />
    <ellipse
       cx="-175.49875"
       cy="336.37561"
       rx="8.8416882"
       ry="7.5940881"
       style="fill:#ff8fad;fill-opacity:1;stroke-width:1.80812"
       transform="rotate(-87.013413)"
       id="ellipse892" />
    <path
       inkscape:connector-curvature="0"
       d="m 209.85508,198.54076 c 0.23507,4.88211 3.83337,8.66124 8.02838,8.46233 4.17692,-0.1989 7.37742,-4.33966 7.12427,-9.20369 -0.23506,-4.9002 -3.83337,-8.67932 -8.01029,-8.46234 -4.195,0.18082 -7.3955,4.32158 -7.14236,9.2037 z"
       style="fill:#ff8fad;fill-opacity:1;stroke-width:1.80819"
       id="path896" />
    <ellipse
       cx="175.7966"
       cy="202.19957"
       rx="7.5760074"
       ry="8.8416882"
       style="fill:#ff8fad;fill-opacity:1;stroke-width:1.80812"
       transform="rotate(-2.9865873)"
       id="ellipse898" />
  </g>
  <g
     id="g1608"
     transform="matrix(0.43249551,-0.06247285,0.06247285,0.43249551,177.57595,131.089)">
    <path
       d="m -67.76995,254.35279 c -10.91,8.31 -20.79,31.32 0.42,33.17 3.72,0.32 2.41,1.97 6,3.84 3.91,2.03 3.75,-0.84 7.03,1.49 27.66,19.69 40.36,-47.39 27.83,-57.62 -9.49,-7.75 -42,19.61 -41.28,19.12 z"
       fill="url(#e)"
       id="path23"
       style="fill:url(#e)" />
    <path
       d="m -65.81995,217.79279 c -11.93,-6.76 -36.98,-6.77 -30.32,13.45 1.17,3.54 -0.86,3 -1.16,7.03 -0.33,4.39 0.94,3.05 1.4,7.05 4.66,40.76 52.33,9.99 61.51,-4.34 6.3,-9.84 -32.17,-23.66 -31.43,-23.19 z"
       fill="url(#d)"
       id="path44"
       style="fill:url(#d)" />
    <path
       d="m -50.73995,181.63279 c -2.62,2.56 -3.08,0.51 -6.84,1.93 -4.11,1.55 -1.85,3.23 -5.77,4.13 -33.05,7.64 5.32,60.91 32.71,52.66 22.24,-6.71 2.94,-81.23 -20.1,-58.72 z"
       fill="url(#c)"
       id="path65"
       style="fill:url(#c);fill-opacity:1.0" />
    <path
       d="m -54.10995,221.50279 c 17.57,8.5 26.7,21.16 23.47,23.42 -3.76,2.63 -3.47,-8.85 -23.47,-23.42 z"
       fill="#f8bbd0"
       id="path67" />
    <path
       d="m -46.21995,233.18279 c 1.14,-0.54 1.62,-1.92 1.07,-3.09 -0.55,-1.17 -1.92,-1.68 -3.06,-1.15 -1.14,0.54 -1.62,1.92 -1.07,3.09 0.55,1.18 1.92,1.69 3.06,1.15 z"
       fill="#ffd54f"
       id="path69" />
    <path
       d="m -50.85995,229.78279 c 1.14,-0.54 1.62,-1.92 1.07,-3.09 -0.55,-1.17 -1.92,-1.68 -3.06,-1.15 -1.14,0.54 -1.62,1.92 -1.07,3.09 0.55,1.17 1.92,1.69 3.06,1.15 z"
       fill="#ffecb3"
       id="path71" />
    <path
       d="m -39.16995,227.92279 c 1.14,-0.54 1.62,-1.92 1.07,-3.09 -0.55,-1.17 -1.92,-1.68 -3.06,-1.15 -1.14,0.54 -1.62,1.92 -1.07,3.09 0.55,1.18 1.92,1.69 3.06,1.15 z"
       fill="#ffd54f"
       id="path73" />
    <path
       d="m -43.92995,225.13279 c 1.14,-0.54 1.62,-1.92 1.07,-3.09 -0.55,-1.17 -1.92,-1.68 -3.06,-1.15 -1.14,0.54 -1.62,1.92 -1.07,3.09 0.55,1.17 1.92,1.69 3.06,1.15 z"
       fill="#ffecb3"
       id="path75" />
    <path
       d="m -48.72995,221.45279 c 1.14,-0.54 1.62,-1.92 1.07,-3.09 -0.55,-1.17 -1.92,-1.68 -3.06,-1.15 -1.14,0.54 -1.62,1.92 -1.07,3.09 0.54,1.17 1.91,1.69 3.06,1.15 z"
       fill="#ffd54f"
       id="path77" />
    <path
       d="m -53.10995,218.19279 c 1.14,-0.54 1.62,-1.92 1.07,-3.09 -0.55,-1.17 -1.92,-1.68 -3.06,-1.15 -1.14,0.54 -1.62,1.92 -1.07,3.09 0.55,1.17 1.92,1.69 3.06,1.15 z"
       fill="#ad1457"
       id="path79" />
    <path
       d="m -57.73995,220.52279 c 1.14,-0.54 1.62,-1.92 1.07,-3.09 -0.55,-1.17 -1.92,-1.68 -3.06,-1.15 -1.14,0.54 -1.62,1.92 -1.07,3.09 0.55,1.17 1.92,1.69 3.06,1.15 z"
       fill="#ad1457"
       id="path81" />
    <ellipse
       transform="rotate(-25.158123)"
       cx="-146.31494"
       cy="178.75902"
       rx="2.2799041"
       ry="2.3399017"
       fill="#ad1457"
       id="ellipse83"
       style="stroke-width:0.999958" />
    <path
       d="m 4.48005,284.99279 c 3.63,-1.68 5.66,-5.58 7.7,-9.44 2.32,-4.38 -0.38,-4.28 2.62,-7.37 25.33,-26.07 -33.42,-39.96 -45.52,-27.58 -4.29,4.39 -3.81,20.19 -0.19,29.46 6.86,17.59 11.29,26.07 35.39,14.93 z"
       fill="url(#b)"
       id="path104"
       style="fill:url(#b)" />
    <path
       d="m 20.73005,215.04279 c -0.79,-4.36 -4.16,-4.55 -4.95,-9.31 -0.8,-4.77 -4.37,-1.4 -7.05,-4.92 -21.86,-28.74 -49.44,23.52 -38.11,38.17 9.06,11.72 56.15,9.26 50.11,-23.94 z"
       fill="url(#a)"
       id="path125"
       style="fill:url(#a)" />
    <g
       opacity="0.2"
       id="g129"
       transform="translate(-102.91995,173.11279)">
      <path
         d="m 61.1,7.47 c 6.23,0 12.94,9.83 16.32,23.9 0.27,1.14 1.18,2.01 2.33,2.24 0.2,0.04 0.39,0.06 0.59,0.06 0.95,0 1.85,-0.45 2.43,-1.24 4.71,-6.48 10.03,-10.05 14.98,-10.05 4.08,0 8.01,2.46 11.7,7.31 1.96,2.58 4.38,2.9 5.83,3.09 0.17,0.02 0.39,0.05 0.55,0.08 0.03,0.1 0.06,0.24 0.09,0.42 0.55,3.28 2.12,5.07 3.26,6.38 0.91,1.04 1.46,1.67 1.7,2.97 2.36,12.99 -4.47,19.58 -10.62,22.81 -1.01,0.53 -1.63,1.58 -1.6,2.72 0.03,1.14 0.69,2.16 1.72,2.65 6.17,2.89 9.95,6.64 10.67,10.54 0.65,3.54 -1.13,7.51 -5.29,11.79 -2.27,2.34 -2.44,3.94 -2.41,5.51 0.01,0.66 0.02,1.17 -0.71,2.55 l -0.09,0.17 c -1.83,3.45 -3.56,6.72 -6.22,7.95 -6.9,3.19 -12.17,4.74 -16.12,4.74 -4.99,0 -8.06,-2.4 -11.3,-8.86 -0.51,-1.02 -1.55,-1.65 -2.68,-1.65 h -0.12 c -1.18,0.05 -2.22,0.78 -2.66,1.87 -2.29,5.63 -7.27,15.09 -14.89,15.09 -2.5,0 -5.2,-1.02 -8.04,-3.04 -1.47,-1.04 -2.78,-1.53 -4.13,-1.53 -0.62,0 -1.14,0.1 -1.51,0.18 -0.25,0.05 -0.39,0.08 -0.5,0.08 -0.25,0 -0.7,-0.16 -1.24,-0.44 -1.02,-0.53 -1.36,-0.94 -1.79,-1.47 -1.04,-1.27 -2.24,-2.43 -5.33,-2.7 -4.51,-0.39 -7.48,-1.83 -8.84,-4.28 -1.66,-3 -1.03,-7.95 1.68,-13.25 C 29.34,93.12 29.29,92 28.74,91.11 28.19,90.23 27.23,89.7 26.19,89.7 H 26.14 25.78 C 16.64,89.7 11.54,83.92 10.18,72.04 9.94,69.95 9.5,68.92 9.03,67.96 8.79,67.47 8.67,67.22 8.79,65.55 c 0.09,-1.14 0.33,-1.62 0.64,-2.22 0.75,-1.46 1.35,-3.01 0.38,-5.96 -1.38,-4.19 -1.27,-7.44 0.32,-9.64 1.8,-2.49 5.79,-3.92 10.94,-3.92 2.81,0 5.81,0.42 8.68,1.22 0.27,0.07 0.54,0.11 0.8,0.11 0.89,0 1.74,-0.39 2.32,-1.1 0.75,-0.92 0.89,-2.2 0.35,-3.26 -3.36,-6.6 -4.15,-12.51 -2.23,-16.64 1.49,-3.19 4.66,-5.36 9.43,-6.46 2.97,-0.69 3.96,-1.97 4.72,-3.23 0.27,-0.44 0.38,-0.62 1.43,-1.02 0.86,-0.33 1.39,-0.37 1.83,-0.37 0.17,0 0.33,0.01 0.49,0.01 0.21,0.01 0.41,0.01 0.61,0.01 1.87,0 3.35,-0.67 4.96,-2.24 2.29,-2.24 4.52,-3.37 6.64,-3.37 m 0,-3 c -2.79,0 -5.73,1.28 -8.74,4.22 -1.25,1.22 -2,1.39 -2.86,1.39 -0.34,0 -0.69,-0.03 -1.09,-0.03 -0.73,0 -1.62,0.09 -2.89,0.56 -4.11,1.55 -1.85,3.23 -5.77,4.13 C 25.24,18.1 24.5,30.25 30.55,42.13 27.5,41.28 24.22,40.8 21.07,40.8 c -9.83,0 -18.33,4.69 -14.12,17.5 1.17,3.54 -0.86,3 -1.16,7.03 -0.33,4.39 0.94,3.05 1.4,7.05 1.72,15.01 9.27,20.32 18.58,20.32 h 0.41 c -4.89,9.56 -4.87,20.62 9.57,21.88 3.72,0.32 2.41,1.97 6,3.84 1.17,0.61 1.98,0.78 2.62,0.78 0.79,0 1.34,-0.26 2.01,-0.26 0.6,0 1.31,0.2 2.39,0.97 3.51,2.5 6.77,3.6 9.77,3.6 7.75,0 13.76,-7.32 17.67,-16.96 3.32,6.6 7.11,10.52 13.98,10.52 4.35,0 9.92,-1.57 17.38,-5.01 3.63,-1.68 5.66,-5.58 7.7,-9.44 2.32,-4.38 -0.38,-4.28 2.62,-7.37 11.84,-12.19 5.3,-21.71 -6.25,-27.14 8.61,-4.53 14.56,-12.86 12.17,-26 -0.79,-4.36 -4.16,-4.55 -4.95,-9.31 -0.8,-4.77 -4.37,-1.4 -7.05,-4.92 -4.58,-6.02 -9.42,-8.49 -14.09,-8.49 -6.47,0 -12.63,4.73 -17.4,11.28 C 77.02,16.84 69.78,4.47 61.1,4.47 Z"
         fill="#424242"
         id="path127" />
    </g>
  </g>
</svg>
