<?xml version="1.0" encoding="UTF-8" standalone="no"?>
<svg
   width="512"
   height="512"
   version="1.1"
   id="svg38"
   inkscape:version="1.1.1 (3bf5ae0d25, 2021-09-20)"
   inkscape:export-xdpi="192"
   inkscape:export-ydpi="192"
   sodipodi:docname="dragkula.svg"
   inkscape:export-filename="/home/mirror/opt/turtles/classigk/dragkula.png"
   xmlns:inkscape="http://www.inkscape.org/namespaces/inkscape"
   xmlns:sodipodi="http://sodipodi.sourceforge.net/DTD/sodipodi-0.dtd"
   xmlns="http://www.w3.org/2000/svg"
   xmlns:svg="http://www.w3.org/2000/svg"
   xmlns:rdf="http://www.w3.org/1999/02/22-rdf-syntax-ns#"
   xmlns:cc="http://creativecommons.org/ns#"
   xmlns:dc="http://purl.org/dc/elements/1.1/">
  <metadata
     id="metadata44">
    <rdf:RDF>
      <cc:Work
         rdf:about="">
        <dc:format>image/svg+xml</dc:format>
        <dc:type
           rdf:resource="http://purl.org/dc/dcmitype/StillImage" />
      </cc:Work>
    </rdf:RDF>
  </metadata>
  <defs
     id="defs42">
    <path
       d="M119.5,53.43c-0.44-0.19-0.94-0.11-1.29,0.22L87.25,82.71L65.16,49.72c-0.22-0.33-0.58-0.52-0.98-0.52h0 c-0.39,0-0.76,0.19-0.98,0.51l-22.19,33L10.06,53.64c-0.35-0.33-0.85-0.41-1.29-0.22c-0.43,0.19-0.71,0.63-0.69,1.1l1.27,47.52 c0,10.33,24.06,18.43,54.78,18.43c30.72,0,54.78-8.1,54.78-18.4l1.27-47.55C120.2,54.06,119.93,53.62,119.5,53.43z"
       id="SVGID_1_" />
    <clipPath
       id="clipPath74"
       clipPathUnits="userSpaceOnUse">
      <path
         inkscape:connector-curvature="0"
         id="path72"
         d="M 0,150 H 350 V 0 H 0 Z" />
    </clipPath>
    <inkscape:path-effect
       effect="spiro"
       id="path-effect27148"
       is_visible="true"
       lpeversion="0" />
    <inkscape:path-effect
       effect="spiro"
       id="path-effect27144"
       is_visible="true"
       lpeversion="0" />
    <inkscape:path-effect
       effect="spiro"
       id="path-effect27140"
       is_visible="true"
       lpeversion="0" />
    <inkscape:path-effect
       effect="spiro"
       id="path-effect27136"
       is_visible="true"
       lpeversion="0" />
    <path
       d="M119.5,53.43c-0.44-0.19-0.94-0.11-1.29,0.22L87.25,82.71L65.16,49.72c-0.22-0.33-0.58-0.52-0.98-0.52h0 c-0.39,0-0.76,0.19-0.98,0.51l-22.19,33L10.06,53.64c-0.35-0.33-0.85-0.41-1.29-0.22c-0.43,0.19-0.71,0.63-0.69,1.1l1.27,47.52 c0,10.33,24.06,18.43,54.78,18.43c30.72,0,54.78-8.1,54.78-18.4l1.27-47.55C120.2,54.06,119.93,53.62,119.5,53.43z"
       id="SVGID_1_-2" />
    <filter
       inkscape:collect="always"
       style="color-interpolation-filters:sRGB"
       id="filter1127"
       x="-0.085873638"
       width="1.1717473"
       y="-0.57318908"
       height="2.1463782">
      <feGaussianBlur
         inkscape:collect="always"
         stdDeviation="0.85875003"
         id="feGaussianBlur1129" />
    </filter>
    <clipPath
       id="clipPath74-6"
       clipPathUnits="userSpaceOnUse">
      <path
         inkscape:connector-curvature="0"
         id="path72-1"
         d="M 0,150 H 350 V 0 H 0 Z" />
    </clipPath>
    <inkscape:path-effect
       effect="spiro"
       id="path-effect17935-89"
       is_visible="true"
       lpeversion="0" />
    <inkscape:path-effect
       effect="spiro"
       id="path-effect17939-8"
       is_visible="true"
       lpeversion="0" />
    <inkscape:path-effect
       effect="spiro"
       id="path-effect17935-8-7"
       is_visible="true"
       lpeversion="0" />
    <inkscape:path-effect
       effect="spiro"
       id="path-effect17939-6-0"
       is_visible="true"
       lpeversion="0" />
  </defs>
  <sodipodi:namedview
     pagecolor="#ffffff"
     bordercolor="#666666"
     borderopacity="1"
     objecttolerance="1"
     gridtolerance="1"
     guidetolerance="1"
     inkscape:pageopacity="0"
     inkscape:pageshadow="2"
     inkscape:window-width="1920"
     inkscape:window-height="1080"
     id="namedview40"
     showgrid="false"
     inkscape:zoom="1"
     inkscape:cx="102.5"
     inkscape:cy="131"
     inkscape:window-x="0"
     inkscape:window-y="0"
     inkscape:window-maximized="1"
     inkscape:current-layer="svg38"
     inkscape:pagecheckerboard="0"
     showguides="false"
     inkscape:lockguides="false" />
  <rect
     style="opacity:1;fill:#36393f;fill-opacity:1;fill-rule:evenodd;stroke:none;stroke-width:0.891614;stroke-linecap:round;stroke-linejoin:round;stroke-miterlimit:4;stroke-dasharray:none;stroke-opacity:1;paint-order:stroke fill markers"
     id="rect69758"
     width="512"
     height="512"
     x="-601.75"
     y="0"
     ry="256"
     inkscape:export-filename="/home/mirror/opt/turtles/classigk/dragkula.png"
     inkscape:export-xdpi="192"
     inkscape:export-ydpi="192" />
  <g
     id="g87643"
     transform="translate(0,22.53894)">
    <g
       id="g67870"
       transform="matrix(0.79035351,-0.11784047,0.32443217,0.65492063,200.72775,27.463659)">
      <g
         id="g67866">
        <path
           style="fill:#e3e3e3;fill-opacity:1;stroke-width:7.36527"
           d="m -150.90493,236.15779 c 11.93174,8.52162 63.530957,-15.5814 64.359092,-64.31031 -0.351948,-2.45372 -1.714419,-16.8897 -1.714419,-16.8897 0,0 11.558201,12.00294 16.444964,16.8897 22.095822,22.09581 44.191634,57.69955 29.461089,147.30545 -22.095817,-36.82636 -44.191634,-29.46109 -51.556907,7.36527 -22.095819,-29.46109 -44.191639,-14.73054 -58.922179,0 -22.09582,-22.09582 1.92836,-90.36041 1.92836,-90.36041 z"
           id="path67862"
           sodipodi:nodetypes="cccscccc" />
        <path
           style="fill:#dc7474;fill-opacity:1;stroke-width:7.36527"
           d="m -84.962305,203.14989 0.449282,-0.64078 c -1.686647,20.89528 -11.998029,28.26792 -16.417197,50.35637 -4.33078,21.6539 -3.51323,40.64894 -0.64814,55.71092 -6.18683,-4.20557 -12.71246,-6.43725 -19.56216,-6.43725 -9.30971,0 -18.76672,3.96252 -28.68774,11.9833 12.07168,-68.62224 48.89804,-83.35279 64.865955,-110.97256 z"
           id="path67864" />
      </g>
      <path
         style="fill:#dc7474;fill-opacity:1;stroke-width:7.36527"
         d="m -93.535482,303.75951 c -6.577188,-19.81995 -4.212936,-44.10325 7.335812,-72.98985 10.95216,-27.39145 8.944507,-45.29333 7.574566,-53.35094 0.360898,0.30198 0.714432,0.5745 1.09006,0.95749 19.930428,19.93779 39.379045,48.93914 30.665928,121.89216 -9.390722,-10.15671 -17.765037,-12.69036 -23.767734,-12.69036 -9.324435,0 -17.190546,5.76701 -22.898632,16.1815 z"
         id="path67868"
         sodipodi:nodetypes="cccccsc" />
    </g>
    <path
       d="m 180.41771,188.37087 c 0,0 7.22052,-4.19073 11.26967,-6.00293 l 62.97418,23.16226 101.85169,2.74663 c 0,0 7.64524,7.9284 9.9105,10.64671 l 18.49017,53.06368 14.92239,5.97462 c 0,0 3.42621,10.2503 4.38894,14.12955 l -3.08641,24.46479 -147.63822,36.61224 -118.55797,-29.08025 0.3681,-72.88469 36.24414,-47.20233 z"
       style="fill:#c87373;fill-opacity:1;stroke-width:1"
       id="path909"
       inkscape:connector-curvature="0"
       inkscape:export-xdpi="68.17437"
       inkscape:export-ydpi="68.17437" />
    <path
       d="m 273.97289,249.92927 c -0.28316,14.32776 -1.076,55.49883 -0.79284,79.39731 4.72873,0.11326 9.9105,-0.14158 15.63028,-0.73621 7.64525,-0.76452 15.63029,-2.29357 23.33216,-3.76599 l 4.89863,-0.93442 c 7.90009,-1.50073 15.20554,-3.36957 22.34111,-5.71978 11.01482,-3.62441 23.19058,-8.29651 34.17709,-15.06397 -8.06999,-28.11752 -22.53933,-49.21274 -27.18311,-55.52715 -31.1473,-2.46346 -60.99208,0.82116 -72.40332,2.35021 z"
       style="fill:#c2c2c2;fill-opacity:1;stroke-width:1"
       id="path911"
       inkscape:connector-curvature="0"
       inkscape:export-xdpi="68.17437"
       inkscape:export-ydpi="68.17437" />
    <path
       d="m 356.76809,241.29297 c 5.52156,7.5603 18.77333,27.55121 27.21141,54.42284 6.17283,-5.12515 11.49619,-11.24135 15.57366,-18.46186 -3.79431,-10.56177 -8.38146,-20.81206 -13.87471,-30.58099 -5.52157,-9.79724 -11.94924,-19.16975 -19.22638,-27.77773 -2.69,8.80619 -6.96567,17.41417 -9.68398,22.39774 z"
       style="fill:#c2c2c2;fill-opacity:1;stroke-width:1"
       id="path913"
       inkscape:connector-curvature="0"
       inkscape:export-xdpi="68.17437"
       inkscape:export-ydpi="68.17437" />
    <path
       d="m 194.85874,202.13232 c 12.0625,4.61546 53.37515,21.03858 74.72521,36.1875 9.20261,-1.35916 41.59581,-5.54988 76.56574,-2.8882 4.53051,-8.35315 9.28756,-19.56617 10.33524,-27.18311 -0.42474,-0.42473 -0.79284,-0.87778 -1.21758,-1.2742 -14.52597,-13.64819 -32.93119,-21.15186 -51.50631,-27.43795 -25.93721,-8.77787 -54.16799,-11.86429 -81.20952,-7.0223 -10.70334,1.92547 -21.03859,5.23841 -30.86414,9.85388 z"
       style="fill:#c2c2c2;fill-opacity:1;stroke-width:1"
       id="path915"
       inkscape:connector-curvature="0"
       inkscape:export-xdpi="68.17437"
       inkscape:export-ydpi="68.17437" />
    <path
       d="m 404.1403,292.17634 c -5.63483,7.22051 -12.45892,13.22345 -19.76438,18.20702 -0.14157,0.11326 -0.31147,0.19821 -0.42473,0.31147 -13.42166,9.06103 -28.40068,14.89407 -40.77465,18.94322 -7.64525,2.5201 -15.43208,4.53052 -23.87017,6.1162 l -4.89862,0.93442 c -7.98503,1.52905 -16.19659,3.11473 -24.37984,3.9642 -4.81368,0.48137 -9.79724,0.87779 -14.80913,0.87779 -14.9507,0 -29.95804,-3.51115 -40.91623,-18.49017 -4.41725,-6.08789 -9.34419,-11.21303 -14.5826,-15.23387 l -2.18031,-1.69894 c -3.31294,-2.63336 -9.51409,-7.5603 -12.71377,-7.64525 l 0.31148,-12.09081 c 7.24882,0.19821 14.5826,6.00293 19.93427,10.25029 l 1.9821,1.55737 c 6.14452,4.70041 11.89261,10.64671 17.01776,17.69733 4.61546,6.31441 10.25029,9.9105 17.01775,11.80766 -0.22652,-25.54079 0.59463,-68.01439 0.84947,-79.96363 -20.72711,-14.52597 -62.40787,-30.92078 -72.34669,-34.71508 -3.90757,2.40683 -13.98797,10.78829 -25.85226,22.87911 -1.18926,1.21757 -2.77494,1.8122 -4.33231,1.8122 -1.52905,0 -3.0581,-0.56631 -4.21904,-1.72726 -2.37852,-2.32189 -2.43515,-6.14451 -0.0849,-8.55135 7.50367,-7.61693 19.39628,-19.14143 27.7211,-24.29489 l -2.40684,-14.78082 c -20.27406,12.11914 -40.29328,30.92078 -52.32747,52.78053 -12.0625,21.83143 -16.13996,46.66432 -4.64378,70.70438 3.766,7.78682 11.3263,20.86869 18.91491,25.39921 6.71083,4.02083 13.81808,7.44704 21.06691,10.4485 6.42767,2.66168 11.86429,6.00294 18.46185,7.92841 5.88967,1.75557 11.97756,3.65273 17.95218,4.98357 6.03125,1.35915 12.28902,1.78389 18.34859,2.91652 5.37999,0.99105 10.81661,1.89715 16.25323,1.9821 27.89099,0.3681 56.09346,1.84052 83.47477,-4.78536 16.64965,-4.02083 33.15773,-9.03272 48.81632,-15.94176 7.92841,-3.45452 15.6586,-7.41872 22.93575,-12.0625 5.91798,-3.73768 13.70481,-7.41872 16.79122,-14.10123 3.25631,-7.05062 0.48137,-15.57365 -1.24589,-22.70922 -0.31147,-1.18926 -0.73621,-2.46347 -1.076,-3.70936 z"
       style="fill:#c2c2c2;fill-opacity:1;stroke-width:1"
       id="path917"
       inkscape:connector-curvature="0"
       inkscape:export-xdpi="68.17437"
       inkscape:export-ydpi="68.17437" />
    <path
       d="m 151.67725,359.79431 c -2.77494,-1.64232 -6.73915,-2.20863 -12.11914,-2.97316 -7.07893,-0.99105 -14.78081,-2.97315 -21.85974,-1.69894 -6.08788,1.10431 -6.73914,2.66168 -8.72125,8.29651 -3.08641,8.86282 -12.062496,35.42298 -5.09683,43.80444 1.72726,2.06704 5.7481,2.80325 8.21157,3.53946 7.10724,2.152 14.66754,2.63336 22.1429,3.14305 6.37104,0.42473 12.65713,-0.73621 18.74501,-2.43516 4.55883,-1.2742 6.56925,-2.3502 6.93736,-7.3904 0.82115,-10.75998 -1.58569,-21.37838 -2.54842,-32.05341 -0.67958,-6.90904 -2.37852,-10.30692 -5.69146,-12.23239 z"
       style="fill:#e0e0e0;fill-opacity:1;stroke-width:1"
       id="path921"
       inkscape:connector-curvature="0"
       inkscape:export-xdpi="68.17437"
       inkscape:export-ydpi="68.17437" />
    <path
       d="m 426.67963,263.26598 c -4.75705,-4.47389 -12.57219,1.30252 -16.93281,3.62441 -3.90757,2.09537 -7.78683,4.16241 -11.75103,6.1162 2.85989,7.50367 5.35167,15.14892 7.22051,22.96406 0.84947,3.48283 1.92547,7.30546 2.46347,11.12808 0.14158,-0.16989 0.28316,-0.33979 0.42474,-0.48137 1.4441,-1.64231 2.74662,-3.31294 4.02083,-5.09683 4.95525,-7.0223 8.72125,-14.78081 12.7704,-22.31279 1.95378,-3.766 5.54988,-12.37398 1.78389,-15.94176 z"
       style="fill:#e0e0e0;fill-opacity:1;stroke-width:1"
       id="path925"
       inkscape:connector-curvature="0"
       inkscape:export-xdpi="68.17437"
       inkscape:export-ydpi="68.17437" />
    <g
       id="g56537"
       transform="matrix(1.0447506,-0.14454735,0.26148237,0.84428924,348.42433,17.940334)">
      <g
         id="g56533">
        <path
           style="fill:#e3e3e3;fill-opacity:1;stroke-width:7.36527"
           d="m -152.83329,208.67384 c 11.93174,8.52162 73.652724,14.73055 66.287452,-36.82636 -0.405634,-2.82801 -5.639697,-18.43345 -5.639697,-18.43345 0,0 15.861546,13.92476 20.370242,18.43345 22.095822,22.09581 46.104714,69.33385 31.374169,158.93975 -22.095817,-36.82636 -46.104714,-41.09539 -53.469987,-4.26903 -22.095819,-29.46109 -44.191639,-14.73054 -58.922179,0 -22.09582,-22.09582 0,-117.84436 0,-117.84436 z"
           id="path56529"
           sodipodi:nodetypes="cccscccc" />
        <path
           style="fill:#dc7474;fill-opacity:1;stroke-width:7.36527"
           d="m -84.962305,203.14989 0.449282,-0.64078 c -1.686647,20.89528 -11.998029,28.26792 -16.417197,50.35637 -4.33078,21.6539 -3.51323,40.64894 -0.64814,55.71092 -6.18683,-4.20557 -12.71246,-6.43725 -19.56216,-6.43725 -9.30971,0 -18.76672,3.96252 -28.68774,11.9833 12.07168,-68.62224 48.89804,-83.35279 64.865955,-110.97256 z"
           id="path56531" />
      </g>
      <path
         style="fill:#dc7474;fill-opacity:1;stroke-width:7.36527"
         d="m -93.535482,303.75951 c -6.577188,-19.81995 -4.212936,-44.10325 7.335812,-72.98985 10.95216,-27.39145 9.685333,-46.61481 8.315392,-54.67242 0.360898,0.30198 0.714432,0.5745 1.09006,0.95749 19.930428,19.93779 41.594701,59.49248 32.881584,132.4455 -9.390722,-10.15671 -20.721519,-21.92222 -26.724216,-21.92222 -9.324435,0 -17.190546,5.76701 -22.898632,16.1815 z"
         id="path56535"
         sodipodi:nodetypes="cccccsc" />
    </g>
    <path
       d="m 397.54274,327.88248 c -2.63336,1.75557 -5.43662,3.31294 -7.90009,4.8703 -7.27714,4.61547 -15.00734,8.57967 -22.93574,12.0625 -15.6586,6.90904 -32.16667,11.92093 -48.81632,15.94176 -27.38131,6.62588 -55.58378,5.15346 -83.47478,4.78536 -5.46493,-0.0849 -10.90155,-0.99105 -16.25323,-1.9821 -1.50073,-0.28316 -2.97315,-0.50969 -4.47388,-0.73621 l 1.47242,15.71523 c 0,0 5.32335,0.39642 14.83744,-0.19821 -1.84052,18.20701 -2.43515,37.85813 2.20863,41.59581 2.09536,1.69894 6.54093,2.01042 9.25924,2.46347 7.98504,1.33084 16.25323,1.13263 24.46479,0.99105 6.99399,-0.11327 13.73313,-1.64231 20.18912,-3.62442 4.84199,-1.47241 6.93735,-2.54841 6.85241,-6.99398 -0.0849,-5.69146 -2.01042,-23.98343 -3.96421,-39.64202 17.95218,-2.35021 40.06676,-6.79578 60.05767,-15.09229 0.28316,6.28609 0.538,11.66608 0.50968,12.7704 -0.16989,4.3323 -0.22652,10.25029 3.5961,13.59155 10.64671,9.3725 37.00866,3.90757 49.24106,-0.1699 9.11766,-3.00147 6.3144,-13.61986 4.5022,-19.82101 -1.04769,-3.70936 -5.26673,-23.02069 -9.37251,-36.52729 z"
       style="fill:#e0e0e0;fill-opacity:1;stroke-width:1"
       id="path923"
       inkscape:connector-curvature="0"
       inkscape:export-xdpi="68.17437"
       inkscape:export-ydpi="68.17437" />
    <path
       d="m 214.6979,378.04779 c -3.19968,0.11326 -6.42767,0.085 -9.74061,0.085 -23.587,0 -46.06969,-0.62295 -69.28859,-5.88968 -35.25309,-7.95672 -62.719342,-29.05194 -67.504701,-66.76849 -2.944836,-23.24721 1.755575,-50.79842 19.707749,-67.07997 16.847852,-15.29049 47.145682,-19.50953 67.901122,-12.45892 24.18163,8.2682 41.79401,28.14584 51.8461,51.08158 7.73019,17.66902 12.9686,33.52583 16.22491,52.58231 0.48137,2.91652 5.83304,47.00412 -0.42473,47.82527 -2.88821,0.33979 -5.80473,0.538 -8.72125,0.62295 z"
       style="fill:#e0e0e0;fill-opacity:1;stroke-width:1"
       id="path929"
       inkscape:connector-curvature="0"
       inkscape:export-xdpi="68.17437"
       inkscape:export-ydpi="68.17437" />
    <g
       id="g5669"
       transform="matrix(1.101021,0,0,1.101021,-13.048669,-31.179007)">
      <path
         style="fill:#ffffff;fill-opacity:1;stroke:none;stroke-width:1.22293px;stroke-linecap:butt;stroke-linejoin:miter;stroke-opacity:1"
         d="m 125.58417,311.72062 -9.31501,20.74589 c -0.80787,-7.77974 0.15823,-15.63787 -2.54633,-22.80507 z"
         id="path2623-3"
         sodipodi:nodetypes="cccc" />
      <path
         style="fill:#ffffff;fill-opacity:1;stroke:none;stroke-width:1.4139px;stroke-linecap:butt;stroke-linejoin:miter;stroke-opacity:1"
         d="m 144.61293,308.63886 c -3.12614,6.35175 -1.58776,15.437 -0.9788,23.90614 l -11.89699,-23.38205 z"
         id="path2025-6"
         sodipodi:nodetypes="cccc" />
      <path
         style="color:#000000;fill:#ff1111;stroke-width:1.05185;-inkscape-stroke:none"
         d="m 115.91285,329.63052 0.3563,2.83599 5.57565,-12.32508 c -2.55254,1.53038 -5.22344,7.89454 -5.93195,9.48909 z"
         id="path4418-7"
         sodipodi:nodetypes="cccc" />
      <path
         style="color:#000000;fill:#ff1111;stroke-width:1.05185;-inkscape-stroke:none"
         d="m 143.52939,330.04941 0.10474,2.49559 -4.36239,-8.37268 c 3.33869,3.09171 3.44774,4.34282 4.25765,5.87709 z"
         id="path5399"
         sodipodi:nodetypes="cccc" />
    </g>
    <g
       id="g3676"
       inkscape:export-xdpi="68.17437"
       inkscape:export-ydpi="68.17437">
      <path
         d="m 152.47087,260.91052 c 6.96765,-1.24669 13.79368,4.13673 15.23819,12.07019 1.44451,7.90512 -3.03065,15.38524 -9.99829,16.66026 -6.93933,1.24669 -13.76536,-4.13673 -15.2382,-12.04186 -1.44451,-7.93346 3.03065,-15.38524 9.9983,-16.68859 z"
         style="fill:#464646;stroke-width:2.83288;fill-opacity:1"
         id="path24"
         inkscape:export-xdpi="68.17437"
         inkscape:export-ydpi="68.17437" />
      <path
         d="m 88.714042,271.39402 c 1.982665,-7.7918 9.205228,-12.69354 16.031258,-10.93685 6.85435,1.7567 10.79136,9.52016 8.8087,17.31195 -2.01099,7.79179 -9.17691,12.69353 -16.031263,10.93684 -6.82603,-1.78503 -10.791359,-9.52015 -8.808695,-17.31194 z"
         style="fill:#464646;stroke-width:2.83288;fill-opacity:1"
         id="path26"
         inkscape:export-xdpi="68.17437"
         inkscape:export-ydpi="68.17437" />
      <path
         d="m 134.20203,304.1288 c -3.22891,1.7567 -6.00464,3.62673 -9.7717,2.23837 -2.18093,-0.79335 -4.24857,-1.41669 -6.14626,-2.83338 -1.35954,-0.99168 -2.88903,-1.81336 -4.24857,-2.80504 -0.70809,-0.51001 -1.38787,-1.04835 -2.09596,-1.55836 -0.79307,-0.59501 -1.0763,-0.85001 -2.09596,-0.99168 -0.82139,-0.085 -2.43584,-0.14167 -3.05897,0.53834 -2.66243,2.97505 1.07631,7.39512 3.08729,9.40681 3.00232,2.91838 7.27922,6.23344 11.21622,7.93346 3.85203,1.6717 7.67574,3.6834 11.78269,1.64336 4.50348,-2.2667 8.41216,-5.55342 12.37749,-8.58513 2.60579,-1.98337 8.44049,-5.46842 7.42083,-9.35015 -0.70809,-2.83338 -3.99365,-2.23837 -6.14626,-1.55836 -2.71908,0.82168 -5.15492,2.21004 -7.67574,3.48506 -1.55781,0.76501 -3.08729,1.61502 -4.6451,2.4367 z"
         style="fill:#464646;stroke-width:2.83288;fill-opacity:1"
         id="path28"
         inkscape:export-xdpi="68.17437"
         inkscape:export-ydpi="68.17437" />
    </g>
  </g>
  <g
     id="g1139"
     transform="matrix(0.80796587,0,0,0.80796587,53.889899,-391.45209)"
     inkscape:export-xdpi="29.648485"
     inkscape:export-ydpi="29.648485">
    <g
       style="opacity:0.332;fill:#020303;fill-opacity:1;filter:url(#filter1127)"
       id="g901"
       transform="matrix(6.0375504,0,0,6.0375504,156.65751,27.029618)" />
    <g
       transform="matrix(6.0375504,0,0,6.0375504,156.65751,17.029618)"
       id="g889">
      <path
         sodipodi:nodetypes="cccssscccsssc"
         style="fill:#191919;fill-opacity:1"
         inkscape:connector-curvature="0"
         d="m 30.198,27.385 0.529008,-14.63859 c 0,-0.135 0.160764,1.165004 -0.021,-0.373 0.003,-0.033 0.021,-0.075 0.021,-0.11 0,-1.804 -4.996008,-3.0424169 -12.727008,-3.0424169 -7.732,0 -11.6073884,1.4461199 -11.6073884,3.2511199 0,0.035 0.017,0.068 0.022,0.102 -0.014,0.11 -0.022,0.23 -0.022,0.365 L 5.802,27.385 C 2.298,28.295 0,29.576 0,31 c 0,2.762 8.611,5 18,5 9.389,0 18,-2.238 18,-5 0,-1.424 -2.298,-2.705 -5.802,-3.615 z"
         id="path872" />
      <path
         style="opacity:0.35613;fill:#737373;fill-opacity:1;stroke-width:0.884061"
         inkscape:connector-curvature="0"
         d="m 17.939744,15.454102 c -4.022863,0 -7.076619,-0.85123 -8.9276299,-1.563754 -0.4310798,-0.166256 -0.6647184,-0.703974 -0.5207509,-1.201791 0.1439675,-0.497818 0.6079541,-0.767627 1.0406792,-0.601371 2.3766976,0.914881 8.8535896,2.746544 17.6224436,-0.0152 0.435194,-0.134905 0.890131,0.159605 1.009418,0.666923 0.12011,0.506367 -0.139032,1.028885 -0.577516,1.16664 -3.62469,1.141938 -6.866838,1.548553 -9.646644,1.548553 z"
         id="path874" />
      <path
         sodipodi:nodetypes="ccccsccscc"
         style="fill:#ba3232;fill-opacity:1;stroke-width:0.922974"
         inkscape:connector-curvature="0"
         d="m 30.198,27.385 0.06656,-1.963248 C 22.559558,27.259261 13.608079,27.355099 5.8770787,25.153835 L 5.721,26.478597 c 0.069,0.258972 0.113,0.553724 0.113,0.916626 0,1.490793 1.289,2.409123 2.771,2.892991 4.458,1.455015 13.958,1.402199 18.807,0.126931 1.467,-0.385903 2.776,-1.476312 2.776,-2.718356 0,-0.101374 0.015,-0.205303 0.024,-0.30753 z"
         id="path876" />
    </g>
  </g>
  <g
     id="g27983"
     transform="matrix(0.33332489,0.89627108,0.89627108,-0.33332489,64.512446,39.581511)">
    <circle
       r="61.953213"
       cy="-108.45774"
       cx="23.821255"
       fill="#ffffff"
       fill-rule="evenodd"
       id="circle23522"
       style="fill:#ebebeb;fill-opacity:1;stroke-width:2.3426"
       transform="rotate(119.38298)" />
    <g
       id="g25932"
       style="fill:#c4c8ca;fill-opacity:1">
      <path
         d="M 97.017504,134.34863 C 99.58174,94.856268 53.696824,93.978771 46.037951,123.7866 c 12.998876,9.6536 31.112957,15.1437 50.979553,10.56203 z"
         fill="#aeb5ba"
         id="path23524"
         style="fill:#c4c8ca;fill-opacity:1;stroke-width:2.3426" />
      <circle
         r="12.2107"
         cy="-146.55664"
         cx="24.161036"
         fill="#aeb5ba"
         fill-rule="evenodd"
         id="circle23526"
         transform="rotate(119.38298)"
         style="fill:#c4c8ca;fill-opacity:1;stroke-width:2.3426" />
      <circle
         r="3.2782009"
         cy="-139.20822"
         cx="-13.148265"
         fill="#aeb5ba"
         fill-rule="evenodd"
         id="circle23528"
         transform="rotate(119.38298)"
         style="fill:#c4c8ca;fill-opacity:1;stroke-width:2.3426" />
      <circle
         r="5.8792257"
         cy="-106.19652"
         cx="-13.373178"
         fill="#aeb5ba"
         fill-rule="evenodd"
         id="circle23530"
         transform="rotate(119.38298)"
         style="fill:#c4c8ca;fill-opacity:1;stroke-width:2.3426" />
      <circle
         r="10.174387"
         cy="-67.418015"
         cx="37.048878"
         fill="#aeb5ba"
         fill-rule="evenodd"
         id="circle23532"
         transform="rotate(119.38298)"
         style="fill:#c4c8ca;fill-opacity:1;stroke-width:2.3426" />
      <path
         d="M 80.957902,12.045317 C 75.234123,37.192412 59.105609,37.334948 44.063142,25.643653 55.291142,16.617917 68.59218,12.318422 80.957902,12.045317 Z"
         fill="#aeb5ba"
         id="path23534"
         style="fill:#c4c8ca;fill-opacity:1;stroke-width:2.3426" />
    </g>
    <path
       id="path23536"
       style="opacity:0.201461;fill:#a5abae;fill-opacity:1;stroke-width:2.3426"
       d="m 110.89845,25.169922 c -51.659295,0.590316 -83.668734,66.69701 -40.24024,108.826168 1.810763,0.58054 3.607604,1.06899 5.390625,1.49414 A 61.953212,61.953212 0 0 0 136.80079,104.36719 61.953212,61.953212 0 0 0 122.07228,26.050781 c -3.80897,-0.638 -7.53993,-0.922384 -11.17383,-0.880859 z" />
  </g>
  <g
     id="g60039"
     transform="matrix(3.468578,0.91807832,-0.91807832,3.468578,323.89226,49.179032)"
     style="fill:#080808;fill-opacity:1">
    <path
       fill="#66757f"
       d="m 23,21 c 0,6.352 -3,10 -5,10 -2,0 -5,-3.648 -5,-10 0,-6.352 2.239,-7 5,-7 2.762,0 5,0.648 5,7 z"
       id="path59634"
       style="fill:#080808;fill-opacity:1" />
    <circle
       fill="#66757f"
       cx="18"
       cy="11"
       r="4"
       id="circle59636"
       style="fill:#080808;fill-opacity:1" />
    <path
       fill="#66757f"
       d="m 14,11 c -2,-5 1,-7 1,-7 0,0 2,1 2,4 0,3 -3,3 -3,3 z"
       id="path59638"
       style="fill:#080808;fill-opacity:1" />
    <path
       fill="#66757f"
       d="m 22,11 c 2,-5 -1,-7 -1,-7 0,0 -2,1 -2,4 0,3 3,3 3,3 z m -5.984,3 c -1.62,1.157 -10,2 -9,-5 0.142,-0.99 -1,-1 -2,0 -3,3 -6,7.834 -4,20 3,-5 6,-4 7,1 3,-4 6,-2 8,0 3,-3 0,-16 0,-16 z m 3.937,0 c 1.62,1.157 10,2 9,-5 -0.142,-0.99 1,-1 2,0 3,3 6,7.834 4,20 -3,-5 -6,-4 -7,1 -3,-4 -6,-2 -8,0 -3,-3 0,-16 0,-16 z"
       id="path59642"
       style="fill:#080808;fill-opacity:1" />
  </g>
  <g
     id="g65150"
     style="fill:#292d30;fill-opacity:1"
     transform="matrix(0.67488731,0.17863211,-0.17863211,0.67488731,308.49091,53.643477)">
    <circle
       fill="#292f33"
       cx="101.92211"
       cy="44.707611"
       r="5.139492"
       id="circle59644"
       style="fill:#292d30;fill-opacity:1;stroke-width:5.13949" />
    <circle
       fill="#292f33"
       cx="122.48008"
       cy="44.707611"
       r="5.139492"
       id="circle59646"
       style="fill:#292d30;fill-opacity:1;stroke-width:5.13949" />
  </g>
  <g
     id="g60046"
     transform="matrix(3.468578,0.91807832,-0.91807832,3.468578,323.89226,49.179032)"
     style="fill:#562b2b;fill-opacity:1">
    <path
       fill="#546066"
       d="M 14.668,9.904 C 13.892,7.447 14.549,6.008 15.071,5.324 15.486,5.773 16,6.608 16,8 16,9.268 15.261,9.734 14.668,9.904 Z"
       id="path59640"
       style="fill:#562b2b;fill-opacity:1" />
    <path
       fill="#546066"
       d="M 21.332,9.904 C 22.107,7.447 21.45,6.008 20.929,5.324 20.514,5.773 20,6.608 20,8 c 0,1.268 0.739,1.734 1.332,1.904 z"
       id="path59648"
       style="fill:#562b2b;fill-opacity:1" />
    <path
       fill="#99aab5"
       d="M 7.996,26.91 C 8.888,24.219 8.569,20.922 7,17 5.513,13.281 5.685,10.671 5.871,9.577 5.822,9.618 5.775,9.655 5.723,9.707 3.017,12.414 0.477,16.531 1.66,26.436 c 1.276,-1.379 2.412,-1.723 3.228,-1.723 1.265,0 2.333,0.783 3.108,2.197 z"
       id="path59650"
       style="fill:#562b2b;fill-opacity:1" />
    <path
       fill="#99aab5"
       d="M 6.832,13.25 C 6.813,13.22 6.791,13.192 6.772,13.163 7,16 8.4,17.001 9,20 c 0.588,2.94 0.476,5.519 0.088,7.564 0.839,-0.571 1.726,-0.874 2.656,-0.874 1.264,0 2.548,0.538 3.895,1.627 C 14,19 9,17 6.832,13.25 Z M 28.004,26.91 C 27.111,24.219 27.432,20.922 29,17 c 1.487,-3.719 1.315,-6.329 1.129,-7.423 0.049,0.041 0.097,0.078 0.148,0.13 2.706,2.707 5.246,6.824 4.063,16.729 -1.275,-1.379 -2.412,-1.723 -3.227,-1.723 -1.266,0 -2.334,0.783 -3.109,2.197 z"
       id="path59652"
       style="fill:#562b2b;fill-opacity:1" />
    <path
       fill="#99aab5"
       d="m 29.168,13.25 0.061,-0.087 C 29,16 27.6,17.001 27,20 c -0.588,2.94 -0.477,5.519 -0.088,7.564 -0.84,-0.571 -1.726,-0.874 -2.656,-0.874 -1.264,0 -2.548,0.538 -3.895,1.627 C 22,19 27,17 29.168,13.25 Z m -10.48,-0.144 c -0.378,0.378 -0.998,0.378 -1.375,0 l -0.57,-0.571 c -0.378,-0.378 -0.25,-0.688 0.285,-0.688 h 1.945 c 0.535,0 0.664,0.309 0.285,0.688 z"
       id="path59654"
       style="fill:#562b2b;fill-opacity:1" />
  </g>
</svg>
