<?xml version="1.0" encoding="UTF-8" standalone="no"?>
<svg
   width="128"
   height="128"
   version="1.1"
   id="svg38"
   inkscape:version="1.1 (c4e8f9ed74, 2021-05-24)"
   inkscape:export-xdpi="96"
   inkscape:export-ydpi="96"
   sodipodi:docname="gkaptain1.svg"
   xmlns:inkscape="http://www.inkscape.org/namespaces/inkscape"
   xmlns:sodipodi="http://sodipodi.sourceforge.net/DTD/sodipodi-0.dtd"
   xmlns="http://www.w3.org/2000/svg"
   xmlns:svg="http://www.w3.org/2000/svg"
   xmlns:rdf="http://www.w3.org/1999/02/22-rdf-syntax-ns#"
   xmlns:cc="http://creativecommons.org/ns#"
   xmlns:dc="http://purl.org/dc/elements/1.1/">
  <rect
     style="opacity:0.240511;fill:#ff00f5;fill-rule:evenodd;stroke-width:69.4005;stroke-linecap:square"
     id="rect2108"
     width="128"
     height="128"
     x="0"
     y="0"
     ry="64" />
  <g
     id="g1162">
    <path
       d="m 45.10443,47.092717 c 0,0 1.80513,-1.047682 2.817417,-1.500732 l 15.743545,5.790565 25.462925,0.686658 c 0,0 1.911308,1.9821 2.477625,2.661677 l 4.622543,13.26592 3.730597,1.493655 c 0,0 0.856558,2.562575 1.097238,3.532388 l -0.77161,6.116197 -36.909553,9.15306 -29.639492,-7.270062 0.09202,-18.221173 9.061035,-11.800582 z"
       style="fill:#2f2f2f;stroke-width:0.25"
       id="path909"
       inkscape:connector-curvature="0"
       inkscape:export-xdpi="68.17437"
       inkscape:export-ydpi="68.17437" />
    <path
       d="m 68.493225,62.482317 c -0.07079,3.58194 -0.269,13.874708 -0.198208,19.849328 1.182181,0.02832 2.477623,-0.03539 3.907571,-0.184052 1.91131,-0.191131 3.90757,-0.573393 5.83304,-0.941498 l 1.224655,-0.233605 c 1.975025,-0.375182 3.801384,-0.842392 5.585279,-1.429945 2.753705,-0.906103 5.797646,-2.074128 8.544273,-3.765992 -2.0175,-7.02938 -5.634832,-12.303185 -6.79578,-13.881788 -7.786822,-0.615865 -15.24802,0.20529 -18.10083,0.587552 z"
       style="fill:#757f3f;stroke-width:0.25"
       id="path911"
       inkscape:connector-curvature="0"
       inkscape:export-xdpi="68.17437"
       inkscape:export-ydpi="68.17437" />
    <path
       d="m 89.192027,60.323242 c 1.38039,1.890076 4.693333,6.887803 6.802853,13.60571 1.543207,-1.281287 2.874047,-2.810337 3.893415,-4.615465 -0.948578,-2.640442 -2.095365,-5.203015 -3.468678,-7.645247 -1.380392,-2.44931 -2.987312,-4.792438 -4.806597,-6.944433 -0.672498,2.201548 -1.741417,4.353543 -2.420993,5.599435 z"
       style="fill:#757f3f;stroke-width:0.25"
       id="path913"
       inkscape:connector-curvature="0"
       inkscape:export-xdpi="68.17437"
       inkscape:export-ydpi="68.17437" />
    <path
       d="m 48.714687,50.53308 c 3.015625,1.153865 13.343788,5.259645 18.681303,9.046875 2.300652,-0.33979 10.398955,-1.38747 19.141437,-0.72205 1.132625,-2.088288 2.32189,-4.891543 2.58381,-6.795778 -0.106187,-0.106182 -0.19821,-0.219445 -0.304395,-0.31855 -3.631492,-3.412047 -8.232797,-5.287965 -12.876577,-6.859487 -6.484305,-2.194468 -13.542,-2.966073 -20.302383,-1.755575 -2.675835,0.481367 -5.259647,1.309602 -7.716035,2.46347 z"
       style="fill:#757f3f;stroke-width:0.25"
       id="path915"
       inkscape:connector-curvature="0"
       inkscape:export-xdpi="68.17437"
       inkscape:export-ydpi="68.17437" />
    <path
       d="m 101.03508,73.044085 c -1.408708,1.805127 -3.11473,3.305862 -4.941098,4.551755 -0.03539,0.02832 -0.07787,0.04955 -0.10618,0.07787 -3.355414,2.265258 -7.100172,3.723518 -10.193662,4.735805 -1.911315,0.630025 -3.858023,1.13263 -5.967545,1.52905 l -1.224653,0.233605 c -1.996257,0.382263 -4.04915,0.778683 -6.09496,0.99105 -1.20342,0.120343 -2.449312,0.219448 -3.702285,0.219448 -3.737675,0 -7.48951,-0.877788 -10.229057,-4.622543 -1.104313,-1.521972 -2.336048,-2.803257 -3.64565,-3.808467 L 54.384912,76.52692 C 53.556677,75.86858 52.00639,74.636845 51.20647,74.615607 l 0.07787,-3.022702 c 1.812205,0.04955 3.64565,1.500732 4.983567,2.562573 l 0.495525,0.389342 c 1.53613,1.175102 2.973153,2.661677 4.25444,4.424333 1.153865,1.578602 2.562573,2.477625 4.254438,2.951915 C 65.21568,75.53587 65.420967,64.91747 65.484677,61.93016 60.3029,58.298667 49.88271,54.199965 47.398005,53.25139 c -0.976893,0.601708 -3.496993,2.697072 -6.463065,5.719777 -0.297315,0.304393 -0.693735,0.45305 -1.08308,0.45305 -0.38226,0 -0.764523,-0.141577 -1.054758,-0.431815 -0.59463,-0.580472 -0.60879,-1.536127 -0.02123,-2.137837 1.87592,-1.904233 4.849073,-4.785358 6.930278,-6.073723 l -0.60171,-3.695205 c -5.068515,3.029785 -10.07332,7.730195 -13.081868,13.195133 -3.015627,5.457857 -4.03499,11.66608 -1.160945,17.676095 0.9415,1.946705 2.831573,5.217172 4.728725,6.349802 1.67771,1.005208 3.45452,1.86176 5.26673,2.612125 1.606918,0.66542 2.966073,1.500735 4.615463,1.982103 1.472417,0.438892 2.994387,0.913182 4.488045,1.245892 1.507812,0.339788 3.072255,0.445973 4.587147,0.72913 1.344998,0.247763 2.704153,0.474288 4.063308,0.495525 6.97275,0.09202 14.023367,0.46013 20.868692,-1.19634 4.162415,-1.005207 8.289435,-2.25818 12.204083,-3.98544 1.982102,-0.86363 3.91465,-1.85468 5.733937,-3.015625 1.479495,-0.93442 3.426203,-1.85468 4.197803,-3.525307 0.81408,-1.762655 0.12035,-3.893413 -0.31147,-5.677305 -0.0779,-0.297315 -0.18405,-0.615868 -0.269,-0.92734 z"
       style="fill:#757f3f;stroke-width:0.25"
       id="path917"
       inkscape:connector-curvature="0"
       inkscape:export-xdpi="68.17437"
       inkscape:export-ydpi="68.17437" />
    <path
       d="M 37.919312,89.948577 C 37.225577,89.537998 36.234527,89.39642 34.88953,89.205287 33.119795,88.957525 31.194327,88.462 29.424595,88.780552 c -1.52197,0.276078 -1.684788,0.66542 -2.180315,2.074128 -0.771603,2.215705 -3.015623,8.855745 -1.274205,10.95111 0.431815,0.51676 1.437022,0.70081 2.05289,0.88487 1.77681,0.538 3.666887,0.65834 5.535727,0.78576 1.592758,0.10618 3.164283,-0.18405 4.686253,-0.60879 1.139707,-0.31855 1.642312,-0.58755 1.734337,-1.8476 0.205288,-2.689997 -0.396422,-5.344597 -0.637102,-8.013355 -0.169897,-1.72726 -0.59463,-2.57673 -1.422868,-3.058098 z"
       style="fill:#bdcf46;stroke-width:0.25"
       id="path921"
       inkscape:connector-curvature="0"
       inkscape:export-xdpi="68.17437"
       inkscape:export-ydpi="68.17437" />
    <path
       d="m 99.38569,81.97062 c -0.65834,0.438892 -1.359155,0.828235 -1.975022,1.217575 -1.819285,1.153867 -3.751835,2.144917 -5.733936,3.015625 -3.914652,1.72726 -8.041667,2.980232 -12.20408,3.98544 -6.84533,1.65647 -13.895947,1.288365 -20.868697,1.19634 -1.366233,-0.02123 -2.725385,-0.247762 -4.063308,-0.495525 -0.375182,-0.07079 -0.743287,-0.127422 -1.11847,-0.184053 l 0.368105,3.928808 c 0,0 1.330838,0.09911 3.70936,-0.04955 -0.46013,4.551753 -0.608787,9.46453 0.552158,10.39895 0.52384,0.42473 1.635232,0.50261 2.31481,0.61587 1.99626,0.33271 4.06331,0.28315 6.116197,0.24776 1.7485,-0.0283 3.433283,-0.41058 5.04728,-0.90611 1.2105,-0.3681 1.73434,-0.6371 1.713103,-1.74849 -0.02123,-1.42287 -0.502602,-5.995855 -0.99105,-9.910502 4.488043,-0.587553 10.016687,-1.698945 15.014418,-3.773073 0.07079,1.571523 0.134497,2.91652 0.12742,3.1926 -0.04248,1.083075 -0.05663,2.562573 0.899024,3.397888 2.661678,2.343125 9.252166,0.976892 12.310268,-0.04248 2.27941,-0.750368 1.5786,-3.404965 1.12555,-4.955253 -0.26192,-0.92734 -1.31668,-5.755172 -2.34313,-9.131822 z"
       style="fill:#bdcf46;stroke-width:0.25"
       id="path923"
       inkscape:connector-curvature="0"
       inkscape:export-xdpi="68.17437"
       inkscape:export-ydpi="68.17437" />
    <path
       d="m 106.66991,65.816495 c -1.18926,-1.118472 -3.14304,0.32563 -4.2332,0.906103 -0.97689,0.523842 -1.94671,1.040602 -2.937758,1.52905 0.714968,1.875917 1.337918,3.787229 1.805128,5.741015 0.21237,0.870707 0.48137,1.826365 0.61586,2.78202 0.0354,-0.04247 0.0708,-0.08495 0.10619,-0.120343 0.36103,-0.410577 0.68666,-0.828235 1.00521,-1.274207 1.23881,-1.755575 2.18031,-3.695203 3.1926,-5.578198 0.48844,-0.9415 1.38747,-3.093495 0.44597,-3.98544 z"
       style="fill:#bdcf46;stroke-width:0.25"
       id="path925"
       inkscape:connector-curvature="0"
       inkscape:export-xdpi="68.17437"
       inkscape:export-ydpi="68.17437" />
    <path
       d="m 53.79736,94.63483 c -0.79992,0.02832 -1.606918,0.02125 -2.435153,0.02125 -5.89675,0 -11.517422,-0.155738 -17.32215,-1.47242 -8.81327,-1.98918 -15.679835,-7.262985 -16.876175,-16.692123 -0.736209,-5.811802 0.438893,-12.699605 4.926937,-16.769992 4.211966,-3.822623 11.786423,-4.877383 16.975283,-3.11473 6.045408,2.06705 10.448503,7.03646 12.961525,12.770395 1.932548,4.417255 3.242151,8.381457 4.05623,13.145577 0.12034,0.72913 1.458258,11.75103 -0.106185,11.956318 -0.722052,0.08495 -1.451182,0.1345 -2.180312,0.155737 z"
       style="fill:#bdcf46;stroke-width:0.25"
       id="path929"
       inkscape:connector-curvature="0"
       inkscape:export-xdpi="68.17437"
       inkscape:export-ydpi="68.17437" />
    <g
       id="g3676"
       inkscape:export-xdpi="68.17437"
       inkscape:export-ydpi="68.17437"
       transform="scale(0.25)">
      <path
         d="m 152.47087,260.91052 c 6.96765,-1.24669 13.79368,4.13673 15.23819,12.07019 1.44451,7.90512 -3.03065,15.38524 -9.99829,16.66026 -6.93933,1.24669 -13.76536,-4.13673 -15.2382,-12.04186 -1.44451,-7.93346 3.03065,-15.38524 9.9983,-16.68859 z"
         style="fill:#2f2f2f;stroke-width:2.83288"
         id="path24"
         inkscape:export-xdpi="68.17437"
         inkscape:export-ydpi="68.17437" />
      <path
         d="m 88.714042,271.39402 c 1.982665,-7.7918 9.205228,-12.69354 16.031258,-10.93685 6.85435,1.7567 10.79136,9.52016 8.8087,17.31195 -2.01099,7.79179 -9.17691,12.69353 -16.031263,10.93684 -6.82603,-1.78503 -10.791359,-9.52015 -8.808695,-17.31194 z"
         style="fill:#2f2f2f;stroke-width:2.83288"
         id="path26"
         inkscape:export-xdpi="68.17437"
         inkscape:export-ydpi="68.17437" />
      <path
         d="m 134.20203,304.1288 c -3.22891,1.7567 -6.00464,3.62673 -9.7717,2.23837 -2.18093,-0.79335 -4.24857,-1.41669 -6.14626,-2.83338 -1.35954,-0.99168 -2.88903,-1.81336 -4.24857,-2.80504 -0.70809,-0.51001 -1.38787,-1.04835 -2.09596,-1.55836 -0.79307,-0.59501 -1.0763,-0.85001 -2.09596,-0.99168 -0.82139,-0.085 -2.43584,-0.14167 -3.05897,0.53834 -2.66243,2.97505 1.07631,7.39512 3.08729,9.40681 3.00232,2.91838 7.27922,6.23344 11.21622,7.93346 3.85203,1.6717 7.67574,3.6834 11.78269,1.64336 4.50348,-2.2667 8.41216,-5.55342 12.37749,-8.58513 2.60579,-1.98337 8.44049,-5.46842 7.42083,-9.35015 -0.70809,-2.83338 -3.99365,-2.23837 -6.14626,-1.55836 -2.71908,0.82168 -5.15492,2.21004 -7.67574,3.48506 -1.55781,0.76501 -3.08729,1.61502 -4.6451,2.4367 z"
         style="fill:#2f2f2f;stroke-width:2.83288"
         id="path28"
         inkscape:export-xdpi="68.17437"
         inkscape:export-ydpi="68.17437" />
    </g>
  </g>
  <metadata
     id="metadata44">
    <rdf:RDF>
      <cc:Work
         rdf:about="">
        <dc:format>image/svg+xml</dc:format>
        <dc:type
           rdf:resource="http://purl.org/dc/dcmitype/StillImage" />
      </cc:Work>
    </rdf:RDF>
  </metadata>
  <defs
     id="defs42" />
  <sodipodi:namedview
     pagecolor="#ffffff"
     bordercolor="#666666"
     borderopacity="1"
     objecttolerance="10"
     gridtolerance="10"
     guidetolerance="10"
     inkscape:pageopacity="0"
     inkscape:pageshadow="2"
     inkscape:window-width="1920"
     inkscape:window-height="1080"
     id="namedview40"
     showgrid="false"
     inkscape:zoom="5.2149124"
     inkscape:cx="55.897391"
     inkscape:cy="103.5492"
     inkscape:window-x="0"
     inkscape:window-y="0"
     inkscape:window-maximized="1"
     inkscape:current-layer="svg38"
     inkscape:pagecheckerboard="0"
     showguides="true"
     inkscape:guide-bbox="true" />
  <path
     style="fill:#644502;fill-opacity:1;stroke:none;stroke-width:0.25px;stroke-linecap:butt;stroke-linejoin:miter;stroke-opacity:1"
     d="m 34.975482,35.042545 c 1.971168,-1.53133 7.055768,6.176762 14.185253,5.90486 1.172725,-5.36078 3.383618,-13.16168 8.144643,-13.438658 2.439022,-0.141897 5.38267,2.639608 8.280385,2.64701 2.86932,0.0073 5.374362,-3.00093 8.212514,-2.579137 5.136478,0.763342 7.805283,13.302912 7.805283,13.302912 7.440178,0.155765 11.0493,-7.601782 13.44207,-5.972735 9.64306,6.56518 -10.233437,19.411398 -27.96327,19.411398 -22.98713,0 -40.45525,-12.790133 -32.106878,-19.27565 z"
     id="path945"
     inkscape:connector-curvature="0"
     sodipodi:nodetypes="scsascsss"
     inkscape:export-xdpi="68.17437"
     inkscape:export-ydpi="68.17437" />
  <path
     style="fill:#805d0b;fill-opacity:1;stroke:none;stroke-width:0.25px;stroke-linecap:butt;stroke-linejoin:miter;stroke-opacity:1"
     d="m 53.192413,40.66205 -0.719893,2.783583 c 8.462728,5.950382 18.749173,4.706132 25.388175,-0.09599 l -0.33595,-2.687593 c -7.582152,3.742927 -15.87302,5.663697 -24.332332,0 z"
     id="path947"
     inkscape:connector-curvature="0"
     sodipodi:nodetypes="ccccc"
     inkscape:export-xdpi="68.17437"
     inkscape:export-ydpi="68.17437" />
  <path
     style="fill:#805d0b;fill-opacity:1;stroke:none;stroke-width:0.25px;stroke-linecap:butt;stroke-linejoin:miter;stroke-opacity:1"
     d="m 53.960298,37.49453 c 0,0 2.577525,-5.380663 5.135225,-6.143078 2.002965,-0.597057 3.909532,1.778145 5.999097,1.823725 2.377912,0.05189 4.66648,-2.562815 6.910955,-1.77573 2.436543,0.854435 4.6553,6.191065 4.6553,6.191065 -8.30977,2.93964 -16.05071,3.603978 -22.700577,-0.09598 z"
     id="path949"
     inkscape:connector-curvature="0"
     sodipodi:nodetypes="caaacc"
     inkscape:export-xdpi="68.17437"
     inkscape:export-ydpi="68.17437" />
  <g
     id="g6508"
     transform="matrix(0.25,0,0,0.25,-236.8688,0)"
     inkscape:export-xdpi="68.17437"
     inkscape:export-ydpi="68.17437">
    <ellipse
       style="fill:#4343cb;fill-opacity:1;fill-rule:evenodd;stroke:none;stroke-width:2.89746;stroke-linecap:round;stroke-linejoin:round;paint-order:stroke fill markers"
       id="path891"
       cx="1253.741"
       cy="341.89172"
       rx="135.55429"
       ry="136.87555" />
    <ellipse
       style="fill:#ffffff;fill-opacity:1;fill-rule:evenodd;stroke:none;stroke-width:2.463;stroke-linecap:round;stroke-linejoin:round;paint-order:stroke fill markers"
       id="ellipse1639"
       cx="1253.741"
       cy="341.89172"
       rx="115.22833"
       ry="116.3515" />
    <ellipse
       style="fill:#cb4543;fill-opacity:1;fill-rule:evenodd;stroke:none;stroke-width:2.02257;stroke-linecap:round;stroke-linejoin:round;paint-order:stroke fill markers"
       id="ellipse1875"
       cx="1253.741"
       cy="341.89172"
       rx="94.623482"
       ry="95.545799" />
    <ellipse
       style="fill:#4343cb;fill-opacity:1;fill-rule:evenodd;stroke:none;stroke-width:1.44901;stroke-linecap:round;stroke-linejoin:round;paint-order:stroke fill markers"
       id="ellipse1985"
       cx="1253.7339"
       cy="342.08694"
       rx="67.790077"
       ry="68.450836" />
    <path
       style="fill:none;stroke:#ffffff;stroke-width:20.0056;stroke-linecap:butt;stroke-linejoin:miter;stroke-miterlimit:4;stroke-dasharray:none;stroke-opacity:1"
       d="m 1203.893,291.82001 109.8921,109.89216"
       id="path5105" />
    <path
       style="fill:none;stroke:#ffffff;stroke-width:20.0056;stroke-linecap:butt;stroke-linejoin:miter;stroke-miterlimit:4;stroke-dasharray:none;stroke-opacity:1"
       d="M 1197.3595,398.41099 1315.171,280.59959"
       id="path5107" />
    <path
       style="fill:none;stroke:#cb4543;stroke-width:8.00224;stroke-linecap:butt;stroke-linejoin:miter;stroke-miterlimit:4;stroke-dasharray:none;stroke-opacity:1"
       d="m 1203.893,291.82001 109.8921,109.89216"
       id="path4811" />
    <path
       style="fill:none;stroke:#cb4543;stroke-width:8.00224;stroke-linecap:butt;stroke-linejoin:miter;stroke-miterlimit:4;stroke-dasharray:none;stroke-opacity:1"
       d="M 1197.3595,398.41099 1315.171,280.59959"
       id="path4813" />
    <path
       id="path2067"
       style="color:#000000;fill:#cb4543;stroke:#ffffff;stroke-width:4.00113;stroke-miterlimit:4;stroke-dasharray:none;stroke-opacity:1;paint-order:normal"
       d="m 1243.8417,267.00426 -0.069,64.23542 -64.2354,-0.0691 -0.022,20.00559 64.2353,0.0691 -0.069,64.23543 20.0056,0.0222 0.069,-64.23542 64.2353,0.069 0.022,-20.0056 -64.2355,-0.069 0.069,-64.23541 z" />
    <path
       id="ellipse6405"
       style="fill:#cb4543;fill-rule:evenodd;stroke-width:2.02257;stroke-linecap:round;stroke-linejoin:round;paint-order:stroke fill markers"
       d="m 1253.7402,246.3457 a 94.623482,95.545799 0 0 0 -94.623,95.54688 94.623482,95.545799 0 0 0 94.623,95.54492 94.623482,95.545799 0 0 0 94.625,-95.54492 94.623482,95.545799 0 0 0 -94.625,-95.54688 z m -0.01,27.29102 a 67.790077,68.450836 0 0 1 67.789,68.45117 67.790077,68.450836 0 0 1 -67.789,68.44922 67.790077,68.450836 0 0 1 -67.791,-68.44922 67.790077,68.450836 0 0 1 67.791,-68.45117 z" />
  </g>
</svg>
