<?xml version="1.0" encoding="UTF-8" standalone="no"?>
<svg
   width="512"
   height="512"
   version="1.1"
   id="svg38"
   inkscape:version="1.1.2 (b8e25be833, 2022-02-05)"
   inkscape:export-xdpi="96"
   inkscape:export-ydpi="96"
   sodipodi:docname="gkod.svg"
   inkscape:export-filename="C:\turtles\gkod\gkodbig.png"
   xmlns:inkscape="http://www.inkscape.org/namespaces/inkscape"
   xmlns:sodipodi="http://sodipodi.sourceforge.net/DTD/sodipodi-0.dtd"
   xmlns="http://www.w3.org/2000/svg"
   xmlns:svg="http://www.w3.org/2000/svg"
   xmlns:rdf="http://www.w3.org/1999/02/22-rdf-syntax-ns#"
   xmlns:cc="http://creativecommons.org/ns#"
   xmlns:dc="http://purl.org/dc/elements/1.1/">
  <metadata
     id="metadata44">
    <rdf:RDF>
      <cc:Work
         rdf:about="">
        <dc:format>image/svg+xml</dc:format>
        <dc:type
           rdf:resource="http://purl.org/dc/dcmitype/StillImage" />
      </cc:Work>
    </rdf:RDF>
  </metadata>
  <defs
     id="defs42">
    <filter
       inkscape:collect="always"
       style="color-interpolation-filters:sRGB"
       id="filter62761"
       x="-0.17406533"
       y="-0.46010159"
       width="1.3481307"
       height="1.9202032">
      <feGaussianBlur
         inkscape:collect="always"
         stdDeviation="13.618827"
         id="feGaussianBlur62763" />
    </filter>
    <filter
       inkscape:collect="always"
       style="color-interpolation-filters:sRGB"
       id="filter65427"
       x="-0.23452594"
       y="-0.3296041"
       width="1.4690519"
       height="1.6592082">
      <feGaussianBlur
         inkscape:collect="always"
         stdDeviation="35.834846"
         id="feGaussianBlur65429" />
    </filter>
  </defs>
  <sodipodi:namedview
     pagecolor="#35363b"
     bordercolor="#666666"
     borderopacity="1"
     objecttolerance="10"
     gridtolerance="10"
     guidetolerance="10"
     inkscape:pageopacity="0"
     inkscape:pageshadow="2"
     inkscape:window-width="2560"
     inkscape:window-height="1368"
     id="namedview40"
     showgrid="false"
     inkscape:zoom="0.70710678"
     inkscape:cx="59.39697"
     inkscape:cy="284.96403"
     inkscape:window-x="-9"
     inkscape:window-y="-9"
     inkscape:window-maximized="1"
     inkscape:current-layer="svg38"
     inkscape:pagecheckerboard="false"
     showguides="true" />
  <path
     id="path64277"
     style="color:#000000;fill:#ffffff;fill-opacity:1;-inkscape-stroke:none;filter:url(#filter65427);opacity:0.5157697"
     d="m 248.25252,170.22852 c -8.5765,0.0329 -17.1433,0.77203 -25.5937,2.28515 -10.7034,1.92547 -21.0377,5.23805 -30.8633,9.85352 -4.0473,1.81136 -11.259,5.99809 -11.2656,6.00195 l -0.004,-0.0273 c -11.6473,6.96237 -23.1584,16.18295 -33.1718,26.86914 -6.1498,-1.34576 -12.5987,-1.67029 -18.8711,-1.75391 -6.6722,-0.0889 -13.4986,0.5336 -19.8516,2.57422 -9.098499,2.92244 -18.170296,7.15069 -25.259796,13.55859 -8.0589,7.28416 -18.2285,27.01368 -18.2285,27.01368 0,0 -4.8701,20.36566 -2.9863,30.4082 1.8396,9.80668 0.2149,7.08601 3.3652,23.57226 2.6668,13.95594 9.5684,32.27149 9.5684,32.27149 0,0 3.8522,9.6174 4.8945,14.66406 2.815,13.63038 1.9228,27.78126 3.5528,41.60352 1.2568,10.6571 -5.6065,29.20249 4.7968,31.83398 8.617797,2.17984 11.009597,-13.97635 16.035196,-21.30859 0.3027,-0.44168 0.6478,-0.87291 0.9746,-1.30664 1.9917,1.24421 4.9044,1.83684 6.8555,2.41992 7.1072,2.152 14.6672,2.63484 22.1426,3.14453 6.371,0.42473 12.6562,-0.7366 18.7441,-2.43555 4.5588,-1.2742 6.5694,-2.35042 6.9375,-7.39062 0.7088,-9.28883 -0.9855,-18.47241 -2.082,-27.67774 14.0233,1.68141 27.9993,2.13005 42.3242,2.20118 2.2762,2.41249 4.2287,4.79519 5.2265,6.79101 3.6837,7.36735 3.0777,27.26681 13.6817,29.46875 4.6661,0.96893 6.1859,-2.19973 9.7851,-7.1875 0.3823,6.05967 1.37,10.66362 3.3555,12.26172 2.0954,1.69894 6.5415,2.00984 9.2598,2.46289 7.985,1.33084 16.2513,1.13181 24.4629,0.99023 6.994,-0.11326 13.7334,-1.64093 20.1894,-3.62304 4.842,-1.47241 6.9384,-2.54857 6.8535,-6.99414 -0.085,-5.69146 -2.011,-23.98399 -3.9648,-39.64258 17.9522,-2.35021 40.0676,-6.79529 60.0586,-15.0918 0.2831,6.28609 0.5382,11.66521 0.5098,12.76953 -0.17,4.3323 -0.2269,10.25054 3.5957,13.5918 10.6467,9.3725 37.0078,3.90755 49.2402,-0.16992 9.1177,-3.00147 6.3141,-13.61916 4.5019,-19.82031 -1.0477,-3.70936 -5.2653,-23.02075 -9.3711,-36.52735 -2.6334,1.75557 -5.4368,3.31178 -7.9003,4.86914 -7.2771,4.61547 -15.0072,8.57967 -22.9356,12.0625 -15.6586,6.90904 -32.1667,11.92253 -48.8164,15.94336 -26.2739,6.35791 -53.2986,5.26433 -80.084,4.83985 -0.007,-0.0187 -0.0129,-0.0379 -0.0195,-0.0566 26.8007,0.42394 53.8416,1.52176 80.1308,-4.83985 16.6496,-4.02083 33.1579,-9.03432 48.8165,-15.94336 7.9284,-3.45452 15.6583,-7.41872 22.9355,-12.0625 5.9179,-3.73768 13.7046,-7.4171 16.791,-14.09961 1.6521,-3.57707 1.7471,-7.5345 1.2188,-11.49609 -0.0845,-0.63315 -0.1998,-1.26458 -0.3125,-1.89649 0.115,0.631 0.2234,1.26396 0.3125,1.89649 0.1416,-0.16989 0.2822,-0.34084 0.4238,-0.48242 1.4441,-1.64231 2.7473,-3.31182 4.0215,-5.09571 4.9552,-7.0223 8.7203,-14.78247 12.7695,-22.31445 1.9538,-3.766 5.5512,-12.37363 1.7852,-15.94141 -4.7571,-4.47388 -12.573,1.30312 -16.9336,3.625 -3.9076,2.09538 -7.7858,4.16145 -11.75,6.11524 0.6253,1.64071 1.2289,3.29077 1.8164,4.94531 l -0.5449,-0.21875 c 0.093,-0.16139 0.1933,-0.316 0.2851,-0.47851 -3.7943,-10.56177 -8.3818,-20.81115 -13.875,-30.58008 -5.5216,-9.79724 -11.9493,-19.17132 -19.2265,-27.7793 -0.006,0.0183 -0.012,0.0364 -0.0176,0.0547 l -0.01,-0.0254 c -2.2653,-2.71831 -9.9121,-10.64649 -9.9121,-10.64649 h -0.0332 c 10e-4,-0.009 0.005,-0.02 0.006,-0.0293 -0.4248,-0.42473 -0.7921,-0.87702 -1.2168,-1.27344 -14.526,-13.64819 -32.9328,-21.15141 -51.5079,-27.4375 -17.8318,-6.03479 -36.747,-9.38091 -55.6152,-9.30859 z m 151.9063,108.39257 c 1.9313,5.49745 3.632,11.07351 5.0117,16.73829 -0.2749,-0.98021 -0.5897,-1.99154 -0.8711,-3.00196 l 0.0332,-0.26562 c -0.9061,-3.65116 -3.8138,-12.39025 -4.1738,-13.47071 z m -293.7325,82.94727 c 0.9121,0.5133 1.8591,0.98527 2.795,1.4707 -0.0472,0.13363 -0.088,0.24041 -0.1368,0.37891 -0.3903,1.12084 -0.8756,2.53211 -1.4101,4.14648 -0.346,-1.87205 -0.7974,-3.92933 -1.2481,-5.99609 z" />
  <path
     d="m 180.41771,188.37087 c 0,0 7.22052,-4.19073 11.26967,-6.00293 l 62.97418,23.16226 101.85169,2.74663 c 0,0 7.64524,7.9284 9.9105,10.64671 l 18.49017,53.06368 14.92239,5.97462 c 0,0 3.42621,10.2503 4.38894,14.12955 l -3.08641,24.46479 -147.63822,36.61224 -118.55797,-29.08025 0.3681,-72.88469 36.24414,-47.20233 z"
     style="fill:#2f2f2f;stroke-width:1"
     id="path909"
     inkscape:connector-curvature="0" />
  <path
     d="m 397.54274,327.88248 c -2.63336,1.75557 -5.43662,3.31294 -7.90009,4.8703 -7.27714,4.61547 -15.00734,8.57967 -22.93574,12.0625 -15.6586,6.90904 -32.16667,11.92093 -48.81632,15.94176 -27.38131,6.62588 -55.58378,5.15346 -83.47478,4.78536 -5.46493,-0.0849 -10.90155,-0.99105 -16.25323,-1.9821 -1.50073,-0.28316 -2.97315,-0.50969 -4.47388,-0.73621 l 1.47242,15.71523 c 0,0 5.32335,0.39642 14.83744,-0.19821 -1.84052,18.20701 -2.43515,37.85813 2.20863,41.59581 2.09536,1.69894 6.54093,2.01042 9.25924,2.46347 7.98504,1.33084 16.25323,1.13263 24.46479,0.99105 6.99399,-0.11327 13.73313,-1.64231 20.18912,-3.62442 4.84199,-1.47241 6.93735,-2.54841 6.85241,-6.99398 -0.0849,-5.69146 -2.01042,-23.98343 -3.96421,-39.64202 17.95218,-2.35021 40.06676,-6.79578 60.05767,-15.09229 0.28316,6.28609 0.538,11.66608 0.50968,12.7704 -0.16989,4.3323 -0.22652,10.25029 3.5961,13.59155 10.64671,9.3725 37.00866,3.90757 49.24106,-0.1699 9.11766,-3.00147 6.3144,-13.61986 4.5022,-19.82101 -1.04769,-3.70936 -5.26673,-23.02069 -9.37251,-36.52729 z"
     style="fill:#bdcf46;stroke-width:1"
     id="path923"
     inkscape:connector-curvature="0" />
  <path
     d="m 273.97289,249.92927 c -0.28316,14.32776 -1.076,55.49883 -0.79284,79.39731 4.72873,0.11326 9.9105,-0.14158 15.63028,-0.73621 7.64525,-0.76452 15.63029,-2.29357 23.33216,-3.76599 l 4.89863,-0.93442 c 7.90009,-1.50073 15.20554,-3.36957 22.34111,-5.71978 11.01482,-3.62441 23.19058,-8.29651 34.17709,-15.06397 -8.06999,-28.11752 -22.53933,-49.21274 -27.18311,-55.52715 -31.1473,-2.46346 -60.99208,0.82116 -72.40332,2.35021 z"
     style="fill:#757f3f;stroke-width:1"
     id="path911"
     inkscape:connector-curvature="0" />
  <path
     d="m 356.76809,241.29297 c 5.52156,7.5603 18.77333,27.55121 27.21141,54.42284 6.17283,-5.12515 11.49619,-11.24135 15.57366,-18.46186 -3.79431,-10.56177 -8.38146,-20.81206 -13.87471,-30.58099 -5.52157,-9.79724 -11.94924,-19.16975 -19.22638,-27.77773 -2.69,8.80619 -6.96567,17.41417 -9.68398,22.39774 z"
     style="fill:#757f3f;stroke-width:1"
     id="path913"
     inkscape:connector-curvature="0" />
  <path
     d="m 194.85874,202.13232 c 12.0625,4.61546 53.37515,21.03858 74.72521,36.1875 9.20261,-1.35916 41.59581,-5.54988 76.56574,-2.8882 4.53051,-8.35315 9.28756,-19.56617 10.33524,-27.18311 -0.42474,-0.42473 -0.79284,-0.87778 -1.21758,-1.2742 -14.52597,-13.64819 -32.93119,-21.15186 -51.50631,-27.43795 -25.93721,-8.77787 -54.16799,-11.86429 -81.20952,-7.0223 -10.70334,1.92547 -21.03859,5.23841 -30.86414,9.85388 z"
     style="fill:#757f3f;stroke-width:1"
     id="path915"
     inkscape:connector-curvature="0" />
  <path
     d="m 404.1403,292.17634 c -5.63483,7.22051 -12.45892,13.22345 -19.76438,18.20702 -0.14157,0.11326 -0.31147,0.19821 -0.42473,0.31147 -13.42166,9.06103 -28.40068,14.89407 -40.77465,18.94322 -7.64525,2.5201 -15.43208,4.53052 -23.87017,6.1162 l -4.89862,0.93442 c -7.98503,1.52905 -16.19659,3.11473 -24.37984,3.9642 -4.81368,0.48137 -9.79724,0.87779 -14.80913,0.87779 -14.9507,0 -29.95804,-3.51115 -40.91623,-18.49017 -4.41725,-6.08789 -9.34419,-11.21303 -14.5826,-15.23387 l -2.18031,-1.69894 c -3.31294,-2.63336 -9.51409,-7.5603 -12.71377,-7.64525 l 0.31148,-12.09081 c 7.24882,0.19821 14.5826,6.00293 19.93427,10.25029 l 1.9821,1.55737 c 6.14452,4.70041 11.89261,10.64671 17.01776,17.69733 4.61546,6.31441 10.25029,9.9105 17.01775,11.80766 -0.22652,-25.54079 0.59463,-68.01439 0.84947,-79.96363 -20.72711,-14.52597 -62.40787,-30.92078 -72.34669,-34.71508 -3.90757,2.40683 -13.98797,10.78829 -25.85226,22.87911 -1.18926,1.21757 -2.77494,1.8122 -4.33231,1.8122 -1.52905,0 -3.0581,-0.56631 -4.21904,-1.72726 -2.37852,-2.32189 -2.43515,-6.14451 -0.0849,-8.55135 7.50367,-7.61693 19.39628,-19.14143 27.7211,-24.29489 l -2.40684,-14.78082 c -20.27406,12.11914 -40.29328,30.92078 -52.32747,52.78053 -12.0625,21.83143 -16.13996,46.66432 -4.64378,70.70438 3.766,7.78682 11.3263,20.86869 18.91491,25.39921 6.71083,4.02083 13.81808,7.44704 21.06691,10.4485 6.42767,2.66168 11.86429,6.00294 18.46185,7.92841 5.88967,1.75557 11.97756,3.65273 17.95218,4.98357 6.03125,1.35915 12.28902,1.78389 18.34859,2.91652 5.37999,0.99105 10.81661,1.89715 16.25323,1.9821 27.89099,0.3681 56.09346,1.84052 83.47477,-4.78536 16.64965,-4.02083 33.15773,-9.03272 48.81632,-15.94176 7.92841,-3.45452 15.6586,-7.41872 22.93575,-12.0625 5.91798,-3.73768 13.70481,-7.41872 16.79122,-14.10123 3.25631,-7.05062 0.48137,-15.57365 -1.24589,-22.70922 -0.31147,-1.18926 -0.73621,-2.46347 -1.076,-3.70936 z"
     style="fill:#757f3f;stroke-width:1"
     id="path917"
     inkscape:connector-curvature="0" />
  <path
     style="color:#000000;fill:#76b2df;fill-opacity:1;stroke-linecap:round;stroke-linejoin:round;-inkscape-stroke:none"
     d="m 274.36664,366.15602 c 10.55453,-0.90466 21.31291,-0.57348 32.10826,-3.12224 16.53735,-11.81169 61.09479,-108.44873 59.94885,-144.11024 -7.48846,-8.1421 -13.30647,-15.18492 -23.73302,-21.75675 -7.28574,33.67905 -17.46774,108.21199 -36.8718,136.96555 -69.72104,-37.51245 -125.77866,-76.79729 -142.4119,-133.99663 -7.87407,6.5305 -8.27632,7.32243 -14.38006,13.00125 24.4514,56.51235 62.21627,109.91822 125.33967,153.01906 z"
     id="path34172"
     sodipodi:nodetypes="cccccccc" />
  <path
     d="m 151.67725,359.79431 c -2.77494,-1.64232 -6.73915,-2.20863 -12.11914,-2.97316 -7.07893,-0.99105 -14.78081,-2.97315 -21.85974,-1.69894 -6.08788,1.10431 -6.73914,2.66168 -8.72125,8.29651 -3.08641,8.86282 -12.062496,35.42298 -5.09683,43.80444 1.72726,2.06704 5.7481,2.80325 8.21157,3.53946 7.10724,2.152 14.66754,2.63336 22.1429,3.14305 6.37104,0.42473 12.65713,-0.73621 18.74501,-2.43516 4.55883,-1.2742 6.56925,-2.3502 6.93736,-7.3904 0.82115,-10.75998 -1.58569,-21.37838 -2.54842,-32.05341 -0.67958,-6.90904 -2.37852,-10.30692 -5.69146,-12.23239 z"
     style="fill:#bdcf46;stroke-width:1"
     id="path921"
     inkscape:connector-curvature="0" />
  <path
     d="m 426.67963,263.26598 c -4.75705,-4.47389 -12.57219,1.30252 -16.93281,3.62441 -3.90757,2.09537 -7.78683,4.16241 -11.75103,6.1162 2.85989,7.50367 5.35167,15.14892 7.22051,22.96406 0.84947,3.48283 1.92547,7.30546 2.46347,11.12808 0.14158,-0.16989 0.28316,-0.33979 0.42474,-0.48137 1.4441,-1.64231 2.74662,-3.31294 4.02083,-5.09683 4.95525,-7.0223 8.72125,-14.78081 12.7704,-22.31279 1.95378,-3.766 5.54988,-12.37398 1.78389,-15.94176 z"
     style="fill:#bdcf46;stroke-width:1"
     id="path925"
     inkscape:connector-curvature="0" />
  <path
     d="m 215.18943,378.53932 c -3.19968,0.11326 -6.42767,0.085 -9.74061,0.085 -23.587,0 -46.06969,-0.62295 -69.28859,-5.88968 -35.25309,-7.95672 -62.719347,-29.05194 -67.504706,-66.76849 -2.944836,-23.24721 1.755575,-50.79842 19.707749,-67.07997 16.847857,-15.29049 47.145687,-19.50953 67.901127,-12.45892 24.18163,8.2682 41.79401,28.14584 51.8461,51.08158 7.73019,17.66902 12.9686,33.52583 16.22491,52.58231 0.48137,2.91652 5.83304,47.00412 -0.42473,47.82527 -2.88821,0.33979 -5.80473,0.538 -8.72125,0.62295 z"
     style="fill:#bdcf46;stroke-width:1"
     id="path929"
     inkscape:connector-curvature="0" />
  <path
     d="m 152.52672,260.9724 c 6.96567,-1.24589 13.78976,4.1341 15.23386,12.06251 1.4441,7.90009 -3.02978,15.37544 -9.99545,16.64965 -6.93735,1.24589 -13.76145,-4.1341 -15.23386,-12.03419 -1.44411,-7.9284 3.02978,-15.37544 9.99545,-16.67797 z"
     style="fill:#2f2f2f;stroke-width:1"
     id="path931"
     inkscape:connector-curvature="0" />
  <path
     d="m 88.788009,271.44923 c 1.982101,-7.78683 9.202612,-12.68545 16.026701,-10.92988 6.85241,1.75558 10.7883,9.51409 8.80619,17.30091 -2.01041,7.78683 -9.17429,12.68545 -16.026699,10.92988 -6.824091,-1.78389 -10.788293,-9.51409 -8.806192,-17.30091 z"
     style="fill:#2f2f2f;stroke-width:1"
     id="path933"
     inkscape:connector-curvature="0" />
  <path
     style="color:#000000;fill:#ffffff;fill-opacity:1;stroke-linecap:round;stroke-linejoin:round;-inkscape-stroke:none"
     d="m 163.40703,200.13571 c 18.97375,68.04865 69.20985,122.08978 143.06787,162.89807 4.0033,-0.64844 7.99459,-1.42159 11.96679,-2.38281 16.22457,-3.91817 32.30875,-8.79282 47.60938,-15.43164 13.47308,-25.91495 25.01162,-54.32243 26.23306,-85.62518 -7.37113,-18.0623 -26.28661,-43.34663 -35.77088,-51.31732 -7.28574,33.67905 -11.69415,66.63629 -25.50561,105.30467 -69.72104,-37.51245 -102.75227,-81.48729 -119.38551,-138.68663 -13.41523,3.32387 -37.71482,14.60534 -48.2151,25.24084 z"
     id="path26765"
     sodipodi:nodetypes="ccccccccc" />
  <path
     d="m 134.26307,305.76789 c -3.22799,1.75558 -6.00293,3.62441 -9.76892,2.23694 -2.18032,-0.79284 -4.24736,-1.41578 -6.14452,-2.83157 -1.35915,-0.99105 -2.8882,-1.81221 -4.24736,-2.80326 -0.70789,-0.50968 -1.38747,-1.04768 -2.09536,-1.55736 -0.79284,-0.59463 -1.076,-0.84947 -2.09537,-0.99105 -0.82115,-0.0849 -2.43515,-0.14158 -3.05809,0.538 -2.66168,2.97315 1.07599,7.3904 3.08641,9.40082 3.00147,2.91652 7.27714,6.22946 11.21303,7.9284 3.85094,1.67063 7.67356,3.68105 11.77934,1.64232 4.5022,-2.26526 8.40978,-5.54989 12.37398,-8.57967 2.60505,-1.9821 8.43809,-5.46494 7.41872,-9.34419 -0.70789,-2.83157 -3.99252,-2.23694 -6.14451,-1.55737 -2.71831,0.82116 -5.15347,2.20863 -7.67357,3.48284 -1.55736,0.76452 -3.08641,1.61399 -4.64378,2.43515 z"
     style="fill:#424242;stroke-width:1;fill-opacity:1"
     id="path935"
     inkscape:connector-curvature="0" />
  <path
     style="color:#000000;fill:#ffd918;fill-rule:evenodd;stroke-linecap:round;stroke-linejoin:round;-inkscape-stroke:none;paint-order:fill markers stroke;filter:url(#filter62761);opacity:0.54386538;fill-opacity:1"
     d="m 254.45725,142.27938 c -23.98706,0 -45.6928,2.87787 -62.22852,7.9082 -8.26786,2.51517 -15.25933,5.49909 -20.90625,9.56055 -5.64692,4.06146 -10.7539,10.08593 -10.7539,18.05078 0,7.96485 5.10698,13.99128 10.7539,18.05274 5.64692,4.06145 12.63839,7.04537 20.90625,9.56054 16.53572,5.03034 38.24146,7.90625 62.22852,7.90625 23.98706,0 45.69084,-2.87591 62.22656,-7.90625 8.26786,-2.51517 15.26128,-5.49909 20.9082,-9.56054 5.64692,-4.06146 10.75196,-10.08789 10.75196,-18.05274 0,-7.96485 -5.10504,-13.98932 -10.75196,-18.05078 -5.64692,-4.06146 -12.64034,-7.04538 -20.9082,-9.56055 -16.53572,-5.03033 -38.2395,-7.9082 -62.22656,-7.9082 z m 0,9.5897 c 18.948,4e-5 38.32385,1.37946 56.40625,7.04102 6.75898,2.11622 14.97627,8.62485 16.9187,11.51659 2.44883,3.64563 1.26026,7.09069 -0.59047,9.78272 -3.50663,5.10068 -9.99279,5.5794 -16.90566,7.68237 -13.82576,4.20593 -33.48584,5.42666 -55.82882,5.42666 -22.34299,0 -42.89299,-0.82968 -56.71875,-5.03561 -6.91287,-2.10297 -15.36117,-2.66073 -18.67727,-8.67042 -1.49143,-2.70288 -0.73099,-6.81491 1.1798,-9.18572 4.96138,-5.37307 11.1653,-9.09844 17.80801,-11.51659 17.80556,-6.48177 37.45956,-7.04106 56.40821,-7.04102 z"
     id="path62759"
     sodipodi:nodetypes="sssssssssssssassasssacaa" />
  <path
     style="color:#000000;fill:#ffe045;fill-rule:evenodd;stroke-linecap:round;stroke-linejoin:round;-inkscape-stroke:none;paint-order:fill markers stroke;fill-opacity:1"
     d="m 254.45725,142.27938 c -23.98706,0 -45.6928,2.87787 -62.22852,7.9082 -8.26786,2.51517 -15.25933,5.49909 -20.90625,9.56055 -5.64692,4.06146 -10.7539,10.08593 -10.7539,18.05078 0,7.96485 5.10698,13.99128 10.7539,18.05274 5.64692,4.06145 12.63839,7.04537 20.90625,9.56054 16.53572,5.03034 38.24146,7.90625 62.22852,7.90625 23.98706,0 45.69084,-2.87591 62.22656,-7.90625 8.26786,-2.51517 15.26128,-5.49909 20.9082,-9.56054 5.64692,-4.06146 10.75196,-10.08789 10.75196,-18.05274 0,-7.96485 -5.10504,-13.98932 -10.75196,-18.05078 -5.64692,-4.06146 -12.64034,-7.04538 -20.9082,-9.56055 -16.53572,-5.03033 -38.2395,-7.9082 -62.22656,-7.9082 z m 0,9.5897 c 18.948,4e-5 38.32385,1.37946 56.40625,7.04102 6.75898,2.11622 14.97627,8.62485 16.9187,11.51659 2.44883,3.64563 1.26026,7.09069 -0.59047,9.78272 -3.50663,5.10068 -9.99279,5.5794 -16.90566,7.68237 -13.82576,4.20593 -33.48584,5.42666 -55.82882,5.42666 -22.34299,0 -42.89299,-0.82968 -56.71875,-5.03561 -6.91287,-2.10297 -15.36117,-2.66073 -18.67727,-8.67042 -1.49143,-2.70288 -0.73099,-6.81491 1.1798,-9.18572 4.96138,-5.37307 11.1653,-9.09844 17.80801,-11.51659 17.80556,-6.48177 37.45956,-7.04106 56.40821,-7.04102 z"
     id="path58229"
     sodipodi:nodetypes="sssssssssssssassasssacaa" />
  <g
     id="g82831"
     transform="matrix(1.1428422,0,0,1.1428422,1928.8111,-151.57908)"
     style="stroke-width:0.875011">
    <path
       style="fill:#f2f4f7;fill-opacity:1;stroke:none;stroke-width:0.875011px;stroke-linecap:butt;stroke-linejoin:miter;stroke-opacity:1"
       d="m -1560.7775,346.15139 c 5.547,8.26364 14.4573,11.15878 25.1678,11.9123 -0.032,10.2403 2.0286,18.55329 9.2945,25.93633 0.9569,7.40535 -5.9037,12.56312 5.1825,22.88072 -0.4332,3.40285 -0.8913,6.80966 0.6408,9.89838 -2.7012,1.12672 -4.3763,4.36662 -6.16,7.38265 -9.6594,-2.42946 -15.2382,17.31254 -4.6444,15.69414 3.6535,10.07929 11.368,18.55093 22.7231,6.58446 3.4008,0.38072 6.8111,0.67681 10.6258,-2.63531 7.2362,-1.77035 9.3321,-7.13972 9.6162,-13.77754 0.9314,-8.31981 -1.2424,-15.39147 -3.3405,-22.49355 5.4335,-25.58832 7.5622,-31.05891 -5.8016,-42.82676 8.7179,-18.39796 -1.2498,-25.85409 -14.1036,-31.62023 12.8914,-13.63074 -17.7987,-19.53115 -24.949,-18.17534 -13.2706,-6.98118 -24.2911,-3.03336 -34.3407,-7.33304 -6.7876,-2.78427 -14.1904,-17.38138 -20.0087,-1.55077 l -14.3204,3.95423 c -15.6048,1.47359 -26.398,7.16134 -26.7777,21.9697 -5.9392,3.93219 -9.898,8.26645 -5.8776,14.22065 -19.7025,13.22115 -16.0365,26.82916 -4.9674,40.55972 -3.5348,8.95937 -7.2147,17.9222 -2.9997,26.69696 -1.1346,4.97102 -8.7633,8.99291 3.6816,15.9486 2.5653,5.36658 6.9765,8.29864 17.2113,3.54956 27.5907,17.83673 -1.3088,-18.65433 0.1448,-37.68538 9.4269,-10.44221 8.011,-21.52702 3.4654,-32.79731 0.4229,-12.68538 7.7492,-4.42755 7.8309,-14.80876 5.5563,12.09378 13.9636,9.99673 23.0634,4.4526 12.7442,4.19706 22.2065,1.31474 29.6432,-5.93701 z"
       id="path77111"
       sodipodi:nodetypes="cccccccccccccccccccccccccccc" />
    <path
       style="fill:#dcdfe4;fill-opacity:1;stroke:none;stroke-width:0.875011px;stroke-linecap:butt;stroke-linejoin:miter;stroke-opacity:1"
       d="m -1593.5441,405.93025 c 2.5512,3.46625 4.7165,5.32476 6.9669,6.88724 2.2505,1.56248 4.5642,0.79638 6.4969,1.14318 3.1894,0.5723 5.5147,2.94518 8.6227,2.05136 1.5787,-0.454 4.3544,-1.14461 6.0823,-2.37471 0.9753,-0.69435 2.55,-2.81483 3.3597,-3.36144 2.7675,-1.86815 3.6121,-2.21514 5.8283,-4.49053 13.0144,-8.72033 20.8194,-2.14795 25.0834,14.8191 -4.9342,12.93761 -1.2214,31.61382 -19.4526,32.50686 -3.023,5.86695 -8.3529,6.96646 -13.8278,7.76626 -10.6402,10.7706 -30.773,8.08691 -36.0109,-9.37193 -9.2665,-6.59898 -16.5575,-16.26965 -17.5486,-35.73518 1.9998,-15.28784 12.8502,-13.24842 24.3997,-9.84022 z"
       id="path81737"
       sodipodi:nodetypes="ccccsccccccccc" />
    <path
       style="fill:#f2f4f7;fill-opacity:1;stroke:none;stroke-width:0.875011px;stroke-linecap:butt;stroke-linejoin:miter;stroke-opacity:1"
       d="m -1593.9444,386.70347 c 3.2259,-6.80471 8.0894,-5.79573 12.8663,-5.19967 8.4788,-10.03209 14.7128,-1.4381 21.431,3.13766 6.6421,-1.54074 9.1583,-1.74136 14.8889,4.92724 7.9634,1.43083 11.0146,-3.1778 15.5179,3.15558 1.9085,2.68413 3.0361,8.62354 2.0749,15.70531 2.6886,11.61571 -9.6765,18.42981 -8.5168,7.7016 -2.7147,-3.23948 -5.9534,-6.42143 -6.8333,-9.86234 -8.3003,-2.49426 -12.292,0.43745 -19.4864,-1.02369 -0.9981,-0.20271 -3.8756,0.79421 -4.8802,0.38068 -0.7578,-0.31193 -2.7341,-2.52883 -3.499,-2.98878 -1.9445,-1.16925 -2.9373,-2.07231 -4.9608,-4.47424 -2.3055,0.96021 -3.2898,1.05941 -5.5445,2.18439 -0.9687,0.48334 -3.7329,2.74321 -4.8036,3.70199 -0.7159,0.64108 -3.9503,0.92628 -4.6051,1.22642 -6.2466,2.8633 -10.4932,3.44752 -18.2888,1.28857 -4.4203,19.2003 -18.4421,6.38921 -11.4414,-8.68697 4.0982,-16.04654 14.3025,-15.72051 26.0809,-11.17375 z"
       id="path79878"
       sodipodi:nodetypes="ccccsccccccccccccc" />
  </g>
</svg>
