<?xml version="1.0" encoding="UTF-8" standalone="no"?>
<svg
   width="512"
   height="512"
   version="1.1"
   id="svg38"
   inkscape:version="1.1 (c4e8f9ed74, 2021-05-24)"
   inkscape:export-xdpi="96"
   inkscape:export-ydpi="96"
   sodipodi:docname="hologkram.svg"
   inkscape:export-filename="/home/d/opt/turtles/classigk/cyborgk.png"
   xmlns:inkscape="http://www.inkscape.org/namespaces/inkscape"
   xmlns:sodipodi="http://sodipodi.sourceforge.net/DTD/sodipodi-0.dtd"
   xmlns="http://www.w3.org/2000/svg"
   xmlns:svg="http://www.w3.org/2000/svg"
   xmlns:rdf="http://www.w3.org/1999/02/22-rdf-syntax-ns#"
   xmlns:cc="http://creativecommons.org/ns#"
   xmlns:dc="http://purl.org/dc/elements/1.1/">
  <g
     id="g16097">
    <rect
       style="opacity:1;fill:#464646;fill-opacity:1;fill-rule:evenodd;stroke:none;stroke-width:6;stroke-linecap:round;stroke-linejoin:round;stroke-miterlimit:4;stroke-dasharray:none;stroke-opacity:1;paint-order:stroke fill markers"
       id="rect9933"
       width="180.48093"
       height="65.765327"
       x="487.33356"
       y="230.53564"
       transform="rotate(-2.4078414)" />
    <g
       id="g13684"
       style="opacity:0.71997191">
      <path
         style="fill:#85c6ff;stroke:none;stroke-width:1px;stroke-linecap:butt;stroke-linejoin:miter;stroke-opacity:1;fill-opacity:1;opacity:0.15304226"
         d="M 499.35159,209.79999 102.34839,48.591599 0.06475106,289.17155 116.6162,535.39804 499.35159,275.56531 Z"
         id="path10354" />
      <path
         style="opacity:0.153042;fill:#3faaff;fill-opacity:1;stroke:none;stroke-width:1px;stroke-linecap:butt;stroke-linejoin:miter;stroke-opacity:1"
         d="M 499.35159,209.79999 61.895723,145.35411 0.06475106,289.17155 76.427309,446.82667 499.35159,275.56531 Z"
         id="path10356"
         sodipodi:nodetypes="cccccc" />
      <path
         style="fill:#006dfb;stroke:none;stroke-width:1px;stroke-linecap:butt;stroke-linejoin:miter;stroke-opacity:1;fill-opacity:1;opacity:0.15304226"
         d="M 499.35159,209.79999 21.495233,235.58425 0.06475106,289.17155 31.239341,354.32568 499.35159,275.56531 Z"
         id="path10358" />
    </g>
  </g>
  <path
     id="path1216"
     style="fill:#448fb8;fill-opacity:1;stroke-width:0.932045"
     d="m 158.91475,185.73715 c -3.7724,1.68834 -10.49459,5.58998 -10.50034,5.59332 l 2.23936,13.75144 c -7.75914,4.80328 -18.84307,15.54542 -25.83686,22.64477 -2.1906,2.2433 -2.13764,5.80515 0.0793,7.96926 1.08205,1.08206 2.50721,1.61038 3.93235,1.61038 1.45155,0 2.92846,-0.5548 4.03691,-1.68963 11.05809,-11.26923 20.45458,-19.08115 24.09663,-21.32443 9.26347,3.53647 48.11143,18.81702 67.43012,32.35593 -0.23753,11.13728 -1.00367,50.72568 -0.79254,74.53096 -6.3076,-1.76825 -11.55912,-5.12088 -15.86096,-11.00622 -4.77689,-6.57152 -10.13395,-12.11397 -15.86094,-16.49498 l -1.84815,-1.45019 c -4.98802,-3.95874 -11.82295,-9.36959 -18.5792,-9.55433 l -0.29003,11.26926 c 2.98226,0.0792 8.76151,4.67171 11.84934,7.12613 l 2.03194,1.5834 c 4.88246,3.74762 9.47584,8.52408 13.59293,14.19829 10.21357,13.96118 24.19996,17.23357 38.13474,17.23357 4.67133,0 9.31713,-0.36918 13.80372,-0.81783 7.62718,-0.79175 15.2799,-2.26945 22.72233,-3.6946 l 4.5664,-0.8718 c 7.86471,-1.47792 15.12275,-3.35069 22.2485,-5.69955 11.53315,-3.77401 25.49356,-9.21149 38.00321,-17.65681 0.10556,-0.10557 0.26431,-0.18448 0.39627,-0.29004 6.80904,-4.64493 13.16875,-10.24064 18.42069,-16.97051 0.0153,0.0561 0.0332,0.11073 0.0489,0.16694 l 0.0303,-0.2462 c -0.89731,-3.61565 -4.09086,-13.16799 -4.09086,-13.16799 l -0.54297,-0.21752 c -3.76526,6.53034 -8.61341,12.09698 -14.2354,16.76478 -7.8647,-25.04567 -20.21665,-43.67778 -25.36302,-50.72435 2.52828,-4.6352 6.49986,-12.63548 9.008,-20.8253 l -0.009,-0.0253 c -2.11134,-2.5336 -9.23733,-9.92363 -9.23733,-9.92363 h -0.0303 c -0.98318,7.09889 -5.41065,17.53399 -9.62854,25.31074 -32.59368,-2.48081 -62.78518,1.42447 -71.36247,2.69127 -19.8993,-14.11953 -58.4047,-29.42671 -69.64754,-33.72855 z M 281.7958,245.6904 c 6.85646,0.0136 14.03806,0.25225 21.29576,0.82626 4.32822,5.88534 17.81441,25.54775 25.33604,51.75465 -10.23997,6.30761 -21.58877,10.66167 -31.85512,14.0398 -6.6507,2.19051 -13.45866,3.93319 -20.82192,5.33194 l -4.56639,0.87011 c -7.17852,1.37237 -14.62024,2.79823 -21.74599,3.5108 -5.33111,0.55422 -10.16186,0.79187 -14.56928,0.6863 -0.26391,-22.27455 0.47635,-60.64897 0.74027,-74.00315 7.97687,-1.06886 25.61723,-3.05753 46.18663,-3.01671 z" />
  <g
     id="g17416"
     style="fill:#448fb8;fill-opacity:1">
    <path
       style="fill:#448fb8;fill-opacity:1;stroke:none;stroke-width:0.932045px;stroke-linecap:butt;stroke-linejoin:miter;stroke-opacity:1"
       d="m 178.41882,167.34639 -2.6839,10.37774 c 31.5507,22.18419 69.90059,17.54539 94.65207,-0.35786 l -1.25248,-10.01988 c -28.26774,13.95436 -59.17773,21.11537 -90.71569,0 z"
       id="path947"
       inkscape:connector-curvature="0"
       sodipodi:nodetypes="ccccc"
       inkscape:export-xdpi="68.17437"
       inkscape:export-ydpi="68.17437" />
    <path
       style="fill:#448fb8;fill-opacity:1;stroke:none;stroke-width:0.932045px;stroke-linecap:butt;stroke-linejoin:miter;stroke-opacity:1"
       d="m 181.28165,155.53726 c 0,0 9.60951,-20.06016 19.14512,-22.9026 7.46744,-2.22595 14.5755,6.62927 22.3658,6.7992 8.86533,0.19345 17.39756,-9.55467 25.7654,-6.62027 9.0839,3.1855 17.35587,23.08151 17.35587,23.08151 -30.98045,10.95955 -59.84019,13.43633 -84.63219,-0.35784 z"
       id="path949"
       inkscape:connector-curvature="0"
       sodipodi:nodetypes="caaacc"
       inkscape:export-xdpi="68.17437"
       inkscape:export-ydpi="68.17437" />
  </g>
  <g
     id="g21221"
     style="opacity:0.4793643">
    <path
       id="path1204"
       style="fill:#1d6188;fill-opacity:1;stroke-width:0.932045"
       d="m 211.4587,174.41211 c -52.0502,-0.8458 -103.12495,34.85305 -119.564787,84.30235 -8.387249,26.40312 1.63314,58.99421 25.320887,73.9878 23.54648,12.51351 49.12502,21.15241 75.80839,23.15658 40.22766,2.73111 81.74831,0.92746 119.40842,-14.90544 15.49506,-6.78137 32.19589,-13.19555 44.41481,-25.21659 8.44234,-12.65263 -1.12196,-27.86708 -4.00518,-40.91305 -13.51668,-37.6435 -39.05658,-75.08661 -78.79773,-87.91003 -19.91483,-7.73734 -41.13253,-12.70049 -62.58481,-12.50162 z" />
    <path
       style="fill:#448fb8;fill-opacity:1;stroke:none;stroke-width:0.932045px;stroke-linecap:butt;stroke-linejoin:miter;stroke-opacity:1"
       d="m 110.50255,146.39577 c 7.3489,-5.70909 26.30527,23.02818 52.88539,22.01448 4.37214,-19.98604 12.61479,-49.06932 30.36482,-50.10195 9.09314,-0.52902 20.06764,9.84098 30.87089,9.86857 10.69739,0.0274 20.03667,-11.18805 30.61787,-9.61552 19.14978,2.84589 29.09962,49.59585 29.09962,49.59585 27.73842,0.58072 41.19394,-28.34093 50.11466,-22.26751 35.9512,24.47627 -38.15226,72.36948 -104.25254,72.36948 -85.70051,0 -150.825073,-47.68412 -119.70071,-71.8634 z"
       id="path945"
       inkscape:connector-curvature="0"
       sodipodi:nodetypes="scsascsss"
       inkscape:export-xdpi="68.17437"
       inkscape:export-ydpi="68.17437" />
    <g
       id="g17422"
       style="fill:#448fb8;fill-opacity:1">
      <path
         d="m 121.47772,351.09621 c -2.58638,-1.53072 -6.28122,-2.05855 -11.29563,-2.77113 -6.59791,-0.9237 -13.776439,-2.77112 -20.374348,-1.58349 -5.674195,1.02927 -6.281201,2.48081 -8.128628,7.73275 -2.876687,8.26058 -11.242836,33.01595 -4.750491,40.82788 1.60989,1.92658 5.357505,2.61277 7.65358,3.29895 6.624293,2.00577 13.670867,2.45442 20.638267,2.92948 5.93812,0.39586 11.79707,-0.68618 17.47126,-2.26969 4.24906,-1.18762 6.12287,-2.1905 6.46596,-6.88821 0.76536,-10.02884 -1.47794,-19.9257 -2.37525,-29.87535 -0.6334,-6.43957 -2.2169,-9.60655 -5.30472,-11.40119 z"
         style="fill:#448fb8;fill-opacity:1;stroke-width:0.932045"
         id="path921"
         inkscape:connector-curvature="0"
         inkscape:export-xdpi="68.17437"
         inkscape:export-ydpi="68.17437" />
      <path
         d="m 377.79339,261.12709 c -4.4338,-4.16989 -11.71789,1.21401 -15.7822,3.37812 -3.64205,1.95299 -7.2577,3.87957 -10.95253,5.7006 2.66555,6.99379 4.98802,14.11954 6.72986,21.40363 0.79175,3.24617 1.79463,6.80905 2.29608,10.37191 0.13195,-0.15834 0.26392,-0.3167 0.39588,-0.44865 1.34596,-1.53072 2.55998,-3.08783 3.74761,-4.7505 4.61853,-6.54513 8.12863,-13.77644 11.90264,-20.79661 1.82101,-3.5101 5.17275,-11.53316 1.66266,-14.8585 z"
         style="fill:#448fb8;fill-opacity:1;stroke-width:0.932045"
         id="path925"
         inkscape:connector-curvature="0"
         inkscape:export-xdpi="68.17437"
         inkscape:export-ydpi="68.17437" />
      <path
         d="m 180.67419,368.56748 c -2.98226,0.10557 -5.99091,0.0793 -9.07873,0.0793 -21.98424,0 -42.93921,-0.58062 -64.58035,-5.48947 -32.857612,-7.41605 -58.457508,-27.07783 -62.917696,-62.2315 -2.744732,-21.66754 1.636282,-47.34662 18.368586,-62.52182 15.703028,-14.25148 43.94209,-18.18383 63.28717,-11.61232 22.53847,7.70637 38.95407,26.2333 48.32311,47.61054 7.20491,16.46839 12.08737,31.2477 15.1224,49.00928 0.44867,2.71834 5.43668,43.81014 -0.39587,44.57549 -2.69195,0.3167 -5.41029,0.50144 -8.12862,0.58062 z"
         style="fill:#448fb8;fill-opacity:1;stroke-width:0.932045"
         id="path929"
         inkscape:connector-curvature="0"
         inkscape:export-xdpi="68.17437"
         inkscape:export-ydpi="68.17437" />
      <path
         d="m 350.63639,321.35282 c -2.45442,1.63629 -5.06719,3.08783 -7.36327,4.53937 -6.78265,4.30184 -14.8397,6.32334 -22.22936,9.5695 -14.59458,6.43957 -29.37454,11.27779 -44.89283,15.02541 -25.52072,6.17564 -51.43817,5.50651 -77.43394,5.16342 -5.09358,-0.0791 -10.28366,-0.12051 -15.27169,-1.04422 -1.39875,-0.26392 -2.77111,-0.47506 -4.16987,-0.68618 l 1.37236,14.64736 c 0,0 4.96163,0.36948 13.82923,-0.18474 -1.71546,16.96983 -2.26968,35.28563 2.05854,38.76933 1.95299,1.5835 6.09647,1.87381 8.63007,2.29607 7.44245,1.24041 15.1488,1.05567 22.80238,0.92371 6.51874,-0.10557 12.79995,-1.53071 18.81725,-3.37814 4.51297,-1.37236 6.46595,-2.37524 6.38678,-6.51873 -0.0792,-5.30472 -1.87381,-22.35373 -3.69484,-36.9483 16.73232,-2.19051 37.34419,-6.334 55.97669,-14.06676 0.26392,5.85895 0.50144,10.87336 0.47505,11.90265 -0.15834,4.03791 -0.21113,9.55376 3.35174,12.66798 9.92325,8.73563 34.49388,3.64205 45.89508,-0.15835 8.4981,-2.79752 5.88533,-12.69438 4.19627,-18.47415 -0.9765,-3.45731 -4.90885,-21.45641 -8.73564,-34.04523 z"
         style="fill:#448fb8;fill-opacity:1;stroke-width:0.932045"
         id="path923"
         inkscape:connector-curvature="0"
         inkscape:export-xdpi="68.17437"
         inkscape:export-ydpi="68.17437"
         sodipodi:nodetypes="ccccccccccscccccccccc" />
    </g>
  </g>
  <g
     id="g3676"
     inkscape:export-xdpi="68.17437"
     inkscape:export-ydpi="68.17437"
     transform="matrix(0.93204892,0,0,0.93204892,-19.892893,15.750313)">
    <path
       d="m 152.47087,260.91052 c 6.96765,-1.24669 13.79368,4.13673 15.23819,12.07019 1.44451,7.90512 -3.03065,15.38524 -9.99829,16.66026 -6.93933,1.24669 -13.76536,-4.13673 -15.2382,-12.04186 -1.44451,-7.93346 3.03065,-15.38524 9.9983,-16.68859 z"
       style="fill:#448fb8;fill-opacity:1;stroke-width:2.83288"
       id="path24"
       inkscape:export-xdpi="68.17437"
       inkscape:export-ydpi="68.17437" />
    <path
       d="m 88.714042,271.39402 c 1.982665,-7.7918 9.205228,-12.69354 16.031258,-10.93685 6.85435,1.7567 10.79136,9.52016 8.8087,17.31195 -2.01099,7.79179 -9.17691,12.69353 -16.031263,10.93684 -6.82603,-1.78503 -10.791359,-9.52015 -8.808695,-17.31194 z"
       style="fill:#448fb8;fill-opacity:1;stroke-width:2.83288"
       id="path26"
       inkscape:export-xdpi="68.17437"
       inkscape:export-ydpi="68.17437" />
    <path
       d="m 134.20203,304.1288 c -3.22891,1.7567 -6.00464,3.62673 -9.7717,2.23837 -2.18093,-0.79335 -4.24857,-1.41669 -6.14626,-2.83338 -1.35954,-0.99168 -2.88903,-1.81336 -4.24857,-2.80504 -0.70809,-0.51001 -1.38787,-1.04835 -2.09596,-1.55836 -0.79307,-0.59501 -1.0763,-0.85001 -2.09596,-0.99168 -0.82139,-0.085 -2.43584,-0.14167 -3.05897,0.53834 -2.66243,2.97505 1.07631,7.39512 3.08729,9.40681 3.00232,2.91838 7.27922,6.23344 11.21622,7.93346 3.85203,1.6717 7.67574,3.6834 11.78269,1.64336 4.50348,-2.2667 8.41216,-5.55342 12.37749,-8.58513 2.60579,-1.98337 8.44049,-5.46842 7.42083,-9.35015 -0.70809,-2.83338 -3.99365,-2.23837 -6.14626,-1.55836 -2.71908,0.82168 -5.15492,2.21004 -7.67574,3.48506 -1.55781,0.76501 -3.08729,1.61502 -4.6451,2.4367 z"
       style="fill:#448fb8;fill-opacity:1;stroke-width:2.83288"
       id="path28"
       inkscape:export-xdpi="68.17437"
       inkscape:export-ydpi="68.17437" />
  </g>
  <metadata
     id="metadata44">
    <rdf:RDF>
      <cc:Work
         rdf:about="">
        <dc:format>image/svg+xml</dc:format>
        <dc:type
           rdf:resource="http://purl.org/dc/dcmitype/StillImage" />
      </cc:Work>
    </rdf:RDF>
  </metadata>
  <defs
     id="defs42" />
  <sodipodi:namedview
     pagecolor="#ffffff"
     bordercolor="#666666"
     borderopacity="1"
     objecttolerance="10"
     gridtolerance="10"
     guidetolerance="10"
     inkscape:pageopacity="0"
     inkscape:pageshadow="2"
     inkscape:window-width="1920"
     inkscape:window-height="1080"
     id="namedview40"
     showgrid="false"
     inkscape:zoom="0.4609375"
     inkscape:cx="-367.72882"
     inkscape:cy="-197.42373"
     inkscape:window-x="0"
     inkscape:window-y="0"
     inkscape:window-maximized="1"
     inkscape:current-layer="svg38"
     inkscape:pagecheckerboard="true" />
</svg>
