<?xml version="1.0" encoding="UTF-8" standalone="no"?>
<svg
   xmlns:dc="http://purl.org/dc/elements/1.1/"
   xmlns:cc="http://creativecommons.org/ns#"
   xmlns:rdf="http://www.w3.org/1999/02/22-rdf-syntax-ns#"
   xmlns:svg="http://www.w3.org/2000/svg"
   xmlns="http://www.w3.org/2000/svg"
   xmlns:sodipodi="http://sodipodi.sourceforge.net/DTD/sodipodi-0.dtd"
   xmlns:inkscape="http://www.inkscape.org/namespaces/inkscape"
   width="512"
   height="512"
   version="1.1"
   id="svg38"
   inkscape:version="0.92.5 (2060ec1f9f, 2020-04-08)"
   inkscape:export-xdpi="96"
   inkscape:export-ydpi="96"
>
  <metadata
     id="metadata44">
    <rdf:RDF>
      <cc:Work
         rdf:about="">
        <dc:format>image/svg+xml</dc:format>
        <dc:type
           rdf:resource="http://purl.org/dc/dcmitype/StillImage" />
        <dc:title />
      </cc:Work>
    </rdf:RDF>
  </metadata>
  <defs
     id="defs42">
    <path
       d="M119.5,53.43c-0.44-0.19-0.94-0.11-1.29,0.22L87.25,82.71L65.16,49.72c-0.22-0.33-0.58-0.52-0.98-0.52h0 c-0.39,0-0.76,0.19-0.98,0.51l-22.19,33L10.06,53.64c-0.35-0.33-0.85-0.41-1.29-0.22c-0.43,0.19-0.71,0.63-0.69,1.1l1.27,47.52 c0,10.33,24.06,18.43,54.78,18.43c30.72,0,54.78-8.1,54.78-18.4l1.27-47.55C120.2,54.06,119.93,53.62,119.5,53.43z"
       id="SVGID_1_" />
    <filter
       inkscape:collect="always"
       style="color-interpolation-filters:sRGB"
       id="filter1115"
       x="-0.07150765"
       width="1.1430153"
       y="-0.10178111"
       height="1.2035622">
      <feGaussianBlur
         inkscape:collect="always"
         stdDeviation="3.7931808"
         id="feGaussianBlur1117" />
    </filter>
    <clipPath
       id="clipPath74"
       clipPathUnits="userSpaceOnUse">
      <path
         inkscape:connector-curvature="0"
         id="path72"
         d="M 0,150 H 350 V 0 H 0 Z" />
    </clipPath>
  </defs>
  <sodipodi:namedview
     pagecolor="#ffffff"
     bordercolor="#666666"
     borderopacity="1"
     objecttolerance="10"
     gridtolerance="10"
     guidetolerance="10"
     inkscape:pageopacity="0"
     inkscape:pageshadow="2"
     inkscape:window-width="1920"
     inkscape:window-height="1080"
     id="namedview40"
     showgrid="false"
     inkscape:zoom="1.3037281"
     inkscape:cx="302.10494"
     inkscape:cy="267.91226"
     inkscape:window-x="1440"
     inkscape:window-y="0"
     inkscape:window-maximized="1"
     inkscape:current-layer="svg38"
     showguides="true"
     inkscape:guide-bbox="true" />
  <g
     style="opacity:0.32600008;fill:#000000;fill-opacity:1;stroke-width:0.35316059;filter:url(#filter1115)"
     transform="matrix(2.8315731,0,0,2.8315731,66.871633,97.523647)"
     id="g1021">
    <path
       inkscape:connector-curvature="0"
       id="path987"
       style="fill:#000000;fill-opacity:1;stroke-width:0.35316059"
       d="m 40.1,37.83 c 0,0 2.55,-1.48 3.98,-2.12 l 22.24,8.18 35.97,0.97 c 0,0 2.7,2.8 3.5,3.76 l 6.53,18.74 5.27,2.11 c 0,0 1.21,3.62 1.55,4.99 L 118.05,83.1 65.91,96.03 24.04,85.76 24.17,60.02 36.97,43.35 Z" />
    <g
       style="fill:#000000;fill-opacity:1;stroke-width:0.35316059"
       id="g1019">
      <g
         style="fill:#000000;fill-opacity:1;stroke-width:0.35316059"
         id="g997">
        <path
           inkscape:connector-curvature="0"
           id="path989"
           style="fill:#000000;fill-opacity:1;stroke-width:0.35316059"
           d="m 73.14,59.57 c -0.1,5.06 -0.38,19.6 -0.28,28.04 1.67,0.04 3.5,-0.05 5.52,-0.26 2.7,-0.27 5.52,-0.81 8.24,-1.33 l 1.73,-0.33 c 2.79,-0.53 5.37,-1.19 7.89,-2.02 3.89,-1.28 8.19,-2.93 12.07,-5.32 -2.85,-9.93 -7.96,-17.38 -9.6,-19.61 -11,-0.87 -21.54,0.29 -25.57,0.83 z" />
        <path
           inkscape:connector-curvature="0"
           id="path991"
           style="fill:#000000;fill-opacity:1;stroke-width:0.35316059"
           d="m 102.38,56.52 c 1.95,2.67 6.63,9.73 9.61,19.22 2.18,-1.81 4.06,-3.97 5.5,-6.52 -1.34,-3.73 -2.96,-7.35 -4.9,-10.8 -1.95,-3.46 -4.22,-6.77 -6.79,-9.81 -0.95,3.11 -2.46,6.15 -3.42,7.91 z" />
        <path
           inkscape:connector-curvature="0"
           id="path993"
           style="fill:#000000;fill-opacity:1;stroke-width:0.35316059"
           d="m 45.2,42.69 c 4.26,1.63 18.85,7.43 26.39,12.78 3.25,-0.48 14.69,-1.96 27.04,-1.02 1.6,-2.95 3.28,-6.91 3.65,-9.6 C 102.13,44.7 102,44.54 101.85,44.4 96.72,39.58 90.22,36.93 83.66,34.71 74.5,31.61 64.53,30.52 54.98,32.23 c -3.78,0.68 -7.43,1.85 -10.9,3.48 z" />
        <path
           inkscape:connector-curvature="0"
           id="path995"
           style="fill:#000000;fill-opacity:1;stroke-width:0.35316059"
           d="m 119.11,74.49 c -1.99,2.55 -4.4,4.67 -6.98,6.43 -0.05,0.04 -0.11,0.07 -0.15,0.11 -4.74,3.2 -10.03,5.26 -14.4,6.69 -2.7,0.89 -5.45,1.6 -8.43,2.16 l -1.73,0.33 c -2.82,0.54 -5.72,1.1 -8.61,1.4 -1.7,0.17 -3.46,0.31 -5.23,0.31 -5.28,0 -10.58,-1.24 -14.45,-6.53 -1.56,-2.15 -3.3,-3.96 -5.15,-5.38 l -0.77,-0.6 c -1.17,-0.93 -3.36,-2.67 -4.49,-2.7 l 0.11,-4.27 c 2.56,0.07 5.15,2.12 7.04,3.62 l 0.7,0.55 c 2.17,1.66 4.2,3.76 6.01,6.25 1.63,2.23 3.62,3.5 6.01,4.17 -0.08,-9.02 0.21,-24.02 0.3,-28.24 -7.32,-5.13 -22.04,-10.92 -25.55,-12.26 -1.38,0.85 -4.94,3.81 -9.13,8.08 -0.42,0.43 -0.98,0.64 -1.53,0.64 -0.54,0 -1.08,-0.2 -1.49,-0.61 -0.84,-0.82 -0.86,-2.17 -0.03,-3.02 2.65,-2.69 6.85,-6.76 9.79,-8.58 L 40.1,37.82 c -7.16,4.28 -14.23,10.92 -18.48,18.64 -4.26,7.71 -5.7,16.48 -1.64,24.97 1.33,2.75 4,7.37 6.68,8.97 2.37,1.42 4.88,2.63 7.44,3.69 2.27,0.94 4.19,2.12 6.52,2.8 2.08,0.62 4.23,1.29 6.34,1.76 2.13,0.48 4.34,0.63 6.48,1.03 1.9,0.35 3.82,0.67 5.74,0.7 9.85,0.13 19.81,0.65 29.48,-1.69 5.88,-1.42 11.71,-3.19 17.24,-5.63 2.8,-1.22 5.53,-2.62 8.1,-4.26 2.09,-1.32 4.84,-2.62 5.93,-4.98 1.15,-2.49 0.17,-5.5 -0.44,-8.02 -0.11,-0.42 -0.26,-0.87 -0.38,-1.31 z" />
      </g>
      <g
         style="fill:#000000;fill-opacity:1;stroke-width:0.35316059"
         id="g1017">
        <path
           inkscape:connector-curvature="0"
           id="path999"
           style="fill:#000000;fill-opacity:1;stroke-width:0.35316059"
           d="m 29.95,98.37 c -0.98,-0.58 -2.38,-0.78 -4.28,-1.05 -2.5,-0.35 -5.22,-1.05 -7.72,-0.6 -2.15,0.39 -2.38,0.94 -3.08,2.93 -1.09,3.13 -4.26,12.51 -1.8,15.47 0.61,0.73 2.03,0.99 2.9,1.25 2.51,0.76 5.18,0.93 7.82,1.11 2.25,0.15 4.47,-0.26 6.62,-0.86 1.61,-0.45 2.32,-0.83 2.45,-2.61 0.29,-3.8 -0.56,-7.55 -0.9,-11.32 -0.24,-2.44 -0.84,-3.64 -2.01,-4.32 z" />
        <g
           style="fill:#000000;fill-opacity:1;stroke-width:0.35316059"
           id="g1005">
          <path
             inkscape:connector-curvature="0"
             id="path1001"
             style="fill:#000000;fill-opacity:1;stroke-width:0.35316059"
             d="m 116.78,87.1 c -0.93,0.62 -1.92,1.17 -2.79,1.72 -2.57,1.63 -5.3,3.03 -8.1,4.26 -5.53,2.44 -11.36,4.21 -17.24,5.63 -9.67,2.34 -19.63,1.82 -29.48,1.69 -1.93,-0.03 -3.85,-0.35 -5.74,-0.7 -0.53,-0.1 -1.05,-0.18 -1.58,-0.26 l 0.52,5.55 c 0,0 1.88,0.14 5.24,-0.07 -0.65,6.43 -0.86,13.37 0.78,14.69 0.74,0.6 2.31,0.71 3.27,0.87 2.82,0.47 5.74,0.4 8.64,0.35 2.47,-0.04 4.85,-0.58 7.13,-1.28 1.71,-0.52 2.45,-0.9 2.42,-2.47 -0.03,-2.01 -0.71,-8.47 -1.4,-14 6.34,-0.83 14.15,-2.4 21.21,-5.33 0.1,2.22 0.19,4.12 0.18,4.51 -0.06,1.53 -0.08,3.62 1.27,4.8 3.76,3.31 13.07,1.38 17.39,-0.06 3.22,-1.06 2.23,-4.81 1.59,-7 -0.37,-1.31 -1.86,-8.13 -3.31,-12.9 z" />
          <path
             inkscape:connector-curvature="0"
             id="path1003"
             style="fill:#000000;fill-opacity:1;stroke-width:0.35316059"
             d="m 127.07,64.28 c -1.68,-1.58 -4.44,0.46 -5.98,1.28 -1.38,0.74 -2.75,1.47 -4.15,2.16 1.01,2.65 1.89,5.35 2.55,8.11 0.3,1.23 0.68,2.58 0.87,3.93 0.05,-0.06 0.1,-0.12 0.15,-0.17 0.51,-0.58 0.97,-1.17 1.42,-1.8 1.75,-2.48 3.08,-5.22 4.51,-7.88 0.69,-1.33 1.96,-4.37 0.63,-5.63 z" />
        </g>
        <g
           style="fill:#000000;fill-opacity:1;stroke-width:0.35316059"
           id="g1015">
          <path
             inkscape:connector-curvature="0"
             id="path1007"
             style="fill:#000000;fill-opacity:1;stroke-width:0.35316059"
             d="m 52.38,104.99 c -1.13,0.04 -2.27,0.03 -3.44,0.03 -8.33,0 -16.27,-0.22 -24.47,-2.08 C 12.02,100.13 2.32,92.68 0.63,79.36 -0.41,71.15 1.25,61.42 7.59,55.67 c 5.95,-5.4 16.65,-6.89 23.98,-4.4 8.54,2.92 14.76,9.94 18.31,18.04 2.73,6.24 4.58,11.84 5.73,18.57 0.17,1.03 2.06,16.6 -0.15,16.89 -1.02,0.12 -2.05,0.19 -3.08,0.22 z" />
          <path
             inkscape:connector-curvature="0"
             id="path1009"
             style="fill:#000000;fill-opacity:1;stroke-width:0.35316059"
             d="m 30.25,63.47 c 2.46,-0.44 4.87,1.46 5.38,4.26 0.51,2.79 -1.07,5.43 -3.53,5.88 -2.45,0.44 -4.86,-1.46 -5.38,-4.25 -0.51,-2.8 1.07,-5.43 3.53,-5.89 z" />
          <path
             inkscape:connector-curvature="0"
             id="path1011"
             style="fill:#000000;fill-opacity:1;stroke-width:0.35316059"
             d="m 7.74,67.17 c 0.7,-2.75 3.25,-4.48 5.66,-3.86 2.42,0.62 3.81,3.36 3.11,6.11 -0.71,2.75 -3.24,4.48 -5.66,3.86 C 8.44,72.65 7.04,69.92 7.74,67.17 Z" />
          <path
             inkscape:connector-curvature="0"
             id="path1013"
             style="fill:#000000;fill-opacity:1;stroke-width:0.35316059"
             d="m 23.8,79.29 c -1.14,0.62 -2.12,1.28 -3.45,0.79 -0.77,-0.28 -1.5,-0.5 -2.17,-1 -0.48,-0.35 -1.02,-0.64 -1.5,-0.99 -0.25,-0.18 -0.49,-0.37 -0.74,-0.55 -0.28,-0.21 -0.38,-0.3 -0.74,-0.35 -0.29,-0.03 -0.86,-0.05 -1.08,0.19 -0.94,1.05 0.38,2.61 1.09,3.32 1.06,1.03 2.57,2.2 3.96,2.8 1.36,0.59 2.71,1.3 4.16,0.58 1.59,-0.8 2.97,-1.96 4.37,-3.03 0.92,-0.7 2.98,-1.93 2.62,-3.3 -0.25,-1 -1.41,-0.79 -2.17,-0.55 -0.96,0.29 -1.82,0.78 -2.71,1.23 -0.55,0.27 -1.09,0.57 -1.64,0.86 z" />
        </g>
      </g>
    </g>
  </g>
  <g
     id="g36"
     transform="matrix(2.8315731,0,0,2.8315731,66.871633,97.523647)"
     style="stroke-width:0.35316059">
    <path
       d="m 40.1,37.83 c 0,0 2.55,-1.48 3.98,-2.12 l 22.24,8.18 35.97,0.97 c 0,0 2.7,2.8 3.5,3.76 l 6.53,18.74 5.27,2.11 c 0,0 1.21,3.62 1.55,4.99 L 118.05,83.1 65.91,96.03 24.04,85.76 24.17,60.02 36.97,43.35 Z"
       style="fill:#2f2f2f;stroke-width:0.35316059"
       id="path2"
       inkscape:connector-curvature="0" />
    <g
       id="g34"
       style="stroke-width:0.35316059">
      <g
         id="g12"
         style="stroke-width:0.35316059">
        <path
           d="m 73.14,59.57 c -0.1,5.06 -0.38,19.6 -0.28,28.04 1.67,0.04 3.5,-0.05 5.52,-0.26 2.7,-0.27 5.52,-0.81 8.24,-1.33 l 1.73,-0.33 c 2.79,-0.53 5.37,-1.19 7.89,-2.02 3.89,-1.28 8.19,-2.93 12.07,-5.32 -2.85,-9.93 -7.96,-17.38 -9.6,-19.61 -11,-0.87 -21.54,0.29 -25.57,0.83 z"
           style="fill:#757f3f;stroke-width:0.35316059"
           id="path4"
           inkscape:connector-curvature="0" />
        <path
           d="m 102.38,56.52 c 1.95,2.67 6.63,9.73 9.61,19.22 2.18,-1.81 4.06,-3.97 5.5,-6.52 -1.34,-3.73 -2.96,-7.35 -4.9,-10.8 -1.95,-3.46 -4.22,-6.77 -6.79,-9.81 -0.95,3.11 -2.46,6.15 -3.42,7.91 z"
           style="fill:#757f3f;stroke-width:0.35316059"
           id="path6"
           inkscape:connector-curvature="0" />
        <path
           d="m 45.2,42.69 c 4.26,1.63 18.85,7.43 26.39,12.78 3.25,-0.48 14.69,-1.96 27.04,-1.02 1.6,-2.95 3.28,-6.91 3.65,-9.6 C 102.13,44.7 102,44.54 101.85,44.4 96.72,39.58 90.22,36.93 83.66,34.71 74.5,31.61 64.53,30.52 54.98,32.23 c -3.78,0.68 -7.43,1.85 -10.9,3.48 z"
           style="fill:#757f3f;stroke-width:0.35316059"
           id="path8"
           inkscape:connector-curvature="0" />
        <path
           d="m 119.11,74.49 c -1.99,2.55 -4.4,4.67 -6.98,6.43 -0.05,0.04 -0.11,0.07 -0.15,0.11 -4.74,3.2 -10.03,5.26 -14.4,6.69 -2.7,0.89 -5.45,1.6 -8.43,2.16 l -1.73,0.33 c -2.82,0.54 -5.72,1.1 -8.61,1.4 -1.7,0.17 -3.46,0.31 -5.23,0.31 -5.28,0 -10.58,-1.24 -14.45,-6.53 -1.56,-2.15 -3.3,-3.96 -5.15,-5.38 l -0.77,-0.6 c -1.17,-0.93 -3.36,-2.67 -4.49,-2.7 l 0.11,-4.27 c 2.56,0.07 5.15,2.12 7.04,3.62 l 0.7,0.55 c 2.17,1.66 4.2,3.76 6.01,6.25 1.63,2.23 3.62,3.5 6.01,4.17 -0.08,-9.02 0.21,-24.02 0.3,-28.24 -7.32,-5.13 -22.04,-10.92 -25.55,-12.26 -1.38,0.85 -4.94,3.81 -9.13,8.08 -0.42,0.43 -0.98,0.64 -1.53,0.64 -0.54,0 -1.08,-0.2 -1.49,-0.61 -0.84,-0.82 -0.86,-2.17 -0.03,-3.02 2.65,-2.69 6.85,-6.76 9.79,-8.58 L 40.1,37.82 c -7.16,4.28 -14.23,10.92 -18.48,18.64 -4.26,7.71 -5.7,16.48 -1.64,24.97 1.33,2.75 4,7.37 6.68,8.97 2.37,1.42 4.88,2.63 7.44,3.69 2.27,0.94 4.19,2.12 6.52,2.8 2.08,0.62 4.23,1.29 6.34,1.76 2.13,0.48 4.34,0.63 6.48,1.03 1.9,0.35 3.82,0.67 5.74,0.7 9.85,0.13 19.81,0.65 29.48,-1.69 5.88,-1.42 11.71,-3.19 17.24,-5.63 2.8,-1.22 5.53,-2.62 8.1,-4.26 2.09,-1.32 4.84,-2.62 5.93,-4.98 1.15,-2.49 0.17,-5.5 -0.44,-8.02 -0.11,-0.42 -0.26,-0.87 -0.38,-1.31 z"
           style="fill:#757f3f;stroke-width:0.35316059"
           id="path10"
           inkscape:connector-curvature="0" />
      </g>
      <g
         id="g32"
         style="stroke-width:0.35316059">
        <path
           d="m 29.95,98.37 c -0.98,-0.58 -2.38,-0.78 -4.28,-1.05 -2.5,-0.35 -5.22,-1.05 -7.72,-0.6 -2.15,0.39 -2.38,0.94 -3.08,2.93 -1.09,3.13 -4.26,12.51 -1.8,15.47 0.61,0.73 2.03,0.99 2.9,1.25 2.51,0.76 5.18,0.93 7.82,1.11 2.25,0.15 4.47,-0.26 6.62,-0.86 1.61,-0.45 2.32,-0.83 2.45,-2.61 0.29,-3.8 -0.56,-7.55 -0.9,-11.32 -0.24,-2.44 -0.84,-3.64 -2.01,-4.32 z"
           style="fill:#bdcf46;stroke-width:0.35316059"
           id="path14"
           inkscape:connector-curvature="0" />
        <g
           id="g20"
           style="stroke-width:0.35316059">
          <path
             d="m 116.78,87.1 c -0.93,0.62 -1.92,1.17 -2.79,1.72 -2.57,1.63 -5.3,3.03 -8.1,4.26 -5.53,2.44 -11.36,4.21 -17.24,5.63 -9.67,2.34 -19.63,1.82 -29.48,1.69 -1.93,-0.03 -3.85,-0.35 -5.74,-0.7 -0.53,-0.1 -1.05,-0.18 -1.58,-0.26 l 0.52,5.55 c 0,0 1.88,0.14 5.24,-0.07 -0.65,6.43 -0.86,13.37 0.78,14.69 0.74,0.6 2.31,0.71 3.27,0.87 2.82,0.47 5.74,0.4 8.64,0.35 2.47,-0.04 4.85,-0.58 7.13,-1.28 1.71,-0.52 2.45,-0.9 2.42,-2.47 -0.03,-2.01 -0.71,-8.47 -1.4,-14 6.34,-0.83 14.15,-2.4 21.21,-5.33 0.1,2.22 0.19,4.12 0.18,4.51 -0.06,1.53 -0.08,3.62 1.27,4.8 3.76,3.31 13.07,1.38 17.39,-0.06 3.22,-1.06 2.23,-4.81 1.59,-7 -0.37,-1.31 -1.86,-8.13 -3.31,-12.9 z"
             style="fill:#bdcf46;stroke-width:0.35316059"
             id="path16"
             inkscape:connector-curvature="0" />
          <path
             d="m 127.07,64.28 c -1.68,-1.58 -4.44,0.46 -5.98,1.28 -1.38,0.74 -2.75,1.47 -4.15,2.16 1.01,2.65 1.89,5.35 2.55,8.11 0.3,1.23 0.68,2.58 0.87,3.93 0.05,-0.06 0.1,-0.12 0.15,-0.17 0.51,-0.58 0.97,-1.17 1.42,-1.8 1.75,-2.48 3.08,-5.22 4.51,-7.88 0.69,-1.33 1.96,-4.37 0.63,-5.63 z"
             style="fill:#bdcf46;stroke-width:0.35316059"
             id="path18"
             inkscape:connector-curvature="0" />
        </g>
        <g
           id="g30"
           style="stroke-width:0.35316059">
          <path
             d="m 52.38,104.99 c -1.13,0.04 -2.27,0.03 -3.44,0.03 -8.33,0 -16.27,-0.22 -24.47,-2.08 C 12.02,100.13 2.32,92.68 0.63,79.36 -0.41,71.15 1.25,61.42 7.59,55.67 c 5.95,-5.4 16.65,-6.89 23.98,-4.4 8.54,2.92 14.76,9.94 18.31,18.04 2.73,6.24 4.58,11.84 5.73,18.57 0.17,1.03 2.06,16.6 -0.15,16.89 -1.02,0.12 -2.05,0.19 -3.08,0.22 z"
             style="fill:#bdcf46;stroke-width:0.35316059"
             id="path22"
             inkscape:connector-curvature="0" />
          <path
             d="m 30.25,63.47 c 2.46,-0.44 4.87,1.46 5.38,4.26 0.51,2.79 -1.07,5.43 -3.53,5.88 -2.45,0.44 -4.86,-1.46 -5.38,-4.25 -0.51,-2.8 1.07,-5.43 3.53,-5.89 z"
             style="fill:#2f2f2f;stroke-width:0.35316059"
             id="path24"
             inkscape:connector-curvature="0" />
          <path
             d="m 7.74,67.17 c 0.7,-2.75 3.25,-4.48 5.66,-3.86 2.42,0.62 3.81,3.36 3.11,6.11 -0.71,2.75 -3.24,4.48 -5.66,3.86 C 8.44,72.65 7.04,69.92 7.74,67.17 Z"
             style="fill:#2f2f2f;stroke-width:0.35316059"
             id="path26"
             inkscape:connector-curvature="0" />
          <path
             d="m 23.8,79.29 c -1.14,0.62 -2.12,1.28 -3.45,0.79 -0.77,-0.28 -1.5,-0.5 -2.17,-1 -0.48,-0.35 -1.02,-0.64 -1.5,-0.99 -0.25,-0.18 -0.49,-0.37 -0.74,-0.55 -0.28,-0.21 -0.38,-0.3 -0.74,-0.35 -0.29,-0.03 -0.86,-0.05 -1.08,0.19 -0.94,1.05 0.38,2.61 1.09,3.32 1.06,1.03 2.57,2.2 3.96,2.8 1.36,0.59 2.71,1.3 4.16,0.58 1.59,-0.8 2.97,-1.96 4.37,-3.03 0.92,-0.7 2.98,-1.93 2.62,-3.3 -0.25,-1 -1.41,-0.79 -2.17,-0.55 -0.96,0.29 -1.82,0.78 -2.71,1.23 -0.55,0.27 -1.09,0.57 -1.64,0.86 z"
             style="fill:#2f2f2f;stroke-width:0.35316059"
             id="path28"
             inkscape:connector-curvature="0" />
        </g>
      </g>
    </g>
  </g>
  <g
     transform="matrix(0.59983106,-0.04283744,0.04283744,0.59983106,299.03935,-354.71853)"
     id="g962">
    <path
       sodipodi:nodetypes="ccscccccccc"
       inkscape:connector-curvature="0"
       id="path3876"
       d="m -303.57084,902.31473 -7.35131,52.63537 c 0,0 130.85328,17.93719 137.91053,19.1134 7.05726,1.1762 135.264067,12.9383 135.264067,12.9383 l 79.688166,-0.58811 c -1.787856,-1.28848 1.63109,-3.16507 2.157744,-4.45355 1.386227,-2.47635 0.228684,-2.47436 -1.663407,-4.36646 2.828689,-5.11763 0.677943,-5.11149 -2.495152,-10.18839 4.685459,-5.21182 1.318013,-6.78962 -1.45547,-13.30729 5.292265,-17.15499 4.762112,-28.57659 -3.326814,-44.08039 z"
       style="fill:#550000;fill-opacity:1;stroke:none;stroke-width:0.41167325" />
    <path
       sodipodi:nodetypes="cccsc"
       inkscape:connector-curvature="0"
       id="path3888"
       d="m -243.58417,749.99563 c 86.20949,-61.34816 181.265155,-35.21773 232.30132,47.63648 l -0.588076,55.86994 c 0,0 -239.946714,-7.05726 -239.946714,-11.17399 0,-4.11673 8.23347,-92.33243 8.23347,-92.33243 z"
       style="fill:#514b37;fill-opacity:1;stroke:none;stroke-width:0.41167325" />
    <path
       sodipodi:nodetypes="csssscsssssssssc"
       inkscape:connector-curvature="0"
       id="path3886"
       d="m -425.3085,819.39198 c 25.26705,18.58282 71.04687,51.29958 110.16203,87.1806 2.99444,2.74685 16.47235,0.28835 32.8814,4.00529 24.3211,5.50917 56.5746,17.11916 82.78875,18.78967 31.77463,2.02486 83.4546,-11.79435 104.421872,-13.35034 C 13.224099,907.98184 114.17095,933.09981 225.72334,885.84781 163.58028,772.53964 41.880426,735.66471 -66.55855,716.34321 c -32.780222,-5.84073 -93.32652,1.82537 -102.33634,10.12824 -13.92074,12.82847 -8.10146,38.69736 -20.58366,52.92941 -15.70436,17.90593 -57.82041,3.97036 -41.16732,-17.64314 12.07657,-15.67378 27.60325,-24.76225 30.58144,-41.75543 1.47548,-8.41889 -12.13399,-14.00315 -20.58366,-15.29072 -13.70357,-2.08816 -28.33612,0.63618 -41.16732,5.88105 -14.74751,6.02818 -25.0353,20.16828 -39.40302,27.05281 -23.54725,11.28306 -50.97315,13.87204 -73.51308,27.05282 -25.84438,15.11314 -55.86073,22.99131 -50.57699,54.69373 z"
       style="fill:#d7d0ab;fill-opacity:1;stroke:none;stroke-width:0.41167325" />
    <path
       inkscape:connector-curvature="0"
       id="path3890"
       d="m -95.107965,714.29561 c -31.280145,0.0812 -67.035075,5.94294 -73.792435,12.17009 -13.92074,12.82847 -8.10146,38.70655 -20.58366,52.9386 -11.8561,13.51818 -38.75141,8.88182 -44.0619,-3.49922 l 25.43369,136.18666 c 0,0 -13.68716,7.82326 -21.94733,12.22154 10.54707,2.49443 20.96769,4.44334 30.5796,5.05586 31.77463,2.02486 83.45622,-11.79766 104.423494,-13.35364 C 13.22204,907.98013 114.17461,933.09957 225.72701,885.84757 163.5839,772.5394 41.877956,735.6626 -66.56102,716.34111 c -8.195055,-1.46019 -18.12025,-2.07258 -28.546945,-2.0455 z"
       style="fill:#322b1a;fill-opacity:1;stroke:#322b1a;stroke-width:0.41167325;stroke-opacity:1" />
    <path
       inkscape:connector-curvature="0"
       id="path4078"
       d="m -268.57678,791.70304 a 2.058572,2.058572 0 0 0 -1.8654,2.40572 l 2.09697,13.05776 -7.20429,7.89898 a 2.058572,2.058572 0 1 0 3.03609,2.77879 l 5.00441,-5.4804 1.01631,6.29088 a 2.058942,2.058942 0 1 0 4.06528,-0.6561 l -1.53091,-9.51995 8.9153,-9.76437 a 2.058572,2.058572 0 0 0 -1.65956,-3.47349 2.058572,2.058572 0 0 0 -1.37653,0.6947 l -6.71542,7.35865 -1.58237,-9.82869 a 2.058572,2.058572 0 0 0 -2.19988,-1.76248 z"
       style="color:#000000;font-style:normal;font-variant:normal;font-weight:normal;font-stretch:normal;font-size:medium;line-height:normal;font-family:Sans;-inkscape-font-specification:Sans;text-indent:0;text-align:start;text-decoration:none;text-decoration-line:none;letter-spacing:normal;word-spacing:normal;text-transform:none;writing-mode:lr-tb;direction:ltr;baseline-shift:baseline;text-anchor:start;display:inline;overflow:visible;visibility:visible;fill:#000000;fill-opacity:1;stroke:none;stroke-width:4.1167326;marker:none;enable-background:accumulate" />
  </g>
  <g
     transform="matrix(0.6018593,0,0,0.6018593,161.81114,-462.97576)"
     id="g1041">
    <path
       sodipodi:nodetypes="ccccccsc"
       inkscape:connector-curvature="0"
       id="path3826"
       d="m 29.737465,1228.5658 8.086415,-3.6757 12.644256,1.0292 6.322148,22.348 -2.499474,3.9697 -20.877679,2.9405 -3.381608,-1.7643 c -1.050919,-0.5483 -0.294058,-24.8474 -0.294058,-24.8474 z"
       style="fill:#332a15;fill-opacity:1;stroke:none;stroke-width:0.41167325" />
    <path
       sodipodi:nodetypes="cccsc"
       inkscape:connector-curvature="0"
       id="path3824"
       d="m 30.325582,1204.7475 c 6.430336,-3.4281 5.17959,-2.7217 12.056139,-0.7351 l 3.675624,18.0842 c 2.59136,2.9153 -13.337472,6.5347 -14.114505,2.4995 -0.919102,-4.7731 -1.617258,-19.8486 -1.617258,-19.8486 z"
       style="fill:#550000;fill-opacity:1;stroke:none;stroke-width:0.41167325" />
    <path
       inkscape:connector-curvature="0"
       id="path3828"
       d="m 37.82388,1224.8862 -3.524952,1.6081 c 2.247942,1.3015 4.695669,2.663 4.695669,2.663 l 4.348298,-3.8208 z m 4.116733,24.263 -5.030112,5.5447 12.568878,-1.7753 z"
       style="fill:#bdcf46;stroke:none;stroke-width:0.41167325;fill-opacity:1" />
    <ellipse
       transform="rotate(-9.0398447)"
       id="path3838"
       style="fill:#550000;fill-opacity:1;stroke:none;stroke-width:0.41167325"
       cx="-149.16756"
       cy="1281.2496"
       rx="6.9102297"
       ry="5.9545593" />
    <path
       sodipodi:nodetypes="sssss"
       inkscape:connector-curvature="0"
       id="path3836"
       d="m 38.706055,1263.411 2.940541,14.2615 c 1.457405,7.0686 15.587431,8.7388 17.643121,-1.4702 l -3.087549,-16.1729 c -1.58696,-8.3127 -19.64797,-7.055 -17.496113,3.3816 z"
       style="fill:#550000;fill-opacity:1;stroke:none;stroke-width:0.41167325" />
    <path
       sodipodi:nodetypes="ccccccccccccccccccccccc"
       inkscape:connector-curvature="0"
       id="path3842"
       d="m 55.614051,1294.5806 c -11.602722,5.2461 -4.154853,12.0783 1.911358,21.9069 -7.890212,10.3246 -8.130423,22.7908 1.323241,34.6981 -4.19812,9.0329 -6.90199,10.6952 0.735125,16.614 -0.666293,3.9586 -0.165163,5.4144 1.47025,8.8215 -1.29323,2.0014 -0.403193,4.3746 -0.147009,6.6162 -1.025972,4.4482 -0.750892,4.6734 1.176192,8.5275 -0.783044,2.1442 -0.418713,3.1807 0.441067,5.146 -0.963563,2.6478 -1.364985,5.3114 -1.617259,8.0864 -1.226704,2.6582 -0.1065,4.9442 0.588076,7.6454 l 3.19763,1.6081 4.627372,-3.9858 c 3.064043,-2.3172 3.529234,-4.2265 4.084128,-6.1499 3.028063,1.9989 8.383314,2.2362 9.409698,-2.3524 2.641213,3.4286 1.93227,1.1372 3.381566,-2.6465 7.082385,2.5475 4.713659,-6.3049 3.822715,-11.0269 0.158042,-4.6008 0.933428,-5.1266 -1.617299,-8.5276 1.483135,-6.3605 2.265355,-6.0401 -0.14705,-11.468 -0.814084,-5.2803 0.102383,-7.0663 -3.234558,-10.8799 1.056148,-3.8709 0.758138,-6.9829 -0.147008,-10.7329 0.535628,-3.6826 -0.458933,-3.8694 -2.940541,-6.4692 0.399941,-16.3102 -4.666398,-29.9921 -18.231238,-28.523 4.355956,-11.655 1.727752,-19.6201 -8.086456,-16.908 z"
       style="fill:#332a15;fill-opacity:1;stroke:none;stroke-width:0.41167325" />
    <ellipse
       id="path3844"
       style="fill:#808000;fill-opacity:1;stroke:none;stroke-width:0.41167325"
       cx="64.267197"
       cy="1414.551"
       rx="2.1832271"
       ry="1.5594479" />
    <ellipse
       id="path3846"
       style="fill:#60553f;fill-opacity:1;stroke:none;stroke-width:0.41167325"
       cx="64.163246"
       cy="1418.7615"
       rx="2.2871902"
       ry="2.9629509" />
    <ellipse
       id="path3848"
       style="fill:#60553f;fill-opacity:1;stroke:none;stroke-width:0.41167325"
       cx="63.747375"
       cy="1423.3878"
       rx="1.6634111"
       ry="1.2475584" />
    <ellipse
       id="path3850"
       style="fill:#60553f;fill-opacity:1;stroke:none;stroke-width:0.41167325"
       cx="63.695389"
       cy="1426.5587"
       rx="1.4035031"
       ry="1.5074663" />
    <ellipse
       id="path3852"
       style="fill:#808000;fill-opacity:1;stroke:none;stroke-width:0.41167325"
       cx="69.257423"
       cy="1413.1995"
       rx="2.5990798"
       ry="2.703043" />
    <ellipse
       id="path3854"
       style="fill:#60553f;fill-opacity:1;stroke:none;stroke-width:0.41167325"
       cx="69.933205"
       cy="1418.5016"
       rx="2.1312456"
       ry="1.2475584" />
    <ellipse
       id="path3856"
       style="fill:#60553f;fill-opacity:1;stroke:none;stroke-width:0.41167325"
       cx="70.608955"
       cy="1422.92"
       rx="2.0792639"
       ry="2.0272822" />
    <ellipse
       id="path3858"
       style="fill:#808000;fill-opacity:1;stroke:none;stroke-width:0.41167325"
       cx="78.926018"
       cy="1405.922"
       rx="2.3911536"
       ry="1.4554847" />
    <ellipse
       id="path3862"
       style="fill:#808000;fill-opacity:1;stroke:none;stroke-width:0.43080598"
       cx="80.901306"
       cy="1415.4866"
       rx="2.2871902"
       ry="1.4554846" />
    <ellipse
       id="path3864"
       style="fill:#60553f;fill-opacity:1;stroke:none;stroke-width:0.41167325"
       cx="81.733002"
       cy="1418.5536"
       rx="2.0792639"
       ry="1.6114296" />
    <ellipse
       id="path3866"
       style="fill:#808000;fill-opacity:1;stroke:none;stroke-width:0.41167325"
       cx="85.007843"
       cy="1404.4666"
       rx="1.6114296"
       ry="1.3515215" />
    <ellipse
       id="path3868"
       style="fill:#808000;fill-opacity:1;stroke:none;stroke-width:0.41167325"
       cx="85.735588"
       cy="1408.6251"
       rx="2.443135"
       ry="2.5990798" />
    <ellipse
       id="path3870"
       style="fill:#808000;fill-opacity:1;stroke:none;stroke-width:0.41167325"
       cx="86.307404"
       cy="1412.5237"
       rx="1.5594479"
       ry="1.1955768" />
    <ellipse
       id="path3872"
       style="fill:#808000;fill-opacity:1;stroke:none;stroke-width:0.41167325"
       cx="86.51532"
       cy="1415.0708"
       rx="1.6634111"
       ry="1.2475584" />
    <ellipse
       id="path3860"
       style="fill:#60553f;fill-opacity:1;stroke:none;stroke-width:0.44465792"
       cx="80.277527"
       cy="1410.6523"
       rx="3.5347488"
       ry="3.2748406" />
  </g>
  <g
     transform="translate(359.90258,-877.6771)"
     id="g1086">
    <ellipse
       id="path3897"
       style="fill:#808000;fill-opacity:1;stroke:none;stroke-width:0.41167325"
       cx="-285.56894"
       cy="1176.0594"
       rx="5.7179756"
       ry="4.0545645" />
    <ellipse
       id="path3901"
       style="fill:#2e2e52;fill-opacity:1;stroke:none;stroke-width:0.41167325"
       cx="-282.65799"
       cy="1211.095"
       rx="10.292356"
       ry="9.1487608" />
    <ellipse
       id="path3903"
       style="fill:#431212;fill-opacity:1;stroke:none;stroke-width:0.45594865"
       cx="-278.18756"
       cy="1243.5315"
       rx="10.604246"
       ry="9.5646143" />
    <ellipse
       id="path3905"
       style="fill:#ffffff;stroke:none;stroke-width:0.41167325"
       cx="-287.02444"
       cy="1209.3276"
       rx="1.7673744"
       ry="1.9753006" />
    <ellipse
       id="path3907"
       style="fill:#ffffff;stroke:none;stroke-width:0.41167325"
       cx="-281.41043"
       cy="1203.6096"
       rx="1.9753006"
       ry="1.8713374" />
    <ellipse
       id="path3911"
       style="fill:#ffffff;stroke:none;stroke-width:0.41167325"
       cx="-280.99457"
       cy="1213.2782"
       rx="2.5990798"
       ry="1.9753006" />
    <ellipse
       id="path3913"
       style="fill:#ffffff;stroke:none;stroke-width:0.34052384"
       cx="-275.38055"
       cy="1207.8722"
       rx="1.5594479"
       ry="1.3515215" />
    <ellipse
       id="path3917"
       style="fill:#ffffff;stroke:none;stroke-width:0.41167325"
       cx="-275.79642"
       cy="1242.3879"
       rx="2.8070061"
       ry="2.5990798" />
    <ellipse
       id="path3919"
       style="fill:#ffffff;stroke:none;stroke-width:0.41167325"
       cx="-280.78665"
       cy="1248.9376"
       rx="2.8070061"
       ry="1.6634111" />
    <ellipse
       id="path3921"
       style="fill:#ffffff;stroke:none;stroke-width:0.41167325"
       cx="-281.82626"
       cy="1238.0215"
       rx="2.1832271"
       ry="1.7673744" />
    <ellipse
       id="path3923"
       style="fill:#ffffff;stroke:none;stroke-width:0.41167325"
       cx="-286.92047"
       cy="1244.0514"
       rx="1.2475584"
       ry="2.3911536" />
    <rect
       transform="rotate(-5.3891399)"
       ry="13.889599"
       rx="1.767767"
       y="1190.1191"
       x="-403.88885"
       height="11.435951"
       width="18.297522"
       id="rect3925"
       style="fill:#ffffff;stroke:none;stroke-width:0.41167325" />
    <rect
       style="fill:#3f1616;fill-opacity:1;stroke:none;stroke-width:0.41167325"
       id="rect3927"
       width="12.064445"
       height="18.288252"
       x="-341.90598"
       y="1172.3351"
       rx="4.6842313"
       ry="22.212097"
       transform="matrix(0.99954332,-0.03021851,0.04350392,0.99905326,0,0)" />
  </g>
</svg>
