<?xml version="1.0" encoding="UTF-8" standalone="no"?>
<svg
   width="512"
   height="512"
   version="1.1"
   id="svg38"
   inkscape:version="1.1-rc (52f87ab, 2021-05-02)"
   inkscape:export-xdpi="192"
   inkscape:export-ydpi="192"
   sodipodi:docname="rogket-man.svg"
   xmlns:inkscape="http://www.inkscape.org/namespaces/inkscape"
   xmlns:sodipodi="http://sodipodi.sourceforge.net/DTD/sodipodi-0.dtd"
   xmlns="http://www.w3.org/2000/svg"
   xmlns:svg="http://www.w3.org/2000/svg"
   xmlns:rdf="http://www.w3.org/1999/02/22-rdf-syntax-ns#"
   xmlns:cc="http://creativecommons.org/ns#"
   xmlns:dc="http://purl.org/dc/elements/1.1/">
  <metadata
     id="metadata44">
    <rdf:RDF>
      <cc:Work
         rdf:about="">
        <dc:format>image/svg+xml</dc:format>
        <dc:type
           rdf:resource="http://purl.org/dc/dcmitype/StillImage" />
      </cc:Work>
    </rdf:RDF>
  </metadata>
  <defs
     id="defs42">
    <inkscape:path-effect
       effect="perspective-envelope"
       up_left_point="41.254483,2.0206897"
       up_right_point="111.00041,0.00012744293"
       down_left_point="46.127522,82.012497"
       down_right_point="112.23346,86.413748"
       id="path-effect1198"
       is_visible="true"
       lpeversion="1"
       deform_type="perspective"
       horizontal_mirror="false"
       vertical_mirror="false"
       overflow_perspective="false" />
    <inkscape:path-effect
       effect="perspective-envelope"
       up_left_point="39.795248,0.00012744293"
       up_right_point="111.00041,0.00012744293"
       down_left_point="46.109281,81.922826"
       down_right_point="106.69576,90.284813"
       id="path-effect989"
       is_visible="true"
       lpeversion="1"
       deform_type="perspective"
       horizontal_mirror="false"
       vertical_mirror="false"
       overflow_perspective="false" />
    <linearGradient
       id="linearGradient17810"
       inkscape:swatch="solid">
      <stop
         style="stop-color:#ededed;stop-opacity:1;"
         offset="0"
         id="stop17808" />
    </linearGradient>
    <linearGradient
       id="linearGradient17768"
       inkscape:swatch="solid">
      <stop
         style="stop-color:#ededed;stop-opacity:1;"
         offset="0"
         id="stop17766" />
    </linearGradient>
    <inkscape:path-effect
       effect="spiro"
       id="path-effect27148"
       is_visible="true"
       lpeversion="0" />
    <inkscape:path-effect
       effect="spiro"
       id="path-effect27144"
       is_visible="true"
       lpeversion="0" />
    <inkscape:path-effect
       effect="spiro"
       id="path-effect27140"
       is_visible="true"
       lpeversion="0" />
    <inkscape:path-effect
       effect="spiro"
       id="path-effect27136"
       is_visible="true"
       lpeversion="0" />
    <path
       d="M119.5,53.43c-0.44-0.19-0.94-0.11-1.29,0.22L87.25,82.71L65.16,49.72c-0.22-0.33-0.58-0.52-0.98-0.52h0 c-0.39,0-0.76,0.19-0.98,0.51l-22.19,33L10.06,53.64c-0.35-0.33-0.85-0.41-1.29-0.22c-0.43,0.19-0.71,0.63-0.69,1.1l1.27,47.52 c0,10.33,24.06,18.43,54.78,18.43c30.72,0,54.78-8.1,54.78-18.4l1.27-47.55C120.2,54.06,119.93,53.62,119.5,53.43z"
       id="SVGID_1_" />
    <clipPath
       id="clipPath74"
       clipPathUnits="userSpaceOnUse">
      <path
         inkscape:connector-curvature="0"
         id="path72"
         d="M 0,150 H 350 V 0 H 0 Z" />
    </clipPath>
    <inkscape:path-effect
       effect="spiro"
       id="path-effect17935-89"
       is_visible="true"
       lpeversion="0" />
    <inkscape:path-effect
       effect="spiro"
       id="path-effect17939-8"
       is_visible="true"
       lpeversion="0" />
    <inkscape:path-effect
       effect="spiro"
       id="path-effect17935-8-7"
       is_visible="true"
       lpeversion="0" />
    <inkscape:path-effect
       effect="spiro"
       id="path-effect17939-6-0"
       is_visible="true"
       lpeversion="0" />
  </defs>
  <sodipodi:namedview
     pagecolor="#ffffff"
     bordercolor="#666666"
     borderopacity="1"
     objecttolerance="10"
     gridtolerance="10"
     guidetolerance="10"
     inkscape:pageopacity="0"
     inkscape:pageshadow="2"
     inkscape:window-width="917"
     inkscape:window-height="1030"
     id="namedview40"
     showgrid="false"
     inkscape:zoom="0.35355339"
     inkscape:cx="189.50462"
     inkscape:cy="390.32295"
     inkscape:window-x="15"
     inkscape:window-y="15"
     inkscape:window-maximized="1"
     inkscape:current-layer="svg38"
     showguides="true"
     inkscape:guide-bbox="true"
     inkscape:pagecheckerboard="false">
    <sodipodi:guide
       position="1168.2694,903.53661"
       orientation="0,-1"
       id="guide21593" />
    <sodipodi:guide
       position="0,512"
       orientation="-1,0"
       id="guide5809"
       inkscape:label=""
       inkscape:locked="false"
       inkscape:color="rgb(0,0,255)" />
    <sodipodi:guide
       position="512,512"
       orientation="0,1"
       id="guide5811"
       inkscape:label=""
       inkscape:locked="false"
       inkscape:color="rgb(0,0,255)" />
    <sodipodi:guide
       position="512,0"
       orientation="-1,0"
       id="guide5893"
       inkscape:label=""
       inkscape:locked="false"
       inkscape:color="rgb(0,0,255)" />
  </sodipodi:namedview>
  <g
     id="g944"
     transform="matrix(1.5909336,0,0,1.5909336,137.17766,16.504413)" />
  <g
     id="g9796"
     transform="matrix(0.23891477,0,0,0.23891477,625.13399,266.53249)">
    <rect
       style="fill:#ededed;fill-opacity:1;fill-rule:evenodd;stroke:none;stroke-width:6.32346;stroke-linejoin:round;stroke-miterlimit:4;stroke-dasharray:none;stroke-opacity:1"
       id="rect9548"
       width="39.66391"
       height="31.079102"
       x="-2101.1199"
       y="-2015.2122" />
    <g
       id="layer1"
       transform="matrix(0.25723106,0,0,0.31396669,-2301.5977,-2079.9899)">
      <path
         d="M 385.9536,567.38941 C 369.40089,550.95643 328.06953,518.92006 294.10617,496.19751 193.47543,428.87239 179.77956,419.12908 138.9214,385.79856 63.596802,324.35163 31.607686,262.61761 31.717306,178.91119 31.770793,138.04905 34.914607,122.30614 47.831239,98.220003 69.745291,57.355878 102.02578,26.990624 143.29636,8.4190463 c 29.23052,-13.1535454 43.64696,-18.9974493 92.45995,-19.2365303 51.06188,-0.249996 61.81101,5.0244571 91.84745,19.6431966 36.55947,17.7934944 74.18949,55.8212724 81.96813,82.8345094 l 4.8043,16.684308 11.84778,-22.978137 c 66.9511,-129.848232 280.70249,-127.905531 355.08908,3.227326 23.59752,41.599031 26.18823,130.423351 5.26335,180.457641 -27.2957,65.26787 -78.56362,115.02692 -197.07752,191.27757 -77.72344,50.00654 -165.68862,125.66761 -171.81212,136.29429 -7.10831,12.33569 -0.33905,1.93315 -31.73316,-29.23381 z"
         id="path2417"
         style="fill:#ff3abc;fill-opacity:0.451858;stroke:#ededed;stroke-width:39.7989;stroke-miterlimit:4;stroke-dasharray:none;stroke-opacity:1" />
      <g
         transform="translate(129.28571,-64.285714)"
         id="g2221" />
    </g>
    <g
       id="g9722"
       transform="matrix(0.25723106,0,0,0.31396669,-2054.9967,-2079.9899)">
      <path
         d="M 318.76929,567.38941 C 302.21657,550.95643 260.88521,518.92006 226.92185,496.19751 126.29111,428.87239 112.59525,419.12908 71.737089,385.79856 -3.5875132,324.35163 -35.576629,262.61761 -35.467009,178.91119 c 0.05348,-40.86214 3.197301,-56.60505 16.113933,-80.691187 C 2.5609766,57.355878 34.841462,26.990624 76.112051,8.4190463 105.34256,-4.7344991 119.75901,-10.578403 168.57199,-10.817484 219.63388,-11.06748 230.383,-5.7930269 260.41944,8.8257126 296.97892,26.619207 334.60893,64.646985 342.38758,91.660222 l 4.8043,16.684308 11.84778,-22.978137 c 66.95109,-129.848232 280.70248,-127.905531 355.08907,3.227326 23.59752,41.599031 26.18823,130.423351 5.26336,180.457641 -27.29571,65.26787 -78.56362,115.02692 -197.07753,191.27757 -77.72343,50.00654 -165.68862,125.66761 -171.81212,136.29429 -7.10831,12.33569 -0.33905,1.93315 -31.73315,-29.23381 z"
         id="path9718"
         style="fill:#ff3abc;fill-opacity:0.451858;stroke:#ededed;stroke-width:39.7989;stroke-miterlimit:4;stroke-dasharray:none;stroke-opacity:1" />
      <g
         transform="translate(129.28571,-64.285714)"
         id="g9720" />
    </g>
  </g>
  <g
     id="g1194"
     transform="matrix(-0.97117578,-1.172017,1.1726956,-0.97199521,306.19597,329.17225)"
     inkscape:path-effect="#path-effect1198">
    <path
       style="fill:#cc584c"
       d="m 67.443833,37.101412 c -1.940213,-2.159995 -7.026808,-1.200445 -12.633817,2.338823 -3.828295,2.556826 -9.70197,13.322146 -10.24644,15.813824 -0.541678,2.478899 4.422503,2.048158 5.466837,1.497836 1.659914,-0.873336 6.166463,-7.70416 6.621939,-8.393846 0.457311,-0.691976 3.737458,-0.646977 6.251636,-1.081263 0.606819,-2.584124 3.587119,-8.741024 4.539845,-10.175374 z"
       id="path1170"
       inkscape:original-d="m 66.229,40.395 c -1.971,-2.472 -7.503,-1.295 -13.833,2.94 -4.399,3.104 -11.73,16.229 -12.525,19.29 -0.795,3.061 4.902,2.307 6.121,1.59 1.929,-1.133 7.375,-9.52 7.919,-10.357 0.545,-0.838 4.149,-0.883 6.917,-1.471 0.793,-3.061 4.313,-10.315 5.401,-11.992 z" />
    <path
       style="fill:#cc584c"
       d="m 88.743306,49.80476 c 3.015123,0.773677 4.300965,5.624975 3.2132,12.06 -0.888813,4.477523 -9.175527,14.179735 -11.439646,15.682727 -2.250597,1.493854 -3.941783,-3.151832 -3.840178,-4.307437 0.161949,-1.837325 5.026635,-8.625749 5.519283,-9.3132 0.49375,-0.6881 -0.962788,-3.555314 -1.60818,-5.932355 2.301519,-1.604195 7.139944,-6.761984 8.155521,-8.189735 z"
       id="path1172"
       inkscape:original-d="m 88.034,54.557 c 3.062,0.794 4.237,6.327 2.94,13.832 -1.048,5.282 -10.056,17.318 -12.526,19.289 -2.474,1.974 -4.101,-3.539 -3.943,-4.942 0.251,-2.225 5.697,-10.609 6.242,-11.448 0.545,-0.838 -0.882,-4.149 -1.472,-6.916 2.474,-1.975 7.67,-8.139 8.759,-9.815 z" />
    <path
       style="fill:#e6e6e6"
       d="M 107.44826,0.58878917 C 104.77661,-0.88848379 88.007724,0.83766074 76.220665,18.696588 66.933234,32.773849 62.108691,46.796749 61.969562,48.671704 c 2.379333,1.446068 8.762043,5.320518 8.762043,5.320518 0,0 6.443828,3.91184 8.875726,5.388717 1.799396,-0.894857 14.215162,-11.684656 23.741089,-24.977613 12.74899,-17.800839 6.77643,-32.3305262 4.09984,-33.81453683 z"
       id="path1174"
       inkscape:original-d="M 107.633,0.51 C 105.115,-1.124 88.768,0.184 76.238,19.473 65.89,35.409 59.987,51.843 59.736,54.065 c 2.517,1.636 9.226,5.991 9.226,5.991 0,0 6.71,4.356 9.226,5.99 1.93,-1.132 15.086,-14.05 24.892,-29.146 12.524,-19.291 7.066,-34.755 4.553,-36.39 z" />
    <circle
       style="fill:#263740"
       cx="91.292"
       cy="25.67"
       r="10"
       id="circle1176"
       d="m 101.31503,24.17684 c 0.1062,5.038856 -4.332119,9.062511 -9.849922,9.018694 -5.449769,-0.04328 -9.956092,-4.047552 -10.126715,-8.974021 -0.171772,-4.959633 4.1075,-9.060223 9.621059,-9.129392 5.583245,-0.07004 10.248648,4.011164 10.355578,9.084719 z" />
    <path
       style="fill:#c2e2f2"
       d="m 88.097434,28.730631 c -2.784172,-1.621564 -3.670846,-4.958997 -1.974955,-7.467137 1.712553,-2.526929 5.409455,-3.2804 8.249278,-1.658999 2.845456,1.630834 3.727694,5.026395 1.969017,7.551656 -1.749559,2.505462 -5.443026,3.200812 -8.24334,1.57448 z"
       id="path1178"
       inkscape:original-d="m 88.023,30.702 c -2.773,-1.804 -3.565,-5.525 -1.765,-8.3 1.804,-2.775 5.524,-3.566 8.302,-1.766 2.772,1.803 3.563,5.524 1.764,8.301 -1.803,2.776 -5.523,3.567 -8.301,1.765 z" />
    <path
       style="fill:#cc584c"
       d="m 100.81896,10.229268 c 3.22101,1.812912 6.74585,2.880731 10.33035,3.26 0.26862,-7.2545008 -2.22183,-12.0806753 -3.70109,-12.90333462 -1.48134,-0.81602319 -7.34956,-0.64167126 -14.328707,2.78588602 1.9126,2.6911895 4.493187,5.0519219 7.699447,6.8574486 z"
       id="path1180"
       inkscape:original-d="m 101.096,10.574 c 3.08,2 6.449,3.199 9.863,3.658 0.352,-7.678 -1.936,-12.818 -3.326,-13.725 -1.395,-0.902 -7.021,-0.9 -13.892,2.542 1.808,2.933 4.275,5.524 7.355,7.525 z" />
    <g
       id="g1184">
      <path
         style="fill:#cc584c"
         d="m 78.297784,64.498204 c -0.534977,0.75172 -1.694895,0.921764 -2.578962,0.380172 L 58.282529,54.191414 c -0.860733,-0.52891 -1.154284,-1.576199 -0.652462,-2.331475 l 1.836526,-2.759413 c 0.508276,-0.762679 1.634363,-0.957849 2.50572,-0.428749 l 17.635049,10.710012 c 0.895272,0.543622 1.183994,1.610351 0.645027,2.372203 z"
         id="path1182"
         inkscape:original-d="m 76.598,72.167 c -0.6,0.923 -1.845,1.188 -2.768,0.589 L 55.38,60.776 C 54.457,60.175 54.192,58.93 54.791,58.007 l 2.18,-3.354 c 0.6,-0.922 1.844,-1.188 2.768,-0.588 l 18.449,11.982 c 0.924,0.6 1.188,1.844 0.59,2.769 z" />
    </g>
    <path
       style="fill:#bf5347"
       d="m 64.856235,54.333963 c -0.514588,0.759137 -1.142667,1.719188 -1.792791,2.786576 l 8.584939,5.262483 c 0.775591,-1.000994 1.453005,-1.941216 1.982302,-2.698 0.53056,-0.758589 1.179714,-1.724326 1.857416,-2.803865 L 66.806735,51.60818 c -0.768591,1.017016 -1.435615,1.964818 -1.9505,2.725783 z"
       id="path1186"
       inkscape:original-d="m 62.59,60.688 c -0.6,0.925 -1.336,2.097 -2.104,3.402 l 9.079,5.896 c 0.881,-1.233 1.651,-2.385 2.252,-3.309 0.601,-0.924 1.336,-2.096 2.104,-3.4 l -9.077,-5.896 c -0.883,1.232 -1.655,2.382 -2.254,3.307 z" />
    <path
       style="fill:#ffd464"
       d="m 59.848987,55.14997 c -5.508765,8.199063 -11.877153,24.463703 -7.919894,26.982542 3.978854,2.533583 17.2234,-9.573397 22.987988,-17.747063 z"
       id="path1188"
       inkscape:original-d="M 57.057,61.863 C 50.44,72.051 42.108,92.694 46.508,95.551 50.906,98.408 66.374,82.403 72.992,72.21 Z" />
    <path
       style="fill:#f2b255"
       d="m 61.419155,56.112418 c -5.53515,8.196113 -7.353895,16.303384 -4.176798,18.299531 3.193011,2.00642 10.335759,-2.83535 16.072319,-11.007358 z"
       id="path1190"
       inkscape:original-d="m 58.734,62.952 c -6.617,10.188 -9.165,20.28 -5.692,22.535 3.474,2.256 11.655,-4.178 18.272,-14.365 z" />
    <ellipse
       transform="matrix(-0.8387,-0.5446,0.5446,-0.8387,88.9017,153.7037)"
       style="fill:#cc584c"
       cx="67.212997"
       cy="63.687"
       rx="3.5"
       ry="16.999001"
       id="ellipse1192"
       d="m 72.415329,70.302053 c -0.179862,7.906531 -1.814656,14.490466 -3.651887,14.558735 -1.841459,0.06843 -3.13301,-6.433751 -2.885539,-14.374868 0.242509,-7.78193 1.876865,-14.004843 3.651235,-14.039287 1.770441,-0.03437 3.062461,6.106744 2.886191,13.85542 z" />
  </g>
  <path
     d="m 180.41771,204.64206 c 0,0 7.22052,-4.19073 11.26967,-6.00294 l 62.97418,23.16227 101.85169,2.74663 c 0,0 7.64524,7.9284 9.9105,10.64671 l 18.49017,53.06368 14.92239,5.97462 c 0,0 3.42621,10.25029 4.38894,14.12955 l -3.08641,24.46479 -147.63822,36.61224 -118.55797,-29.08025 0.3681,-72.8847 36.24414,-47.20232 z"
     style="fill:#2f2f2f;stroke-width:1"
     id="path2"
     inkscape:connector-curvature="0" />
  <g
     id="g12"
     style="stroke-width:0.353161"
     transform="matrix(2.8315731,0,0,2.8315731,66.871633,97.523647)">
    <path
       d="m 73.14,59.57 c -0.1,5.06 -0.38,19.6 -0.28,28.04 1.67,0.04 3.5,-0.05 5.52,-0.26 2.7,-0.27 5.52,-0.81 8.24,-1.33 l 1.73,-0.33 c 2.79,-0.53 5.37,-1.19 7.89,-2.02 3.89,-1.28 8.19,-2.93 12.07,-5.32 -2.85,-9.93 -7.96,-17.38 -9.6,-19.61 -11,-0.87 -21.54,0.29 -25.57,0.83 z"
       style="fill:#757f3f;stroke-width:0.353161"
       id="path4"
       inkscape:connector-curvature="0" />
    <path
       d="m 102.38,56.52 c 1.95,2.67 6.63,9.73 9.61,19.22 2.18,-1.81 4.06,-3.97 5.5,-6.52 -1.34,-3.73 -2.96,-7.35 -4.9,-10.8 -1.95,-3.46 -4.22,-6.77 -6.79,-9.81 -0.95,3.11 -2.46,6.15 -3.42,7.91 z"
       style="fill:#757f3f;stroke-width:0.353161"
       id="path6"
       inkscape:connector-curvature="0" />
    <path
       d="m 45.2,42.69 c 4.26,1.63 18.85,7.43 26.39,12.78 3.25,-0.48 14.69,-1.96 27.04,-1.02 1.6,-2.95 3.28,-6.91 3.65,-9.6 C 102.13,44.7 102,44.54 101.85,44.4 96.72,39.58 90.22,36.93 83.66,34.71 74.5,31.61 64.53,30.52 54.98,32.23 c -3.78,0.68 -7.43,1.85 -10.9,3.48 z"
       style="fill:#757f3f;stroke-width:0.353161"
       id="path8"
       inkscape:connector-curvature="0" />
    <path
       d="m 119.11,74.49 c -1.99,2.55 -4.4,4.67 -6.98,6.43 -0.05,0.04 -0.11,0.07 -0.15,0.11 -4.74,3.2 -10.03,5.26 -14.4,6.69 -2.7,0.89 -5.45,1.6 -8.43,2.16 l -1.73,0.33 c -2.82,0.54 -5.72,1.1 -8.61,1.4 -1.7,0.17 -3.46,0.31 -5.23,0.31 -5.28,0 -10.58,-1.24 -14.45,-6.53 -1.56,-2.15 -3.3,-3.96 -5.15,-5.38 l -0.77,-0.6 c -1.17,-0.93 -3.36,-2.67 -4.49,-2.7 l 0.11,-4.27 c 2.56,0.07 5.15,2.12 7.04,3.62 l 0.7,0.55 c 2.17,1.66 4.2,3.76 6.01,6.25 1.63,2.23 3.62,3.5 6.01,4.17 -0.08,-9.02 0.21,-24.02 0.3,-28.24 -7.32,-5.13 -22.04,-10.92 -25.55,-12.26 -1.38,0.85 -4.94,3.81 -9.13,8.08 -0.42,0.43 -0.98,0.64 -1.53,0.64 -0.54,0 -1.08,-0.2 -1.49,-0.61 -0.84,-0.82 -0.86,-2.17 -0.03,-3.02 2.65,-2.69 6.85,-6.76 9.79,-8.58 L 40.1,37.82 c -7.16,4.28 -14.23,10.92 -18.48,18.64 -4.26,7.71 -5.7,16.48 -1.64,24.97 1.33,2.75 4,7.37 6.68,8.97 2.37,1.42 4.88,2.63 7.44,3.69 2.27,0.94 4.19,2.12 6.52,2.8 2.08,0.62 4.23,1.29 6.34,1.76 2.13,0.48 4.34,0.63 6.48,1.03 1.9,0.35 3.82,0.67 5.74,0.7 9.85,0.13 19.81,0.65 29.48,-1.69 5.88,-1.42 11.71,-3.19 17.24,-5.63 2.8,-1.22 5.53,-2.62 8.1,-4.26 2.09,-1.32 4.84,-2.62 5.93,-4.98 1.15,-2.49 0.17,-5.5 -0.44,-8.02 -0.11,-0.42 -0.26,-0.87 -0.38,-1.31 z"
       style="fill:#757f3f;stroke-width:0.353161"
       id="path10"
       inkscape:connector-curvature="0" />
  </g>
  <path
     id="rect21530"
     style="fill:#ffffff;fill-opacity:1;fill-rule:evenodd;stroke:none;stroke-width:3"
     d="m 58.548586,237.35 137.506704,-10.13566 22.3364,90.6164 -146.95209,45.0888 C 54.26243,322.00652 59.500528,279.45155 58.548586,237.35 Z"
     sodipodi:nodetypes="ccccc" />
  <g
     id="g32"
     style="stroke-width:0.353161"
     transform="matrix(2.8315731,0,0,2.8315731,66.871633,97.523647)">
    <path
       d="m 29.95,98.37 c -0.98,-0.58 -2.38,-0.78 -4.28,-1.05 -2.5,-0.35 -5.22,-1.05 -7.72,-0.6 -2.15,0.39 -2.38,0.94 -3.08,2.93 -1.09,3.13 -4.26,12.51 -1.8,15.47 0.61,0.73 2.03,0.99 2.9,1.25 2.51,0.76 5.18,0.93 7.82,1.11 2.25,0.15 4.47,-0.26 6.62,-0.86 1.61,-0.45 2.32,-0.83 2.45,-2.61 0.29,-3.8 -0.56,-7.55 -0.9,-11.32 -0.24,-2.44 -0.84,-3.64 -2.01,-4.32 z"
       style="fill:#bdcf46;stroke-width:0.353161"
       id="path14"
       inkscape:connector-curvature="0" />
    <g
       id="g20"
       style="stroke-width:0.353161">
      <path
         d="m 116.78,87.1 c -0.93,0.62 -1.92,1.17 -2.79,1.72 -2.57,1.63 -5.3,3.03 -8.1,4.26 -5.53,2.44 -11.36,4.21 -17.24,5.63 -9.67,2.34 -19.63,1.82 -29.48,1.69 -1.93,-0.03 -3.85,-0.35 -5.74,-0.7 -0.53,-0.1 -1.05,-0.18 -1.58,-0.26 l 0.52,5.55 c 0,0 1.88,0.14 5.24,-0.07 -0.65,6.43 -0.86,13.37 0.78,14.69 0.74,0.6 2.31,0.71 3.27,0.87 2.82,0.47 5.74,0.4 8.64,0.35 2.47,-0.04 4.85,-0.58 7.13,-1.28 1.71,-0.52 2.45,-0.9 2.42,-2.47 -0.03,-2.01 -0.71,-8.47 -1.4,-14 6.34,-0.83 14.15,-2.4 21.21,-5.33 0.1,2.22 0.19,4.12 0.18,4.51 -0.06,1.53 -0.08,3.62 1.27,4.8 3.76,3.31 13.07,1.38 17.39,-0.06 3.22,-1.06 2.23,-4.81 1.59,-7 -0.37,-1.31 -1.86,-8.13 -3.31,-12.9 z"
         style="fill:#bdcf46;stroke-width:0.353161"
         id="path16"
         inkscape:connector-curvature="0" />
      <path
         d="m 127.07,64.28 c -1.68,-1.58 -4.44,0.46 -5.98,1.28 -1.38,0.74 -2.75,1.47 -4.15,2.16 1.01,2.65 1.89,5.35 2.55,8.11 0.3,1.23 0.68,2.58 0.87,3.93 0.05,-0.06 0.1,-0.12 0.15,-0.17 0.51,-0.58 0.97,-1.17 1.42,-1.8 1.75,-2.48 3.08,-5.22 4.51,-7.88 0.69,-1.33 1.96,-4.37 0.63,-5.63 z"
         style="fill:#bdcf46;stroke-width:0.353161"
         id="path18"
         inkscape:connector-curvature="0" />
    </g>
    <g
       id="g30"
       style="stroke-width:0.353161">
      <path
         d="m 52.38,104.99 c -1.13,0.04 -2.27,0.03 -3.44,0.03 -8.33,0 -16.27,-0.22 -24.47,-2.08 C 12.02,100.13 2.32,92.68 0.63,79.36 -0.41,71.15 1.25,61.42 7.59,55.67 c 5.95,-5.4 16.65,-6.89 23.98,-4.4 8.54,2.92 14.76,9.94 18.31,18.04 2.73,6.24 4.58,11.84 5.73,18.57 0.17,1.03 2.06,16.6 -0.15,16.89 -1.02,0.12 -2.05,0.19 -3.08,0.22 z"
         style="fill:#bdcf46;stroke-width:0.353161"
         id="path22"
         inkscape:connector-curvature="0" />
      <path
         d="m 30.25,63.47 c 2.46,-0.44 4.87,1.46 5.38,4.26 0.51,2.79 -1.07,5.43 -3.53,5.88 -2.45,0.44 -4.86,-1.46 -5.38,-4.25 -0.51,-2.8 1.07,-5.43 3.53,-5.89 z"
         style="fill:#2f2f2f;stroke-width:0.353161"
         id="path24"
         inkscape:connector-curvature="0" />
      <path
         d="m 7.74,67.17 c 0.7,-2.75 3.25,-4.48 5.66,-3.86 2.42,0.62 3.81,3.36 3.11,6.11 -0.71,2.75 -3.24,4.48 -5.66,3.86 C 8.44,72.65 7.04,69.92 7.74,67.17 Z"
         style="fill:#2f2f2f;stroke-width:0.353161"
         id="path26"
         inkscape:connector-curvature="0" />
      <path
         d="m 23.8,79.29 c -1.14,0.62 -2.12,1.28 -3.45,0.79 -0.77,-0.28 -1.5,-0.5 -2.17,-1 -0.48,-0.35 -1.02,-0.64 -1.5,-0.99 -0.25,-0.18 -0.49,-0.37 -0.74,-0.55 -0.28,-0.21 -0.38,-0.3 -0.74,-0.35 -0.29,-0.03 -0.86,-0.05 -1.08,0.19 -0.94,1.05 0.38,2.61 1.09,3.32 1.06,1.03 2.57,2.2 3.96,2.8 1.36,0.59 2.71,1.3 4.16,0.58 1.59,-0.8 2.97,-1.96 4.37,-3.03 0.92,-0.7 2.98,-1.93 2.62,-3.3 -0.25,-1 -1.41,-0.79 -2.17,-0.55 -0.96,0.29 -1.82,0.78 -2.71,1.23 -0.55,0.27 -1.09,0.57 -1.64,0.86 z"
         style="fill:#2f2f2f;stroke-width:0.353161"
         id="path28"
         inkscape:connector-curvature="0" />
    </g>
  </g>
  <g
     id="g29542"
     transform="matrix(-1.2086494,-1.4586007,1.4594452,-1.2096692,370.16782,400.86227)"
     inkscape:path-effect="#path-effect989">
    <path
       style="fill:#cc584c"
       d="m 65.687677,39.104884 c -1.859398,-2.345714 -6.760039,-1.586118 -12.103039,1.807997 -3.603967,2.43388 -8.932489,12.96714 -9.388199,15.401198 -0.450356,2.405454 4.127139,2.254694 5.086979,1.771008 1.530069,-0.769679 5.683533,-7.330017 6.108212,-8.000076 0.427305,-0.673706 3.526131,-0.458236 5.907659,-0.76678 0.581964,-2.592679 3.460806,-8.770254 4.388388,-10.213347 z"
       id="path29518"
       inkscape:original-d="m 66.229,40.395 c -1.971,-2.472 -7.503,-1.295 -13.833,2.94 -4.399,3.104 -11.73,16.229 -12.525,19.29 -0.795,3.061 4.902,2.307 6.121,1.59 1.929,-1.133 7.375,-9.52 7.919,-10.357 0.545,-0.838 4.149,-0.883 6.917,-1.471 0.793,-3.061 4.313,-10.315 5.401,-11.992 z" />
    <path
       style="fill:#cc584c"
       d="m 85.99161,53.246791 c 2.888268,0.947925 3.946281,5.907497 2.663696,12.237079 -1.004521,4.332324 -9.069962,13.145336 -11.205745,14.424741 -2.111277,1.264574 -3.59156,-3.228417 -3.477315,-4.321145 0.182713,-1.74399 4.879033,-8.009333 5.360166,-8.651197 0.483221,-0.64381 -0.825265,-3.542975 -1.382406,-5.928091 2.228637,-1.463972 7.014891,-6.370628 8.041604,-7.761387 z"
       id="path29520"
       inkscape:original-d="m 88.034,54.557 c 3.062,0.794 4.237,6.327 2.94,13.832 -1.048,5.282 -10.056,17.318 -12.526,19.289 -2.474,1.974 -4.101,-3.539 -3.943,-4.942 0.251,-2.225 5.697,-10.609 6.242,-11.448 0.545,-0.838 -0.882,-4.149 -1.472,-6.916 2.474,-1.975 7.67,-8.139 8.759,-9.815 z" />
    <path
       style="fill:#e6e6e6"
       d="M 107.22294,0.56660366 C 104.51207,-1.2474498 86.980497,0.19821747 74.534653,19.848172 65.224597,34.553058 60.545568,48.791065 60.412592,50.678358 c 2.248272,1.580826 8.260792,5.80366 8.260792,5.80366 0,0 6.042724,4.244339 8.316123,5.8417 1.726709,-0.782392 14.004653,-10.951475 24.019543,-24.31245 14.1044,-18.827268 8.925,-35.6256064 6.21389,-37.44466434 z"
       id="path29522"
       inkscape:original-d="M 107.633,0.51 C 105.115,-1.124 88.768,0.184 76.238,19.473 65.89,35.409 59.987,51.843 59.736,54.065 c 2.517,1.636 9.226,5.991 9.226,5.991 0,0 6.71,4.356 9.226,5.99 1.93,-1.132 15.086,-14.05 24.892,-29.146 12.524,-19.291 7.066,-34.755 4.553,-36.39 z" />
    <circle
       style="fill:#263740"
       cx="91.292"
       cy="25.67"
       r="10"
       id="circle29524"
       d="m 99.513627,26.91306 c -0.157942,5.461861 -4.790094,9.553811 -10.263266,9.243013 -5.380666,-0.305545 -9.709514,-4.772938 -9.751254,-10.075582 -0.04257,-5.407938 4.37362,-9.756293 9.952459,-9.612043 5.678315,0.146822 10.223241,4.870798 10.062061,10.444612 z" />
    <path
       style="fill:#c2e2f2"
       d="m 86.074582,31.238389 c -2.711043,-1.867228 -3.491141,-5.510211 -1.718993,-8.166728 1.804121,-2.698314 5.559954,-3.375269 8.361696,-1.468748 2.801839,1.91361 3.529116,5.661427 1.643432,8.318526 -1.860243,2.61447 -5.564281,3.186552 -8.286135,1.31695 z"
       id="path29526"
       inkscape:original-d="m 88.023,30.702 c -2.773,-1.804 -3.565,-5.525 -1.765,-8.3 1.804,-2.775 5.524,-3.566 8.302,-1.766 2.772,1.803 3.563,5.524 1.764,8.301 -1.803,2.776 -5.523,3.567 -8.301,1.765 z" />
    <path
       style="fill:#cc584c"
       d="m 99.753905,11.398539 c 3.215295,2.173296 6.784325,3.516198 10.463015,4.086922 0.78224,-8.2440231 -1.4951,-13.9135698 -2.99384,-14.9221871 -1.50273,-1.00187674 -7.656273,-0.99554209 -15.070836,2.7305262 1.850722,3.1518821 4.39459,5.9359295 7.601661,8.1047389 z"
       id="path29528"
       inkscape:original-d="m 101.096,10.574 c 3.08,2 6.449,3.199 9.863,3.658 0.352,-7.678 -1.936,-12.818 -3.326,-13.725 -1.395,-0.902 -7.021,-0.9 -13.892,2.542 1.808,2.933 4.275,5.524 7.355,7.525 z" />
    <g
       id="g29532">
      <path
         style="fill:#cc584c"
         d="m 75.64853,67.265395 c -0.51704,0.700001 -1.608249,0.797074 -2.427794,0.219015 L 56.951144,56.003618 C 56.142738,55.431818 55.862408,54.374 56.329489,53.647546 l 1.718716,-2.668404 c 0.478274,-0.74152 1.542681,-0.879681 2.36699,-0.300567 l 16.574324,11.645984 c 0.835945,0.58729 1.085023,1.654218 0.558324,2.371604 z"
         id="path29530"
         inkscape:original-d="m 76.598,72.167 c -0.6,0.923 -1.845,1.188 -2.768,0.589 L 55.38,60.776 C 54.457,60.175 54.192,58.93 54.791,58.007 l 2.18,-3.354 c 0.6,-0.922 1.844,-1.188 2.768,-0.588 l 18.449,11.982 c 0.924,0.6 1.188,1.844 0.59,2.769 z" />
    </g>
    <path
       style="fill:#bf5347"
       d="m 63.124152,56.502063 c -0.48695,0.726181 -1.079836,1.643363 -1.691828,2.662587 l 8.008418,5.651857 c 0.740008,-0.934766 1.389162,-1.818385 1.898022,-2.532399 0.511274,-0.717402 1.13907,-1.634634 1.797665,-2.665873 l -8.157061,-5.732239 c -0.732629,0.976494 -1.366832,1.886372 -1.855216,2.616067 z"
       id="path29534"
       inkscape:original-d="m 62.59,60.688 c -0.6,0.925 -1.336,2.097 -2.104,3.402 l 9.079,5.896 c 0.881,-1.233 1.651,-2.385 2.252,-3.309 0.601,-0.924 1.336,-2.096 2.104,-3.4 l -9.077,-5.896 c -0.883,1.232 -1.655,2.382 -2.254,3.307 z" />
    <path
       style="fill:#ffd464"
       d="M 58.421078,57.039358 C 53.341614,64.765511 47.727394,79.816297 51.321139,82.396517 54.92381,84.98406 67.014002,74.480609 72.477092,66.958146 Z"
       id="path29536"
       inkscape:original-d="M 57.057,61.863 C 50.44,72.051 42.108,92.694 46.508,95.551 50.906,98.408 66.374,82.403 72.992,72.21 Z" />
    <path
       style="fill:#f2b255"
       d="m 59.892848,58.077995 c -5.119374,7.704552 -6.727954,15.357333 -3.815824,17.435968 2.919871,2.084417 9.490756,-2.064426 14.912437,-9.604318 z"
       id="path29538"
       inkscape:original-d="m 58.734,62.952 c -6.617,10.188 -9.165,20.28 -5.692,22.535 3.474,2.256 11.655,-4.178 18.272,-14.365 z" />
    <ellipse
       transform="matrix(-0.8387,-0.5446,0.5446,-0.8387,88.9017,153.7037)"
       style="fill:#cc584c"
       cx="67.212997"
       cy="63.687"
       rx="3.5"
       ry="16.999001"
       id="ellipse29540"
       d="m 72.725335,67.418911 c -0.154429,7.617994 -1.766112,13.978049 -3.595958,13.917745 -1.832057,-0.06038 -3.07815,-6.528416 -2.792053,-14.15787 0.274798,-7.328126 1.871462,-13.001784 3.574188,-12.930441 1.700815,0.07126 2.962166,5.852827 2.813823,13.170566 z" />
  </g>
  <g
     id="g1384"
     inkscape:export-ydpi="46.290001"
     inkscape:export-xdpi="46.290001"
     transform="matrix(0.7379899,0,0,0.7379899,-190.65256,53.872802)">
    <path
       id="path1378"
       d="m 1.7188,0.21875 c -1.6565,4.222 -0.88405,10.007 1.2812,14 4.4323,1.677 5.666,-5.7173 7.844,-8.0628 C 10.01,3.05935 5.4607,1.26575 2.5,-0.12525 L 1.7188,0.2185 Z"
       style="color:#000000;fill:#ffffff"
       transform="matrix(0.71429,0,0,0.71429,348.82,422.93)"
       inkscape:connector-curvature="0" />
    <path
       id="path1382"
       d="m 7.9688,0.9375 c -3.8495,2.9421 -6.4438,8.2547 -7.1875,13 2.4425,2.5662 6.8128,-1.4828 9.9375,-1.25 5.8847,-2.1538 13.671,-2.0491 18.469,-5.5 -2.998,-3.6082 -9.422,-3.105 -13.657,-4.9342 -2.496,-0.4791 -5.013,-1.2797 -7.5622,-1.3158 z"
       style="color:#000000;fill:#ffffff"
       transform="matrix(0.71429,0,0,0.71429,383.1,439.36)"
       inkscape:connector-curvature="0" />
    <path
       id="path1380"
       d="M 8,1 C 4.557,4.84 1.1686,9.993 0.3438,15.125 c 13.337,6.769 27.908,11.779 41.718,17.844 4.122,-2.594 4.971,-9.617 7.876,-13.813 -3.28,-4.363 -11.165,-5.167 -16.228,-8.135 C 25.1688,7.7928 16.7918,3.1522 7.9998,1 Z"
       style="color:#000000;fill:#ffffff"
       transform="matrix(0.71429,0,0,0.71429,351.68,426.5)"
       inkscape:connector-curvature="0" />
    <path
       id="path1374"
       d="M 6.1562,0.75 C -2.098,-1.0225 1.5067,7.8327 1.4687,12.656 c 1.6821,15 5.285,30.228 12.719,43.375 2.4815,2.4902 8.9958,0.87569 6.4987,-3.482 C 16.8504,35.362 14.3994,17.714 11.3124,0.531 9.6503,0.18027 7.8529,0.74559 6.1566,0.75 Z"
       style="color:#000000;fill:#ffffff"
       transform="matrix(0.71429,0,0,0.71429,323.82,347.93)"
       inkscape:connector-curvature="0" />
    <path
       id="path1372"
       d="m 292.78,-0.03125 c -3.4931,3.0494 0.0717,8.849 -0.71875,12.875 0.4291,26.748 1.1137,53.845 -2.8318,80.316 -2.9224,13.937 -4.155,29.63 -15.481,39.496 -22.931,25.554 -55.158,42.062 -89.208,46.833 -34.402,4.371 -70.297,3.1542 -103.57,-7.0205 -22.406,-7.3545 -44.508,-20.575 -56.5,-41.312 -7.757,-16.95 -8.121,-36.262 -10.893,-54.498 -2.035,-12.478 -0.982,-25.446 -3.7958,-37.724 -3.4864,-2.753 -3.5199,4.289 -3.7812,6.281 0.2232,8.2856 -3.5483,15.716 -4.4375,23.75 2.1257,22.492 6.2047,45.046 12.875,66.656 12.344,23.275 36.458,37.928 60.656,46.562 40.339,12.987 84.432,14.232 125.66,4.5593 31.394,-7.4887 60.714,-23.712 83.021,-47.209 10.711,-22.83 16.956,-48.043 18.848,-73.256 0.0681,-7.0603 -4.3866,-13.062 -3.346,-20.279 0.0699,-11.07 -1.5685,-22.721 0.25229,-33.502 2.4991,-1.378 5.7156,-6.5867 1.0312,-7.25 -4.95,1.4858 -3.82,-5.023 -7.77,-5.2842 z"
       style="color:#000000;fill:#ffffff"
       transform="matrix(0.71429,0,0,0.71429,331.68,299.36)"
       inkscape:connector-curvature="0" />
    <path
       id="path1366"
       d="m 1.2188,0.84375 c -2.8221,2.5735 1.416,7.0019 1.281,10.249 4.7243,16.52 5.4206,33.96 3.969,50.938 5.16,5.7978 13.851,7.2195 20.068,11.858 7.2485,3.3528 12.667,10.226 20.339,12.392 3.9529,-2.2968 9.6316,-0.97322 13.688,0.6875 7.2421,5.5216 6.1628,16.182 7.625,24.25 1.155,9.5157 0.81473,19.41 2.5312,28.719 3.2667,-0.46736 11.005,2.3746 11.406,-3 0.60395,-9.0159 -5.5649,-16.431 -5.0443,-25.372 -2.172,-18.853 -6.124,-37.789 -12.77,-55.56 -13.135,-25.109 -35.646,-45.505 -62.25,-55.219 C 1.7804,0.80126 1.4923,0.74637 1.2185,0.849 Z"
       style="color:#000000;fill:#ffffff"
       transform="matrix(0.71429,0,0,0.71429,499.53,200.07)"
       inkscape:connector-curvature="0" />
    <path
       id="path1370"
       d="M 143.59,1.25 C 106.06,2.1862 66.821,8.4146 34.91,29.188 25.85,35.037 16.867,42.352 14.376,53.45 9.1552,66.857 9.857,81.518 6.4375,95.219 c -0.67167,2.696 -4.6152,-0.05057 -5,3.4688 -1.7959,4.0179 4.5484,5.0488 3.2812,9.0938 0.9395,7.79 -1.2652,16.33 1.4063,23.72 4.1,1.35 3.5999,-5.68 3.875,-8.12 2.375,-24.071 6.165,-48.618 14.5,-71.255 9.326,-13.354 25.39,-20.319 40.484,-25.46 43.596,-13.145 90.606,-13.725 135.4,-6.634 24.629,4.4431 49.049,12.236 70.344,25.531 8.21,7.4529 9.8396,19.522 13.625,29.531 2.2992,5.6671 2.1676,13.253 6.4062,17.844 4.2608,-1.0296 1.8671,-7.5089 2.0625,-10.719 -1.97,-12.593 -3.45,-26.127 -10.35,-37.062 -17.64,-19.283 -43.17,-29.465 -67.88,-36.344 -23.2,-5.5969 -47.14,-7.8609 -71,-7.562 z"
       style="color:#000000;fill:#ffffff"
       transform="matrix(0.71429,0,0,0.71429,333.1,233.64)"
       inkscape:connector-curvature="0" />
    <path
       id="path1368"
       d="M 69,0 C 46.316,11.655 27.11,31.054 15.973,54.072 8.7109,72.888 4.129,92.963 3.25,113.09 c -2.5892,6.53 -2.9277,13.97 -1.9375,20.79 7.1697,2.2431 11.763,-1.1046 10.195,-8.7609 1.6428,-14.057 0.65521,-28.963 6.1175,-42.177 3.5761,-5.8848 11.276,-6.0799 17.281,-4.5 7.996,-3.552 14.562,-10.096 22.367,-14.047 3.061,-2.942 10.763,-3.222 9.039,-9.02 -2.74,-18.18 1.044,-36.312 4.782,-54 C 70.959,0.3534 69.97,-0.2028 69,1e-4 Z"
       style="color:#000000;fill:#ffffff"
       transform="matrix(0.71429,0,0,0.71429,323.82,204.36)"
       inkscape:connector-curvature="0" />
    <path
       id="path1364"
       d="M 78.562,1.4688 C 54.889,2.0191 30.601,5.0047 8.906,14.6878 c -5.2737,6.33 -6.3824,15.411 -7.4372,23.343 -0.59721,12.857 -0.18699,26.029 1.125,38.688 15.945,-4.5063 32.683,-8.593 49.375,-10.281 25.879,-1.1203 52.171,-1.9585 77.781,2.0938 9.6114,1.5637 19.241,4.0878 28.594,6.1562 4.1789,-3.3289 1.8864,-10.218 2.8342,-14.937 0.3,-15.56 1.68,-32.484 -6.58,-46.345 -6.86,-5.286 -16.63,-5.1804 -24.84,-7.4685 C 112.908,2.7677 95.748,1.1901 78.57,1.4686 Z"
       style="color:#000000;fill:#ffffff"
       transform="matrix(0.71429,0,0,0.71429,379.53,187.93)"
       inkscape:connector-curvature="0" />
    <path
       id="path813"
       d="m 42.339,49.98 c 0,0 -9.918,-1.387 -19.569,0.22 -3.824,0.638 -16.566,4.462 -18.746,7.604 -1.018,25.147 2.18,48.465 2.18,48.465 l 22.062,2.613"
       style="fill:#ffffff"
       transform="translate(295.94,180.54)"
       inkscape:connector-curvature="0" />
    <path
       id="path815"
       style="fill:none;stroke:#010101;stroke-width:3.42;stroke-linecap:round;stroke-linejoin:round;stroke-miterlimit:14.3"
       d="m 42.339,49.98 c 0,0 -9.918,-1.387 -19.569,0.22 -3.824,0.638 -16.566,4.462 -18.746,7.604 -1.018,25.147 2.18,48.465 2.18,48.465 l 22.062,2.613"
       transform="translate(295.94,180.54)"
       inkscape:connector-curvature="0"
       stroke-miterlimit="14.3" />
    <path
       id="path817"
       d="M 16.046,57.828 8.391,57.84 C 4.727,57.849 1.71,60.866 1.71,64.528 v 37.621 c 0,3.664 3.017,6.672 6.681,6.664 l 15.319,-0.026 c 3.664,-0.009 6.673,-3.021 6.673,-6.688 V 64.478 c 0,-3.66 -3.009,-6.668 -6.673,-6.664 l -7.664,0.014"
       style="fill:#ffffff"
       transform="translate(295.94,180.54)"
       inkscape:connector-curvature="0" />
    <path
       id="path819"
       style="fill:none;stroke:#010101;stroke-width:3.42;stroke-linecap:round;stroke-linejoin:round;stroke-miterlimit:14.3"
       d="M 16.046,57.828 8.391,57.84 C 4.727,57.849 1.71,60.866 1.71,64.528 v 37.621 c 0,3.664 3.017,6.672 6.681,6.664 l 15.319,-0.026 c 3.664,-0.009 6.673,-3.021 6.673,-6.688 V 64.478 c 0,-3.66 -3.009,-6.668 -6.673,-6.664 l -7.664,0.023 z"
       transform="translate(295.94,180.54)"
       inkscape:connector-curvature="0"
       stroke-miterlimit="14.3" />
    <path
       id="path821"
       d="m 5.763,73.719 c 1.034,5.086 6.173,8.336 11.461,7.258 5.289,-1.082 8.733,-6.086 7.698,-11.168 -1.043,-5.086 -6.176,-8.332 -11.461,-7.254 -5.284,1.082 -8.736,6.082 -7.698,11.164"
       style="fill:#aaabaa"
       transform="translate(295.94,180.54)"
       inkscape:connector-curvature="0" />
    <path
       id="path823"
       style="fill:none;stroke:#010101;stroke-width:3.42;stroke-linecap:round;stroke-linejoin:round;stroke-miterlimit:14.3"
       d="m 5.763,73.719 c 1.034,5.086 6.173,8.336 11.461,7.258 5.289,-1.082 8.733,-6.086 7.698,-11.168 -1.043,-5.086 -6.176,-8.332 -11.461,-7.254 -5.284,1.082 -8.736,6.082 -7.698,11.164 z"
       transform="translate(295.94,180.54)"
       inkscape:connector-curvature="0"
       stroke-miterlimit="14.3" />
    <path
       id="path825"
       d="m 4.912,97.18 c 1.043,5.086 6.173,8.332 11.461,7.254 5.289,-1.082 8.741,-6.082 7.702,-11.164 C 23.036,88.184 17.903,84.938 12.614,86.012 7.326,87.094 3.882,92.098 4.912,97.18"
       style="fill:#aaabaa"
       transform="translate(295.94,180.54)"
       inkscape:connector-curvature="0" />
    <path
       id="path827"
       style="fill:none;stroke:#010101;stroke-width:3.42;stroke-linecap:round;stroke-linejoin:round;stroke-miterlimit:14.3"
       d="m 4.912,97.18 c 1.043,5.086 6.173,8.332 11.461,7.254 5.289,-1.082 8.741,-6.082 7.702,-11.164 C 23.036,88.184 17.903,84.938 12.614,86.012 7.326,87.094 3.882,92.098 4.912,97.18 Z"
       transform="translate(295.94,180.54)"
       inkscape:connector-curvature="0"
       stroke-miterlimit="14.3" />
    <path
       id="path829"
       d="m 13.177,72.504 c 0,4.22 2.142,7.646 4.78,7.646 2.638,0 4.781,-3.43 4.781,-7.646 0,-4.216 -2.146,-7.647 -4.781,-7.647 -2.639,-0.002 -4.78,3.427 -4.78,7.647"
       style="fill:#010101"
       transform="translate(295.94,180.54)"
       inkscape:connector-curvature="0" />
    <path
       id="path831"
       style="fill:none;stroke:#010101;stroke-width:3.42;stroke-linecap:round;stroke-linejoin:round;stroke-miterlimit:14.3"
       d="m 13.177,72.504 c 0,4.22 2.142,7.646 4.78,7.646 2.638,0 4.781,-3.43 4.781,-7.646 0,-4.216 -2.146,-7.647 -4.781,-7.647 -2.639,-0.002 -4.78,3.427 -4.78,7.647 z"
       transform="translate(295.94,180.54)"
       inkscape:connector-curvature="0"
       stroke-miterlimit="14.3" />
    <path
       id="path833"
       d="m 12.546,94.805 c 0,4.219 2.142,7.647 4.776,7.647 2.634,0 4.78,-3.432 4.78,-7.647 0,-4.224 -2.146,-7.647 -4.78,-7.647 -2.636,-0.001 -4.776,3.424 -4.776,7.647"
       style="fill:#010101"
       transform="translate(295.94,180.54)"
       inkscape:connector-curvature="0" />
    <path
       id="path835"
       style="fill:none;stroke:#010101;stroke-width:3.42;stroke-linecap:round;stroke-linejoin:round;stroke-miterlimit:14.3"
       d="m 12.546,94.805 c 0,4.219 2.142,7.647 4.776,7.647 2.634,0 4.78,-3.432 4.78,-7.647 0,-4.224 -2.146,-7.647 -4.78,-7.647 -2.636,-0.001 -4.776,3.424 -4.776,7.647 z"
       transform="translate(295.94,180.54)"
       inkscape:connector-curvature="0"
       stroke-miterlimit="14.3" />
    <path
       id="path841"
       d="m 246.96,50.008 c 0,0 9.918,-1.392 19.574,0.215 3.819,0.641 16.565,4.461 18.746,7.604 1.012,25.15 -2.185,48.465 -2.185,48.465 l -22.057,2.611"
       style="fill:#ffffff"
       transform="translate(295.94,180.54)"
       inkscape:connector-curvature="0" />
    <path
       id="path843"
       style="fill:none;stroke:#010101;stroke-width:3.42;stroke-linecap:round;stroke-linejoin:round;stroke-miterlimit:14.3"
       d="m 246.96,50.008 c 0,0 9.918,-1.392 19.574,0.215 3.819,0.641 16.565,4.461 18.746,7.604 1.012,25.15 -2.185,48.465 -2.185,48.465 l -22.057,2.611"
       transform="translate(295.94,180.54)"
       inkscape:connector-curvature="0"
       stroke-miterlimit="14.3" />
    <path
       id="path845"
       d="m 273.22,57.887 7.664,0.016 c 3.656,0.005 6.674,3.027 6.674,6.686 v 37.621 c 0,3.664 -3.018,6.672 -6.674,6.664 l -15.318,-0.027 c -3.664,-0.004 -6.682,-3.022 -6.682,-6.688 V 64.538 c 0,-3.66 3.018,-6.668 6.682,-6.66 l 7.654,0.009"
       style="fill:#ffffff"
       transform="translate(295.94,180.54)"
       inkscape:connector-curvature="0" />
    <polyline
       id="polyline849"
       style="fill:#010101"
       points="259.22 213.15 259.23 212.54 259.28 211.94 259.35 211.36 259.44 210.81 259.57 210.3 259.72 209.84 259.88 209.44 260.07 209.1 260.27 208.82 260.48 208.63 260.7 208.51 260.92 208.47 261.15 208.51 261.37 208.63 261.58 208.82 261.78 209.1 261.97 209.44 262.14 209.84 262.28 210.3 262.4 210.81 262.5 211.36 262.58 211.94 262.62 212.54 262.64 213.15 262.62 213.76 262.58 214.36 262.5 214.94 262.4 215.49 262.28 216 262.14 216.46 261.97 216.86 261.78 217.2 261.58 217.48 261.37 217.67 261.15 217.79 260.92 217.83 260.7 217.79 260.48 217.67 260.27 217.48 260.07 217.2 259.88 216.86 259.72 216.46 259.57 216 259.44 215.49 259.35 214.94 259.28 214.36 259.23 213.76 259.22 213.15"
       transform="translate(295.94,180.54)" />
    <polygon
       id="polygon851"
       style="fill:#010101"
       points="37.751,211.4 37.587,211.8 37.399,212.14 37.205,212.41 36.989,212.61 36.771,212.72 36.548,212.77 36.319,212.72 36.101,212.61 35.89,212.41 35.687,212.14 35.502,211.8 35.334,211.4 35.187,210.93 35.062,210.42 34.964,209.88 34.89,209.3 34.851,208.69 34.83,208.08 34.851,207.47 34.89,206.87 34.964,206.29 35.062,205.74 35.187,205.23 35.334,204.78 35.502,204.37 35.687,204.03 35.89,203.76 36.101,203.56 36.319,203.44 36.548,203.4 36.771,203.44 36.989,203.56 37.205,203.76 37.399,204.03 37.587,204.37 37.751,204.78 37.898,205.23 38.023,205.74 38.126,206.29 38.196,206.87 38.243,207.47 38.251,208.08 38.243,208.69 38.196,209.3 38.126,209.88 38.023,210.42 37.898,210.93 "
       transform="translate(295.94,180.54)" />
    <polygon
       id="polygon853"
       style="fill:#010101"
       points="25.134,145.28 25.271,134.51 25.31,133.61 25.275,134.22 25.702,122.24 25.831,120.88 25.718,121.97 26.479,108.72 26.501,108.47 27.642,93.909 27.97,91.996 28.13,91.518 27.72,93.174 29.505,80.811 30.112,78.69 30.312,78.362 29.709,79.78 32.718,68.405 33.554,66.725 32.95,67.702 37.099,57.305 37.306,56.856 42.495,47.407 42.667,47.135 48.813,38.623 48.955,38.446 55.959,30.844 56.075,30.731 63.839,24.028 63.937,23.954 72.374,18.127 72.456,18.071 81.478,13.102 81.546,13.063 91.056,8.926 91.114,8.899 101.02,5.575 101.07,5.56 111.27,3.032 111.32,3.021 121.73,1.271 121.78,1.262 132.31,0.267 132.34,0.262 142.9,0 142.94,0 153.42,0.457 153.46,0.457 168.17,2.043 168.22,2.052 181.74,4.448 181.8,4.455 194.17,7.666 194.23,7.683 205.48,11.718 205.55,11.748 215.7,16.628 215.79,16.675 224.87,22.395 224.97,22.477 233.02,29.054 233.14,29.175 240.16,36.623 240.31,36.808 246.35,45.136 246.53,45.412 251.61,54.636 251.8,55.037 255.95,65.157 256.15,65.714 259.4,76.741 258.98,75.72 259.57,77.443 261.95,89.392 261.59,88.134 262.07,90.181 263.61,103.06 263.41,101.9 263.52,102.46 263.68,103.85 264.4,117.68 264.37,117.24 264.41,117.87 264.42,118.39 264.36,133.17 264.33,133.9 264.28,134.52 264.35,133.66 263.71,148.47 263.55,149.95 263.69,148.79 262.78,161.99 262.76,162.28 261.68,173.74 261.65,174.01 260.52,183.64 260.49,183.88 259.42,191.55 259.39,191.77 258.48,197.38 258.45,197.57 257.83,201.02 257.8,201.18 257.56,202.35 256.81,204.32 257.26,203.47 256.14,206.46 261.18,208.52 260.68,217.78 252.22,214.32 252.36,214.36 252.13,214.27 251.9,214.1 251.69,213.84 251.49,213.51 251.31,213.11 251.15,212.64 251.01,212.12 250.91,211.55 250.83,210.95 250.78,210.32 250.76,209.69 250.78,209.05 250.83,208.43 250.91,207.82 251.01,207.26 251.15,206.74 251.31,206.27 251.49,205.86 251.69,205.53 251.28,206.34 254.68,197.26 254.78,196.79 255.37,193.51 256.25,188.1 257.28,180.65 258.39,171.28 259.44,160.1 260.33,147.22 260.95,132.81 261.01,118.64 260.32,105.58 258.89,93.494 256.65,82.291 253.58,71.89 249.63,62.248 244.73,53.366 238.86,45.267 231.97,37.966 224.05,31.481 215.07,25.821 205,20.985 193.82,16.974 181.5,13.778 168.02,11.392 153.36,9.813 142.91,9.356 132.41,9.623 121.92,10.614 111.56,12.356 101.41,14.873 91.572,18.183 82.128,22.295 73.184,27.226 64.83,32.996 57.171,39.612 50.304,47.065 44.32,55.358 39.324,64.453 35.402,74.289 32.617,84.797 30.97,96.25 29.865,110.31 29.119,123.29 28.701,134.98 28.568,145.43 28.685,154.7 29,162.85 29.478,169.93 30.068,175.99 30.724,181.11 31.419,185.33 32.099,188.73 32.74,191.35 33.279,193.25 33.693,194.5 33.943,195.14 34.021,195.33 34.076,195.47 37.718,204.65 35.382,211.53 31.772,202.41 31.687,202.2 31.604,202.01 31.276,201.16 31.194,200.92 30.694,199.42 30.608,199.15 29.983,196.96 29.907,196.66 29.204,193.73 29.13,193.41 28.376,189.68 28.317,189.34 27.563,184.77 27.515,184.41 26.804,178.94 27.038,180.15 26.765,178.58 26.14,172.16 26.288,173.16 26.112,171.8 25.612,164.36 25.677,165.03 25.595,164.01 25.263,155.52 25.271,155.71 25.255,155.19 25.134,145.59 25.134,145.22 "
       transform="translate(295.94,180.54)" />
    <path
       id="path908"
       style="fill:none;stroke:#010101;stroke-width:2.564;stroke-linecap:round;stroke-linejoin:round;stroke-miterlimit:11.5"
       d="m 245.38,201.94 c 0,0 6.091,-16.146 8.353,-53.829 2.043,-33.986 -13.642,-61.74 -13.642,-61.74 0,0 -24.022,-32.496 -97.009,-32.496 -72.985,0 -95.056,32.5 -95.056,32.5 0,0 -10.366,27.318 -12.062,55.021 -1.693,27.703 5.272,55.777 5.272,55.777"
       transform="translate(295.94,180.54)"
       inkscape:connector-curvature="0"
       stroke-miterlimit="11.5" />
    <path
       id="path912"
       style="fill:none;stroke:#010101;stroke-width:3.42;stroke-linecap:round;stroke-linejoin:round;stroke-miterlimit:11.5"
       d="m 35.643,208.98 c 0,0 0.871,6.234 4.694,13.242 6.116,11.219 12.108,19.115 12.108,19.115 l 1.836,15.713 32.896,13.461 c 0,0 17.022,-5.6 25.798,-5.6 8.772,0 31.219,2.715 50.957,-0.172 19.732,-2.885 45.448,-14.607 57.996,-21.492 19.75,-10.826 30.819,-31.383 30.819,-31.383"
       transform="translate(295.94,180.54)"
       inkscape:connector-curvature="0"
       stroke-miterlimit="11.5" />
    <path
       id="path916"
       style="fill:none;stroke:#010101;stroke-width:2.564;stroke-linecap:round;stroke-linejoin:round;stroke-miterlimit:11.5"
       d="m 245.31,201.48 -5.979,15.557 c 0,0 -32.293,44.529 -110.68,39.479 -71.292,-4.6 -84.352,-44.27 -84.352,-44.27 L 40.364,192.91"
       transform="translate(295.94,180.54)"
       inkscape:connector-curvature="0"
       stroke-miterlimit="11.5" />
    <polyline
       id="polyline918"
       style="fill:#010101"
       points="232.07 91.5 231.72 91.239 230.66 90.491 228.86 89.323 226.33 87.801 223.04 85.996 219 83.989 214.19 81.852 208.63 79.659 202.29 77.489 195.17 75.402 187.28 73.489 178.58 71.812 169.11 70.453 158.83 69.484 147.75 68.977 135.86 69.004 124.15 69.559 113.6 70.539 104.15 71.875 95.74 73.508 88.334 75.366 81.865 77.391 76.283 79.52 71.529 81.684 67.552 83.82 64.296 85.859 61.709 87.741 59.732 89.402 58.307 90.782 57.388 91.801 56.904 92.409 56.768 92.609 56.193 93.148 56.373 93.032 56.341 93.055 56.158 93.395 55.634 94.684 54.959 96.609 53.311 102.14 51.494 109.39 49.693 117.96 48.084 127.46 46.857 137.5 46.177 147.68 46.225 156.34 46.83 165.77 47.826 175.37 49.037 184.53 50.283 192.67 51.396 199.19 51.839 201.66 52.186 203.51 52.404 204.66 52.436 204.8 52.479 204.93 52.912 206.04 53.775 207.9 55.166 210.37 57.171 213.35 59.888 216.72 63.396 220.35 67.802 224.12 73.177 227.91 79.623 231.58 87.225 235.02 96.061 238.09 106.23 240.68 117.82 242.64 130.91 243.87 145.58 244.23 157.75 243.66 168.91 242.23 179.1 240.06 188.34 237.27 196.67 233.99 204.12 230.35 210.71 226.47 216.48 222.48 221.46 218.5 225.66 214.66 229.14 211.09 231.9 207.9 233.99 205.22 235.44 203.18 236.26 201.9 236.29 201.86 238.36 193.78 239.95 186.04 241.07 178.8 241.81 171.77 242.28 164.65 242.57 157.16 242.78 149.06 242.99 140.27 242.55 130.11 241.28 120.77 239.44 112.34 237.3 105.03 235.16 99.027 233.29 94.527 231.97 91.719 231.72 91.239 231.7 91.227 233.06 85.773 233.43 86.047 233.25 85.938 233.47 86.078 234.02 86.797 234.55 87.812 234.6 87.909 235.97 90.84 236.03 90.977 237.97 95.629 238.03 95.805 240.25 102.01 240.32 102.23 242.53 109.8 242.29 109.18 242.6 110.09 244.51 118.84 244.4 118.4 244.58 119.21 245.91 128.96 245.9 128.86 245.95 129.42 246.41 140 246.41 140.04 246.42 140.35 246.19 149.32 246.19 149.32 245.99 157.46 245.99 157.53 245.69 165.12 245.69 165.26 245.2 172.54 245.19 172.74 244.42 179.99 244.39 180.22 243.23 187.7 243.19 187.93 241.55 195.89 241.51 196.09 239.28 204.8 238.92 205.7 238.75 205.96 238.9 205.72 238.62 206.2 238.57 206.29 237.69 207.66 237.63 207.74 236.12 209.88 236.05 209.96 233.9 212.72 233.83 212.81 230.99 216.08 230.92 216.16 227.37 219.82 227.29 219.89 223.01 223.8 222.93 223.87 217.87 227.91 217.79 227.97 211.94 232.02 211.85 232.07 205.18 236 205.08 236.05 197.55 239.73 197.47 239.77 189.05 243.08 188.97 243.11 179.64 245.92 179.55 245.95 169.29 248.14 169.2 248.15 157.96 249.6 157.88 249.61 145.64 250.17 145.57 250.18 130.83 249.81 130.76 249.81 117.6 248.57 117.53 248.56 105.86 246.58 105.78 246.56 95.529 243.96 95.439 243.93 86.507 240.83 86.412 240.79 78.709 237.31 78.611 237.26 72.061 233.52 71.951 233.46 66.459 229.59 66.341 229.5 61.826 225.63 61.709 225.52 58.076 221.77 57.959 221.63 55.123 218.11 55.007 217.95 52.882 214.8 52.771 214.62 51.275 211.95 51.171 211.75 50.209 209.69 50.115 209.48 49.604 208.15 49.529 207.95 49.382 207.48 49.529 207.87 49.248 206.98 49.171 206.57 49.166 206.56 48.939 205.38 48.936 205.35 48.584 203.48 48.576 203.45 48.127 200.95 48.119 200.9 46.998 194.32 46.986 194.23 45.725 186.02 45.709 185.91 44.482 176.63 44.466 176.49 43.455 166.72 43.439 166.53 42.818 156.86 42.83 156.98 42.811 156.56 42.757 147.55 42.759 147.34 42.768 147.18 43.466 136.68 43.494 136.38 43.494 136.4 44.748 126.11 44.783 125.89 46.425 116.19 46.459 116.01 48.3 107.27 48.339 107.1 50.201 99.68 50.248 99.5 51.951 93.789 52.007 93.614 52.74 91.508 52.811 91.332 53.439 89.793 53.584 89.484 54.084 88.555 54.475 88.016 54.686 87.836 54.634 87.871 54.979 87.605 54.584 88.027 54.768 87.773 54.85 87.664 55.412 86.945 55.502 86.84 56.513 85.719 56.6 85.629 58.111 84.168 58.201 84.094 60.259 82.359 60.341 82.293 63.013 80.352 63.095 80.297 66.432 78.203 66.502 78.159 70.552 75.989 70.627 75.953 75.451 73.758 75.513 73.727 81.166 71.573 81.225 71.555 87.759 69.512 87.814 69.496 95.283 67.621 95.334 67.609 103.79 65.969 103.84 65.957 113.34 64.616 113.39 64.609 123.99 63.625 124.03 63.625 135.78 63.062 135.83 63.062 147.77 63.032 147.81 63.032 158.95 63.543 158.99 63.547 169.32 64.523 169.36 64.527 178.9 65.895 178.94 65.902 187.68 67.586 187.72 67.598 195.67 69.523 195.72 69.534 202.88 71.633 202.93 71.648 209.31 73.84 209.36 73.855 214.98 76.066 215.02 76.086 219.86 78.241 219.91 78.266 224 80.293 224.05 80.316 227.38 82.145 227.42 82.168 230 83.719 230.05 83.741 231.88 84.945 231.93 84.973 233.02 85.741 233.06 85.773 233.43 86.047 232.07 91.5"
       transform="translate(295.94,180.54)" />
    <path
       id="path920"
       style="fill:none;stroke:#010101;stroke-width:2.564;stroke-linecap:round;stroke-linejoin:round;stroke-miterlimit:11.5"
       d="m 193.66,15.375 c 0,0 5.577,11.16 5.577,21.396 0,10.229 -0.93,23.883 -0.93,23.883 l 9.301,4.312 c 0,0 1.859,-7.738 0.936,-19.824 -0.936,-12.09 -5.582,-26.039 -5.582,-26.039"
       transform="translate(295.94,180.54)"
       inkscape:connector-curvature="0"
       stroke-miterlimit="11.5" />
    <path
       id="path922"
       style="fill:none;stroke:#010101;stroke-width:2.564;stroke-linecap:round;stroke-linejoin:round;stroke-miterlimit:11.5"
       d="m 89.8,16.301 c 0,0 -5.582,11.16 -5.582,21.387 0,10.234 0.934,24.522 0.934,24.522 l -9.301,3.668 c 0,0 -1.863,-7.729 -0.93,-19.819 0.93,-12.09 5.576,-26.039 5.576,-26.039"
       transform="translate(295.94,180.54)"
       inkscape:connector-curvature="0"
       stroke-miterlimit="11.5" />
    <path
       id="path924"
       d="m 33.619,119.99 -14.47,0.557 c 0,0 -4.254,9.063 -3.448,23.313 0.798,14.255 4.436,23.781 4.436,23.781 l 15.395,-0.5 c 0,0 -1.825,-8.492 -2.114,-23.645 -0.284,-15.149 0.201,-23.506 0.201,-23.506"
       style="fill:#ffffff"
       transform="translate(295.94,180.54)"
       inkscape:connector-curvature="0" />
    <path
       id="path926"
       style="fill:none;stroke:#010101;stroke-width:3.42;stroke-linecap:round;stroke-linejoin:round;stroke-miterlimit:11.5"
       d="m 33.619,119.99 -14.47,0.557 c 0,0 -4.254,9.063 -3.448,23.313 0.798,14.255 4.436,23.781 4.436,23.781 l 15.395,-0.5 c 0,0 -1.825,-8.492 -2.114,-23.645 -0.284,-15.15 0.201,-23.51 0.201,-23.51 z"
       transform="translate(295.94,180.54)"
       inkscape:connector-curvature="0"
       stroke-miterlimit="11.5" />
    <path
       id="path928"
       d="m 39.373,143.17 c 0.238,12.737 -1.655,23.121 -4.219,23.168 -2.57,0.047 -4.845,-10.259 -5.078,-22.996 -0.241,-12.737 1.647,-23.12 4.216,-23.168 2.566,-0.047 4.84,10.258 5.081,22.996"
       style="fill:#ffffff"
       transform="translate(295.94,180.54)"
       inkscape:connector-curvature="0" />
    <path
       id="path930"
       style="fill:none;stroke:#010101;stroke-width:3.42;stroke-linecap:round;stroke-linejoin:round;stroke-miterlimit:11.5"
       d="m 39.373,143.17 c 0.238,12.737 -1.655,23.121 -4.219,23.168 -2.57,0.047 -4.845,-10.259 -5.078,-22.996 -0.241,-12.737 1.647,-23.12 4.216,-23.168 2.566,-0.05 4.84,10.26 5.081,23 z"
       transform="translate(295.94,180.54)"
       inkscape:connector-curvature="0"
       stroke-miterlimit="11.5" />
    <path
       id="path932"
       d="m 40.037,127.35 -3.952,0.686 c 0,0 -1.276,7.611 -1.393,15.297 -0.107,7.685 0.938,15.435 0.938,15.435 l 3.953,-0.688 0.454,-30.73"
       style="fill:#010101"
       transform="translate(295.94,180.54)"
       inkscape:connector-curvature="0" />
    <path
       id="path934"
       style="fill:none;stroke:#010101;stroke-width:3.42;stroke-linecap:round;stroke-linejoin:round;stroke-miterlimit:11.5"
       d="m 40.037,127.35 -3.952,0.686 c 0,0 -1.276,7.611 -1.393,15.297 -0.107,7.685 0.938,15.435 0.938,15.435 l 3.953,-0.69 0.454,-30.73 z"
       transform="translate(295.94,180.54)"
       inkscape:connector-curvature="0"
       stroke-miterlimit="11.5" />
    <path
       id="path936"
       d="m 255.88,119.98 14.47,0.553 c 0,0 4.258,9.068 3.457,23.318 -0.806,14.254 -4.441,23.781 -4.441,23.781 l -15.395,-0.5 c 0,0 1.832,-8.492 2.112,-23.646 0.28,-15.153 -0.203,-23.506 -0.203,-23.506"
       style="fill:#ffffff"
       transform="translate(295.94,180.54)"
       inkscape:connector-curvature="0" />
    <path
       id="path938"
       style="fill:none;stroke:#010101;stroke-width:3.42;stroke-linecap:round;stroke-linejoin:round;stroke-miterlimit:11.5"
       d="m 255.88,119.98 14.47,0.553 c 0,0 4.258,9.068 3.457,23.318 -0.806,14.254 -4.441,23.781 -4.441,23.781 l -15.395,-0.5 c 0,0 1.832,-8.492 2.112,-23.646 0.27,-15.14 -0.21,-23.5 -0.21,-23.5 z"
       transform="translate(295.94,180.54)"
       inkscape:connector-curvature="0"
       stroke-miterlimit="11.5" />
    <path
       id="path940"
       d="m 250.25,143.27 c -0.232,12.738 1.656,23.117 4.22,23.168 2.569,0.047 4.845,-10.254 5.086,-22.991 0.233,-12.745 -1.655,-23.12 -4.224,-23.168 -2.562,-0.052 -4.84,10.25 -5.082,22.991"
       style="fill:#ffffff"
       transform="translate(295.94,180.54)"
       inkscape:connector-curvature="0" />
    <path
       id="path942"
       style="fill:none;stroke:#010101;stroke-width:3.42;stroke-linecap:round;stroke-linejoin:round;stroke-miterlimit:11.5"
       d="m 250.25,143.27 c -0.232,12.738 1.656,23.117 4.22,23.168 2.569,0.047 4.845,-10.254 5.086,-22.991 0.233,-12.745 -1.655,-23.12 -4.224,-23.168 -2.56,-0.05 -4.84,10.25 -5.08,22.99 z"
       transform="translate(295.94,180.54)"
       inkscape:connector-curvature="0"
       stroke-miterlimit="11.5" />
    <path
       id="path944"
       d="m 249.55,127.34 3.866,0.688 c 0,0 1.259,7.617 1.379,15.298 0.121,7.685 -0.896,15.435 -0.896,15.435 l -3.867,-0.69 -0.482,-30.731"
       style="fill:#010101"
       transform="translate(295.94,180.54)"
       inkscape:connector-curvature="0" />
    <path
       id="path946"
       style="fill:none;stroke:#010101;stroke-width:3.42;stroke-linecap:round;stroke-linejoin:round;stroke-miterlimit:11.5"
       d="m 249.55,127.34 3.866,0.688 c 0,0 1.259,7.617 1.379,15.298 0.121,7.685 -0.896,15.435 -0.896,15.435 l -3.867,-0.69 -0.48,-30.73 z"
       transform="translate(295.94,180.54)"
       inkscape:connector-curvature="0"
       stroke-miterlimit="11.5" />
    <path
       id="path948"
       d="m 35.979,119.87 c 0,0 0.909,-28.229 3.646,-35.521 2.733,-7.285 12.75,-4.551 12.75,-4.551 0,0 -7.289,11.84 -9.104,30.051 -1.187,11.784 0.906,14.577 -7.292,10.021"
       style="fill:#ffffff"
       transform="translate(295.94,180.54)"
       inkscape:connector-curvature="0" />
    <path
       id="path952"
       d="m 253.63,120.78 c 0,0 -0.914,-28.232 -3.646,-35.517 -2.729,-7.285 -12.746,-4.555 -12.746,-4.555 0,0 7.281,11.836 9.104,30.055 1.177,11.78 -0.908,14.569 7.288,10.017"
       style="fill:#ffffff"
       transform="translate(295.94,180.54)"
       inkscape:connector-curvature="0" />
    <path
       id="path954"
       style="fill:none;stroke:#010101;stroke-width:2.564;stroke-linecap:round;stroke-linejoin:round;stroke-miterlimit:11.5"
       d="m 253.63,120.78 c 0,0 -0.914,-28.232 -3.646,-35.517 -2.729,-7.285 -12.746,-4.555 -12.746,-4.555 0,0 7.281,11.836 9.104,30.055 1.18,11.79 -0.9,14.58 7.29,10.02 z"
       transform="translate(295.94,180.54)"
       inkscape:connector-curvature="0"
       stroke-miterlimit="11.5" />
    <line
       id="line956"
       style="fill:none;stroke:#010101;stroke-width:2.564;stroke-miterlimit:14.3"
       y2="208.21001"
       transform="translate(295.94,180.54)"
       x2="43.528999"
       stroke-miterlimit="14.3"
       y1="208.21001"
       x1="35.882" />
    <polyline
       id="polyline958"
       style="fill:none;stroke:#010101;stroke-width:2.564;stroke-linecap:round;stroke-linejoin:round;stroke-miterlimit:14.3"
       points="51.807 240.06 60.725 245.8 92.583 259.18 115.52 264.28"
       stroke-miterlimit="14.3"
       transform="translate(295.94,180.54)" />
    <line
       id="line960"
       style="fill:none;stroke:#010101;stroke-width:2.564;stroke-linecap:round;stroke-linejoin:round;stroke-miterlimit:14.3"
       y2="259.82001"
       transform="translate(295.94,180.54)"
       x2="91.314003"
       stroke-miterlimit="14.3"
       y1="269.37"
       x1="86.849998" />
    <line
       id="line962"
       style="fill:none;stroke:#010101;stroke-width:2.564;stroke-linecap:round;stroke-linejoin:round;stroke-miterlimit:14.3"
       y2="246.44"
       transform="translate(295.94,180.54)"
       x2="60.733002"
       stroke-miterlimit="14.3"
       y1="255.99001"
       x1="55.632" />
    <line
       id="line964"
       style="fill:none;stroke:#010101;stroke-width:2.564;stroke-miterlimit:14.3"
       y2="206.94"
       transform="translate(295.94,180.54)"
       x2="253.14"
       stroke-miterlimit="14.3"
       y1="201.84"
       x1="245.49001" />
    <path
       id="path966"
       d="m 86.052,114.22 c -2.909,7.926 -10.366,12.479 -16.642,10.172 -6.271,-2.309 -8.992,-10.604 -6.078,-18.53 2.914,-7.918 10.367,-12.478 16.643,-10.168 6.273,2.303 8.995,10.608 6.077,18.526"
       style="fill:#dddddd;fill-opacity:1;stroke:none;stroke-opacity:1"
       inkscape:connector-curvature="0"
       transform="translate(295.94,180.54)" />
    <path
       id="path968"
       style="fill:none;stroke:#656565;stroke-width:1.73061;stroke-miterlimit:14.3;stroke-opacity:1"
       d="m 382.51424,294.76 c -2.97259,7.926 -10.59261,12.479 -17.00581,10.172 -6.40809,-2.309 -9.18858,-10.604 -6.21087,-18.53 2.9777,-7.913 10.59363,-12.473 17.00683,-10.163 6.41014,2.303 9.19164,10.603 6.20985,18.523 z"
       inkscape:connector-curvature="0"
       stroke-miterlimit="14.3" />
    <path
       id="path970"
       d="m 95.912,88.164 c -1.366,3.724 -4.866,5.865 -7.812,4.784 -2.945,-1.087 -4.219,-4.982 -2.854,-8.707 1.366,-3.724 4.866,-5.866 7.812,-4.78 2.944,1.082 4.221,4.984 2.854,8.703"
       style="fill:#dddddd;fill-opacity:1;stroke:none;stroke-opacity:1"
       inkscape:connector-curvature="0"
       transform="translate(295.94,180.54)" />
    <path
       id="path972"
       style="fill:none;stroke:#656565;stroke-width:1.712;stroke-miterlimit:14.3;stroke-opacity:1"
       d="m 95.912,88.164 c -1.366,3.724 -4.866,5.865 -7.812,4.784 -2.945,-1.087 -4.219,-4.982 -2.854,-8.707 1.366,-3.724 4.866,-5.866 7.812,-4.78 2.944,1.082 4.221,4.984 2.854,8.703 z"
       transform="translate(295.94,180.54)"
       inkscape:connector-curvature="0"
       stroke-miterlimit="14.3" />
    <path
       id="path1330"
       d="M 126.62,1.4688 C 96.793,1.0405 66.534,5.8037 39.094,17.6878 c -11.572,5.812 -25.247,13.622 -27.285,27.717 -9.9461,35.26 -13.517,72.385 -8.0682,108.76 2.4698,14.88 3.1606,30.57 8.8532,44.68 14.562,25.446 43.578,38.249 71.101,44.623 49.908,10.297 105.45,8.3626 149.65,-19.279 13.987,-9.3248 27.515,-20.468 36.312,-34.938 1.6301,-3.5664 3.1294,-7.6203 2.9375,-11.5 -4.1655,-1.3921 -8.8296,2.5731 -13.067,3.3397 -22.421,8.8125 -45.718,15.239 -69.668,17.646 -10.136,1.7138 -19.605,6.745 -30.171,5.452 -6.3481,0.21579 -16.19,-1.0491 -15.438,-9.4688 -0.86278,-6.1986 2.225,-12.726 8.5312,-14.188 10.802,-3.3329 22.923,0.20575 31.125,7.75 8.0664,2.0092 16.509,-1.8636 24.545,-2.8756 23.176,-4.289 44.802,-13.824 65.33,-25.124 4.8221,-3.7678 3.2867,-11.288 4.4422,-16.685 1.5187,-33.414 3.8583,-68.403 -9.5095,-99.929 -2.14,-8.716 -8.5,-15.386 -16.81,-18.66 -26.91,-13.562 -56.93,-20.891 -86.85,-23.196 -12.79,-0.4948 -25.6,-0.3545 -38.41,-0.3352 z m -61,15.812 c 6.89,0.051 8.899,9.449 4.661,14.094 -2.605,4.971 -10.758,5.472 -12.562,-0.375 -2.12,-5.404 1.796,-13.342 7.906,-13.719 z m -20.932,22.157 c 11.322,0.03813 17.778,13.848 13.875,23.531 -2.4821,10.291 -13.537,20.446 -24.344,15.75 -11.504,-6.333 -10.311,-23.528 -2.438,-32.25 3.212,-3.832 7.872,-6.879 12.907,-7.031 z"
       style="color:#000000;fill:#234358;fill-opacity:0.394867"
       inkscape:connector-curvature="0"
       transform="matrix(0.71429,0,0,0.71429,340.25,247.93)" />
    <path
       id="path974"
       d="m 265.33,195.45 -14.969,-1.358 c 0,0 -2.397,3.621 -2.97,9.792 -0.573,6.172 0.367,10.496 0.367,10.496 l 15.356,1.439 c 0,0 -0.231,-3.766 0.617,-10.293 0.856,-6.521 1.599,-10.076 1.599,-10.076"
       style="fill:#ffffff"
       transform="translate(295.94,180.54)"
       inkscape:connector-curvature="0" />
    <path
       id="path976"
       style="fill:none;stroke:#010101;stroke-width:3.42;stroke-linecap:round;stroke-linejoin:round;stroke-miterlimit:14.3"
       d="m 265.33,195.45 -14.969,-1.358 c 0,0 -2.397,3.621 -2.97,9.792 -0.573,6.172 0.367,10.496 0.367,10.496 l 15.356,1.439 c 0,0 -0.231,-3.766 0.617,-10.293 0.85,-6.52 1.59,-10.08 1.59,-10.08 z"
       transform="translate(295.94,180.54)"
       inkscape:connector-curvature="0"
       stroke-miterlimit="14.3" />
    <path
       id="path978"
       d="m 266.35,205.68 c -0.72,5.482 -2.188,9.818 -3.289,9.68 -1.095,-0.145 -1.406,-4.711 -0.688,-10.197 0.711,-5.484 2.188,-9.824 3.28,-9.682 1.104,0.144 1.408,4.711 0.697,10.199"
       style="fill:#ffffff"
       transform="translate(295.94,180.54)"
       inkscape:connector-curvature="0" />
    <path
       id="path980"
       style="fill:none;stroke:#010101;stroke-width:3.42;stroke-linecap:round;stroke-linejoin:round;stroke-miterlimit:14.3"
       d="m 266.35,205.68 c -0.72,5.482 -2.188,9.818 -3.289,9.68 -1.095,-0.145 -1.406,-4.711 -0.688,-10.197 0.711,-5.484 2.188,-9.824 3.28,-9.682 1.11,0.14 1.41,4.71 0.7,10.2 z"
       transform="translate(295.94,180.54)"
       inkscape:connector-curvature="0"
       stroke-miterlimit="14.3" />
    <path
       id="path982"
       d="m 241.72,179.05 c 0,0 -18.336,12.227 -38.703,17.313 -20.367,5.096 -26.478,5.096 -26.478,5.096 0,0 -4.073,-7.134 -17.312,-7.134 -13.239,0 -13.238,7.134 -13.238,13.238 0,6.113 7.129,7.129 15.277,7.129 8.148,0 15.271,-4.068 15.271,-4.068 0,0 15.277,-1.021 27.5,-4.072 12.221,-3.057 35.643,-12.224 35.643,-12.224"
       style="fill:#3d5769;fill-opacity:1;stroke:none;stroke-opacity:1"
       transform="translate(295.94,180.54)"
       inkscape:connector-curvature="0" />
    <path
       id="path984"
       style="fill:#ffffff;stroke:#010101;stroke-width:3.42;stroke-linecap:round;stroke-linejoin:round;stroke-miterlimit:14.3"
       d="m 273.22,57.887 7.664,0.016 c 3.656,0.005 6.674,3.027 6.674,6.686 v 37.621 c 0,3.664 -3.018,6.672 -6.674,6.664 l -15.318,-0.027 c -3.664,-0.004 -6.682,-3.022 -6.682,-6.688 V 64.538 c 0,-3.66 3.018,-6.668 6.682,-6.66 l 7.66,0.018 z"
       transform="translate(295.94,180.54)"
       inkscape:connector-curvature="0"
       stroke-miterlimit="14.3" />
    <path
       id="path986"
       d="m 283.47,73.941 c -1.039,5.082 -6.173,8.332 -11.457,7.25 -5.289,-1.072 -8.741,-6.077 -7.702,-11.163 1.039,-5.082 6.172,-8.332 11.461,-7.25 5.289,1.074 8.735,6.077 7.698,11.163"
       style="fill:#aaabaa"
       transform="translate(295.94,180.54)"
       inkscape:connector-curvature="0" />
    <path
       id="path988"
       d="m 284.31,97.395 c -1.035,5.086 -6.173,8.336 -11.457,7.259 -5.289,-1.082 -8.738,-6.082 -7.703,-11.163 1.039,-5.087 6.173,-8.337 11.461,-7.26 5.289,1.081 8.742,6.081 7.699,11.164"
       style="fill:#aaabaa"
       transform="translate(295.94,180.54)"
       inkscape:connector-curvature="0" />
    <path
       id="path990"
       d="m 276.08,72.5 c 0,4.22 -2.146,7.646 -4.78,7.646 -2.642,0 -4.78,-3.43 -4.78,-7.646 0,-4.216 2.142,-7.647 4.78,-7.647 2.635,-10e-4 4.78,3.429 4.78,7.647"
       style="fill:#010101"
       transform="translate(295.94,180.54)"
       inkscape:connector-curvature="0" />
    <path
       id="path992"
       style="fill:none;stroke:#010101;stroke-width:3.42;stroke-linecap:round;stroke-linejoin:round;stroke-miterlimit:14.3"
       d="m 276.08,72.5 c 0,4.22 -2.146,7.646 -4.78,7.646 -2.642,0 -4.78,-3.43 -4.78,-7.646 0,-4.216 2.142,-7.647 4.78,-7.647 2.64,-10e-4 4.78,3.429 4.78,7.647 z"
       transform="translate(295.94,180.54)"
       inkscape:connector-curvature="0"
       stroke-miterlimit="14.3" />
    <path
       id="path994"
       d="m 276.72,94.801 c 0,4.219 -2.141,7.647 -4.775,7.647 -2.643,0 -4.781,-3.432 -4.781,-7.647 0,-4.224 2.143,-7.647 4.781,-7.647 2.635,-0.002 4.775,3.424 4.775,7.647"
       style="fill:#010101"
       transform="translate(295.94,180.54)"
       inkscape:connector-curvature="0" />
    <path
       id="path996"
       style="fill:none;stroke:#010101;stroke-width:3.42;stroke-linecap:round;stroke-linejoin:round;stroke-miterlimit:14.3"
       d="m 276.72,94.801 c 0,4.219 -2.141,7.647 -4.775,7.647 -2.643,0 -4.781,-3.432 -4.781,-7.647 0,-4.224 2.143,-7.647 4.781,-7.647 2.64,-0.002 4.78,3.424 4.78,7.647 z"
       transform="translate(295.94,180.54)"
       inkscape:connector-curvature="0"
       stroke-miterlimit="14.3" />
    <path
       id="path998"
       style="fill:none;stroke:#010101;stroke-width:3.42;stroke-linecap:round;stroke-linejoin:round;stroke-miterlimit:14.3"
       d="m 283.47,73.941 c -1.039,5.082 -6.173,8.332 -11.457,7.25 -5.289,-1.072 -8.741,-6.077 -7.702,-11.163 1.039,-5.082 6.172,-8.332 11.461,-7.25 5.29,1.074 8.74,6.077 7.7,11.163 z"
       transform="translate(295.94,180.54)"
       inkscape:connector-curvature="0"
       stroke-miterlimit="14.3" />
    <path
       id="path1000"
       style="fill:none;stroke:#010101;stroke-width:3.42;stroke-linecap:round;stroke-linejoin:round;stroke-miterlimit:14.3"
       d="m 284.31,97.395 c -1.035,5.086 -6.173,8.336 -11.457,7.259 -5.289,-1.082 -8.738,-6.082 -7.703,-11.163 1.039,-5.087 6.173,-8.337 11.461,-7.26 5.29,1.081 8.75,6.081 7.7,11.164 z"
       transform="translate(295.94,180.54)"
       inkscape:connector-curvature="0"
       stroke-miterlimit="14.3" />
    <path
       id="path1332"
       d="M 17.219,0.3125 C 11.352,1.8291 5.945,5.6933 5.687,12.2505 c -3.5877,16.934 -7.0904,34.834 -3.4058,52.031 3.6055,1.326 8.8128,-1.931 11.998,-3.766 1.121,-16.534 -1.293,-33.693 1.846,-50.046 -0.093,-2.6191 5.088,-9.3392 1.094,-10.156 z"
       style="color:#000000;fill:#ff6b5e"
       transform="matrix(0.71429,0,0,0.71429,370.25,199.36)"
       inkscape:connector-curvature="0" />
    <path
       id="path1334"
       d="m 1.1875,0.15625 c -2.3775,3.0779 1.7101,7.6241 2,11.125 4.1609,14.177 1.3281,29.499 2.1875,44.125 -2.0057,6.1778 2.854,8.6207 7.875,10 4.6098,2.7536 5.5604,-3.9984 5.5625,-7.1875 1.043,-18.33 -1.601,-37.121 -8.093,-54.249 C 8.2024,1.73695 4.5008,0.34965 1.188,0.15695 Z"
       style="color:#000000;fill:#ff6b5e"
       transform="matrix(0.71429,0,0,0.71429,490.96,197.22)"
       inkscape:connector-curvature="0" />
    <path
       id="path1336"
       d="m 291.03,0.34375 c -4.78,7.0302 -6.07,16.405 -13.33,21.801 -30.96,31.605 -75.53,46.981 -119.17,48.826 -40.58,1.561 -83.522,-4 -117.59,-27.283 -13.855,-9.777 -26.308,-23.229 -31.628,-39.532 -3.2748,-3.2366 -10.697,-0.6415 -8.4682,4.6252 3.8401,13.912 12.076,26.341 20.781,37.688 11.745,11.062 28.142,15.069 42.531,21.656 23.468,9.7768 48.889,15.487 74.5,14.735 21.466,0.58412 43.206,-0.03268 63.688,-7.1097 23.528,-7.5357 46.725,-17.401 67.392,-30.821 10.44,-8.566 20.63,-18.221 27.38,-29.991 -0.16,-3.112 -3.01,-5.5287 -2.68,-8.9692 -0.45,-1.7966 -0.43,-6.5345 -3.41,-5.625 z"
       style="color:#000000;fill:#e2e0f7"
       transform="matrix(0.71429,0,0,0.71429,332.39,386.5)"
       inkscape:connector-curvature="0" />
    <path
       id="path1376"
       d="m 7.0625,0.34375 c -2.9283,5.0586 -2.0906,12.19 -3.6828,17.951 -0.6303,6.18 -2.6059,12.357 -3.0047,18.424 3.7225,0.225 12.007,2.333 12.375,-3.719 1.211,-9.955 3.759,-20.136 3.062,-30.25 -1.594,-2.8107 -6.0551,-2.1184 -8.7495,-2.4062 z"
       style="color:#000000;fill:#ffffff"
       transform="matrix(0.71429,0,0,0.71429,543.82,347.93)"
       inkscape:connector-curvature="0" />
    <path
       id="path950"
       style="fill:none;stroke:#010101;stroke-width:2.564;stroke-linecap:round;stroke-linejoin:round;stroke-miterlimit:11.5"
       d="m 35.979,119.87 c 0,0 0.909,-28.229 3.646,-35.521 2.733,-7.285 12.75,-4.551 12.75,-4.551 0,0 -7.289,11.84 -9.104,30.051 -1.187,11.78 0.906,14.57 -7.292,10.02 z"
       transform="translate(295.94,180.54)"
       inkscape:connector-curvature="0"
       stroke-miterlimit="11.5" />
  </g>
</svg>
