<?xml version="1.0" encoding="UTF-8" standalone="no"?>
<svg
   width="128"
   height="128"
   style="enable-background:new 0 0 128 128;"
   version="1.1"
   id="svg4565"
   inkscape:version="1.1-rc (52f87ab, 2021-05-02)"
   inkscape:export-xdpi="96"
   inkscape:export-ydpi="96"
   sodipodi:docname="santa-gklaus.svg"
   xmlns:inkscape="http://www.inkscape.org/namespaces/inkscape"
   xmlns:sodipodi="http://sodipodi.sourceforge.net/DTD/sodipodi-0.dtd"
   xmlns="http://www.w3.org/2000/svg"
   xmlns:svg="http://www.w3.org/2000/svg"
   xmlns:rdf="http://www.w3.org/1999/02/22-rdf-syntax-ns#"
   xmlns:cc="http://creativecommons.org/ns#"
   xmlns:dc="http://purl.org/dc/elements/1.1/">
  <metadata
     id="metadata4571">
    <rdf:RDF>
      <cc:Work
         rdf:about="">
        <dc:format>image/svg+xml</dc:format>
        <dc:type
           rdf:resource="http://purl.org/dc/dcmitype/StillImage" />
      </cc:Work>
    </rdf:RDF>
  </metadata>
  <defs
     id="defs4569">
    <filter
       inkscape:collect="always"
       style="color-interpolation-filters:sRGB"
       id="filter1767"
       x="-0.12099421"
       width="1.2419884"
       y="-0.119022"
       height="1.238044">
      <feGaussianBlur
         inkscape:collect="always"
         stdDeviation="1.8834039"
         id="feGaussianBlur1769" />
    </filter>
  </defs>
  <sodipodi:namedview
     pagecolor="#ffffff"
     bordercolor="#666666"
     borderopacity="1"
     objecttolerance="3"
     gridtolerance="3"
     guidetolerance="3"
     inkscape:pageopacity="0"
     inkscape:pageshadow="2"
     inkscape:window-width="1920"
     inkscape:window-height="1080"
     id="namedview4567"
     showgrid="false"
     inkscape:zoom="5.6568544"
     inkscape:cx="121.79914"
     inkscape:cy="54.800774"
     inkscape:window-x="0"
     inkscape:window-y="0"
     inkscape:window-maximized="0"
     inkscape:current-layer="svg4565"
     inkscape:pagecheckerboard="0" />
  <g
     id="g1605"
     style="fill:#000000;fill-opacity:1;opacity:0.30000001;filter:url(#filter1767)">
    <path
       style="fill:#000000;fill-opacity:1;stroke:none;stroke-width:0.22943181;stroke-miterlimit:4;stroke-dasharray:none;stroke-opacity:1"
       d="m 31.451578,73.839852 c -2.170812,-0.01697 -4.167028,1.338566 -4.934066,3.167705 -0.77324,-1.845078 -2.798566,-3.20535 -4.991559,-3.164678 -1.20128,0.02233 -2.452866,0.464065 -3.577824,1.478666 -0.911892,0.822233 -1.419752,1.90872 -1.940015,3.005763 -1.192536,1.545123 -2.787925,2.698859 -5.100648,3.152571 0.556516,0.437911 1.163357,0.665435 1.801442,0.759765 -1.128297,0.537803 -2.670173,0.834487 -4.8721497,0.74009 1.6320238,1.808734 4.1851187,2.424657 6.8593387,2.37313 4.827064,-0.160764 7.270337,-2.289687 8.700585,-4.457187 l 1.289904,0.63566 c 0.95784,0.47202 2.198418,0.494356 3.200435,0 l 1.288429,-0.63566 c 1.566356,2.373813 5.289835,4.736 10.995876,4.882474 1.199294,-0.02061 2.377765,-0.249604 3.624998,-0.777927 -1.178463,0.0081 -2.184677,-0.07417 -3.063337,-0.236102 1.855585,-0.352857 3.464654,-1.154455 4.46233,-2.609233 -8.15217,1.460618 -7.182107,-4.191865 -10.11137,-6.833344 -1.142449,-1.030127 -2.414633,-1.472212 -3.632369,-1.481693 z"
       id="path1601"
       inkscape:connector-curvature="0"
       sodipodi:nodetypes="ccccccccccssccccccc" />
    <path
       style="fill:#000000;fill-opacity:1;stroke:none;stroke-width:0.30000001;stroke-miterlimit:4;stroke-dasharray:none;stroke-opacity:1"
       d="m 23.726801,81.393472 c -2.23171,2.992364 -6.229282,5.845915 -13.021484,6.0625 -2.11e-4,0.02128 0,0.04318 0,0.06445 0,0.537901 0.137503,1.187238 0.386719,1.921875 l -0.02539,-0.04102 3.107422,10.18555 0.486328,-3.42579 c 1.800652,2.78925 3.968304,5.745113 5.955078,8.332043 l 0.171875,-4.08985 c 0.614086,3.41465 2.177066,6.51037 4.113281,9.48438 0.983485,1.19753 1.607422,1.92968 1.607422,1.92968 0,0 0.732376,-0.85868 1.882813,-2.26562 0.0074,-0.009 0.01628,-0.0185 0.02344,-0.0273 2.186694,-2.90965 4.007731,-5.96392 4.890625,-9.39063 l -0.111328,3.32031 c 0.984012,-1.30029 1.992313,-2.66856 2.964844,-4.048823 v 2.525393 l 4.269531,-9.232425 c 1.040365,-1.91373 1.738875,-3.596628 1.859375,-4.818363 -6.563497,-0.665597 -11.207146,-3.406303 -13.566406,-6.486328 -1.671164,-0.447787 -3.246284,-0.46837 -4.994145,-3.2e-5 z"
       id="path1603"
       inkscape:connector-curvature="0"
       sodipodi:nodetypes="ccscccccccccccccccccc" />
  </g>
  <g
     id="g4563"
     transform="matrix(0.7784667,0,0,0.7784667,9.2272993,16.280963)">
    <path
       d="m 40.1,37.83 c 0,0 2.55,-1.48 3.98,-2.12 l 22.24,8.18 35.97,0.97 c 0,0 2.7,2.8 3.5,3.76 l 6.53,18.74 5.27,2.11 c 0,0 1.21,3.62 1.55,4.99 L 118.05,83.1 65.91,96.03 24.04,85.76 24.17,60.02 36.97,43.35 Z"
       style="fill:#2f2f2f"
       id="path4529"
       inkscape:connector-curvature="0" />
    <g
       id="g4561">
      <g
         id="g4539">
        <path
           d="m 73.14,59.57 c -0.1,5.06 -0.38,19.6 -0.28,28.04 1.67,0.04 3.5,-0.05 5.52,-0.26 2.7,-0.27 5.52,-0.81 8.24,-1.33 l 1.73,-0.33 c 2.79,-0.53 5.37,-1.19 7.89,-2.02 3.89,-1.28 8.19,-2.93 12.07,-5.32 -2.85,-9.93 -7.96,-17.38 -9.6,-19.61 -11,-0.87 -21.54,0.29 -25.57,0.83 z"
           style="fill:#757f3f"
           id="path4531"
           inkscape:connector-curvature="0" />
        <path
           d="m 102.38,56.52 c 1.95,2.67 6.63,9.73 9.61,19.22 2.18,-1.81 4.06,-3.97 5.5,-6.52 -1.34,-3.73 -2.96,-7.35 -4.9,-10.8 -1.95,-3.46 -4.22,-6.77 -6.79,-9.81 -0.95,3.11 -2.46,6.15 -3.42,7.91 z"
           style="fill:#757f3f"
           id="path4533"
           inkscape:connector-curvature="0" />
        <path
           d="m 45.2,42.69 c 4.26,1.63 18.85,7.43 26.39,12.78 3.25,-0.48 14.69,-1.96 27.04,-1.02 1.6,-2.95 3.28,-6.91 3.65,-9.6 C 102.13,44.7 102,44.54 101.85,44.4 96.72,39.58 90.22,36.93 83.66,34.71 74.5,31.61 64.53,30.52 54.98,32.23 c -3.78,0.68 -7.43,1.85 -10.9,3.48 z"
           style="fill:#757f3f"
           id="path4535"
           inkscape:connector-curvature="0" />
        <path
           d="m 119.11,74.49 c -1.99,2.55 -4.4,4.67 -6.98,6.43 -0.05,0.04 -0.11,0.07 -0.15,0.11 -4.74,3.2 -10.03,5.26 -14.4,6.69 -2.7,0.89 -5.45,1.6 -8.43,2.16 l -1.73,0.33 c -2.82,0.54 -5.72,1.1 -8.61,1.4 -1.7,0.17 -3.46,0.31 -5.23,0.31 -5.28,0 -10.58,-1.24 -14.45,-6.53 -1.56,-2.15 -3.3,-3.96 -5.15,-5.38 l -0.77,-0.6 c -1.17,-0.93 -3.36,-2.67 -4.49,-2.7 l 0.11,-4.27 c 2.56,0.07 5.15,2.12 7.04,3.62 l 0.7,0.55 c 2.17,1.66 4.2,3.76 6.01,6.25 1.63,2.23 3.62,3.5 6.01,4.17 -0.08,-9.02 0.21,-24.02 0.3,-28.24 -7.32,-5.13 -22.04,-10.92 -25.55,-12.26 -1.38,0.85 -4.94,3.81 -9.13,8.08 -0.42,0.43 -0.98,0.64 -1.53,0.64 -0.54,0 -1.08,-0.2 -1.49,-0.61 -0.84,-0.82 -0.86,-2.17 -0.03,-3.02 2.65,-2.69 6.85,-6.76 9.79,-8.58 L 40.1,37.82 c -7.16,4.28 -14.23,10.92 -18.48,18.64 -4.26,7.71 -5.7,16.48 -1.64,24.97 1.33,2.75 4,7.37 6.68,8.97 2.37,1.42 4.88,2.63 7.44,3.69 2.27,0.94 4.19,2.12 6.52,2.8 2.08,0.62 4.23,1.29 6.34,1.76 2.13,0.48 4.34,0.63 6.48,1.03 1.9,0.35 3.82,0.67 5.74,0.7 9.85,0.13 19.81,0.65 29.48,-1.69 5.88,-1.42 11.71,-3.19 17.24,-5.63 2.8,-1.22 5.53,-2.62 8.1,-4.26 2.09,-1.32 4.84,-2.62 5.93,-4.98 1.15,-2.49 0.17,-5.5 -0.44,-8.02 -0.11,-0.42 -0.26,-0.87 -0.38,-1.31 z"
           style="fill:#757f3f"
           id="path4537"
           inkscape:connector-curvature="0" />
      </g>
      <g
         id="g4559">
        <path
           d="m 29.95,98.37 c -0.98,-0.58 -2.38,-0.78 -4.28,-1.05 -2.5,-0.35 -5.22,-1.05 -7.72,-0.6 -2.15,0.39 -2.38,0.94 -3.08,2.93 -1.09,3.13 -4.26,12.51 -1.8,15.47 0.61,0.73 2.03,0.99 2.9,1.25 2.51,0.76 5.18,0.93 7.82,1.11 2.25,0.15 4.47,-0.26 6.62,-0.86 1.61,-0.45 2.32,-0.83 2.45,-2.61 0.29,-3.8 -0.56,-7.55 -0.9,-11.32 -0.24,-2.44 -0.84,-3.64 -2.01,-4.32 z"
           style="fill:#bdcf46"
           id="path4541"
           inkscape:connector-curvature="0" />
        <g
           id="g4547">
          <path
             d="m 116.78,87.1 c -0.93,0.62 -1.92,1.17 -2.79,1.72 -2.57,1.63 -5.3,3.03 -8.1,4.26 -5.53,2.44 -11.36,4.21 -17.24,5.63 -9.67,2.34 -19.63,1.82 -29.48,1.69 -1.93,-0.03 -3.85,-0.35 -5.74,-0.7 -0.53,-0.1 -1.05,-0.18 -1.58,-0.26 l 0.52,5.55 c 0,0 1.88,0.14 5.24,-0.07 -0.65,6.43 -0.86,13.37 0.78,14.69 0.74,0.6 2.31,0.71 3.27,0.87 2.82,0.47 5.74,0.4 8.64,0.35 2.47,-0.04 4.85,-0.58 7.13,-1.28 1.71,-0.52 2.45,-0.9 2.42,-2.47 -0.03,-2.01 -0.71,-8.47 -1.4,-14 6.34,-0.83 14.15,-2.4 21.21,-5.33 0.1,2.22 0.19,4.12 0.18,4.51 -0.06,1.53 -0.08,3.62 1.27,4.8 3.76,3.31 13.07,1.38 17.39,-0.06 3.22,-1.06 2.23,-4.81 1.59,-7 -0.37,-1.31 -1.86,-8.13 -3.31,-12.9 z"
             style="fill:#bdcf46"
             id="path4543"
             inkscape:connector-curvature="0" />
          <path
             d="m 127.07,64.28 c -1.68,-1.58 -4.44,0.46 -5.98,1.28 -1.38,0.74 -2.75,1.47 -4.15,2.16 1.01,2.65 1.89,5.35 2.55,8.11 0.3,1.23 0.68,2.58 0.87,3.93 0.05,-0.06 0.1,-0.12 0.15,-0.17 0.51,-0.58 0.97,-1.17 1.42,-1.8 1.75,-2.48 3.08,-5.22 4.51,-7.88 0.69,-1.33 1.96,-4.37 0.63,-5.63 z"
             style="fill:#bdcf46"
             id="path4545"
             inkscape:connector-curvature="0" />
        </g>
        <g
           id="g4557">
          <path
             d="m 52.38,104.99 c -1.13,0.04 -2.27,0.03 -3.44,0.03 -8.33,0 -16.27,-0.22 -24.47,-2.08 C 12.02,100.13 2.32,92.68 0.63,79.36 -0.41,71.15 1.25,61.42 7.59,55.67 c 5.95,-5.4 16.65,-6.89 23.98,-4.4 8.54,2.92 14.76,9.94 18.31,18.04 2.73,6.24 4.58,11.84 5.73,18.57 0.17,1.03 2.06,16.6 -0.15,16.89 -1.02,0.12 -2.05,0.19 -3.08,0.22 z"
             style="fill:#bdcf46"
             id="path4549"
             inkscape:connector-curvature="0" />
          <path
             d="m 30.25,63.47 c 2.46,-0.44 4.87,1.46 5.38,4.26 0.51,2.79 -1.07,5.43 -3.53,5.88 -2.45,0.44 -4.86,-1.46 -5.38,-4.25 -0.51,-2.8 1.07,-5.43 3.53,-5.89 z"
             style="fill:#2f2f2f"
             id="path4551"
             inkscape:connector-curvature="0" />
          <path
             d="m 7.74,67.17 c 0.7,-2.75 3.25,-4.48 5.66,-3.86 2.42,0.62 3.81,3.36 3.11,6.11 -0.71,2.75 -3.24,4.48 -5.66,3.86 C 8.44,72.65 7.04,69.92 7.74,67.17 Z"
             style="fill:#2f2f2f"
             id="path4553"
             inkscape:connector-curvature="0" />
          <path
             d="m 23.8,79.29 c -1.14,0.62 -2.12,1.28 -3.45,0.79 -0.77,-0.28 -1.5,-0.5 -2.17,-1 -0.48,-0.35 -1.02,-0.64 -1.5,-0.99 -0.25,-0.18 -0.49,-0.37 -0.74,-0.55 -0.28,-0.21 -0.38,-0.3 -0.74,-0.35 -0.29,-0.03 -0.86,-0.05 -1.08,0.19 -0.94,1.05 0.38,2.61 1.09,3.32 1.06,1.03 2.57,2.2 3.96,2.8 1.36,0.59 2.71,1.3 4.16,0.58 1.59,-0.8 2.97,-1.96 4.37,-3.03 0.92,-0.7 2.98,-1.93 2.62,-3.3 -0.25,-1 -1.41,-0.79 -2.17,-0.55 -0.96,0.29 -1.82,0.78 -2.71,1.23 -0.55,0.27 -1.09,0.57 -1.64,0.86 z"
             style="fill:#2f2f2f"
             id="path4555"
             inkscape:connector-curvature="0" />
        </g>
      </g>
    </g>
  </g>
  <g
     id="layer1"
     transform="matrix(-0.18739525,0.0153173,0.01361549,0.16657492,114.06689,-1.4592765)">
    <path
       inkscape:connector-curvature="0"
       d="m 234.10295,28.783327 c -58.63226,16.30708 -104.38093,58.766577 -152.411503,93.883043 -11.661678,15.50724 -45.333573,22.24371 -38.522482,45.91018 8.392089,20.66201 32.938837,18.33147 50.123977,12.05271 21.882208,-3.16669 46.259138,-2.08113 65.093938,10.82323 -2.58605,25.46673 -10.27291,50.42173 -12.14259,75.8011 0.26986,17.81325 15.4257,15.23134 20.52301,1.96171 26.43927,-15.07268 57.25165,-10.63219 85.99945,-12.15601 34.3342,-6.92983 67.15448,-21.54071 102.72681,-21.79889 18.15542,-4.25946 52.1488,-1.40744 48.26821,-28.81386 -6.78746,-30.66502 -27.39338,-55.34908 -40.44295,-83.38663 C 343.21645,89.876235 317.39215,59.477348 286.33021,36.134984 271.12099,25.383645 251.66261,21.311253 234.10295,28.783327 Z"
       style="fill:#d00000;fill-opacity:1;fill-rule:evenodd;stroke:#000000;stroke-width:0.833495px;stroke-linecap:butt;stroke-linejoin:miter;stroke-opacity:1"
       id="path1309" />
    <path
       inkscape:connector-curvature="0"
       d="m 166.95567,93.343683 c -18.23272,4.41659 -33.84758,62.691407 -56.31899,72.821827 -14.697321,6.62576 -54.749039,16.69269 -51.188115,18.4085 9.241286,4.45282 24.304529,-3.44276 31.177964,-3.91429 22.307191,-1.53031 45.167011,-4.49872 67.760351,10.79277 -4.18054,4.22051 2.45801,-0.32326 -6.08769,36.69347 -3.01352,13.05342 -9.59873,46.91908 -1.50714,53.3804 8.03941,6.41966 12.94944,-18.60581 20.93693,-14.77435 -0.004,0.006 -0.002,0.0211 -0.005,0.0264 -0.002,0.005 -0.004,0.0222 -0.005,0.0264 4.7e-4,0.004 -0.006,0.0233 -0.005,0.0264 0.003,0.003 0.0211,0.003 0.0249,0.005 0.0243,0.007 0.0777,0.004 0.12879,-0.002 0.015,0.007 0.0346,0.002 0.0497,0.01 0.0565,0.0271 0.1079,0.0591 0.16488,0.0866 l 0.0475,-0.12728 c 3.78138,-0.97727 33.26276,-13.96581 60.17617,-8.74298 15.17141,2.94415 39.36936,-5.30957 53.29004,-9.61521 22.07602,-6.82803 53.06775,-12.99841 72.72796,-13.35072 14.48306,-0.25953 27.58714,-8.45898 41.52062,-9.41484 8.22039,-0.56393 -51.08531,4.52064 -27.44964,-12.57577 10.48531,-7.58433 -104.98388,15.80767 -149.31404,-34.77677 -43.89537,-50.0883 -37.45534,-89.505577 -56.12656,-84.982777 z"
       style="opacity:0.10112359;fill:#0e0000;fill-opacity:1;fill-rule:evenodd;stroke:none;stroke-width:1px;stroke-linecap:butt;stroke-linejoin:miter;stroke-opacity:1"
       id="path5882" />
    <path
       inkscape:connector-curvature="0"
       d="m 370.52395,221.8307 c -17.05161,-3.72801 -36.60935,-9.00023 -50.65037,1.91715 -12.47187,-6.71296 -27.96313,-4.14686 -37.52379,4.72286 -8.97711,-10.00267 -15.18416,9.1818 -24.47516,-0.0134 -11.46909,3.07942 -18.95646,21.13454 -31.33098,9.93485 -8.15588,3.45498 -14.94655,8.98437 -17.01676,-2.56882 -15.23698,-6.79365 -18.17188,17.43694 -34.1433,14.27023 -7.20671,6.21905 -11.34153,23.2384 -20.78833,21.20144 -6.2272,8.03485 -16.74473,12.00111 -12.45069,24.13293 0.26771,11.51689 12.55557,15.27494 19.44641,9.63242 2.30077,11.37997 15.94714,-10.65602 15.44415,2.61682 10.83512,-8.08239 18.19387,-20.56684 32.08361,-14.21384 8.55561,-3.62924 12.23226,-10.42049 16.71622,1.63354 10.29414,2.19906 25.60044,-11.89061 29.0377,-15.09226 8.95148,-14.91997 25.51513,0.90678 38.19173,-1.56756 10.01451,-3.56837 10.46517,-20.80169 25.10421,-13.51378 11.08261,-2.91798 30.99994,7.65901 31.1885,-9.3086 8.72079,-1.19462 16.52625,0.2094 22.88368,-7.37281 13.78079,2.71758 26.71323,-7.13803 39.49792,-5.11356 2.68632,-5.50996 -1.55596,-14.14322 6.82462,-13.63661 7.03521,-19.45689 -24.76784,-36.06368 -29.85639,-12.69689 -5.85858,-4.13613 -16.36293,-2.75204 -22.71638,1.77624"
       style="fill:#ffffff;fill-opacity:1;fill-rule:evenodd;stroke:#000000;stroke-width:0.601426px;stroke-linecap:butt;stroke-linejoin:miter;stroke-opacity:1"
       id="path1307" />
    <path
       inkscape:connector-curvature="0"
       d="m 155.67981,210.88831 c 3.14012,-40.84748 23.78547,-59.45023 20.15126,-92.12062 -2.14808,-19.310467 -19.537,-4.67273 -13.86936,13.44173"
       style="fill:none;fill-opacity:0.75;fill-rule:evenodd;stroke:#000000;stroke-width:0.83349466px;stroke-linecap:butt;stroke-linejoin:miter;stroke-opacity:1"
       id="path3126" />
    <path
       inkscape:connector-curvature="0"
       d="m 46.944746,146.2449 c -4.138424,-4.3295 -9.919991,-9.42043 -15.068963,-3.06986 -4.68641,1.98365 -5.475713,5.40788 -9.204604,5.79565 -7.657829,4.20604 0.09024,14.39587 -7.686163,18.01623 1.472564,6.50253 -4.886872,10.76567 -4.697509,16.96103 -1.3517121,5.36926 0.301284,10.82135 2.608705,15.71855 2.000269,5.30506 8.399498,6.44906 11.084768,11.17046 4.544594,3.72356 11.013331,0.43212 15.355729,4.77096 6.660527,5.90603 9.15095,-5.19512 14.166312,-5.41016 5.596902,4.15575 9.507593,-5.13502 14.004871,-7.4595 4.840052,-4.23906 10.103597,-16.20434 2.793302,-19.83956 -1.627312,-2.17156 1.922586,-7.1945 -3.888142,-7.4999 -8.594333,-1.20105 -0.142712,-9.27787 -5.033469,-13.7364 -3.959816,-4.26387 -6.804878,-10.17937 -12.725548,-12.05194 -0.98505,-0.58382 -2.444542,-6.93631 -1.426312,-2.61205"
       style="fill:#ffffff;fill-opacity:1;fill-rule:evenodd;stroke:#000000;stroke-width:0.813602;stroke-linecap:butt;stroke-linejoin:miter;stroke-miterlimit:4;stroke-dasharray:none;stroke-opacity:1"
       id="path2251" />
  </g>
  <g
     id="g1599">
    <path
       sodipodi:nodetypes="ccccccccccssccccccc"
       inkscape:connector-curvature="0"
       id="path1519"
       d="m 31.451578,73.839852 c -2.170812,-0.01697 -4.167028,1.338566 -4.934066,3.167705 -0.77324,-1.845078 -2.798566,-3.20535 -4.991559,-3.164678 -1.20128,0.02233 -2.452866,0.464065 -3.577824,1.478666 -0.911892,0.822233 -1.419752,1.90872 -1.940015,3.005763 -1.192536,1.545123 -2.787925,2.698859 -5.100648,3.152571 0.556516,0.437911 1.163357,0.665435 1.801442,0.759765 -1.128297,0.537803 -2.670173,0.834487 -4.8721497,0.74009 1.6320238,1.808734 4.1851187,2.424657 6.8593387,2.37313 4.827064,-0.160764 7.270337,-2.289687 8.700585,-4.457187 l 1.289904,0.63566 c 0.95784,0.47202 2.198418,0.494356 3.200435,0 l 1.288429,-0.63566 c 1.566356,2.373813 5.289835,4.736 10.995876,4.882474 1.199294,-0.02061 2.377765,-0.249604 3.624998,-0.777927 -1.178463,0.0081 -2.184677,-0.07417 -3.063337,-0.236102 1.855585,-0.352857 3.464654,-1.154455 4.46233,-2.609233 -8.15217,1.460618 -7.182107,-4.191865 -10.11137,-6.833344 -1.142449,-1.030127 -2.414633,-1.472212 -3.632369,-1.481693 z"
       style="fill:#ffffff;fill-opacity:1;stroke:none;stroke-width:0.22943181;stroke-miterlimit:4;stroke-dasharray:none;stroke-opacity:1" />
    <path
       sodipodi:nodetypes="ccscccccccccccccccccc"
       inkscape:connector-curvature="0"
       id="path1413"
       d="m 23.726801,81.393472 c -2.23171,2.992364 -6.229282,5.845915 -13.021484,6.0625 -2.11e-4,0.02128 0,0.04318 0,0.06445 0,0.537901 0.137503,1.187238 0.386719,1.921875 l -0.02539,-0.04102 3.107422,10.18555 0.486328,-3.42579 c 1.800652,2.78925 3.968304,5.745113 5.955078,8.332043 l 0.171875,-4.08985 c 0.614086,3.41465 2.177066,6.51037 4.113281,9.48438 0.983485,1.19753 1.607422,1.92968 1.607422,1.92968 0,0 0.732376,-0.85868 1.882813,-2.26562 0.0074,-0.009 0.01628,-0.0185 0.02344,-0.0273 2.186694,-2.90965 4.007731,-5.96392 4.890625,-9.39063 l -0.111328,3.32031 c 0.984012,-1.30029 1.992313,-2.66856 2.964844,-4.048823 v 2.525393 l 4.269531,-9.232425 c 1.040365,-1.91373 1.738875,-3.596628 1.859375,-4.818363 -6.563497,-0.665597 -11.207146,-3.406303 -13.566406,-6.486328 -1.671164,-0.447787 -3.246284,-0.46837 -4.994145,-3.2e-5 z"
       style="fill:#ffffff;fill-opacity:1;stroke:none;stroke-width:0.30000001;stroke-miterlimit:4;stroke-dasharray:none;stroke-opacity:1" />
  </g>
  <g
     id="g1775"
     transform="translate(-61.5,-98.5)">
    <path
       style="fill:#ffffff;fill-opacity:1;stroke:none;stroke-width:0.22943181;stroke-miterlimit:4;stroke-dasharray:none;stroke-opacity:1"
       d="m 31.451578,73.839852 c -2.170812,-0.01697 -4.167028,1.338566 -4.934066,3.167705 -0.77324,-1.845078 -2.798566,-3.20535 -4.991559,-3.164678 -1.20128,0.02233 -2.452866,0.464065 -3.577824,1.478666 -0.911892,0.822233 -1.419752,1.90872 -1.940015,3.005763 -1.192536,1.545123 -2.787925,2.698859 -5.100648,3.152571 0.556516,0.437911 1.163357,0.665435 1.801442,0.759765 -1.128297,0.537803 -2.670173,0.834487 -4.8721497,0.74009 1.6320238,1.808734 4.1851187,2.424657 6.8593387,2.37313 4.827064,-0.160764 7.270337,-2.289687 8.700585,-4.457187 l 1.289904,0.63566 c 0.95784,0.47202 2.198418,0.494356 3.200435,0 l 1.288429,-0.63566 c 1.566356,2.373813 5.289835,4.736 10.995876,4.882474 1.199294,-0.02061 2.377765,-0.249604 3.624998,-0.777927 -1.178463,0.0081 -2.184677,-0.07417 -3.063337,-0.236102 1.855585,-0.352857 3.464654,-1.154455 4.46233,-2.609233 -8.15217,1.460618 -7.182107,-4.191865 -10.11137,-6.833344 -1.142449,-1.030127 -2.414633,-1.472212 -3.632369,-1.481693 z"
       id="path1771"
       inkscape:connector-curvature="0"
       sodipodi:nodetypes="ccccccccccssccccccc" />
    <path
       style="fill:#ffffff;fill-opacity:1;stroke:none;stroke-width:0.30000001;stroke-miterlimit:4;stroke-dasharray:none;stroke-opacity:1"
       d="m 23.726801,81.393472 c -2.23171,2.992364 -6.229282,5.845915 -13.021484,6.0625 -2.11e-4,0.02128 0,0.04318 0,0.06445 0,0.537901 0.137503,1.187238 0.386719,1.921875 l -0.02539,-0.04102 3.107422,10.18555 0.486328,-3.42579 c 1.800652,2.78925 3.968304,5.745113 5.955078,8.332043 l 0.171875,-4.08985 c 0.614086,3.41465 2.177066,6.51037 4.113281,9.48438 0.983485,1.19753 1.607422,1.92968 1.607422,1.92968 0,0 0.732376,-0.85868 1.882813,-2.26562 0.0074,-0.009 0.01628,-0.0185 0.02344,-0.0273 2.186694,-2.90965 4.007731,-5.96392 4.890625,-9.39063 l -0.111328,3.32031 c 0.984012,-1.30029 1.992313,-2.66856 2.964844,-4.048823 v 2.525393 l 4.269531,-9.232425 c 1.040365,-1.91373 1.738875,-3.596628 1.859375,-4.818363 -6.563497,-0.665597 -11.207146,-3.406303 -13.566406,-6.486328 -1.671164,-0.447787 -3.246284,-0.46837 -4.994145,-3.2e-5 z"
       id="path1773"
       inkscape:connector-curvature="0"
       sodipodi:nodetypes="ccscccccccccccccccccc" />
  </g>
</svg>
