<?xml version="1.0" encoding="UTF-8" standalone="no"?>
<svg
   width="512"
   height="512"
   version="1.1"
   id="svg38"
   inkscape:version="1.1.2 (b8e25be833, 2022-02-05)"
   inkscape:export-xdpi="96"
   inkscape:export-ydpi="96"
   sodipodi:docname="classigk.svg"
   inkscape:export-filename="A:\media\turtles\real\fakenews.png"
   xmlns:inkscape="http://www.inkscape.org/namespaces/inkscape"
   xmlns:sodipodi="http://sodipodi.sourceforge.net/DTD/sodipodi-0.dtd"
   xmlns="http://www.w3.org/2000/svg"
   xmlns:svg="http://www.w3.org/2000/svg"
   xmlns:rdf="http://www.w3.org/1999/02/22-rdf-syntax-ns#"
   xmlns:cc="http://creativecommons.org/ns#"
   xmlns:dc="http://purl.org/dc/elements/1.1/">
  <metadata
     id="metadata44">
    <rdf:RDF>
      <cc:Work
         rdf:about="">
        <dc:format>image/svg+xml</dc:format>
        <dc:type
           rdf:resource="http://purl.org/dc/dcmitype/StillImage" />
      </cc:Work>
    </rdf:RDF>
  </metadata>
  <defs
     id="defs42" />
  <sodipodi:namedview
     pagecolor="#ffffff"
     bordercolor="#666666"
     borderopacity="1"
     objecttolerance="10"
     gridtolerance="10"
     guidetolerance="10"
     inkscape:pageopacity="0"
     inkscape:pageshadow="2"
     inkscape:window-width="2560"
     inkscape:window-height="1368"
     id="namedview40"
     showgrid="false"
     inkscape:zoom="0.32593203"
     inkscape:cx="-334.42555"
     inkscape:cy="-437.20772"
     inkscape:window-x="-9"
     inkscape:window-y="-9"
     inkscape:window-maximized="1"
     inkscape:current-layer="svg38"
     inkscape:pagecheckerboard="0" />
  <path
     d="m 180.41771,1277.4556 c 0,0 7.22052,-4.1907 11.26967,-6.0029 l 62.97418,23.1623 101.85169,2.7466 c 0,0 7.64524,7.9284 9.9105,10.6467 l 18.49017,53.0637 14.92239,5.9746 c 0,0 3.42621,10.2503 4.38894,14.1295 l -3.08641,24.4648 -147.63822,36.6123 -118.55797,-29.0803 0.3681,-72.8847 36.24414,-47.2023 z"
     style="fill:#2f2f2f;stroke-width:1"
     id="path909"
     inkscape:connector-curvature="0"
     inkscape:export-xdpi="68.17437"
     inkscape:export-ydpi="68.17437" />
  <path
     d="m 273.97289,1339.014 c -0.28316,14.3278 -1.076,55.4989 -0.79284,79.3973 4.72873,0.1133 9.9105,-0.1415 15.63028,-0.7362 7.64525,-0.7645 15.63029,-2.2935 23.33216,-3.766 l 4.89863,-0.9344 c 7.90009,-1.5007 15.20554,-3.3696 22.34111,-5.7198 11.01482,-3.6244 23.19058,-8.2965 34.17709,-15.0639 -8.06999,-28.1176 -22.53933,-49.2128 -27.18311,-55.5272 -31.1473,-2.4634 -60.99208,0.8212 -72.40332,2.3502 z"
     style="fill:#1c6399;fill-opacity:1;stroke-width:1"
     id="path911"
     inkscape:connector-curvature="0"
     inkscape:export-xdpi="68.17437"
     inkscape:export-ydpi="68.17437" />
  <path
     d="m 356.76809,1330.3777 c 5.52156,7.5603 18.77333,27.5512 27.21141,54.4229 6.17283,-5.1252 11.49619,-11.2414 15.57366,-18.4619 -3.79431,-10.5618 -8.38146,-20.8121 -13.87471,-30.581 -5.52157,-9.7972 -11.94924,-19.1697 -19.22638,-27.7777 -2.69,8.8062 -6.96567,17.4142 -9.68398,22.3977 z"
     style="fill:#1c6399;fill-opacity:1;stroke-width:1"
     id="path913"
     inkscape:connector-curvature="0"
     inkscape:export-xdpi="68.17437"
     inkscape:export-ydpi="68.17437" />
  <path
     d="m 194.85874,1291.2171 c 12.0625,4.6154 53.37515,21.0386 74.72521,36.1875 9.20261,-1.3592 41.59581,-5.5499 76.56574,-2.8882 4.53051,-8.3532 9.28756,-19.5662 10.33524,-27.1831 -0.42474,-0.4248 -0.79284,-0.8778 -1.21758,-1.2742 -14.52597,-13.6482 -32.93119,-21.1519 -51.50631,-27.438 -25.93721,-8.7779 -54.16799,-11.8643 -81.20952,-7.0223 -10.70334,1.9255 -21.03859,5.2384 -30.86414,9.8539 z"
     style="fill:#1c6399;fill-opacity:1;stroke-width:1"
     id="path915"
     inkscape:connector-curvature="0"
     inkscape:export-xdpi="68.17437"
     inkscape:export-ydpi="68.17437" />
  <path
     d="m 404.1403,1381.2611 c -5.63483,7.2205 -12.45892,13.2234 -19.76438,18.207 -0.14157,0.1133 -0.31147,0.1982 -0.42473,0.3115 -13.42166,9.061 -28.40068,14.8941 -40.77465,18.9432 -7.64525,2.5201 -15.43208,4.5305 -23.87017,6.1162 l -4.89862,0.9344 c -7.98503,1.5291 -16.19659,3.1148 -24.37984,3.9642 -4.81368,0.4814 -9.79724,0.8778 -14.80913,0.8778 -14.9507,0 -29.95804,-3.5111 -40.91623,-18.4902 -4.41725,-6.0878 -9.34419,-11.213 -14.5826,-15.2338 l -2.18031,-1.699 c -3.31294,-2.6333 -9.51409,-7.5603 -12.71377,-7.6452 l 0.31148,-12.0908 c 7.24882,0.1982 14.5826,6.0029 19.93427,10.2503 l 1.9821,1.5573 c 6.14452,4.7004 11.89261,10.6467 17.01776,17.6974 4.61546,6.3144 10.25029,9.9105 17.01775,11.8076 -0.22652,-25.5408 0.59463,-68.0144 0.84947,-79.9636 -20.72711,-14.526 -62.40787,-30.9208 -72.34669,-34.7151 -3.90757,2.4068 -13.98797,10.7883 -25.85226,22.8791 -1.18926,1.2176 -2.77494,1.8122 -4.33231,1.8122 -1.52905,0 -3.0581,-0.5663 -4.21904,-1.7272 -2.37852,-2.3219 -2.43515,-6.1445 -0.0849,-8.5514 7.50367,-7.6169 19.39628,-19.1414 27.7211,-24.2949 l -2.40684,-14.7808 c -20.27406,12.1191 -40.29328,30.9208 -52.32747,52.7805 -12.0625,21.8315 -16.13996,46.6644 -4.64378,70.7044 3.766,7.7868 11.3263,20.8687 18.91491,25.3992 6.71083,4.0209 13.81808,7.4471 21.06691,10.4485 6.42767,2.6617 11.86429,6.003 18.46185,7.9284 5.88967,1.7556 11.97756,3.6528 17.95218,4.9836 6.03125,1.3592 12.28902,1.7839 18.34859,2.9165 5.37999,0.9911 10.81661,1.8972 16.25323,1.9821 27.89099,0.3681 56.09346,1.8405 83.47477,-4.7853 16.64965,-4.0209 33.15773,-9.0328 48.81632,-15.9418 7.92841,-3.4545 15.6586,-7.4187 22.93575,-12.0625 5.91798,-3.7377 13.70481,-7.4187 16.79122,-14.1012 3.25631,-7.0506 0.48137,-15.5737 -1.24589,-22.7092 -0.31147,-1.1893 -0.73621,-2.4635 -1.076,-3.7094 z"
     style="fill:#1c6399;fill-opacity:1;stroke-width:1"
     id="path917"
     inkscape:connector-curvature="0"
     inkscape:export-xdpi="68.17437"
     inkscape:export-ydpi="68.17437" />
  <path
     d="m 151.67725,1448.8791 c -2.77494,-1.6424 -6.73915,-2.2087 -12.11914,-2.9732 -7.07893,-0.991 -14.78081,-2.9731 -21.85974,-1.6989 -6.08788,1.1043 -6.73914,2.6616 -8.72125,8.2965 -3.08641,8.8628 -12.062496,35.423 -5.09683,43.8044 1.72726,2.0671 5.7481,2.8033 8.21157,3.5395 7.10724,2.152 14.66754,2.6333 22.1429,3.143 6.37104,0.4248 12.65713,-0.7362 18.74501,-2.4351 4.55883,-1.2742 6.56925,-2.3502 6.93736,-7.3904 0.82115,-10.76 -1.58569,-21.3784 -2.54842,-32.0534 -0.67958,-6.9091 -2.37852,-10.307 -5.69146,-12.2324 z"
     style="fill:#50a5e6;fill-opacity:1;stroke-width:1"
     id="path921"
     inkscape:connector-curvature="0"
     inkscape:export-xdpi="68.17437"
     inkscape:export-ydpi="68.17437" />
  <path
     d="m 397.54274,1416.9672 c -2.63336,1.7556 -5.43662,3.313 -7.90009,4.8703 -7.27714,4.6155 -15.00734,8.5797 -22.93574,12.0625 -15.6586,6.9091 -32.16667,11.921 -48.81632,15.9418 -27.38131,6.6259 -55.58378,5.1535 -83.47478,4.7854 -5.46493,-0.085 -10.90155,-0.9911 -16.25323,-1.9821 -1.50073,-0.2832 -2.97315,-0.5097 -4.47388,-0.7363 l 1.47242,15.7153 c 0,0 5.32335,0.3964 14.83744,-0.1982 -1.84052,18.207 -2.43515,37.8581 2.20863,41.5958 2.09536,1.6989 6.54093,2.0104 9.25924,2.4634 7.98504,1.3309 16.25323,1.1327 24.46479,0.9911 6.99399,-0.1133 13.73313,-1.6423 20.18912,-3.6244 4.84199,-1.4724 6.93735,-2.5484 6.85241,-6.994 -0.0849,-5.6915 -2.01042,-23.9834 -3.96421,-39.642 17.95218,-2.3502 40.06676,-6.7958 60.05767,-15.0923 0.28316,6.2861 0.538,11.6661 0.50968,12.7704 -0.16989,4.3323 -0.22652,10.2503 3.5961,13.5915 10.64671,9.3725 37.00866,3.9076 49.24106,-0.1699 9.11766,-3.0014 6.3144,-13.6198 4.5022,-19.821 -1.04769,-3.7093 -5.26673,-23.0207 -9.37251,-36.5273 z"
     style="fill:#50a5e6;fill-opacity:1;stroke-width:1"
     id="path923"
     inkscape:connector-curvature="0"
     inkscape:export-xdpi="68.17437"
     inkscape:export-ydpi="68.17437" />
  <path
     d="m 426.67963,1352.3507 c -4.75705,-4.4739 -12.57219,1.3026 -16.93281,3.6244 -3.90757,2.0954 -7.78683,4.1625 -11.75103,6.1162 2.85989,7.5037 5.35167,15.149 7.22051,22.9641 0.84947,3.4828 1.92547,7.3055 2.46347,11.1281 0.14158,-0.1699 0.28316,-0.3398 0.42474,-0.4814 1.4441,-1.6423 2.74662,-3.3129 4.02083,-5.0968 4.95525,-7.0223 8.72125,-14.7808 12.7704,-22.3128 1.95378,-3.766 5.54988,-12.374 1.78389,-15.9418 z"
     style="fill:#50a5e6;fill-opacity:1;stroke-width:1"
     id="path925"
     inkscape:connector-curvature="0"
     inkscape:export-xdpi="68.17437"
     inkscape:export-ydpi="68.17437" />
  <path
     d="m 215.18943,1467.6241 c -3.19968,0.1132 -6.42767,0.085 -9.74061,0.085 -23.587,0 -46.06969,-0.623 -69.28859,-5.8897 -35.25309,-7.9567 -62.719347,-29.0519 -67.504706,-66.7685 -2.944836,-23.2472 1.755575,-50.7984 19.707749,-67.08 16.847857,-15.2905 47.145687,-19.5095 67.901127,-12.4589 24.18163,8.2682 41.79401,28.1459 51.8461,51.0816 7.73019,17.669 12.9686,33.5258 16.22491,52.5823 0.48137,2.9165 5.83304,47.0041 -0.42473,47.8253 -2.88821,0.3398 -5.80473,0.538 -8.72125,0.6229 z"
     style="fill:#50a5e6;fill-opacity:1;stroke-width:1"
     id="path929"
     inkscape:connector-curvature="0"
     inkscape:export-xdpi="68.17437"
     inkscape:export-ydpi="68.17437" />
  <g
     inkscape:export-xdpi="68.17437"
     inkscape:export-ydpi="68.17437"
     id="g2546">
    <circle
       fill="#ff7892"
       cx="-44.198452"
       cy="299.21609"
       r="16.193108"
       id="circle838"
       style="stroke-width:3.23863" />
    <circle
       fill="#ff7892"
       cx="-116.98647"
       cy="299.65558"
       r="16.193108"
       id="circle840"
       style="stroke-width:3.23863" />
  </g>
  <path
     style="fill:#10395b;fill-opacity:1;stroke:none;stroke-width:1px;stroke-linecap:butt;stroke-linejoin:miter;stroke-opacity:1"
     d="m 139.90193,1229.2549 c 7.88467,-6.1253 28.22306,24.7071 56.741,23.6195 4.6909,-21.4431 13.53447,-52.6467 32.57857,-53.7547 9.75608,-0.5675 21.53067,10.5585 33.12154,10.5881 11.47728,0.029 21.49744,-12.0037 32.85006,-10.3166 20.5459,3.0534 31.22113,53.2117 31.22113,53.2117 29.7607,0.623 44.19719,-30.4071 53.76828,-23.891 38.57222,26.2608 -40.93376,77.6456 -111.85308,77.6456 -91.94852,0 -161.82099,-51.1605 -128.4275,-77.1026 z"
     id="path945"
     inkscape:connector-curvature="0"
     sodipodi:nodetypes="scsascsss"
     inkscape:export-xdpi="68.17437"
     inkscape:export-ydpi="68.17437" />
  <path
     style="fill:#1a5789;fill-opacity:1;stroke:none;stroke-width:1px;stroke-linecap:butt;stroke-linejoin:miter;stroke-opacity:1"
     d="m 212.76964,1251.733 -2.87957,11.1343 c 33.8509,23.8015 74.99669,18.8245 101.55269,-0.384 l -1.3438,-10.7503 c -30.3286,14.9717 -63.49208,22.6547 -97.32932,0 z"
     id="path947"
     inkscape:connector-curvature="0"
     sodipodi:nodetypes="ccccc"
     inkscape:export-xdpi="68.17437"
     inkscape:export-ydpi="68.17437" />
  <path
     style="fill:#1a5789;fill-opacity:1;stroke:none;stroke-width:1px;stroke-linecap:butt;stroke-linejoin:miter;stroke-opacity:1"
     d="m 215.84118,1239.0629 c 0,0 10.3101,-21.5227 20.5409,-24.5723 8.01186,-2.3883 15.63813,7.1125 23.99638,7.2949 9.51166,0.2075 18.66593,-10.2513 27.64383,-7.103 9.74616,3.4178 18.6212,24.7643 18.6212,24.7643 -33.23908,11.7586 -64.20284,14.4159 -90.80231,-0.3839 z"
     id="path949"
     inkscape:connector-curvature="0"
     sodipodi:nodetypes="caaacc"
     inkscape:export-xdpi="68.17437"
     inkscape:export-ydpi="68.17437" />
  <g
     id="g2193"
     transform="translate(-342.37044)"
     inkscape:export-xdpi="68.17437"
     inkscape:export-ydpi="68.17437">
    <path
       fill="#65471b"
       d="m 145.47166,327.87036 c -0.41032,0 -0.82065,-0.0637 -1.23097,-0.19521 -7.01139,-2.27471 -14.40123,-2.27471 -21.41261,0 -2.08748,0.67326 -4.3383,-0.46609 -5.01952,-2.55756 -0.68122,-2.09146 0.4661,-4.33829 2.56155,-5.01951 8.61285,-2.79659 17.7157,-2.79659 26.32854,0 2.09147,0.68122 3.23879,2.92805 2.56155,5.01951 -0.54577,1.67716 -2.1074,2.75277 -3.78854,2.75277 z"
       id="path845"
       style="fill:#36461e;fill-opacity:1;stroke-width:3.98374"
       inkscape:export-xdpi="34.087185"
       inkscape:export-ydpi="34.087185" />
    <path
       fill="#ffffff"
       d="m 182.67582,268.38514 c -3.59732,10.93537 -13.88334,18.78334 -25.87041,18.78334 -0.57366,0 -1.15131,-0.0199 -1.73293,-0.0558 -5.88399,-0.37049 -11.32179,-2.60935 -15.73578,-6.31024 0.14342,1.97195 0.30277,3.97179 0.54179,6.13496 0.60553,5.52943 3.52163,9.88764 8.4296,12.60057 3.26666,1.80862 7.17073,2.74081 11.20626,2.99577 6.90781,0.43423 14.22195,-1.11544 19.41277,-3.62122 5.48561,-2.64918 9.05106,-7.41772 9.78407,-13.08659 0.72902,-5.63699 -1.41025,-11.64845 -6.03537,-17.44081 z"
       id="path847"
       style="stroke-width:3.98374"
       inkscape:export-xdpi="34.087185"
       inkscape:export-ydpi="34.087185" />
    <path
       fill="#65471b"
       d="m 146.88589,250.51806 c -5.16691,2.19106 -7.75634,9.16659 -7.87586,21.07 l 0.15537,0.2709 c 3.57342,5.25455 9.45342,8.85984 16.28553,9.29008 0.45415,0.0279 0.9083,0.0438 1.35846,0.0438 10.49317,0 19.31716,-7.7165 20.92659,-18.02244 -0.45813,-0.41829 -0.88041,-0.84455 -1.36642,-1.25886 -14.7996,-12.62846 -25.76286,-12.97505 -29.48367,-11.3935 z"
       id="path849"
       style="fill:#36461e;fill-opacity:1;stroke-width:3.98374"
       inkscape:export-xdpi="34.087185"
       inkscape:export-ydpi="34.087185" />
    <path
       fill="#f4900c"
       d="m 156.80541,287.16848 c 11.98707,0 22.27309,-7.84797 25.87041,-18.78334 -1.41025,-1.7648 -3.07147,-3.5057 -4.94382,-5.21472 -1.60943,10.30594 -10.43342,18.02244 -20.92659,18.02244 -0.45017,0 -0.90431,-0.0159 -1.35846,-0.0438 -6.83212,-0.43024 -12.71212,-4.03553 -16.28553,-9.29008 l -0.15537,-0.2709 c -0.0279,2.79261 0.0837,5.86805 0.33065,9.2144 4.41399,3.70089 9.85179,5.93975 15.73578,6.31024 0.58162,0.0398 1.15927,0.0558 1.73293,0.0558 z"
       id="path851"
       style="fill:#6fd049;fill-opacity:1;stroke-width:3.98374"
       inkscape:export-xdpi="34.087185"
       inkscape:export-ydpi="34.087185" />
    <circle
       fill="#ffffff"
       cx="147.13289"
       cy="262.95529"
       r="4.4100013"
       id="circle853"
       style="stroke-width:3.98374"
       inkscape:export-xdpi="34.087185"
       inkscape:export-ydpi="34.087185" />
    <path
       fill="#ffffff"
       d="m 110.26734,287.16848 c -11.987074,0 -22.273093,-7.84797 -25.870411,-18.78334 -4.625124,5.79236 -6.760409,11.80382 -6.035368,17.43683 0.736992,5.66886 4.298457,10.44139 9.784068,13.08659 5.190815,2.50577 12.500981,4.05545 19.412771,3.62122 4.03553,-0.25496 7.93959,-1.18317 11.20626,-2.99577 4.90399,-2.71293 7.82009,-7.07114 8.4296,-12.60058 0.23902,-2.15918 0.39837,-4.15105 0.54179,-6.11902 -4.39407,3.67699 -9.83984,5.92382 -15.73578,6.29431 -0.58163,0.0438 -1.15927,0.0598 -1.73293,0.0598 z"
       id="path855"
       style="stroke-width:3.98374"
       inkscape:export-xdpi="34.087185"
       inkscape:export-ydpi="34.087185" />
    <path
       fill="#65471b"
       d="m 110.26734,281.19286 c 0.45017,0 0.90431,-0.0159 1.35846,-0.0438 6.83211,-0.43024 12.71212,-4.03553 16.28553,-9.29008 l 0.15537,-0.2709 c -0.1235,-11.90341 -2.70895,-18.87894 -7.87586,-21.07 -3.72081,-1.58155 -14.68805,-1.23496 -29.483665,11.38951 -0.486017,0.41431 -0.90431,0.84057 -1.366424,1.25887 1.609432,10.30992 10.433418,18.02642 20.926589,18.02642 z"
       id="path857"
       style="fill:#36461e;fill-opacity:1;stroke-width:3.98374"
       inkscape:export-xdpi="34.087185"
       inkscape:export-ydpi="34.087185" />
    <path
       fill="#f4900c"
       d="m 128.06271,271.58806 -0.15536,0.2709 c -3.57342,5.25455 -9.45342,8.85984 -16.28554,9.29008 -0.45414,0.0279 -0.90829,0.0438 -1.35845,0.0438 -10.493175,0 -19.317161,-7.7165 -20.926592,-18.02244 -1.872359,1.70902 -3.533579,3.44992 -4.943823,5.21472 3.597318,10.93537 13.883337,18.78334 25.870415,18.78334 0.57366,0 1.1513,-0.0199 1.73293,-0.0558 5.89593,-0.37049 11.34171,-2.61732 15.73577,-6.29431 0.247,-3.35032 0.36252,-6.42976 0.33065,-9.23033 z"
       id="path859"
       style="fill:#6fd049;fill-opacity:1;stroke-width:3.98374"
       inkscape:export-xdpi="34.087185"
       inkscape:export-ydpi="34.087185" />
    <path
       fill="#ffffff"
       d="m 100.79401,267.35733 c 2.43008,-0.15138 4.27853,-2.24683 4.12317,-4.67691 -0.15138,-2.43008 -2.24683,-4.27854 -4.67691,-4.12716 -2.430085,0.15139 -4.278541,2.24683 -4.127159,4.67692 0.155366,2.43008 2.250814,4.27853 4.680899,4.12715 z"
       id="path861"
       style="stroke-width:3.98374"
       inkscape:export-xdpi="34.087185"
       inkscape:export-ydpi="34.087185" />
  </g>
  <g
     id="g2524"
     transform="translate(-494.48001)"
     inkscape:export-xdpi="67.463455"
     inkscape:export-ydpi="67.463455">
    <path
       fill="#664500"
       d="m 190.47396,300.81693 c -1.03254,-0.83272 -2.57556,-0.88433 -3.6835,-0.15052 -0.22625,0.15052 -22.75083,14.99921 -50.46713,14.99921 -27.64669,0 -50.246685,-14.84922 -50.467111,-14.99921 -1.107831,-0.73442 -2.650982,-0.67248 -3.683509,0.15052 -1.026721,0.82742 -1.258678,2.193 -0.545254,3.24812 0.74829,1.11206 18.661224,27.11759 54.695904,27.11759 36.03469,0 53.95341,-26.0056 54.69593,-27.11759 0.71347,-1.06034 0.48724,-2.42056 -0.54535,-3.24812 z"
       id="path866"
       style="fill:#363927;fill-opacity:1;stroke-width:5.47748" />
    <path
       fill="#ffffff"
       d="m 166.21781,314.43307 c 0.1219,-0.0329 -11.06461,2.88443 -18.66485,3.70855 -2.79286,0.32034 -5.62389,0.57998 -8.52357,0.67917 v 34.46817 h 11.92689 c 8.39386,0 15.26153,-6.86769 15.26153,-15.26155 z m -61.04614,0 c -0.12191,-0.0329 11.06461,2.88443 18.66486,3.70855 2.79284,0.32034 5.62387,0.57998 8.52356,0.67917 v 34.46817 h -11.92687 c -8.39386,0 -15.26155,-6.86769 -15.26155,-15.26155 z"
       id="path870"
       style="stroke-width:7.63073" />
    <path
       style="fill:#363927;fill-opacity:1;stroke-width:3.73468"
       d="m 100.03235,276.08648 c 0,6.40124 3.50313,11.59244 7.82788,11.59244 4.32103,0 7.82789,-5.1912 7.82789,-11.59244 0,-6.40122 -3.50313,-11.59242 -7.82789,-11.59242 -4.32475,0 -7.82788,5.1912 -7.82788,11.59242 z"
       id="path1028" />
    <path
       style="fill:#363927;fill-opacity:1;stroke-width:3.78348"
       d="m 166.97324,276.3061 c 0,6.48492 -3.54894,11.74397 -7.93024,11.74397 -4.37752,0 -7.93023,-5.25905 -7.93023,-11.74397 0,-6.48493 3.54893,-11.74403 7.93023,-11.74403 4.3813,0 7.93024,5.2591 7.93024,11.74403 z"
       id="path1026" />
    <path
       fill="#292f33"
       d="m 202.53626,259.02115 c -0.69065,-0.67061 -5.11803,1.10692 -9.59781,-1.17542 -9.24233,-4.71005 -32.59862,-9.25447 -47.80323,1.51879 -1.62793,1.15129 -8.4304,1.3452 -10.333,1.26442 -1.9026,0.0846 -8.70509,-0.10798 -10.333,-1.26442 -15.20058,-10.7733 -38.556869,-6.22887 -47.799199,-1.51879 -4.479788,2.2823 -8.907069,0.50483 -9.597811,1.17542 -0.997718,0.96534 -0.997718,4.8312 0.0039,5.80068 0.993751,0.96545 5.966323,2.08034 6.955996,4.97666 0.997721,2.90035 1.005815,20.02774 8.939377,25.94965 7.4286,5.54216 24.757987,7.21048 35.741327,0.9614 9.58166,-5.44924 9.24638,-16.92137 11.00356,-23.75619 0.62612,-2.43577 2.39138,-3.66379 5.08975,-3.66379 2.69838,0 4.46363,1.22797 5.08975,3.66379 1.75716,6.83079 1.41785,18.30695 11.00355,23.75619 10.98334,6.24505 28.31273,4.57675 35.7373,-0.9614 7.93757,-5.91785 7.94566,-23.0493 8.93937,-25.94965 0.98968,-2.89632 5.96226,-4.01527 6.956,-4.97666 1.00185,-0.96948 1.00588,-4.83524 0.004,-5.80068 z m -81.57331,14.7441 c -0.31104,4.46362 -1.10683,13.03541 -6.45106,16.07716 -3.27601,1.86623 -7.54576,3.00133 -12.01343,3.00133 h -0.004 c -4.948371,0 -11.807406,-1.4017 -14.489633,-3.40125 -3.352768,-2.50043 -4.62924,-12.79305 -5.109948,-16.64266 -0.307026,-2.45198 -1.131006,-8.44253 1.56733,-9.36355 4.281848,-1.45816 10.256243,-2.59737 16.367971,-2.59737 2.79938,0 12.20329,0.17366 16.78407,2.99324 4.05968,2.49238 3.52242,7.47709 3.34873,9.9331 z m 65.7547,-1.02195 c -0.48069,3.85367 -1.75719,14.19879 -5.10993,16.69924 -2.68223,1.99955 -9.54128,3.40124 -14.48964,3.40124 h -0.004 c -4.47171,0 -8.73739,-1.13516 -12.01747,-3.00132 -5.34423,-3.0377 -6.14,-11.55698 -6.45106,-16.02061 -0.16967,-2.456 -0.71093,-7.47706 3.34873,-9.96944 4.58481,-2.81957 13.98471,-3.01345 16.78407,-3.01345 6.11175,0 12.0821,1.11898 16.36798,2.57718 2.69839,0.92093 1.87835,6.87521 1.57136,9.32716 z"
       id="path874"
       style="stroke-width:4.03947" />
  </g>
  <g
     id="g3676"
     inkscape:export-xdpi="68.17437"
     inkscape:export-ydpi="68.17437" />
  <path
     fill-rule="evenodd"
     clip-rule="evenodd"
     fill="#31373d"
     d="m -136.9486,261.18964 c 0.78921,0.78594 4.72866,3.147 5.51459,5.50808 0.7892,2.35778 2.36761,17.45155 7.09627,21.38778 4.87665,4.0513 23.27173,2.54193 26.79357,0.78921 7.8822,-3.92963 8.84898,-16.62288 10.24324,-22.18028 0.78592,-3.147 5.51459,-3.147 5.51459,-3.147 0,0 4.72867,0 5.51787,3.14372 1.39427,5.56068 2.36763,18.2901 10.24325,22.21315 3.52512,1.75929 21.92021,3.26869 26.80343,-0.78264 4.7221,-3.9362 6.29722,-19.06944 7.08643,-21.43051 0.78262,-2.35779 4.72866,-4.71887 5.51458,-5.50478 0.79248,-0.78594 0.79248,-3.93296 0,-4.72217 -1.57513,-1.57185 -20.17082,-2.97271 -40.19365,-0.78591 -3.99536,0.43736 -5.51459,1.57184 -14.9752,1.57184 -9.45404,0 -10.97983,-1.13778 -14.9719,-1.57184 -20.00969,-2.18351 -38.60866,-0.78264 -40.18707,0.78921 -0.78592,0.78591 -0.78592,3.93621 0,4.72214 z"
     id="path843"
     style="opacity:1;fill:#31373d;fill-opacity:1;stroke-width:3.28838"
     inkscape:export-xdpi="68.17437"
     inkscape:export-ydpi="68.17437" />
  <g
     id="g2834">
    <circle
       fill="#50a5e6"
       cx="762.42883"
       cy="17.641718"
       r="164.50294"
       id="circle857"
       style="stroke-width:9.13905" />
    <ellipse
       fill="#1c6399"
       cx="707.45746"
       cy="-8.0572996"
       rx="22.84763"
       ry="31.986683"
       id="ellipse859"
       style="stroke-width:9.13905" />
    <ellipse
       fill="#1c6399"
       cx="817.1261"
       cy="-8.0572996"
       rx="22.84763"
       ry="31.986683"
       id="ellipse861"
       style="stroke-width:9.13905" />
    <path
       fill="#ffffff"
       d="m 826.26514,52.671704 c 20.18816,0 36.55621,16.368043 36.55621,36.556209 0,20.188167 -16.36805,36.556207 -36.55621,36.556207 H 698.31841 c -20.18817,0 -36.55621,-16.36804 -36.55621,-36.556207 0,-20.188166 16.36804,-36.556209 36.55621,-36.556209 z"
       id="path863"
       style="stroke-width:9.13905" />
    <path
       fill="#1c6399"
       d="M 826.26514,43.340732 H 698.31841 c -25.19637,0 -45.69526,20.498894 -45.69526,45.695261 0,25.196367 20.49889,45.695257 45.69526,45.695257 h 127.94673 c 25.19636,0 45.69526,-20.49889 45.69526,-45.695257 0,-25.196367 -20.4989,-45.695261 -45.69526,-45.695261 z m 0,18.278105 c 13.55321,0 24.76683,9.906732 26.95106,22.84763 h -31.52059 v -22.84763 z m -13.70858,0 v 22.84763 H 785.1394 v -22.84763 z m -36.55621,0 v 22.84763 h -27.41716 v -22.84763 z m -36.55621,0 v 22.84763 h -27.41715 v -22.84763 z m -41.12573,0 h 4.56952 v 22.84763 H 671.3582 c 2.19338,-12.931759 13.40699,-22.84763 26.96021,-22.84763 z m 0,54.834313 c -13.55322,0 -24.76683,-9.90673 -26.95107,-22.847631 h 31.52059 v 22.847631 z m 13.70858,0 V 93.605519 h 27.41715 v 22.847631 z m 36.5562,0 V 93.605519 h 27.41716 v 22.847631 z m 36.55621,0 V 93.605519 h 27.41716 v 22.847631 z m 41.12574,0 h -4.56953 V 93.605519 h 31.52059 c -2.18423,12.940901 -13.39785,22.847631 -26.95106,22.847631 z"
       id="path865"
       style="stroke-width:9.13905" />
    <path
       fill="#bbddf5"
       d="m 924.70187,-8.0572967 c 0,-4.0668783 -0.4204,20.4714767 -34.28973,31.0179427 -13.35215,4.158269 -11.7711,23.578755 -11.5609,28.806292 0.73113,18.049628 3.63735,35.569191 4.54211,40.138717 0.91391,4.6335 4.6335,19.246845 5.50171,23.661005 0.9596,4.86198 2.20251,21.98856 3.04331,26.2565 1.01443,5.14528 1.96489,8.8466 2.74171,12.77639 1.68159,8.49018 3.87496,14.60421 7.60369,14.60421 3.73787,0 3.80185,-10.28144 5.47429,-18.76248 0.77682,-3.92065 0.97788,-7.19243 1.99232,-12.32858 0.84079,-4.24052 3.31747,-33.27529 4.24966,-37.9819 0.88648,-4.487273 5.81243,-23.469084 6.70806,-28.029471 0.91391,-4.633499 3.64648,-22.792796 4.37761,-27.225236 4.36846,-26.475834 -0.38384,-52.9242507 -0.38384,-52.9333897 z M 600.78644,48.486019 c 0,-2.650325 5.60224,10.637856 10.49164,13.598909 6.30594,3.820124 11.24103,10.966863 18.64366,17.245391 7.40263,6.278529 7.38436,18.040489 7.09191,23.706701 -1.24292,24.27332 -4.44158,48.42784 -5.13615,51.40717 -0.69457,3.02502 -3.27178,25.79954 -6.67151,25.79954 -3.39973,0 -5.0539,-8.02408 -6.33336,-13.56235 l -2.05629,-8.92885 c -0.63973,-2.76 -1.09669,-5.76675 -1.82781,-8.91972 -0.65801,-2.86966 -3.84754,-23.64273 -4.53297,-26.62206 -0.69457,-3.02502 -3.71045,-15.01546 -4.37761,-17.89426 -0.73112,-3.17125 -1.04185,-6.251114 -1.73642,-9.020247 -2.98847,-11.880767 -3.55509,-46.801085 -3.55509,-46.810224 z"
       id="path867"
       style="stroke-width:9.13905" />
    <path
       fill="#1c6399"
       d="m 652.63229,-42.904502 c -5.04476,0 -9.13906,-4.094296 -9.13906,-9.139052 0,-5.035618 4.06688,-9.120774 9.1025,-9.139053 1.42569,-0.01828 32.61728,-0.785958 56.70782,-32.900587 3.02502,-4.021183 8.74607,-4.861976 12.79467,-1.827811 4.03946,3.025027 4.85284,8.755212 1.82781,12.794673 -29.82073,39.754877 -69.61216,40.21183 -71.29374,40.21183 z m 219.33725,0 c -1.68159,0 -41.46388,-0.456953 -71.28461,-40.21183 -3.03417,-4.039461 -2.21165,-9.769646 1.82781,-12.794673 4.03032,-3.043304 9.75137,-2.21165 12.78553,1.827811 24.13624,32.178602 55.40094,32.891448 56.71696,32.900587 5.02648,0.05483 9.08422,4.167408 9.0568,9.184748 -0.0183,5.035618 -4.07602,9.093357 -9.10249,9.093357 z"
       id="path869"
       style="stroke-width:9.13905" />
    <path
       fill="#bbddf5"
       d="m 819.69416,-136.57979 c 0,0 -9.0568,-3.84754 -12.03613,-4.76144 -2.62291,-0.80424 -10.90289,-2.52238 -16.02076,-3.5094 -5.71191,-1.10582 -11.82594,-1.05099 -11.82594,-1.05099 0,0 -0.27417,3.6739 1.04186,9.36753 1.06013,4.5878 3.69217,10.94858 4.18568,14.24778 0.53921,3.57337 0.62146,7.81389 1.28861,12.31944 0.5849,3.89324 1.1698,8.04237 1.80039,12.264611 0.61232,4.076017 1.66331,8.170313 2.27563,12.255469 0.63973,4.24052 0.93218,8.453623 1.52622,12.365138 0.67629,4.532969 -0.0914,8.937993 0.44781,12.52964 1.10583,7.366076 3.04331,17.656649 5.13615,17.656649 2.09284,0 3.93893,-9.312694 5.04476,-16.706188 0.5392,-3.573369 -0.24676,-6.351641 0.42953,-10.857193 0.5849,-3.893237 1.07841,-7.768195 1.71814,-11.990437 0.61232,-4.076017 1.10583,-8.060644 1.71814,-12.136661 0.63974,-4.24052 0.55749,-8.371368 1.14239,-12.282888 0.67629,-4.53297 3.31747,-10.11693 3.85668,-13.70858 1.08754,-7.36607 8.27084,-16.00248 8.27084,-16.00248 z m -168.07631,75.43374 c 0,0 6.68065,-1.498805 13.04143,-2.823967 4.13999,-0.859071 7.42091,-4.194825 14.19295,-6.662369 7.04621,-2.568074 11.57918,-4.788864 11.57918,-4.788864 0,0 0.57576,11.926463 -0.99616,17.875986 -1.27033,4.798003 -1.93748,10.99428 -2.52238,14.439702 -0.63973,3.728734 -0.99616,8.124618 -1.80039,12.83123 -0.69457,4.066878 -1.97404,8.316537 -2.73258,12.739838 -0.73112,4.267938 -1.31602,9.2669991 -2.04715,13.5349364 -0.75854,4.4324403 -0.9596,8.243425 -1.6633,12.3285813 -0.81338,4.7340293 -0.20106,5.2092593 -0.84994,8.9562713 -1.32516,7.704221 -1.50794,6.644091 -1.93748,10.838916 -0.42953,4.194824 -3.60078,4.71575 -4.97164,1.645029 -1.37086,-3.070722 0.0823,-4.761446 -1.24291,-12.493084 C 669.02775,13.547422 666.67901,3.6863852 665.92047,-0.72777692 665.18934,-4.9957143 664.20233,-11.6855 663.4712,-15.953438 c -0.75854,-4.43244 -0.95046,-11.579179 -1.65417,-15.673474 -0.81337,-4.734029 -2.05628,-7.658526 -2.69602,-11.405537 -1.32516,-7.685943 -7.50316,-18.113601 -7.50316,-18.113601 z"
       id="path871"
       style="stroke-width:9.13905" />
  </g>
  <g
     id="g1610"
     transform="matrix(0.3531206,0,0,0.3531206,-54.392134,1217.6235)">
    <path
       fill="#ffffff"
       d="m 583.56659,489.7374 c 20.18816,0 36.55621,16.36805 36.55621,36.55621 0,20.18817 -16.36805,36.55621 -36.55621,36.55621 H 455.61986 c -20.18817,0 -36.55621,-16.36804 -36.55621,-36.55621 0,-20.18816 16.36804,-36.55621 36.55621,-36.55621 z"
       id="path863-4"
       style="stroke-width:9.13905" />
    <path
       fill="#1c6399"
       d="M 583.56659,480.40643 H 455.61986 c -25.19637,0 -45.69526,20.4989 -45.69526,45.69526 0,25.19637 20.49889,45.69526 45.69526,45.69526 h 127.94673 c 25.19636,0 45.69526,-20.49889 45.69526,-45.69526 0,-25.19636 -20.4989,-45.69526 -45.69526,-45.69526 z m 0,18.27811 c 13.55321,0 24.76683,9.90673 26.95106,22.84763 h -31.52059 v -22.84763 z m -13.70858,0 v 22.84763 h -27.41716 v -22.84763 z m -36.55621,0 v 22.84763 h -27.41716 v -22.84763 z m -36.55621,0 v 22.84763 h -27.41715 v -22.84763 z m -41.12573,0 h 4.56952 v 22.84763 h -31.52973 c 2.19338,-12.93176 13.40699,-22.84763 26.96021,-22.84763 z m 0,54.83431 c -13.55322,0 -24.76683,-9.90673 -26.95107,-22.84763 h 31.52059 v 22.84763 z m 13.70858,0 v -22.84763 h 27.41715 v 22.84763 z m 36.5562,0 v -22.84763 h 27.41716 v 22.84763 z m 36.55621,0 v -22.84763 h 27.41716 v 22.84763 z m 41.12574,0 h -4.56953 v -22.84763 h 31.52059 c -2.18423,12.9409 -13.39785,22.84763 -26.95106,22.84763 z"
       id="path865-3"
       style="stroke-width:9.13905" />
  </g>
  <path
     d="m 180.41771,-294.341 c 0,0 7.22052,-4.19073 11.26967,-6.00293 l 62.97418,23.16226 101.85169,2.74663 c 0,0 7.64524,7.9284 9.9105,10.64671 l 18.49017,53.06368 14.92239,5.97462 c 0,0 3.42621,10.2503 4.38894,14.12955 l -3.08641,24.46479 -147.63822,36.61224 -118.55797,-29.08025 0.3681,-72.88469 36.24414,-47.20233 z"
     style="fill:#2f2f2f;stroke-width:1"
     id="path1664"
     inkscape:connector-curvature="0"
     inkscape:export-xdpi="68.17437"
     inkscape:export-ydpi="68.17437" />
  <path
     d="m 273.97289,-232.7826 c -0.28316,14.32776 -1.076,55.49883 -0.79284,79.39731 4.72873,0.11326 9.9105,-0.14158 15.63028,-0.73621 7.64525,-0.76452 15.63029,-2.29357 23.33216,-3.76599 l 4.89863,-0.93442 c 7.90009,-1.50073 15.20554,-3.36957 22.34111,-5.71978 11.01482,-3.62441 23.19058,-8.29651 34.17709,-15.06397 -8.06999,-28.11752 -22.53933,-49.21274 -27.18311,-55.52715 -31.1473,-2.46346 -60.99208,0.82116 -72.40332,2.35021 z"
     style="fill:#1c6399;fill-opacity:1;stroke-width:1"
     id="path1666"
     inkscape:connector-curvature="0"
     inkscape:export-xdpi="68.17437"
     inkscape:export-ydpi="68.17437" />
  <path
     d="m 356.76809,-241.4189 c 5.52156,7.5603 18.77333,27.55121 27.21141,54.42284 6.17283,-5.12515 11.49619,-11.24135 15.57366,-18.46186 -3.79431,-10.56177 -8.38146,-20.81206 -13.87471,-30.58099 -5.52157,-9.79724 -11.94924,-19.16975 -19.22638,-27.77773 -2.69,8.80619 -6.96567,17.41417 -9.68398,22.39774 z"
     style="fill:#1c6399;fill-opacity:1;stroke-width:1"
     id="path1668"
     inkscape:connector-curvature="0"
     inkscape:export-xdpi="68.17437"
     inkscape:export-ydpi="68.17437" />
  <path
     d="m 194.85874,-280.57955 c 12.0625,4.61546 53.37515,21.03858 74.72521,36.1875 9.20261,-1.35916 41.59581,-5.54988 76.56574,-2.8882 4.53051,-8.35315 9.28756,-19.56617 10.33524,-27.18311 -0.42474,-0.42473 -0.79284,-0.87778 -1.21758,-1.2742 -14.52597,-13.64819 -32.93119,-21.15186 -51.50631,-27.43795 -25.93721,-8.77787 -54.16799,-11.86429 -81.20952,-7.0223 -10.70334,1.92547 -21.03859,5.23841 -30.86414,9.85388 z"
     style="fill:#1c6399;fill-opacity:1;stroke-width:1"
     id="path1670"
     inkscape:connector-curvature="0"
     inkscape:export-xdpi="68.17437"
     inkscape:export-ydpi="68.17437" />
  <path
     d="m 404.1403,-190.53553 c -5.63483,7.22051 -12.45892,13.22345 -19.76438,18.20702 -0.14157,0.11326 -0.31147,0.19821 -0.42473,0.31147 -13.42166,9.06103 -28.40068,14.89407 -40.77465,18.94322 -7.64525,2.5201 -15.43208,4.53052 -23.87017,6.1162 l -4.89862,0.93442 c -7.98503,1.52905 -16.19659,3.11473 -24.37984,3.9642 -4.81368,0.48137 -9.79724,0.87779 -14.80913,0.87779 -14.9507,0 -29.95804,-3.51115 -40.91623,-18.49017 -4.41725,-6.08789 -9.34419,-11.21303 -14.5826,-15.23387 l -2.18031,-1.69894 c -3.31294,-2.63336 -9.51409,-7.5603 -12.71377,-7.64525 l 0.31148,-12.09081 c 7.24882,0.19821 14.5826,6.00293 19.93427,10.25029 l 1.9821,1.55737 c 6.14452,4.70041 11.89261,10.64671 17.01776,17.69733 4.61546,6.31441 10.25029,9.9105 17.01775,11.80766 -0.22652,-25.54079 0.59463,-68.01439 0.84947,-79.96363 -20.72711,-14.52597 -62.40787,-30.92078 -72.34669,-34.71508 -3.90757,2.40683 -13.98797,10.78829 -25.85226,22.87911 -1.18926,1.21757 -2.77494,1.8122 -4.33231,1.8122 -1.52905,0 -3.0581,-0.56631 -4.21904,-1.72726 -2.37852,-2.32189 -2.43515,-6.14451 -0.0849,-8.55135 7.50367,-7.61693 19.39628,-19.14143 27.7211,-24.29489 l -2.40684,-14.78082 c -20.27406,12.11914 -40.29328,30.92078 -52.32747,52.78053 -12.0625,21.83143 -16.13996,46.66432 -4.64378,70.70438 3.766,7.78682 11.3263,20.86869 18.91491,25.39921 6.71083,4.02083 13.81808,7.44704 21.06691,10.4485 6.42767,2.66168 11.86429,6.00294 18.46185,7.92841 5.88967,1.75557 11.97756,3.65273 17.95218,4.98357 6.03125,1.35915 12.28902,1.78389 18.34859,2.91652 5.37999,0.99105 10.81661,1.89715 16.25323,1.9821 27.89099,0.3681 56.09346,1.84052 83.47477,-4.78536 16.64965,-4.02083 33.15773,-9.03272 48.81632,-15.94176 7.92841,-3.45452 15.6586,-7.41872 22.93575,-12.0625 5.91798,-3.73768 13.70481,-7.41872 16.79122,-14.10123 3.25631,-7.05062 0.48137,-15.57365 -1.24589,-22.70922 -0.31147,-1.18926 -0.73621,-2.46347 -1.076,-3.70936 z"
     style="fill:#1c6399;fill-opacity:1;stroke-width:1"
     id="path1672"
     inkscape:connector-curvature="0"
     inkscape:export-xdpi="68.17437"
     inkscape:export-ydpi="68.17437" />
  <path
     d="m 151.67725,-122.91756 c -2.77494,-1.64232 -6.73915,-2.20863 -12.11914,-2.97316 -7.07893,-0.99105 -14.78081,-2.97315 -21.85974,-1.69894 -6.08788,1.10431 -6.73914,2.66168 -8.72125,8.29651 -3.08641,8.86282 -12.062496,35.422982 -5.09683,43.804442 1.72726,2.06704 5.7481,2.80325 8.21157,3.53946 7.10724,2.152 14.66754,2.63336 22.1429,3.14305 6.37104,0.42473 12.65713,-0.73621 18.74501,-2.43516 4.55883,-1.2742 6.56925,-2.3502 6.93736,-7.3904 0.82115,-10.75998 -1.58569,-21.378382 -2.54842,-32.053412 -0.67958,-6.90904 -2.37852,-10.30692 -5.69146,-12.23239 z"
     style="fill:#50a5e6;fill-opacity:1;stroke-width:1"
     id="path1674"
     inkscape:connector-curvature="0"
     inkscape:export-xdpi="68.17437"
     inkscape:export-ydpi="68.17437" />
  <path
     d="m 397.54274,-154.82939 c -2.63336,1.75557 -5.43662,3.31294 -7.90009,4.8703 -7.27714,4.61547 -15.00734,8.57967 -22.93574,12.0625 -15.6586,6.90904 -32.16667,11.92093 -48.81632,15.94176 -27.38131,6.62588 -55.58378,5.15346 -83.47478,4.78536 -5.46493,-0.0849 -10.90155,-0.99105 -16.25323,-1.9821 -1.50073,-0.28316 -2.97315,-0.50969 -4.47388,-0.73621 l 1.47242,15.71523 c 0,0 5.32335,0.39642 14.83744,-0.19821 -1.84052,18.207012 -2.43515,37.858132 2.20863,41.595812 2.09536,1.69894 6.54093,2.01042 9.25924,2.46347 7.98504,1.33084 16.25323,1.13263 24.46479,0.99105 6.99399,-0.11327 13.73313,-1.64231 20.18912,-3.62442 4.84199,-1.47241 6.93735,-2.54841 6.85241,-6.99398 -0.0849,-5.69146 -2.01042,-23.98343 -3.96421,-39.642022 17.95218,-2.35021 40.06676,-6.79578 60.05767,-15.09229 0.28316,6.28609 0.538,11.66608 0.50968,12.7704 -0.16989,4.3323 -0.22652,10.25029 3.5961,13.591552 10.64671,9.3725 37.00866,3.90757 49.24106,-0.1699 9.11766,-3.001472 6.3144,-13.619862 4.5022,-19.821012 -1.04769,-3.70936 -5.26673,-23.02069 -9.37251,-36.52729 z"
     style="fill:#50a5e6;fill-opacity:1;stroke-width:1"
     id="path1676"
     inkscape:connector-curvature="0"
     inkscape:export-xdpi="68.17437"
     inkscape:export-ydpi="68.17437" />
  <path
     d="m 426.67963,-219.44589 c -4.75705,-4.47389 -12.57219,1.30252 -16.93281,3.62441 -3.90757,2.09537 -7.78683,4.16241 -11.75103,6.1162 2.85989,7.50367 5.35167,15.14892 7.22051,22.96406 0.84947,3.48283 1.92547,7.30546 2.46347,11.12808 0.14158,-0.16989 0.28316,-0.33979 0.42474,-0.48137 1.4441,-1.64231 2.74662,-3.31294 4.02083,-5.09683 4.95525,-7.0223 8.72125,-14.78081 12.7704,-22.31279 1.95378,-3.766 5.54988,-12.37398 1.78389,-15.94176 z"
     style="fill:#50a5e6;fill-opacity:1;stroke-width:1"
     id="path1678"
     inkscape:connector-curvature="0"
     inkscape:export-xdpi="68.17437"
     inkscape:export-ydpi="68.17437" />
  <path
     d="m 215.18943,-104.17255 c -3.19968,0.11326 -6.42767,0.085 -9.74061,0.085 -23.587,0 -46.06969,-0.62295 -69.28859,-5.88968 -35.25309,-7.95672 -62.719347,-29.05194 -67.504706,-66.76849 -2.944836,-23.24721 1.755575,-50.79842 19.707749,-67.07997 16.847857,-15.29049 47.145687,-19.50953 67.901127,-12.45892 24.18163,8.2682 41.79401,28.14584 51.8461,51.08158 7.73019,17.66902 12.9686,33.52583 16.22491,52.58231 0.48137,2.91652 5.83304,47.00412 -0.42473,47.82527 -2.88821,0.33979 -5.80473,0.538 -8.72125,0.62295 z"
     style="fill:#50a5e6;fill-opacity:1;stroke-width:1"
     id="path1680"
     inkscape:connector-curvature="0"
     inkscape:export-xdpi="68.17437"
     inkscape:export-ydpi="68.17437" />
  <path
     style="fill:#10395b;fill-opacity:1;stroke:none;stroke-width:1px;stroke-linecap:butt;stroke-linejoin:miter;stroke-opacity:1"
     d="m 139.90193,-342.54169 c 7.88467,-6.12532 28.22306,24.70705 56.741,23.61944 4.6909,-21.44312 13.53447,-52.64672 32.57857,-53.75463 9.75608,-0.56759 21.53067,10.55843 33.12154,10.58804 11.47728,0.0294 21.49744,-12.00372 32.85006,-10.31655 20.5459,3.05337 31.22113,53.21165 31.22113,53.21165 29.7607,0.62306 44.19719,-30.40713 53.76828,-23.89094 38.57222,26.26072 -40.93376,77.64559 -111.85308,77.64559 -91.94852,0 -161.82099,-51.16053 -128.4275,-77.1026 z"
     id="path1682"
     inkscape:connector-curvature="0"
     sodipodi:nodetypes="scsascsss"
     inkscape:export-xdpi="68.17437"
     inkscape:export-ydpi="68.17437" />
  <path
     style="fill:#1a5789;fill-opacity:1;stroke:none;stroke-width:1px;stroke-linecap:butt;stroke-linejoin:miter;stroke-opacity:1"
     d="m 212.76964,-320.06367 -2.87957,11.13433 c 33.8509,23.80153 74.99669,18.82453 101.55269,-0.38396 l -1.3438,-10.75037 c -30.3286,14.97171 -63.49208,22.65479 -97.32932,0 z"
     id="path1684"
     inkscape:connector-curvature="0"
     sodipodi:nodetypes="ccccc"
     inkscape:export-xdpi="68.17437"
     inkscape:export-ydpi="68.17437" />
  <path
     style="fill:#1a5789;fill-opacity:1;stroke:none;stroke-width:1px;stroke-linecap:butt;stroke-linejoin:miter;stroke-opacity:1"
     d="m 215.84118,-332.73375 c 0,0 10.3101,-21.52265 20.5409,-24.57231 8.01186,-2.38823 15.63813,7.11258 23.99638,7.2949 9.51166,0.20755 18.66593,-10.25126 27.64383,-7.10292 9.74616,3.41774 18.6212,24.76426 18.6212,24.76426 -33.23908,11.75856 -64.20284,14.41591 -90.80231,-0.38393 z"
     id="path1686"
     inkscape:connector-curvature="0"
     sodipodi:nodetypes="caaacc"
     inkscape:export-xdpi="68.17437"
     inkscape:export-ydpi="68.17437" />
  <g
     id="g1694"
     inkscape:export-xdpi="68.17437"
     inkscape:export-ydpi="68.17437"
     transform="translate(0,-482.71187)">
    <path
       d="m 152.47087,260.91052 c 6.96765,-1.24669 13.79368,4.13673 15.23819,12.07019 1.44451,7.90512 -3.03065,15.38524 -9.99829,16.66026 -6.93933,1.24669 -13.76536,-4.13673 -15.2382,-12.04186 -1.44451,-7.93346 3.03065,-15.38524 9.9983,-16.68859 z"
       style="fill:#2f2f2f;stroke-width:2.83288"
       id="path1688"
       inkscape:export-xdpi="68.17437"
       inkscape:export-ydpi="68.17437" />
    <path
       d="m 88.714042,271.39402 c 1.982665,-7.7918 9.205228,-12.69354 16.031258,-10.93685 6.85435,1.7567 10.79136,9.52016 8.8087,17.31195 -2.01099,7.79179 -9.17691,12.69353 -16.031263,10.93684 -6.82603,-1.78503 -10.791359,-9.52015 -8.808695,-17.31194 z"
       style="fill:#2f2f2f;stroke-width:2.83288"
       id="path1690"
       inkscape:export-xdpi="68.17437"
       inkscape:export-ydpi="68.17437" />
    <path
       d="m 134.20203,304.1288 c -3.22891,1.7567 -6.00464,3.62673 -9.7717,2.23837 -2.18093,-0.79335 -4.24857,-1.41669 -6.14626,-2.83338 -1.35954,-0.99168 -2.88903,-1.81336 -4.24857,-2.80504 -0.70809,-0.51001 -1.38787,-1.04835 -2.09596,-1.55836 -0.79307,-0.59501 -1.0763,-0.85001 -2.09596,-0.99168 -0.82139,-0.085 -2.43584,-0.14167 -3.05897,0.53834 -2.66243,2.97505 1.07631,7.39512 3.08729,9.40681 3.00232,2.91838 7.27922,6.23344 11.21622,7.93346 3.85203,1.6717 7.67574,3.6834 11.78269,1.64336 4.50348,-2.2667 8.41216,-5.55342 12.37749,-8.58513 2.60579,-1.98337 8.44049,-5.46842 7.42083,-9.35015 -0.70809,-2.83338 -3.99365,-2.23837 -6.14626,-1.55836 -2.71908,0.82168 -5.15492,2.21004 -7.67574,3.48506 -1.55781,0.76501 -3.08729,1.61502 -4.6451,2.4367 z"
       style="fill:#2f2f2f;stroke-width:2.83288"
       id="path1692"
       inkscape:export-xdpi="68.17437"
       inkscape:export-ydpi="68.17437" />
  </g>
  <path
     d="m 180.41771,716.08826 c 0,0 7.22052,-4.19073 11.26967,-6.00293 l 62.97418,23.16226 101.85169,2.74663 c 0,0 7.64524,7.9284 9.9105,10.64671 l 18.49017,53.06368 14.92239,5.97462 c 0,0 3.42621,10.2503 4.38894,14.12955 l -3.08641,24.46479 -147.63822,36.61224 -118.55797,-29.08025 0.3681,-72.88469 36.24414,-47.20233 z"
     style="fill:#2f2f2f;stroke-width:1"
     id="path2051"
     inkscape:connector-curvature="0"
     inkscape:export-xdpi="68.17437"
     inkscape:export-ydpi="68.17437" />
  <path
     d="m 273.97289,777.64666 c -0.28316,14.32776 -1.076,55.49883 -0.79284,79.39731 4.72873,0.11326 9.9105,-0.14158 15.63028,-0.73621 7.64525,-0.76452 15.63029,-2.29357 23.33216,-3.76599 l 4.89863,-0.93442 c 7.90009,-1.50073 15.20554,-3.36957 22.34111,-5.71978 11.01482,-3.62441 23.19058,-8.29651 34.17709,-15.06397 -8.06999,-28.11752 -22.53933,-49.21274 -27.18311,-55.52715 -31.1473,-2.46346 -60.99208,0.82116 -72.40332,2.35021 z"
     style="fill:#1c6399;fill-opacity:1;stroke-width:1"
     id="path2053"
     inkscape:connector-curvature="0"
     inkscape:export-xdpi="68.17437"
     inkscape:export-ydpi="68.17437" />
  <path
     d="m 356.76809,769.01036 c 5.52156,7.5603 18.77333,27.55121 27.21141,54.42284 6.17283,-5.12515 11.49619,-11.24135 15.57366,-18.46186 -3.79431,-10.56177 -8.38146,-20.81206 -13.87471,-30.58099 -5.52157,-9.79724 -11.94924,-19.16975 -19.22638,-27.77773 -2.69,8.80619 -6.96567,17.41417 -9.68398,22.39774 z"
     style="fill:#1c6399;fill-opacity:1;stroke-width:1"
     id="path2055"
     inkscape:connector-curvature="0"
     inkscape:export-xdpi="68.17437"
     inkscape:export-ydpi="68.17437" />
  <path
     d="m 194.85874,729.84971 c 12.0625,4.61546 53.37515,21.03858 74.72521,36.1875 9.20261,-1.35916 41.59581,-5.54988 76.56574,-2.8882 4.53051,-8.35315 9.28756,-19.56617 10.33524,-27.18311 -0.42474,-0.42473 -0.79284,-0.87778 -1.21758,-1.2742 -14.52597,-13.64819 -32.93119,-21.15186 -51.50631,-27.43795 -25.93721,-8.77787 -54.16799,-11.86429 -81.20952,-7.0223 -10.70334,1.92547 -21.03859,5.23841 -30.86414,9.85388 z"
     style="fill:#1c6399;fill-opacity:1;stroke-width:1"
     id="path2057"
     inkscape:connector-curvature="0"
     inkscape:export-xdpi="68.17437"
     inkscape:export-ydpi="68.17437" />
  <path
     d="m 404.1403,819.89373 c -5.63483,7.22051 -12.45892,13.22345 -19.76438,18.20702 -0.14157,0.11326 -0.31147,0.19821 -0.42473,0.31147 -13.42166,9.06103 -28.40068,14.89407 -40.77465,18.94322 -7.64525,2.5201 -15.43208,4.53052 -23.87017,6.1162 l -4.89862,0.93442 c -7.98503,1.52905 -16.19659,3.11473 -24.37984,3.9642 -4.81368,0.48137 -9.79724,0.87779 -14.80913,0.87779 -14.9507,0 -29.95804,-3.51115 -40.91623,-18.49017 -4.41725,-6.08789 -9.34419,-11.21303 -14.5826,-15.23387 l -2.18031,-1.69894 c -3.31294,-2.63336 -9.51409,-7.5603 -12.71377,-7.64525 l 0.31148,-12.09081 c 7.24882,0.19821 14.5826,6.00293 19.93427,10.25029 l 1.9821,1.55737 c 6.14452,4.70041 11.89261,10.64671 17.01776,17.69733 4.61546,6.31441 10.25029,9.9105 17.01775,11.80766 -0.22652,-25.54079 0.59463,-68.01439 0.84947,-79.96363 -20.72711,-14.52597 -62.40787,-30.92078 -72.34669,-34.71508 -3.90757,2.40683 -13.98797,10.78829 -25.85226,22.87911 -1.18926,1.21757 -2.77494,1.8122 -4.33231,1.8122 -1.52905,0 -3.0581,-0.56631 -4.21904,-1.72726 -2.37852,-2.32189 -2.43515,-6.14451 -0.0849,-8.55135 7.50367,-7.61693 19.39628,-19.14143 27.7211,-24.29489 l -2.40684,-14.78082 c -20.27406,12.11914 -40.29328,30.92078 -52.32747,52.78053 -12.0625,21.83143 -16.13996,46.66432 -4.64378,70.70438 3.766,7.78682 11.3263,20.86869 18.91491,25.39921 6.71083,4.02083 13.81808,7.44704 21.06691,10.4485 6.42767,2.66168 11.86429,6.00294 18.46185,7.92841 5.88967,1.75557 11.97756,3.65273 17.95218,4.98357 6.03125,1.35915 12.28902,1.78389 18.34859,2.91652 5.37999,0.99105 10.81661,1.89715 16.25323,1.9821 27.89099,0.3681 56.09346,1.84052 83.47477,-4.78536 16.64965,-4.02083 33.15773,-9.03272 48.81632,-15.94176 7.92841,-3.45452 15.6586,-7.41872 22.93575,-12.0625 5.91798,-3.73768 13.70481,-7.41872 16.79122,-14.10123 3.25631,-7.05062 0.48137,-15.57365 -1.24589,-22.70922 -0.31147,-1.18926 -0.73621,-2.46347 -1.076,-3.70936 z"
     style="fill:#1c6399;fill-opacity:1;stroke-width:1"
     id="path2059"
     inkscape:connector-curvature="0"
     inkscape:export-xdpi="68.17437"
     inkscape:export-ydpi="68.17437" />
  <path
     d="m 151.67725,887.5117 c -2.77494,-1.64232 -6.73915,-2.20863 -12.11914,-2.97316 -7.07893,-0.99105 -14.78081,-2.97315 -21.85974,-1.69894 -6.08788,1.10431 -6.73914,2.66168 -8.72125,8.29651 -3.08641,8.86282 -12.062496,35.42298 -5.09683,43.80444 1.72726,2.06704 5.7481,2.80325 8.21157,3.53946 7.10724,2.152 14.66754,2.63336 22.1429,3.14305 6.37104,0.42473 12.65713,-0.73621 18.74501,-2.43516 4.55883,-1.2742 6.56925,-2.3502 6.93736,-7.3904 0.82115,-10.75998 -1.58569,-21.37838 -2.54842,-32.05341 -0.67958,-6.90904 -2.37852,-10.30692 -5.69146,-12.23239 z"
     style="fill:#50a5e6;fill-opacity:1;stroke-width:1"
     id="path2061"
     inkscape:connector-curvature="0"
     inkscape:export-xdpi="68.17437"
     inkscape:export-ydpi="68.17437" />
  <path
     d="m 397.54274,855.59987 c -2.63336,1.75557 -5.43662,3.31294 -7.90009,4.8703 -7.27714,4.61547 -15.00734,8.57967 -22.93574,12.0625 -15.6586,6.90904 -32.16667,11.92093 -48.81632,15.94176 -27.38131,6.62588 -55.58378,5.15346 -83.47478,4.78536 -5.46493,-0.0849 -10.90155,-0.99105 -16.25323,-1.9821 -1.50073,-0.28316 -2.97315,-0.50969 -4.47388,-0.73621 l 1.47242,15.71523 c 0,0 5.32335,0.39642 14.83744,-0.19821 -1.84052,18.20701 -2.43515,37.85813 2.20863,41.59581 2.09536,1.69894 6.54093,2.01042 9.25924,2.46347 7.98504,1.33084 16.25323,1.13263 24.46479,0.99105 6.99399,-0.11327 13.73313,-1.64231 20.18912,-3.62442 4.84199,-1.47241 6.93735,-2.54841 6.85241,-6.99398 -0.0849,-5.69146 -2.01042,-23.98343 -3.96421,-39.64202 17.95218,-2.35021 40.06676,-6.79578 60.05767,-15.09229 0.28316,6.28609 0.538,11.66608 0.50968,12.7704 -0.16989,4.3323 -0.22652,10.25029 3.5961,13.59155 10.64671,9.3725 37.00866,3.90757 49.24106,-0.1699 9.11766,-3.00147 6.3144,-13.61986 4.5022,-19.82101 -1.04769,-3.70936 -5.26673,-23.02069 -9.37251,-36.52729 z"
     style="fill:#50a5e6;fill-opacity:1;stroke-width:1"
     id="path2063"
     inkscape:connector-curvature="0"
     inkscape:export-xdpi="68.17437"
     inkscape:export-ydpi="68.17437" />
  <path
     d="m 426.67963,790.98337 c -4.75705,-4.47389 -12.57219,1.30252 -16.93281,3.62441 -3.90757,2.09537 -7.78683,4.16241 -11.75103,6.1162 2.85989,7.50367 5.35167,15.14892 7.22051,22.96406 0.84947,3.48283 1.92547,7.30546 2.46347,11.12808 0.14158,-0.16989 0.28316,-0.33979 0.42474,-0.48137 1.4441,-1.64231 2.74662,-3.31294 4.02083,-5.09683 4.95525,-7.0223 8.72125,-14.78081 12.7704,-22.31279 1.95378,-3.766 5.54988,-12.37398 1.78389,-15.94176 z"
     style="fill:#50a5e6;fill-opacity:1;stroke-width:1"
     id="path2065"
     inkscape:connector-curvature="0"
     inkscape:export-xdpi="68.17437"
     inkscape:export-ydpi="68.17437" />
  <path
     d="m 215.18943,906.25671 c -3.19968,0.11326 -6.42767,0.085 -9.74061,0.085 -23.587,0 -46.06969,-0.62295 -69.28859,-5.88968 -35.25309,-7.95672 -62.719347,-29.05194 -67.504706,-66.76849 -2.944836,-23.24721 1.755575,-50.79842 19.707749,-67.07997 16.847857,-15.29049 47.145687,-19.50953 67.901127,-12.45892 24.18163,8.2682 41.79401,28.14584 51.8461,51.08158 7.73019,17.66902 12.9686,33.52583 16.22491,52.58231 0.48137,2.91652 5.83304,47.00412 -0.42473,47.82527 -2.88821,0.33979 -5.80473,0.538 -8.72125,0.62295 z"
     style="fill:#50a5e6;fill-opacity:1;stroke-width:1"
     id="path2067"
     inkscape:connector-curvature="0"
     inkscape:export-xdpi="68.17437"
     inkscape:export-ydpi="68.17437" />
  <path
     style="fill:#10395b;fill-opacity:1;stroke:none;stroke-width:1px;stroke-linecap:butt;stroke-linejoin:miter;stroke-opacity:1"
     d="m 139.90193,667.88757 c 7.88467,-6.12532 28.22306,24.70705 56.741,23.61944 4.6909,-21.44312 13.53447,-52.64672 32.57857,-53.75463 9.75608,-0.56759 21.53067,10.55843 33.12154,10.58804 11.47728,0.0294 21.49744,-12.00372 32.85006,-10.31655 20.5459,3.05337 31.22113,53.21165 31.22113,53.21165 29.7607,0.62306 44.19719,-30.40713 53.76828,-23.89094 38.57222,26.26072 -40.93376,77.64559 -111.85308,77.64559 -91.94852,0 -161.82099,-51.16053 -128.4275,-77.1026 z"
     id="path2069"
     inkscape:connector-curvature="0"
     sodipodi:nodetypes="scsascsss"
     inkscape:export-xdpi="68.17437"
     inkscape:export-ydpi="68.17437" />
  <path
     style="fill:#1a5789;fill-opacity:1;stroke:none;stroke-width:1px;stroke-linecap:butt;stroke-linejoin:miter;stroke-opacity:1"
     d="m 212.76964,690.36559 -2.87957,11.13433 c 33.8509,23.80153 74.99669,18.82453 101.55269,-0.38396 l -1.3438,-10.75037 c -30.3286,14.97171 -63.49208,22.65479 -97.32932,0 z"
     id="path2071"
     inkscape:connector-curvature="0"
     sodipodi:nodetypes="ccccc"
     inkscape:export-xdpi="68.17437"
     inkscape:export-ydpi="68.17437" />
  <path
     style="fill:#1a5789;fill-opacity:1;stroke:none;stroke-width:1px;stroke-linecap:butt;stroke-linejoin:miter;stroke-opacity:1"
     d="m 215.84118,677.69551 c 0,0 10.3101,-21.52265 20.5409,-24.57231 8.01186,-2.38823 15.63813,7.11258 23.99638,7.2949 9.51166,0.20755 18.66593,-10.25126 27.64383,-7.10292 9.74616,3.41774 18.6212,24.76426 18.6212,24.76426 -33.23908,11.75856 -64.20284,14.41591 -90.80231,-0.38393 z"
     id="path2073"
     inkscape:connector-curvature="0"
     sodipodi:nodetypes="caaacc"
     inkscape:export-xdpi="68.17437"
     inkscape:export-ydpi="68.17437" />
  <g
     id="g2079"
     inkscape:export-xdpi="68.17437"
     inkscape:export-ydpi="68.17437"
     transform="translate(0,527.71739)">
    <path
       d="m 152.47087,260.91052 c 6.96765,-1.24669 13.79368,4.13673 15.23819,12.07019 1.44451,7.90512 -3.03065,15.38524 -9.99829,16.66026 -6.93933,1.24669 -13.76536,-4.13673 -15.2382,-12.04186 -1.44451,-7.93346 3.03065,-15.38524 9.9983,-16.68859 z"
       style="fill:#2f2f2f;stroke-width:2.83288"
       id="path2075"
       inkscape:export-xdpi="68.17437"
       inkscape:export-ydpi="68.17437" />
    <path
       d="m 88.714042,271.39402 c 1.982665,-7.7918 9.205228,-12.69354 16.031258,-10.93685 6.85435,1.7567 10.79136,9.52016 8.8087,17.31195 -2.01099,7.79179 -9.17691,12.69353 -16.031263,10.93684 -6.82603,-1.78503 -10.791359,-9.52015 -8.808695,-17.31194 z"
       style="fill:#2f2f2f;stroke-width:2.83288"
       id="path2077"
       inkscape:export-xdpi="68.17437"
       inkscape:export-ydpi="68.17437" />
  </g>
  <g
     id="g2085"
     transform="matrix(0.3531206,0,0,0.3531206,-54.392134,656.25618)">
    <path
       fill="#ffffff"
       d="m 583.56659,489.7374 c 20.18816,0 36.55621,16.36805 36.55621,36.55621 0,20.18817 -16.36805,36.55621 -36.55621,36.55621 H 455.61986 c -20.18817,0 -36.55621,-16.36804 -36.55621,-36.55621 0,-20.18816 16.36804,-36.55621 36.55621,-36.55621 z"
       id="path2081"
       style="stroke-width:9.13905" />
    <path
       fill="#1c6399"
       d="M 583.56659,480.40643 H 455.61986 c -25.19637,0 -45.69526,20.4989 -45.69526,45.69526 0,25.19637 20.49889,45.69526 45.69526,45.69526 h 127.94673 c 25.19636,0 45.69526,-20.49889 45.69526,-45.69526 0,-25.19636 -20.4989,-45.69526 -45.69526,-45.69526 z m 0,18.27811 c 13.55321,0 24.76683,9.90673 26.95106,22.84763 h -31.52059 v -22.84763 z m -13.70858,0 v 22.84763 h -27.41716 v -22.84763 z m -36.55621,0 v 22.84763 h -27.41716 v -22.84763 z m -36.55621,0 v 22.84763 h -27.41715 v -22.84763 z m -41.12573,0 h 4.56952 v 22.84763 h -31.52973 c 2.19338,-12.93176 13.40699,-22.84763 26.96021,-22.84763 z m 0,54.83431 c -13.55322,0 -24.76683,-9.90673 -26.95107,-22.84763 h 31.52059 v 22.84763 z m 13.70858,0 v -22.84763 h 27.41715 v 22.84763 z m 36.5562,0 v -22.84763 h 27.41716 v 22.84763 z m 36.55621,0 v -22.84763 h 27.41716 v 22.84763 z m 41.12574,0 h -4.56953 v -22.84763 h 31.52059 c -2.18423,12.9409 -13.39785,22.84763 -26.95106,22.84763 z"
       id="path2083"
       style="stroke-width:9.13905" />
  </g>
  <g
     id="g2122"
     transform="matrix(0.38852148,0,0,0.38852148,45.322488,1188.1501)">
    <ellipse
       fill="#1c6399"
       cx="159.17642"
       cy="466.82587"
       rx="22.84763"
       ry="31.986683"
       id="ellipse859-1"
       style="stroke-width:9.13905" />
    <ellipse
       fill="#1c6399"
       cx="268.84506"
       cy="466.82587"
       rx="22.84763"
       ry="31.986683"
       id="ellipse861-4"
       style="stroke-width:9.13905" />
    <path
       fill="#1c6399"
       d="m 104.35126,431.97866 c -5.044759,0 -9.139054,-4.0943 -9.139054,-9.13905 0,-5.03562 4.066878,-9.12078 9.102494,-9.13906 1.42569,-0.0183 32.61728,-0.78596 56.70782,-32.90058 3.02503,-4.02119 8.74607,-4.86198 12.79467,-1.82781 4.03946,3.02502 4.85284,8.75521 1.82781,12.79467 -29.82072,39.75488 -69.61216,40.21183 -71.29374,40.21183 z m 219.33725,0 c -1.68159,0 -41.46388,-0.45695 -71.28461,-40.21183 -3.03417,-4.03946 -2.21165,-9.76965 1.82781,-12.79467 4.03032,-3.04331 9.75137,-2.21166 12.78553,1.82781 24.13624,32.1786 55.40094,32.89144 56.71696,32.90058 5.02648,0.0548 9.08422,4.16741 9.0568,9.18475 -0.0183,5.03562 -4.07602,9.09336 -9.10249,9.09336 z"
       id="path869-3"
       style="stroke-width:9.13905" />
  </g>
  <path
     d="m 180.41771,141.7268 c 0,0 7.22052,-4.19073 11.26967,-6.00293 l 62.97418,23.16226 101.85169,2.74663 c 0,0 7.64524,7.9284 9.9105,10.64671 l 18.49017,53.06368 14.92239,5.97462 c 0,0 3.42621,10.2503 4.38894,14.12955 l -3.08641,24.46479 -147.63822,36.61224 -118.55797,-29.08025 0.3681,-72.88469 36.24414,-47.20233 z"
     style="fill:#124165;stroke-width:1;fill-opacity:1"
     id="path2423"
     inkscape:connector-curvature="0"
     inkscape:export-xdpi="68.17437"
     inkscape:export-ydpi="68.17437"
     inkscape:export-filename="A:\media\turtles\real\realnews.png" />
  <path
     d="m 273.97289,203.2852 c -0.28316,14.32776 -1.076,55.49883 -0.79284,79.39731 4.72873,0.11326 9.9105,-0.14158 15.63028,-0.73621 7.64525,-0.76452 15.63029,-2.29357 23.33216,-3.76599 l 4.89863,-0.93442 c 7.90009,-1.50073 15.20554,-3.36957 22.34111,-5.71978 11.01482,-3.62441 23.19058,-8.29651 34.17709,-15.06397 -8.06999,-28.11752 -22.53933,-49.21274 -27.18311,-55.52715 -31.1473,-2.46346 -60.99208,0.82116 -72.40332,2.35021 z"
     style="fill:#1c6399;fill-opacity:1;stroke-width:1"
     id="path2425"
     inkscape:connector-curvature="0"
     inkscape:export-xdpi="68.17437"
     inkscape:export-ydpi="68.17437"
     inkscape:export-filename="A:\media\turtles\real\realnews.png" />
  <path
     d="m 356.76809,194.6489 c 5.52156,7.5603 18.77333,27.55121 27.21141,54.42284 6.17283,-5.12515 11.49619,-11.24135 15.57366,-18.46186 -3.79431,-10.56177 -8.38146,-20.81206 -13.87471,-30.58099 -5.52157,-9.79724 -11.94924,-19.16975 -19.22638,-27.77773 -2.69,8.80619 -6.96567,17.41417 -9.68398,22.39774 z"
     style="fill:#1c6399;fill-opacity:1;stroke-width:1"
     id="path2427"
     inkscape:connector-curvature="0"
     inkscape:export-xdpi="68.17437"
     inkscape:export-ydpi="68.17437"
     inkscape:export-filename="A:\media\turtles\real\realnews.png" />
  <path
     d="m 194.85874,155.48825 c 12.0625,4.61546 53.37515,21.03858 74.72521,36.1875 9.20261,-1.35916 41.59581,-5.54988 76.56574,-2.8882 4.53051,-8.35315 9.28756,-19.56617 10.33524,-27.18311 -0.42474,-0.42473 -0.79284,-0.87778 -1.21758,-1.2742 -14.52597,-13.64819 -32.93119,-21.15186 -51.50631,-27.43795 -25.93721,-8.77787 -54.16799,-11.86429 -81.20952,-7.0223 -10.70334,1.92547 -21.03859,5.23841 -30.86414,9.85388 z"
     style="fill:#1c6399;fill-opacity:1;stroke-width:1"
     id="path2429"
     inkscape:connector-curvature="0"
     inkscape:export-xdpi="68.17437"
     inkscape:export-ydpi="68.17437"
     inkscape:export-filename="A:\media\turtles\real\realnews.png" />
  <path
     d="m 404.1403,245.53227 c -5.63483,7.22051 -12.45892,13.22345 -19.76438,18.20702 -0.14157,0.11326 -0.31147,0.19821 -0.42473,0.31147 -13.42166,9.06103 -28.40068,14.89407 -40.77465,18.94322 -7.64525,2.5201 -15.43208,4.53052 -23.87017,6.1162 l -4.89862,0.93442 c -7.98503,1.52905 -16.19659,3.11473 -24.37984,3.9642 -4.81368,0.48137 -9.79724,0.87779 -14.80913,0.87779 -14.9507,0 -29.95804,-3.51115 -40.91623,-18.49017 -4.41725,-6.08789 -9.34419,-11.21303 -14.5826,-15.23387 l -2.18031,-1.69894 c -3.31294,-2.63336 -9.51409,-7.5603 -12.71377,-7.64525 l 0.31148,-12.09081 c 7.24882,0.19821 14.5826,6.00293 19.93427,10.25029 l 1.9821,1.55737 c 6.14452,4.70041 11.89261,10.64671 17.01776,17.69733 4.61546,6.31441 10.25029,9.9105 17.01775,11.80766 -0.22652,-25.54079 0.59463,-68.01439 0.84947,-79.96363 -20.72711,-14.52597 -62.40787,-30.92078 -72.34669,-34.71508 -3.90757,2.40683 -13.98797,10.78829 -25.85226,22.87911 -1.18926,1.21757 -2.77494,1.8122 -4.33231,1.8122 -1.52905,0 -3.0581,-0.56631 -4.21904,-1.72726 -2.37852,-2.32189 -2.43515,-6.14451 -0.0849,-8.55135 7.50367,-7.61693 19.39628,-19.14143 27.7211,-24.29489 l -2.40684,-14.78082 c -20.27406,12.11914 -40.29328,30.92078 -52.32747,52.78053 -12.0625,21.83143 -16.13996,46.66432 -4.64378,70.70438 3.766,7.78682 11.3263,20.86869 18.91491,25.39921 6.71083,4.02083 13.81808,7.44704 21.06691,10.4485 6.42767,2.66168 11.86429,6.00294 18.46185,7.92841 5.88967,1.75557 11.97756,3.65273 17.95218,4.98357 6.03125,1.35915 12.28902,1.78389 18.34859,2.91652 5.37999,0.99105 10.81661,1.89715 16.25323,1.9821 27.89099,0.3681 56.09346,1.84052 83.47477,-4.78536 16.64965,-4.02083 33.15773,-9.03272 48.81632,-15.94176 7.92841,-3.45452 15.6586,-7.41872 22.93575,-12.0625 5.91798,-3.73768 13.70481,-7.41872 16.79122,-14.10123 3.25631,-7.05062 0.48137,-15.57365 -1.24589,-22.70922 -0.31147,-1.18926 -0.73621,-2.46347 -1.076,-3.70936 z"
     style="fill:#1c6399;fill-opacity:1;stroke-width:1"
     id="path2431"
     inkscape:connector-curvature="0"
     inkscape:export-xdpi="68.17437"
     inkscape:export-ydpi="68.17437"
     inkscape:export-filename="A:\media\turtles\real\realnews.png" />
  <path
     d="m 151.67725,313.15024 c -2.77494,-1.64232 -6.73915,-2.20863 -12.11914,-2.97316 -7.07893,-0.99105 -14.78081,-2.97315 -21.85974,-1.69894 -6.08788,1.10431 -6.73914,2.66168 -8.72125,8.29651 -3.08641,8.86282 -12.062496,35.42298 -5.09683,43.80444 1.72726,2.06704 5.7481,2.80325 8.21157,3.53946 7.10724,2.152 14.66754,2.63336 22.1429,3.14305 6.37104,0.42473 12.65713,-0.73621 18.74501,-2.43516 4.55883,-1.2742 6.56925,-2.3502 6.93736,-7.3904 0.82115,-10.75998 -1.58569,-21.37838 -2.54842,-32.05341 -0.67958,-6.90904 -2.37852,-10.30692 -5.69146,-12.23239 z"
     style="fill:#50a5e6;fill-opacity:1;stroke-width:1"
     id="path2433"
     inkscape:connector-curvature="0"
     inkscape:export-xdpi="68.17437"
     inkscape:export-ydpi="68.17437"
     inkscape:export-filename="A:\media\turtles\real\realnews.png" />
  <path
     d="m 397.57105,281.23841 c -2.63336,1.75557 -5.43662,3.31294 -7.90009,4.8703 -7.27714,4.61547 -15.00734,8.57967 -22.93574,12.0625 -15.6586,6.90904 -32.16667,11.92093 -48.81632,15.94176 -27.38131,6.62588 -55.58378,5.15346 -83.47478,4.78536 -5.46493,-0.0849 -10.90155,-0.99105 -16.25323,-1.9821 -1.50073,-0.28316 -2.97315,-0.50969 -4.47388,-0.73621 l 1.47242,15.71523 c 0,0 5.32335,0.39642 14.83744,-0.19821 -1.84052,18.20701 -2.43515,37.85813 2.20863,41.59581 2.09536,1.69894 6.54093,2.01042 9.25924,2.46347 7.98504,1.33084 16.25323,1.13263 24.46479,0.99105 6.99399,-0.11327 13.73313,-1.64231 20.18912,-3.62442 4.84199,-1.47241 6.93735,-2.54841 6.85241,-6.99398 -0.0849,-5.69146 -2.01042,-23.98343 -3.96421,-39.64202 17.95218,-2.35021 40.06676,-6.79578 60.05767,-15.09229 0.28316,6.28609 0.538,11.66608 0.50968,12.7704 -0.16989,4.3323 -0.22652,10.25029 3.5961,13.59155 10.64671,9.3725 37.00866,3.90757 49.24106,-0.1699 9.11766,-3.00147 6.3144,-13.61986 4.5022,-19.82101 -1.04769,-3.70936 -5.26673,-23.02069 -9.37251,-36.52729 z"
     style="fill:#50a5e6;fill-opacity:1;stroke-width:1"
     id="path2435"
     inkscape:connector-curvature="0"
     inkscape:export-xdpi="68.17437"
     inkscape:export-ydpi="68.17437"
     inkscape:export-filename="A:\media\turtles\real\realnews.png" />
  <path
     d="m 426.67963,216.62191 c -4.75705,-4.47389 -12.57219,1.30252 -16.93281,3.62441 -3.90757,2.09537 -7.78683,4.16241 -11.75103,6.1162 2.85989,7.50367 5.35167,15.14892 7.22051,22.96406 0.84947,3.48283 1.92547,7.30546 2.46347,11.12808 0.14158,-0.16989 0.28316,-0.33979 0.42474,-0.48137 1.4441,-1.64231 2.74662,-3.31294 4.02083,-5.09683 4.95525,-7.0223 8.72125,-14.78081 12.7704,-22.31279 1.95378,-3.766 5.54988,-12.37398 1.78389,-15.94176 z"
     style="fill:#50a5e6;fill-opacity:1;stroke-width:1"
     id="path2437"
     inkscape:connector-curvature="0"
     inkscape:export-xdpi="68.17437"
     inkscape:export-ydpi="68.17437"
     inkscape:export-filename="A:\media\turtles\real\realnews.png" />
  <path
     d="m 215.18943,331.89525 c -3.19968,0.11326 -6.42767,0.085 -9.74061,0.085 -23.587,0 -46.06969,-0.62295 -69.28859,-5.88968 -35.25309,-7.95672 -62.719347,-29.05194 -67.504706,-66.76849 -2.944836,-23.24721 1.755575,-50.79842 19.707749,-67.07997 16.847857,-15.29049 47.145687,-19.50953 67.901127,-12.45892 24.18163,8.2682 41.79401,28.14584 51.8461,51.08158 7.73019,17.66902 12.9686,33.52583 16.22491,52.58231 0.48137,2.91652 5.83304,47.00412 -0.42473,47.82527 -2.88821,0.33979 -5.80473,0.538 -8.72125,0.62295 z"
     style="fill:#50a5e6;fill-opacity:1;stroke-width:1"
     id="path2439"
     inkscape:connector-curvature="0"
     inkscape:export-xdpi="68.17437"
     inkscape:export-ydpi="68.17437"
     inkscape:export-filename="A:\media\turtles\real\realnews.png" />
  <g
     id="g2453"
     inkscape:export-xdpi="68.17437"
     inkscape:export-ydpi="68.17437"
     transform="translate(0,-46.644071)"
     inkscape:export-filename="A:\media\turtles\real\realnews.png">
    <path
       d="m 152.47087,260.91052 c 6.96765,-1.24669 13.79368,4.13673 15.23819,12.07019 1.44451,7.90512 -3.03065,15.38524 -9.99829,16.66026 -6.93933,1.24669 -13.76536,-4.13673 -15.2382,-12.04186 -1.44451,-7.93346 3.03065,-15.38524 9.9983,-16.68859 z"
       style="fill:#1c6399;stroke-width:2.83288;fill-opacity:1"
       id="path2447"
       inkscape:export-xdpi="68.17437"
       inkscape:export-ydpi="68.17437" />
    <path
       d="m 88.714042,271.39402 c 1.982665,-7.7918 9.205228,-12.69354 16.031258,-10.93685 6.85435,1.7567 10.79136,9.52016 8.8087,17.31195 -2.01099,7.79179 -9.17691,12.69353 -16.031263,10.93684 -6.82603,-1.78503 -10.791359,-9.52015 -8.808695,-17.31194 z"
       style="fill:#1c6399;stroke-width:2.83288;fill-opacity:1"
       id="path2449"
       inkscape:export-xdpi="68.17437"
       inkscape:export-ydpi="68.17437" />
    <path
       d="m 134.20203,312.07526 c -3.22891,-1.7567 -6.00464,-3.62673 -9.7717,-2.23837 -2.18093,0.79335 -4.24857,1.41669 -6.14626,2.83338 -1.35954,0.99168 -2.88903,1.81336 -4.24857,2.80504 -0.70809,0.51001 -1.38787,1.04835 -2.09596,1.55836 -0.79307,0.59501 -1.0763,0.85001 -2.09596,0.99168 -0.82139,0.085 -2.43584,0.14167 -3.05897,-0.53834 -2.66243,-2.97505 1.07631,-7.39512 3.08729,-9.40681 3.00232,-2.91838 7.27922,-6.23344 11.21622,-7.93346 3.85203,-1.6717 7.67574,-3.6834 11.78269,-1.64336 4.50348,2.2667 8.41216,5.55342 12.37749,8.58513 2.60579,1.98337 8.44049,5.46842 7.42083,9.35015 -0.70809,2.83338 -3.99365,2.23837 -6.14626,1.55836 -2.71908,-0.82168 -5.15492,-2.21004 -7.67574,-3.48506 -1.55781,-0.76501 -3.08729,-1.61502 -4.6451,-2.4367 z"
       style="fill:#1c6399;stroke-width:2.83288;fill-opacity:1"
       id="path2451"
       inkscape:export-xdpi="68.17437"
       inkscape:export-ydpi="68.17437" />
  </g>
  <path
     style="fill:#bbddf5;fill-opacity:1;stroke-width:3.35848"
     d="m 158.46807,180.73932 c 0,0 -3.32826,-1.41392 -4.42312,-1.74977 -0.96388,-0.29555 -4.00667,-0.92694 -5.88741,-1.28966 -2.09906,-0.40637 -4.34588,-0.38622 -4.34588,-0.38622 0,0 -0.10075,1.35011 0.38287,3.44244 0.38959,1.68595 1.35682,4.02346 1.53818,5.23587 0.19816,1.31317 0.22838,2.8715 0.47355,4.52723 0.21494,1.43071 0.42988,2.95546 0.66162,4.50708 0.22502,1.49789 0.61124,3.00248 0.83626,4.50372 0.23509,1.55834 0.34257,3.1066 0.56087,4.54402 0.24853,1.66581 -0.0336,3.2846 0.16456,4.60448 0.40638,2.70693 1.11838,6.48858 1.88747,6.48858 0.76909,0 1.4475,-3.42229 1.85388,-6.1393 0.19815,-1.31316 -0.0907,-2.33414 0.15785,-3.98987 0.21494,-1.43072 0.3963,-2.85471 0.63139,-4.40633 0.22502,-1.49788 0.40638,-2.96218 0.63139,-4.46006 0.2351,-1.55833 0.20488,-3.07636 0.41982,-4.5138 0.24852,-1.6658 1.21912,-3.71783 1.41728,-5.03771 0.39965,-2.70694 3.03942,-5.8807 3.03942,-5.8807 z"
     id="path871-4"
     inkscape:export-filename="A:\media\turtles\real\realnews.png"
     inkscape:export-xdpi="68.17437"
     inkscape:export-ydpi="68.17437" />
  <path
     style="fill:#bbddf5;fill-opacity:1;stroke-width:4.88453"
     d="m 70.35974,260.91611 c 0,-1.41651 2.994217,5.68559 5.607444,7.26819 3.370323,2.04173 6.007968,5.86143 9.964436,9.2171 3.956471,3.35567 3.946704,9.64206 3.790401,12.67047 -0.664301,12.97331 -2.373884,25.88312 -2.74511,27.47548 -0.371223,1.61678 -1.748661,13.78904 -3.565707,13.78904 -1.817047,0 -2.701147,-4.28862 -3.384978,-7.24865 l -1.099019,-4.77218 c -0.341918,-1.47514 -0.586147,-3.08215 -0.976907,-4.76731 -0.351684,-1.53374 -2.056387,-12.63628 -2.422729,-14.22864 -0.371226,-1.61677 -1.983117,-8.02528 -2.33969,-9.56391 -0.390759,-1.69493 -0.556835,-3.34101 -0.928061,-4.82103 -1.597241,-6.34988 -1.90008,-25.01367 -1.90008,-25.01856 z"
     id="path2778"
     inkscape:export-filename="A:\media\turtles\real\realnews.png"
     inkscape:export-xdpi="68.17437"
     inkscape:export-ydpi="68.17437" />
  <path
     style="fill:#bbddf5;fill-opacity:1;stroke-width:4.82313"
     d="m 221.32676,273.20719 c 0,-2.14629 -0.22187,10.80381 -18.09638,16.3697 -7.04658,2.19453 -6.21219,12.44367 -6.10125,15.20251 0.38585,9.52568 1.9196,18.77162 2.39709,21.18318 0.48232,2.44533 2.44532,10.15751 2.90352,12.48708 0.50643,2.56591 1.16237,11.60445 1.6061,13.85686 0.53538,2.71542 1.03699,4.66878 1.44695,6.74271 0.88746,4.48069 2.04499,7.70737 4.01283,7.70737 1.97266,0 2.00644,-5.42602 2.88906,-9.90188 0.40997,-2.06913 0.51607,-3.7958 1.05145,-6.50641 0.44373,-2.23792 1.7508,-17.56101 2.24275,-20.04492 0.46784,-2.36816 3.06752,-12.38579 3.54018,-14.79253 0.48231,-2.44532 1.92442,-12.02889 2.31028,-14.3681 2.30545,-13.97262 -0.20258,-27.93074 -0.20258,-27.93557 z"
     id="path867-7"
     inkscape:export-filename="A:\media\turtles\real\realnews.png"
     inkscape:export-xdpi="68.17437"
     inkscape:export-ydpi="68.17437" />
  <path
     style="fill:#10395b;fill-opacity:1;stroke:none;stroke-width:1px;stroke-linecap:butt;stroke-linejoin:miter;stroke-opacity:1"
     d="m 139.90193,93.52611 c 7.88467,-6.12532 28.22306,24.70705 56.741,23.61944 4.6909,-21.44312 13.53447,-52.64672 32.57857,-53.75463 9.75608,-0.56759 21.53067,10.55843 33.12154,10.58804 11.47728,0.0294 21.49744,-12.00372 32.85006,-10.31655 20.5459,3.05337 31.22113,53.21165 31.22113,53.21165 29.7607,0.62306 44.19719,-30.40713 53.76828,-23.89094 38.57222,26.26072 -40.93376,77.64559 -111.85308,77.64559 -91.94852,0 -161.82099,-51.16053 -128.4275,-77.1026 z"
     id="path1682-0"
     inkscape:connector-curvature="0"
     sodipodi:nodetypes="scsascsss"
     inkscape:export-xdpi="68.17437"
     inkscape:export-ydpi="68.17437"
     inkscape:export-filename="A:\media\turtles\real\realnews.png" />
  <path
     style="fill:#1a5789;fill-opacity:1;stroke:none;stroke-width:1px;stroke-linecap:butt;stroke-linejoin:miter;stroke-opacity:1"
     d="m 212.76964,116.00413 -2.87957,11.13433 c 33.8509,23.80153 74.99669,18.82453 101.55269,-0.38396 l -1.3438,-10.75037 c -30.3286,14.97171 -63.49208,22.65479 -97.32932,0 z"
     id="path1684-3"
     inkscape:connector-curvature="0"
     sodipodi:nodetypes="ccccc"
     inkscape:export-xdpi="68.17437"
     inkscape:export-ydpi="68.17437"
     inkscape:export-filename="A:\media\turtles\real\realnews.png" />
  <path
     style="fill:#1a5789;fill-opacity:1;stroke:none;stroke-width:1px;stroke-linecap:butt;stroke-linejoin:miter;stroke-opacity:1"
     d="m 215.84118,103.33405 c 0,0 10.3101,-21.52265 20.5409,-24.57231 8.01186,-2.38823 15.63813,7.11258 23.99638,7.2949 9.51166,0.20755 18.66593,-10.25126 27.64383,-7.10292 9.74616,3.41774 18.6212,24.76426 18.6212,24.76426 -33.23908,11.75856 -64.20284,14.41591 -90.80231,-0.38393 z"
     id="path1686-0"
     inkscape:connector-curvature="0"
     sodipodi:nodetypes="caaacc"
     inkscape:export-xdpi="68.17437"
     inkscape:export-ydpi="68.17437"
     inkscape:export-filename="A:\media\turtles\real\realnews.png" />
</svg>
