<?xml version="1.0" encoding="UTF-8" standalone="no"?>
<svg
   xmlns:dc="http://purl.org/dc/elements/1.1/"
   xmlns:cc="http://creativecommons.org/ns#"
   xmlns:rdf="http://www.w3.org/1999/02/22-rdf-syntax-ns#"
   xmlns:svg="http://www.w3.org/2000/svg"
   xmlns="http://www.w3.org/2000/svg"
   xmlns:sodipodi="http://sodipodi.sourceforge.net/DTD/sodipodi-0.dtd"
   xmlns:inkscape="http://www.inkscape.org/namespaces/inkscape"
   width="512"
   height="512"
   version="1.1"
   id="svg38"
   inkscape:version="0.92.5 (2060ec1f9f, 2020-04-08)"
   inkscape:export-xdpi="96"
   inkscape:export-ydpi="96"
>
  <metadata
     id="metadata44">
    <rdf:RDF>
      <cc:Work
         rdf:about="">
        <dc:format>image/svg+xml</dc:format>
        <dc:type
           rdf:resource="http://purl.org/dc/dcmitype/StillImage" />
        <dc:title />
      </cc:Work>
    </rdf:RDF>
  </metadata>
  <defs
     id="defs42">
    <path
       d="M119.5,53.43c-0.44-0.19-0.94-0.11-1.29,0.22L87.25,82.71L65.16,49.72c-0.22-0.33-0.58-0.52-0.98-0.52h0 c-0.39,0-0.76,0.19-0.98,0.51l-22.19,33L10.06,53.64c-0.35-0.33-0.85-0.41-1.29-0.22c-0.43,0.19-0.71,0.63-0.69,1.1l1.27,47.52 c0,10.33,24.06,18.43,54.78,18.43c30.72,0,54.78-8.1,54.78-18.4l1.27-47.55C120.2,54.06,119.93,53.62,119.5,53.43z"
       id="SVGID_1_" />
    <filter
       inkscape:collect="always"
       style="color-interpolation-filters:sRGB"
       id="filter1115"
       x="-0.07150765"
       width="1.1430153"
       y="-0.10178111"
       height="1.2035622">
      <feGaussianBlur
         inkscape:collect="always"
         stdDeviation="3.7931808"
         id="feGaussianBlur1117" />
    </filter>
    <clipPath
       id="clipPath74"
       clipPathUnits="userSpaceOnUse">
      <path
         inkscape:connector-curvature="0"
         id="path72"
         d="M 0,150 H 350 V 0 H 0 Z" />
    </clipPath>
    <filter
       inkscape:collect="always"
       style="color-interpolation-filters:sRGB"
       id="filter983"
       x="-0.093956327"
       width="1.1879127"
       y="-0.34474726"
       height="1.6894945">
      <feGaussianBlur
         inkscape:collect="always"
         stdDeviation="1.3002723"
         id="feGaussianBlur985" />
    </filter>
  </defs>
  <sodipodi:namedview
     pagecolor="#ffffff"
     bordercolor="#666666"
     borderopacity="1"
     objecttolerance="10"
     gridtolerance="10"
     guidetolerance="10"
     inkscape:pageopacity="0"
     inkscape:pageshadow="2"
     inkscape:window-width="1920"
     inkscape:window-height="1080"
     id="namedview40"
     showgrid="false"
     inkscape:zoom="1.3037281"
     inkscape:cx="181.1784"
     inkscape:cy="213.45023"
     inkscape:window-x="1440"
     inkscape:window-y="0"
     inkscape:window-maximized="1"
     inkscape:current-layer="svg38"
     showguides="true"
     inkscape:guide-bbox="true" />
  <g
     style="opacity:0.32600008;fill:#000000;fill-opacity:1;stroke-width:0.35316059;filter:url(#filter1115)"
     transform="matrix(2.8315731,0,0,2.8315731,66.871633,97.523647)"
     id="g1021">
    <path
       inkscape:connector-curvature="0"
       id="path987"
       style="fill:#000000;fill-opacity:1;stroke-width:0.35316059"
       d="m 40.1,37.83 c 0,0 2.55,-1.48 3.98,-2.12 l 22.24,8.18 35.97,0.97 c 0,0 2.7,2.8 3.5,3.76 l 6.53,18.74 5.27,2.11 c 0,0 1.21,3.62 1.55,4.99 L 118.05,83.1 65.91,96.03 24.04,85.76 24.17,60.02 36.97,43.35 Z" />
    <g
       style="fill:#000000;fill-opacity:1;stroke-width:0.35316059"
       id="g1019">
      <g
         style="fill:#000000;fill-opacity:1;stroke-width:0.35316059"
         id="g997">
        <path
           inkscape:connector-curvature="0"
           id="path989"
           style="fill:#000000;fill-opacity:1;stroke-width:0.35316059"
           d="m 73.14,59.57 c -0.1,5.06 -0.38,19.6 -0.28,28.04 1.67,0.04 3.5,-0.05 5.52,-0.26 2.7,-0.27 5.52,-0.81 8.24,-1.33 l 1.73,-0.33 c 2.79,-0.53 5.37,-1.19 7.89,-2.02 3.89,-1.28 8.19,-2.93 12.07,-5.32 -2.85,-9.93 -7.96,-17.38 -9.6,-19.61 -11,-0.87 -21.54,0.29 -25.57,0.83 z" />
        <path
           inkscape:connector-curvature="0"
           id="path991"
           style="fill:#000000;fill-opacity:1;stroke-width:0.35316059"
           d="m 102.38,56.52 c 1.95,2.67 6.63,9.73 9.61,19.22 2.18,-1.81 4.06,-3.97 5.5,-6.52 -1.34,-3.73 -2.96,-7.35 -4.9,-10.8 -1.95,-3.46 -4.22,-6.77 -6.79,-9.81 -0.95,3.11 -2.46,6.15 -3.42,7.91 z" />
        <path
           inkscape:connector-curvature="0"
           id="path993"
           style="fill:#000000;fill-opacity:1;stroke-width:0.35316059"
           d="m 45.2,42.69 c 4.26,1.63 18.85,7.43 26.39,12.78 3.25,-0.48 14.69,-1.96 27.04,-1.02 1.6,-2.95 3.28,-6.91 3.65,-9.6 C 102.13,44.7 102,44.54 101.85,44.4 96.72,39.58 90.22,36.93 83.66,34.71 74.5,31.61 64.53,30.52 54.98,32.23 c -3.78,0.68 -7.43,1.85 -10.9,3.48 z" />
        <path
           inkscape:connector-curvature="0"
           id="path995"
           style="fill:#000000;fill-opacity:1;stroke-width:0.35316059"
           d="m 119.11,74.49 c -1.99,2.55 -4.4,4.67 -6.98,6.43 -0.05,0.04 -0.11,0.07 -0.15,0.11 -4.74,3.2 -10.03,5.26 -14.4,6.69 -2.7,0.89 -5.45,1.6 -8.43,2.16 l -1.73,0.33 c -2.82,0.54 -5.72,1.1 -8.61,1.4 -1.7,0.17 -3.46,0.31 -5.23,0.31 -5.28,0 -10.58,-1.24 -14.45,-6.53 -1.56,-2.15 -3.3,-3.96 -5.15,-5.38 l -0.77,-0.6 c -1.17,-0.93 -3.36,-2.67 -4.49,-2.7 l 0.11,-4.27 c 2.56,0.07 5.15,2.12 7.04,3.62 l 0.7,0.55 c 2.17,1.66 4.2,3.76 6.01,6.25 1.63,2.23 3.62,3.5 6.01,4.17 -0.08,-9.02 0.21,-24.02 0.3,-28.24 -7.32,-5.13 -22.04,-10.92 -25.55,-12.26 -1.38,0.85 -4.94,3.81 -9.13,8.08 -0.42,0.43 -0.98,0.64 -1.53,0.64 -0.54,0 -1.08,-0.2 -1.49,-0.61 -0.84,-0.82 -0.86,-2.17 -0.03,-3.02 2.65,-2.69 6.85,-6.76 9.79,-8.58 L 40.1,37.82 c -7.16,4.28 -14.23,10.92 -18.48,18.64 -4.26,7.71 -5.7,16.48 -1.64,24.97 1.33,2.75 4,7.37 6.68,8.97 2.37,1.42 4.88,2.63 7.44,3.69 2.27,0.94 4.19,2.12 6.52,2.8 2.08,0.62 4.23,1.29 6.34,1.76 2.13,0.48 4.34,0.63 6.48,1.03 1.9,0.35 3.82,0.67 5.74,0.7 9.85,0.13 19.81,0.65 29.48,-1.69 5.88,-1.42 11.71,-3.19 17.24,-5.63 2.8,-1.22 5.53,-2.62 8.1,-4.26 2.09,-1.32 4.84,-2.62 5.93,-4.98 1.15,-2.49 0.17,-5.5 -0.44,-8.02 -0.11,-0.42 -0.26,-0.87 -0.38,-1.31 z" />
      </g>
      <g
         style="fill:#000000;fill-opacity:1;stroke-width:0.35316059"
         id="g1017">
        <path
           inkscape:connector-curvature="0"
           id="path999"
           style="fill:#000000;fill-opacity:1;stroke-width:0.35316059"
           d="m 29.95,98.37 c -0.98,-0.58 -2.38,-0.78 -4.28,-1.05 -2.5,-0.35 -5.22,-1.05 -7.72,-0.6 -2.15,0.39 -2.38,0.94 -3.08,2.93 -1.09,3.13 -4.26,12.51 -1.8,15.47 0.61,0.73 2.03,0.99 2.9,1.25 2.51,0.76 5.18,0.93 7.82,1.11 2.25,0.15 4.47,-0.26 6.62,-0.86 1.61,-0.45 2.32,-0.83 2.45,-2.61 0.29,-3.8 -0.56,-7.55 -0.9,-11.32 -0.24,-2.44 -0.84,-3.64 -2.01,-4.32 z" />
        <g
           style="fill:#000000;fill-opacity:1;stroke-width:0.35316059"
           id="g1005">
          <path
             inkscape:connector-curvature="0"
             id="path1001"
             style="fill:#000000;fill-opacity:1;stroke-width:0.35316059"
             d="m 116.78,87.1 c -0.93,0.62 -1.92,1.17 -2.79,1.72 -2.57,1.63 -5.3,3.03 -8.1,4.26 -5.53,2.44 -11.36,4.21 -17.24,5.63 -9.67,2.34 -19.63,1.82 -29.48,1.69 -1.93,-0.03 -3.85,-0.35 -5.74,-0.7 -0.53,-0.1 -1.05,-0.18 -1.58,-0.26 l 0.52,5.55 c 0,0 1.88,0.14 5.24,-0.07 -0.65,6.43 -0.86,13.37 0.78,14.69 0.74,0.6 2.31,0.71 3.27,0.87 2.82,0.47 5.74,0.4 8.64,0.35 2.47,-0.04 4.85,-0.58 7.13,-1.28 1.71,-0.52 2.45,-0.9 2.42,-2.47 -0.03,-2.01 -0.71,-8.47 -1.4,-14 6.34,-0.83 14.15,-2.4 21.21,-5.33 0.1,2.22 0.19,4.12 0.18,4.51 -0.06,1.53 -0.08,3.62 1.27,4.8 3.76,3.31 13.07,1.38 17.39,-0.06 3.22,-1.06 2.23,-4.81 1.59,-7 -0.37,-1.31 -1.86,-8.13 -3.31,-12.9 z" />
          <path
             inkscape:connector-curvature="0"
             id="path1003"
             style="fill:#000000;fill-opacity:1;stroke-width:0.35316059"
             d="m 127.07,64.28 c -1.68,-1.58 -4.44,0.46 -5.98,1.28 -1.38,0.74 -2.75,1.47 -4.15,2.16 1.01,2.65 1.89,5.35 2.55,8.11 0.3,1.23 0.68,2.58 0.87,3.93 0.05,-0.06 0.1,-0.12 0.15,-0.17 0.51,-0.58 0.97,-1.17 1.42,-1.8 1.75,-2.48 3.08,-5.22 4.51,-7.88 0.69,-1.33 1.96,-4.37 0.63,-5.63 z" />
        </g>
        <g
           style="fill:#000000;fill-opacity:1;stroke-width:0.35316059"
           id="g1015">
          <path
             inkscape:connector-curvature="0"
             id="path1007"
             style="fill:#000000;fill-opacity:1;stroke-width:0.35316059"
             d="m 52.38,104.99 c -1.13,0.04 -2.27,0.03 -3.44,0.03 -8.33,0 -16.27,-0.22 -24.47,-2.08 C 12.02,100.13 2.32,92.68 0.63,79.36 -0.41,71.15 1.25,61.42 7.59,55.67 c 5.95,-5.4 16.65,-6.89 23.98,-4.4 8.54,2.92 14.76,9.94 18.31,18.04 2.73,6.24 4.58,11.84 5.73,18.57 0.17,1.03 2.06,16.6 -0.15,16.89 -1.02,0.12 -2.05,0.19 -3.08,0.22 z" />
          <path
             inkscape:connector-curvature="0"
             id="path1009"
             style="fill:#000000;fill-opacity:1;stroke-width:0.35316059"
             d="m 30.25,63.47 c 2.46,-0.44 4.87,1.46 5.38,4.26 0.51,2.79 -1.07,5.43 -3.53,5.88 -2.45,0.44 -4.86,-1.46 -5.38,-4.25 -0.51,-2.8 1.07,-5.43 3.53,-5.89 z" />
          <path
             inkscape:connector-curvature="0"
             id="path1011"
             style="fill:#000000;fill-opacity:1;stroke-width:0.35316059"
             d="m 7.74,67.17 c 0.7,-2.75 3.25,-4.48 5.66,-3.86 2.42,0.62 3.81,3.36 3.11,6.11 -0.71,2.75 -3.24,4.48 -5.66,3.86 C 8.44,72.65 7.04,69.92 7.74,67.17 Z" />
          <path
             inkscape:connector-curvature="0"
             id="path1013"
             style="fill:#000000;fill-opacity:1;stroke-width:0.35316059"
             d="m 23.8,79.29 c -1.14,0.62 -2.12,1.28 -3.45,0.79 -0.77,-0.28 -1.5,-0.5 -2.17,-1 -0.48,-0.35 -1.02,-0.64 -1.5,-0.99 -0.25,-0.18 -0.49,-0.37 -0.74,-0.55 -0.28,-0.21 -0.38,-0.3 -0.74,-0.35 -0.29,-0.03 -0.86,-0.05 -1.08,0.19 -0.94,1.05 0.38,2.61 1.09,3.32 1.06,1.03 2.57,2.2 3.96,2.8 1.36,0.59 2.71,1.3 4.16,0.58 1.59,-0.8 2.97,-1.96 4.37,-3.03 0.92,-0.7 2.98,-1.93 2.62,-3.3 -0.25,-1 -1.41,-0.79 -2.17,-0.55 -0.96,0.29 -1.82,0.78 -2.71,1.23 -0.55,0.27 -1.09,0.57 -1.64,0.86 z" />
        </g>
      </g>
    </g>
  </g>
  <g
     id="g36"
     transform="matrix(2.8315731,0,0,2.8315731,66.871633,97.523647)"
     style="stroke-width:0.35316059">
    <path
       d="m 40.1,37.83 c 0,0 2.55,-1.48 3.98,-2.12 l 22.24,8.18 35.97,0.97 c 0,0 2.7,2.8 3.5,3.76 l 6.53,18.74 5.27,2.11 c 0,0 1.21,3.62 1.55,4.99 L 118.05,83.1 65.91,96.03 24.04,85.76 24.17,60.02 36.97,43.35 Z"
       style="fill:#2f2f2f;stroke-width:0.35316059"
       id="path2"
       inkscape:connector-curvature="0" />
    <g
       id="g34"
       style="stroke-width:0.35316059">
      <g
         id="g12"
         style="stroke-width:0.35316059">
        <path
           d="m 73.14,59.57 c -0.1,5.06 -0.38,19.6 -0.28,28.04 1.67,0.04 3.5,-0.05 5.52,-0.26 2.7,-0.27 5.52,-0.81 8.24,-1.33 l 1.73,-0.33 c 2.79,-0.53 5.37,-1.19 7.89,-2.02 3.89,-1.28 8.19,-2.93 12.07,-5.32 -2.85,-9.93 -7.96,-17.38 -9.6,-19.61 -11,-0.87 -21.54,0.29 -25.57,0.83 z"
           style="fill:#e8e8e5;stroke-width:0.35316059;fill-opacity:1"
           id="path4"
           inkscape:connector-curvature="0" />
        <path
           d="m 102.38,56.52 c 1.95,2.67 6.63,9.73 9.61,19.22 2.18,-1.81 4.06,-3.97 5.5,-6.52 -1.34,-3.73 -2.96,-7.35 -4.9,-10.8 -1.95,-3.46 -4.22,-6.77 -6.79,-9.81 -0.95,3.11 -2.46,6.15 -3.42,7.91 z"
           style="fill:#e8e8e5;stroke-width:0.35316059;fill-opacity:1"
           id="path6"
           inkscape:connector-curvature="0" />
        <path
           d="m 45.2,42.69 c 4.26,1.63 18.85,7.43 26.39,12.78 3.25,-0.48 14.69,-1.96 27.04,-1.02 1.6,-2.95 3.28,-6.91 3.65,-9.6 C 102.13,44.7 102,44.54 101.85,44.4 96.72,39.58 90.22,36.93 83.66,34.71 74.5,31.61 64.53,30.52 54.98,32.23 c -3.78,0.68 -7.43,1.85 -10.9,3.48 z"
           style="fill:#e8e8e5;stroke-width:0.35316059;fill-opacity:1"
           id="path8"
           inkscape:connector-curvature="0" />
        <path
           d="m 119.11,74.49 c -1.99,2.55 -4.4,4.67 -6.98,6.43 -0.05,0.04 -0.11,0.07 -0.15,0.11 -4.74,3.2 -10.03,5.26 -14.4,6.69 -2.7,0.89 -5.45,1.6 -8.43,2.16 l -1.73,0.33 c -2.82,0.54 -5.72,1.1 -8.61,1.4 -1.7,0.17 -3.46,0.31 -5.23,0.31 -5.28,0 -10.58,-1.24 -14.45,-6.53 -1.56,-2.15 -3.3,-3.96 -5.15,-5.38 l -0.77,-0.6 c -1.17,-0.93 -3.36,-2.67 -4.49,-2.7 l 0.11,-4.27 c 2.56,0.07 5.15,2.12 7.04,3.62 l 0.7,0.55 c 2.17,1.66 4.2,3.76 6.01,6.25 1.63,2.23 3.62,3.5 6.01,4.17 -0.08,-9.02 0.21,-24.02 0.3,-28.24 -7.32,-5.13 -22.04,-10.92 -25.55,-12.26 -1.38,0.85 -4.94,3.81 -9.13,8.08 -0.42,0.43 -0.98,0.64 -1.53,0.64 -0.54,0 -1.08,-0.2 -1.49,-0.61 -0.84,-0.82 -0.86,-2.17 -0.03,-3.02 2.65,-2.69 6.85,-6.76 9.79,-8.58 L 40.1,37.82 c -7.16,4.28 -14.23,10.92 -18.48,18.64 -4.26,7.71 -5.7,16.48 -1.64,24.97 1.33,2.75 4,7.37 6.68,8.97 2.37,1.42 4.88,2.63 7.44,3.69 2.27,0.94 4.19,2.12 6.52,2.8 2.08,0.62 4.23,1.29 6.34,1.76 2.13,0.48 4.34,0.63 6.48,1.03 1.9,0.35 3.82,0.67 5.74,0.7 9.85,0.13 19.81,0.65 29.48,-1.69 5.88,-1.42 11.71,-3.19 17.24,-5.63 2.8,-1.22 5.53,-2.62 8.1,-4.26 2.09,-1.32 4.84,-2.62 5.93,-4.98 1.15,-2.49 0.17,-5.5 -0.44,-8.02 -0.11,-0.42 -0.26,-0.87 -0.38,-1.31 z"
           style="fill:#e8e8e5;stroke-width:0.35316059;fill-opacity:1"
           id="path10"
           inkscape:connector-curvature="0" />
      </g>
      <g
         id="g32"
         style="stroke-width:0.35316059">
        <path
           d="m 29.95,98.37 c -0.98,-0.58 -2.38,-0.78 -4.28,-1.05 -2.5,-0.35 -5.22,-1.05 -7.72,-0.6 -2.15,0.39 -2.38,0.94 -3.08,2.93 -1.09,3.13 -4.26,12.51 -1.8,15.47 0.61,0.73 2.03,0.99 2.9,1.25 2.51,0.76 5.18,0.93 7.82,1.11 2.25,0.15 4.47,-0.26 6.62,-0.86 1.61,-0.45 2.32,-0.83 2.45,-2.61 0.29,-3.8 -0.56,-7.55 -0.9,-11.32 -0.24,-2.44 -0.84,-3.64 -2.01,-4.32 z"
           style="fill:#ffffff;stroke-width:0.35316059;fill-opacity:1"
           id="path14"
           inkscape:connector-curvature="0" />
        <g
           id="g20"
           style="stroke-width:0.35316059">
          <path
             d="m 116.78,87.1 c -0.93,0.62 -1.92,1.17 -2.79,1.72 -2.57,1.63 -5.3,3.03 -8.1,4.26 -5.53,2.44 -11.36,4.21 -17.24,5.63 -9.67,2.34 -19.63,1.82 -29.48,1.69 -1.93,-0.03 -3.85,-0.35 -5.74,-0.7 -0.53,-0.1 -1.05,-0.18 -1.58,-0.26 l 0.52,5.55 c 0,0 1.88,0.14 5.24,-0.07 -0.65,6.43 -0.86,13.37 0.78,14.69 0.74,0.6 2.31,0.71 3.27,0.87 2.82,0.47 5.74,0.4 8.64,0.35 2.47,-0.04 4.85,-0.58 7.13,-1.28 1.71,-0.52 2.45,-0.9 2.42,-2.47 -0.03,-2.01 -0.71,-8.47 -1.4,-14 6.34,-0.83 14.15,-2.4 21.21,-5.33 0.1,2.22 0.19,4.12 0.18,4.51 -0.06,1.53 -0.08,3.62 1.27,4.8 3.76,3.31 13.07,1.38 17.39,-0.06 3.22,-1.06 2.23,-4.81 1.59,-7 -0.37,-1.31 -1.86,-8.13 -3.31,-12.9 z"
             style="fill:#ffffff;stroke-width:0.35316059;fill-opacity:1"
             id="path16"
             inkscape:connector-curvature="0" />
          <path
             d="m 127.07,64.28 c -1.68,-1.58 -4.44,0.46 -5.98,1.28 -1.38,0.74 -2.75,1.47 -4.15,2.16 1.01,2.65 1.89,5.35 2.55,8.11 0.3,1.23 0.68,2.58 0.87,3.93 0.05,-0.06 0.1,-0.12 0.15,-0.17 0.51,-0.58 0.97,-1.17 1.42,-1.8 1.75,-2.48 3.08,-5.22 4.51,-7.88 0.69,-1.33 1.96,-4.37 0.63,-5.63 z"
             style="fill:#ffffff;stroke-width:0.35316059;fill-opacity:1"
             id="path18"
             inkscape:connector-curvature="0" />
        </g>
        <g
           id="g30"
           style="stroke-width:0.35316059">
          <path
             d="m 52.38,104.99 c -1.13,0.04 -2.27,0.03 -3.44,0.03 -8.33,0 -16.27,-0.22 -24.47,-2.08 C 12.02,100.13 2.32,92.68 0.63,79.36 -0.41,71.15 1.25,61.42 7.59,55.67 c 5.95,-5.4 16.65,-6.89 23.98,-4.4 8.54,2.92 14.76,9.94 18.31,18.04 2.73,6.24 4.58,11.84 5.73,18.57 0.17,1.03 2.06,16.6 -0.15,16.89 -1.02,0.12 -2.05,0.19 -3.08,0.22 z"
             style="fill:#ffffff;stroke-width:0.35316059;fill-opacity:1"
             id="path22"
             inkscape:connector-curvature="0" />
          <path
             d="m 30.25,63.47 c 2.46,-0.44 4.87,1.46 5.38,4.26 0.51,2.79 -1.07,5.43 -3.53,5.88 -2.45,0.44 -4.86,-1.46 -5.38,-4.25 -0.51,-2.8 1.07,-5.43 3.53,-5.89 z"
             style="fill:#2f2f2f;stroke-width:0.35316059"
             id="path24"
             inkscape:connector-curvature="0" />
          <path
             d="m 7.74,67.17 c 0.7,-2.75 3.25,-4.48 5.66,-3.86 2.42,0.62 3.81,3.36 3.11,6.11 -0.71,2.75 -3.24,4.48 -5.66,3.86 C 8.44,72.65 7.04,69.92 7.74,67.17 Z"
             style="fill:#2f2f2f;stroke-width:0.35316059"
             id="path26"
             inkscape:connector-curvature="0" />
          <path
             d="m 23.8,79.29 c -1.14,0.62 -2.12,1.28 -3.45,0.79 -0.77,-0.28 -1.5,-0.5 -2.17,-1 -0.48,-0.35 -1.02,-0.64 -1.5,-0.99 -0.25,-0.18 -0.49,-0.37 -0.74,-0.55 -0.28,-0.21 -0.38,-0.3 -0.74,-0.35 -0.29,-0.03 -0.86,-0.05 -1.08,0.19 -0.94,1.05 0.38,2.61 1.09,3.32 1.06,1.03 2.57,2.2 3.96,2.8 1.36,0.59 2.71,1.3 4.16,0.58 1.59,-0.8 2.97,-1.96 4.37,-3.03 0.92,-0.7 2.98,-1.93 2.62,-3.3 -0.25,-1 -1.41,-0.79 -2.17,-0.55 -0.96,0.29 -1.82,0.78 -2.71,1.23 -0.55,0.27 -1.09,0.57 -1.64,0.86 z"
             style="fill:#2f2f2f;stroke-width:0.35316059"
             id="path28"
             inkscape:connector-curvature="0" />
        </g>
      </g>
    </g>
  </g>
  <path
     style="fill:none;stroke:none;stroke-width:1px;stroke-linecap:butt;stroke-linejoin:miter;stroke-opacity:1"
     d="m 100.09756,413.4365 c 0,1.02271 0,2.04542 0,3.06813 0,0.12784 -0.0904,0.29312 0,0.38351 0.0904,0.0904 0.29312,-0.0904 0.38351,0 0.0904,0.0904 0,0.25568 0,0.38352 0,0.12784 0,0.25568 0,0.38351 0,1.27839 0,2.55677 0,3.83516 0,3.19596 0,6.39193 0,9.58789 0,0.14084 -0.0154,1.51863 0,1.53406 0.0904,0.0904 0.29312,-0.0904 0.38352,0 0.0784,0.0784 -0.076,0.99849 0,1.15055 0.0808,0.1617 0.30266,0.22181 0.38352,0.38351 0.12052,0.24105 -0.12053,1.29302 0,1.53407 0.0808,0.1617 0.30266,0.22181 0.38351,0.38351 0.11434,0.22869 -0.18079,0.58624 0,0.76703 0.0904,0.0904 0.29312,-0.0904 0.38352,0 0.19175,0.19176 -0.19176,0.95879 0,1.15055 0.19175,0.19176 0.95879,-0.19176 1.15054,0 0.0904,0.0904 -0.0904,0.29312 0,0.38351 0.18079,0.1808 0.58624,-0.18079 0.76703,0 0.0904,0.0904 -0.0904,0.29312 0,0.38352 0.19176,0.19176 0.95879,-0.19176 1.15055,0 0.0904,0.0904 -0.0904,0.29312 0,0.38352 0.18079,0.18079 0.58624,-0.1808 0.76703,0 0.0904,0.0904 -0.0904,0.29312 0,0.38351 0.0904,0.0904 0.29312,-0.0904 0.38352,0 0.0904,0.0904 0,0.25568 0,0.38352 0,0.12783 0,0.25567 0,0.38351 0,1.27839 0,2.55677 0,3.83516 0,0.12784 0,0.25567 0,0.38351 0,0.12784 -0.0904,0.29312 0,0.38352 0.0904,0.0904 0.29312,-0.0904 0.38351,0 0.18079,0.18079 -0.11434,0.53835 0,0.76703 0.0809,0.1617 0.30267,0.22181 0.38352,0.38352 0.11434,0.22868 -0.18079,0.58624 0,0.76703 0.0904,0.0904 0.29312,-0.0904 0.38351,0 0.1808,0.18079 -0.18079,0.58624 0,0.76703 0.0904,0.0904 0.29312,-0.0904 0.38352,0 0.0904,0.0904 -0.0572,0.26917 0,0.38351 0.42399,0.84798 0.23803,0.11902 0.76703,0.38352 0.16171,0.0808 0.25568,0.25568 0.38352,0.38351 0.12783,0.12784 0.30266,0.22182 0.38351,0.38352 0.0572,0.11434 -0.0904,0.29312 0,0.38352 0.0904,0.0904 0.26918,-0.0572 0.38352,0 0.32341,0.1617 0.44362,0.60532 0.76703,0.76703 0.11434,0.0572 0.26917,-0.0572 0.38351,0 0.16171,0.0808 0.22182,0.30266 0.38352,0.38351 0.11434,0.0572 0.29312,-0.0904 0.38352,0 0.0904,0.0904 -0.0904,0.29312 0,0.38352 0.10493,0.10494 1.32601,-0.10403 1.53406,0 0.1617,0.0808 0.22181,0.30266 0.38351,0.38351 0.22869,0.11435 0.53835,-0.11434 0.76703,0 0.16171,0.0809 0.22182,0.30267 0.38352,0.38352 0.24195,0.12097 1.67563,-0.12098 1.91758,0 0.1617,0.0809 0.22181,0.30266 0.38351,0.38351 0.086,0.043 1.44293,0 1.53407,0 0.76703,0 1.53406,0 2.30109,0 1.02271,0 2.04541,0 3.06812,0 0.12784,0 0.29312,-0.0904 0.38352,0 0.11875,0.11876 -0.11876,1.79883 0,1.91758 0.0904,0.0904 0.29312,-0.0904 0.38351,0 0.0904,0.0904 -0.0572,0.26918 0,0.38352 0.0809,0.1617 0.30267,0.22181 0.38352,0.38351 0.0572,0.11435 -0.0904,0.29312 0,0.38352 0.0904,0.0904 0.29312,-0.0904 0.38352,0 0.0904,0.0904 -0.0904,0.29312 0,0.38351 0.11875,0.11876 1.79882,-0.11875 1.91757,0 0.0904,0.0904 -0.0904,0.29312 0,0.38352 0.0784,0.0784 0.99849,-0.076 1.15055,0 0.1617,0.0808 0.22181,0.30266 0.38352,0.38352 0.20805,0.10402 1.42912,-0.10494 1.53406,0 0.0904,0.0904 -0.0904,0.29312 0,0.38351 0.0904,0.0904 0.25567,0 0.38351,0 0.12784,0 0.25568,0 0.38352,0 0.63919,0 1.27838,0 1.91758,0 0.12783,0 0.25567,0 0.38351,0 0.12784,0 0.26917,-0.0572 0.38352,0 0.1617,0.0808 0.22181,0.30266 0.38351,0.38352 0.11434,0.0572 0.25568,0 0.38352,0 0.12784,0 0.25568,0 0.38351,0 0.76703,0 1.53407,0 2.3011,0 0.12784,0 0.29312,0.0904 0.38351,0 0.0904,-0.0904 -0.0904,-0.29312 0,-0.38352 0.0904,-0.0904 0.25568,0 0.38352,0 0.12784,0 0.25568,0 0.38351,0 1.02271,0 -0.12783,-0.12784 0.38352,0.38352 0.0904,0.0904 0.25568,0 0.38351,0 0.12784,0 0.25568,0 0.38352,0 1.02271,0 2.04542,0 3.06812,0 0.12784,0 0.25568,0 0.38352,0 0.12784,0 0.29312,0.0904 0.38352,0 0.0904,-0.0904 -0.0904,-0.29312 0,-0.38352 0.10493,-0.10494 1.32601,0.10403 1.53406,0 0.1617,-0.0808 0.22181,-0.30266 0.38351,-0.38351 0.30682,-0.15341 0.84374,0.1534 1.15055,0 0.1617,-0.0809 0.22181,-0.30267 0.38352,-0.38352 0.2649,-0.13245 1.78295,0.13462 1.91757,0 0.0904,-0.0904 -0.0904,-0.29312 0,-0.38352 0.11876,-0.11875 1.79883,0.11876 1.91758,0 0.0904,-0.0904 -0.0904,-0.29312 0,-0.38351 0.0904,-0.0904 0.25568,0 0.38352,0 0,-0.12784 -0.0904,-0.29312 0,-0.38352 0.0904,-0.0904 0.29312,0.0904 0.38351,0 0.0904,-0.0904 0.0904,-0.29312 0,-0.38351 -0.0904,-0.0904 -0.29312,-0.0904 -0.38351,0 -0.0904,0.0904 -0.0904,0.29312 0,0.38351 0.0904,0.0904 0.29312,0.0904 0.38351,0 0.0904,-0.0904 -0.0904,-0.29312 0,-0.38351 0.0904,-0.0904 0.26918,0.0572 0.38352,0 0.1617,-0.0808 0.22181,-0.30267 0.38351,-0.38352 1.02271,0 -0.12783,0.12784 0.38352,-0.38351 0.0904,-0.0904 0.29312,0.0904 0.38351,0 0.0904,-0.0904 -0.0904,-0.29312 0,-0.38352 0.0904,-0.0904 0.26918,0.0572 0.38352,0 0.10183,-0.0509 1.09963,-1.04872 1.15055,-1.15055 0.0572,-0.11434 -0.0904,-0.29312 0,-0.38351 0.0904,-0.0904 0.29312,0.0904 0.38351,0 0.0904,-0.0904 -0.0572,-0.26917 0,-0.38352 0.0808,-0.1617 0.30267,-0.22181 0.38352,-0.38351 0.0572,-0.11434 -0.0904,-0.29312 0,-0.38352 0.0904,-0.0904 0.29312,0.0904 0.38351,0 0.0904,-0.0904 -0.0572,-0.26917 0,-0.38351 0.0809,-0.16171 0.30267,-0.22181 0.38352,-0.38352 0.11434,-0.22868 -0.11434,-0.53835 0,-0.76703 0.0808,-0.1617 0.30266,-0.22181 0.38351,-0.38352 0.0572,-0.11434 0,-0.25567 0,-0.38351 0,-0.12784 0,-0.25568 0,-0.38352 0,-0.63919 0,-1.27838 0,-1.91757 0,-0.12784 -0.0572,-0.26918 0,-0.38352 0.47392,-0.94782 0.38352,0.13238 0.38352,-0.76703 0,-0.76703 0,-1.53406 0,-2.30109 0,-0.17272 -0.0584,-1.03383 0,-1.15055 0.0808,-0.16171 0.30266,-0.22181 0.38352,-0.38352 0.076,-0.15206 -0.0784,-1.07214 0,-1.15054 0.0904,-0.0904 0.29312,0.0904 0.38351,0 0.18079,-0.18079 -0.18079,-0.58624 0,-0.76703 0.0904,-0.0904 0.29312,0.0904 0.38352,0 0.0904,-0.0904 -0.0572,-0.26918 0,-0.38352 0.0808,-0.1617 0.30266,-0.22181 0.38351,-0.38352 0.0572,-0.11434 -0.0904,-0.29312 0,-0.38351 0.0904,-0.0904 0.29312,0.0904 0.38352,0 0.0904,-0.0904 -0.0572,-0.26917 0,-0.38352 0.0808,-0.1617 0.30266,-0.22181 0.38351,-0.38351 0.0572,-0.11434 -0.0572,-0.26918 0,-0.38352 0.0809,-0.1617 0.30267,-0.22181 0.38352,-0.38351 0.0572,-0.11435 -0.0904,-0.29312 0,-0.38352 0.0904,-0.0904 0.29312,0.0904 0.38351,0 0.1808,-0.18079 -0.18079,-0.58624 0,-0.76703 0.0904,-0.0904 0.29312,0.0904 0.38352,0 0.18079,-0.18079 -0.18079,-0.58624 0,-0.76703 0.0904,-0.0904 0.29312,0.0904 0.38352,0 0.19175,-0.19176 -0.19176,-0.95879 0,-1.15055 0.0904,-0.0904 0.29312,0.0904 0.38351,0 0.0904,-0.0904 0,-0.25567 0,-0.38351 0,-0.89487 0,-1.78974 0,-2.68461 0,-0.63919 0,-1.27839 0,-1.91758 0,-0.12784 0.0904,-0.29312 0,-0.38352 -0.0904,-0.0904 -0.29312,0.0904 -0.38351,0 -0.1808,-0.18079 0.18079,-0.58624 0,-0.76703 -0.0904,-0.0904 -0.29312,0.0904 -0.38352,0 -0.18079,-0.18079 0.18079,-0.58624 0,-0.76703 -0.0904,-0.0904 -0.29312,0.0904 -0.38352,0 -0.0904,-0.0904 0.0904,-0.29312 0,-0.38351 -0.0904,-0.0904 -0.29312,0.0904 -0.38351,0 -0.0904,-0.0904 0.0904,-0.29312 0,-0.38352 -0.0904,-0.0904 -0.29312,0.0904 -0.38352,0 -0.19175,-0.19176 0.19176,-0.95879 0,-1.15055 -0.0904,-0.0904 -0.29312,0.0904 -0.38351,0 -0.18079,-0.18079 0.18079,-0.58624 0,-0.76703 -0.0904,-0.0904 -0.29312,0.0904 -0.38352,0 -0.0904,-0.0904 0.0904,-0.29312 0,-0.38351 -0.0904,-0.0904 -0.29312,0.0904 -0.38351,0 -0.18079,-0.18079 0.18079,-0.58624 0,-0.76703 -0.0904,-0.0904 -0.29312,0.0904 -0.38352,0 -0.19176,-0.19176 0.19176,-0.95879 0,-1.15055 -0.0904,-0.0904 -0.29312,0.0904 -0.38351,0 -0.0904,-0.0904 0,-0.25568 0,-0.38352 0,-0.12783 0,-0.25567 0,-0.38351 0,-1.02271 0,-2.04542 0,-3.06813 0,-0.12783 0.0904,-0.29312 0,-0.38351 -0.51136,-0.51136 -0.38352,0.63919 -0.38352,-0.38352"
     id="path898"
     inkscape:connector-curvature="0" />
  <path
     style="fill:none;stroke:none;stroke-width:1px;stroke-linecap:butt;stroke-linejoin:miter;stroke-opacity:1"
     d="m 229.72581,427.24306 c 0.12784,0.51136 0.28015,1.01721 0.38352,1.53407 0.069,0.34516 0,0.79771 0,1.15054 0,0.76703 0,1.53406 0,2.3011 0,0.093 0.0123,1.13821 0,1.15054 -0.0904,0.0904 -0.29312,-0.0904 -0.38352,0 -0.19175,0.19176 0.19176,0.95879 0,1.15055 -0.0904,0.0904 -0.29312,-0.0904 -0.38351,0 -0.18079,0.18079 0.18079,0.58624 0,0.76703 -0.0904,0.0904 -0.29312,-0.0904 -0.38352,0 -0.19175,0.19176 0.19176,0.95879 0,1.15055 -0.0904,0.0904 -0.29312,-0.0904 -0.38351,0 -0.18079,0.18079 0.18079,0.58624 0,0.76703 -0.0904,0.0904 -0.29312,-0.0904 -0.38352,0 -0.0923,0.0923 0.0923,1.44177 0,1.53406 -0.0904,0.0904 -0.29312,-0.0904 -0.38351,0 -0.0904,0.0904 0,0.25568 0,0.38352 0,0.63919 0,1.27838 0,1.91757 0,0.12784 -0.0904,0.29312 0,0.38352 0.0904,0.0904 0.29312,-0.0904 0.38351,0 0.0904,0.0904 -0.0572,0.26917 0,0.38351 0.0808,0.16171 0.30267,0.22182 0.38352,0.38352 0.0572,0.11434 -0.0904,0.29312 0,0.38352 0.18079,0.18079 0.58624,-0.1808 0.76703,0 0.0904,0.0904 -0.0904,0.29312 0,0.38351 0.0904,0.0904 0.29312,-0.0904 0.38351,0 0.0904,0.0904 -0.0904,0.29312 0,0.38352 0.0904,0.0904 0.29312,-0.0904 0.38352,0 0.18079,0.18079 -0.18079,0.58624 0,0.76703 0.0904,0.0904 0.29312,-0.0904 0.38352,0 0.0904,0.0904 -0.0904,0.29312 0,0.38351 0.0904,0.0904 0.29312,-0.0904 0.38351,0 0.0904,0.0904 -0.0904,0.29312 0,0.38352 0.0904,0.0904 0.29312,-0.0904 0.38352,0 0.0904,0.0904 -0.0904,0.29312 0,0.38351 0.18079,0.1808 0.58624,-0.18079 0.76703,0 0.0904,0.0904 -0.0904,0.29312 0,0.38352 0.0904,0.0904 0.29312,-0.0904 0.38351,0 0.0904,0.0904 -0.0904,0.29312 0,0.38352 0.0904,0.0904 0.29312,-0.0904 0.38352,0 0.0904,0.0904 -0.0904,0.29312 0,0.38351 0.0904,0.0904 0.29312,-0.0904 0.38351,0 0.0904,0.0904 -0.0904,0.29312 0,0.38352 0.0904,0.0904 0.29312,-0.0904 0.38352,0 0.0904,0.0904 -0.0904,0.29312 0,0.38351 0.0904,0.0904 0.29312,-0.0904 0.38352,0 0.0904,0.0904 -0.0904,0.29312 0,0.38352 0.0904,0.0904 0.29312,-0.0904 0.38351,0 0.0384,0.0383 0.0384,1.11219 0,1.15054 -0.0904,0.0904 -0.29312,-0.0904 -0.38351,0 -0.0904,0.0904 0.0904,0.29312 0,0.38352 -0.0904,0.0904 -0.29312,-0.0904 -0.38352,0 -0.0904,0.0904 0.0904,0.29312 0,0.38352 -0.0904,0.0904 -0.29312,-0.0904 -0.38352,0 -0.0904,0.0904 0.0904,0.29312 0,0.38351 -0.0904,0.0904 -0.29312,-0.0904 -0.38351,0 -0.18079,0.18079 0.18079,0.58624 0,0.76703 -0.0904,0.0904 -0.29312,-0.0904 -0.38352,0 -0.0904,0.0904 0.0904,0.29312 0,0.38352 -0.0904,0.0904 -0.29312,-0.0904 -0.38351,0 -0.0154,0.0154 0,1.39322 0,1.53406 0,0.093 -0.0123,1.13821 0,1.15055 0.0904,0.0904 0.29312,-0.0904 0.38351,0 0.0904,0.0904 -0.0572,0.26917 0,0.38351 0.0809,0.16171 0.30267,0.22181 0.38352,0.38352 0.11434,0.22868 -0.18079,0.58624 0,0.76703 0.0904,0.0904 0.29312,-0.0904 0.38351,0 0.79351,0.79351 -1.21258,-0.031 0.38352,0.76703 0.11434,0.0572 0.29312,-0.0904 0.38352,0 0.0904,0.0904 -0.0572,0.26917 0,0.38352 0.0808,0.1617 0.30266,0.22181 0.38351,0.38351 0.11434,0.22869 -0.18079,0.58624 0,0.76703 0.0904,0.0904 0.29312,-0.0904 0.38352,0 0.18079,0.18079 -0.18079,0.58624 0,0.76703 0.0904,0.0904 0.29312,-0.0904 0.38351,0 0.0904,0.0904 -0.0904,0.29312 0,0.38352 0.0904,0.0904 0.29312,-0.0904 0.38352,0 0.18079,0.18079 -0.18079,0.58624 0,0.76703 0.0904,0.0904 0.29312,-0.0904 0.38351,0 0.0904,0.0904 -0.0904,0.29312 0,0.38352 0.0904,0.0904 0.26918,-0.0572 0.38352,0 0.1617,0.0808 0.22181,0.30266 0.38351,0.38351 0.11435,0.0572 0.29312,-0.0904 0.38352,0 0.0904,0.0904 -0.0904,0.29312 0,0.38352 0.0904,0.0904 0.29312,-0.0904 0.38352,0 0.0904,0.0904 -0.0904,0.29312 0,0.38351 0.0904,0.0904 0.29312,-0.0904 0.38351,0 0.0904,0.0904 -0.0904,0.29312 0,0.38352 0.0904,0.0904 0.26917,-0.0572 0.38352,0 0.1617,0.0808 0.22181,0.30266 0.38351,0.38351 0.11434,0.0572 0.29312,-0.0904 0.38352,0 0.0904,0.0904 -0.0904,0.29312 0,0.38352 0.0904,0.0904 0.29312,-0.0904 0.38351,0 0.0904,0.0904 -0.0904,0.29312 0,0.38351 0.0904,0.0904 0.29312,-0.0904 0.38352,0 0,1.02271 -0.12784,-0.12783 0.38351,0.38352 0.0904,0.0904 -0.0904,0.29312 0,0.38352 0.0904,0.0904 0.29312,-0.0904 0.38352,0 0.0904,0.0904 -0.0904,0.29312 0,0.38351 0.0904,0.0904 0.29312,-0.0904 0.38352,0 0.0541,0.0541 0.0393,1.07188 0,1.15055 -0.0809,0.1617 -0.30267,0.22181 -0.38352,0.38351 -0.0572,0.11435 0.0904,0.29312 0,0.38352 -0.0904,0.0904 -0.29312,-0.0904 -0.38352,0 -0.0904,0.0904 0.0904,0.29312 0,0.38351 -0.0904,0.0904 -0.29312,-0.0904 -0.38351,0 -0.0904,0.0904 0.0904,0.29312 0,0.38352 -0.0904,0.0904 -0.29312,-0.0904 -0.38352,0 -0.0123,0.0123 0,1.05753 0,1.15055 0,0.12783 0,0.25567 0,0.38351 0,0.12784 -0.0904,0.29312 0,0.38352 0.0904,0.0904 0.29312,-0.0904 0.38352,0 0.0904,0.0904 -0.0904,0.29312 0,0.38351 0.18079,0.18079 0.53835,-0.11434 0.76703,0 0.1617,0.0808 0.22181,0.30267 0.38352,0.38352 0.11434,0.0572 0.29312,-0.0904 0.38351,0 0.0904,0.0904 -0.0904,0.29312 0,0.38351 0.18079,0.18079 0.58624,-0.18079 0.76703,0 0.0904,0.0904 -0.0904,0.29312 0,0.38352 0.19176,0.19176 0.95879,-0.19176 1.15055,0 0,1.02271 -0.12784,-0.12784 0.38351,0.38351 0.0904,0.0904 -0.0904,0.29313 0,0.38352 0.19176,0.19176 0.95879,-0.19176 1.15055,0 0.0904,0.0904 -0.0904,0.29312 0,0.38352 0.0904,0.0904 0.26917,-0.0572 0.38352,0 0.1617,0.0808 0.22181,0.30266 0.38351,0.38351 0.24105,0.12053 1.29302,-0.12052 1.53406,0 0.16171,0.0808 0.22182,0.30266 0.38352,0.38352 0.11434,0.0572 0.26917,-0.0572 0.38352,0 0.1617,0.0808 0.22181,0.30266 0.38351,0.38351 0.22869,0.11434 0.58624,-0.18079 0.76703,0 0.0904,0.0904 -0.0904,0.29312 0,0.38352 0.0904,0.0904 0.29312,-0.0904 0.38352,0 0.0904,0.0904 -0.0904,0.29312 0,0.38351 0.0904,0.0904 0.29312,-0.0904 0.38351,0 0.0904,0.0904 -0.0904,0.29312 0,0.38352 0.0904,0.0904 0.29312,-0.0904 0.38352,0 0.19176,0.19176 -0.19176,0.95879 0,1.15055 0.0904,0.0904 0.29312,-0.0904 0.38351,0 0.1808,0.18079 -0.18079,0.58624 0,0.76703 0.0904,0.0904 0.29312,-0.0904 0.38352,0 0.18079,0.18079 -0.18079,0.58624 0,0.76703 0.0904,0.0904 0.29312,-0.0904 0.38352,0 0.0904,0.0904 -0.0904,0.29312 0,0.38351 0.0904,0.0904 0.29312,-0.0904 0.38351,0 0,1.02271 -0.12784,-0.12783 0.38352,0.38352 0.0904,0.0904 -0.0904,0.29312 0,0.38351 0.0904,0.0904 0.26917,-0.0572 0.38351,0 0.16171,0.0809 0.22181,0.30267 0.38352,0.38352 0.11434,0.0572 0.29312,-0.0904 0.38351,0 0.0904,0.0904 -0.0904,0.29312 0,0.38352 0.0904,0.0904 0.26918,-0.0572 0.38352,0 0.1617,0.0808 0.22181,0.30266 0.38351,0.38351 0.11435,0.0572 0.29312,-0.0904 0.38352,0 0.0904,0.0904 -0.0904,0.29312 0,0.38352 0.0904,0.0904 0.26917,-0.0572 0.38352,0 0.1617,0.0808 0.22181,0.30266 0.38351,0.38351 0.24105,0.12053 1.29302,-0.12052 1.53406,0 0.16171,0.0808 0.22181,0.30267 0.38352,0.38352 0.11434,0.0572 0.25568,0 0.38351,0 0.12784,0.12784 0.22182,0.30266 0.38352,0.38351 0.22868,0.11435 0.58624,-0.18079 0.76703,0 0.63919,0.6392 -1.40622,0.38352 0.76703,0.38352 0.89941,0 -0.18079,-0.0904 0.76703,0.38351 0.30682,0.15341 0.84374,-0.1534 1.15055,0 0.1617,0.0809 0.22181,0.30267 0.38352,0.38352 0.24194,0.12097 1.67563,-0.12097 1.91757,0 0.16171,0.0808 0.21201,0.32634 0.38352,0.38352 0.36383,0.12127 0.76703,0 1.15055,0 0.76703,0 1.53406,0 2.30109,0 2.42893,0 4.85786,0 7.28679,0 1.02271,0 2.04542,0 3.06813,0 0.12784,0 0.25568,0 0.38351,0 0.12784,0 0.29312,0.0904 0.38352,0 0.6431,-0.6431 -1.07516,-0.30813 -1.15055,-0.38352 -0.0904,-0.0904 0.0904,-0.29312 0,-0.38352 -0.13462,-0.13462 -1.65267,0.13246 -1.91757,0 -0.16171,-0.0808 -0.22182,-0.30266 -0.38352,-0.38351 -0.23288,-0.11644 -2.06821,0.11644 -2.30109,0 -0.16171,-0.0808 -0.22181,-0.30266 -0.38352,-0.38352 -0.13965,-0.0698 -1.53406,0.0673 -1.53406,0 0,-0.12783 0.25568,0 0.38351,0 0.76704,0 1.53407,0 2.3011,0 0.76703,0 1.53406,0 2.30109,0 0.25568,0 0.51136,0 0.76703,0 0.12784,0 0.26224,0.0404 0.38352,0 0.27118,-0.0904 0.48971,-0.31418 0.76703,-0.38351 0.24804,-0.062 0.51899,0.062 0.76703,0 0.27732,-0.0693 0.48971,-0.31419 0.76703,-0.38352 0.50425,-0.12606 1.44127,0.15877 1.91758,0 0.17151,-0.0572 0.212,-0.32634 0.38351,-0.38351 0.24256,-0.0809 0.51899,0.062 0.76704,0 0.27732,-0.0693 0.48971,-0.31419 0.76703,-0.38352 0.24804,-0.062 0.52447,0.0808 0.76703,0 0.17151,-0.0572 0.25567,-0.25568 0.38351,-0.38351 0.38352,-0.12784 0.75414,-0.30424 1.15055,-0.38352 0.25071,-0.0501 0.52447,0.0808 0.76703,0 0.17151,-0.0572 0.23309,-0.28323 0.38352,-0.38352 0.23784,-0.15856 0.51135,-0.25567 0.76703,-0.38351 0.25567,-0.12784 0.48971,-0.31419 0.76703,-0.38352 0.37206,-0.093 0.78671,0.12128 1.15055,0 0.54237,-0.18079 0.99168,-0.58624 1.53406,-0.76703 0.70843,-0.23614 0.18182,0.58521 1.15054,-0.38351 0.0904,-0.0904 -0.0904,-0.29312 0,-0.38352 0.20213,-0.20213 0.52919,-0.22495 0.76704,-0.38351 0.30085,-0.20057 0.44362,-0.60533 0.76703,-0.76704 0.11434,-0.0572 0.26917,0.0572 0.38351,0 0.16171,-0.0808 0.25568,-0.25567 0.38352,-0.38351 0.12784,-0.12784 0.30266,-0.22181 0.38351,-0.38352 0.0572,-0.11434 -0.0572,-0.26917 0,-0.38351 0.0809,-0.16171 0.30267,-0.22181 0.38352,-0.38352 0.11434,-0.22868 -0.11434,-0.53834 0,-0.76703 0.0808,-0.1617 0.30266,-0.22181 0.38351,-0.38351 0.11435,-0.22869 -0.18079,-0.58624 0,-0.76704 0.0904,-0.0904 0.29312,0.0904 0.38352,0 0.0904,-0.0904 0,-0.25567 0,-0.38351 0,-0.63919 0,-1.27839 0,-1.91758 0,-0.12784 0.0904,-0.29312 0,-0.38351 -0.0904,-0.0904 -0.29312,0.0904 -0.38352,0 -0.0904,-0.0904 0.0572,-0.26918 0,-0.38352 -0.1617,-0.32341 -0.60532,-0.44362 -0.76703,-0.76703 -0.0572,-0.11434 0.0904,-0.29312 0,-0.38352 -0.18079,-0.18079 -0.58624,0.18079 -0.76703,0 -0.0904,-0.0904 0.0904,-0.29312 0,-0.38351 -0.11875,-0.11876 -1.79882,0.11875 -1.91758,0 -0.0904,-0.0904 0.0904,-0.29312 0,-0.38352 -0.18079,-0.18079 -0.58624,0.18079 -0.76703,0 -0.0904,-0.0904 0,-0.25567 0,-0.38351 0,-0.12784 -0.0904,-0.29312 0,-0.38352 0.0904,-0.0904 0.29312,0.0904 0.38352,0 0.0904,-0.0904 -0.0572,-0.26917 0,-0.38351 0.0808,-0.16171 0.30266,-0.22182 0.38351,-0.38352 0.26451,-0.529 -0.46445,-0.34304 0.38352,-0.76703 0.11434,-0.0572 0.26917,0.0572 0.38352,0 0.46021,-0.23011 0.69032,-0.92044 1.15054,-1.15055 0.11434,-0.0572 0.29312,0.0904 0.38352,0 0.0904,-0.0904 -0.0904,-0.29312 0,-0.38351 0.0904,-0.0904 0.29312,0.0904 0.38351,0 0.0904,-0.0904 -0.0572,-0.26918 0,-0.38352 0.0809,-0.1617 0.25568,-0.25568 0.38352,-0.38351 0.12784,-0.12784 0.22181,-0.30267 0.38351,-0.38352 0.22869,-0.11434 0.58624,0.18079 0.76704,0 0.0904,-0.0904 -0.0572,-0.26917 0,-0.38351 0.10241,-0.20483 0.94863,-0.94864 1.15054,-1.15055 0.20191,-0.20191 0.94572,-1.04813 1.15055,-1.15055 1.12861,-0.5643 -0.50493,0.88845 0.76703,-0.38351 0.12784,-0.12784 0.30266,-0.22181 0.38352,-0.38352 0.0572,-0.11434 -0.0904,-0.29312 0,-0.38351 0.0904,-0.0904 0.29312,0.0904 0.38351,0 0.0123,-0.0123 0,-1.05754 0,-1.15055 0,-0.12784 0.0904,-0.29312 0,-0.38352 -0.18079,-0.18079 -0.58624,0.18079 -0.76703,0 -0.0904,-0.0904 0,-0.25567 0,-0.38351 -0.12784,0 -0.29312,0.0904 -0.38352,0 -0.0904,-0.0904 0.0904,-0.29312 0,-0.38352 -0.18079,-0.18079 -0.53834,0.11434 -0.76703,0 -0.46022,-0.23011 -0.69033,-0.92044 -1.15054,-1.15054 -0.11435,-0.0572 -0.26918,0.0572 -0.38352,0 -0.1617,-0.0809 -0.22181,-0.30267 -0.38351,-0.38352 -0.22869,-0.11434 -0.53835,0.11434 -0.76704,0 -0.1617,-0.0808 -0.22181,-0.30266 -0.38351,-0.38352 -0.22869,-0.11434 -0.52448,0.0809 -0.76703,0 -0.27119,-0.0904 -0.51136,-0.25567 -0.76703,-0.38351 -0.25568,-0.12784 -0.49585,-0.29312 -0.76703,-0.38352 -0.12128,-0.0404 -0.26918,0.0572 -0.38352,0 -0.1617,-0.0808 -0.23309,-0.28323 -0.38352,-0.38351 -1.93744,-1.29163 -0.009,-0.003 -1.15054,-0.38352 -2.77797,-0.92599 0.60465,0.11057 -1.15055,-0.76703 -0.11434,-0.0572 -0.26917,0.0572 -0.38351,0 -0.16171,-0.0808 -0.22182,-0.30266 -0.38352,-0.38351 -0.30681,-0.15341 -0.84373,0.1534 -1.15055,0 -1.5961,-0.79805 0.40999,0.0265 -0.38351,-0.76704 -0.0904,-0.0904 -0.29312,0.0904 -0.38352,0 -0.0123,-0.0123 0,-1.05753 0,-1.15054 0,-0.12784 -0.0904,-0.29312 0,-0.38352 0.0904,-0.0904 0.29312,0.0904 0.38352,0 0.0904,-0.0904 -0.0904,-0.29312 0,-0.38351 0.0904,-0.0904 0.29312,0.0904 0.38351,0 0.18079,-0.18079 -0.18079,-0.58624 0,-0.76703 0.0904,-0.0904 0.29312,0.0904 0.38352,0 0,-1.02271 -0.12784,0.12783 0.38351,-0.38352 0.1808,-0.18079 -0.18079,-0.58624 0,-0.76703 0.0904,-0.0904 0.29312,0.0904 0.38352,0 0.0904,-0.0904 -0.0572,-0.26917 0,-0.38352 0.0808,-0.1617 0.30266,-0.22181 0.38352,-0.38351 0.1534,-0.30681 -0.15341,-0.84374 0,-1.15055 0.0808,-0.1617 0.30266,-0.22181 0.38351,-0.38351 0.076,-0.15207 -0.0784,-1.07215 0,-1.15055 0.0904,-0.0904 0.29312,0.0904 0.38352,0 0.0154,-0.0154 0,-1.39322 0,-1.53406 0,-0.6392 0,-1.27839 0,-1.91758 0,-0.12784 0,-0.25568 0,-0.38352 0,-0.12784 0.0572,-0.26917 0,-0.38351 -0.0809,-0.16171 -0.30267,-0.22181 -0.38352,-0.38352 -0.15341,-0.30681 0.15341,-0.84373 0,-1.15054 -0.0808,-0.16171 -0.30266,-0.22182 -0.38351,-0.38352 -0.0496,-0.0992 0,-2.02926 0,-2.30109 0,-0.093 -0.0123,-1.13822 0,-1.15055 0.0904,-0.0904 0.29312,0.0904 0.38351,0 0.0784,-0.0784 -0.076,-0.99849 0,-1.15055 0.0808,-0.1617 0.30266,-0.22181 0.38352,-0.38351 0.12052,-0.24105 -0.12053,-1.29302 0,-1.53406 0.0808,-0.16171 0.30266,-0.22182 0.38351,-0.38352 0.11434,-0.22868 -0.11434,-0.53835 0,-0.76703 0.0808,-0.16171 0.30267,-0.22181 0.38352,-0.38352 0.0496,-0.0992 0,-2.02925 0,-2.30109 0,-0.093 0.0123,-1.13821 0,-1.15055 -0.0904,-0.0904 -0.29312,0.0904 -0.38352,0 -0.0904,-0.0904 0.0904,-0.29312 0,-0.38351 -0.0904,-0.0904 -0.29312,0.0904 -0.38351,0 -0.0904,-0.0904 0.0904,-0.29312 0,-0.38352 -0.18079,-0.18079 -0.58624,0.18079 -0.76703,0 -0.0904,-0.0904 -0.12784,-0.38351 0,-0.38351 0.12783,0 0,0.25567 0,0.38351"
     id="path902"
     inkscape:connector-curvature="0" />
  <path
     style="fill:none;stroke:none;stroke-width:1px;stroke-linecap:butt;stroke-linejoin:miter;stroke-opacity:1"
     d="m 348.61564,393.49369 c 2.31497,-0.19599 -0.0774,1.45665 0.38351,1.91758 0.0904,0.0904 0.29312,-0.0904 0.38352,0 0.0904,0.0904 0,0.25568 0,0.38352 0,0.63919 0,1.27838 0,1.91758 0,0.12783 -0.0904,0.29312 0,0.38351 0.0904,0.0904 0.29312,-0.0904 0.38351,0 0.0123,0.0123 0,1.05754 0,1.15055 0,2.17325 0,4.34651 0,6.51976 0,0.76703 0,1.53406 0,2.3011 0,0.17271 -0.0584,1.03383 0,1.15054 0.0808,0.16171 0.30267,0.22181 0.38352,0.38352 0.11434,0.22868 -0.11434,0.53834 0,0.76703 0.0808,0.1617 0.30266,0.22181 0.38351,0.38351 0.11435,0.22869 -0.18079,0.58624 0,0.76704 0.79351,0.7935 -0.031,-1.21259 0.76703,0.38351 0.0572,0.11434 0,0.25568 0,0.38352 0.12784,0.12784 0.30267,0.22181 0.38352,0.38351 0.11434,0.22869 -0.18079,0.58624 0,0.76703 0.0904,0.0904 0.29312,-0.0904 0.38352,0 0.0904,0.0904 -0.0904,0.29312 0,0.38352 0.0904,0.0904 0.29312,-0.0904 0.38351,0 0.0904,0.0904 -0.0904,0.29312 0,0.38351 0.19176,0.19176 0.95879,-0.19175 1.15055,0 0.0904,0.0904 -0.0904,0.29312 0,0.38352 0.0904,0.0904 0.26917,-0.0572 0.38351,0 0.32341,0.1617 0.44363,0.60533 0.76703,0.76703 0.11435,0.0572 0.26918,-0.0572 0.38352,0 0.1617,0.0808 0.22181,0.30266 0.38352,0.38352 0.11434,0.0572 0.26917,-0.0572 0.38351,0 0.16171,0.0808 0.22181,0.30266 0.38352,0.38351 0.22868,0.11434 0.58624,-0.18079 0.76703,0 0.0904,0.0904 -0.0904,0.29312 0,0.38352 0.0904,0.0904 0.26917,-0.0572 0.38351,0 0.16171,0.0808 0.22181,0.30266 0.38352,0.38351 0.15206,0.076 1.07214,-0.0784 1.15055,0 0.0904,0.0904 -0.0904,0.29312 0,0.38352 0.0904,0.0904 0.29312,-0.0904 0.38351,0 0.0904,0.0904 0.0904,0.29312 0,0.38351 -0.0904,0.0904 -0.29312,-0.0904 -0.38351,0 -0.0904,0.0904 0.0904,0.29312 0,0.38352 -0.0904,0.0904 -0.29312,-0.0904 -0.38352,0 -0.0904,0.0904 0.0904,0.29312 0,0.38352 -0.18079,0.18079 -0.58624,-0.1808 -0.76703,0 -0.0904,0.0904 0.0904,0.29312 0,0.38351 -0.0904,0.0904 -0.26917,-0.0572 -0.38352,0 -0.1617,0.0808 -0.22181,0.30266 -0.38351,0.38352 -0.11434,0.0572 -0.29312,-0.0904 -0.38352,0 -0.0904,0.0904 0.0904,0.29312 0,0.38351 -0.0904,0.0904 -0.29312,-0.0904 -0.38351,0 -0.0904,0.0904 0.0572,0.26918 0,0.38352 -0.0809,0.1617 -0.30267,0.22181 -0.38352,0.38351 -0.0572,0.11435 0.0904,0.29312 0,0.38352 -0.0904,0.0904 -0.29312,-0.0904 -0.38351,0 -0.19176,0.19176 0.19175,0.95879 0,1.15055 -0.0904,0.0904 -0.29312,-0.0904 -0.38352,0 -0.0123,0.0123 0,1.05753 0,1.15054 0,0.14084 -0.0154,1.51863 0,1.53406 0.0904,0.0904 0.26917,-0.0572 0.38352,0 0.43966,0.21984 0.53347,0.80021 0.76703,1.15055 0.20057,0.30086 0.65269,0.42401 0.76703,0.76703 0.0808,0.24256 -0.0808,0.52448 0,0.76703 0.14684,0.44054 0.91561,0.5321 1.15054,0.76703 0.20213,0.20213 0.18139,0.56491 0.38352,0.76704 0.20213,0.20213 0.5649,0.18138 0.76703,0.38351 0.20213,0.20213 0.22495,0.52919 0.38352,0.76703 0.20057,0.30086 0.56646,0.46618 0.76703,0.76703 0.15856,0.23785 0.18138,0.5649 0.38351,0.76703 2.04542,1.02271 -0.38351,-0.38351 1.15055,1.15055 0.0904,0.0904 0.26917,-0.0572 0.38352,0 0.1617,0.0808 0.25567,0.25568 0.38351,0.38352 0.12784,0.12784 0.28323,0.23308 0.38352,0.38351 0.15856,0.23785 0.18138,0.5649 0.38351,0.76703 0.0904,0.0904 0.26918,-0.0572 0.38352,0 0.46022,0.23011 0.69033,0.92044 1.15054,1.15055 0.11435,0.0572 0.26918,-0.0572 0.38352,0 0.1617,0.0808 0.22181,0.30266 0.38352,0.38352 0.11434,0.0572 0.26917,-0.0572 0.38351,0 0.16171,0.0808 0.22181,0.30266 0.38352,0.38351 0.11434,0.0572 0.25567,0 0.38351,0 0.12784,0.12784 0.22181,0.30266 0.38352,0.38352 0.11434,0.0572 0.29312,-0.0904 0.38351,0 0.0904,0.0904 -0.0904,0.29312 0,0.38351 0.18079,0.18079 0.58624,-0.18079 0.76703,0 0.0904,0.0904 -0.0904,0.29312 0,0.38352 0.19176,0.19176 0.95879,-0.19176 1.15055,0 0.0904,0.0904 -0.0904,0.29312 0,0.38351 0.0784,0.0784 0.99849,-0.076 1.15055,0 0.1617,0.0809 0.22181,0.30267 0.38351,0.38352 0.11435,0.0572 0.25568,0 0.38352,0 0.25568,0 0.51135,0 0.76703,0 0.40569,0 2.48703,-0.0659 2.68461,0 0.17151,0.0572 0.22181,0.30266 0.38351,0.38351 0.2028,0.1014 1.34722,-0.0467 1.53407,0 0.27732,0.0693 0.48971,0.31419 0.76703,0.38352 0.24804,0.062 0.52447,-0.0808 0.76703,0 0.17151,0.0572 0.212,0.32634 0.38351,0.38352 0.24256,0.0808 0.51899,-0.062 0.76704,0 0.27732,0.0693 0.48971,0.31418 0.76703,0.38351 0.24804,0.062 0.52447,-0.0808 0.76703,0 0.17151,0.0572 0.20812,0.33967 0.38351,0.38352 0.37207,0.093 0.77448,-0.0752 1.15055,0 0.2803,0.0561 0.49584,0.29312 0.76703,0.38351 0.12128,0.0404 0.26224,-0.0404 0.38352,0 0.27118,0.0904 0.48672,0.32746 0.76703,0.38352 0.62678,0.12535 1.27838,0 1.91758,0 0.12783,0 0.26223,-0.0404 0.38351,0 0.54237,0.18079 0.97942,0.62837 1.53406,0.76703 0.24805,0.062 0.52448,-0.0808 0.76703,0 0.17152,0.0572 0.22182,0.30266 0.38352,0.38351 0.11434,0.0572 0.25568,0 0.38352,0 0.25567,0 0.52447,-0.0808 0.76703,0 0.17151,0.0572 0.22181,0.30267 0.38351,0.38352 0.22869,0.11434 0.58624,-0.18079 0.76703,0 0.0904,0.0904 -0.0904,0.29312 0,0.38352 0.18079,0.18079 0.53835,-0.11435 0.76703,0 0.16171,0.0808 0.22182,0.30266 0.38352,0.38351 0.22868,0.11434 0.58624,-0.18079 0.76703,0 0.0904,0.0904 -0.0904,0.29312 0,0.38352 0.18079,0.18079 0.58624,-0.18079 0.76703,0 0.18079,0.18079 -0.18079,0.58624 0,0.76703 0.0904,0.0904 0.29312,-0.0904 0.38352,0 0.0904,0.0904 -0.0904,0.29312 0,0.38351 0.0904,0.0904 0.26917,-0.0572 0.38351,0 0.16171,0.0809 0.22181,0.30267 0.38352,0.38352 0.22868,0.11434 0.58624,-0.18079 0.76703,0 0.0904,0.0904 -0.0904,0.29312 0,0.38351 0.18079,0.1808 0.58624,-0.18079 0.76703,0 0.0904,0.0904 -0.11434,0.32635 0,0.38352 0.22869,0.11434 0.52448,-0.0808 0.76703,0 0.17152,0.0572 0.212,0.32634 0.38352,0.38352 0.48511,0.1617 1.03797,-0.12403 1.53406,0 0.27732,0.0693 0.48971,0.31418 0.76703,0.38351 0.24804,0.062 0.52448,-0.0808 0.76703,0 0.17151,0.0572 0.212,0.32635 0.38352,0.38352 0.4763,0.15877 1.41332,-0.12607 1.91757,0 0.27733,0.0693 0.49585,0.29312 0.76704,0.38351 0.21637,0.0721 0.89853,0 1.15054,0 0.6392,0 1.27839,0 1.91758,0 0.25201,0 0.93417,0.0721 1.15055,0 0.27118,-0.0904 0.49584,-0.29312 0.76703,-0.38351 0.24255,-0.0809 0.53834,0.11434 0.76703,0 0.32341,-0.16171 0.44362,-0.60533 0.76703,-0.76703 0.15206,-0.076 1.07214,0.0784 1.15055,0 0.0904,-0.0904 -0.0904,-0.29312 0,-0.38352 0.0904,-0.0904 0.26917,0.0572 0.38351,0 0.16171,-0.0808 0.22181,-0.30266 0.38352,-0.38352 0.11434,-0.0572 0.29312,0.0904 0.38351,0 0.18079,-0.18079 -0.18079,-0.58624 0,-0.76703 0.0904,-0.0904 0.25568,0 0.38352,0 0,-0.12784 -0.0904,-0.29312 0,-0.38351 0.0904,-0.0904 0.29312,0.0904 0.38351,0 0.1808,-0.18079 -0.18079,-0.58624 0,-0.76703 0.0904,-0.0904 0.29312,0.0904 0.38352,0 0.0904,-0.0904 -0.0572,-0.26918 0,-0.38352 0.0808,-0.1617 0.30266,-0.22181 0.38352,-0.38351 0.0584,-0.11672 0,-0.97783 0,-1.15055 0,-1.02271 0,-2.04542 0,-3.06813 0,-0.093 -0.0123,-1.13821 0,-1.15054 0.0904,-0.0904 0.29312,0.0904 0.38351,0 0.0923,-0.0923 -0.0923,-1.44178 0,-1.53406 0.0904,-0.0904 0.29312,0.0904 0.38352,0 0.10494,-0.10494 -0.10403,-1.32601 0,-1.53407 0.0808,-0.1617 0.30266,-0.22181 0.38351,-0.38351 0.0572,-0.11434 0,-0.25568 0,-0.38352 0,-0.12784 0,-0.25567 0,-0.38351 0,-0.17272 0.0584,-1.03383 0,-1.15055 -0.0808,-0.1617 -0.30266,-0.22181 -0.38351,-0.38352 -0.0572,-0.11434 0.0572,-0.26917 0,-0.38351 -0.0809,-0.16171 -0.30267,-0.22181 -0.38352,-0.38352 -0.0572,-0.11434 0.0572,-0.26917 0,-0.38351 -0.42399,-0.84798 -0.23802,-0.11902 -0.76703,-0.38352 -0.1617,-0.0808 -0.23309,-0.28323 -0.38352,-0.38351 -0.23784,-0.15857 -0.60846,-0.14567 -0.76703,-0.38352 -0.14182,-0.21274 0.0809,-0.52447 0,-0.76703 -0.0572,-0.17151 -0.25567,-0.25568 -0.38351,-0.38352 -0.12784,-0.12783 -0.23309,-0.28323 -0.38352,-0.38351 -0.23784,-0.15857 -0.49584,-0.29312 -0.76703,-0.38352 -0.12128,-0.0404 -0.29312,0.0904 -0.38351,0 -0.0904,-0.0904 0.0904,-0.29312 0,-0.38351 -0.2292,-0.2292 -0.76704,0.41453 -0.76704,-0.38352 0,-0.0672 1.39442,0.0698 1.53407,0 0.1617,-0.0808 0.22181,-0.30266 0.38351,-0.38351 0.11434,-0.0572 0.26918,0.0572 0.38352,0 0.1617,-0.0809 0.22181,-0.30267 0.38351,-0.38352 0.11435,-0.0572 0.26918,0.0572 0.38352,0 0.1617,-0.0808 0.22181,-0.30266 0.38351,-0.38351 0.11435,-0.0572 0.26918,0.0572 0.38352,0 0.1617,-0.0809 0.22181,-0.30267 0.38352,-0.38352 0.11434,-0.0572 0.29312,0.0904 0.38351,0 0.0904,-0.0904 -0.0904,-0.29312 0,-0.38352 0.18079,-0.18079 0.53835,0.11435 0.76703,0 0.16171,-0.0808 0.25568,-0.25567 0.38352,-0.38351 0.25568,0 0.52447,0.0808 0.76703,0 0.17151,-0.0572 0.25568,-0.25568 0.38351,-0.38352 0.12784,-0.12784 0.30267,-0.22181 0.38352,-0.38351 0.0572,-0.11434 -0.0904,-0.29312 0,-0.38352 0.20213,-0.20213 0.52919,-0.22495 0.76703,-0.38351 0.30086,-0.20057 0.44362,-0.60533 0.76703,-0.76703 0.11434,-0.0572 0.26918,0.0572 0.38352,0 0.1617,-0.0809 0.25568,-0.25568 0.38351,-0.38352 0.12784,-0.12784 0.30267,-0.22181 0.38352,-0.38352 0.0572,-0.11434 -0.0572,-0.26917 0,-0.38351 0.79805,-1.5961 -0.0265,0.40999 0.76703,-0.38352 0.0904,-0.0904 -0.0572,-0.26917 0,-0.38351 0.23011,-0.46022 0.92044,-0.69033 1.15055,-1.15055 0.0572,-0.11434 -0.0572,-0.26917 0,-0.38351 0.0808,-0.16171 0.30266,-0.22182 0.38351,-0.38352 0.0572,-0.11434 0,-0.25568 0,-0.38352 0.12784,-0.12783 0.30267,-0.22181 0.38352,-0.38351 0.0504,-0.10084 0,-1.33352 0,-1.53406 0,-0.6392 0,-1.27839 0,-1.91758 0,-0.12784 0.0904,-0.29312 0,-0.38352 -0.0904,-0.0904 -0.26918,0.0572 -0.38352,0 -0.70606,-0.35303 -0.061,-0.79751 -0.76703,-1.15054 -0.11434,-0.0572 -0.26917,0.0572 -0.38351,0 -0.32341,-0.16171 -0.44363,-0.60533 -0.76704,-0.76703 -0.11434,-0.0572 -0.29312,0.0904 -0.38351,0 -0.0904,-0.0904 0.0904,-0.29312 0,-0.38352 -0.0904,-0.0904 -0.29312,0.0904 -0.38352,0 -0.0904,-0.0904 0.0904,-0.29312 0,-0.38352 -0.0904,-0.0904 -0.29312,0.0904 -0.38351,0 -0.0904,-0.0904 0.0904,-0.29312 0,-0.38351 -0.0904,-0.0904 -0.29312,0.0904 -0.38352,0 -0.18079,-0.18079 0.18079,-0.58624 0,-0.76703 -0.0904,-0.0904 -0.29312,0.0904 -0.38351,0 -0.18079,-0.18079 0.18079,-0.58624 0,-0.76703 -0.0904,-0.0904 -0.29312,0.0904 -0.38352,0 -0.18079,-0.18079 0.18079,-0.58624 0,-0.76703 -0.0904,-0.0904 -0.29312,0.0904 -0.38351,0 -0.1808,-0.1808 0.11434,-0.53835 0,-0.76704 -0.0809,-0.1617 -0.30267,-0.22181 -0.38352,-0.38351 -0.0572,-0.11434 0,-0.25568 0,-0.38352 0,-0.12783 0,-0.25567 0,-0.38351 0,-0.63919 0,-1.27839 0,-1.91758 0,-2.17325 0,-4.34651 0,-6.51976 0,-0.6392 0,-1.27839 0,-1.91758 0,-0.12784 0.0904,-0.29312 0,-0.38352 -0.0904,-0.0904 -0.29312,0.0904 -0.38352,0 -0.0904,-0.0904 0.0904,-0.29312 0,-0.38351 -0.18079,-0.18079 -0.58624,0.18079 -0.76703,0 -0.7935,-0.79351 1.21259,0.031 -0.38351,-0.76703 -0.11434,-0.0572 -0.26918,0.0572 -0.38352,0 -0.1617,-0.0809 -0.25567,-0.25568 -0.38351,-0.38352 -0.12784,-0.12784 -0.30267,-0.22181 -0.38352,-0.38352 -0.33945,-0.6789 0.57046,-0.13105 -0.38351,-0.76703 -1.21476,-0.80983 -0.96347,-0.0655 -1.91758,-0.38351 -0.20758,-0.0692 -0.89859,-0.98258 -1.15055,-1.15055 -2.78071,-1.39035 0.60639,0.40426 -1.15055,-0.76703 -0.23784,-0.15856 -0.52918,-0.22495 -0.76703,-0.38352 -0.15042,-0.10028 -0.22181,-0.30266 -0.38351,-0.38351 -0.11434,-0.0572 -0.26224,0.0404 -0.38352,0 -0.27118,-0.0904 -0.48971,-0.31419 -0.76703,-0.38352 -0.24804,-0.062 -0.52447,0.0809 -0.76703,0 -0.17151,-0.0572 -0.25568,-0.25567 -0.38352,-0.38351 -0.12783,-0.12784 -0.25567,-0.25568 -0.38351,-0.38352 -0.4388,-0.4388 -0.454,-0.53484 -1.15055,-0.76703 -0.12128,-0.0404 -0.26917,0.0572 -0.38351,0 -0.16171,-0.0808 -0.22181,-0.30266 -0.38352,-0.38351 -0.11434,-0.0572 -0.29312,0.0904 -0.38351,0 -0.0904,-0.0904 0,-0.25568 0,-0.38352"
     id="path904"
     inkscape:connector-curvature="0" />
  <path
     id="path895"
     d="M 28.418907,27.265817 5.9027034,26.947996 c -3.504,0.91 -5.09707651,2.389638 -5.09707651,3.813638 C 0.80562689,33.523634 8.611,36 18,36 c 9.389,0 16.019501,-1.999634 16.019501,-4.761634 0,-1.424 -2.096594,-3.062549 -5.600594,-3.972549 z"
     inkscape:connector-curvature="0"
     style="opacity:0.30800003;fill:#0c0c0b;fill-opacity:1;filter:url(#filter983)"
     sodipodi:nodetypes="ccsssc"
     transform="matrix(5.7125534,0,0,4.8268056,157.08373,73.987338)" />
  <g
     id="g965"
     transform="translate(-0.44029604,0.56769187)">
    <path
       id="path872"
       d="M 338.97946,188.63912 350.81158,73.729928 c 0,-0.815069 0.97062,7.033771 -0.12679,-2.252006 0.0181,-0.199239 0.12679,-0.452816 0.12679,-0.664131 0,-10.89174 -38.80186,-18.368744 -85.47816,-18.368744 -46.68234,0 -81.4496,8.73102 -81.4496,19.628798 0,0.211314 0.10264,0.410554 0.13282,0.61583 -0.0845,0.664131 -0.13282,1.388637 -0.13282,2.203706 l 7.80356,113.745739 c -21.15558,5.49417 -35.02987,13.22828 -35.02987,21.82575 0,16.67571 51.98935,30.18775 108.67591,30.18775 56.68656,0 108.6759,-13.51204 108.6759,-30.18775 0,-8.59747 -13.87429,-16.33158 -35.02986,-21.82575 z"
       inkscape:connector-curvature="0"
       style="fill:#eef0f1;fill-opacity:1;stroke-width:6.03755045"
       sodipodi:nodetypes="cccssscccsssc" />
    <path
       id="path874"
       d="m 263.02825,91.321846 c -24.28824,0 -42.72544,-5.139344 -53.90101,-9.441247 -2.60267,-1.003777 -4.01327,-4.25028 -3.14406,-7.255875 0.86921,-3.005596 3.67055,-4.634582 6.28315,-3.630806 14.34943,5.523643 53.45399,16.582401 106.39639,-0.09177 2.62751,-0.814493 5.37421,0.963627 6.09441,4.026581 0.72517,3.057218 -0.83941,6.211946 -3.48678,7.043648 -21.88425,6.894512 -41.45888,9.34947 -58.2421,9.349469 z"
       inkscape:connector-curvature="0"
       style="fill:#c5ced3;fill-opacity:1;stroke-width:5.33756542" />
    <path
       id="path876"
       d="m 338.97946,188.63912 3.50631,-35.59966 c -46.51933,13.023 -106.83134,13.90115 -153.50765,-1.69988 l 2.22022,30.87559 c 0.41659,1.83541 0.68224,3.92441 0.68224,6.4964 0,10.56572 7.7824,17.0742 16.73005,20.50352 26.9154,10.31214 84.27213,9.93781 113.54821,0.8996 8.85709,-2.73501 16.76024,-10.46308 16.76024,-19.26582 0,-0.71847 0.0906,-1.45505 0.1449,-2.17956 z"
       inkscape:connector-curvature="0"
       style="fill:#cbbee1;fill-opacity:1;stroke-width:6.03755045"
       sodipodi:nodetypes="ccccsccscc" />
  </g>
</svg>
