<?xml version="1.0" encoding="UTF-8" standalone="no"?>
<svg
   width="512"
   height="512"
   version="1.1"
   id="svg38"
   inkscape:version="1.1-rc (52f87ab, 2021-05-02)"
   inkscape:export-xdpi="96"
   inkscape:export-ydpi="96"
   sodipodi:docname="disagkree.svg"
   xmlns:inkscape="http://www.inkscape.org/namespaces/inkscape"
   xmlns:sodipodi="http://sodipodi.sourceforge.net/DTD/sodipodi-0.dtd"
   xmlns="http://www.w3.org/2000/svg"
   xmlns:svg="http://www.w3.org/2000/svg"
   xmlns:rdf="http://www.w3.org/1999/02/22-rdf-syntax-ns#"
   xmlns:cc="http://creativecommons.org/ns#"
   xmlns:dc="http://purl.org/dc/elements/1.1/">
  <metadata
     id="metadata44">
    <rdf:RDF>
      <cc:Work
         rdf:about="">
        <dc:format>image/svg+xml</dc:format>
        <dc:type
           rdf:resource="http://purl.org/dc/dcmitype/StillImage" />
      </cc:Work>
    </rdf:RDF>
  </metadata>
  <defs
     id="defs42" />
  <sodipodi:namedview
     pagecolor="#ffffff"
     bordercolor="#666666"
     borderopacity="1"
     objecttolerance="10"
     gridtolerance="10"
     guidetolerance="10"
     inkscape:pageopacity="0"
     inkscape:pageshadow="2"
     inkscape:window-width="1920"
     inkscape:window-height="1080"
     id="namedview40"
     showgrid="false"
     inkscape:zoom="1.3037281"
     inkscape:cx="381.21445"
     inkscape:cy="332.89149"
     inkscape:window-x="0"
     inkscape:window-y="0"
     inkscape:window-maximized="1"
     inkscape:current-layer="svg38"
     inkscape:pagecheckerboard="0" />
  <path
     d="m 397.54274,327.88248 c -2.63336,1.75557 -5.43662,3.31294 -7.90009,4.8703 -7.27714,4.61547 -15.00734,8.57967 -22.93574,12.0625 -15.6586,6.90904 -32.16667,11.92093 -48.81632,15.94176 -27.38131,6.62588 -55.58378,5.15346 -83.47478,4.78536 -5.46493,-0.0849 -10.90155,-0.99105 -16.25323,-1.9821 -1.50073,-0.28316 -2.97315,-0.50969 -4.47388,-0.73621 l 1.47242,15.71523 c 0,0 5.32335,0.39642 14.83744,-0.19821 -1.84052,18.20701 -2.43515,37.85813 2.20863,41.59581 2.09536,1.69894 6.54093,2.01042 9.25924,2.46347 7.98504,1.33084 16.25323,1.13263 24.46479,0.99105 6.99399,-0.11327 13.73313,-1.64231 20.18912,-3.62442 4.84199,-1.47241 6.93735,-2.54841 6.85241,-6.99398 -0.0849,-5.69146 -2.01042,-23.98343 -3.96421,-39.64202 17.95218,-2.35021 40.06676,-6.79578 60.05767,-15.09229 0.28316,6.28609 0.538,11.66608 0.50968,12.7704 -0.16989,4.3323 -0.22652,10.25029 3.5961,13.59155 10.64671,9.3725 37.00866,3.90757 49.24106,-0.1699 9.11766,-3.00147 6.3144,-13.61986 4.5022,-19.82101 -1.04769,-3.70936 -5.26673,-23.02069 -9.37251,-36.52729 z"
     style="fill:#bdcf46;stroke-width:1"
     id="path1445"
     inkscape:connector-curvature="0"
     inkscape:export-xdpi="34.087185"
     inkscape:export-ydpi="34.087185" />
  <path
     d="m 180.41771,188.37087 c 0,0 7.22052,-4.19073 11.26967,-6.00293 l 62.97418,23.16226 101.85169,2.74663 c 0,0 7.64524,7.9284 9.9105,10.64671 l 18.49017,53.06368 14.92239,5.97462 c 0,0 3.42621,10.2503 4.38894,14.12955 l -3.08641,24.46479 -147.63822,36.61224 -118.55797,-29.08025 0.3681,-72.88469 36.24414,-47.20233 z"
     style="fill:#2f2f2f;stroke-width:1"
     id="path909"
     inkscape:connector-curvature="0"
     inkscape:export-xdpi="34.087185"
     inkscape:export-ydpi="34.087185" />
  <path
     d="m 273.97289,249.92927 c -0.28316,14.32776 -1.076,55.49883 -0.79284,79.39731 4.72873,0.11326 9.9105,-0.14158 15.63028,-0.73621 7.64525,-0.76452 15.63029,-2.29357 23.33216,-3.76599 l 4.89863,-0.93442 c 7.90009,-1.50073 15.20554,-3.36957 22.34111,-5.71978 11.01482,-3.62441 23.19058,-8.29651 34.17709,-15.06397 -8.06999,-28.11752 -22.53933,-49.21274 -27.18311,-55.52715 -31.1473,-2.46346 -60.99208,0.82116 -72.40332,2.35021 z"
     style="fill:#757f3f;stroke-width:1"
     id="path911"
     inkscape:connector-curvature="0"
     inkscape:export-xdpi="34.087185"
     inkscape:export-ydpi="34.087185" />
  <path
     d="m 356.76809,241.29297 c 5.52156,7.5603 18.77333,27.55121 27.21141,54.42284 6.17283,-5.12515 11.49619,-11.24135 15.57366,-18.46186 -3.79431,-10.56177 -8.38146,-20.81206 -13.87471,-30.58099 -5.52157,-9.79724 -11.94924,-19.16975 -19.22638,-27.77773 -2.69,8.80619 -6.96567,17.41417 -9.68398,22.39774 z"
     style="fill:#757f3f;stroke-width:1"
     id="path913"
     inkscape:connector-curvature="0"
     inkscape:export-xdpi="34.087185"
     inkscape:export-ydpi="34.087185" />
  <path
     d="m 194.85874,202.13232 c 12.0625,4.61546 53.37515,21.03858 74.72521,36.1875 9.20261,-1.35916 41.59581,-5.54988 76.56574,-2.8882 4.53051,-8.35315 9.28756,-19.56617 10.33524,-27.18311 -0.42474,-0.42473 -0.79284,-0.87778 -1.21758,-1.2742 -14.52597,-13.64819 -32.93119,-21.15186 -51.50631,-27.43795 -25.93721,-8.77787 -54.16799,-11.86429 -81.20952,-7.0223 -10.70334,1.92547 -21.03859,5.23841 -30.86414,9.85388 z"
     style="fill:#757f3f;stroke-width:1"
     id="path915"
     inkscape:connector-curvature="0"
     inkscape:export-xdpi="34.087185"
     inkscape:export-ydpi="34.087185" />
  <path
     d="m 404.1403,292.17634 c -5.63483,7.22051 -12.45892,13.22345 -19.76438,18.20702 -0.14157,0.11326 -0.31147,0.19821 -0.42473,0.31147 -13.42166,9.06103 -28.40068,14.89407 -40.77465,18.94322 -7.64525,2.5201 -15.43208,4.53052 -23.87017,6.1162 l -4.89862,0.93442 c -7.98503,1.52905 -16.19659,3.11473 -24.37984,3.9642 -4.81368,0.48137 -9.79724,0.87779 -14.80913,0.87779 -14.9507,0 -29.95804,-3.51115 -40.91623,-18.49017 -4.41725,-6.08789 -9.34419,-11.21303 -14.5826,-15.23387 l -2.18031,-1.69894 c -3.31294,-2.63336 -9.51409,-7.5603 -12.71377,-7.64525 l 0.31148,-12.09081 c 7.24882,0.19821 14.5826,6.00293 19.93427,10.25029 l 1.9821,1.55737 c 6.14452,4.70041 11.89261,10.64671 17.01776,17.69733 4.61546,6.31441 10.25029,9.9105 17.01775,11.80766 -0.22652,-25.54079 0.59463,-68.01439 0.84947,-79.96363 -20.72711,-14.52597 -62.40787,-30.92078 -72.34669,-34.71508 -3.90757,2.40683 -13.98797,10.78829 -25.85226,22.87911 -1.18926,1.21757 -2.77494,1.8122 -4.33231,1.8122 -1.52905,0 -3.0581,-0.56631 -4.21904,-1.72726 -2.37852,-2.32189 -2.43515,-6.14451 -0.0849,-8.55135 7.50367,-7.61693 19.39628,-19.14143 27.7211,-24.29489 l -2.40684,-14.78082 c -20.27406,12.11914 -40.29328,30.92078 -52.32747,52.78053 -12.0625,21.83143 -16.13996,46.66432 -4.64378,70.70438 3.766,7.78682 11.3263,20.86869 18.91491,25.39921 6.71083,4.02083 13.81808,7.44704 21.06691,10.4485 6.42767,2.66168 11.86429,6.00294 18.46185,7.92841 5.88967,1.75557 11.97756,3.65273 17.95218,4.98357 6.03125,1.35915 12.28902,1.78389 18.34859,2.91652 5.37999,0.99105 10.81661,1.89715 16.25323,1.9821 27.89099,0.3681 56.09346,1.84052 83.47477,-4.78536 16.64965,-4.02083 33.15773,-9.03272 48.81632,-15.94176 7.92841,-3.45452 15.6586,-7.41872 22.93575,-12.0625 5.91798,-3.73768 13.70481,-7.41872 16.79122,-14.10123 3.25631,-7.05062 0.48137,-15.57365 -1.24589,-22.70922 -0.31147,-1.18926 -0.73621,-2.46347 -1.076,-3.70936 z"
     style="fill:#757f3f;stroke-width:1"
     id="path917"
     inkscape:connector-curvature="0"
     inkscape:export-xdpi="34.087185"
     inkscape:export-ydpi="34.087185" />
  <path
     d="m 397.54274,327.88248 c -2.63336,1.75557 -5.43662,3.31294 -7.90009,4.8703 -7.27714,4.61547 -15.00734,8.57967 -22.93574,12.0625 -15.6586,6.90904 -32.16667,11.92093 -48.81632,15.94176 -27.38131,6.62588 -55.58378,5.15346 -83.47478,4.78536 -5.46493,-0.0849 -10.90155,-0.99105 -16.25323,-1.9821 -1.50073,-0.28316 -2.97315,-0.50969 -4.47388,-0.73621 l 1.47242,15.71523 c 0,0 5.32335,0.39642 14.83744,-0.19821 l 59.00998,-5.21009 c 17.95218,-2.35021 40.06676,-6.79578 60.05767,-15.09229 0.28316,6.28609 0.538,11.66608 0.50968,12.7704 -0.16989,4.3323 -0.22652,10.25029 3.5961,13.59155 10.64671,9.3725 37.00866,3.90757 49.24106,-0.1699 9.11766,-3.00147 6.3144,-13.61986 4.5022,-19.82101 -1.04769,-3.70936 -5.26673,-23.02069 -9.37251,-36.52729 z"
     style="fill:#bdcf46;stroke-width:1"
     id="path923"
     inkscape:connector-curvature="0"
     inkscape:export-xdpi="34.087185"
     inkscape:export-ydpi="34.087185"
     sodipodi:nodetypes="cccccccccccccccc" />
  <path
     d="m 426.67963,263.26598 c -4.75705,-4.47389 -12.57219,1.30252 -16.93281,3.62441 -3.90757,2.09537 -7.78683,4.16241 -11.75103,6.1162 2.85989,7.50367 5.35167,15.14892 7.22051,22.96406 0.84947,3.48283 1.92547,7.30546 2.46347,11.12808 0.14158,-0.16989 0.28316,-0.33979 0.42474,-0.48137 1.4441,-1.64231 2.74662,-3.31294 4.02083,-5.09683 4.95525,-7.0223 8.72125,-14.78081 12.7704,-22.31279 1.95378,-3.766 5.54988,-12.37398 1.78389,-15.94176 z"
     style="fill:#bdcf46;stroke-width:1"
     id="path925"
     inkscape:connector-curvature="0"
     inkscape:export-xdpi="34.087185"
     inkscape:export-ydpi="34.087185" />
  <path
     d="m 215.18943,378.53932 c -3.19968,0.11326 -6.42767,0.085 -9.74061,0.085 -23.587,0 -46.06969,-0.62295 -69.28859,-5.88968 -35.25309,-7.95672 -62.719347,-29.05194 -67.504706,-66.76849 -2.944836,-23.24721 1.755575,-50.79842 19.707749,-67.07997 16.847857,-15.29049 47.145687,-19.50953 67.901127,-12.45892 24.18163,8.2682 41.79401,28.14584 51.8461,51.08158 7.73019,17.66902 12.9686,33.52583 16.22491,52.58231 0.48137,2.91652 5.83304,47.00412 -0.42473,47.82527 -2.88821,0.33979 -5.80473,0.538 -8.72125,0.62295 z"
     style="fill:#bdcf46;stroke-width:1"
     id="path929"
     inkscape:connector-curvature="0"
     inkscape:export-xdpi="34.087185"
     inkscape:export-ydpi="34.087185" />
  <path
     style="fill:#644502;fill-opacity:1;stroke:none;stroke-width:1px;stroke-linecap:butt;stroke-linejoin:miter;stroke-opacity:1"
     d="m 139.90193,140.17018 c 7.88467,-6.12532 28.22306,24.70705 56.741,23.61944 4.6909,-21.44312 13.53447,-52.64672 32.57857,-53.75463 9.75608,-0.56759 21.53067,10.55843 33.12154,10.58804 11.47728,0.0294 21.49744,-12.00372 32.85006,-10.31655 20.5459,3.05337 31.22113,53.21165 31.22113,53.21165 29.7607,0.62306 44.19719,-30.40713 53.76828,-23.89094 38.57222,26.26072 -40.93376,77.64559 -111.85308,77.64559 -91.94852,0 -161.82099,-51.16053 -128.4275,-77.1026 z"
     id="path945"
     inkscape:connector-curvature="0"
     sodipodi:nodetypes="scsascsss"
     inkscape:export-xdpi="34.087185"
     inkscape:export-ydpi="34.087185" />
  <path
     style="fill:#805d0b;fill-opacity:1;stroke:none;stroke-width:1px;stroke-linecap:butt;stroke-linejoin:miter;stroke-opacity:1"
     d="m 212.76964,162.6482 -2.87957,11.13433 c 33.8509,23.80153 74.99669,18.82453 101.55269,-0.38396 l -1.3438,-10.75037 c -30.3286,14.97171 -63.49208,22.65479 -97.32932,0 z"
     id="path947"
     inkscape:connector-curvature="0"
     sodipodi:nodetypes="ccccc"
     inkscape:export-xdpi="34.087185"
     inkscape:export-ydpi="34.087185" />
  <path
     style="fill:#805d0b;fill-opacity:1;stroke:none;stroke-width:1px;stroke-linecap:butt;stroke-linejoin:miter;stroke-opacity:1"
     d="m 215.84118,149.97812 c 0,0 10.3101,-21.52265 20.5409,-24.57231 8.01186,-2.38823 15.63813,7.11258 23.99638,7.2949 9.51166,0.20755 18.66593,-10.25126 27.64383,-7.10292 9.74616,3.41774 18.6212,24.76426 18.6212,24.76426 -33.23908,11.75856 -64.20284,14.41591 -90.80231,-0.38393 z"
     id="path949"
     inkscape:connector-curvature="0"
     sodipodi:nodetypes="caaacc"
     inkscape:export-xdpi="34.087185"
     inkscape:export-ydpi="34.087185" />
  <path
     style="opacity:1;fill:#bdcf46;fill-opacity:1;stroke:#2f2f2f;stroke-width:6.52211;stroke-linecap:round;stroke-linejoin:round;stroke-miterlimit:4;stroke-dasharray:none;stroke-opacity:1"
     d="m 237.63384,401.31086 c 1.471,-48.41425 25.20914,-42.96802 15.09065,-85.39298 -0.34111,-1.43183 -10.54528,-12.97269 -17.94992,-16.09706 -14.48847,-6.11345 -27.46816,-4.4694 -47.06881,-3.18383 -7.62423,0.89522 -8.64638,6.08178 -4.0218,11.89461 -5.95845,2.89543 -9.23664,4.48923 -4.2844,12.41481 -9.12627,2.56019 -10.63086,6.36192 -4.6977,15.59999 -6.34858,4.24907 -12.51038,9.39122 -0.85664,16.04567 14.17282,6.1358 23.79256,7.70961 39.84348,10.23202 2.79369,15.41323 -6.42946,46.89779 23.94514,38.48677 z"
     id="path2251"
     sodipodi:nodetypes="csaccccccc"
     inkscape:export-xdpi="34.087185"
     inkscape:export-ydpi="34.087185" />
  <path
     d="m 151.67725,359.79431 c -2.77494,-1.64232 -6.73915,-2.20863 -12.11914,-2.97316 -7.07893,-0.99105 -14.78081,-2.97315 -21.85974,-1.69894 -6.08788,1.10431 -6.73914,2.66168 -8.72125,8.29651 -3.08641,8.86282 -12.062496,35.42298 -5.09683,43.80444 1.72726,2.06704 5.7481,2.80325 8.21157,3.53946 7.10724,2.152 14.66754,2.63336 22.1429,3.14305 6.37104,0.42473 12.65713,-0.73621 18.74501,-2.43516 4.55883,-1.2742 6.56925,-2.3502 6.93736,-7.3904 0.82115,-10.75998 -1.58569,-21.37838 -2.54842,-32.05341 -0.67958,-6.90904 -2.37852,-10.30692 -5.69146,-12.23239 z"
     style="fill:#bdcf46;stroke-width:1"
     id="path921"
     inkscape:connector-curvature="0"
     inkscape:export-xdpi="34.087185"
     inkscape:export-ydpi="34.087185" />
  <path
     d="m 152.47087,260.91052 c 6.96765,-1.24669 13.79368,4.13673 15.23819,12.07019 1.44451,7.90512 -3.03065,15.38524 -9.99829,16.66026 -6.93933,1.24669 -13.76536,-4.13673 -15.2382,-12.04186 -1.44451,-7.93346 3.03065,-15.38524 9.9983,-16.68859 z"
     style="fill:#2f2f2f;stroke-width:2.83288"
     id="path24-3"
     inkscape:export-xdpi="34.087185"
     inkscape:export-ydpi="34.087185" />
  <path
     d="m 88.714042,271.39402 c 1.982665,-7.7918 9.205228,-12.69354 16.031258,-10.93685 6.85435,1.7567 10.79136,9.52016 8.8087,17.31195 -2.01099,7.79179 -9.17691,12.69353 -16.031263,10.93684 -6.82603,-1.78503 -10.791359,-9.52015 -8.808695,-17.31194 z"
     style="fill:#2f2f2f;stroke-width:2.83288"
     id="path26-6"
     inkscape:export-xdpi="34.087185"
     inkscape:export-ydpi="34.087185" />
  <path
     d="m 134.25061,310.0349 c -3.22891,-1.7567 -6.00464,-3.62673 -9.7717,-2.23837 -2.18093,0.79335 -4.24857,1.41669 -6.14626,2.83338 -1.35954,0.99168 -2.88903,1.81336 -4.24857,2.80504 -0.70809,0.51001 -1.38787,1.04835 -2.09596,1.55836 -0.79307,0.59501 -1.0763,0.85001 -2.09596,0.99168 -0.82139,0.085 -2.43584,0.14167 -3.05897,-0.53834 -2.66243,-2.97505 1.07631,-7.39512 3.08729,-9.40681 3.00232,-2.91838 7.27922,-6.23344 11.21622,-7.93346 3.85203,-1.6717 7.67574,-3.6834 11.78269,-1.64336 4.50348,2.2667 8.41216,5.55342 12.37749,8.58513 2.60579,1.98337 8.44049,5.46842 7.42083,9.35015 -0.70809,2.83338 -3.99365,2.23837 -6.14626,1.55836 -2.71908,-0.82168 -5.15492,-2.21004 -7.67574,-3.48506 -1.55781,-0.76501 -3.08729,-1.61502 -4.6451,-2.4367 z"
     style="fill:#2f2f2f;stroke-width:2.83288"
     id="path28-1"
     inkscape:export-xdpi="34.087185"
     inkscape:export-ydpi="34.087185" />
</svg>
