<?xml version="1.0" encoding="UTF-8" standalone="no"?>
<svg
   width="512"
   height="512"
   version="1.1"
   id="svg38"
   inkscape:version="1.1-rc (52f87ab, 2021-05-02)"
   inkscape:export-xdpi="96"
   inkscape:export-ydpi="96"
   sodipodi:docname="hulgk.svg"
   xmlns:inkscape="http://www.inkscape.org/namespaces/inkscape"
   xmlns:sodipodi="http://sodipodi.sourceforge.net/DTD/sodipodi-0.dtd"
   xmlns="http://www.w3.org/2000/svg"
   xmlns:svg="http://www.w3.org/2000/svg"
   xmlns:rdf="http://www.w3.org/1999/02/22-rdf-syntax-ns#"
   xmlns:cc="http://creativecommons.org/ns#"
   xmlns:dc="http://purl.org/dc/elements/1.1/">
  <metadata
     id="metadata44">
    <rdf:RDF>
      <cc:Work
         rdf:about="">
        <dc:format>image/svg+xml</dc:format>
        <dc:type
           rdf:resource="http://purl.org/dc/dcmitype/StillImage" />
        <dc:title />
      </cc:Work>
    </rdf:RDF>
  </metadata>
  <defs
     id="defs42" />
  <sodipodi:namedview
     pagecolor="#ffffff"
     bordercolor="#666666"
     borderopacity="1"
     objecttolerance="10"
     gridtolerance="10"
     guidetolerance="10"
     inkscape:pageopacity="0"
     inkscape:pageshadow="2"
     inkscape:window-width="917"
     inkscape:window-height="1030"
     id="namedview40"
     showgrid="false"
     inkscape:zoom="1.3037281"
     inkscape:cx="295.30697"
     inkscape:cy="285.33557"
     inkscape:window-x="15"
     inkscape:window-y="15"
     inkscape:window-maximized="1"
     inkscape:current-layer="svg38"
     inkscape:document-rotation="0"
     inkscape:pagecheckerboard="0" />
  <path
     d="m 401.76973,236.72708 10.04016,16.07774 14.83501,-4.10874 14.51822,-9.03018 c 2.01887,-1.25555 0.0657,-7.57651 -1.03167,-6.89397 l -4.46719,2.77853 6.45257,-4.01343 c 1.17639,-0.7325 -1.30283,-6.68514 -3.37123,-5.39861 l -4.83948,3.00999 17.62044,-10.95969 c 2.19548,-3.43319 -1.71546,-6.36666 -3.34351,-5.35403 l -17.99262,11.19131 5.33573,-3.31883 c 1.61046,-1.00136 -1.80679,-6.3961 -3.3822,-5.4162 l -13.77374,8.56708 7.07913,-4.40334 c 1.87743,-1.13625 -1.14819,-6.42814 -3.26857,-5.23403 l -7.45142,4.6348 z"
     style="fill:#63cf46;fill-opacity:1;fill-rule:evenodd;stroke:#3f7f4e;stroke-width:1.14208;stroke-linecap:butt;stroke-linejoin:miter;stroke-miterlimit:4;stroke-dasharray:none;stroke-opacity:1"
     id="path6709" />
  <g
     id="g1310"
     transform="matrix(-0.30386946,0,0,-0.30386946,260.71145,318.63723)"
     style="fill:#4cb62f;fill-opacity:1">
    <path
       style="fill:#4cb62f;fill-opacity:1;stroke:#317d21;stroke-width:10;stroke-linecap:butt;stroke-linejoin:miter;stroke-miterlimit:4;stroke-dasharray:none;stroke-opacity:1"
       d="M -264.64511,-94.810454 V 101.21664 h 138.3199 V -95.736449 Z"
       id="path1304"
       sodipodi:nodetypes="ccccc" />
    <path
       style="fill:#4cb62f;fill-opacity:1;stroke:#317d21;stroke-width:10;stroke-linecap:round;stroke-linejoin:round;stroke-miterlimit:4;stroke-dasharray:none;stroke-opacity:1"
       d="m -277.21991,-130.31618 0.70327,-77.01691 c 3.68702,-39.16853 38.41203,-34.52303 43.81623,9.63209 -1.91508,-67.85789 59.75483,-54.19447 49.04724,-0.99723 0.47517,-48.02544 55.1247,-54.71659 45.06899,16.77006 4.25139,-34.80281 28.02123,-41.39651 34.65848,-8.14094 19.320115,96.802408 -9.16442,172.96626 -77.70886,177.10165 -71.95897,4.3414 -107.85426,-33.42208 -124.11975,-79.850994 -10.11519,-28.873236 -16.17088,-69.351916 29.32217,-86.971476 z"
       id="path1306"
       sodipodi:nodetypes="cccccssacc" />
    <rect
       style="fill:#4cb62f;fill-opacity:1;stroke:none;stroke-width:13.4314;stroke-linecap:round;stroke-linejoin:round;stroke-miterlimit:4;stroke-dasharray:none;stroke-opacity:1"
       id="rect1308"
       width="128.20621"
       height="58.039734"
       x="-259.47418"
       y="-53.96175" />
  </g>
  <g
     id="g1302"
     transform="matrix(0.34630777,0,0,-0.34630777,448.07494,314.66453)">
    <path
       style="fill:#63cf46;fill-opacity:1;stroke:#3c9527;stroke-width:10;stroke-linecap:butt;stroke-linejoin:miter;stroke-miterlimit:4;stroke-dasharray:none;stroke-opacity:1"
       d="M -264.64511,-94.810454 V 101.21664 h 138.3199 V -95.736449 Z"
       id="path1296"
       sodipodi:nodetypes="ccccc" />
    <path
       style="fill:#63cf46;fill-opacity:1;stroke:#3c9527;stroke-width:10;stroke-linecap:round;stroke-linejoin:round;stroke-miterlimit:4;stroke-dasharray:none;stroke-opacity:1"
       d="m -277.21991,-130.31618 0.70327,-77.01691 c 3.68702,-39.16853 38.41203,-34.52303 43.81623,9.63209 -1.91508,-67.85789 59.75483,-54.19447 49.04724,-0.99723 0.47517,-48.02544 55.1247,-54.71659 45.06899,16.77006 4.25139,-34.80281 28.02123,-41.39651 34.65848,-8.14094 19.320115,96.802408 -9.16442,172.96626 -77.70886,177.10165 -71.95897,4.3414 -107.85426,-33.42208 -124.11975,-79.850994 -10.11519,-28.873236 -16.17088,-69.351916 29.32217,-86.971476 z"
       id="path1298"
       sodipodi:nodetypes="cccccssacc" />
    <rect
       style="fill:#63cf46;fill-opacity:1;stroke:none;stroke-width:13.4314;stroke-linecap:round;stroke-linejoin:round;stroke-miterlimit:4;stroke-dasharray:none;stroke-opacity:1"
       id="rect1300"
       width="128.20621"
       height="58.039734"
       x="-259.47418"
       y="-53.96175" />
  </g>
  <g
     id="g1294"
     transform="matrix(-0.36918087,0,0,-0.36918087,74.737974,331.62717)">
    <path
       style="fill:#63cf46;fill-opacity:1;stroke:#3c9527;stroke-width:10;stroke-linecap:butt;stroke-linejoin:miter;stroke-miterlimit:4;stroke-dasharray:none;stroke-opacity:1"
       d="M -264.64511,-94.810454 V 101.21664 h 138.3199 V -95.736449 Z"
       id="path1288"
       sodipodi:nodetypes="ccccc" />
    <path
       style="fill:#63cf46;fill-opacity:1;stroke:#3c9527;stroke-width:10;stroke-linecap:round;stroke-linejoin:round;stroke-miterlimit:4;stroke-dasharray:none;stroke-opacity:1"
       d="m -277.21991,-130.31618 0.70327,-77.01691 c 3.68702,-39.16853 38.41203,-34.52303 43.81623,9.63209 -1.91508,-67.85789 59.75483,-54.19447 49.04724,-0.99723 0.47517,-48.02544 55.1247,-54.71659 45.06899,16.77006 4.25139,-34.80281 28.02123,-41.39651 34.65848,-8.14094 19.320115,96.802408 -9.16442,172.96626 -77.70886,177.10165 -71.95897,4.3414 -107.85426,-33.42208 -124.11975,-79.850994 -10.11519,-28.873236 -16.17088,-69.351916 29.32217,-86.971476 z"
       id="path1290"
       sodipodi:nodetypes="cccccssacc" />
    <rect
       style="fill:#63cf46;fill-opacity:1;stroke:none;stroke-width:13.4314;stroke-linecap:round;stroke-linejoin:round;stroke-miterlimit:4;stroke-dasharray:none;stroke-opacity:1"
       id="rect1292"
       width="128.20621"
       height="58.039734"
       x="-259.47418"
       y="-53.96175" />
  </g>
  <g
     id="g1094"
     transform="matrix(0.40185301,0,0,-0.40185301,331.17563,331.57271)">
    <path
       style="fill:#63cf46;fill-opacity:1;stroke:#3c9527;stroke-width:10;stroke-linecap:butt;stroke-linejoin:miter;stroke-miterlimit:4;stroke-dasharray:none;stroke-opacity:1"
       d="M -264.64511,-94.810454 V 101.21664 h 138.3199 V -95.736449 Z"
       id="path1079"
       sodipodi:nodetypes="ccccc" />
    <path
       style="fill:#63cf46;fill-opacity:1;stroke:#3c9527;stroke-width:10;stroke-linecap:round;stroke-linejoin:round;stroke-miterlimit:4;stroke-dasharray:none;stroke-opacity:1"
       d="m -277.21991,-130.31618 0.70327,-77.01691 c 3.68702,-39.16853 38.41203,-34.52303 43.81623,9.63209 -1.91508,-67.85789 59.75483,-54.19447 49.04724,-0.99723 0.47517,-48.02544 55.1247,-54.71659 45.06899,16.77006 4.25139,-34.80281 28.02123,-41.39651 34.65848,-8.14094 19.320115,96.802408 -9.16442,172.96626 -77.70886,177.10165 -71.95897,4.3414 -107.85426,-33.42208 -124.11975,-79.850994 -10.11519,-28.873236 -16.17088,-69.351916 29.32217,-86.971476 z"
       id="path1075"
       sodipodi:nodetypes="cccccssacc" />
    <rect
       style="fill:#63cf46;fill-opacity:1;stroke:none;stroke-width:13.4314;stroke-linecap:round;stroke-linejoin:round;stroke-miterlimit:4;stroke-dasharray:none;stroke-opacity:1"
       id="rect1089"
       width="128.20621"
       height="58.039734"
       x="-259.47418"
       y="-53.96175" />
  </g>
  <path
     d="m 192.16174,139.76551 c 0,0 7.22052,-4.19073 11.26967,-6.00293 l 62.97418,23.16226 101.85169,2.74663 c 0,0 7.64524,7.9284 9.9105,10.64671 l 18.49017,53.06368 14.92239,5.97462 c 0,0 3.42621,10.2503 4.38894,14.12955 l -3.08641,24.46479 -147.63822,36.61224 -118.55797,-29.08025 0.3681,-72.88469 36.24414,-47.20233 z"
     style="fill:#2f2f2f;stroke-width:1"
     id="path909"
     inkscape:connector-curvature="0" />
  <g
     id="g919"
     style="stroke-width:0.353161"
     transform="matrix(2.8315731,0,0,2.8315731,78.615664,32.647096)">
    <path
       d="m 73.14,59.57 c -0.1,5.06 -0.38,19.6 -0.28,28.04 1.67,0.04 3.5,-0.05 5.52,-0.26 2.7,-0.27 5.52,-0.81 8.24,-1.33 l 1.73,-0.33 c 2.79,-0.53 5.37,-1.19 7.89,-2.02 3.89,-1.28 8.19,-2.93 12.07,-5.32 -2.85,-9.93 -7.96,-17.38 -9.6,-19.61 -11,-0.87 -21.54,0.29 -25.57,0.83 z"
       style="fill:#3f7f4e;fill-opacity:1;stroke-width:0.353161"
       id="path911"
       inkscape:connector-curvature="0" />
    <path
       d="m 102.38,56.52 c 1.95,2.67 6.63,9.73 9.61,19.22 2.18,-1.81 4.06,-3.97 5.5,-6.52 -1.34,-3.73 -2.96,-7.35 -4.9,-10.8 -1.95,-3.46 -4.22,-6.77 -6.79,-9.81 -0.95,3.11 -2.46,6.15 -3.42,7.91 z"
       style="fill:#3f7f4e;fill-opacity:1;stroke-width:0.353161"
       id="path913"
       inkscape:connector-curvature="0" />
    <path
       d="m 45.2,42.69 c 4.26,1.63 18.85,7.43 26.39,12.78 3.25,-0.48 14.69,-1.96 27.04,-1.02 1.6,-2.95 3.28,-6.91 3.65,-9.6 C 102.13,44.7 102,44.54 101.85,44.4 96.72,39.58 90.22,36.93 83.66,34.71 74.5,31.61 64.53,30.52 54.98,32.23 c -3.78,0.68 -7.43,1.85 -10.9,3.48 z"
       style="fill:#3f7f4e;fill-opacity:1;stroke-width:0.353161"
       id="path915"
       inkscape:connector-curvature="0" />
    <path
       d="m 119.11,74.49 c -1.99,2.55 -4.4,4.67 -6.98,6.43 -0.05,0.04 -0.11,0.07 -0.15,0.11 -4.74,3.2 -10.03,5.26 -14.4,6.69 -2.7,0.89 -5.45,1.6 -8.43,2.16 l -1.73,0.33 c -2.82,0.54 -5.72,1.1 -8.61,1.4 -1.7,0.17 -3.46,0.31 -5.23,0.31 -5.28,0 -10.58,-1.24 -14.45,-6.53 -1.56,-2.15 -3.3,-3.96 -5.15,-5.38 l -0.77,-0.6 c -1.17,-0.93 -3.36,-2.67 -4.49,-2.7 l 0.11,-4.27 c 2.56,0.07 5.15,2.12 7.04,3.62 l 0.7,0.55 c 2.17,1.66 4.2,3.76 6.01,6.25 1.63,2.23 3.62,3.5 6.01,4.17 -0.08,-9.02 0.21,-24.02 0.3,-28.24 -7.32,-5.13 -22.04,-10.92 -25.55,-12.26 -1.38,0.85 -4.94,3.81 -9.13,8.08 -0.42,0.43 -0.98,0.64 -1.53,0.64 -0.54,0 -1.08,-0.2 -1.49,-0.61 -0.84,-0.82 -0.86,-2.17 -0.03,-3.02 2.65,-2.69 6.85,-6.76 9.79,-8.58 L 40.1,37.82 c -7.16,4.28 -14.23,10.92 -18.48,18.64 -4.26,7.71 -5.7,16.48 -1.64,24.97 1.33,2.75 4,7.37 6.68,8.97 2.37,1.42 4.88,2.63 7.44,3.69 2.27,0.94 4.19,2.12 6.52,2.8 2.08,0.62 4.23,1.29 6.34,1.76 2.13,0.48 4.34,0.63 6.48,1.03 1.9,0.35 3.82,0.67 5.74,0.7 9.85,0.13 19.81,0.65 29.48,-1.69 5.88,-1.42 11.71,-3.19 17.24,-5.63 2.8,-1.22 5.53,-2.62 8.1,-4.26 2.09,-1.32 4.84,-2.62 5.93,-4.98 1.15,-2.49 0.17,-5.5 -0.44,-8.02 -0.11,-0.42 -0.26,-0.87 -0.38,-1.31 z"
       style="fill:#3f7f4e;fill-opacity:1;stroke-width:0.353161"
       id="path917"
       inkscape:connector-curvature="0" />
  </g>
  <path
     fill-rule="evenodd"
     clip-rule="evenodd"
     d="m 238.67542,99.56845 c -10.4854,-13.080299 16.32267,-2.359669 23.39487,-3.803138 12.3521,1.321301 24.70422,2.642513 37.05635,3.963548 -5.87923,-8.603425 15.08187,1.83378 20.33705,2.04085 17.54019,4.44832 34.53676,11.51336 49.40349,21.69617 9.2915,1.16046 10.74913,10.69332 20.85932,4.48018 -7.36392,4.81809 -6.64435,8.27736 -0.11273,12.421 -10.04711,13.0661 1.18352,31.30429 -7.94822,44.98544 -10.2426,8.5025 -3.07994,22.9126 -9.97854,31.24027 -1.75867,-13.80148 -5.43457,-27.62482 -9.45,-41.10874 -3.35216,-16.90077 -16.79562,-5.30592 -23.53633,1.68404 -12.13721,3.44186 -19.93246,-20.1794 -33.69092,-5.85815 -8.34908,6.53395 -22.69825,20.66807 -31.24856,6.58862 -8.11553,-7.59074 -20.95957,-18.91736 -31.35392,-8.06041 -9.61259,3.62854 -21.73926,18.15966 -30.09829,14.19828 -3.11452,-10.60154 -13.02879,-25.43642 -22.26997,-10.68408 -6.25272,8.50257 -17.54744,-5.17758 -17.9287,-1.88211 -2.26788,14.46528 -3.04214,32.61321 -8.20225,44.44424 -2.62396,-12.48103 -5.91439,-26.16325 -13.2537,-37.90817 -1.25882,-11.67922 -0.94427,-23.7553 -3.69906,-35.33301 -12.77906,-11.00764 29.30445,-16.1303 8.74687,-18.59564 -11.23555,-1.11293 11.94512,-7.86491 15.76366,-7.8241 6.88939,-0.88967 23.0426,-1.85427 7.24832,-4.07993 -4.99937,0.55685 -17.83383,-2.2495 -5.70342,-3.77378 21.48817,-5.81779 43.73038,-5.96576 65.66468,-8.83138 z"
     id="path869"
     style="stroke-width:0.460251"
     sodipodi:nodetypes="cccccccccccccccccccccccccccccccccc" />
  <g
     id="g939"
     style="stroke-width:0.353161"
     transform="matrix(2.8315731,0,0,2.8315731,78.615664,32.647096)">
    <g
       id="g927"
       style="stroke-width:0.353161">
      <path
         d="m 116.78,87.1 c -0.93,0.62 -1.92,1.17 -2.79,1.72 -2.57,1.63 -5.3,3.03 -8.1,4.26 -5.53,2.44 -11.36,4.21 -17.24,5.63 -9.67,2.34 -19.63,1.82 -29.48,1.69 -1.93,-0.03 -3.85,-0.35 -5.74,-0.7 -0.53,-0.1 -1.05,-0.18 -1.58,-0.26 l 0.52,5.55 c 0,0 1.88,0.14 5.24,-0.07 l 20.84,-1.84 c 6.34,-0.83 14.15,-2.4 21.21,-5.33 z"
         style="fill:#63cf46;fill-opacity:1;stroke-width:0.353161"
         id="path923"
         inkscape:connector-curvature="0"
         sodipodi:nodetypes="cccccccccccc" />
    </g>
    <g
       id="g937"
       style="stroke-width:0.353161">
      <path
         d="m 52.38,104.99 c -1.13,0.04 -2.27,0.03 -3.44,0.03 -8.33,0 -16.27,-0.22 -24.47,-2.08 C 12.02,100.13 2.32,92.68 0.63,79.36 -0.41,71.15 1.25,61.42 7.59,55.67 c 5.95,-5.4 16.65,-6.89 23.98,-4.4 8.54,2.92 14.76,9.94 18.31,18.04 2.73,6.24 4.58,11.84 5.73,18.57 0.17,1.03 2.06,16.6 -0.15,16.89 -1.02,0.12 -2.05,0.19 -3.08,0.22 z"
         style="fill:#63cf46;fill-opacity:1;stroke-width:0.353161"
         id="path929"
         inkscape:connector-curvature="0" />
      <path
         d="m 30.25,63.47 c 2.46,-0.44 4.87,1.46 5.38,4.26 0.51,2.79 -1.07,5.43 -3.53,5.88 -2.45,0.44 -4.86,-1.46 -5.38,-4.25 -0.51,-2.8 1.07,-5.43 3.53,-5.89 z"
         style="fill:#2f2f2f;stroke-width:0.353161"
         id="path931"
         inkscape:connector-curvature="0" />
      <path
         d="m 7.74,67.17 c 0.7,-2.75 3.25,-4.48 5.66,-3.86 2.42,0.62 3.81,3.36 3.11,6.11 -0.71,2.75 -3.24,4.48 -5.66,3.86 C 8.44,72.65 7.04,69.92 7.74,67.17 Z"
         style="fill:#2f2f2f;stroke-width:0.353161"
         id="path933"
         inkscape:connector-curvature="0" />
      <path
         d="m 23.8,79.29 c -1.14,0.62 -2.12,1.28 -3.45,0.79 -0.77,-0.28 -1.5,-0.5 -2.17,-1 -0.48,-0.35 -1.02,-0.64 -1.5,-0.99 -0.25,-0.18 -0.49,-0.37 -0.74,-0.55 -0.28,-0.21 -0.38,-0.3 -0.74,-0.35 -0.29,-0.03 -0.86,-0.05 -1.08,0.19 -0.94,1.05 0.38,2.61 1.09,3.32 1.06,1.03 2.57,2.2 3.96,2.8 1.36,0.59 2.71,1.3 4.16,0.58 1.59,-0.8 2.97,-1.96 4.37,-3.03 0.92,-0.7 2.98,-1.93 2.62,-3.3 -0.25,-1 -1.41,-0.79 -2.17,-0.55 -0.96,0.29 -1.82,0.78 -2.71,1.23 -0.55,0.27 -1.09,0.57 -1.64,0.86 z"
         style="fill:#2f2f2f;stroke-width:0.353161"
         id="path935"
         inkscape:connector-curvature="0" />
    </g>
  </g>
</svg>
