<?xml version="1.0" encoding="UTF-8" standalone="no"?>
<svg
   width="384"
   height="128"
   version="1.1"
   id="svg38"
   inkscape:version="1.1-rc (52f87ab, 2021-05-02)"
   inkscape:export-xdpi="96"
   inkscape:export-ydpi="96"
   sodipodi:docname="longk.svg"
   inkscape:export-filename="/home/d/123.png"
   xmlns:inkscape="http://www.inkscape.org/namespaces/inkscape"
   xmlns:sodipodi="http://sodipodi.sourceforge.net/DTD/sodipodi-0.dtd"
   xmlns="http://www.w3.org/2000/svg"
   xmlns:svg="http://www.w3.org/2000/svg"
   xmlns:rdf="http://www.w3.org/1999/02/22-rdf-syntax-ns#"
   xmlns:cc="http://creativecommons.org/ns#">
  <metadata
     id="metadata44">
    <rdf:RDF>
      <cc:Work
         rdf:about="" />
    </rdf:RDF>
  </metadata>
  <defs
     id="defs42" />
  <sodipodi:namedview
     pagecolor="#ffffff"
     bordercolor="#666666"
     borderopacity="1"
     objecttolerance="10"
     gridtolerance="10"
     guidetolerance="10"
     inkscape:pageopacity="0"
     inkscape:pageshadow="2"
     inkscape:window-width="917"
     inkscape:window-height="1030"
     id="namedview40"
     showgrid="false"
     inkscape:zoom="0.70710679"
     inkscape:cx="97.580735"
     inkscape:cy="-158.39192"
     inkscape:window-x="15"
     inkscape:window-y="15"
     inkscape:window-maximized="1"
     inkscape:current-layer="svg38"
     inkscape:pagecheckerboard="0"
     showguides="true"
     inkscape:guide-bbox="true">
    <sodipodi:guide
       position="-222.76423,137.22034"
       orientation="-1,0"
       id="guide6462"
       inkscape:label=""
       inkscape:locked="false"
       inkscape:color="rgb(0,0,255)" />
    <sodipodi:guide
       position="-128,128"
       orientation="1,0"
       id="guide5942" />
    <sodipodi:guide
       position="0,128"
       orientation="1,0"
       id="guide5944" />
    <sodipodi:guide
       position="127.91617,128.04185"
       orientation="1,0"
       id="guide13900" />
    <sodipodi:guide
       position="0,88.31185"
       orientation="0,-1"
       id="guide16820" />
    <sodipodi:guide
       position="0,44.621562"
       orientation="0,-1"
       id="guide16974" />
  </sodipodi:namedview>
  <path
     d="m 293.98372,36.057259 c 0,0 2.57405,-1.493957 4.01754,-2.139992 l 22.44973,8.257142 36.30922,0.979148 c 0,0 2.72547,2.826405 3.53301,3.795459 l 6.59158,18.916729 5.3197,2.129899 c 0,0 1.22141,3.654138 1.56462,5.037058 l -1.10028,8.721481 -52.63171,13.051937 -42.26486,-10.366852 0.13123,-25.982744 12.92071,-16.827208 z"
     style="fill:#2f2f2f;stroke-width:0.356492"
     id="path13443"
     inkscape:connector-curvature="0" />
  <g
     id="g13453"
     style="stroke-width:0.353161"
     transform="matrix(1.0094306,0,0,1.0094306,253.50556,-2.1295016)">
    <path
       d="m 73.14,59.57 c -0.1,5.06 -0.38,19.6 -0.28,28.04 1.67,0.04 3.5,-0.05 5.52,-0.26 2.7,-0.27 5.52,-0.81 8.24,-1.33 l 1.73,-0.33 c 2.79,-0.53 5.37,-1.19 7.89,-2.02 3.89,-1.28 8.19,-2.93 12.07,-5.32 -2.85,-9.93 -7.96,-17.38 -9.6,-19.61 -11,-0.87 -21.54,0.29 -25.57,0.83 z"
       style="fill:#757f3f;stroke-width:0.353161"
       id="path13445"
       inkscape:connector-curvature="0" />
    <path
       d="m 102.38,56.52 c 1.95,2.67 6.63,9.73 9.61,19.22 2.18,-1.81 4.06,-3.97 5.5,-6.52 -1.34,-3.73 -2.96,-7.35 -4.9,-10.8 -1.95,-3.46 -4.22,-6.77 -6.79,-9.81 -0.95,3.11 -2.46,6.15 -3.42,7.91 z"
       style="fill:#757f3f;stroke-width:0.353161"
       id="path13447"
       inkscape:connector-curvature="0" />
    <path
       d="m 45.2,42.69 c 4.26,1.63 18.85,7.43 26.39,12.78 3.25,-0.48 14.69,-1.96 27.04,-1.02 1.6,-2.95 3.28,-6.91 3.65,-9.6 C 102.13,44.7 102,44.54 101.85,44.4 96.72,39.58 90.22,36.93 83.66,34.71 74.5,31.61 64.53,30.52 54.98,32.23 c -3.78,0.68 -7.43,1.85 -10.9,3.48 z"
       style="fill:#757f3f;stroke-width:0.353161"
       id="path13449"
       inkscape:connector-curvature="0" />
    <path
       d="m 119.11,74.49 c -1.99,2.55 -4.4,4.67 -6.98,6.43 -0.05,0.04 -0.11,0.07 -0.15,0.11 -4.74,3.2 -10.03,5.26 -14.4,6.69 -2.7,0.89 -5.45,1.6 -8.43,2.16 l -1.73,0.33 c -2.82,0.54 -5.72,1.1 -8.61,1.4 -1.7,0.17 -3.46,0.31 -5.23,0.31 -5.28,0 -10.58,-1.24 -14.45,-6.53 -1.56,-2.15 -3.3,-3.96 -5.15,-5.38 l -0.77,-0.6 c -1.17,-0.93 -3.36,-2.67 -4.49,-2.7 l 0.11,-4.27 c 2.56,0.07 5.15,2.12 7.04,3.62 l 0.7,0.55 c 2.17,1.66 4.2,3.76 6.01,6.25 1.63,2.23 3.62,3.5 6.01,4.17 -0.08,-9.02 0.21,-24.02 0.3,-28.24 -7.32,-5.13 -22.04,-10.92 -25.55,-12.26 -1.38,0.85 -4.94,3.81 -9.13,8.08 -0.42,0.43 -0.98,0.64 -1.53,0.64 -0.54,0 -1.08,-0.2 -1.49,-0.61 -0.84,-0.82 -0.86,-2.17 -0.03,-3.02 2.65,-2.69 6.85,-6.76 9.79,-8.58 L 40.1,37.82 c -7.16,4.28 -14.23,10.92 -18.48,18.64 -4.26,7.71 -5.7,16.48 -1.64,24.97 1.33,2.75 4,7.37 6.68,8.97 2.37,1.42 4.88,2.63 7.44,3.69 2.27,0.94 4.19,2.12 6.52,2.8 2.08,0.62 4.23,1.29 6.34,1.76 2.13,0.48 4.34,0.63 6.48,1.03 1.9,0.35 3.82,0.67 5.74,0.7 9.85,0.13 19.81,0.65 29.48,-1.69 5.88,-1.42 11.71,-3.19 17.24,-5.63 2.8,-1.22 5.53,-2.62 8.1,-4.26 2.09,-1.32 4.84,-2.62 5.93,-4.98 1.15,-2.49 0.17,-5.5 -0.44,-8.02 -0.11,-0.42 -0.26,-0.87 -0.38,-1.31 z"
       style="fill:#757f3f;stroke-width:0.353161"
       id="path13451"
       inkscape:connector-curvature="0" />
  </g>
  <path
     d="m 283.738,97.16819 c -0.98924,-0.585472 -2.40244,-0.787358 -4.32036,-1.059904 -2.52358,-0.353301 -5.26923,-1.059902 -7.7928,-0.605659 -2.17028,0.393678 -2.40245,0.948865 -3.10905,2.957633 -1.10028,3.15952 -4.30017,12.62799 -1.81697,15.6159 0.61575,0.73689 2.04914,0.99934 2.92734,1.26179 2.53367,0.76717 5.22885,0.93877 7.89375,1.12047 2.27122,0.15141 4.51216,-0.26245 6.68243,-0.86811 1.62519,-0.45425 2.34188,-0.83783 2.47311,-2.63462 0.29273,-3.83584 -0.56528,-7.62121 -0.90849,-11.42676 -0.24226,-2.46301 -0.84792,-3.67433 -2.02896,-4.36074 z"
     style="fill:#bdcf46;stroke-width:0.356492"
     id="path13455"
     inkscape:connector-curvature="0" />
  <g
     id="g13461"
     style="stroke-width:0.353161"
     transform="matrix(1.0094306,0,0,1.0094306,253.50556,-2.1295016)">
    <path
       d="m 116.78,87.1 c -0.93,0.62 -1.92,1.17 -2.79,1.72 -2.57,1.63 -5.3,3.03 -8.1,4.26 -5.53,2.44 -11.36,4.21 -17.24,5.63 -9.67,2.34 -19.63,1.82 -29.48,1.69 -1.93,-0.03 -3.85,-0.35 -5.74,-0.7 -0.53,-0.1 -1.05,-0.18 -1.58,-0.26 l 0.52,5.55 c 0,0 1.88,0.14 5.24,-0.07 -0.65,6.43 -0.86,13.37 0.78,14.69 0.74,0.6 2.31,0.71 3.27,0.87 2.82,0.47 5.74,0.4 8.64,0.35 2.47,-0.04 4.85,-0.58 7.13,-1.28 1.71,-0.52 2.45,-0.9 2.42,-2.47 -0.03,-2.01 -0.71,-8.47 -1.4,-14 6.34,-0.83 14.15,-2.4 21.21,-5.33 0.1,2.22 0.19,4.12 0.18,4.51 -0.06,1.53 -0.08,3.62 1.27,4.8 3.76,3.31 13.07,1.38 17.39,-0.06 3.22,-1.06 2.23,-4.81 1.59,-7 -0.37,-1.31 -1.86,-8.13 -3.31,-12.9 z"
       style="fill:#bdcf46;stroke-width:0.353161"
       id="path13457"
       inkscape:connector-curvature="0" />
    <path
       d="m 127.07,64.28 c -1.68,-1.58 -4.44,0.46 -5.98,1.28 -1.38,0.74 -2.75,1.47 -4.15,2.16 1.01,2.65 1.89,5.35 2.55,8.11 0.3,1.23 0.68,2.58 0.87,3.93 0.05,-0.06 0.1,-0.12 0.15,-0.17 0.51,-0.58 0.97,-1.17 1.42,-1.8 1.75,-2.48 3.08,-5.22 4.51,-7.88 0.69,-1.33 1.96,-4.37 0.63,-5.63 z"
       style="fill:#bdcf46;stroke-width:0.353161"
       id="path13459"
       inkscape:connector-curvature="0" />
  </g>
  <path
     style="fill:#644502;fill-opacity:1;stroke:none;stroke-width:0.356491px;stroke-linecap:butt;stroke-linejoin:miter;stroke-opacity:1"
     d="m 279.54021,18.874138 c 2.81081,-2.18362 10.06127,8.807848 20.22766,8.420125 1.67226,-7.644285 4.82492,-18.7680848 11.61397,-19.1630448 3.47796,-0.20234 7.67549,3.7639798 11.80753,3.7745398 4.09155,0.0105 7.66365,-4.2792198 11.71076,-3.6777598 7.32443,1.0885 11.13005,18.9694808 11.13005,18.9694808 10.60943,0.222115 15.75591,-10.839871 19.16792,-8.516911 13.75065,9.361717 -14.59252,27.679965 -39.87463,27.679965 -32.77883,0 -57.68774,-18.238273 -45.78326,-27.486395 z"
     id="path13463"
     inkscape:connector-curvature="0"
     sodipodi:nodetypes="scsascsss" />
  <path
     style="fill:#805d0b;fill-opacity:1;stroke:none;stroke-width:0.356491px;stroke-linecap:butt;stroke-linejoin:miter;stroke-opacity:1"
     d="m 305.5169,26.887357 -1.02654,3.969289 c 12.06754,8.485034 26.73565,6.710778 36.20263,-0.136878 l -0.47906,-3.832411 c -10.81187,5.337281 -22.63436,8.076231 -34.69703,0 z"
     id="path13465"
     inkscape:connector-curvature="0"
     sodipodi:nodetypes="ccccc" />
  <path
     style="fill:#805d0b;fill-opacity:1;stroke:none;stroke-width:0.356491px;stroke-linecap:butt;stroke-linejoin:miter;stroke-opacity:1"
     d="m 306.61188,22.370588 c 0,0 3.67545,-7.67263 7.32264,-8.75981 2.85616,-0.85139 5.57486,2.53557 8.5545,2.60056 3.39082,0.074 6.65424,-3.65448 9.85478,-2.53212 3.47442,1.21839 6.63829,8.82824 6.63829,8.82824 -11.84944,4.191818 -22.88774,5.139139 -32.37021,-0.13687 z"
     id="path13467"
     inkscape:connector-curvature="0"
     sodipodi:nodetypes="caaacc" />
  <path
     style="opacity:1;fill:none;fill-opacity:1;stroke:#bdcf46;stroke-width:42;stroke-linecap:round;stroke-linejoin:round;stroke-miterlimit:4;stroke-dasharray:none;stroke-opacity:1"
     d="m 111.0391,54.798238 14.32233,5.834008 c 26.32233,10.722046 27.15114,18.159407 44.81703,22.150151 7.28639,1.646004 22.3853,-0.255426 33.588,-10.177499 4.64388,-4.814667 15.36126,-12.740801 22.63108,-13.516644 27.77546,-2.964222 46.10872,8.049755 55.49522,14.866173"
     id="path13469"
     sodipodi:nodetypes="csscsc" />
  <path
     d="m 306.36944,103.85062 c -1.14066,0.0404 -2.29141,0.0303 -3.47244,0.0303 -8.40856,0 -15.99557,-0.11193 -24.2729,-1.98948 -6.67644,-2.953074 -9.86654,-1.79028 -9.71466,-4.342872 0.40708,-6.841848 -2.93578,-9.424811 -2.93578,-9.424811 -1.0498,-8.287422 -11.21641,-28.25403 -4.81662,-34.058256 6.00611,-5.450925 11.92361,-6.831715 19.32274,-4.318233 5.65565,3.265295 15.15781,4.478034 23.36608,18.086866 2.75575,6.298844 4.62319,11.951655 5.78404,18.745123 0.1716,1.039714 2.07943,16.756553 -0.15141,17.049283 -1.02962,0.12113 -2.06934,0.19179 -3.10905,0.22208 z"
     style="fill:#bdcf46;stroke-width:0.356492"
     id="path13473"
     inkscape:connector-curvature="0"
     sodipodi:nodetypes="cscsccccccc" />
  <g
     id="g13483"
     style="stroke:none;stroke-width:0.353161"
     transform="matrix(1.0094306,0,0,1.0094306,79.66133,-28.115303)">
    <path
       d="M 25.286717,102.41832 C 12.735223,99.055155 2.32,92.68 0.63,79.36 -0.41,71.15 1.25,61.42 7.59,55.67 c 5.95,-5.4 16.047026,-6.782637 23.377026,-4.292637 8.54,2.92 14.357817,9.996111 17.907817,18.096111 2.73,6.24 5.585157,11.676526 6.735157,18.406526 0.17,1.03 -3.354897,12.30618 -5.564897,12.59618 0,0 -6.603523,6.80672 -24.758386,1.94214 z"
       style="fill:#bdcf46;stroke:none;stroke-width:0.353161;stroke-opacity:1"
       id="path13475"
       inkscape:connector-curvature="0"
       sodipodi:nodetypes="cccccccc" />
    <path
       d="m 30.25,63.47 c 2.46,-0.44 4.87,1.46 5.38,4.26 0.51,2.79 -1.07,5.43 -3.53,5.88 -2.45,0.44 -4.86,-1.46 -5.38,-4.25 -0.51,-2.8 1.07,-5.43 3.53,-5.89 z"
       style="fill:#2f2f2f;stroke:none;stroke-width:0.353161"
       id="path13477"
       inkscape:connector-curvature="0" />
    <path
       d="m 7.74,67.17 c 0.7,-2.75 3.25,-4.48 5.66,-3.86 2.42,0.62 3.81,3.36 3.11,6.11 -0.71,2.75 -3.24,4.48 -5.66,3.86 C 8.44,72.65 7.04,69.92 7.74,67.17 Z"
       style="fill:#2f2f2f;stroke:none;stroke-width:0.353161"
       id="path13479"
       inkscape:connector-curvature="0" />
    <path
       d="m 23.8,79.29 c -1.14,0.62 -2.12,1.28 -3.45,0.79 -0.77,-0.28 -1.5,-0.5 -2.17,-1 -0.48,-0.35 -1.02,-0.64 -1.5,-0.99 -0.25,-0.18 -0.49,-0.37 -0.74,-0.55 -0.28,-0.21 -0.38,-0.3 -0.74,-0.35 -0.29,-0.03 -0.86,-0.05 -1.08,0.19 -0.94,1.05 0.38,2.61 1.09,3.32 1.06,1.03 2.57,2.2 3.96,2.8 1.36,0.59 2.71,1.3 4.16,0.58 1.59,-0.8 2.97,-1.96 4.37,-3.03 0.92,-0.7 2.98,-1.93 2.62,-3.3 -0.25,-1 -1.41,-0.79 -2.17,-0.55 -0.96,0.29 -1.82,0.78 -2.71,1.23 -0.55,0.27 -1.09,0.57 -1.64,0.86 z"
       style="fill:#2f2f2f;stroke:none;stroke-width:0.353161"
       id="path13481"
       inkscape:connector-curvature="0" />
  </g>
</svg>
