<?xml version="1.0" encoding="UTF-8" standalone="no"?>
<svg
   width="129"
   height="112"
   viewBox="0 0 129 112"
   fill="none"
   version="1.1"
   id="svg115"
   sodipodi:docname="pigkachu.svg"
   inkscape:version="1.1-rc (52f87ab, 2021-05-02)"
   inkscape:export-filename="/home/d/opt/turtles/FANART/pigkachu.png"
   inkscape:export-xdpi="595.34882"
   inkscape:export-ydpi="595.34882"
   xmlns:inkscape="http://www.inkscape.org/namespaces/inkscape"
   xmlns:sodipodi="http://sodipodi.sourceforge.net/DTD/sodipodi-0.dtd"
   xmlns="http://www.w3.org/2000/svg"
   xmlns:svg="http://www.w3.org/2000/svg">
  <sodipodi:namedview
     id="namedview117"
     pagecolor="#ffffff"
     bordercolor="#666666"
     borderopacity="1.0"
     objecttolerance="10.0"
     gridtolerance="10.0"
     guidetolerance="10.0"
     inkscape:pageshadow="2"
     inkscape:pageopacity="0.0"
     inkscape:pagecheckerboard="0"
     showgrid="false"
     inkscape:zoom="2.8284271"
     inkscape:cx="72.655222"
     inkscape:cy="100.05561"
     inkscape:window-width="1920"
     inkscape:window-height="1080"
     inkscape:window-x="0"
     inkscape:window-y="0"
     inkscape:window-maximized="1"
     inkscape:current-layer="svg115" />
  <path
     style="color:#000000;fill:#f4dc26;-inkscape-stroke:none"
     d="m 118.585,60.3978 -0.743,1.3432 1.671,-1.1035 -0.866,-2.0147 2.848,-1.8232 -1.919,-2.5422 2.91,-0.528 -1.052,-5.1328 5.633,-0.3364 1.24,-8.6349 c -0.805,-0.7195 -5.633,1.8714 -11.7,6.1895 l 3.156,6.1879 -3.034,1.7752 2.29,2.6382 -2.538,1.3914 z"
     id="path5" />
  <path
     d="m 40.973,28.1683 c 0,0 2.5638,-1.4881 4.0016,-2.1315 l 22.3605,8.2243 36.1649,0.9753 c 0,0 2.715,2.8151 3.519,3.7804 l 6.565,18.8415 5.299,2.1215 c 0,0 1.217,3.6396 1.558,5.017 L 119.345,73.6836 66.9229,86.6837 24.8259,76.3581 24.9566,50.4785 37.826,33.7182 Z"
     fill="#000000"
     id="path11"
     style="fill:#5a4627;fill-opacity:1" />
  <path
     id="path3929"
     style="color:#000000;fill:#5a4627;fill-opacity:1;-inkscape-stroke:none"
     d="m 116.729,53.7779 2.29053,2.638116 -2.42383,1.326172 -0.0215,0.179687 2.01172,2.476563 -0.74414,1.341796 1.67187,-1.103515 -0.86719,-2.013672 2.84766,-1.824219 L 119.576,54.2574 c -0.68923,-0.592088 -1.5694,-0.866457 -2.847,-0.4795 z"
     sodipodi:nodetypes="ccccccccccc" />
  <path
     d="m 74.192,50.0261 c -0.1005,5.0874 -0.382,19.7062 -0.2815,28.192 1.6791,0.0402 3.519,-0.0503 5.5499,-0.2614 2.7147,-0.2715 5.55,-0.8144 8.2847,-1.3373 l 1.7394,-0.3318 c 2.8051,-0.5328 5.3991,-1.1964 7.9328,-2.0309 3.9107,-1.2869 8.2347,-2.9459 12.1357,-5.3488 C 106.687,58.924 101.55,51.4336 99.9006,49.1916 88.841,48.3168 78.2439,49.4831 74.192,50.0261 Z"
     fill="#e19720"
     id="path13" />
  <path
     d="m 103.591,46.9596 c 1.96,2.6844 6.666,9.7827 9.662,19.3241 2.191,-1.8198 4.082,-3.9915 5.529,-6.5553 -1.347,-3.7502 -2.976,-7.3898 -4.926,-10.8585 -1.961,-3.4788 -4.243,-6.8067 -6.827,-9.8632 -0.955,3.1268 -2.473,6.1833 -3.438,7.9529 z"
     fill="#e19720"
     id="path15" />
  <path
     d="m 46.1007,33.0546 c 4.2831,1.6388 18.9522,7.4703 26.533,12.8493 3.2676,-0.4826 14.7697,-1.9707 27.1866,-1.0256 1.6087,-2.966 3.2977,-6.9474 3.6697,-9.652 -0.151,-0.1508 -0.281,-0.3117 -0.432,-0.4524 -5.1581,-4.8462 -11.6933,-7.5105 -18.2888,-9.7426 -9.2097,-3.1168 -19.2337,-4.2127 -28.8355,-2.4934 -3.8005,0.6837 -7.4703,1.86 -10.9591,3.4989 z"
     fill="#e19720"
     id="path17" />
  <path
     d="m 120.411,65.027 c -2,2.5638 -4.423,4.6953 -7.017,6.4648 -0.051,0.0402 -0.111,0.0704 -0.151,0.1106 -4.766,3.2174 -10.085,5.2885 -14.4783,6.7263 -2.7146,0.8948 -5.4795,1.6086 -8.4757,2.1717 l -1.7394,0.3318 c -2.8353,0.5429 -5.751,1.1059 -8.6566,1.4076 -1.7093,0.1709 -3.4788,0.3117 -5.2584,0.3117 -5.3086,0 -10.6373,-1.2467 -14.5283,-6.5654 -1.5685,-2.1617 -3.3179,-3.9815 -5.1779,-5.4092 L 54.1542,69.9736 C 52.9778,69.0386 50.776,67.2892 49.6398,67.259 l 0.1106,-4.2931 c 2.5739,0.0703 5.1779,2.1315 7.0782,3.6396 l 0.7038,0.553 c 2.1818,1.669 4.2227,3.7803 6.0426,6.2838 1.6388,2.2421 3.6396,3.519 6.0425,4.1926 -0.0804,-9.0689 0.2112,-24.1502 0.3017,-28.393 -7.3597,-5.1578 -22.1595,-10.9792 -25.6885,-12.3265 -1.3875,0.8546 -4.9668,3.8307 -9.1795,8.1238 -0.4223,0.4323 -0.9853,0.6435 -1.5383,0.6435 -0.5429,0 -1.0858,-0.2011 -1.4981,-0.6133 -0.8445,-0.8245 -0.8646,-2.1818 -0.0301,-3.0364 2.6643,-2.7046 6.8871,-6.7966 9.843,-8.6265 l -0.8546,-5.2483 c -7.1988,4.3032 -14.3071,10.9792 -18.5801,18.741 -4.2831,7.7518 -5.7309,16.5694 -1.6489,25.1054 1.3372,2.7649 4.0216,7.4099 6.7162,9.0186 2.3828,1.4277 4.9064,2.6443 7.4803,3.71 2.2823,0.9451 4.2127,2.1315 6.5553,2.8152 2.0913,0.6233 4.253,1.297 6.3744,1.7695 2.1416,0.4826 4.3635,0.6334 6.5151,1.0356 1.9103,0.3519 3.8407,0.6736 5.7711,0.7038 9.9034,0.1307 19.9174,0.6535 29.6398,-1.6992 5.9119,-1.4276 11.7737,-3.2072 17.3337,-5.6605 2.815,-1.2266 5.56,-2.6342 8.144,-4.2831 2.101,-1.3271 4.866,-2.6342 5.962,-5.007 1.156,-2.5035 0.171,-5.5298 -0.443,-8.0634 -0.11,-0.4223 -0.261,-0.8747 -0.382,-1.3171 z"
     fill="#e19720"
     id="path19" />
  <path
     d="m 30.768,89.0364 c -0.9853,-0.5832 -2.3929,-0.7842 -4.3032,-1.0557 -2.5135,-0.3519 -5.2483,-1.0557 -7.7618,-0.6033 -2.1617,0.3922 -2.3929,0.9451 -3.0967,2.9459 -1.0959,3.147 -4.2831,12.5777 -1.8098,15.5537 0.6133,0.734 2.041,0.996 2.9157,1.257 2.5236,0.764 5.2081,0.935 7.8624,1.116 2.2622,0.151 4.4942,-0.261 6.6559,-0.865 1.6187,-0.452 2.3326,-0.834 2.4633,-2.624 0.2916,-3.82 -0.5631,-7.5908 -0.9049,-11.3812 -0.2413,-2.4532 -0.8445,-3.6597 -2.0209,-4.3434 z"
     fill="#f4dc26"
     id="path21" />
  <path
     d="m 118.069,77.7053 c -0.935,0.6234 -1.931,1.1764 -2.806,1.7293 -2.583,1.6389 -5.328,3.0465 -8.143,4.2831 -5.56,2.4533 -11.422,4.2329 -17.3339,5.6606 -9.7224,2.3526 -19.7364,1.8298 -29.6398,1.6991 -1.9405,-0.0302 -3.8709,-0.3519 -5.7711,-0.7038 -0.5329,-0.1005 -1.0557,-0.1809 -1.5886,-0.2614 l 0.5228,5.5801 c 0,0 1.8902,0.1408 5.2684,-0.0704 -0.6535,6.4651 -0.8646,13.4421 0.7843,14.7701 0.744,0.603 2.3225,0.713 3.2877,0.874 2.8353,0.473 5.7711,0.402 8.6868,0.352 2.4834,-0.04 4.8763,-0.583 7.1687,-1.287 1.7192,-0.523 2.4633,-0.905 2.4331,-2.483 -0.0302,-2.021 -0.7139,-8.516 -1.4076,-14.076 6.3744,-0.8345 14.2267,-2.413 21.3252,-5.3589 0.1,2.232 0.191,4.1423 0.181,4.5344 -0.061,1.5383 -0.081,3.6397 1.277,4.8261 3.78,3.3274 13.14,1.3874 17.484,-0.0604 3.237,-1.0657 2.242,-4.836 1.598,-7.0379 -0.372,-1.3171 -1.87,-8.1741 -3.327,-12.9699 z"
     fill="#f4dc26"
     id="path23" />
  <path
     d="M 26.5869,11.0534 C 29.3865,8.87846 36.6082,19.8263 46.7342,19.4401 48.3998,11.8262 51.5399,0.746551 58.302,0.35316 61.7661,0.151624 65.947,4.10219 70.0626,4.11271 74.1379,4.12314 77.6958,-0.149513 81.7269,0.449559 89.0222,1.53373 92.8127,19.3437 92.8127,19.3437 103.38,19.5649 108.506,8.54687 111.904,10.8606 c 13.696,9.3245 -14.5341,27.57 -39.7158,27.57 -32.6486,0 -57.4585,-18.1658 -45.6013,-27.3772 z"
     fill="#644502"
     id="path25" />
  <path
     d="m 52.4605,19.0348 -1.0225,3.9535 c 12.0196,8.4513 26.6294,6.6841 36.0588,-0.1363 l -0.4772,-3.8172 c -10.7689,5.3161 -22.5444,8.0441 -34.5591,0 z"
     fill="#805d0b"
     id="path27" />
  <path
     d="m 53.551,14.5359 c 0,0 3.6609,-7.64212 7.2936,-8.72497 2.8448,-0.848 5.5527,2.5255 8.5205,2.59023 3.3773,0.0737 6.6278,-3.63996 9.8156,-2.52207 3.4606,1.21356 6.6119,8.79321 6.6119,8.79321 C 73.9903,18.8474 62.9958,19.791 53.551,14.5359 Z"
     fill="#805d0b"
     id="path29" />
  <path
     d="m 53.3197,95.6923 c -1.1361,0.0402 -2.2823,0.0302 -3.4587,0.0302 -8.3751,0 -16.3582,-0.2212 -24.6026,-2.0913 C 12.7409,90.8059 2.98834,83.3156 1.28918,69.9234 0.243538,61.6689 1.91254,51.8861 8.2869,46.1049 c 5.9823,-5.4292 16.7403,-6.9273 24.11,-4.4238 8.5863,2.9358 14.84,9.9939 18.4092,18.1378 2.7448,6.2738 4.6049,11.9042 5.7611,18.6706 0.1709,1.0356 2.0712,16.69 -0.1508,16.9816 -1.0255,0.1206 -2.0611,0.191 -3.0967,0.2212 z"
     fill="#f4dc26"
     id="path31" />
  <path
     d="m 3.81134,33.3953 4.29891,-6.0355 2.51725,3.3143 3.6516,8.2475 2.0661,6.848 -4.8546,1.176 -5.03452,-6.6284 z"
     fill="#f4dc26"
     id="path33" />
  <path
     d="M 8.17687,27.2938 C 6.58405,25.3969 4.80732,23.9486 2.73926,22.6417 c -0.45237,3.8 -0.05907,7.9191 1.33707,12.0591 0.96581,-3.7879 2.10778,-5.6098 4.10054,-7.407 z"
     fill="#000000"
     id="path37" />
  <path
     d="M 11.0505,46.4683 C 7.51294,43.2779 5.34505,39.325 4.07633,34.7008 M 15.7488,44.5926 15.7066,44.0055 C 12.0946,31.1485 8.57807,26.3316 2.73926,22.6417 c -0.45237,3.8 -0.05907,7.9191 1.33707,12.0591 m 4.10054,-7.407 c -1.99276,1.7972 -3.13473,3.6191 -4.10054,7.407"
     stroke="#000000"
     id="path39" />
  <path
     d="m 47.638673,33.742001 -4.797757,-6.122215 -2.467071,3.730088 -4.309604,8.231789 -2.086051,7.239497 5.207368,1.124677 5.504423,-6.502848 z"
     fill="#f4dc26"
     id="path35" />
  <path
     d="m 42.707458,27.963517 c 1.686474,-1.930182 3.554038,-3.392556 5.720155,-4.702776 0.39097,3.940644 -0.09956,8.194327 -1.628088,12.449139 -0.922293,-3.938502 -2.066764,-5.846685 -4.092067,-7.746363 z"
     fill="#000000"
     id="path41" />
  <path
     d="m 39.345244,47.742988 c 3.724788,-3.229007 6.047903,-7.274624 7.454281,-12.033108 m -12.276924,9.997124 0.05543,-0.606538 c 3.997964,-13.228464 7.7339,-18.140674 13.849578,-21.839725 0.39097,3.940644 -0.09956,8.194327 -1.628088,12.449139 m -4.092067,-7.746363 c 2.025303,1.899678 3.169774,3.807861 4.092067,7.746363"
     stroke="#000000"
     id="path43" />
  <path
     d="m 36.382,52.074 c 2.9732,-0.5143 5.886,1.7065 6.5024,4.9792 0.6164,3.2611 -1.2932,6.3468 -4.2664,6.8728 -2.9611,0.5143 -5.8739,-1.7065 -6.5024,-4.9676 -0.6164,-3.2727 1.2932,-6.3467 4.2664,-6.8844 z"
     fill="#000000"
     id="path45" />
  <path
     d="m 8.21732,56.6793 c 0.84323,-3.2284 3.91498,-5.2593 6.81808,-4.5315 2.9152,0.7279 4.5896,3.9445 3.7464,7.1729 -0.8553,3.2284 -3.903,5.2593 -6.8181,4.5315 C 9.06055,63.1126 7.37409,59.9077 8.21732,56.6793 Z"
     fill="#000000"
     id="path47" />
  <path
     d="m 12.9999,76.5 c 0,3.0375 -2.4624,5.5 -5.49999,5.5 C 4.46234,82 3,77 3,76.5 3,73.4624 4.46243,71 7.5,71 c 3.0376,0 5.4999,2.4624 5.4999,5.5 z"
     fill="#e92929"
     id="path49"
     style="filter:url(#filter0_d)" />
  <path
     d="M 50,73.5 C 50,76.5376 47.5376,79 44.5,79 41.4624,79 39,76.5376 39,73.5 39,70.4624 41.4624,68 44.5,68 c 3.0376,0 5.5,2.4624 5.5,5.5 z"
     fill="#e92929"
     id="path53"
     style="filter:url(#filter1_d)" />
  <path
     d="m 25.1831,66.3453 c 0.299,0.3454 0.8348,0.3454 1.1338,0 L 27.2733,65.241 C 27.694,64.7553 27.349,64 26.7064,64 h -1.9128 c -0.6426,0 -0.9876,0.7553 -0.5669,1.241 z"
     fill="#2f2f2f"
     id="path57" />
  <path
     d="M 15.497811,70.255431 C 19.019302,70.147389 22.500755,69.751442 25.7937,68 c 3.341175,1.500432 5.154675,4.080975 10.3174,2.3326 L 35,75 30.5,73.5 26,73 l -4.5,0.5 -5,1.5 -1.041715,-3 z"
     fill="#72060c"
     id="path66"
     sodipodi:nodetypes="cccccccccc" />
  <path
     d="M 16.5202,74.9978 22.5,73 H 26 l 4,0.3889 5,1.6111 -1.568551,3.181821 -4.307041,4.732221 -2.943605,1.148426 -4.104502,-1.309724 -3.628707,-4.090198 z"
     fill="#eb4f89"
     id="path68"
     sodipodi:nodetypes="ccccccccccc" />
  <path
     d="M 13.778507,68.818554 15.4762,69.9994 m 0,0 c 3.4475,0.7019 5.7795,0.0759 10.3175,-1.9994 3.7831,2.0799 6.0022,2.7961 10.3174,2.3326 M 15.4762,69.9994 c -0.2932,0.8284 0.1117,2.7939 1.044,4.9984 m 19.5909,-4.6652 1.99965,-1.197249 M 36.1111,70.3326 c 0,0 0.0441,1.9295 -1.2072,4.6652 m -18.3837,0 c 1.6927,4.0027 5.1241,8.7935 9.2735,8.9972 3.8351,0.1883 7.2639,-4.9609 9.1102,-8.9972 m -18.3837,0 c 6.3153,-2.7466 10.2121,-3.3702 18.3837,0"
     stroke="#000000"
     id="path70"
     sodipodi:nodetypes="cccccccccccccccc"
     style="stroke:#000000;stroke-linecap:round;stroke-linejoin:round;stroke-opacity:1" />
  <circle
     cx="15"
     cy="56"
     r="2"
     fill="#ffffff"
     id="circle74" />
  <circle
     cx="36"
     cy="56"
     r="2"
     fill="#ffffff"
     id="circle76" />
  <defs
     id="defs113">
    <filter
       id="filter0_d"
       x="-2"
       y="67"
       width="17.9999"
       height="19"
       filterUnits="userSpaceOnUse"
       color-interpolation-filters="sRGB">
      <feFlood
         flood-opacity="0"
         result="BackgroundImageFix"
         id="feFlood80" />
      <feColorMatrix
         in="SourceAlpha"
         type="matrix"
         values="0 0 0 0 0 0 0 0 0 0 0 0 0 0 0 0 0 0 127 0"
         id="feColorMatrix82" />
      <feOffset
         dx="-1"
         id="feOffset84" />
      <feGaussianBlur
         stdDeviation="2"
         id="feGaussianBlur86" />
      <feColorMatrix
         type="matrix"
         values="0 0 0 0 0 0 0 0 0 0 0 0 0 0 0 0 0 0 0.15 0"
         id="feColorMatrix88" />
      <feBlend
         mode="normal"
         in2="BackgroundImageFix"
         result="effect1_dropShadow"
         id="feBlend90" />
      <feBlend
         mode="normal"
         in="SourceGraphic"
         in2="effect1_dropShadow"
         result="shape"
         id="feBlend92" />
    </filter>
    <filter
       id="filter1_d"
       x="36"
       y="64"
       width="19"
       height="19"
       filterUnits="userSpaceOnUse"
       color-interpolation-filters="sRGB">
      <feFlood
         flood-opacity="0"
         result="BackgroundImageFix"
         id="feFlood95" />
      <feColorMatrix
         in="SourceAlpha"
         type="matrix"
         values="0 0 0 0 0 0 0 0 0 0 0 0 0 0 0 0 0 0 127 0"
         id="feColorMatrix97" />
      <feOffset
         dx="1"
         id="feOffset99" />
      <feGaussianBlur
         stdDeviation="2"
         id="feGaussianBlur101" />
      <feColorMatrix
         type="matrix"
         values="0 0 0 0 0 0 0 0 0 0 0 0 0 0 0 0 0 0 0.15 0"
         id="feColorMatrix103" />
      <feBlend
         mode="normal"
         in2="BackgroundImageFix"
         result="effect1_dropShadow"
         id="feBlend105" />
      <feBlend
         mode="normal"
         in="SourceGraphic"
         in2="effect1_dropShadow"
         result="shape"
         id="feBlend107" />
    </filter>
    <clipPath
       id="clip0">
      <rect
         width="129"
         height="112"
         fill="white"
         id="rect110" />
    </clipPath>
    <mask
       id="mask0"
       mask-type="alpha"
       maskUnits="userSpaceOnUse"
       x="112"
       y="37"
       width="18"
       height="27">
      <path
         d="M118.585 60.3978L117.842 61.741L119.513 60.6375L118.647 58.6228L121.495 56.7996L119.576 54.2574L122.486 53.7294L121.434 48.5966L127.067 48.2602L128.307 39.6253C127.502 38.9058 122.674 41.4967 116.607 45.8148L119.763 52.0027L116.729 53.7779L119.019 56.4161L116.481 57.8075L118.585 60.3978Z"
         fill="#F4DC26"
         id="path2" />
    </mask>
    <mask
       id="mask1"
       mask-type="alpha"
       maskUnits="userSpaceOnUse"
       x="12"
       y="67"
       width="28"
       height="18">
      <path
         d="M36.1111 70.3326C31.7959 70.7961 29.5768 70.0799 25.7937 68C21.2557 70.0753 18.9237 70.7013 15.4762 69.9994C15.183 70.8278 15.5879 72.7933 16.5202 74.9978C22.8355 72.2512 26.7323 71.6276 34.9039 74.9978C36.1552 72.2621 36.6797 70.0376 36.1111 70.3326Z"
         fill="#C4C4C4"
         id="path59" />
      <path
         d="M16.5202 74.9978C18.2129 79.0005 21.6443 83.7913 25.7937 83.995C29.6288 84.1833 33.0576 79.0341 34.9039 74.9978C26.7323 71.6276 22.8355 72.2512 16.5202 74.9978Z"
         fill="#C4C4C4"
         id="path61" />
      <path
         d="M13 68L15.4762 69.9994M15.4762 69.9994C18.9237 70.7013 21.2557 70.0753 25.7937 68C29.5768 70.0799 31.7959 70.7961 36.1111 70.3326M15.4762 69.9994C15.183 70.8278 15.5879 72.7933 16.5202 74.9978M36.1111 70.3326L39 68.3332M36.1111 70.3326C36.6797 70.0376 36.1552 72.2621 34.9039 74.9978M16.5202 74.9978C18.2129 79.0005 21.6443 83.7913 25.7937 83.995C29.6288 84.1833 33.0576 79.0341 34.9039 74.9978M16.5202 74.9978C22.8355 72.2512 26.7323 71.6276 34.9039 74.9978"
         stroke="black"
         id="path63" />
    </mask>
  </defs>
</svg>
