<?xml version="1.0" encoding="UTF-8" standalone="no"?>
<svg
   xmlns:dc="http://purl.org/dc/elements/1.1/"
   xmlns:cc="http://creativecommons.org/ns#"
   xmlns:rdf="http://www.w3.org/1999/02/22-rdf-syntax-ns#"
   xmlns:svg="http://www.w3.org/2000/svg"
   xmlns="http://www.w3.org/2000/svg"
   xmlns:sodipodi="http://sodipodi.sourceforge.net/DTD/sodipodi-0.dtd"
   xmlns:inkscape="http://www.inkscape.org/namespaces/inkscape"
   width="512"
   height="512"
   version="1.1"
   id="svg38"
   sodipodi:docname="gk.svg"
   inkscape:version="0.92.5 (2060ec1f9f, 2020-04-08)"
   inkscape:export-xdpi="93.75"
   inkscape:export-ydpi="93.75">
  <metadata
     id="metadata44">
    <rdf:RDF>
      <cc:Work
         rdf:about="">
        <dc:format>image/svg+xml</dc:format>
        <dc:type
           rdf:resource="http://purl.org/dc/dcmitype/StillImage" />
        <dc:title />
      </cc:Work>
    </rdf:RDF>
  </metadata>
  <defs
     id="defs42" />
  <sodipodi:namedview
     pagecolor="#ffffff"
     bordercolor="#666666"
     borderopacity="1"
     objecttolerance="10"
     gridtolerance="10"
     guidetolerance="10"
     inkscape:pageopacity="0"
     inkscape:pageshadow="2"
     inkscape:window-width="1920"
     inkscape:window-height="1080"
     id="namedview40"
     showgrid="false"
     inkscape:zoom="0.32593203"
     inkscape:cx="-1158.9349"
     inkscape:cy="605.8912"
     inkscape:window-x="1440"
     inkscape:window-y="0"
     inkscape:window-maximized="1"
     inkscape:current-layer="svg38" />
  <g
     id="g951">
    <g
       id="g943"
       transform="matrix(2.8315731,0,0,2.8315731,66.871633,81.25246)"
       style="stroke-width:0.35316059">
      <path
         d="m 40.1,37.83 c 0,0 2.55,-1.48 3.98,-2.12 l 22.24,8.18 35.97,0.97 c 0,0 2.7,2.8 3.5,3.76 l 6.53,18.74 5.27,2.11 c 0,0 1.21,3.62 1.55,4.99 L 118.05,83.1 65.91,96.03 24.04,85.76 24.17,60.02 36.97,43.35 Z"
         style="fill:#2f2f2f;stroke-width:0.35316059"
         id="path909"
         inkscape:connector-curvature="0" />
      <g
         id="g941"
         style="stroke-width:0.35316059">
        <g
           id="g919"
           style="stroke-width:0.35316059">
          <path
             d="m 73.14,59.57 c -0.1,5.06 -0.38,19.6 -0.28,28.04 1.67,0.04 3.5,-0.05 5.52,-0.26 2.7,-0.27 5.52,-0.81 8.24,-1.33 l 1.73,-0.33 c 2.79,-0.53 5.37,-1.19 7.89,-2.02 3.89,-1.28 8.19,-2.93 12.07,-5.32 -2.85,-9.93 -7.96,-17.38 -9.6,-19.61 -11,-0.87 -21.54,0.29 -25.57,0.83 z"
             style="fill:#757f3f;stroke-width:0.35316059"
             id="path911"
             inkscape:connector-curvature="0" />
          <path
             d="m 102.38,56.52 c 1.95,2.67 6.63,9.73 9.61,19.22 2.18,-1.81 4.06,-3.97 5.5,-6.52 -1.34,-3.73 -2.96,-7.35 -4.9,-10.8 -1.95,-3.46 -4.22,-6.77 -6.79,-9.81 -0.95,3.11 -2.46,6.15 -3.42,7.91 z"
             style="fill:#757f3f;stroke-width:0.35316059"
             id="path913"
             inkscape:connector-curvature="0" />
          <path
             d="m 45.2,42.69 c 4.26,1.63 18.85,7.43 26.39,12.78 3.25,-0.48 14.69,-1.96 27.04,-1.02 1.6,-2.95 3.28,-6.91 3.65,-9.6 C 102.13,44.7 102,44.54 101.85,44.4 96.72,39.58 90.22,36.93 83.66,34.71 74.5,31.61 64.53,30.52 54.98,32.23 c -3.78,0.68 -7.43,1.85 -10.9,3.48 z"
             style="fill:#757f3f;stroke-width:0.35316059"
             id="path915"
             inkscape:connector-curvature="0" />
          <path
             d="m 119.11,74.49 c -1.99,2.55 -4.4,4.67 -6.98,6.43 -0.05,0.04 -0.11,0.07 -0.15,0.11 -4.74,3.2 -10.03,5.26 -14.4,6.69 -2.7,0.89 -5.45,1.6 -8.43,2.16 l -1.73,0.33 c -2.82,0.54 -5.72,1.1 -8.61,1.4 -1.7,0.17 -3.46,0.31 -5.23,0.31 -5.28,0 -10.58,-1.24 -14.45,-6.53 -1.56,-2.15 -3.3,-3.96 -5.15,-5.38 l -0.77,-0.6 c -1.17,-0.93 -3.36,-2.67 -4.49,-2.7 l 0.11,-4.27 c 2.56,0.07 5.15,2.12 7.04,3.62 l 0.7,0.55 c 2.17,1.66 4.2,3.76 6.01,6.25 1.63,2.23 3.62,3.5 6.01,4.17 -0.08,-9.02 0.21,-24.02 0.3,-28.24 -7.32,-5.13 -22.04,-10.92 -25.55,-12.26 -1.38,0.85 -4.94,3.81 -9.13,8.08 -0.42,0.43 -0.98,0.64 -1.53,0.64 -0.54,0 -1.08,-0.2 -1.49,-0.61 -0.84,-0.82 -0.86,-2.17 -0.03,-3.02 2.65,-2.69 6.85,-6.76 9.79,-8.58 L 40.1,37.82 c -7.16,4.28 -14.23,10.92 -18.48,18.64 -4.26,7.71 -5.7,16.48 -1.64,24.97 1.33,2.75 4,7.37 6.68,8.97 2.37,1.42 4.88,2.63 7.44,3.69 2.27,0.94 4.19,2.12 6.52,2.8 2.08,0.62 4.23,1.29 6.34,1.76 2.13,0.48 4.34,0.63 6.48,1.03 1.9,0.35 3.82,0.67 5.74,0.7 9.85,0.13 19.81,0.65 29.48,-1.69 5.88,-1.42 11.71,-3.19 17.24,-5.63 2.8,-1.22 5.53,-2.62 8.1,-4.26 2.09,-1.32 4.84,-2.62 5.93,-4.98 1.15,-2.49 0.17,-5.5 -0.44,-8.02 -0.11,-0.42 -0.26,-0.87 -0.38,-1.31 z"
             style="fill:#757f3f;stroke-width:0.35316059"
             id="path917"
             inkscape:connector-curvature="0" />
        </g>
        <g
           id="g939"
           style="stroke-width:0.35316059">
          <path
             d="m 29.95,98.37 c -0.98,-0.58 -2.38,-0.78 -4.28,-1.05 -2.5,-0.35 -5.22,-1.05 -7.72,-0.6 -2.15,0.39 -2.38,0.94 -3.08,2.93 -1.09,3.13 -4.26,12.51 -1.8,15.47 0.61,0.73 2.03,0.99 2.9,1.25 2.51,0.76 5.18,0.93 7.82,1.11 2.25,0.15 4.47,-0.26 6.62,-0.86 1.61,-0.45 2.32,-0.83 2.45,-2.61 0.29,-3.8 -0.56,-7.55 -0.9,-11.32 -0.24,-2.44 -0.84,-3.64 -2.01,-4.32 z"
             style="fill:#bdcf46;stroke-width:0.35316059"
             id="path921"
             inkscape:connector-curvature="0" />
          <g
             id="g927"
             style="stroke-width:0.35316059">
            <path
               d="m 116.78,87.1 c -0.93,0.62 -1.92,1.17 -2.79,1.72 -2.57,1.63 -5.3,3.03 -8.1,4.26 -5.53,2.44 -11.36,4.21 -17.24,5.63 -9.67,2.34 -19.63,1.82 -29.48,1.69 -1.93,-0.03 -3.85,-0.35 -5.74,-0.7 -0.53,-0.1 -1.05,-0.18 -1.58,-0.26 l 0.52,5.55 c 0,0 1.88,0.14 5.24,-0.07 -0.65,6.43 -0.86,13.37 0.78,14.69 0.74,0.6 2.31,0.71 3.27,0.87 2.82,0.47 5.74,0.4 8.64,0.35 2.47,-0.04 4.85,-0.58 7.13,-1.28 1.71,-0.52 2.45,-0.9 2.42,-2.47 -0.03,-2.01 -0.71,-8.47 -1.4,-14 6.34,-0.83 14.15,-2.4 21.21,-5.33 0.1,2.22 0.19,4.12 0.18,4.51 -0.06,1.53 -0.08,3.62 1.27,4.8 3.76,3.31 13.07,1.38 17.39,-0.06 3.22,-1.06 2.23,-4.81 1.59,-7 -0.37,-1.31 -1.86,-8.13 -3.31,-12.9 z"
               style="fill:#bdcf46;stroke-width:0.35316059"
               id="path923"
               inkscape:connector-curvature="0" />
            <path
               d="m 127.07,64.28 c -1.68,-1.58 -4.44,0.46 -5.98,1.28 -1.38,0.74 -2.75,1.47 -4.15,2.16 1.01,2.65 1.89,5.35 2.55,8.11 0.3,1.23 0.68,2.58 0.87,3.93 0.05,-0.06 0.1,-0.12 0.15,-0.17 0.51,-0.58 0.97,-1.17 1.42,-1.8 1.75,-2.48 3.08,-5.22 4.51,-7.88 0.69,-1.33 1.96,-4.37 0.63,-5.63 z"
               style="fill:#bdcf46;stroke-width:0.35316059"
               id="path925"
               inkscape:connector-curvature="0" />
          </g>
          <g
             id="g937"
             style="stroke-width:0.35316059">
            <path
               d="m 52.38,104.99 c -1.13,0.04 -2.27,0.03 -3.44,0.03 -8.33,0 -16.27,-0.22 -24.47,-2.08 C 12.02,100.13 2.32,92.68 0.63,79.36 -0.41,71.15 1.25,61.42 7.59,55.67 c 5.95,-5.4 16.65,-6.89 23.98,-4.4 8.54,2.92 14.76,9.94 18.31,18.04 2.73,6.24 4.58,11.84 5.73,18.57 0.17,1.03 2.06,16.6 -0.15,16.89 -1.02,0.12 -2.05,0.19 -3.08,0.22 z"
               style="fill:#bdcf46;stroke-width:0.35316059"
               id="path929"
               inkscape:connector-curvature="0" />
            <path
               d="m 30.25,63.47 c 2.46,-0.44 4.87,1.46 5.38,4.26 0.51,2.79 -1.07,5.43 -3.53,5.88 -2.45,0.44 -4.86,-1.46 -5.38,-4.25 -0.51,-2.8 1.07,-5.43 3.53,-5.89 z"
               style="fill:#2f2f2f;stroke-width:0.35316059"
               id="path931"
               inkscape:connector-curvature="0" />
            <path
               d="m 7.74,67.17 c 0.7,-2.75 3.25,-4.48 5.66,-3.86 2.42,0.62 3.81,3.36 3.11,6.11 -0.71,2.75 -3.24,4.48 -5.66,3.86 C 8.44,72.65 7.04,69.92 7.74,67.17 Z"
               style="fill:#2f2f2f;stroke-width:0.35316059"
               id="path933"
               inkscape:connector-curvature="0" />
            <path
               d="m 23.8,79.29 c -1.14,0.62 -2.12,1.28 -3.45,0.79 -0.77,-0.28 -1.5,-0.5 -2.17,-1 -0.48,-0.35 -1.02,-0.64 -1.5,-0.99 -0.25,-0.18 -0.49,-0.37 -0.74,-0.55 -0.28,-0.21 -0.38,-0.3 -0.74,-0.35 -0.29,-0.03 -0.86,-0.05 -1.08,0.19 -0.94,1.05 0.38,2.61 1.09,3.32 1.06,1.03 2.57,2.2 3.96,2.8 1.36,0.59 2.71,1.3 4.16,0.58 1.59,-0.8 2.97,-1.96 4.37,-3.03 0.92,-0.7 2.98,-1.93 2.62,-3.3 -0.25,-1 -1.41,-0.79 -2.17,-0.55 -0.96,0.29 -1.82,0.78 -2.71,1.23 -0.55,0.27 -1.09,0.57 -1.64,0.86 z"
               style="fill:#2f2f2f;stroke-width:0.35316059"
               id="path935"
               inkscape:connector-curvature="0" />
          </g>
        </g>
      </g>
    </g>
    <path
       style="fill:#644502;fill-opacity:1;stroke:none;stroke-width:1px;stroke-linecap:butt;stroke-linejoin:miter;stroke-opacity:1"
       d="m 139.90193,140.17018 c 7.88467,-6.12532 28.22306,24.70705 56.741,23.61944 4.6909,-21.44312 13.53447,-52.64672 32.57857,-53.75463 9.75608,-0.56759 21.53067,10.55843 33.12154,10.58804 11.47728,0.0294 21.49744,-12.00372 32.85006,-10.31655 20.5459,3.05337 31.22113,53.21165 31.22113,53.21165 29.7607,0.62306 44.19719,-30.40713 53.76828,-23.89094 38.57222,26.26072 -40.93376,77.64559 -111.85308,77.64559 -91.94852,0 -161.82099,-51.16053 -128.4275,-77.1026 z"
       id="path945"
       inkscape:connector-curvature="0"
       sodipodi:nodetypes="scsascsss" />
    <path
       style="fill:#805d0b;fill-opacity:1;stroke:none;stroke-width:1px;stroke-linecap:butt;stroke-linejoin:miter;stroke-opacity:1"
       d="m 212.76964,162.6482 -2.87957,11.13433 c 33.8509,23.80153 74.99669,18.82453 101.55269,-0.38396 l -1.3438,-10.75037 c -30.3286,14.97171 -63.49208,22.65479 -97.32932,0 z"
       id="path947"
       inkscape:connector-curvature="0"
       sodipodi:nodetypes="ccccc" />
    <path
       style="fill:#805d0b;fill-opacity:1;stroke:none;stroke-width:1px;stroke-linecap:butt;stroke-linejoin:miter;stroke-opacity:1"
       d="m 215.84118,149.97812 c 0,0 10.3101,-21.52265 20.5409,-24.57231 8.01186,-2.38823 15.63813,7.11258 23.99638,7.2949 9.51166,0.20755 18.66593,-10.25126 27.64383,-7.10292 9.74616,3.41774 18.6212,24.76426 18.6212,24.76426 -33.23908,11.75856 -64.20284,14.41591 -90.80231,-0.38393 z"
       id="path949"
       inkscape:connector-curvature="0"
       sodipodi:nodetypes="caaacc" />
  </g>
</svg>
