<?xml version="1.0" encoding="UTF-8" standalone="no"?>
<!-- Generator: Adobe Illustrator 24.1.2, SVG Export Plug-In . SVG Version: 6.00 Build 0)  -->

<svg
   version="1.1"
   id="Layer_2"
   x="0px"
   y="0px"
   viewBox="0 0 512 512"
   xml:space="preserve"
   sodipodi:docname="bootlegk.svg"
   inkscape:version="1.1.1 (3bf5ae0d25, 2021-09-20, custom)"
   width="512"
   height="512"
   xmlns:inkscape="http://www.inkscape.org/namespaces/inkscape"
   xmlns:sodipodi="http://sodipodi.sourceforge.net/DTD/sodipodi-0.dtd"
   xmlns="http://www.w3.org/2000/svg"
   xmlns:svg="http://www.w3.org/2000/svg"><defs
   id="defs17">
	
		<radialGradient
   id="face_1_"
   cx="63.59"
   cy="2893.0901"
   r="50.658699"
   gradientTransform="translate(0,-2818)"
   gradientUnits="userSpaceOnUse">
		<stop
   offset="0.5"
   style="stop-color:#FDE030"
   id="stop834" />
		<stop
   offset="0.92"
   style="stop-color:#F7C02B"
   id="stop836" />
		<stop
   offset="1"
   style="stop-color:#F4A223"
   id="stop838" />
	</radialGradient>
	
	

	

		
	
			
			
			
			
			
		</defs><sodipodi:namedview
   id="namedview15"
   pagecolor="#ffffff"
   bordercolor="#666666"
   borderopacity="1.0"
   inkscape:pageshadow="2"
   inkscape:pageopacity="0.0"
   inkscape:pagecheckerboard="0"
   showgrid="false"
   inkscape:zoom="0.14311316"
   inkscape:cx="209.62433"
   inkscape:cy="230.58676"
   inkscape:window-width="946"
   inkscape:window-height="1064"
   inkscape:window-x="962"
   inkscape:window-y="4"
   inkscape:window-maximized="1"
   inkscape:current-layer="Layer_2" />
<path
   d="m -57.666388,-45.942925 c 0,0 -5.218806,0.134614 -12.648167,-2.791472 -7.429362,-2.926086 -10.613377,-6.943255 -15.68346,-8.686154 -5.070084,-1.742899 -9.76836,-1.629539 -12.147919,4.038424 -2.379556,5.667964 -0.169003,12.157782 0.824733,14.998848 0.993737,2.841067 6.219302,8.310652 12.438604,11.208398 0,0 14.182715,3.840045 27.209448,4.406842 v -23.174886 z"
   style="fill:#a1887f;stroke-width:0.692062"
   id="path2828" /><path
   d="m -95.374289,-35.981479 c -0.0676,-0.0921 -0.141962,-0.184209 -0.216323,-0.283398 -4.096628,-5.398736 -3.724821,-13.461413 -2.879808,-16.281225 0.59489,-1.990872 3.224573,-5.625454 9.545277,-4.498946 6.320703,1.126507 10.397053,4.973638 18.306383,8.190207 7.909329,3.216569 12.952372,2.692283 12.952372,2.692283 v -1.126508 c -2.866287,0 -7.983691,0.05668 -12.695488,-2.090062 -4.711797,-2.146741 -12.492687,-10.414883 -18.022458,-11.923978 -5.529771,-1.50201 -10.032005,1.55869 -11.465148,6.227675 -0.770648,2.493904 -1.852268,11.456371 2.839246,18.54841 0.479968,0.722666 0.899095,1.303632 1.257381,1.764154 z"
   style="fill:#bcaaa4;stroke-width:0.692062"
   id="path2848" /><path
   d="m -57.666388,-45.942925 c 0,0 5.218805,0.134614 12.648167,-2.791472 7.429361,-2.926086 10.545772,-6.93617 15.615854,-8.679069 5.070077,-1.742899 9.835967,-1.636624 12.215517,4.031339 2.37956,5.667964 0.169,12.164867 -0.82474,15.005933 -0.99373,2.841067 -6.21929,8.310652 -12.438593,11.208398 0,0 -14.182712,3.840045 -27.209445,4.406842 v -23.181971 z"
   style="fill:#a1887f;stroke-width:0.692062"
   id="path2826" /><path
   d="m -15.4833,-55.075431 c -1.43314,-4.6619 -5.94214,-7.729685 -11.46514,-6.227675 -5.529775,1.502011 -13.310664,9.777237 -18.022461,11.923978 -4.711797,2.146741 -9.8292,2.090062 -12.695487,2.090062 v 1.126508 c 0,0 5.151204,0.410927 13.060534,-2.805642 7.909329,-3.21657 11.769352,-6.829896 18.083304,-7.956404 6.32069,-1.126508 9.05854,2.38763 9.65342,4.378502 0.84502,2.819812 1.05459,10.747875 -2.8798,16.281225 -0.0743,0.106274 -0.14196,0.198378 -0.20956,0.290483 l 0.33124,1.261122 c 0.41236,-0.510117 0.7977,-1.069828 1.29794,-1.820834 4.70504,-7.084954 3.61666,-16.047421 2.84601,-18.541325 z"
   style="fill:#bcaaa4;stroke-width:0.692062"
   id="path2846" /><g
   id="g2453"
   transform="matrix(1,0,0,0.69803575,-206.47517,10.949653)"><path
     style="fill:#4a251a;stroke-width:0.767639"
     d="m 44.388377,28.212531 c -15.621456,-6.194848 -26.29164,-15.291372 -26.29164,-8.19071 0,14.139913 13.076932,30.508072 19.041488,39.19007 0.534252,-4.036008 6.125557,-8.264504 7.619402,-11.511171 3.035117,-6.596415 -6.058947,-16.015726 -0.36925,-19.488189 z"
     id="path845"
     sodipodi:nodetypes="cscsc" /><path
     style="fill:#4a251a;stroke-width:0.767639"
     d="m 101.0015,53.571734 c 6.27161,-8.735733 15.35304,-18.995475 15.35304,-33.549913 0,-7.446099 -10.87744,2.018891 -26.744543,8.298179 1.711836,1.067018 3.331554,2.264535 4.85148,3.592551 2.719139,2.413157 -3.319539,9.131332 -1.507752,12.185091 2.59723,4.377593 7.405665,4.025157 8.047775,9.474092 z"
     id="path847"
     sodipodi:nodetypes="csccsc" /></g>




<path
   d="m -35.141699,-54.005603 c 0,0 7.564562,-3.755026 10.099599,-0.949384 1.50751,1.672049 1.26414,5.306631 -3.711287,9.656793 z"
   style="fill:#8d6e63;stroke-width:0.692062"
   id="path2832" /><path
   d="m -80.076158,-54.005603 c 0,0 -7.564564,-3.755026 -10.099606,-0.949384 -1.507505,1.672049 -1.26414,5.306631 3.711301,9.656793 z"
   style="fill:#8d6e63;stroke-width:0.692062"
   id="path2830" /><g
   id="g3183"
   transform="matrix(3.1871077,0,0,3.1871077,50.992257,46.543705)"><path
     style="fill:#bdcf47"
     d="m 112.7,59.21 c 0,0 3.94,-2.21 4.93,-2.77 0.99,-0.56 4.6,-2.82 5.91,-0.84 0.77,1.16 -0.7,4.44 -3.05,7.86 -2.14,3.13 -7.12,9.56 -7.4,10.83 -0.28,1.27 1.11,6.36 1.53,8.33 0.42,1.97 1.74,6.71 1.17,8.54 -0.57,1.83 -3.43,6.85 -10.75,6.76 -5.82,-0.07 -7.51,-1.78 -7.7,-2.82 -0.14,-0.75 -0.56,-3.24 -0.56,-3.24 0,0 -4.79,2.96 -7.04,4.08 -2.25,1.12 -8.31,4.22 -8.31,4.22 0,0 1.17,5.35 1.36,7.51 0.19,2.16 0.86,5.25 -0.28,7.32 -1.03,1.88 -4.25,5.02 -11.83,4.97 -5.92,-0.04 -7.41,-1.88 -8.35,-3 -0.94,-1.13 -1.13,-6.48 -1.13,-7.6 0,-1.12 -0.19,-5.07 -0.19,-5.07 0,0 -8.02,-0.4 -12.86,-0.75 -4.38,-0.32 -10.16,-0.99 -10.16,-0.99 0,0 0.21,2.33 0.42,4.01 0.19,1.5 0.23,4.64 -1.34,6.17 -2.11,2.06 -7.56,2.21 -10.56,1.92 -3,-0.28 -7.18,-1.83 -8.4,-4.55 -1.22,-2.72 0.38,-6.29 1.03,-8.35 0.58,-1.81 1.6,-4.41 1.22,-5.16 -0.38,-0.75 -4.04,-1.69 -9.29,-6.95 -5.26,-5.26 -12.13,-23.52 3.28,-36.23 15.49,-12.76 43.81,1.1 45.31,2.04 1.54,0.96 53.04,3.76 53.04,3.76 z"
     id="path2" /><path
     style="fill:#6e823a"
     d="M 66.25,25.28 C 52.32,25.9 41.87,32.8 36.68,40.34 c -3.1,4.5 -4.65,7.74 -4.65,7.74 0,0 4.81,0.14 9.15,2.46 5,2.67 10.8,5.56 14.61,18.13 2.87,9.5 3.98,18.53 11.44,20.52 8.45,2.25 28.16,1.13 37.59,-8.02 9.43,-9.15 11.26,-16.05 8.87,-25.06 C 111.3,47.1 100.52,31.06 85.53,26.83 79.06,25 72.58,25 66.25,25.28 Z"
     id="path4" /><path
     style="fill:#484e23"
     d="m 111.93,51.32 c -0.42,-0.99 -1.3,-2.5 -1.3,-2.5 0,0 -0.07,2.05 -0.25,3.13 -0.28,1.76 -1.25,5.42 -1.81,4.88 -1,-0.97 -5.73,-6.92 -7.98,-10.23 -1.71,-2.52 -7.6,-9.11 -7.74,-11.26 -0.07,-1.06 1.27,-4.65 1.27,-4.65 0,0 -1.22,-0.7 -2.35,-1.34 -0.88,-0.49 -2.16,-1.03 -2.16,-1.03 0,0 -0.77,4.9 -1.62,5.82 -0.75,0.81 -5.32,2.6 -8.87,3.94 -4.29,1.62 -8.45,3.73 -10,4.01 -1.36,0.25 -9.09,-1.41 -12,-1.97 -3.66,-0.7 -9.18,-2.26 -10.45,-3.17 -1.48,-1.06 -3.07,-3.78 -3.07,-3.78 0,0 -0.89,0.61 -1.78,1.31 -0.88,0.69 -2.02,2.06 -2.02,2.06 0,0 2.31,2.32 2.44,3.18 0.18,1.2 -1.27,2.83 -2.46,4.38 -0.72,0.93 -2.75,4.85 -2.75,4.85 0,0 0.97,0.09 2.15,0.63 1.23,0.57 2.38,1.16 2.38,1.16 0,0 2.97,-6.9 4.9,-7.53 1.65,-0.54 6.3,0.99 9.68,1.69 4.79,0.99 9.64,1.87 10.66,3.17 1.06,1.34 2.06,6.68 3.03,11.19 C 70.89,64.2 73.64,77.02 73,78 72.37,78.99 67.3,78.63 64.41,78.28 61.96,77.98 58,76.52 58,76.52 c 0,0 0.58,2.11 0.77,2.67 0.28,0.81 1.16,3.06 1.16,3.06 0,0 5.67,2.5 22.42,0.95 16.75,-1.55 25.03,-12.96 27.38,-18.02 3.14,-6.78 3.54,-10.39 3.54,-10.39 0,0 -0.92,-2.48 -1.34,-3.47 z M 96.65,73.21 C 92.41,75.88 81.45,78.7 79.47,77.64 77.89,76.79 75.53,63.7 74.4,57.86 73.68,54.12 71.95,48.44 72.99,46.67 c 0.7,-1.2 4.79,-2.99 7.81,-4.4 2.87,-1.33 6.97,-3.13 8.17,-2.99 1.7,0.2 5.35,6.12 9.01,11.19 3.66,5.07 7.67,10.35 7.74,12.18 0.09,1.84 -4.7,7.82 -9.07,10.56 z"
     id="path6" /><path
     style="fill:#2a2b28"
     d="m 41.18,65.86 c 0.5,2.83 -0.95,5.75 -4.07,6.02 -2.56,0.22 -4.59,-1.57 -5.09,-4.4 -0.5,-2.83 1.14,-5.49 3.68,-5.94 2.52,-0.45 4.98,1.48 5.48,4.32 z"
     id="path8" /><path
     style="fill:#2a2b28"
     d="m 22.82,66.11 c 0.07,2.84 -2.42,5.69 -5.5,5.11 -2.53,-0.48 -3.99,-2.73 -3.71,-5.55 0.29,-2.82 2.59,-4.9 5.15,-4.65 2.56,0.25 3.99,2.13 4.06,5.09 z"
     id="path10" /><path
     style="fill:#2a2b28"
     d="m 30.77,76.59 c 1.16,-0.79 3.1,-2.67 4.36,-1.06 1.27,1.62 -0.92,3.1 -2.18,4.01 -1.27,0.92 -4.08,3.17 -6.12,3.17 -1.9,0 -4.79,-2.32 -6.62,-3.87 -1.49,-1.26 -2.18,-2.89 -1.34,-3.87 0.84,-0.98 2.14,-0.62 3.24,0.35 1.27,1.13 3.72,3.38 4.72,3.38 0.98,0.01 2.39,-1.05 3.94,-2.11 z"
     id="path12" /></g>
<g
   id="g2449"
   transform="translate(-206.47517,5.7286298)"><path
     style="fill:#826156;stroke-width:0.767639"
     d="M 90.408342,17.25832 C 86.953966,9.8122208 80.966381,2.5964131 75.439379,2.673177 69.451794,2.749941 70.526489,5.28315 67.225641,5.28315 c -3.454376,0 -2.14939,-2.609973 -7.753155,-2.609973 -5.603766,0 -11.821643,6.985516 -15.506311,14.585143 7.61498,1.842334 15.429547,2.717443 23.259466,2.609973 10.516656,0 18.116283,-1.228222 23.182701,-2.609973 z"
     id="path849" /><path
     style="fill:#a1887f;stroke-width:0.767639"
     d="m 92.143207,21.710627 c -0.49129,-1.519925 -1.067019,-3.001469 -1.734865,-4.452307 -5.066418,1.381751 -12.666045,2.609973 -23.182701,2.609973 -7.829919,0.10747 -15.644486,-0.767639 -23.259466,-2.609973 -0.683198,1.458515 -1.274281,2.963087 -1.780922,4.490689 8.282826,1.374074 16.650092,2.126361 25.040388,2.264536 8.351913,-0.138175 16.680798,-0.905815 24.917566,-2.302918 z"
     id="path851" /><path
     style="fill:#7a5549;stroke-width:0.767639"
     d="M 92.143207,21.710627 C 83.906439,23.10773 75.577554,23.87537 67.225641,24.013545 58.835345,23.87537 50.468079,23.123083 42.185253,21.749009 30.056554,19.868293 20.399654,17.488612 20.399654,17.488612 c 0,0 13.280157,26.330022 46.825987,26.330022 33.545829,0 46.135109,-26.330022 46.135109,-26.330022 0,0 -9.34217,2.364329 -21.217543,4.222015 z"
     id="path853" /></g><path
   d="m -57.666388,-74.969983 c -2.778406,0 -3.05557,-2.338035 -6.043539,-2.338035 -3.65046,0 -14.486918,11.059614 -15.365732,12.837938 -0.703054,1.416991 -2.629686,6.333949 -2.873049,7.502966 -0.256885,1.232782 -1.926632,1.041489 -2.710805,0.481777 0,0 6.422107,5.384565 13.121377,7.892639 6.69927,2.500989 13.871748,2.748962 13.871748,2.748962 z"
   style="fill:#bcaaa4;stroke-width:0.692062"
   id="path2836" /><path
   d="m -57.666388,-74.969983 c 2.778405,0 3.055569,-2.338035 6.043538,-2.338035 3.650461,0 14.439598,11.087954 15.365732,12.837938 0.953176,1.799578 2.805446,6.333949 3.096131,7.630495 0.277165,1.232782 0.344766,1.622455 1.135699,1.055659 0,0 -5.070083,4.676069 -11.769353,7.184143 -6.699269,2.508074 -13.871747,2.756047 -13.871747,2.756047 z"
   style="fill:#bcaaa4;stroke-width:0.692062"
   id="path2838" /><path
   d="m -78.51457,-58.702928 c 0,0 8.145933,-1.806663 20.861702,-2.437224 l -0.01352,15.296416 c 0,0 -12.648167,0.205464 -25.107055,-9.125421 0,0 3.528781,1.246952 4.258873,-3.733771 z"
   style="fill:#bcaaa4;stroke-width:0.692062"
   id="path2842" /><path
   d="m -36.818207,-58.702928 c 0,0 -8.450139,-1.657879 -20.841421,-2.437224 l -0.0068,15.296416 c 0,0 12.492685,0.311738 24.951569,-9.026231 0,0.0071 -3.359775,1.055658 -4.103387,-3.832961 z"
   style="fill:#bcaaa4;stroke-width:0.692062"
   id="path2844" /><path
   d="m -65.765001,-74.55197 c 1.439903,-0.658902 3.724821,0.779345 3.846503,2.805642 0.121682,2.026297 -4.786159,7.014104 -12.526485,8.891617 -7.74033,1.877513 6.212542,-10.570752 8.679982,-11.697259 z"
   style="opacity:0.5;fill:#a1887f;stroke-width:0.692062"
   id="path2850" /><path
   d="m -49.648897,-74.55197 c -1.439903,-0.658902 -3.724821,0.779345 -3.846503,2.805642 -0.121682,2.026297 4.786159,7.014104 12.526485,8.891617 7.740327,1.877513 -6.205782,-10.570752 -8.679982,-11.697259 z"
   style="opacity:0.5;fill:#a1887f;stroke-width:0.692062"
   id="path2852" /><path
   d="m -72.809036,-50.711099 c 0,0 7.240079,4.350162 15.142648,4.350162 7.902569,0 13.939348,-3.648752 13.939348,-3.648752 0,0 -13.939348,4.548541 -29.081996,-0.70141 z"
   style="fill:#bcaaa4;stroke-width:0.692062"
   id="path2854" /><path
   d="m -78.203605,-54.480295 c 0,0 9.599357,-2.394714 21.253788,-2.111316 11.654431,0.283398 19.719244,2.111316 19.719244,2.111316 l 2.453919,-2.24593 c 0,0 -9.22079,-3.627497 -22.369205,-3.627497 -13.148416,0 -23.410267,3.641667 -23.410267,3.641667 z"
   style="fill:#a1887f;stroke-width:0.692062"
   id="path2856" /><path
   d="m -57.335143,-59.468103 c -0.493488,0 -4.252109,0.722666 -4.252109,1.161933 0,0.439267 3.7451,1.034403 4.252109,1.034403 0.507008,0 4.170989,-0.545541 4.170989,-0.921044 0,-0.375502 -3.866784,-1.275292 -4.170989,-1.275292 z"
   style="fill:#8d6e63;stroke-width:0.692062"
   id="path2858" /><path
   d="m -46.262082,-58.766692 c -0.432647,-0.04251 -3.772141,0.262143 -3.805942,0.644731 -0.03381,0.382587 3.190772,1.232782 3.630179,1.275291 0.439408,0.04251 3.684261,-0.113359 3.718061,-0.439267 0.0338,-0.325908 -3.271893,-1.452415 -3.542298,-1.480755 z"
   style="fill:#8d6e63;stroke-width:0.692062"
   id="path2860" /><path
   d="m -68.969293,-58.766692 c 0.432647,-0.04251 3.772141,0.262143 3.805942,0.644731 0.0338,0.382587 -3.190773,1.232782 -3.63018,1.275291 -0.439407,0.04251 -3.68426,-0.113359 -3.71806,-0.439267 -0.02704,-0.325908 3.271893,-1.452415 3.542298,-1.480755 z"
   style="fill:#8d6e63;stroke-width:0.692062"
   id="path2862" /><g
   id="g2868"
   transform="translate(2.249996,-22.4)" /><g
   id="g4397"
   transform="translate(313.23187,-64.864089)"><path
     style="fill:#644502;fill-opacity:1;stroke:none;stroke-width:1px;stroke-linecap:butt;stroke-linejoin:miter;stroke-opacity:1"
     d="m -164.47679,174.72157 c 7.88467,-6.12532 28.22306,24.70705 56.741,23.61944 4.6909,-21.44312 13.534466,-52.64672 32.578566,-53.75463 9.75608,-0.56759 21.53067,10.55843 33.12154,10.58804 11.47728,0.0294 21.49744,-12.00372 32.8500596,-10.31655 20.5459004,3.05337 31.2211304,53.21165 31.2211304,53.21165 29.7607,0.62306 44.19719,-30.40713 53.76828,-23.89094 38.572224,26.26072 -40.93376,77.64559 -111.85308,77.64559 -91.948516,0 -161.820986,-51.16053 -128.427496,-77.1026 z"
     id="path945"
     inkscape:connector-curvature="0"
     sodipodi:nodetypes="scsascsss"
     inkscape:export-xdpi="68.17437"
     inkscape:export-ydpi="68.17437" /><path
     style="fill:#805d0b;fill-opacity:1;stroke:none;stroke-width:1px;stroke-linecap:butt;stroke-linejoin:miter;stroke-opacity:1"
     d="m -91.609084,197.19959 -2.87957,11.13433 c 33.8509,23.80153 74.99669,18.82453 101.5526896,-0.38396 l -1.3438,-10.75037 c -30.3285996,14.97171 -63.4920796,22.65479 -97.3293196,0 z"
     id="path947"
     inkscape:connector-curvature="0"
     sodipodi:nodetypes="ccccc"
     inkscape:export-xdpi="68.17437"
     inkscape:export-ydpi="68.17437" /><path
     style="fill:#805d0b;fill-opacity:1;stroke:none;stroke-width:1px;stroke-linecap:butt;stroke-linejoin:miter;stroke-opacity:1"
     d="m -88.537544,184.52951 c 0,0 10.3101,-21.52265 20.5409,-24.57231 8.01186,-2.38823 15.63813,7.11258 23.99638,7.2949 9.51166,0.20755 18.66593,-10.25126 27.64383,-7.10292 9.7461596,3.41774 18.6211996,24.76426 18.6211996,24.76426 -33.2390796,11.75856 -64.2028396,14.41591 -90.8023096,-0.38393 z"
     id="path949"
     inkscape:connector-curvature="0"
     sodipodi:nodetypes="caaacc"
     inkscape:export-xdpi="68.17437"
     inkscape:export-ydpi="68.17437" /></g></svg>
