<?xml version="1.0" encoding="UTF-8" standalone="no"?>
<svg
   width="512"
   height="512"
   version="1.1"
   id="svg38"
   inkscape:version="1.1-rc (52f87ab, 2021-05-02)"
   inkscape:export-xdpi="262.19388"
   inkscape:export-ydpi="262.19388"
   sodipodi:docname="turtle-fez.svg"
   inkscape:export-filename="/home/d/opt/turtles/fez/turtle-fez.png"
   xmlns:inkscape="http://www.inkscape.org/namespaces/inkscape"
   xmlns:sodipodi="http://sodipodi.sourceforge.net/DTD/sodipodi-0.dtd"
   xmlns:xlink="http://www.w3.org/1999/xlink"
   xmlns="http://www.w3.org/2000/svg"
   xmlns:svg="http://www.w3.org/2000/svg"
   xmlns:rdf="http://www.w3.org/1999/02/22-rdf-syntax-ns#"
   xmlns:cc="http://creativecommons.org/ns#"
   xmlns:dc="http://purl.org/dc/elements/1.1/">
  <metadata
     id="metadata44">
    <rdf:RDF>
      <cc:Work
         rdf:about="">
        <dc:format>image/svg+xml</dc:format>
        <dc:type
           rdf:resource="http://purl.org/dc/dcmitype/StillImage" />
      </cc:Work>
    </rdf:RDF>
  </metadata>
  <defs
     id="defs42">
    <linearGradient
       inkscape:collect="always"
       id="linearGradient2471">
      <stop
         style="stop-color:#b8303d;stop-opacity:1;"
         offset="0"
         id="stop2467" />
      <stop
         style="stop-color:#b8303d;stop-opacity:1"
         offset="1"
         id="stop2469" />
    </linearGradient>
    <linearGradient
       inkscape:collect="always"
       xlink:href="#linearGradient2471"
       id="linearGradient2473"
       x1="883.12854"
       y1="504.23868"
       x2="476.4924"
       y2="675.77454"
       gradientUnits="userSpaceOnUse" />
  </defs>
  <sodipodi:namedview
     pagecolor="#ffffff"
     bordercolor="#666666"
     borderopacity="1"
     objecttolerance="10"
     gridtolerance="10"
     guidetolerance="10"
     inkscape:pageopacity="0"
     inkscape:pageshadow="2"
     inkscape:window-width="1920"
     inkscape:window-height="1080"
     id="namedview40"
     showgrid="false"
     inkscape:zoom="0.65186408"
     inkscape:cx="-174.88308"
     inkscape:cy="116.58872"
     inkscape:window-x="0"
     inkscape:window-y="0"
     inkscape:window-maximized="1"
     inkscape:current-layer="svg38"
     inkscape:pagecheckerboard="0" />
  <g
     id="g36"
     transform="matrix(2.8315731,0,0,2.8315731,66.871633,81.25246)"
     style="stroke-width:0.35316059">
    <path
       d="m 40.1,37.83 c 0,0 2.55,-1.48 3.98,-2.12 l 22.24,8.18 35.97,0.97 c 0,0 2.7,2.8 3.5,3.76 l 6.53,18.74 5.27,2.11 c 0,0 1.21,3.62 1.55,4.99 L 118.05,83.1 65.91,96.03 24.04,85.76 24.17,60.02 36.97,43.35 Z"
       style="fill:#2f2f2f;stroke-width:0.35316059"
       id="path2"
       inkscape:connector-curvature="0" />
    <g
       id="g34"
       style="stroke-width:0.35316059">
      <g
         id="g12"
         style="stroke-width:0.35316059">
        <path
           d="m 73.14,59.57 c -0.1,5.06 -0.38,19.6 -0.28,28.04 1.67,0.04 3.5,-0.05 5.52,-0.26 2.7,-0.27 5.52,-0.81 8.24,-1.33 l 1.73,-0.33 c 2.79,-0.53 5.37,-1.19 7.89,-2.02 3.89,-1.28 8.19,-2.93 12.07,-5.32 -2.85,-9.93 -7.96,-17.38 -9.6,-19.61 -11,-0.87 -21.54,0.29 -25.57,0.83 z"
           style="fill:#757f3f;stroke-width:0.35316059"
           id="path4"
           inkscape:connector-curvature="0" />
        <path
           d="m 102.38,56.52 c 1.95,2.67 6.63,9.73 9.61,19.22 2.18,-1.81 4.06,-3.97 5.5,-6.52 -1.34,-3.73 -2.96,-7.35 -4.9,-10.8 -1.95,-3.46 -4.22,-6.77 -6.79,-9.81 -0.95,3.11 -2.46,6.15 -3.42,7.91 z"
           style="fill:#757f3f;stroke-width:0.35316059"
           id="path6"
           inkscape:connector-curvature="0" />
        <path
           d="m 45.2,42.69 c 4.26,1.63 18.85,7.43 26.39,12.78 3.25,-0.48 14.69,-1.96 27.04,-1.02 1.6,-2.95 3.28,-6.91 3.65,-9.6 C 102.13,44.7 102,44.54 101.85,44.4 96.72,39.58 90.22,36.93 83.66,34.71 74.5,31.61 64.53,30.52 54.98,32.23 c -3.78,0.68 -7.43,1.85 -10.9,3.48 z"
           style="fill:#757f3f;stroke-width:0.35316059"
           id="path8"
           inkscape:connector-curvature="0" />
        <path
           d="m 119.11,74.49 c -1.99,2.55 -4.4,4.67 -6.98,6.43 -0.05,0.04 -0.11,0.07 -0.15,0.11 -4.74,3.2 -10.03,5.26 -14.4,6.69 -2.7,0.89 -5.45,1.6 -8.43,2.16 l -1.73,0.33 c -2.82,0.54 -5.72,1.1 -8.61,1.4 -1.7,0.17 -3.46,0.31 -5.23,0.31 -5.28,0 -10.58,-1.24 -14.45,-6.53 -1.56,-2.15 -3.3,-3.96 -5.15,-5.38 l -0.77,-0.6 c -1.17,-0.93 -3.36,-2.67 -4.49,-2.7 l 0.11,-4.27 c 2.56,0.07 5.15,2.12 7.04,3.62 l 0.7,0.55 c 2.17,1.66 4.2,3.76 6.01,6.25 1.63,2.23 3.62,3.5 6.01,4.17 -0.08,-9.02 0.21,-24.02 0.3,-28.24 -7.32,-5.13 -22.04,-10.92 -25.55,-12.26 -1.38,0.85 -4.94,3.81 -9.13,8.08 -0.42,0.43 -0.98,0.64 -1.53,0.64 -0.54,0 -1.08,-0.2 -1.49,-0.61 -0.84,-0.82 -0.86,-2.17 -0.03,-3.02 2.65,-2.69 6.85,-6.76 9.79,-8.58 L 40.1,37.82 c -7.16,4.28 -14.23,10.92 -18.48,18.64 -4.26,7.71 -5.7,16.48 -1.64,24.97 1.33,2.75 4,7.37 6.68,8.97 2.37,1.42 4.88,2.63 7.44,3.69 2.27,0.94 4.19,2.12 6.52,2.8 2.08,0.62 4.23,1.29 6.34,1.76 2.13,0.48 4.34,0.63 6.48,1.03 1.9,0.35 3.82,0.67 5.74,0.7 9.85,0.13 19.81,0.65 29.48,-1.69 5.88,-1.42 11.71,-3.19 17.24,-5.63 2.8,-1.22 5.53,-2.62 8.1,-4.26 2.09,-1.32 4.84,-2.62 5.93,-4.98 1.15,-2.49 0.17,-5.5 -0.44,-8.02 -0.11,-0.42 -0.26,-0.87 -0.38,-1.31 z"
           style="fill:#757f3f;stroke-width:0.35316059"
           id="path10"
           inkscape:connector-curvature="0" />
      </g>
      <g
         id="g32"
         style="stroke-width:0.35316059">
        <path
           d="m 29.95,98.37 c -0.98,-0.58 -2.38,-0.78 -4.28,-1.05 -2.5,-0.35 -5.22,-1.05 -7.72,-0.6 -2.15,0.39 -2.38,0.94 -3.08,2.93 -1.09,3.13 -4.26,12.51 -1.8,15.47 0.61,0.73 2.03,0.99 2.9,1.25 2.51,0.76 5.18,0.93 7.82,1.11 2.25,0.15 4.47,-0.26 6.62,-0.86 1.61,-0.45 2.32,-0.83 2.45,-2.61 0.29,-3.8 -0.56,-7.55 -0.9,-11.32 -0.24,-2.44 -0.84,-3.64 -2.01,-4.32 z"
           style="fill:#bdcf46;stroke-width:0.35316059"
           id="path14"
           inkscape:connector-curvature="0" />
        <g
           id="g20"
           style="stroke-width:0.35316059">
          <path
             d="m 116.78,87.1 c -0.93,0.62 -1.92,1.17 -2.79,1.72 -2.57,1.63 -5.3,3.03 -8.1,4.26 -5.53,2.44 -11.36,4.21 -17.24,5.63 -9.67,2.34 -19.63,1.82 -29.48,1.69 -1.93,-0.03 -3.85,-0.35 -5.74,-0.7 -0.53,-0.1 -1.05,-0.18 -1.58,-0.26 l 0.52,5.55 c 0,0 1.88,0.14 5.24,-0.07 -0.65,6.43 -0.86,13.37 0.78,14.69 0.74,0.6 2.31,0.71 3.27,0.87 2.82,0.47 5.74,0.4 8.64,0.35 2.47,-0.04 4.85,-0.58 7.13,-1.28 1.71,-0.52 2.45,-0.9 2.42,-2.47 -0.03,-2.01 -0.71,-8.47 -1.4,-14 6.34,-0.83 14.15,-2.4 21.21,-5.33 0.1,2.22 0.19,4.12 0.18,4.51 -0.06,1.53 -0.08,3.62 1.27,4.8 3.76,3.31 13.07,1.38 17.39,-0.06 3.22,-1.06 2.23,-4.81 1.59,-7 -0.37,-1.31 -1.86,-8.13 -3.31,-12.9 z"
             style="fill:#bdcf46;stroke-width:0.35316059"
             id="path16"
             inkscape:connector-curvature="0" />
          <path
             d="m 127.07,64.28 c -1.68,-1.58 -4.44,0.46 -5.98,1.28 -1.38,0.74 -2.75,1.47 -4.15,2.16 1.01,2.65 1.89,5.35 2.55,8.11 0.3,1.23 0.68,2.58 0.87,3.93 0.05,-0.06 0.1,-0.12 0.15,-0.17 0.51,-0.58 0.97,-1.17 1.42,-1.8 1.75,-2.48 3.08,-5.22 4.51,-7.88 0.69,-1.33 1.96,-4.37 0.63,-5.63 z"
             style="fill:#bdcf46;stroke-width:0.35316059"
             id="path18"
             inkscape:connector-curvature="0" />
        </g>
        <g
           id="g30"
           style="stroke-width:0.35316059">
          <path
             d="m 52.38,104.99 c -1.13,0.04 -2.27,0.03 -3.44,0.03 -8.33,0 -16.27,-0.22 -24.47,-2.08 C 12.02,100.13 2.32,92.68 0.63,79.36 -0.41,71.15 1.25,61.42 7.59,55.67 c 5.95,-5.4 16.65,-6.89 23.98,-4.4 8.54,2.92 14.76,9.94 18.31,18.04 2.73,6.24 4.58,11.84 5.73,18.57 0.17,1.03 2.06,16.6 -0.15,16.89 -1.02,0.12 -2.05,0.19 -3.08,0.22 z"
             style="fill:#bdcf46;stroke-width:0.35316059"
             id="path22"
             inkscape:connector-curvature="0" />
          <path
             d="m 30.25,63.47 c 2.46,-0.44 4.87,1.46 5.38,4.26 0.51,2.79 -1.07,5.43 -3.53,5.88 -2.45,0.44 -4.86,-1.46 -5.38,-4.25 -0.51,-2.8 1.07,-5.43 3.53,-5.89 z"
             style="fill:#2f2f2f;stroke-width:0.35316059"
             id="path24"
             inkscape:connector-curvature="0" />
          <path
             d="m 7.74,67.17 c 0.7,-2.75 3.25,-4.48 5.66,-3.86 2.42,0.62 3.81,3.36 3.11,6.11 -0.71,2.75 -3.24,4.48 -5.66,3.86 C 8.44,72.65 7.04,69.92 7.74,67.17 Z"
             style="fill:#2f2f2f;stroke-width:0.35316059"
             id="path26"
             inkscape:connector-curvature="0" />
          <path
             d="m 23.8,79.29 c -1.14,0.62 -2.12,1.28 -3.45,0.79 -0.77,-0.28 -1.5,-0.5 -2.17,-1 -0.48,-0.35 -1.02,-0.64 -1.5,-0.99 -0.25,-0.18 -0.49,-0.37 -0.74,-0.55 -0.28,-0.21 -0.38,-0.3 -0.74,-0.35 -0.29,-0.03 -0.86,-0.05 -1.08,0.19 -0.94,1.05 0.38,2.61 1.09,3.32 1.06,1.03 2.57,2.2 3.96,2.8 1.36,0.59 2.71,1.3 4.16,0.58 1.59,-0.8 2.97,-1.96 4.37,-3.03 0.92,-0.7 2.98,-1.93 2.62,-3.3 -0.25,-1 -1.41,-0.79 -2.17,-0.55 -0.96,0.29 -1.82,0.78 -2.71,1.23 -0.55,0.27 -1.09,0.57 -1.64,0.86 z"
             style="fill:#2f2f2f;stroke-width:0.35316059"
             id="path28"
             inkscape:connector-curvature="0" />
        </g>
      </g>
    </g>
  </g>
  <g
     id="g875"
     transform="matrix(-0.22122766,0.04912747,0.04912747,0.22122766,401.03107,-25.972409)">
    <path
       style="color:#000000;fill:url(#linearGradient2473)"
       d="M 1148.633,748.893 1122.274,692.985 935.637,297.153 892.534,205.738 C 907.026,251.033 783.373,331.074 616.346,384.515 449.32,437.956 302.172,444.559 287.68,399.264 l 146.409,578.25 c 17.119,53.509 219.25,68.428 406.221,6.001 179.41,-59.902 325.443,-181.112 308.323,-234.622 z"
       id="path867" />
    <g
       id="g1606">
      <path
         style="color:#000000;fill:#6e3349;stroke-width:1"
         d="m 96.259663,578.7634 c 1.50478,0.14008 3.0158,0.32515 4.535607,0.54882 l -0.061,0.0892 29.77675,19.02763 0.061,-0.0892 c -4.38803,28.69337 -5.18724,68.2396 -30.991717,92.50092 -29.321116,33.91171 -71.310944,60.74321 -116.53192,63.93406 -22.075365,-27.10259 3.25431,-71.45905 11.5062147,-102.6826 C 10.469281,609.55676 49.616405,574.38093 96.259673,578.76327 Z"
         id="path6459" />
      <path
         style="color:#000000;fill:#6e3349;stroke-width:0.226617"
         d="m 340.04297,48.033203 c -22.12439,-0.01063 -43.5377,9.406556 -61.45313,21.921875 -8.79695,4.328273 5.36292,6.031225 8.65235,3.041016 7.56457,-4.695713 15.50676,-8.819516 23.82617,-12.009766 15.42832,-5.800888 36.55891,-12.933852 49.0957,-0.816406 18.63634,18.01296 42.59337,57.153078 44.68555,55.923828 l -0.0117,-0.0215 7.14258,-3.60157 C 399.51918,100.88261 398.33061,96.969617 385.99414,82.320312 369.04064,62.188378 365.29626,50.020947 346.92969,48.345703 c -2.30085,-0.209864 -4.59799,-0.311401 -6.88672,-0.3125 z"
         transform="matrix(-4.3077959,0.9566214,0.9566214,4.3077959,1752.4058,-271.75107)"
         id="path873" />
    </g>
    <path
       style="color:#000000;fill:#d34d45"
       d="m 635.297,303.15 c 5.129,2.334 -1.758,6.727 -9.523,10.163 91.355,-7.159 190.991,-57.161 262.537,-115.422 -28.656,-36.442 -167.807,-27.519 -324.447,22.598 -33.485,10.713 -65.167,22.508 -94.392,34.867 52.094,6.445 108.572,21.735 165.825,47.794 z m -18.951,81.367 c 167.027,-53.441 290.68,-133.482 276.188,-178.777 -0.901,-2.817 -2.321,-5.432 -4.222,-7.849 -71.546,58.261 -171.182,108.263 -262.537,115.422 -4.316,1.91 -8.902,3.529 -11.852,4.322 -9.717,2.615 -20.803,2.748 -29.068,-0.156 -63.732,-22.364 -123.672,-33.615 -176.035,-33.875 -81.46,41.999 -130.572,86.185 -121.139,115.662 14.49,45.295 161.639,38.692 328.665,-14.749 z"
       id="path871" />
    <path
       style="color:#000000;fill:#d65a52;stroke-width:0.226617"
       d="m 260.71484,49.453125 c -24.65253,0.380393 -43.06857,4.891809 -46.48046,11.994141 -0.30182,0.628098 -0.4879,1.275897 -0.54883,1.943359 -0.79561,8.705999 5.68743,18.882112 34.5586,24.013722 15.15573,-10.272737 30.26319,-20.584879 37.94726,-36.957081 -8.93703,-0.785015 -17.53989,-1.116605 -25.47657,-0.994141 z"
       id="path4012"
       transform="matrix(-4.3077959,0.9566214,0.9566214,4.3077959,1752.4058,-271.75107)" />
    <path
       style="color:#000000;fill:#cb3442;stroke-width:0.226617"
       d="m 213.68555,63.390625 -5.04493,22.341797 -21.84374,96.736328 -3.08399,13.66406 c -0.92419,10.11365 23.35688,24.53626 54.80859,32.25977 15.72725,-44.66975 34.74184,-87.33488 37.49219,-139.917971 -35.8705,-4.326068 -63.24463,-15.05503 -62.32812,-25.083984 z"
       id="path3035"
       transform="matrix(-4.3077959,0.9566214,0.9566214,4.3077959,1752.4058,-271.75107)" />
  </g>
</svg>
