<?xml version="1.0" encoding="UTF-8" standalone="no"?>
<svg
   xmlns:dc="http://purl.org/dc/elements/1.1/"
   xmlns:cc="http://creativecommons.org/ns#"
   xmlns:rdf="http://www.w3.org/1999/02/22-rdf-syntax-ns#"
   xmlns:svg="http://www.w3.org/2000/svg"
   xmlns="http://www.w3.org/2000/svg"
   xmlns:sodipodi="http://sodipodi.sourceforge.net/DTD/sodipodi-0.dtd"
   xmlns:inkscape="http://www.inkscape.org/namespaces/inkscape"
   width="128"
   height="128"
   style="enable-background:new 0 0 128 128;"
   version="1.1"
   id="svg4565"
   sodipodi:docname="santa-gklaus.svg"
   inkscape:version="0.92.5 (2060ec1f9f, 2020-04-08)"
   inkscape:export-filename="/home/mirror/opt/turtles/santa-gklaus/santa-gklaus.png"
   inkscape:export-xdpi="768"
   inkscape:export-ydpi="768">
  <metadata
     id="metadata4571">
    <rdf:RDF>
      <cc:Work
         rdf:about="">
        <dc:format>image/svg+xml</dc:format>
        <dc:type
           rdf:resource="http://purl.org/dc/dcmitype/StillImage" />
        <dc:title></dc:title>
      </cc:Work>
    </rdf:RDF>
  </metadata>
  <defs
     id="defs4569">
    <filter
       inkscape:collect="always"
       style="color-interpolation-filters:sRGB"
       id="filter1767"
       x="-0.12099421"
       width="1.2419884"
       y="-0.119022"
       height="1.238044">
      <feGaussianBlur
         inkscape:collect="always"
         stdDeviation="1.8834039"
         id="feGaussianBlur1769" />
    </filter>
  </defs>
  <sodipodi:namedview
     pagecolor="#ffffff"
     bordercolor="#666666"
     borderopacity="1"
     objecttolerance="3"
     gridtolerance="3"
     guidetolerance="3"
     inkscape:pageopacity="0"
     inkscape:pageshadow="2"
     inkscape:window-width="1920"
     inkscape:window-height="1080"
     id="namedview4567"
     showgrid="false"
     inkscape:zoom="1.4142136"
     inkscape:cx="22.44333"
     inkscape:cy="195.34255"
     inkscape:window-x="1440"
     inkscape:window-y="0"
     inkscape:window-maximized="0"
     inkscape:current-layer="svg4565" />
  <g
     id="g1605"
     style="fill:#000000;fill-opacity:1;opacity:0.30000001;filter:url(#filter1767)">
    <path
       style="fill:#000000;fill-opacity:1;stroke:none;stroke-width:0.22943181;stroke-miterlimit:4;stroke-dasharray:none;stroke-opacity:1"
       d="m 31.451578,73.839852 c -2.170812,-0.01697 -4.167028,1.338566 -4.934066,3.167705 -0.77324,-1.845078 -2.798566,-3.20535 -4.991559,-3.164678 -1.20128,0.02233 -2.452866,0.464065 -3.577824,1.478666 -0.911892,0.822233 -1.419752,1.90872 -1.940015,3.005763 -1.192536,1.545123 -2.787925,2.698859 -5.100648,3.152571 0.556516,0.437911 1.163357,0.665435 1.801442,0.759765 -1.128297,0.537803 -2.670173,0.834487 -4.8721497,0.74009 1.6320238,1.808734 4.1851187,2.424657 6.8593387,2.37313 4.827064,-0.160764 7.270337,-2.289687 8.700585,-4.457187 l 1.289904,0.63566 c 0.95784,0.47202 2.198418,0.494356 3.200435,0 l 1.288429,-0.63566 c 1.566356,2.373813 5.289835,4.736 10.995876,4.882474 1.199294,-0.02061 2.377765,-0.249604 3.624998,-0.777927 -1.178463,0.0081 -2.184677,-0.07417 -3.063337,-0.236102 1.855585,-0.352857 3.464654,-1.154455 4.46233,-2.609233 -8.15217,1.460618 -7.182107,-4.191865 -10.11137,-6.833344 -1.142449,-1.030127 -2.414633,-1.472212 -3.632369,-1.481693 z"
       id="path1601"
       inkscape:connector-curvature="0"
       sodipodi:nodetypes="ccccccccccssccccccc" />
    <path
       style="fill:#000000;fill-opacity:1;stroke:none;stroke-width:0.30000001;stroke-miterlimit:4;stroke-dasharray:none;stroke-opacity:1"
       d="m 23.726801,81.393472 c -2.23171,2.992364 -6.229282,5.845915 -13.021484,6.0625 -2.11e-4,0.02128 0,0.04318 0,0.06445 0,0.537901 0.137503,1.187238 0.386719,1.921875 l -0.02539,-0.04102 3.107422,10.18555 0.486328,-3.42579 c 1.800652,2.78925 3.968304,5.745113 5.955078,8.332043 l 0.171875,-4.08985 c 0.614086,3.41465 2.177066,6.51037 4.113281,9.48438 0.983485,1.19753 1.607422,1.92968 1.607422,1.92968 0,0 0.732376,-0.85868 1.882813,-2.26562 0.0074,-0.009 0.01628,-0.0185 0.02344,-0.0273 2.186694,-2.90965 4.007731,-5.96392 4.890625,-9.39063 l -0.111328,3.32031 c 0.984012,-1.30029 1.992313,-2.66856 2.964844,-4.048823 v 2.525393 l 4.269531,-9.232425 c 1.040365,-1.91373 1.738875,-3.596628 1.859375,-4.818363 -6.563497,-0.665597 -11.207146,-3.406303 -13.566406,-6.486328 -1.671164,-0.447787 -3.246284,-0.46837 -4.994145,-3.2e-5 z"
       id="path1603"
       inkscape:connector-curvature="0"
       sodipodi:nodetypes="ccscccccccccccccccccc" />
  </g>
  <g
     id="g4563"
     transform="matrix(0.7784667,0,0,0.7784667,9.2272993,16.280963)">
    <path
       d="m 40.1,37.83 c 0,0 2.55,-1.48 3.98,-2.12 l 22.24,8.18 35.97,0.97 c 0,0 2.7,2.8 3.5,3.76 l 6.53,18.74 5.27,2.11 c 0,0 1.21,3.62 1.55,4.99 L 118.05,83.1 65.91,96.03 24.04,85.76 24.17,60.02 36.97,43.35 Z"
       style="fill:#2f2f2f"
       id="path4529"
       inkscape:connector-curvature="0" />
    <g
       id="g4561">
      <g
         id="g4539">
        <path
           d="m 73.14,59.57 c -0.1,5.06 -0.38,19.6 -0.28,28.04 1.67,0.04 3.5,-0.05 5.52,-0.26 2.7,-0.27 5.52,-0.81 8.24,-1.33 l 1.73,-0.33 c 2.79,-0.53 5.37,-1.19 7.89,-2.02 3.89,-1.28 8.19,-2.93 12.07,-5.32 -2.85,-9.93 -7.96,-17.38 -9.6,-19.61 -11,-0.87 -21.54,0.29 -25.57,0.83 z"
           style="fill:#757f3f"
           id="path4531"
           inkscape:connector-curvature="0" />
        <path
           d="m 102.38,56.52 c 1.95,2.67 6.63,9.73 9.61,19.22 2.18,-1.81 4.06,-3.97 5.5,-6.52 -1.34,-3.73 -2.96,-7.35 -4.9,-10.8 -1.95,-3.46 -4.22,-6.77 -6.79,-9.81 -0.95,3.11 -2.46,6.15 -3.42,7.91 z"
           style="fill:#757f3f"
           id="path4533"
           inkscape:connector-curvature="0" />
        <path
           d="m 45.2,42.69 c 4.26,1.63 18.85,7.43 26.39,12.78 3.25,-0.48 14.69,-1.96 27.04,-1.02 1.6,-2.95 3.28,-6.91 3.65,-9.6 C 102.13,44.7 102,44.54 101.85,44.4 96.72,39.58 90.22,36.93 83.66,34.71 74.5,31.61 64.53,30.52 54.98,32.23 c -3.78,0.68 -7.43,1.85 -10.9,3.48 z"
           style="fill:#757f3f"
           id="path4535"
           inkscape:connector-curvature="0" />
        <path
           d="m 119.11,74.49 c -1.99,2.55 -4.4,4.67 -6.98,6.43 -0.05,0.04 -0.11,0.07 -0.15,0.11 -4.74,3.2 -10.03,5.26 -14.4,6.69 -2.7,0.89 -5.45,1.6 -8.43,2.16 l -1.73,0.33 c -2.82,0.54 -5.72,1.1 -8.61,1.4 -1.7,0.17 -3.46,0.31 -5.23,0.31 -5.28,0 -10.58,-1.24 -14.45,-6.53 -1.56,-2.15 -3.3,-3.96 -5.15,-5.38 l -0.77,-0.6 c -1.17,-0.93 -3.36,-2.67 -4.49,-2.7 l 0.11,-4.27 c 2.56,0.07 5.15,2.12 7.04,3.62 l 0.7,0.55 c 2.17,1.66 4.2,3.76 6.01,6.25 1.63,2.23 3.62,3.5 6.01,4.17 -0.08,-9.02 0.21,-24.02 0.3,-28.24 -7.32,-5.13 -22.04,-10.92 -25.55,-12.26 -1.38,0.85 -4.94,3.81 -9.13,8.08 -0.42,0.43 -0.98,0.64 -1.53,0.64 -0.54,0 -1.08,-0.2 -1.49,-0.61 -0.84,-0.82 -0.86,-2.17 -0.03,-3.02 2.65,-2.69 6.85,-6.76 9.79,-8.58 L 40.1,37.82 c -7.16,4.28 -14.23,10.92 -18.48,18.64 -4.26,7.71 -5.7,16.48 -1.64,24.97 1.33,2.75 4,7.37 6.68,8.97 2.37,1.42 4.88,2.63 7.44,3.69 2.27,0.94 4.19,2.12 6.52,2.8 2.08,0.62 4.23,1.29 6.34,1.76 2.13,0.48 4.34,0.63 6.48,1.03 1.9,0.35 3.82,0.67 5.74,0.7 9.85,0.13 19.81,0.65 29.48,-1.69 5.88,-1.42 11.71,-3.19 17.24,-5.63 2.8,-1.22 5.53,-2.62 8.1,-4.26 2.09,-1.32 4.84,-2.62 5.93,-4.98 1.15,-2.49 0.17,-5.5 -0.44,-8.02 -0.11,-0.42 -0.26,-0.87 -0.38,-1.31 z"
           style="fill:#757f3f"
           id="path4537"
           inkscape:connector-curvature="0" />
      </g>
      <g
         id="g4559">
        <path
           d="m 29.95,98.37 c -0.98,-0.58 -2.38,-0.78 -4.28,-1.05 -2.5,-0.35 -5.22,-1.05 -7.72,-0.6 -2.15,0.39 -2.38,0.94 -3.08,2.93 -1.09,3.13 -4.26,12.51 -1.8,15.47 0.61,0.73 2.03,0.99 2.9,1.25 2.51,0.76 5.18,0.93 7.82,1.11 2.25,0.15 4.47,-0.26 6.62,-0.86 1.61,-0.45 2.32,-0.83 2.45,-2.61 0.29,-3.8 -0.56,-7.55 -0.9,-11.32 -0.24,-2.44 -0.84,-3.64 -2.01,-4.32 z"
           style="fill:#bdcf46"
           id="path4541"
           inkscape:connector-curvature="0" />
        <g
           id="g4547">
          <path
             d="m 116.78,87.1 c -0.93,0.62 -1.92,1.17 -2.79,1.72 -2.57,1.63 -5.3,3.03 -8.1,4.26 -5.53,2.44 -11.36,4.21 -17.24,5.63 -9.67,2.34 -19.63,1.82 -29.48,1.69 -1.93,-0.03 -3.85,-0.35 -5.74,-0.7 -0.53,-0.1 -1.05,-0.18 -1.58,-0.26 l 0.52,5.55 c 0,0 1.88,0.14 5.24,-0.07 -0.65,6.43 -0.86,13.37 0.78,14.69 0.74,0.6 2.31,0.71 3.27,0.87 2.82,0.47 5.74,0.4 8.64,0.35 2.47,-0.04 4.85,-0.58 7.13,-1.28 1.71,-0.52 2.45,-0.9 2.42,-2.47 -0.03,-2.01 -0.71,-8.47 -1.4,-14 6.34,-0.83 14.15,-2.4 21.21,-5.33 0.1,2.22 0.19,4.12 0.18,4.51 -0.06,1.53 -0.08,3.62 1.27,4.8 3.76,3.31 13.07,1.38 17.39,-0.06 3.22,-1.06 2.23,-4.81 1.59,-7 -0.37,-1.31 -1.86,-8.13 -3.31,-12.9 z"
             style="fill:#bdcf46"
             id="path4543"
             inkscape:connector-curvature="0" />
          <path
             d="m 127.07,64.28 c -1.68,-1.58 -4.44,0.46 -5.98,1.28 -1.38,0.74 -2.75,1.47 -4.15,2.16 1.01,2.65 1.89,5.35 2.55,8.11 0.3,1.23 0.68,2.58 0.87,3.93 0.05,-0.06 0.1,-0.12 0.15,-0.17 0.51,-0.58 0.97,-1.17 1.42,-1.8 1.75,-2.48 3.08,-5.22 4.51,-7.88 0.69,-1.33 1.96,-4.37 0.63,-5.63 z"
             style="fill:#bdcf46"
             id="path4545"
             inkscape:connector-curvature="0" />
        </g>
        <g
           id="g4557">
          <path
             d="m 52.38,104.99 c -1.13,0.04 -2.27,0.03 -3.44,0.03 -8.33,0 -16.27,-0.22 -24.47,-2.08 C 12.02,100.13 2.32,92.68 0.63,79.36 -0.41,71.15 1.25,61.42 7.59,55.67 c 5.95,-5.4 16.65,-6.89 23.98,-4.4 8.54,2.92 14.76,9.94 18.31,18.04 2.73,6.24 4.58,11.84 5.73,18.57 0.17,1.03 2.06,16.6 -0.15,16.89 -1.02,0.12 -2.05,0.19 -3.08,0.22 z"
             style="fill:#bdcf46"
             id="path4549"
             inkscape:connector-curvature="0" />
          <path
             d="m 30.25,63.47 c 2.46,-0.44 4.87,1.46 5.38,4.26 0.51,2.79 -1.07,5.43 -3.53,5.88 -2.45,0.44 -4.86,-1.46 -5.38,-4.25 -0.51,-2.8 1.07,-5.43 3.53,-5.89 z"
             style="fill:#2f2f2f"
             id="path4551"
             inkscape:connector-curvature="0" />
          <path
             d="m 7.74,67.17 c 0.7,-2.75 3.25,-4.48 5.66,-3.86 2.42,0.62 3.81,3.36 3.11,6.11 -0.71,2.75 -3.24,4.48 -5.66,3.86 C 8.44,72.65 7.04,69.92 7.74,67.17 Z"
             style="fill:#2f2f2f"
             id="path4553"
             inkscape:connector-curvature="0" />
          <path
             d="m 23.8,79.29 c -1.14,0.62 -2.12,1.28 -3.45,0.79 -0.77,-0.28 -1.5,-0.5 -2.17,-1 -0.48,-0.35 -1.02,-0.64 -1.5,-0.99 -0.25,-0.18 -0.49,-0.37 -0.74,-0.55 -0.28,-0.21 -0.38,-0.3 -0.74,-0.35 -0.29,-0.03 -0.86,-0.05 -1.08,0.19 -0.94,1.05 0.38,2.61 1.09,3.32 1.06,1.03 2.57,2.2 3.96,2.8 1.36,0.59 2.71,1.3 4.16,0.58 1.59,-0.8 2.97,-1.96 4.37,-3.03 0.92,-0.7 2.98,-1.93 2.62,-3.3 -0.25,-1 -1.41,-0.79 -2.17,-0.55 -0.96,0.29 -1.82,0.78 -2.71,1.23 -0.55,0.27 -1.09,0.57 -1.64,0.86 z"
             style="fill:#2f2f2f"
             id="path4555"
             inkscape:connector-curvature="0" />
        </g>
      </g>
    </g>
  </g>
  <g
     id="layer1"
     transform="matrix(-0.18739525,0.0153173,0.01361549,0.16657492,114.06689,-1.4592765)">
    <path
       inkscape:connector-curvature="0"
       d="m 234.10295,28.783327 c -28.10056,7.733968 -56.90414,23.114414 -77.16658,38.006479 -20.26243,14.892057 -73.190777,52.416304 -85.274538,64.306944 -11.715979,11.52873 -25.555008,15.55018 -31.610801,29.75626 -2.335424,5.47857 15.83661,22.00519 19.397534,23.721 9.241286,4.45282 24.304529,-3.44276 31.177964,-3.91429 22.307191,-1.53031 45.167011,-4.49872 67.760351,10.79277 -4.18054,4.22051 2.45801,-0.32326 -6.08769,36.69347 -3.01352,13.05342 -9.59873,46.91908 -1.50714,53.3804 8.03941,6.41966 12.94944,-18.60581 20.93693,-14.77435 -0.004,0.006 -0.002,0.0211 -0.005,0.0264 -0.002,0.005 -0.004,0.0222 -0.005,0.0264 4.7e-4,0.004 -0.006,0.0233 -0.005,0.0264 0.003,0.003 0.0211,0.003 0.0249,0.005 0.0243,0.007 0.0777,0.004 0.12879,-0.002 0.015,0.007 0.0346,0.002 0.0497,0.01 0.0565,0.0271 0.1079,0.0591 0.16488,0.0866 l 0.0475,-0.12728 c 3.78138,-0.97727 33.26276,-13.96581 60.17617,-8.74298 15.17141,2.94415 39.36936,-5.30957 53.29004,-9.61521 22.07602,-6.82803 53.06775,-12.99841 72.72796,-13.35072 14.48306,-0.25953 27.58714,-8.45898 41.52062,-9.41484 8.22039,-0.56393 0.59821,-27.06599 0.4283,-29.86559 -0.81659,-13.45508 -17.56507,-34.13032 -26.19103,-52.50369 -8.62596,-18.37338 -23.08213,-41.697 -39.00385,-59.986157 -15.92034,-18.289939 -37.40028,-41.972174 -52.5239,-49.259355 -15.12361,-7.287181 -17.9532,-13.675443 -48.45111,-5.281661 z"
       style="fill:#d00000;fill-opacity:1;fill-rule:evenodd;stroke:#000000;stroke-width:0.83349466px;stroke-linecap:butt;stroke-linejoin:miter;stroke-opacity:1"
       id="path1309" />
    <path
       inkscape:connector-curvature="0"
       d="m 166.95567,93.343683 c -18.23272,4.41659 -33.84758,62.691407 -56.31899,72.821827 -14.697321,6.62576 -54.749039,16.69269 -51.188115,18.4085 9.241286,4.45282 24.304529,-3.44276 31.177964,-3.91429 22.307191,-1.53031 45.167011,-4.49872 67.760351,10.79277 -4.18054,4.22051 2.45801,-0.32326 -6.08769,36.69347 -3.01352,13.05342 -9.59873,46.91908 -1.50714,53.3804 8.03941,6.41966 12.94944,-18.60581 20.93693,-14.77435 -0.004,0.006 -0.002,0.0211 -0.005,0.0264 -0.002,0.005 -0.004,0.0222 -0.005,0.0264 4.7e-4,0.004 -0.006,0.0233 -0.005,0.0264 0.003,0.003 0.0211,0.003 0.0249,0.005 0.0243,0.007 0.0777,0.004 0.12879,-0.002 0.015,0.007 0.0346,0.002 0.0497,0.01 0.0565,0.0271 0.1079,0.0591 0.16488,0.0866 l 0.0475,-0.12728 c 3.78138,-0.97727 33.26276,-13.96581 60.17617,-8.74298 15.17141,2.94415 39.36936,-5.30957 53.29004,-9.61521 22.07602,-6.82803 53.06775,-12.99841 72.72796,-13.35072 14.48306,-0.25953 27.58714,-8.45898 41.52062,-9.41484 8.22039,-0.56393 -51.08531,4.52064 -27.44964,-12.57577 10.48531,-7.58433 -104.98388,15.80767 -149.31404,-34.77677 -43.89537,-50.0883 -37.45534,-89.505577 -56.12656,-84.982777 z"
       style="opacity:0.10112359;fill:#0e0000;fill-opacity:1;fill-rule:evenodd;stroke:none;stroke-width:1px;stroke-linecap:butt;stroke-linejoin:miter;stroke-opacity:1"
       id="path5882" />
    <path
       inkscape:connector-curvature="0"
       d="m 41.923132,154.63221 c 3.550897,2.3529 27.397959,32.51694 30.215216,30.40575 0.340584,-3.33088 -2.440653,-4.64208 -4.39708,-5.02241 2.619616,-3.32925 3.113447,-6.81056 -1.432527,-7.10965 -5.040198,-0.88997 -10.542525,-1.51433 -5.132485,-6.93595 2.497843,-3.03871 -0.167946,-8.43506 -1.701721,-11.17993 -4.029518,-2.17638 -7.065984,-6.11435 -8.717627,-8.79126"
       style="opacity:0.26966289;fill:#000000;fill-opacity:1;fill-rule:evenodd;stroke:#000000;stroke-width:0.83016068;stroke-linecap:butt;stroke-linejoin:miter;stroke-miterlimit:4;stroke-dasharray:none;stroke-opacity:1"
       id="path5878" />
    <path
       inkscape:connector-curvature="0"
       d="m 365.59735,219.58638 c -7.45124,-2.6426 -16.80117,-5.69478 -23.38958,-5.28735 -4.52499,-3.82248 -7.99822,0.88787 -11.91885,2.14156 -0.65797,-7.35971 -11.51071,3.11231 -16.29132,3.17249 -3.39452,1.94833 -1.05481,-5.80054 -7.13354,-2.85309 -7.55754,0.71399 -12.23241,1.23324 -17.83876,3.66049 -1.34666,8.01279 -13.44905,12.52661 -15.26046,3.7443 -6.59856,2.87141 -18.86884,8.44118 -18.94833,-0.64164 -10.56431,8.19396 -10.90033,15.59836 -21.21381,19.55298 0.9126,-7.09218 -22.37063,-10.90803 -25.54443,-3.46471 -6.38963,2.57308 1.32915,-9.32097 -7.90455,-6.05233 -10.40062,-3.02386 -4.34704,17.93464 -25.55362,9.36597 -11.8077,-0.37983 -5.2687,16.71929 -13.06117,23.88224 -2.0761,7.53231 -11.08359,-2.62404 -14.72934,-2.06009 0.84794,11.92658 3.40768,7.88228 0.71924,15.9966 -1.60415,10.16538 -3.75129,15.25548 7.43178,17.37239 3.62121,-4.90361 -0.18204,-2.829 0.62793,6.21747 6.45765,-1.87978 14.94635,-12.63999 14.07505,-1.58144 4.38202,-6.67329 18.25435,-10.15139 18.07994,-17.33913 7.02184,0.73709 14.90236,8.57944 20.82979,-0.95299 5.95076,-7.0412 14.50445,-10.30685 14.59427,-4.86854 7.23377,6.7565 7.95724,5.38728 15.478,3.66781 -1.93719,-8.71166 17.59935,-0.59858 7.28271,-9.27171 4.09757,-4.10343 15.18748,-6.50139 21.59622,-5.07542 5.66947,8.25419 22.94407,8.93721 25.63186,-1.74704 0.56398,-8.40429 13.68224,-11.27875 18.58724,-5.46823 8.52969,-7.4786 21.98421,3.38849 29.32409,-2.3442 -6.59758,-8.56295 9.32443,-14.15812 12.29788,-7.59298 5.84169,-3.13663 11.27804,-14.42284 17.66836,-6.34283 7.34987,-2.39523 16.32468,-5.72557 22.54222,-8.22182 4.66667,7.69315 16.74733,-0.2211 11.51054,-9.53228 -2.83483,-6.65069 9.30974,3.27444 6.00348,-5.16367 -3.76088,-9.07689 -9.04264,-21.69181 -15.51378,-21.2748 -8.8124,-2.20185 -14.03766,3.74492 -14.40344,12.16045 -0.11143,-6.14114 -10.52227,-0.15499 -15.9832,2.07193 l -2.99388,0.71227 -3.57688,-2.52294"
       style="opacity:0.294045;fill:#000000;fill-opacity:1;fill-rule:evenodd;stroke:#000000;stroke-width:0.60142648px;stroke-linecap:butt;stroke-linejoin:miter;stroke-opacity:1"
       id="path5003" />
    <path
       inkscape:connector-curvature="0"
       d="m 370.52395,221.8307 c -7.45124,-2.6426 -14.35623,-3.01411 -20.94463,-2.60667 -4.52499,-3.82249 -9.89492,-2.56891 -13.81555,-1.31521 -0.65796,-7.35972 -9.61402,6.56907 -14.39462,6.62925 -3.39454,1.94834 -1.05481,-5.80052 -7.13355,-2.85309 -7.55754,0.71399 -16.31902,-3.97224 -21.92537,-1.54499 -1.34666,8.01279 -13.44905,12.52661 -15.26045,3.7443 -6.59857,2.87142 -14.78225,13.64667 -14.86172,4.56385 -12.38454,-0.5429 -17.69005,11.63327 -28.00354,15.58789 0.91261,-7.09217 -15.5809,-6.94295 -18.75471,0.50038 -6.38962,2.57308 -1.69916,-13.4386 -10.93286,-10.16996 -10.40061,-3.02386 -10.11666,17.69747 -22.52531,13.48359 -11.80769,-0.37983 -10.15859,11.35793 -17.95107,18.52087 -2.07609,7.53232 -6.19368,2.73734 -9.83944,3.30129 5.99914,8.51379 -18.39263,6.74041 -11.15151,19.87036 -1.60415,10.16538 0.84851,17.47186 12.03157,19.58876 3.62121,-4.9036 7.08893,-8.91913 7.8989,0.12733 6.45764,-1.87977 14.94635,-12.63998 14.07504,-1.58143 4.38203,-6.67329 18.25435,-10.15139 18.07994,-17.33913 7.02184,0.73709 14.90236,8.57943 20.82979,-0.953 5.95076,-7.04119 6.93352,-1.29602 7.02333,4.14228 7.23377,6.75651 15.52819,-3.62354 23.04894,-5.343 -1.93719,-8.71165 17.59935,-0.59858 7.28272,-9.27172 4.09756,-4.10342 15.18748,-6.50139 21.59622,-5.07542 5.62317,5.3341 22.94406,8.93722 25.63186,-1.74704 0.56398,-8.40429 13.68223,-11.27874 18.58724,-5.46823 8.52968,-7.47859 21.9842,3.3885 29.32408,-2.34419 -6.59758,-8.56296 9.32444,-14.15812 12.29788,-7.59298 5.84169,-3.13663 11.27804,-14.42284 17.66837,-6.34283 7.34985,-2.39523 16.32467,-5.72558 22.54222,-8.22183 4.66666,7.69315 16.74733,-0.2211 11.51053,-9.53227 -2.83483,-6.65069 9.30974,3.27444 6.00349,-5.16367 0.0738,-9.65646 -3.56311,-24.59965 -15.51378,-21.2748 -8.81241,-2.20185 -14.03766,3.74491 -14.40345,12.16044 -0.11143,-6.14113 -14.02552,-3.92353 -19.48644,-1.69661 l -1.78895,0.9461 -1.27857,1.01177"
       style="fill:#ffffff;fill-opacity:1;fill-rule:evenodd;stroke:#000000;stroke-width:0.60142648px;stroke-linecap:butt;stroke-linejoin:miter;stroke-opacity:1"
       id="path1307" />
    <path
       inkscape:connector-curvature="0"
       d="m 155.67981,210.88831 c 3.14012,-40.84748 23.78547,-59.45023 20.15126,-92.12062 -2.14808,-19.310467 -19.537,-4.67273 -13.86936,13.44173"
       style="fill:none;fill-opacity:0.75;fill-rule:evenodd;stroke:#000000;stroke-width:0.83349466px;stroke-linecap:butt;stroke-linejoin:miter;stroke-opacity:1"
       id="path3126" />
    <path
       inkscape:connector-curvature="0"
       d="m 163.97802,266.61875 c -2.07609,7.53231 -6.19368,2.73733 -9.83944,3.30128 5.99914,8.51379 -18.39263,6.74042 -11.15152,19.87037 -1.60414,10.16538 0.84852,17.47185 12.03159,19.58875 3.6212,-4.9036 7.08892,-8.91913 7.89889,0.12734 6.45764,-1.87978 14.94635,-12.63999 14.07505,-1.58144 4.38202,-6.67328 18.25434,-10.15139 18.07993,-17.33912 7.02184,0.73708 14.56587,7.34967 20.4933,-2.18275 5.95076,-7.0412 7.27,-0.0663 7.35982,5.37202 7.23377,6.75652 15.52819,-3.62353 23.04895,-5.34299 -1.9372,-8.71166 8.86645,-1.54524 7.2827,-9.27172 -1.03721,-5.06015 33.64493,-3.56205 28.65668,-8.51045 -14.90587,-14.78677 -38.19112,7.49212 -41.55999,6.0701 -3.36887,-1.42201 -7.09125,-0.55957 -2.38487,-2.71925 4.70639,-2.15967 -6.74248,1.39249 -16.27743,-1.99436 -9.53496,-3.38685 -16.51439,0.89493 -17.1513,9.34281 -7.18176,-4.46668 -7.69633,0.60685 -18.88509,3.71804 7.12945,-10.42281 -12.5996,-2.76884 -12.5996,-2.76884 0,0 3.43729,-11.42797 -2.73938,-9.91964 3.32068,-5.96418 -0.36489,-7.80159 -0.36489,-7.80159 0,0 1.81907,-5.12151 -5.9734,2.04144 z"
       style="opacity:0.11235956;fill:#000000;fill-opacity:1;fill-rule:evenodd;stroke:none;stroke-width:0.7215721px;stroke-linecap:butt;stroke-linejoin:miter;stroke-opacity:1"
       id="path3249" />
    <path
       inkscape:connector-curvature="0"
       d="m 46.944746,146.2449 c -1.301678,-2.31828 -5.35751,-2.9566 -5.879409,-4.92258 0.90649,-2.28341 -2.659108,-0.62717 -3.361697,-1.88241 -4.194454,3.43361 -9.9845,4.91989 -13.092707,9.64254 1.652786,-0.36247 1.648832,-2.77858 -0.157056,-0.99615 -3.401098,1.68966 -6.688157,4.65771 -5.409253,8.89282 0.309772,2.17325 -2.425553,4.04333 0.913564,4.55805 -0.435409,3.47934 -5.654943,3.33284 -5.658053,6.4037 1.15534,3.3495 0.647111,6.84015 -2.100735,9.18954 -2.7180283,2.54178 -1.598648,6.28312 -1.499585,9.37085 -1.3669853,2.06531 -2.1364273,3.98573 -0.334716,5.95301 0.381454,3.5482 3.326995,5.89755 3.348942,9.5893 1.240053,1.93493 3.726708,1.8152 4.99685,4.00177 3.710475,0.3154 3.982719,5.49648 7.517208,6.2151 3.036183,0.99028 6.628635,0.30362 9.364415,1.02979 2.243733,1.81902 4.819206,3.08691 7.64389,3.59772 3.550896,2.25998 4.757769,-3.36478 6.906731,-5.17595 0.111428,-2.83195 2.146008,-3.05232 3.508535,-0.6677 3.101,2.10235 6.314017,-1.51811 8.537176,-3.43384 2.173489,-2.36905 4.611889,-4.42 7.032089,-6.49716 3.435924,-3.87856 4.655818,-9.42971 4.463567,-14.53502 0.340584,-3.19933 -2.634125,-3.37634 -4.590549,-3.74166 0.884588,-2.68233 3.113445,-6.54159 -1.432528,-6.82885 -2.606958,-0.6809 -8.517294,-3.59356 -5.132485,-6.66202 2.497843,-2.91871 -0.939756,-6.84771 -2.473531,-9.48419 -2.656218,-2.11406 -4.199508,-5.05895 -5.85115,-7.63014 -3.197679,-0.50952 -6.194337,-2.45275 -7.009506,-5.8451 -0.853644,-2.69404 -0.236398,-0.69903 0.03297,0.61246"
       style="fill:#ffffff;fill-opacity:1;fill-rule:evenodd;stroke:#000000;stroke-width:0.81360233;stroke-linecap:butt;stroke-linejoin:miter;stroke-miterlimit:4;stroke-dasharray:none;stroke-opacity:1"
       id="path2251" />
    <path
       inkscape:connector-curvature="0"
       d="m 20.404837,181.84614 c -1.601293,-1.9684 4.721412,-1.04116 4.199512,-3.00714 0.90649,-2.28339 -0.178267,-2.37846 -0.880857,-3.63371 -4.194453,3.43361 -3.206637,-4.70088 -6.314844,0.0218 1.652786,-0.36246 1.381011,-6.33357 -0.424877,-4.55114 -3.401098,1.68965 -2.680526,-5.80591 -2.683636,-2.73505 1.15534,3.3495 0.647111,6.84015 -2.100735,9.18954 -2.7180283,2.54178 -1.598648,6.28312 -1.499585,9.37085 -1.3669853,2.06531 -2.1364273,3.98573 -0.334716,5.95301 0.381454,3.5482 3.326995,5.89755 3.348942,9.5893 1.240053,1.93493 3.726708,1.8152 4.99685,4.00177 3.710475,0.3154 3.982719,5.49648 7.517208,6.2151 3.036183,0.99028 6.628635,0.30362 9.364415,1.02979 2.243733,1.81902 4.819206,3.08691 7.64389,3.59772 3.550896,2.25998 4.757769,-3.36478 6.906731,-5.17595 0.111428,-2.83195 2.146008,-3.05232 3.508535,-0.6677 3.101,2.10235 6.314017,-1.51811 8.537176,-3.43384 2.173489,-2.36905 -8.345955,0.35931 -5.925755,-1.71784 3.43592,-3.87857 -7.75248,5.41378 -7.944735,0.30847 0.340581,-3.19932 -12.370379,4.07056 -9.678506,-1.55391 0.884591,-2.68233 1.535909,-0.7479 -3.010064,-1.03517 -2.606958,-0.6809 -9.803527,-5.4936 -6.418718,-8.56206 2.497844,-2.91871 -1.342064,0.45638 -2.875839,-2.18009 -2.656219,-2.11406 -0.95965,-0.95001 -2.611292,-3.52118 -3.197679,-0.50952 -1.791784,-1.81661 -2.606953,-5.20895 -1.383361,3.98006 -0.981514,-3.60508 -0.712147,-2.29359 z"
       style="opacity:0.0955056;fill:#000000;fill-opacity:1;fill-rule:evenodd;stroke:none;stroke-width:0.99599999;stroke-linecap:butt;stroke-linejoin:miter;stroke-miterlimit:4;stroke-dasharray:none;stroke-opacity:1"
       id="path4128" />
    <path
       inkscape:connector-curvature="0"
       d="m 157.67035,192.3615 c 0,0 13.14456,-33.51164 16.30292,-46.8815 2.955,-12.50888 2.57264,-31.60315 -1.8531,-35.13721 -4.42575,-3.53406 -10.24707,2.57829 -10.86062,9.81603 -0.61354,7.23773 -1.12742,9.06164 1.8435,22.86746 1.34679,6.25851 0.67415,21.09312 -1.15695,28.09458 -1.8311,7.00146 -5.82667,22.94607 -4.27575,21.24064 z"
       style="fill:#000000;fill-opacity:0.22346371;fill-rule:evenodd;stroke:none;stroke-width:1px;stroke-linecap:butt;stroke-linejoin:miter;stroke-opacity:1"
       id="path5880" />
  </g>
  <g
     id="g1599">
    <path
       sodipodi:nodetypes="ccccccccccssccccccc"
       inkscape:connector-curvature="0"
       id="path1519"
       d="m 31.451578,73.839852 c -2.170812,-0.01697 -4.167028,1.338566 -4.934066,3.167705 -0.77324,-1.845078 -2.798566,-3.20535 -4.991559,-3.164678 -1.20128,0.02233 -2.452866,0.464065 -3.577824,1.478666 -0.911892,0.822233 -1.419752,1.90872 -1.940015,3.005763 -1.192536,1.545123 -2.787925,2.698859 -5.100648,3.152571 0.556516,0.437911 1.163357,0.665435 1.801442,0.759765 -1.128297,0.537803 -2.670173,0.834487 -4.8721497,0.74009 1.6320238,1.808734 4.1851187,2.424657 6.8593387,2.37313 4.827064,-0.160764 7.270337,-2.289687 8.700585,-4.457187 l 1.289904,0.63566 c 0.95784,0.47202 2.198418,0.494356 3.200435,0 l 1.288429,-0.63566 c 1.566356,2.373813 5.289835,4.736 10.995876,4.882474 1.199294,-0.02061 2.377765,-0.249604 3.624998,-0.777927 -1.178463,0.0081 -2.184677,-0.07417 -3.063337,-0.236102 1.855585,-0.352857 3.464654,-1.154455 4.46233,-2.609233 -8.15217,1.460618 -7.182107,-4.191865 -10.11137,-6.833344 -1.142449,-1.030127 -2.414633,-1.472212 -3.632369,-1.481693 z"
       style="fill:#ffffff;fill-opacity:1;stroke:none;stroke-width:0.22943181;stroke-miterlimit:4;stroke-dasharray:none;stroke-opacity:1" />
    <path
       sodipodi:nodetypes="ccscccccccccccccccccc"
       inkscape:connector-curvature="0"
       id="path1413"
       d="m 23.726801,81.393472 c -2.23171,2.992364 -6.229282,5.845915 -13.021484,6.0625 -2.11e-4,0.02128 0,0.04318 0,0.06445 0,0.537901 0.137503,1.187238 0.386719,1.921875 l -0.02539,-0.04102 3.107422,10.18555 0.486328,-3.42579 c 1.800652,2.78925 3.968304,5.745113 5.955078,8.332043 l 0.171875,-4.08985 c 0.614086,3.41465 2.177066,6.51037 4.113281,9.48438 0.983485,1.19753 1.607422,1.92968 1.607422,1.92968 0,0 0.732376,-0.85868 1.882813,-2.26562 0.0074,-0.009 0.01628,-0.0185 0.02344,-0.0273 2.186694,-2.90965 4.007731,-5.96392 4.890625,-9.39063 l -0.111328,3.32031 c 0.984012,-1.30029 1.992313,-2.66856 2.964844,-4.048823 v 2.525393 l 4.269531,-9.232425 c 1.040365,-1.91373 1.738875,-3.596628 1.859375,-4.818363 -6.563497,-0.665597 -11.207146,-3.406303 -13.566406,-6.486328 -1.671164,-0.447787 -3.246284,-0.46837 -4.994145,-3.2e-5 z"
       style="fill:#ffffff;fill-opacity:1;stroke:none;stroke-width:0.30000001;stroke-miterlimit:4;stroke-dasharray:none;stroke-opacity:1" />
  </g>
  <path
     id="path1500"
     d="m -31.249851,20.335315 c -2.876093,-0.0219 -5.520981,1.72621 -6.537225,4.086695 -1.02446,-2.381054 -3.707269,-4.136522 -6.612749,-4.084036 -1.591568,0.02882 -3.249495,0.599697 -4.739944,1.909028 -1.208159,1.061083 -1.881547,2.463153 -2.57084,3.878876 -1.579982,1.993965 -3.693575,3.48168 -6.757686,4.067191 0.737325,0.565119 1.541009,0.859115 2.386404,0.980846 -1.494873,0.69403 -3.537367,1.077574 -6.45475,0.955755 2.162257,2.334152 5.544997,3.128103 9.088052,3.061608 6.395343,-0.207465 9.632409,-2.954684 11.527334,-5.75182 l 1.708275,0.820106 c -2.147405,3.16995 -6.230393,6.340344 -13.406668,6.569176 -2.11e-4,0.02128 0,0.04256 0,0.06383 0,0.537901 0.139038,1.188045 0.388254,1.922682 l -0.02633,-0.04149 3.107297,10.184831 0.487161,-3.42459 c 1.800652,2.78925 3.967859,5.74446 5.954633,8.33139 l 0.17106,-4.08962 c 0.614086,3.41465 2.178267,6.50995 4.114482,9.48396 0.983485,1.19753 1.606314,1.93101 1.606314,1.93101 0,0 0.732374,-0.85938 1.882811,-2.26632 0.0074,-0.009 0.01601,-0.0189 0.02317,-0.0277 2.186694,-2.90965 4.008518,-5.96292 4.891412,-9.38963 l -0.111968,3.31925 c 0.984012,-1.30029 1.993199,-2.6676 2.96573,-4.04786 v 2.52397 l 4.269426,-9.231729 c 1.040365,-1.913727 1.739243,-3.596229 1.859743,-4.817964 -6.921688,-0.701921 -11.71356,-3.711309 -13.93691,-6.99306 l 1.708486,-0.820105 c 2.075253,3.063381 7.008798,6.111336 14.568692,6.300359 1.588935,-0.0266 3.149957,-0.321215 4.802406,-1.003011 -1.561337,0.01046 -2.894315,-0.09575 -4.058445,-0.304724 2.458451,-0.455358 4.589951,-1.489046 5.911764,-3.366422 -10.800753,1.884913 -9.516017,-5.410035 -13.396978,-8.818836 -1.513622,-1.329368 -3.198936,-1.899452 -4.812307,-1.911687 z"
     style="fill:#ffffff;fill-opacity:1;stroke:#000000;stroke-width:0.30000001;stroke-miterlimit:4;stroke-dasharray:none;stroke-opacity:1"
     inkscape:connector-curvature="0" />
  <g
     id="g1775"
     transform="translate(-61.5,-98.5)">
    <path
       style="fill:#ffffff;fill-opacity:1;stroke:none;stroke-width:0.22943181;stroke-miterlimit:4;stroke-dasharray:none;stroke-opacity:1"
       d="m 31.451578,73.839852 c -2.170812,-0.01697 -4.167028,1.338566 -4.934066,3.167705 -0.77324,-1.845078 -2.798566,-3.20535 -4.991559,-3.164678 -1.20128,0.02233 -2.452866,0.464065 -3.577824,1.478666 -0.911892,0.822233 -1.419752,1.90872 -1.940015,3.005763 -1.192536,1.545123 -2.787925,2.698859 -5.100648,3.152571 0.556516,0.437911 1.163357,0.665435 1.801442,0.759765 -1.128297,0.537803 -2.670173,0.834487 -4.8721497,0.74009 1.6320238,1.808734 4.1851187,2.424657 6.8593387,2.37313 4.827064,-0.160764 7.270337,-2.289687 8.700585,-4.457187 l 1.289904,0.63566 c 0.95784,0.47202 2.198418,0.494356 3.200435,0 l 1.288429,-0.63566 c 1.566356,2.373813 5.289835,4.736 10.995876,4.882474 1.199294,-0.02061 2.377765,-0.249604 3.624998,-0.777927 -1.178463,0.0081 -2.184677,-0.07417 -3.063337,-0.236102 1.855585,-0.352857 3.464654,-1.154455 4.46233,-2.609233 -8.15217,1.460618 -7.182107,-4.191865 -10.11137,-6.833344 -1.142449,-1.030127 -2.414633,-1.472212 -3.632369,-1.481693 z"
       id="path1771"
       inkscape:connector-curvature="0"
       sodipodi:nodetypes="ccccccccccssccccccc" />
    <path
       style="fill:#ffffff;fill-opacity:1;stroke:none;stroke-width:0.30000001;stroke-miterlimit:4;stroke-dasharray:none;stroke-opacity:1"
       d="m 23.726801,81.393472 c -2.23171,2.992364 -6.229282,5.845915 -13.021484,6.0625 -2.11e-4,0.02128 0,0.04318 0,0.06445 0,0.537901 0.137503,1.187238 0.386719,1.921875 l -0.02539,-0.04102 3.107422,10.18555 0.486328,-3.42579 c 1.800652,2.78925 3.968304,5.745113 5.955078,8.332043 l 0.171875,-4.08985 c 0.614086,3.41465 2.177066,6.51037 4.113281,9.48438 0.983485,1.19753 1.607422,1.92968 1.607422,1.92968 0,0 0.732376,-0.85868 1.882813,-2.26562 0.0074,-0.009 0.01628,-0.0185 0.02344,-0.0273 2.186694,-2.90965 4.007731,-5.96392 4.890625,-9.39063 l -0.111328,3.32031 c 0.984012,-1.30029 1.992313,-2.66856 2.964844,-4.048823 v 2.525393 l 4.269531,-9.232425 c 1.040365,-1.91373 1.738875,-3.596628 1.859375,-4.818363 -6.563497,-0.665597 -11.207146,-3.406303 -13.566406,-6.486328 -1.671164,-0.447787 -3.246284,-0.46837 -4.994145,-3.2e-5 z"
       id="path1773"
       inkscape:connector-curvature="0"
       sodipodi:nodetypes="ccscccccccccccccccccc" />
  </g>
</svg>
