<?xml version="1.0" encoding="UTF-8" standalone="no"?>
<svg
   xmlns:dc="http://purl.org/dc/elements/1.1/"
   xmlns:cc="http://creativecommons.org/ns#"
   xmlns:rdf="http://www.w3.org/1999/02/22-rdf-syntax-ns#"
   xmlns:svg="http://www.w3.org/2000/svg"
   xmlns="http://www.w3.org/2000/svg"
   xmlns:xlink="http://www.w3.org/1999/xlink"
   xmlns:sodipodi="http://sodipodi.sourceforge.net/DTD/sodipodi-0.dtd"
   xmlns:inkscape="http://www.inkscape.org/namespaces/inkscape"
   width="1920"
   height="1080"
   viewBox="0 0 508 285.75"
   version="1.1"
   id="svg18"
   inkscape:version="1.0.2 (e86c870879, 2021-01-15)">
  <metadata
     id="metadata22">
    <rdf:RDF>
      <cc:Work
         rdf:about="">
        <dc:format>image/svg+xml</dc:format>
        <dc:type
           rdf:resource="http://purl.org/dc/dcmitype/StillImage" />
        <dc:title />
      </cc:Work>
    </rdf:RDF>
  </metadata>
  <sodipodi:namedview
     pagecolor="#103968"
     bordercolor="#666666"
     borderopacity="1"
     objecttolerance="10"
     gridtolerance="10"
     guidetolerance="10"
     inkscape:pageopacity="1"
     inkscape:pageshadow="2"
     inkscape:window-width="1920"
     inkscape:window-height="1080"
     id="namedview20"
     showgrid="false"
     inkscape:zoom="0.3625"
     inkscape:cx="-814.18624"
     inkscape:cy="-488.19639"
     inkscape:window-x="1440"
     inkscape:window-y="0"
     inkscape:window-maximized="0"
     inkscape:current-layer="svg18"
     inkscape:document-rotation="0"
     inkscape:snap-global="true" />
  <defs
     id="defs8">
    <linearGradient
       id="linearGradient5613"
       inkscape:collect="always">
      <stop
         style="stop-color:#b67cdf;stop-opacity:1"
         offset="0"
         id="stop5609" />
      <stop
         style="stop-color:#f7a36e;stop-opacity:1"
         offset="1"
         id="stop5611" />
    </linearGradient>
    <linearGradient
       inkscape:collect="always"
       id="linearGradient826">
      <stop
         id="stop824"
         offset="0"
         style="stop-color:#b67cdf;stop-opacity:1" />
      <stop
         id="stop822"
         offset="1"
         style="stop-color:#f7a36e;stop-opacity:1" />
    </linearGradient>
    <linearGradient
       id="a">
      <stop
         offset="0"
         stop-color="#292f3f"
         id="stop2"
         style="stop-color:#3b6ee1;stop-opacity:1" />
      <stop
         offset="1"
         stop-color="#272d3d"
         stop-opacity="0"
         id="stop4"
         style="stop-color:#103968;stop-opacity:1" />
    </linearGradient>
    <linearGradient
       xlink:href="#a"
       id="b"
       x1="943.54"
       y1="498.071"
       x2="1001.6973"
       y2="628.91364"
       gradientUnits="userSpaceOnUse"
       gradientTransform="matrix(0.28718,0,0,0.28718,-16.13368,0.01321335)" />
    <linearGradient
       inkscape:collect="always"
       xlink:href="#linearGradient826"
       id="linearGradient828"
       x1="259.15955"
       y1="949.74854"
       x2="242.86171"
       y2="920.12537"
       gradientUnits="userSpaceOnUse"
       gradientTransform="translate(2.2782089,-794.25)" />
    <linearGradient
       inkscape:collect="always"
       xlink:href="#linearGradient5613"
       id="linearGradient5607"
       gradientUnits="userSpaceOnUse"
       gradientTransform="translate(2.2782089,-794.25)"
       x1="256.94666"
       y1="951.87329"
       x2="245.96866"
       y2="918.66064" />
  </defs>
  <rect
     style="opacity:0.001;fill:#000000;fill-opacity:1;stroke:none;stroke-width:2.3057394;stroke-linecap:round;stroke-linejoin:round;stroke-miterlimit:4;stroke-dasharray:none;stroke-opacity:1"
     id="rect830"
     width="81.416451"
     height="81.416451"
     x="213.29178"
     y="102.16678"
     inkscape:export-xdpi="96"
     inkscape:export-ydpi="96" />
  <circle
     style="fill:url(#linearGradient5607);fill-opacity:1;fill-rule:evenodd;stroke-width:0.74827272"
     id="circle10"
     r="19.797798"
     cy="142.875"
     cx="254" />
  <g
     id="g4551"
     transform="translate(1.2902667)">
    <path
       d="m 226.07332,163.98521 2.181,-3.027 3.55,-2.379 c 1.305,-0.479 2.092,-1.154 3.397,-1.631 1.737,-1.809 3.454,-3.183 4.413,-5.277 0.01,-0.284 3.413,0.55 4.912,-0.844 1.413,-1.304 2.811,-2.625 3.723,-4.529 l 1.305,-0.23 c 0.829,1.362 1.765,1.986 3.8,1.842 l 0.613,-5.22 3.4,1.339 c 1.363,2.638 4.684,2.454 7.116,4.342 2.538,0.883 5.493,0.634 7.968,0.833 2.357,2.908 5.535,5.075 7.997,8.087 2.087,3.224 3.168,1.015 4.605,-0.17 l 2.763,1.688 c 0.28,0.996 1.883,0.719 4.529,0.768 5.159,1.668 4.797,6.832 7.138,10.285 l 15.965,0.921 5.833,7.676 c 0,0 -119.54045,20.12249 -95.208,-14.474 z"
       id="path12"
       inkscape:connector-curvature="0"
       style="fill:#103968;fill-opacity:1"
       sodipodi:nodetypes="ccccccccccccccccccccc" />
    <path
       d="m 249.55432,146.06821 c 5.208,12.224 15.33587,19.3752 23.77787,33.5952 l 16.13258,-1.72843 c -5.525,-5.966 -11.40826,-14.31858 -11.66626,-16.02358 -0.264,-1.754 10.51881,8.11381 15.95281,12.06081 l 21.697,-3.189 -15.965,-0.921 -7.138,-10.285 -4.529,-0.768 -2.763,-1.688 c -1.15,1.091 -2.035,1.969 -2.748,1.804 -1.381,-0.532 -1.277,-0.992 -1.944,-1.767 -1.637,-1.9 -4.249,-4.021 -7.91,-7.954 -3.715,-0.191 -4.628,0.146 -8.044,-0.857 -1.909,-1.683 -5.732,-1.681 -7.04,-4.318 l -3.4,-1.338 c -0.254,0.92 5.059,7.128 4.216,7.736 -0.935,0.674 -3.38,-1.634 -4.83,-2.517 -1.288,0.018 -2.622,0.132 -3.8,-1.842 z"
       id="path14"
       style="fill:url(#b)"
       inkscape:connector-curvature="0"
       sodipodi:nodetypes="cccccccccccccccccccc" />
  </g>
  <path
     cx="254"
     cy="142.875"
     r="19.797798"
     id="path4555"
     style="fill:url(#linearGradient828);fill-opacity:1;fill-rule:evenodd;stroke-width:0.74827272" />
</svg>
