<?xml version="1.0" encoding="UTF-8" standalone="no"?>
<svg
   width="300"
   height="100"
   version="1.1"
   id="svg38"
   inkscape:version="1.1-rc (52f87ab, 2021-05-02)"
   inkscape:export-xdpi="96"
   inkscape:export-ydpi="96"
   sodipodi:docname="longk.svg"
   inkscape:export-filename="/home/d/1223.png"
   xmlns:inkscape="http://www.inkscape.org/namespaces/inkscape"
   xmlns:sodipodi="http://sodipodi.sourceforge.net/DTD/sodipodi-0.dtd"
   xmlns="http://www.w3.org/2000/svg"
   xmlns:svg="http://www.w3.org/2000/svg"
   xmlns:rdf="http://www.w3.org/1999/02/22-rdf-syntax-ns#"
   xmlns:cc="http://creativecommons.org/ns#">
  <metadata
     id="metadata44">
    <rdf:RDF>
      <cc:Work
         rdf:about="" />
    </rdf:RDF>
  </metadata>
  <defs
     id="defs42" />
  <sodipodi:namedview
     pagecolor="#ffffff"
     bordercolor="#666666"
     borderopacity="1"
     objecttolerance="10"
     gridtolerance="10"
     guidetolerance="10"
     inkscape:pageopacity="0"
     inkscape:pageshadow="2"
     inkscape:window-width="1920"
     inkscape:window-height="1080"
     id="namedview40"
     showgrid="false"
     inkscape:zoom="4"
     inkscape:cx="309.625"
     inkscape:cy="307.75"
     inkscape:window-x="0"
     inkscape:window-y="0"
     inkscape:window-maximized="1"
     inkscape:current-layer="svg38"
     inkscape:pagecheckerboard="0"
     showguides="true"
     inkscape:guide-bbox="true">
    <sodipodi:guide
       position="0,100"
       orientation="-1,0"
       id="guide2713"
       inkscape:label=""
       inkscape:locked="false"
       inkscape:color="rgb(0,0,255)" />
    <sodipodi:guide
       position="100,0"
       orientation="-1,0"
       id="guide2715"
       inkscape:label=""
       inkscape:locked="false"
       inkscape:color="rgb(0,0,255)" />
    <sodipodi:guide
       position="200,-100"
       orientation="-1,0"
       id="guide2717"
       inkscape:label=""
       inkscape:locked="false"
       inkscape:color="rgb(0,0,255)" />
    <sodipodi:guide
       position="300,-200"
       orientation="-1,0"
       id="guide2719"
       inkscape:label=""
       inkscape:locked="false"
       inkscape:color="rgb(0,0,255)" />
    <sodipodi:guide
       position="400,-300"
       orientation="-1,0"
       id="guide2721"
       inkscape:label=""
       inkscape:locked="false"
       inkscape:color="rgb(0,0,255)" />
    <sodipodi:guide
       position="0,100"
       orientation="0,1"
       id="guide2164"
       inkscape:label=""
       inkscape:locked="false"
       inkscape:color="rgb(0,0,255)" />
    <sodipodi:guide
       position="100,0"
       orientation="0,1"
       id="guide2166"
       inkscape:label=""
       inkscape:locked="false"
       inkscape:color="rgb(0,0,255)" />
    <sodipodi:guide
       position="200,-100"
       orientation="0,1"
       id="guide2170"
       inkscape:label=""
       inkscape:locked="false"
       inkscape:color="rgb(0,0,255)" />
    <sodipodi:guide
       position="300,-200"
       orientation="0,1"
       id="guide2172"
       inkscape:label=""
       inkscape:locked="false"
       inkscape:color="rgb(0,0,255)" />
    <sodipodi:guide
       position="400,-300"
       orientation="0,1"
       id="guide2174"
       inkscape:label=""
       inkscape:locked="false"
       inkscape:color="rgb(0,0,255)" />
  </sodipodi:namedview>
  <g
     id="g978">
    <path
       style="fill:none;fill-opacity:1;stroke:#bdcf46;stroke-width:32.8125;stroke-linecap:round;stroke-linejoin:round;stroke-miterlimit:4;stroke-dasharray:none;stroke-opacity:1"
       d="m 86.711484,342.78876 11.18933,4.55946 c 20.564316,8.37962 21.211826,14.19215 35.013306,17.31104 5.6925,1.28641 17.48853,-0.19963 26.24065,-7.95403 3.62803,-3.76281 12.00099,-9.95733 17.68054,-10.56368 16.70965,-1.78391 29.04514,2.91 37.1832,7.5956"
       id="path911"
       sodipodi:nodetypes="csscsc" />
    <g
       id="g921"
       style="stroke:none;stroke-width:0.353098"
       transform="matrix(0.78861819,0,0,0.78890147,62.197581,277.98926)">
      <path
         d="M 25.286717,102.41832 C 12.735223,99.055155 2.32,92.68 0.63,79.36 -0.41,71.15 1.25,61.42 7.59,55.67 c 5.95,-5.4 16.047026,-6.782637 23.377026,-4.292637 8.54,2.92 14.357817,9.996111 17.907817,18.096111 2.73,6.24 5.585157,11.676526 6.735157,18.406526 0.17,1.03 -3.354897,12.30618 -5.564897,12.59618 0,0 -6.603523,6.80672 -24.758386,1.94214 z"
         style="fill:#bdcf46;stroke:none;stroke-width:0.353098;stroke-opacity:1"
         id="path913"
         inkscape:connector-curvature="0"
         sodipodi:nodetypes="cccccccc" />
      <path
         d="m 30.25,63.47 c 2.46,-0.44 4.87,1.46 5.38,4.26 0.51,2.79 -1.07,5.43 -3.53,5.88 -2.45,0.44 -4.86,-1.46 -5.38,-4.25 -0.51,-2.8 1.07,-5.43 3.53,-5.89 z"
         style="fill:#2f2f2f;stroke:none;stroke-width:0.353098"
         id="path915"
         inkscape:connector-curvature="0" />
      <path
         d="m 7.74,67.17 c 0.7,-2.75 3.25,-4.48 5.66,-3.86 2.42,0.62 3.81,3.36 3.11,6.11 -0.71,2.75 -3.24,4.48 -5.66,3.86 C 8.44,72.65 7.04,69.92 7.74,67.17 Z"
         style="fill:#2f2f2f;stroke:none;stroke-width:0.353098"
         id="path917"
         inkscape:connector-curvature="0" />
      <path
         d="m 23.8,79.29 c -1.14,0.62 -2.12,1.28 -3.45,0.79 -0.77,-0.28 -1.5,-0.5 -2.17,-1 -0.48,-0.35 -1.02,-0.64 -1.5,-0.99 -0.25,-0.18 -0.49,-0.37 -0.74,-0.55 -0.28,-0.21 -0.38,-0.3 -0.74,-0.35 -0.29,-0.03 -0.86,-0.05 -1.08,0.19 -0.94,1.05 0.38,2.61 1.09,3.32 1.06,1.03 2.57,2.2 3.96,2.8 1.36,0.59 2.71,1.3 4.16,0.58 1.59,-0.8 2.97,-1.96 4.37,-3.03 0.92,-0.7 2.98,-1.93 2.62,-3.3 -0.25,-1 -1.41,-0.79 -2.17,-0.55 -0.96,0.29 -1.82,0.78 -2.71,1.23 -0.55,0.27 -1.09,0.57 -1.64,0.86 z"
         style="fill:#2f2f2f;stroke:none;stroke-width:0.353098"
         id="path919"
         inkscape:connector-curvature="0" />
    </g>
    <g
       id="g1156"
       style="stroke:none;stroke-width:0.353098"
       transform="matrix(-0.78861819,0,0,0.78890147,246.91573,289.24007)">
      <path
         d="M 25.286717,102.41832 C 12.735223,99.055155 2.32,92.68 0.63,79.36 -0.41,71.15 1.25,61.42 7.59,55.67 c 5.95,-5.4 16.047026,-6.782637 23.377026,-4.292637 8.54,2.92 14.357817,9.996111 17.907817,18.096111 2.73,6.24 5.585157,11.676526 6.735157,18.406526 0.17,1.03 -3.354897,12.30618 -5.564897,12.59618 0,0 -6.603523,6.80672 -24.758386,1.94214 z"
         style="fill:#bdcf46;stroke:none;stroke-width:0.353098;stroke-opacity:1"
         id="path1148"
         inkscape:connector-curvature="0"
         sodipodi:nodetypes="cccccccc" />
      <path
         d="m 30.25,63.47 c 2.46,-0.44 4.87,1.46 5.38,4.26 0.51,2.79 -1.07,5.43 -3.53,5.88 -2.45,0.44 -4.86,-1.46 -5.38,-4.25 -0.51,-2.8 1.07,-5.43 3.53,-5.89 z"
         style="fill:#2f2f2f;stroke:none;stroke-width:0.353098"
         id="path1150"
         inkscape:connector-curvature="0" />
      <path
         d="m 7.74,67.17 c 0.7,-2.75 3.25,-4.48 5.66,-3.86 2.42,0.62 3.81,3.36 3.11,6.11 -0.71,2.75 -3.24,4.48 -5.66,3.86 C 8.44,72.65 7.04,69.92 7.74,67.17 Z"
         style="fill:#2f2f2f;stroke:none;stroke-width:0.353098"
         id="path1152"
         inkscape:connector-curvature="0" />
      <path
         d="m 23.8,79.29 c -1.14,0.62 -2.12,1.28 -3.45,0.79 -0.77,-0.28 -1.5,-0.5 -2.17,-1 -0.48,-0.35 -1.02,-0.64 -1.5,-0.99 -0.25,-0.18 -0.49,-0.37 -0.74,-0.55 -0.28,-0.21 -0.38,-0.3 -0.74,-0.35 -0.29,-0.03 -0.86,-0.05 -1.08,0.19 -0.94,1.05 0.38,2.61 1.09,3.32 1.06,1.03 2.57,2.2 3.96,2.8 1.36,0.59 2.71,1.3 4.16,0.58 1.59,-0.8 2.97,-1.96 4.37,-3.03 0.92,-0.7 2.98,-1.93 2.62,-3.3 -0.25,-1 -1.41,-0.79 -2.17,-0.55 -0.96,0.29 -1.82,0.78 -2.71,1.23 -0.55,0.27 -1.09,0.57 -1.64,0.86 z"
         style="fill:#2f2f2f;stroke:none;stroke-width:0.353098"
         id="path1154"
         inkscape:connector-curvature="0" />
    </g>
    <g
       id="g1461"
       transform="matrix(0.78125053,0,0,0.78125053,-114.40599,314.59678)">
      <path
         style="fill:#644502;fill-opacity:1;stroke:none;stroke-width:0.356491px;stroke-linecap:butt;stroke-linejoin:miter;stroke-opacity:1"
         d="m 279.54021,18.874138 c 2.81081,-2.18362 10.06127,8.807848 20.22766,8.420125 1.67226,-7.644285 4.82492,-18.7680848 11.61397,-19.1630448 3.47796,-0.20234 7.67549,3.7639798 11.80753,3.7745398 4.09155,0.0105 7.66365,-4.2792198 11.71076,-3.6777598 7.32443,1.0885 11.13005,18.9694808 11.13005,18.9694808 10.60943,0.222115 15.75591,-10.839871 19.16792,-8.516911 13.75065,9.361717 -14.59252,27.679965 -39.87463,27.679965 -32.77883,0 -57.68774,-18.238273 -45.78326,-27.486395 z"
         id="path1455"
         inkscape:connector-curvature="0"
         sodipodi:nodetypes="scsascsss" />
      <path
         style="fill:#805d0b;fill-opacity:1;stroke:none;stroke-width:0.356491px;stroke-linecap:butt;stroke-linejoin:miter;stroke-opacity:1"
         d="m 305.5169,26.887357 -1.02654,3.969289 c 12.06754,8.485034 26.73565,6.710778 36.20263,-0.136878 l -0.47906,-3.832411 c -10.81187,5.337281 -22.63436,8.076231 -34.69703,0 z"
         id="path1457"
         inkscape:connector-curvature="0"
         sodipodi:nodetypes="ccccc" />
      <path
         style="fill:#805d0b;fill-opacity:1;stroke:none;stroke-width:0.356491px;stroke-linecap:butt;stroke-linejoin:miter;stroke-opacity:1"
         d="m 306.61188,22.370588 c 0,0 3.67545,-7.67263 7.32264,-8.75981 2.85616,-0.85139 5.57486,2.53557 8.5545,2.60056 3.39082,0.074 6.65424,-3.65448 9.85478,-2.53212 3.47442,1.21839 6.63829,8.82824 6.63829,8.82824 -11.84944,4.191818 -22.88774,5.139139 -32.37021,-0.13687 z"
         id="path1459"
         inkscape:connector-curvature="0"
         sodipodi:nodetypes="caaacc" />
    </g>
  </g>
  <g
     id="g2304">
    <path
       style="opacity:1;fill:none;fill-opacity:1;stroke:#bdcf46;stroke-width:32.8125;stroke-linecap:round;stroke-linejoin:round;stroke-miterlimit:4;stroke-dasharray:none;stroke-opacity:1"
       d="m 86.711571,42.783442 11.18933,4.557822 c 20.564319,8.376604 21.211829,14.187046 35.013319,17.304817 5.69249,1.285942 17.48853,-0.199551 26.24064,-7.951176 3.62803,-3.761461 12.00099,-9.953758 17.68054,-10.559885 21.6996,-2.3158 36.02247,6.288875 43.35567,11.614205"
       id="path13469"
       sodipodi:nodetypes="csscsc" />
    <path
       d="m 229.63714,28.142043 c 0,0 2.01098,-1.167155 3.13871,-1.67187 l 17.53886,6.450896 28.3666,0.76496 c 0,0 2.12927,2.208131 2.76016,2.965204 l 5.14968,14.778705 4.15602,1.663985 c 0,0 0.95422,2.854797 1.22236,3.935204 l -0.8596,6.813661 -41.11855,10.196833 -33.01944,-8.099108 0.10252,-20.299033 10.09431,-13.146265 z"
       style="opacity:1;fill:#2f2f2f;stroke-width:0.27851"
       id="path13443"
       inkscape:connector-curvature="0" />
    <path
       d="m 255.69309,45.286601 c -0.0789,3.990408 -0.29967,15.456917 -0.22081,22.112854 1.31699,0.03155 2.76016,-0.03943 4.35317,-0.205041 2.12927,-0.212927 4.35318,-0.63878 6.49822,-1.048861 l 1.3643,-0.260244 c 2.20025,-0.417969 4.23489,-0.938456 6.2222,-1.593009 3.06773,-1.009431 6.45879,-2.310652 9.51863,-4.195449 -2.24757,-7.830979 -6.27741,-13.706184 -7.57074,-15.464803 -8.6748,-0.686098 -16.98684,0.2287 -20.16497,0.654553 z"
       style="opacity:1;fill:#757f3f;stroke-width:0.27851"
       id="path13445"
       inkscape:connector-curvature="0" />
    <path
       d="m 278.75228,42.881316 c 1.53781,2.105611 5.22855,7.673255 7.57863,15.157241 1.71919,-1.427398 3.20179,-3.130814 4.3374,-5.14179 -1.05675,-2.941546 -2.33431,-5.796344 -3.86423,-8.517077 -1.53781,-2.728619 -3.32797,-5.338945 -5.35472,-7.736344 -0.74918,2.452602 -1.94,4.850002 -2.69708,6.23797 z"
       style="opacity:1;fill:#757f3f;stroke-width:0.27851"
       id="path13447"
       inkscape:connector-curvature="0" />
    <path
       d="m 233.6591,31.974726 c 3.35952,1.285448 14.86545,5.859433 20.81164,10.078541 2.56301,-0.378537 11.58479,-1.545692 21.32423,-0.804391 1.26179,-2.326424 2.58667,-5.449352 2.87846,-7.570734 -0.11829,-0.118293 -0.22082,-0.244472 -0.33911,-0.354879 -4.04561,-3.801139 -9.17163,-5.890978 -14.34497,-7.64171 -7.22374,-2.444716 -15.08626,-3.30431 -22.61757,-1.955773 -2.98097,0.53626 -5.85942,1.458943 -8.59593,2.744391 z"
       style="opacity:1;fill:#757f3f;stroke-width:0.27851"
       id="path13449"
       inkscape:connector-curvature="0" />
    <path
       d="m 291.94587,57.052785 c -1.56935,2.010976 -3.46992,3.682847 -5.50456,5.070815 -0.0394,0.03155 -0.0867,0.0552 -0.11829,0.08675 -3.73805,2.523578 -7.90984,4.148131 -11.3561,5.275855 -2.12926,0.70187 -4.29797,1.26179 -6.64805,1.703416 l -1.36431,0.260244 c -2.2239,0.425853 -4.5109,0.867479 -6.79,1.104065 -1.34066,0.134065 -2.72862,0.244471 -4.12448,0.244471 -4.1639,0 -8.34357,-0.977886 -11.39553,-5.149676 -1.23024,-1.695529 -2.60244,-3.122928 -4.06138,-4.242766 l -0.60724,-0.473171 c -0.92268,-0.733415 -2.64975,-2.10561 -3.54089,-2.129269 l 0.0867,-3.3674 c 2.01886,0.0552 4.06138,1.671871 5.55187,2.854798 l 0.55203,0.43374 c 1.7113,1.309106 3.3122,2.965205 4.7396,4.928864 1.28544,1.758618 2.8548,2.760163 4.73959,3.288538 -0.0631,-7.113336 0.16561,-18.942609 0.23658,-22.270578 -5.77268,-4.045612 -17.38114,-8.611711 -20.14919,-9.668459 -1.08829,0.670325 -3.89577,3.004635 -7.20008,6.372035 -0.33122,0.339106 -0.77285,0.504716 -1.20659,0.504716 -0.42585,0 -0.8517,-0.157724 -1.17504,-0.481058 -0.66244,-0.646667 -0.67821,-1.711301 -0.0237,-2.381626 2.08983,-2.121383 5.40203,-5.331059 7.72057,-6.766345 l -0.67033,-4.116586 c -5.64651,3.375286 -11.22203,8.61171 -14.57366,14.699843 -3.35951,6.080246 -4.49512,12.996427 -1.29334,19.691796 1.04887,2.1687 3.15448,5.812116 5.26797,7.073905 1.86903,1.119838 3.84846,2.074066 5.86732,2.910001 1.79017,0.741301 3.30432,1.67187 5.14179,2.208131 1.64033,0.488943 3.33586,1.017318 4.99984,1.387968 1.67976,0.378537 3.42261,0.496829 5.11025,0.812277 1.49837,0.276016 3.01252,0.528374 4.52666,0.552032 7.76789,0.102521 15.62253,0.512602 23.24847,-1.332765 4.63708,-1.119837 9.23472,-2.515691 13.59578,-4.43992 2.20813,-0.962114 4.36106,-2.066179 6.38781,-3.359513 1.64821,-1.040976 3.81691,-2.066179 4.6765,-3.927319 0.90692,-1.963659 0.13407,-4.3374 -0.34699,-6.324718 -0.0867,-0.331219 -0.20504,-0.686098 -0.29967,-1.033089 z"
       style="opacity:1;fill:#757f3f;stroke-width:0.27851"
       id="path13451"
       inkscape:connector-curvature="0" />
    <path
       d="m 221.63267,75.88499 c -0.77285,-0.457401 -1.87691,-0.615124 -3.37529,-0.828051 -1.97154,-0.276017 -4.11658,-0.828049 -6.08812,-0.473171 -1.69554,0.307561 -1.87692,0.741301 -2.42895,2.310652 -0.8596,2.468377 -3.35951,9.865624 -1.41951,12.19993 0.48105,0.575696 1.60089,0.780735 2.28699,0.985774 1.97943,0.599352 4.08504,0.733415 6.16699,0.875368 1.77439,0.118289 3.52513,-0.205039 5.22065,-0.678212 1.26968,-0.354883 1.8296,-0.654555 1.93212,-2.058298 0.2287,-2.996752 -0.44162,-5.954074 -0.70976,-8.927162 -0.18926,-1.924228 -0.66243,-2.870572 -1.58512,-3.40683 z"
       style="opacity:1;fill:#bdcf46;stroke-width:0.27851"
       id="path13455"
       inkscape:connector-curvature="0" />
    <path
       d="m 290.10839,66.99726 c -0.73341,0.488943 -1.51415,0.922683 -2.20025,1.356423 -2.02674,1.285448 -4.17967,2.389513 -6.3878,3.359514 -4.36106,1.924228 -8.95871,3.320082 -13.59578,4.43992 -7.62594,1.845367 -15.48057,1.435285 -23.24846,1.332765 -1.52203,-0.02366 -3.03618,-0.276017 -4.52667,-0.552033 -0.41797,-0.07886 -0.82805,-0.141951 -1.24602,-0.205041 l 0.41008,4.376834 c 0,0 1.48261,0.110406 4.13236,-0.05523 -0.5126,5.070816 -0.67821,10.54382 0.61512,11.584797 0.58358,0.473172 1.82171,0.559922 2.57879,0.686102 2.2239,0.370649 4.52666,0.315445 6.81366,0.276016 1.94788,-0.03156 3.8248,-0.457399 5.62284,-1.009431 1.34854,-0.410086 1.93212,-0.709758 1.90846,-1.947892 -0.0237,-1.585118 -0.55992,-6.67959 -1.10407,-11.040655 4.99984,-0.654548 11.15895,-1.892681 16.72659,-4.203331 0.0789,1.750731 0.14985,3.249103 0.14196,3.556666 -0.0473,1.206587 -0.0631,2.854799 1.00154,3.78537 2.96521,2.610322 10.30725,1.08829 13.71408,-0.04734 2.53934,-0.83593 1.75862,-3.793252 1.2539,-5.520326 -0.29179,-1.033089 -1.46683,-6.411465 -2.61033,-10.173174 z"
       style="opacity:1;fill:#bdcf46;stroke-width:0.27851"
       id="path13457"
       inkscape:connector-curvature="0" />
    <path
       d="m 298.22327,49.000993 c -1.32488,-1.246017 -3.50147,0.362764 -4.71594,1.009431 -1.08829,0.583577 -2.16869,1.159269 -3.27276,1.703416 0.7965,2.089838 1.49049,4.219106 2.01097,6.395693 0.23659,0.97 0.53627,2.034635 0.68611,3.099269 0.0395,-0.04732 0.0789,-0.09463 0.11828,-0.134065 0.4022,-0.457398 0.76497,-0.922683 1.11984,-1.419512 1.38009,-1.955773 2.42895,-4.116587 3.55668,-6.214311 0.54414,-1.048863 1.54568,-3.446262 0.49682,-4.439921 z"
       style="opacity:1;fill:#bdcf46;stroke-width:0.27851"
       id="path13459"
       inkscape:connector-curvature="0" />
    <g
       id="g1257"
       transform="matrix(0.78125053,0,0,0.78125053,-0.03778084,-0.02770921)"
       style="opacity:1">
      <path
         style="fill:#644502;fill-opacity:1;stroke:none;stroke-width:0.356491px;stroke-linecap:butt;stroke-linejoin:miter;stroke-opacity:1"
         d="m 279.54021,18.874138 c 2.81081,-2.18362 10.06127,8.807848 20.22766,8.420125 1.67226,-7.644285 4.82492,-18.7680848 11.61397,-19.1630448 3.47796,-0.20234 7.67549,3.7639798 11.80753,3.7745398 4.09155,0.0105 7.66365,-4.2792198 11.71076,-3.6777598 7.32443,1.0885 11.13005,18.9694808 11.13005,18.9694808 10.60943,0.222115 15.75591,-10.839871 19.16792,-8.516911 13.75065,9.361717 -14.59252,27.679965 -39.87463,27.679965 -32.77883,0 -57.68774,-18.238273 -45.78326,-27.486395 z"
         id="path13463"
         inkscape:connector-curvature="0"
         sodipodi:nodetypes="scsascsss" />
      <path
         style="fill:#805d0b;fill-opacity:1;stroke:none;stroke-width:0.356491px;stroke-linecap:butt;stroke-linejoin:miter;stroke-opacity:1"
         d="m 305.5169,26.887357 -1.02654,3.969289 c 12.06754,8.485034 26.73565,6.710778 36.20263,-0.136878 l -0.47906,-3.832411 c -10.81187,5.337281 -22.63436,8.076231 -34.69703,0 z"
         id="path13465"
         inkscape:connector-curvature="0"
         sodipodi:nodetypes="ccccc" />
      <path
         style="fill:#805d0b;fill-opacity:1;stroke:none;stroke-width:0.356491px;stroke-linecap:butt;stroke-linejoin:miter;stroke-opacity:1"
         d="m 306.61188,22.370588 c 0,0 3.67545,-7.67263 7.32264,-8.75981 2.85616,-0.85139 5.57486,2.53557 8.5545,2.60056 3.39082,0.074 6.65424,-3.65448 9.85478,-2.53212 3.47442,1.21839 6.63829,8.82824 6.63829,8.82824 -11.84944,4.191818 -22.88774,5.139139 -32.37021,-0.13687 z"
         id="path13467"
         inkscape:connector-curvature="0"
         sodipodi:nodetypes="caaacc" />
    </g>
    <path
       d="m 239.31349,81.105642 c -0.89114,0.03156 -1.79016,0.02367 -2.71284,0.02367 -6.56919,0 -12.49655,-0.08745 -18.96322,-1.554282 -5.21597,-2.307091 -7.70824,-1.398657 -7.58958,-3.392871 0.31803,-5.345197 -2.29358,-7.363138 -2.29358,-7.363138 -0.82016,-6.474553 -8.76283,-22.073476 -3.76299,-26.608031 4.69228,-4.258538 9.31533,-5.337281 15.0959,-3.373622 4.41848,2.551014 11.84205,3.498467 18.25476,14.130374 2.15294,4.920975 3.61187,9.337237 4.51879,14.644637 0.13406,0.812277 1.62455,13.091066 -0.11829,13.319761 -0.80439,0.09463 -1.61667,0.149836 -2.42895,0.173502 z"
       style="opacity:1;fill:#bdcf46;stroke-width:0.27851"
       id="path13473"
       inkscape:connector-curvature="0"
       sodipodi:nodetypes="cscsccccccc" />
    <path
       d="M 82.139242,58.776144 C 72.240902,56.123892 64.027268,51.096328 62.694503,40.591934 61.87434,34.117379 63.183446,26.444123 68.183285,21.90957 c 4.692278,-4.258539 12.654979,-5.348912 18.435546,-3.385253 6.7348,2.302766 11.32284,7.883116 14.122429,14.270923 2.15292,4.920977 4.40455,9.208321 5.31146,14.515721 0.13407,0.812277 -2.64573,9.704878 -4.38858,9.933577 0,0 -5.207649,5.367903 -19.524898,1.531606 z"
       style="opacity:1;fill:#bdcf46;stroke:none;stroke-width:0.27851;stroke-opacity:1"
       id="path13475"
       inkscape:connector-curvature="0"
       sodipodi:nodetypes="cccccccc" />
    <path
       d="m 86.053381,28.060791 c 1.93999,-0.346992 3.84056,1.151383 4.24276,3.359514 0.40219,2.200244 -0.84382,4.282197 -2.78383,4.637074 -1.93211,0.346993 -3.83268,-1.151382 -4.24276,-3.351627 -0.40219,-2.20813 0.84382,-4.282197 2.78383,-4.644961 z"
       style="opacity:1;fill:#2f2f2f;stroke:none;stroke-width:0.27851"
       id="path13477"
       inkscape:connector-curvature="0" />
    <path
       d="m 68.301578,30.978678 c 0.552033,-2.1687 2.563009,-3.533009 4.463579,-3.044066 1.908456,0.488943 3.004636,2.649757 2.452603,4.818457 -0.55992,2.1687 -2.555123,3.53301 -4.463579,3.044066 -1.90057,-0.496829 -3.004636,-2.649756 -2.452603,-4.818457 z"
       style="opacity:1;fill:#2f2f2f;stroke:none;stroke-width:0.27851"
       id="path13479"
       inkscape:connector-curvature="0" />
    <path
       d="m 80.966788,40.536731 c -0.899024,0.488943 -1.671869,1.009431 -2.720737,0.623008 -0.607234,-0.220813 -1.182925,-0.394309 -1.711299,-0.788618 -0.378536,-0.276016 -0.80439,-0.504716 -1.182927,-0.780732 -0.197155,-0.141951 -0.386423,-0.291789 -0.583577,-0.43374 -0.220814,-0.16561 -0.299676,-0.236585 -0.583578,-0.276016 -0.2287,-0.02366 -0.678212,-0.03943 -0.851708,0.149837 -0.741301,0.828049 0.299675,2.058294 0.859594,2.618212 0.835936,0.812277 2.026749,1.734961 3.122928,2.208131 1.072521,0.465285 2.137154,1.025204 3.280655,0.457399 1.253899,-0.630895 2.342192,-1.545692 3.446262,-2.389513 0.72552,-0.552033 2.35008,-1.522033 2.06618,-2.60244 -0.19716,-0.788618 -1.11195,-0.623009 -1.71131,-0.43374 -0.75707,0.228699 -1.43528,0.615122 -2.137154,0.97 -0.433735,0.212927 -0.859587,0.449512 -1.293329,0.678212 z"
       style="opacity:1;fill:#2f2f2f;stroke:none;stroke-width:0.27851"
       id="path13481"
       inkscape:connector-curvature="0" />
  </g>
  <g
     id="g1022">
    <path
       style="color:#000000;opacity:1;fill:#bdcf46;stroke-width:0.781251;stroke-linecap:round;stroke-linejoin:round"
       d="m 284.76007,129.37222 c -3.1011,-0.0443 -6.32479,0.0937 -9.66493,0.45013 -7.85589,0.83839 -12.36744,3.79734 -16.74195,6.61012 -4.02616,2.58878 -8.99077,5.23681 -11.88966,8.12225 -0.41678,0.34721 -0.88089,0.66174 -1.38245,0.94757 v 35.51486 c 7.78691,-1.47565 17.30472,-5.26835 24.95119,-12.04072 0.32181,-0.28473 0.63231,-0.582 0.93079,-0.89111 0.55893,-0.57949 2.99726,-2.679 5.13611,-4.05426 1.60415,-1.03146 3.42019,-1.53641 3.30964,-1.62659 16.13455,-1.48098 25.33185,4.40064 31.14168,8.61969 7.33165,5.32438 17.5914,3.69708 22.91567,-3.63464 5.32437,-7.33165 3.69707,-17.59139 -3.63465,-22.91566 -7.65863,-5.56166 -23.36375,-14.79155 -45.07144,-15.10164 z"
       id="path3454"
       sodipodi:nodetypes="ssscccccscccss" />
    <g
       id="g959"
       transform="matrix(0.78125053,0,0,0.78125053,99.962279,99.972565)"
       style="opacity:1">
      <path
         d="m 293.98372,36.057259 c 0,0 2.57405,-1.493957 4.01754,-2.139992 l 22.44973,8.257142 36.30922,0.979148 c 0,0 2.72547,2.826405 3.53301,3.795459 l 6.59158,18.916729 5.3197,2.129899 c 0,0 1.22141,3.654138 1.56462,5.037058 l -1.10028,8.721481 -52.63171,13.051937 -42.26486,-10.366852 0.13123,-25.982744 12.92071,-16.827208 z"
         style="fill:#2f2f2f;stroke-width:0.356492"
         id="path931"
         inkscape:connector-curvature="0" />
      <g
         id="g941"
         style="stroke-width:0.353161"
         transform="matrix(1.0094306,0,0,1.0094306,253.50556,-2.1295016)">
        <path
           d="m 73.14,59.57 c -0.1,5.06 -0.38,19.6 -0.28,28.04 1.67,0.04 3.5,-0.05 5.52,-0.26 2.7,-0.27 5.52,-0.81 8.24,-1.33 l 1.73,-0.33 c 2.79,-0.53 5.37,-1.19 7.89,-2.02 3.89,-1.28 8.19,-2.93 12.07,-5.32 -2.85,-9.93 -7.96,-17.38 -9.6,-19.61 -11,-0.87 -21.54,0.29 -25.57,0.83 z"
           style="fill:#757f3f;stroke-width:0.353161"
           id="path933"
           inkscape:connector-curvature="0" />
        <path
           d="m 102.38,56.52 c 1.95,2.67 6.63,9.73 9.61,19.22 2.18,-1.81 4.06,-3.97 5.5,-6.52 -1.34,-3.73 -2.96,-7.35 -4.9,-10.8 -1.95,-3.46 -4.22,-6.77 -6.79,-9.81 -0.95,3.11 -2.46,6.15 -3.42,7.91 z"
           style="fill:#757f3f;stroke-width:0.353161"
           id="path935"
           inkscape:connector-curvature="0" />
        <path
           d="m 45.2,42.69 c 4.26,1.63 18.85,7.43 26.39,12.78 3.25,-0.48 14.69,-1.96 27.04,-1.02 1.6,-2.95 3.28,-6.91 3.65,-9.6 C 102.13,44.7 102,44.54 101.85,44.4 96.72,39.58 90.22,36.93 83.66,34.71 74.5,31.61 64.53,30.52 54.98,32.23 c -3.78,0.68 -7.43,1.85 -10.9,3.48 z"
           style="fill:#757f3f;stroke-width:0.353161"
           id="path937"
           inkscape:connector-curvature="0" />
        <path
           d="m 119.11,74.49 c -1.99,2.55 -4.4,4.67 -6.98,6.43 -0.05,0.04 -0.11,0.07 -0.15,0.11 -4.74,3.2 -10.03,5.26 -14.4,6.69 -2.7,0.89 -5.45,1.6 -8.43,2.16 l -1.73,0.33 c -2.82,0.54 -5.72,1.1 -8.61,1.4 -1.7,0.17 -3.46,0.31 -5.23,0.31 -5.28,0 -10.58,-1.24 -14.45,-6.53 -1.56,-2.15 -3.3,-3.96 -5.15,-5.38 l -0.77,-0.6 c -1.17,-0.93 -3.36,-2.67 -4.49,-2.7 l 0.11,-4.27 c 2.56,0.07 5.15,2.12 7.04,3.62 l 0.7,0.55 c 2.17,1.66 4.2,3.76 6.01,6.25 1.63,2.23 3.62,3.5 6.01,4.17 -0.08,-9.02 0.21,-24.02 0.3,-28.24 -7.32,-5.13 -22.04,-10.92 -25.55,-12.26 -1.38,0.85 -4.94,3.81 -9.13,8.08 -0.42,0.43 -0.98,0.64 -1.53,0.64 -0.54,0 -1.08,-0.2 -1.49,-0.61 -0.84,-0.82 -0.86,-2.17 -0.03,-3.02 2.65,-2.69 6.85,-6.76 9.79,-8.58 L 40.1,37.82 c -7.16,4.28 -14.23,10.92 -18.48,18.64 -4.26,7.71 -5.7,16.48 -1.64,24.97 1.33,2.75 4,7.37 6.68,8.97 2.37,1.42 4.88,2.63 7.44,3.69 2.27,0.94 4.19,2.12 6.52,2.8 2.08,0.62 4.23,1.29 6.34,1.76 2.13,0.48 4.34,0.63 6.48,1.03 1.9,0.35 3.82,0.67 5.74,0.7 9.85,0.13 19.81,0.65 29.48,-1.69 5.88,-1.42 11.71,-3.19 17.24,-5.63 2.8,-1.22 5.53,-2.62 8.1,-4.26 2.09,-1.32 4.84,-2.62 5.93,-4.98 1.15,-2.49 0.17,-5.5 -0.44,-8.02 -0.11,-0.42 -0.26,-0.87 -0.38,-1.31 z"
           style="fill:#757f3f;stroke-width:0.353161"
           id="path939"
           inkscape:connector-curvature="0" />
      </g>
      <path
         d="m 283.738,97.16819 c -0.98924,-0.585472 -2.40244,-0.787358 -4.32036,-1.059904 -2.52358,-0.353301 -5.26923,-1.059902 -7.7928,-0.605659 -2.17028,0.393678 -2.40245,0.948865 -3.10905,2.957633 -1.10028,3.15952 -4.30017,12.62799 -1.81697,15.6159 0.61575,0.73689 2.04914,0.99934 2.92734,1.26179 2.53367,0.76717 5.22885,0.93877 7.89375,1.12047 2.27122,0.15141 4.51216,-0.26245 6.68243,-0.86811 1.62519,-0.45425 2.34188,-0.83783 2.47311,-2.63462 0.29273,-3.83584 -0.56528,-7.62121 -0.90849,-11.42676 -0.24226,-2.46301 -0.84792,-3.67433 -2.02896,-4.36074 z"
         style="fill:#bdcf46;stroke-width:0.356492"
         id="path943"
         inkscape:connector-curvature="0" />
      <g
         id="g949"
         style="stroke-width:0.353161"
         transform="matrix(1.0094306,0,0,1.0094306,253.50556,-2.1295016)">
        <path
           d="m 116.78,87.1 c -0.93,0.62 -1.92,1.17 -2.79,1.72 -2.57,1.63 -5.3,3.03 -8.1,4.26 -5.53,2.44 -11.36,4.21 -17.24,5.63 -9.67,2.34 -19.63,1.82 -29.48,1.69 -1.93,-0.03 -3.85,-0.35 -5.74,-0.7 -0.53,-0.1 -1.05,-0.18 -1.58,-0.26 l 0.52,5.55 c 0,0 1.88,0.14 5.24,-0.07 -0.65,6.43 -0.86,13.37 0.78,14.69 0.74,0.6 2.31,0.71 3.27,0.87 2.82,0.47 5.74,0.4 8.64,0.35 2.47,-0.04 4.85,-0.58 7.13,-1.28 1.71,-0.52 2.45,-0.9 2.42,-2.47 -0.03,-2.01 -0.71,-8.47 -1.4,-14 6.34,-0.83 14.15,-2.4 21.21,-5.33 0.1,2.22 0.19,4.12 0.18,4.51 -0.06,1.53 -0.08,3.62 1.27,4.8 3.76,3.31 13.07,1.38 17.39,-0.06 3.22,-1.06 2.23,-4.81 1.59,-7 -0.37,-1.31 -1.86,-8.13 -3.31,-12.9 z"
           style="fill:#bdcf46;stroke-width:0.353161"
           id="path945"
           inkscape:connector-curvature="0" />
        <path
           d="m 127.07,64.28 c -1.68,-1.58 -4.44,0.46 -5.98,1.28 -1.38,0.74 -2.75,1.47 -4.15,2.16 1.01,2.65 1.89,5.35 2.55,8.11 0.3,1.23 0.68,2.58 0.87,3.93 0.05,-0.06 0.1,-0.12 0.15,-0.17 0.51,-0.58 0.97,-1.17 1.42,-1.8 1.75,-2.48 3.08,-5.22 4.51,-7.88 0.69,-1.33 1.96,-4.37 0.63,-5.63 z"
           style="fill:#bdcf46;stroke-width:0.353161"
           id="path947"
           inkscape:connector-curvature="0" />
      </g>
      <path
         style="fill:#644502;fill-opacity:1;stroke:none;stroke-width:0.356491px;stroke-linecap:butt;stroke-linejoin:miter;stroke-opacity:1"
         d="m 279.54021,18.874138 c 2.81081,-2.18362 10.06127,8.807848 20.22766,8.420125 1.67226,-7.644285 4.82492,-18.7680848 11.61397,-19.1630448 3.47796,-0.20234 7.67549,3.7639798 11.80753,3.7745398 4.09155,0.0105 7.66365,-4.2792198 11.71076,-3.6777598 7.32443,1.0885 11.13005,18.9694808 11.13005,18.9694808 10.60943,0.222115 15.75591,-10.839871 19.16792,-8.516911 13.75065,9.361717 -14.59252,27.679965 -39.87463,27.679965 -32.77883,0 -57.68774,-18.238273 -45.78326,-27.486395 z"
         id="path951"
         inkscape:connector-curvature="0"
         sodipodi:nodetypes="scsascsss" />
      <path
         style="fill:#805d0b;fill-opacity:1;stroke:none;stroke-width:0.356491px;stroke-linecap:butt;stroke-linejoin:miter;stroke-opacity:1"
         d="m 305.5169,26.887357 -1.02654,3.969289 c 12.06754,8.485034 26.73565,6.710778 36.20263,-0.136878 l -0.47906,-3.832411 c -10.81187,5.337281 -22.63436,8.076231 -34.69703,0 z"
         id="path953"
         inkscape:connector-curvature="0"
         sodipodi:nodetypes="ccccc" />
      <path
         style="fill:#805d0b;fill-opacity:1;stroke:none;stroke-width:0.356491px;stroke-linecap:butt;stroke-linejoin:miter;stroke-opacity:1"
         d="m 306.61188,22.370588 c 0,0 3.67545,-7.67263 7.32264,-8.75981 2.85616,-0.85139 5.57486,2.53557 8.5545,2.60056 3.39082,0.074 6.65424,-3.65448 9.85478,-2.53212 3.47442,1.21839 6.63829,8.82824 6.63829,8.82824 -11.84944,4.191818 -22.88774,5.139139 -32.37021,-0.13687 z"
         id="path955"
         inkscape:connector-curvature="0"
         sodipodi:nodetypes="caaacc" />
      <path
         d="m 306.36944,103.85062 c -1.14066,0.0404 -2.29141,0.0303 -3.47244,0.0303 -8.40856,0 -15.99557,-0.11193 -24.2729,-1.98948 -6.67644,-2.953074 -9.86654,-1.79028 -9.71466,-4.342872 0.40708,-6.841848 -2.93578,-9.424811 -2.93578,-9.424811 -1.0498,-8.287422 -11.21641,-28.25403 -4.81662,-34.058256 6.00611,-5.450925 11.92361,-6.831715 19.32274,-4.318233 5.65565,3.265295 15.15781,4.478034 23.36608,18.086866 2.75575,6.298844 4.62319,11.951655 5.78404,18.745123 0.1716,1.039714 2.07943,16.756553 -0.15141,17.049283 -1.02962,0.12113 -2.06934,0.19179 -3.10905,0.22208 z"
         style="fill:#bdcf46;stroke-width:0.356492"
         id="path957"
         inkscape:connector-curvature="0"
         sodipodi:nodetypes="cscsccccccc" />
    </g>
    <path
       style="opacity:1;fill:none;stroke:#0db5ff;stroke-width:7.81247;stroke-linecap:round;stroke-linejoin:miter;stroke-miterlimit:4;stroke-dasharray:none;stroke-opacity:1"
       d="m 243.75576,110.93843 v 82.81258"
       id="path5938" />
    <path
       style="color:#000000;opacity:1;fill:#bdcf46;stroke-width:0.781251;stroke-linecap:round;stroke-linejoin:round"
       d="m 87.330901,126.38912 c -0.95446,-0.0359 -1.91024,0.0116 -2.85645,0.14191 -5.806774,0.79884 -10.746262,4.63491 -12.957766,10.06317 -3.418386,8.39181 0.613716,17.96583 9.005743,21.38369 l 11.189273,4.5578 c 9.110499,3.71104 12.691839,6.20579 17.308049,9.198 4.6162,2.99222 11.29528,6.8863 20.27894,8.91572 3.75679,0.84866 8.2764,1.21117 12.17039,1.04217 v -34.09425 c -2.91169,0.65683 -4.93924,1.04675 -4.93924,1.04675 -4.81781,-1.08835 -5.36288,-1.65829 -9.66188,-4.44489 -4.29899,-2.78659 -11.32451,-7.38584 -22.77833,-12.0514 l -11.189259,-4.5578 c -1.77225,-0.72204 -3.65715,-1.12846 -5.56947,-1.20087 z"
       id="path3530"
       sodipodi:nodetypes="ccccssscccsscc" />
    <path
       style="opacity:1;fill:none;stroke:#ff9a0d;stroke-width:7.81247;stroke-linecap:round;stroke-linejoin:miter;stroke-miterlimit:4;stroke-dasharray:none;stroke-opacity:1"
       d="m 143.75555,110.93843 v 82.81258"
       id="path1502" />
    <g
       id="g969"
       style="opacity:1;stroke:none;stroke-width:0.353161"
       transform="matrix(0.78861819,0,0,0.78861819,62.197718,78.007475)">
      <path
         d="M 25.286717,102.41832 C 12.735223,99.055155 2.32,92.68 0.63,79.36 -0.41,71.15 1.25,61.42 7.59,55.67 c 5.95,-5.4 16.047026,-6.782637 23.377026,-4.292637 8.54,2.92 14.357817,9.996111 17.907817,18.096111 2.73,6.24 5.585157,11.676526 6.735157,18.406526 0.17,1.03 -3.354897,12.30618 -5.564897,12.59618 0,0 -6.603523,6.80672 -24.758386,1.94214 z"
         style="fill:#bdcf46;stroke:none;stroke-width:0.353161;stroke-opacity:1"
         id="path961"
         inkscape:connector-curvature="0"
         sodipodi:nodetypes="cccccccc" />
      <path
         d="m 30.25,63.47 c 2.46,-0.44 4.87,1.46 5.38,4.26 0.51,2.79 -1.07,5.43 -3.53,5.88 -2.45,0.44 -4.86,-1.46 -5.38,-4.25 -0.51,-2.8 1.07,-5.43 3.53,-5.89 z"
         style="fill:#2f2f2f;stroke:none;stroke-width:0.353161"
         id="path963"
         inkscape:connector-curvature="0" />
      <path
         d="m 7.74,67.17 c 0.7,-2.75 3.25,-4.48 5.66,-3.86 2.42,0.62 3.81,3.36 3.11,6.11 -0.71,2.75 -3.24,4.48 -5.66,3.86 C 8.44,72.65 7.04,69.92 7.74,67.17 Z"
         style="fill:#2f2f2f;stroke:none;stroke-width:0.353161"
         id="path965"
         inkscape:connector-curvature="0" />
      <path
         d="m 23.8,79.29 c -1.14,0.62 -2.12,1.28 -3.45,0.79 -0.77,-0.28 -1.5,-0.5 -2.17,-1 -0.48,-0.35 -1.02,-0.64 -1.5,-0.99 -0.25,-0.18 -0.49,-0.37 -0.74,-0.55 -0.28,-0.21 -0.38,-0.3 -0.74,-0.35 -0.29,-0.03 -0.86,-0.05 -1.08,0.19 -0.94,1.05 0.38,2.61 1.09,3.32 1.06,1.03 2.57,2.2 3.96,2.8 1.36,0.59 2.71,1.3 4.16,0.58 1.59,-0.8 2.97,-1.96 4.37,-3.03 0.92,-0.7 2.98,-1.93 2.62,-3.3 -0.25,-1 -1.41,-0.79 -2.17,-0.55 -0.96,0.29 -1.82,0.78 -2.71,1.23 -0.55,0.27 -1.09,0.57 -1.64,0.86 z"
         style="fill:#2f2f2f;stroke:none;stroke-width:0.353161"
         id="path967"
         inkscape:connector-curvature="0" />
    </g>
  </g>
  <g
     id="g7046"
     style="opacity:1;fill:#bdcf46;fill-opacity:1;stroke:#707070;stroke-linecap:round;stroke-linejoin:round;stroke-opacity:1">
    <path
       style="fill:#bdcf46;fill-opacity:1;stroke:#707070;stroke-width:1px;stroke-linecap:round;stroke-linejoin:round;stroke-opacity:1"
       d="m 1038.6145,-549.90285 c -2.9962,11.77565 -7.548,22.48918 -8.9206,35.37346 4.3905,42.80594 10.3196,72.45274 11.3319,94.9417 -16.4552,7.46794 -27.6637,19.20126 -41.21609,28.27073 -9.72118,6.50556 -19.31761,10.86139 -24.56911,14.20621 0.15099,2.62349 -9.96361,23.23 -4.53927,28.83228 15.49757,-0.94587 15.12442,-11.49608 16.97123,-21.22456 3.19427,-0.24618 6.53468,-2.35872 9.16658,-4.28399 4.02096,14.14111 6.61686,24.69061 9.29666,38.83172 1.5237,4.96353 4.3174,4.87954 7.7105,4.30034 12.2368,6.90414 14.3859,-6.41016 14.3736,-14.4762 15.5667,-1.0599 9.6196,-22.54059 10.7275,-36.37934 11.9953,-4.14522 21.6408,-2.75324 31.1877,-1.12878 -8.9231,7.5049 -8.6002,32.12102 9.0754,25.48177 3.0343,-14.38571 -6.1966,-10.6903 13.6392,-24.50256 1.3696,-5.31151 0.5517,-12.47918 -1.2866,-18.43969 -7.0029,-4.95603 -11.2319,-9.80985 -15.5597,-14.6673 l 17.186,-95.19602 c -0.2913,-8.89829 -2.7968,-25.1222 -2.7968,-25.1222 z"
       id="path2683"
       sodipodi:nodetypes="cccscccccccccccccccc" />
    <path
       style="fill:#bdcf46;fill-opacity:1;stroke:#707070;stroke-width:1px;stroke-linecap:round;stroke-linejoin:round;stroke-opacity:1"
       d="m 1009.1537,-385.89893 c -4.6865,11.63621 2.7752,52.79917 4.9103,55.88059"
       id="path5683"
       sodipodi:nodetypes="cc" />
    <path
       style="opacity:1;fill:#bdcf46;fill-opacity:1;stroke:#707070;stroke-width:1px;stroke-linecap:round;stroke-linejoin:round;stroke-opacity:1"
       d="m 1030.609,-402.43412 c -5.7612,9.47045 -9.1499,11.20102 -10.5581,14.55011 -2.9702,7.06378 1.4739,10.36336 1.1587,38.03456 1.7325,3.12042 3.1275,4.75597 7.0103,4.71829"
       id="path5718"
       sodipodi:nodetypes="cscc" />
    <path
       style="fill:#bdcf46;fill-opacity:1;stroke:#707070;stroke-width:1px;stroke-linecap:round;stroke-linejoin:round;stroke-opacity:1"
       d="m 1038.9474,-381.5105 c -0.7406,-5.1871 2.1138,-9.56343 6.0211,-13.70227"
       id="path5720"
       sodipodi:nodetypes="cc" />
    <path
       style="fill:#bdcf46;fill-opacity:1;stroke:#707070;stroke-width:1px;stroke-linecap:round;stroke-linejoin:round;stroke-opacity:1"
       d="m 1070.1351,-382.63928 6.0959,-5.84448"
       id="path5722"
       sodipodi:nodetypes="cc" />
    <path
       style="fill:#bdcf46;fill-opacity:1;stroke:#707070;stroke-width:1px;stroke-linecap:round;stroke-linejoin:round;stroke-opacity:1"
       d="m 997.26715,-372.53923 c 0.74167,-3.78784 2.7307,-7.76022 4.55105,-11.70764"
       id="path5724"
       sodipodi:nodetypes="cc" />
  </g>
  <g
     id="g2561"
     transform="translate(3.4383016e-4,15.694428)">
    <g
       id="g13842"
       style="opacity:1;fill:#bdcf46;fill-opacity:1;stroke:#707070;stroke-width:1.265;stroke-linecap:round;stroke-linejoin:round;stroke-miterlimit:4;stroke-dasharray:none;stroke-opacity:1"
       transform="matrix(0.21275558,0,0,0.21275558,-99.240787,353.44515)">
      <path
         style="fill:#bdcf46;fill-opacity:1;stroke:#707070;stroke-width:1.265;stroke-linecap:round;stroke-linejoin:round;stroke-miterlimit:4;stroke-dasharray:none;stroke-opacity:1"
         d="m 1038.6145,-549.90285 c -2.9962,11.77565 -7.548,22.48918 -8.9206,35.37346 4.3905,42.80594 10.3196,72.45274 11.3319,94.9417 -16.4552,7.46794 -27.6637,19.20126 -41.21609,28.27073 -9.72118,6.50556 -19.31761,10.86139 -24.56911,14.20621 0.15099,2.62349 -9.96361,23.23 -4.53927,28.83228 15.49757,-0.94587 15.12442,-11.49608 16.97123,-21.22456 3.19427,-0.24618 6.53468,-2.35872 9.16658,-4.28399 4.02096,14.14111 6.61686,24.69061 9.29666,38.83172 1.5237,4.96353 4.3174,4.87954 7.7105,4.30034 12.2368,6.90414 14.3859,-6.41016 14.3736,-14.4762 15.5667,-1.0599 9.6196,-22.54059 10.7275,-36.37934 11.9953,-4.14522 21.6408,-2.75324 31.1877,-1.12878 -8.9231,7.5049 -8.6002,32.12102 9.0754,25.48177 3.0343,-14.38571 -6.1966,-10.6903 13.6392,-24.50256 1.3696,-5.31151 0.5517,-12.47918 -1.2866,-18.43969 -7.0029,-4.95603 -11.2319,-9.80985 -15.5597,-14.6673 l 17.186,-95.19602 c -0.2913,-8.89829 -2.7968,-25.1222 -2.7968,-25.1222 z"
         id="path13830"
         sodipodi:nodetypes="cccscccccccccccccccc" />
      <path
         style="fill:#bdcf46;fill-opacity:1;stroke:#707070;stroke-width:1.265;stroke-linecap:round;stroke-linejoin:round;stroke-miterlimit:4;stroke-dasharray:none;stroke-opacity:1"
         d="m 1009.1537,-385.89893 c -4.6865,11.63621 2.7752,52.79917 4.9103,55.88059"
         id="path13832"
         sodipodi:nodetypes="cc" />
      <path
         style="opacity:1;fill:#bdcf46;fill-opacity:1;stroke:#707070;stroke-width:1.265;stroke-linecap:round;stroke-linejoin:round;stroke-miterlimit:4;stroke-dasharray:none;stroke-opacity:1"
         d="m 1030.609,-402.43412 c -5.7612,9.47045 -9.1499,11.20102 -10.5581,14.55011 -2.9702,7.06378 1.4739,10.36336 1.1587,38.03456 1.7325,3.12042 3.1275,4.75597 7.0103,4.71829"
         id="path13834"
         sodipodi:nodetypes="cscc" />
      <path
         style="fill:#bdcf46;fill-opacity:1;stroke:#707070;stroke-width:1.265;stroke-linecap:round;stroke-linejoin:round;stroke-miterlimit:4;stroke-dasharray:none;stroke-opacity:1"
         d="m 1038.9474,-381.5105 c -0.7406,-5.1871 2.1138,-9.56343 6.0211,-13.70227"
         id="path13836"
         sodipodi:nodetypes="cc" />
      <path
         style="fill:#bdcf46;fill-opacity:1;stroke:#707070;stroke-width:1.265;stroke-linecap:round;stroke-linejoin:round;stroke-miterlimit:4;stroke-dasharray:none;stroke-opacity:1"
         d="m 1070.1351,-382.63928 6.0959,-5.84448"
         id="path13838"
         sodipodi:nodetypes="cc" />
      <path
         style="fill:#bdcf46;fill-opacity:1;stroke:#707070;stroke-width:1.265;stroke-linecap:round;stroke-linejoin:round;stroke-miterlimit:4;stroke-dasharray:none;stroke-opacity:1"
         d="m 997.26715,-372.53923 c 0.74167,-3.78784 2.7307,-7.76022 4.55105,-11.70764"
         id="path13840"
         sodipodi:nodetypes="cc" />
    </g>
    <g
       id="g12995"
       style="opacity:1;fill:#bdcf46;fill-opacity:1;stroke:#707070;stroke-width:1.265;stroke-linecap:round;stroke-linejoin:round;stroke-miterlimit:4;stroke-dasharray:none;stroke-opacity:1"
       transform="matrix(0.22619771,0,0,0.22619771,-53.7504,356.85319)">
      <path
         style="fill:#bdcf46;fill-opacity:1;stroke:#707070;stroke-width:1.265;stroke-linecap:round;stroke-linejoin:round;stroke-miterlimit:4;stroke-dasharray:none;stroke-opacity:1"
         d="m 1038.6145,-549.90285 c -2.9962,11.77565 -7.548,22.48918 -8.9206,35.37346 4.3905,42.80594 10.3196,72.45274 11.3319,94.9417 -16.4552,7.46794 -27.6637,19.20126 -41.21609,28.27073 -9.72118,6.50556 -19.31761,10.86139 -24.56911,14.20621 0.15099,2.62349 -9.96361,23.23 -4.53927,28.83228 15.49757,-0.94587 15.12442,-11.49608 16.97123,-21.22456 3.19427,-0.24618 6.53468,-2.35872 9.16658,-4.28399 4.02096,14.14111 6.61686,24.69061 9.29666,38.83172 1.5237,4.96353 4.3174,4.87954 7.7105,4.30034 12.2368,6.90414 14.3859,-6.41016 14.3736,-14.4762 15.5667,-1.0599 9.6196,-22.54059 10.7275,-36.37934 11.9953,-4.14522 21.6408,-2.75324 31.1877,-1.12878 -8.9231,7.5049 -8.6002,32.12102 9.0754,25.48177 3.0343,-14.38571 -6.1966,-10.6903 13.6392,-24.50256 1.3696,-5.31151 0.5517,-12.47918 -1.2866,-18.43969 -7.0029,-4.95603 -11.2319,-9.80985 -15.5597,-14.6673 l 17.186,-95.19602 c -0.2913,-8.89829 -2.7968,-25.1222 -2.7968,-25.1222 z"
         id="path12983"
         sodipodi:nodetypes="cccscccccccccccccccc" />
      <path
         style="fill:#bdcf46;fill-opacity:1;stroke:#707070;stroke-width:1.265;stroke-linecap:round;stroke-linejoin:round;stroke-miterlimit:4;stroke-dasharray:none;stroke-opacity:1"
         d="m 1009.1537,-385.89893 c -4.6865,11.63621 2.7752,52.79917 4.9103,55.88059"
         id="path12985"
         sodipodi:nodetypes="cc" />
      <path
         style="opacity:1;fill:#bdcf46;fill-opacity:1;stroke:#707070;stroke-width:1.265;stroke-linecap:round;stroke-linejoin:round;stroke-miterlimit:4;stroke-dasharray:none;stroke-opacity:1"
         d="m 1030.609,-402.43412 c -5.7612,9.47045 -9.1499,11.20102 -10.5581,14.55011 -2.9702,7.06378 1.4739,10.36336 1.1587,38.03456 1.7325,3.12042 3.1275,4.75597 7.0103,4.71829"
         id="path12987"
         sodipodi:nodetypes="cscc" />
      <path
         style="fill:#bdcf46;fill-opacity:1;stroke:#707070;stroke-width:1.265;stroke-linecap:round;stroke-linejoin:round;stroke-miterlimit:4;stroke-dasharray:none;stroke-opacity:1"
         d="m 1038.9474,-381.5105 c -0.7406,-5.1871 2.1138,-9.56343 6.0211,-13.70227"
         id="path12989"
         sodipodi:nodetypes="cc" />
      <path
         style="fill:#bdcf46;fill-opacity:1;stroke:#707070;stroke-width:1.265;stroke-linecap:round;stroke-linejoin:round;stroke-miterlimit:4;stroke-dasharray:none;stroke-opacity:1"
         d="m 1070.1351,-382.63928 6.0959,-5.84448"
         id="path12991"
         sodipodi:nodetypes="cc" />
      <path
         style="fill:#bdcf46;fill-opacity:1;stroke:#707070;stroke-width:1.265;stroke-linecap:round;stroke-linejoin:round;stroke-miterlimit:4;stroke-dasharray:none;stroke-opacity:1"
         d="m 997.26715,-372.53923 c 0.74167,-3.78784 2.7307,-7.76022 4.55105,-11.70764"
         id="path12993"
         sodipodi:nodetypes="cc" />
    </g>
    <path
       style="opacity:1;fill:none;fill-opacity:1;stroke:#bdcf46;stroke-width:32.8125;stroke-linecap:round;stroke-linejoin:round;stroke-miterlimit:4;stroke-dasharray:none;stroke-opacity:1"
       d="m 86.711621,227.08422 11.18933,4.55946 c 20.564319,8.37962 21.211829,14.19214 35.013309,17.31104 5.6925,1.2864 17.48853,-0.19963 26.24065,-7.95403 3.62803,-3.76282 12.00099,-9.95734 17.68054,-10.56368 16.70965,-1.78392 29.04514,2.91 37.1832,7.5956"
       id="path12997"
       sodipodi:nodetypes="csscsc" />
    <g
       id="g1265"
       transform="matrix(0.78125053,0,0,0.78125053,-115.75824,199.38041)"
       style="opacity:1">
      <path
         style="fill:#644502;fill-opacity:1;stroke:none;stroke-width:0.356491px;stroke-linecap:butt;stroke-linejoin:miter;stroke-opacity:1"
         d="m 279.54021,18.874138 c 2.81081,-2.18362 10.06127,8.807848 20.22766,8.420125 1.67226,-7.644285 4.82492,-18.7680848 11.61397,-19.1630448 3.47796,-0.20234 7.67549,3.7639798 11.80753,3.7745398 4.09155,0.0105 7.66365,-4.2792198 11.71076,-3.6777598 7.32443,1.0885 11.13005,18.9694808 11.13005,18.9694808 10.60943,0.222115 15.75591,-10.839871 19.16792,-8.516911 13.75065,9.361717 -14.59252,27.679965 -39.87463,27.679965 -32.77883,0 -57.68774,-18.238273 -45.78326,-27.486395 z"
         id="path1259"
         inkscape:connector-curvature="0"
         sodipodi:nodetypes="scsascsss" />
      <path
         style="fill:#805d0b;fill-opacity:1;stroke:none;stroke-width:0.356491px;stroke-linecap:butt;stroke-linejoin:miter;stroke-opacity:1"
         d="m 305.5169,26.887357 -1.02654,3.969289 c 12.06754,8.485034 26.73565,6.710778 36.20263,-0.136878 l -0.47906,-3.832411 c -10.81187,5.337281 -22.63436,8.076231 -34.69703,0 z"
         id="path1261"
         inkscape:connector-curvature="0"
         sodipodi:nodetypes="ccccc" />
      <path
         style="fill:#805d0b;fill-opacity:1;stroke:none;stroke-width:0.356491px;stroke-linecap:butt;stroke-linejoin:miter;stroke-opacity:1"
         d="m 306.61188,22.370588 c 0,0 3.67545,-7.67263 7.32264,-8.75981 2.85616,-0.85139 5.57486,2.53557 8.5545,2.60056 3.39082,0.074 6.65424,-3.65448 9.85478,-2.53212 3.47442,1.21839 6.63829,8.82824 6.63829,8.82824 -11.84944,4.191818 -22.88774,5.139139 -32.37021,-0.13687 z"
         id="path1263"
         inkscape:connector-curvature="0"
         sodipodi:nodetypes="caaacc" />
    </g>
  </g>
  <g
     id="g961"
     transform="translate(0,199.99956)">
    <path
       style="color:#000000;opacity:1;fill:#bdcf46;stroke-width:0.781251;stroke-linecap:round;stroke-linejoin:round"
       d="m 284.76007,229.37229 c -3.1011,-0.0443 -6.32479,0.0937 -9.66493,0.45013 -7.85589,0.83839 -12.36744,3.79734 -16.74195,6.61011 -4.02616,2.58879 -8.99077,5.23681 -11.88966,8.12226 -0.41678,0.34721 -0.88089,0.66174 -1.38245,0.94757 v 35.51486 c 7.78691,-1.47566 17.30472,-5.26835 24.95119,-12.04072 0.32181,-0.28473 0.63231,-0.58201 0.93079,-0.89112 0.55893,-0.57948 2.99726,-2.67899 5.13611,-4.05426 1.60415,-1.03145 3.42019,-1.5364 3.30964,-1.62658 16.13455,-1.48098 25.33185,4.40063 31.14168,8.61969 7.33165,5.32438 17.5914,3.69708 22.91567,-3.63464 5.32437,-7.33166 3.69707,-17.5914 -3.63465,-22.91567 -7.65863,-5.56165 -23.36375,-14.79154 -45.07144,-15.10163 z"
       id="path2171"
       sodipodi:nodetypes="ssscccccscccss" />
    <g
       id="g2201"
       transform="matrix(0.78125517,0,0,0.78125517,99.961076,199.97249)"
       style="opacity:1">
      <path
         d="m 293.98372,36.057259 c 0,0 2.57405,-1.493957 4.01754,-2.139992 l 22.44973,8.257142 36.30922,0.979148 c 0,0 2.72547,2.826405 3.53301,3.795459 l 6.59158,18.916729 5.3197,2.129899 c 0,0 1.22141,3.654138 1.56462,5.037058 l -1.10028,8.721481 -52.63171,13.051937 -42.26486,-10.366852 0.13123,-25.982744 12.92071,-16.827208 z"
         style="fill:#2f2f2f;stroke-width:0.356492"
         id="path2173"
         inkscape:connector-curvature="0" />
      <g
         id="g2183"
         style="stroke-width:0.353161"
         transform="matrix(1.0094306,0,0,1.0094306,253.50556,-2.1295016)">
        <path
           d="m 73.14,59.57 c -0.1,5.06 -0.38,19.6 -0.28,28.04 1.67,0.04 3.5,-0.05 5.52,-0.26 2.7,-0.27 5.52,-0.81 8.24,-1.33 l 1.73,-0.33 c 2.79,-0.53 5.37,-1.19 7.89,-2.02 3.89,-1.28 8.19,-2.93 12.07,-5.32 -2.85,-9.93 -7.96,-17.38 -9.6,-19.61 -11,-0.87 -21.54,0.29 -25.57,0.83 z"
           style="fill:#757f3f;stroke-width:0.353161"
           id="path2175"
           inkscape:connector-curvature="0" />
        <path
           d="m 102.38,56.52 c 1.95,2.67 6.63,9.73 9.61,19.22 2.18,-1.81 4.06,-3.97 5.5,-6.52 -1.34,-3.73 -2.96,-7.35 -4.9,-10.8 -1.95,-3.46 -4.22,-6.77 -6.79,-9.81 -0.95,3.11 -2.46,6.15 -3.42,7.91 z"
           style="fill:#757f3f;stroke-width:0.353161"
           id="path2177"
           inkscape:connector-curvature="0" />
        <path
           d="m 45.2,42.69 c 4.26,1.63 18.85,7.43 26.39,12.78 3.25,-0.48 14.69,-1.96 27.04,-1.02 1.6,-2.95 3.28,-6.91 3.65,-9.6 C 102.13,44.7 102,44.54 101.85,44.4 96.72,39.58 90.22,36.93 83.66,34.71 74.5,31.61 64.53,30.52 54.98,32.23 c -3.78,0.68 -7.43,1.85 -10.9,3.48 z"
           style="fill:#757f3f;stroke-width:0.353161"
           id="path2179"
           inkscape:connector-curvature="0" />
        <path
           d="m 119.11,74.49 c -1.99,2.55 -4.4,4.67 -6.98,6.43 -0.05,0.04 -0.11,0.07 -0.15,0.11 -4.74,3.2 -10.03,5.26 -14.4,6.69 -2.7,0.89 -5.45,1.6 -8.43,2.16 l -1.73,0.33 c -2.82,0.54 -5.72,1.1 -8.61,1.4 -1.7,0.17 -3.46,0.31 -5.23,0.31 -5.28,0 -10.58,-1.24 -14.45,-6.53 -1.56,-2.15 -3.3,-3.96 -5.15,-5.38 l -0.77,-0.6 c -1.17,-0.93 -3.36,-2.67 -4.49,-2.7 l 0.11,-4.27 c 2.56,0.07 5.15,2.12 7.04,3.62 l 0.7,0.55 c 2.17,1.66 4.2,3.76 6.01,6.25 1.63,2.23 3.62,3.5 6.01,4.17 -0.08,-9.02 0.21,-24.02 0.3,-28.24 -7.32,-5.13 -22.04,-10.92 -25.55,-12.26 -1.38,0.85 -4.94,3.81 -9.13,8.08 -0.42,0.43 -0.98,0.64 -1.53,0.64 -0.54,0 -1.08,-0.2 -1.49,-0.61 -0.84,-0.82 -0.86,-2.17 -0.03,-3.02 2.65,-2.69 6.85,-6.76 9.79,-8.58 L 40.1,37.82 c -7.16,4.28 -14.23,10.92 -18.48,18.64 -4.26,7.71 -5.7,16.48 -1.64,24.97 1.33,2.75 4,7.37 6.68,8.97 2.37,1.42 4.88,2.63 7.44,3.69 2.27,0.94 4.19,2.12 6.52,2.8 2.08,0.62 4.23,1.29 6.34,1.76 2.13,0.48 4.34,0.63 6.48,1.03 1.9,0.35 3.82,0.67 5.74,0.7 9.85,0.13 19.81,0.65 29.48,-1.69 5.88,-1.42 11.71,-3.19 17.24,-5.63 2.8,-1.22 5.53,-2.62 8.1,-4.26 2.09,-1.32 4.84,-2.62 5.93,-4.98 1.15,-2.49 0.17,-5.5 -0.44,-8.02 -0.11,-0.42 -0.26,-0.87 -0.38,-1.31 z"
           style="fill:#757f3f;stroke-width:0.353161"
           id="path2181"
           inkscape:connector-curvature="0" />
      </g>
      <path
         d="m 283.738,97.16819 c -0.98924,-0.585472 -2.40244,-0.787358 -4.32036,-1.059904 -2.52358,-0.353301 -5.26923,-1.059902 -7.7928,-0.605659 -2.17028,0.393678 -2.40245,0.948865 -3.10905,2.957633 -1.10028,3.15952 -4.30017,12.62799 -1.81697,15.6159 0.61575,0.73689 2.04914,0.99934 2.92734,1.26179 2.53367,0.76717 5.22885,0.93877 7.89375,1.12047 2.27122,0.15141 4.51216,-0.26245 6.68243,-0.86811 1.62519,-0.45425 2.34188,-0.83783 2.47311,-2.63462 0.29273,-3.83584 -0.56528,-7.62121 -0.90849,-11.42676 -0.24226,-2.46301 -0.84792,-3.67433 -2.02896,-4.36074 z"
         style="fill:#bdcf46;stroke-width:0.356492"
         id="path2185"
         inkscape:connector-curvature="0" />
      <g
         id="g2191"
         style="stroke-width:0.353161"
         transform="matrix(1.0094306,0,0,1.0094306,253.50556,-2.1295016)">
        <path
           d="m 116.78,87.1 c -0.93,0.62 -1.92,1.17 -2.79,1.72 -2.57,1.63 -5.3,3.03 -8.1,4.26 -5.53,2.44 -11.36,4.21 -17.24,5.63 -9.67,2.34 -19.63,1.82 -29.48,1.69 -1.93,-0.03 -3.85,-0.35 -5.74,-0.7 -0.53,-0.1 -1.05,-0.18 -1.58,-0.26 l 0.52,5.55 c 0,0 1.88,0.14 5.24,-0.07 -0.65,6.43 -0.86,13.37 0.78,14.69 0.74,0.6 2.31,0.71 3.27,0.87 2.82,0.47 5.74,0.4 8.64,0.35 2.47,-0.04 4.85,-0.58 7.13,-1.28 1.71,-0.52 2.45,-0.9 2.42,-2.47 -0.03,-2.01 -0.71,-8.47 -1.4,-14 6.34,-0.83 14.15,-2.4 21.21,-5.33 0.1,2.22 0.19,4.12 0.18,4.51 -0.06,1.53 -0.08,3.62 1.27,4.8 3.76,3.31 13.07,1.38 17.39,-0.06 3.22,-1.06 2.23,-4.81 1.59,-7 -0.37,-1.31 -1.86,-8.13 -3.31,-12.9 z"
           style="fill:#bdcf46;stroke-width:0.353161"
           id="path2187"
           inkscape:connector-curvature="0" />
        <path
           d="m 127.07,64.28 c -1.68,-1.58 -4.44,0.46 -5.98,1.28 -1.38,0.74 -2.75,1.47 -4.15,2.16 1.01,2.65 1.89,5.35 2.55,8.11 0.3,1.23 0.68,2.58 0.87,3.93 0.05,-0.06 0.1,-0.12 0.15,-0.17 0.51,-0.58 0.97,-1.17 1.42,-1.8 1.75,-2.48 3.08,-5.22 4.51,-7.88 0.69,-1.33 1.96,-4.37 0.63,-5.63 z"
           style="fill:#bdcf46;stroke-width:0.353161"
           id="path2189"
           inkscape:connector-curvature="0" />
      </g>
      <path
         d="m 306.36944,103.85062 c -1.14066,0.0404 -2.29141,0.0303 -3.47244,0.0303 -8.40856,0 -15.99557,-0.11193 -24.2729,-1.98948 -6.67644,-2.953074 -9.86654,-1.79028 -9.71466,-4.342872 0.40708,-6.841848 -2.93578,-9.424811 -2.93578,-9.424811 -1.0498,-8.287422 -11.21641,-28.25403 -4.81662,-34.058256 6.00611,-5.450925 11.92361,-6.831715 19.32274,-4.318233 5.65565,3.265295 15.15781,4.478034 23.36608,18.086866 2.75575,6.298844 4.62319,11.951655 5.78404,18.745123 0.1716,1.039714 2.07943,16.756553 -0.15141,17.049283 -1.02962,0.12113 -2.06934,0.19179 -3.10905,0.22208 z"
         style="fill:#bdcf46;stroke-width:0.356492"
         id="path2199"
         inkscape:connector-curvature="0"
         sodipodi:nodetypes="cscsccccccc" />
    </g>
  </g>
  <path
     style="color:#000000;fill:#bdcf46;stroke-linecap:round;stroke-linejoin:round;-inkscape-stroke:none"
     d="m 285.08984,429.37695 c -3.20493,-0.0552 -6.53924,0.0821 -9.99609,0.45117 -7.85762,0.83889 -12.36958,3.79947 -16.74414,6.61329 -4.02968,2.59197 -7.3652,5.24348 -10.26563,8.13281 -4.14547,3.44399 -13.24004,3.70117 -11.55468,4.08203 -4.81717,-1.08859 -5.36117,-1.65772 -9.66016,-4.44531 -4.29899,-2.7876 -11.32329,-7.38735 -22.77734,-12.05469 L 200,430.48828 v 35.82227 c 3.66316,1.89369 6.14015,3.56583 9.01758,5.43164 4.61621,2.99329 11.295,6.88963 20.2793,8.91992 13.09534,2.95933 27.28819,0.24102 40.73828,-11.67578 a 16.407891,16.407891 0 0 0 0.92968,-0.89258 c 0.55918,-0.57995 2.99791,-2.67896 5.13672,-4.05469 1.54815,-0.9958 3.24184,-1.48655 3.26172,-1.60156 8.74011,-0.80232 15.39765,0.59457 20.63672,2.67969 v -34.04883 c -4.58692,-0.97341 -9.5686,-1.5994 -14.91016,-1.69141 z"
     id="path4413" />
  <g
     id="g1312"
     transform="translate(200.00063,15.694428)">
    <g
       id="g1286"
       style="opacity:1;fill:#bdcf46;fill-opacity:1;stroke:#707070;stroke-width:1.265;stroke-linecap:round;stroke-linejoin:round;stroke-miterlimit:4;stroke-dasharray:none;stroke-opacity:1"
       transform="matrix(0.21275558,0,0,0.21275558,-99.240787,353.44515)">
      <path
         style="fill:#bdcf46;fill-opacity:1;stroke:#707070;stroke-width:1.265;stroke-linecap:round;stroke-linejoin:round;stroke-miterlimit:4;stroke-dasharray:none;stroke-opacity:1"
         d="m 1038.6145,-549.90285 c -2.9962,11.77565 -7.548,22.48918 -8.9206,35.37346 4.3905,42.80594 10.3196,72.45274 11.3319,94.9417 -16.4552,7.46794 -27.6637,19.20126 -41.21609,28.27073 -9.72118,6.50556 -19.31761,10.86139 -24.56911,14.20621 0.15099,2.62349 -9.96361,23.23 -4.53927,28.83228 15.49757,-0.94587 15.12442,-11.49608 16.97123,-21.22456 3.19427,-0.24618 6.53468,-2.35872 9.16658,-4.28399 4.02096,14.14111 6.61686,24.69061 9.29666,38.83172 1.5237,4.96353 4.3174,4.87954 7.7105,4.30034 12.2368,6.90414 14.3859,-6.41016 14.3736,-14.4762 15.5667,-1.0599 9.6196,-22.54059 10.7275,-36.37934 11.9953,-4.14522 21.6408,-2.75324 31.1877,-1.12878 -8.9231,7.5049 -8.6002,32.12102 9.0754,25.48177 3.0343,-14.38571 -6.1966,-10.6903 13.6392,-24.50256 1.3696,-5.31151 0.5517,-12.47918 -1.2866,-18.43969 -7.0029,-4.95603 -11.2319,-9.80985 -15.5597,-14.6673 l 17.186,-95.19602 c -0.2913,-8.89829 -2.7968,-25.1222 -2.7968,-25.1222 z"
         id="path1274"
         sodipodi:nodetypes="cccscccccccccccccccc" />
      <path
         style="fill:#bdcf46;fill-opacity:1;stroke:#707070;stroke-width:1.265;stroke-linecap:round;stroke-linejoin:round;stroke-miterlimit:4;stroke-dasharray:none;stroke-opacity:1"
         d="m 1009.1537,-385.89893 c -4.6865,11.63621 2.7752,52.79917 4.9103,55.88059"
         id="path1276"
         sodipodi:nodetypes="cc" />
      <path
         style="opacity:1;fill:#bdcf46;fill-opacity:1;stroke:#707070;stroke-width:1.265;stroke-linecap:round;stroke-linejoin:round;stroke-miterlimit:4;stroke-dasharray:none;stroke-opacity:1"
         d="m 1030.609,-402.43412 c -5.7612,9.47045 -9.1499,11.20102 -10.5581,14.55011 -2.9702,7.06378 1.4739,10.36336 1.1587,38.03456 1.7325,3.12042 3.1275,4.75597 7.0103,4.71829"
         id="path1278"
         sodipodi:nodetypes="cscc" />
      <path
         style="fill:#bdcf46;fill-opacity:1;stroke:#707070;stroke-width:1.265;stroke-linecap:round;stroke-linejoin:round;stroke-miterlimit:4;stroke-dasharray:none;stroke-opacity:1"
         d="m 1038.9474,-381.5105 c -0.7406,-5.1871 2.1138,-9.56343 6.0211,-13.70227"
         id="path1280"
         sodipodi:nodetypes="cc" />
      <path
         style="fill:#bdcf46;fill-opacity:1;stroke:#707070;stroke-width:1.265;stroke-linecap:round;stroke-linejoin:round;stroke-miterlimit:4;stroke-dasharray:none;stroke-opacity:1"
         d="m 1070.1351,-382.63928 6.0959,-5.84448"
         id="path1282"
         sodipodi:nodetypes="cc" />
      <path
         style="fill:#bdcf46;fill-opacity:1;stroke:#707070;stroke-width:1.265;stroke-linecap:round;stroke-linejoin:round;stroke-miterlimit:4;stroke-dasharray:none;stroke-opacity:1"
         d="m 997.26715,-372.53923 c 0.74167,-3.78784 2.7307,-7.76022 4.55105,-11.70764"
         id="path1284"
         sodipodi:nodetypes="cc" />
    </g>
    <g
       id="g1300"
       style="opacity:1;fill:#bdcf46;fill-opacity:1;stroke:#707070;stroke-width:1.265;stroke-linecap:round;stroke-linejoin:round;stroke-miterlimit:4;stroke-dasharray:none;stroke-opacity:1"
       transform="matrix(0.22619771,0,0,0.22619771,-53.7504,356.85319)">
      <path
         style="fill:#bdcf46;fill-opacity:1;stroke:#707070;stroke-width:1.265;stroke-linecap:round;stroke-linejoin:round;stroke-miterlimit:4;stroke-dasharray:none;stroke-opacity:1"
         d="m 1038.6145,-549.90285 c -2.9962,11.77565 -7.548,22.48918 -8.9206,35.37346 4.3905,42.80594 10.3196,72.45274 11.3319,94.9417 -16.4552,7.46794 -27.6637,19.20126 -41.21609,28.27073 -9.72118,6.50556 -19.31761,10.86139 -24.56911,14.20621 0.15099,2.62349 -9.96361,23.23 -4.53927,28.83228 15.49757,-0.94587 15.12442,-11.49608 16.97123,-21.22456 3.19427,-0.24618 6.53468,-2.35872 9.16658,-4.28399 4.02096,14.14111 6.61686,24.69061 9.29666,38.83172 1.5237,4.96353 4.3174,4.87954 7.7105,4.30034 12.2368,6.90414 14.3859,-6.41016 14.3736,-14.4762 15.5667,-1.0599 9.6196,-22.54059 10.7275,-36.37934 11.9953,-4.14522 21.6408,-2.75324 31.1877,-1.12878 -8.9231,7.5049 -8.6002,32.12102 9.0754,25.48177 3.0343,-14.38571 -6.1966,-10.6903 13.6392,-24.50256 1.3696,-5.31151 0.5517,-12.47918 -1.2866,-18.43969 -7.0029,-4.95603 -11.2319,-9.80985 -15.5597,-14.6673 l 17.186,-95.19602 c -0.2913,-8.89829 -2.7968,-25.1222 -2.7968,-25.1222 z"
         id="path1288"
         sodipodi:nodetypes="cccscccccccccccccccc" />
      <path
         style="fill:#bdcf46;fill-opacity:1;stroke:#707070;stroke-width:1.265;stroke-linecap:round;stroke-linejoin:round;stroke-miterlimit:4;stroke-dasharray:none;stroke-opacity:1"
         d="m 1009.1537,-385.89893 c -4.6865,11.63621 2.7752,52.79917 4.9103,55.88059"
         id="path1290"
         sodipodi:nodetypes="cc" />
      <path
         style="opacity:1;fill:#bdcf46;fill-opacity:1;stroke:#707070;stroke-width:1.265;stroke-linecap:round;stroke-linejoin:round;stroke-miterlimit:4;stroke-dasharray:none;stroke-opacity:1"
         d="m 1030.609,-402.43412 c -5.7612,9.47045 -9.1499,11.20102 -10.5581,14.55011 -2.9702,7.06378 1.4739,10.36336 1.1587,38.03456 1.7325,3.12042 3.1275,4.75597 7.0103,4.71829"
         id="path1292"
         sodipodi:nodetypes="cscc" />
      <path
         style="fill:#bdcf46;fill-opacity:1;stroke:#707070;stroke-width:1.265;stroke-linecap:round;stroke-linejoin:round;stroke-miterlimit:4;stroke-dasharray:none;stroke-opacity:1"
         d="m 1038.9474,-381.5105 c -0.7406,-5.1871 2.1138,-9.56343 6.0211,-13.70227"
         id="path1294"
         sodipodi:nodetypes="cc" />
      <path
         style="fill:#bdcf46;fill-opacity:1;stroke:#707070;stroke-width:1.265;stroke-linecap:round;stroke-linejoin:round;stroke-miterlimit:4;stroke-dasharray:none;stroke-opacity:1"
         d="m 1070.1351,-382.63928 6.0959,-5.84448"
         id="path1296"
         sodipodi:nodetypes="cc" />
      <path
         style="fill:#bdcf46;fill-opacity:1;stroke:#707070;stroke-width:1.265;stroke-linecap:round;stroke-linejoin:round;stroke-miterlimit:4;stroke-dasharray:none;stroke-opacity:1"
         d="m 997.26715,-372.53923 c 0.74167,-3.78784 2.7307,-7.76022 4.55105,-11.70764"
         id="path1298"
         sodipodi:nodetypes="cc" />
    </g>
    <path
       style="opacity:1;fill:none;fill-opacity:1;stroke:#bdcf46;stroke-width:32.8125;stroke-linecap:round;stroke-linejoin:round;stroke-miterlimit:4;stroke-dasharray:none;stroke-opacity:1"
       d="m 86.711621,227.08422 11.18933,4.55946 c 20.564319,8.37962 21.211829,14.19214 35.013309,17.31104 5.6925,1.2864 17.48853,-0.19963 26.24065,-7.95403 3.62803,-3.76282 12.00099,-9.95734 17.68054,-10.56368 16.70965,-1.78392 29.04514,2.91 37.1832,7.5956"
       id="path1302"
       sodipodi:nodetypes="csscsc" />
    <g
       id="g1310"
       transform="matrix(0.78125053,0,0,0.78125053,-115.75824,199.38041)"
       style="opacity:1" />
  </g>
  <g
     id="g1589"
     transform="translate(200.00041)">
    <path
       style="fill:none;fill-opacity:1;stroke:#bdcf46;stroke-width:32.8125;stroke-linecap:round;stroke-linejoin:round;stroke-miterlimit:4;stroke-dasharray:none;stroke-opacity:1"
       d="m 86.711484,342.78876 11.18933,4.55946 c 20.564316,8.37962 21.211826,14.19215 35.013306,17.31104 5.6925,1.28641 17.48853,-0.19963 26.24065,-7.95403 3.62803,-3.76281 12.00099,-9.95733 17.68054,-10.56368 16.70965,-1.78391 29.04514,2.91 37.1832,7.5956"
       id="path1559"
       sodipodi:nodetypes="csscsc" />
    <g
       id="g1569"
       style="stroke:none;stroke-width:0.353098"
       transform="matrix(0.78861819,0,0,0.78890147,62.197581,277.98926)">
      <path
         d="M 25.286717,102.41832 C 12.735223,99.055155 2.32,92.68 0.63,79.36 -0.41,71.15 1.25,61.42 7.59,55.67 c 5.95,-5.4 16.047026,-6.782637 23.377026,-4.292637 8.54,2.92 14.357817,9.996111 17.907817,18.096111 2.73,6.24 5.585157,11.676526 6.735157,18.406526 0.17,1.03 -3.354897,12.30618 -5.564897,12.59618 0,0 -6.603523,6.80672 -24.758386,1.94214 z"
         style="fill:#bdcf46;stroke:none;stroke-width:0.353098;stroke-opacity:1"
         id="path1561"
         inkscape:connector-curvature="0"
         sodipodi:nodetypes="cccccccc" />
      <path
         d="m 30.25,63.47 c 2.46,-0.44 4.87,1.46 5.38,4.26 0.51,2.79 -1.07,5.43 -3.53,5.88 -2.45,0.44 -4.86,-1.46 -5.38,-4.25 -0.51,-2.8 1.07,-5.43 3.53,-5.89 z"
         style="fill:#2f2f2f;stroke:none;stroke-width:0.353098"
         id="path1563"
         inkscape:connector-curvature="0" />
      <path
         d="m 7.74,67.17 c 0.7,-2.75 3.25,-4.48 5.66,-3.86 2.42,0.62 3.81,3.36 3.11,6.11 -0.71,2.75 -3.24,4.48 -5.66,3.86 C 8.44,72.65 7.04,69.92 7.74,67.17 Z"
         style="fill:#2f2f2f;stroke:none;stroke-width:0.353098"
         id="path1565"
         inkscape:connector-curvature="0" />
      <path
         d="m 23.8,79.29 c -1.14,0.62 -2.12,1.28 -3.45,0.79 -0.77,-0.28 -1.5,-0.5 -2.17,-1 -0.48,-0.35 -1.02,-0.64 -1.5,-0.99 -0.25,-0.18 -0.49,-0.37 -0.74,-0.55 -0.28,-0.21 -0.38,-0.3 -0.74,-0.35 -0.29,-0.03 -0.86,-0.05 -1.08,0.19 -0.94,1.05 0.38,2.61 1.09,3.32 1.06,1.03 2.57,2.2 3.96,2.8 1.36,0.59 2.71,1.3 4.16,0.58 1.59,-0.8 2.97,-1.96 4.37,-3.03 0.92,-0.7 2.98,-1.93 2.62,-3.3 -0.25,-1 -1.41,-0.79 -2.17,-0.55 -0.96,0.29 -1.82,0.78 -2.71,1.23 -0.55,0.27 -1.09,0.57 -1.64,0.86 z"
         style="fill:#2f2f2f;stroke:none;stroke-width:0.353098"
         id="path1567"
         inkscape:connector-curvature="0" />
    </g>
    <g
       id="g1579"
       style="stroke:none;stroke-width:0.353098"
       transform="matrix(-0.78861819,0,0,0.78890147,246.91573,289.24007)">
      <path
         d="M 25.286717,102.41832 C 12.735223,99.055155 2.32,92.68 0.63,79.36 -0.41,71.15 1.25,61.42 7.59,55.67 c 5.95,-5.4 16.047026,-6.782637 23.377026,-4.292637 8.54,2.92 14.357817,9.996111 17.907817,18.096111 2.73,6.24 5.585157,11.676526 6.735157,18.406526 0.17,1.03 -3.354897,12.30618 -5.564897,12.59618 0,0 -6.603523,6.80672 -24.758386,1.94214 z"
         style="fill:#bdcf46;stroke:none;stroke-width:0.353098;stroke-opacity:1"
         id="path1571"
         inkscape:connector-curvature="0"
         sodipodi:nodetypes="cccccccc" />
      <path
         d="m 30.25,63.47 c 2.46,-0.44 4.87,1.46 5.38,4.26 0.51,2.79 -1.07,5.43 -3.53,5.88 -2.45,0.44 -4.86,-1.46 -5.38,-4.25 -0.51,-2.8 1.07,-5.43 3.53,-5.89 z"
         style="fill:#2f2f2f;stroke:none;stroke-width:0.353098"
         id="path1573"
         inkscape:connector-curvature="0" />
      <path
         d="m 7.74,67.17 c 0.7,-2.75 3.25,-4.48 5.66,-3.86 2.42,0.62 3.81,3.36 3.11,6.11 -0.71,2.75 -3.24,4.48 -5.66,3.86 C 8.44,72.65 7.04,69.92 7.74,67.17 Z"
         style="fill:#2f2f2f;stroke:none;stroke-width:0.353098"
         id="path1575"
         inkscape:connector-curvature="0" />
      <path
         d="m 23.8,79.29 c -1.14,0.62 -2.12,1.28 -3.45,0.79 -0.77,-0.28 -1.5,-0.5 -2.17,-1 -0.48,-0.35 -1.02,-0.64 -1.5,-0.99 -0.25,-0.18 -0.49,-0.37 -0.74,-0.55 -0.28,-0.21 -0.38,-0.3 -0.74,-0.35 -0.29,-0.03 -0.86,-0.05 -1.08,0.19 -0.94,1.05 0.38,2.61 1.09,3.32 1.06,1.03 2.57,2.2 3.96,2.8 1.36,0.59 2.71,1.3 4.16,0.58 1.59,-0.8 2.97,-1.96 4.37,-3.03 0.92,-0.7 2.98,-1.93 2.62,-3.3 -0.25,-1 -1.41,-0.79 -2.17,-0.55 -0.96,0.29 -1.82,0.78 -2.71,1.23 -0.55,0.27 -1.09,0.57 -1.64,0.86 z"
         style="fill:#2f2f2f;stroke:none;stroke-width:0.353098"
         id="path1577"
         inkscape:connector-curvature="0" />
    </g>
    <g
       id="g1587"
       transform="matrix(0.78125053,0,0,0.78125053,-114.40599,314.59678)" />
  </g>
</svg>
