<?xml version="1.0" encoding="UTF-8" standalone="no"?>
<svg
   width="512"
   height="512"
   version="1.1"
   id="svg38"
   inkscape:version="1.1-rc (52f87ab, 2021-05-02)"
   inkscape:export-xdpi="96"
   inkscape:export-ydpi="96"
   sodipodi:docname="gkamer.svg"
   inkscape:export-filename="/home/d/opt/turtles/classigk/gkamer.png"
   xmlns:inkscape="http://www.inkscape.org/namespaces/inkscape"
   xmlns:sodipodi="http://sodipodi.sourceforge.net/DTD/sodipodi-0.dtd"
   xmlns="http://www.w3.org/2000/svg"
   xmlns:svg="http://www.w3.org/2000/svg"
   xmlns:rdf="http://www.w3.org/1999/02/22-rdf-syntax-ns#"
   xmlns:cc="http://creativecommons.org/ns#"
   xmlns:dc="http://purl.org/dc/elements/1.1/">
  <metadata
     id="metadata44">
    <rdf:RDF>
      <cc:Work
         rdf:about="">
        <dc:format>image/svg+xml</dc:format>
        <dc:type
           rdf:resource="http://purl.org/dc/dcmitype/StillImage" />
      </cc:Work>
    </rdf:RDF>
  </metadata>
  <defs
     id="defs42" />
  <sodipodi:namedview
     pagecolor="#ffffff"
     bordercolor="#666666"
     borderopacity="1"
     objecttolerance="10"
     gridtolerance="10"
     guidetolerance="10"
     inkscape:pageopacity="0"
     inkscape:pageshadow="2"
     inkscape:window-width="1920"
     inkscape:window-height="1080"
     id="namedview40"
     showgrid="false"
     inkscape:zoom="0.32593203"
     inkscape:cx="-291.47182"
     inkscape:cy="484.76366"
     inkscape:window-x="0"
     inkscape:window-y="0"
     inkscape:window-maximized="1"
     inkscape:current-layer="svg38"
     inkscape:pagecheckerboard="0" />
  <path
     d="m 180.41771,188.37087 c 0,0 7.22052,-4.19073 11.26967,-6.00293 l 62.97418,23.16226 101.85169,2.74663 c 0,0 7.64524,7.9284 9.9105,10.64671 l 18.49017,53.06368 14.92239,5.97462 c 0,0 3.42621,10.2503 4.38894,14.12955 l -3.08641,24.46479 -147.63822,36.61224 -118.55797,-29.08025 0.3681,-72.88469 36.24414,-47.20233 z"
     style="fill:#2f2f2f;stroke-width:1"
     id="path909"
     inkscape:connector-curvature="0"
     inkscape:export-xdpi="68.17437"
     inkscape:export-ydpi="68.17437" />
  <path
     d="m 273.97289,249.92927 c -0.28316,14.32776 -1.076,55.49883 -0.79284,79.39731 4.72873,0.11326 9.9105,-0.14158 15.63028,-0.73621 7.64525,-0.76452 15.63029,-2.29357 23.33216,-3.76599 l 4.89863,-0.93442 c 7.90009,-1.50073 15.20554,-3.36957 22.34111,-5.71978 11.01482,-3.62441 23.19058,-8.29651 34.17709,-15.06397 -8.06999,-28.11752 -22.53933,-49.21274 -27.18311,-55.52715 -31.1473,-2.46346 -60.99208,0.82116 -72.40332,2.35021 z"
     style="fill:#757f3f;stroke-width:1"
     id="path911"
     inkscape:connector-curvature="0"
     inkscape:export-xdpi="68.17437"
     inkscape:export-ydpi="68.17437" />
  <path
     d="m 356.76809,241.29297 c 5.52156,7.5603 18.77333,27.55121 27.21141,54.42284 6.17283,-5.12515 11.49619,-11.24135 15.57366,-18.46186 -3.79431,-10.56177 -8.38146,-20.81206 -13.87471,-30.58099 -5.52157,-9.79724 -11.94924,-19.16975 -19.22638,-27.77773 -2.69,8.80619 -6.96567,17.41417 -9.68398,22.39774 z"
     style="fill:#757f3f;stroke-width:1"
     id="path913"
     inkscape:connector-curvature="0"
     inkscape:export-xdpi="68.17437"
     inkscape:export-ydpi="68.17437" />
  <path
     d="m 194.85874,202.13232 c 12.0625,4.61546 53.37515,21.03858 74.72521,36.1875 9.20261,-1.35916 41.59581,-5.54988 76.56574,-2.8882 4.53051,-8.35315 9.28756,-19.56617 10.33524,-27.18311 -0.42474,-0.42473 -0.79284,-0.87778 -1.21758,-1.2742 -14.52597,-13.64819 -32.93119,-21.15186 -51.50631,-27.43795 -25.93721,-8.77787 -54.16799,-11.86429 -81.20952,-7.0223 -10.70334,1.92547 -21.03859,5.23841 -30.86414,9.85388 z"
     style="fill:#757f3f;stroke-width:1"
     id="path915"
     inkscape:connector-curvature="0"
     inkscape:export-xdpi="68.17437"
     inkscape:export-ydpi="68.17437" />
  <path
     d="m 404.1403,292.17634 c -5.63483,7.22051 -12.45892,13.22345 -19.76438,18.20702 -0.14157,0.11326 -0.31147,0.19821 -0.42473,0.31147 -13.42166,9.06103 -28.40068,14.89407 -40.77465,18.94322 -7.64525,2.5201 -15.43208,4.53052 -23.87017,6.1162 l -4.89862,0.93442 c -7.98503,1.52905 -16.19659,3.11473 -24.37984,3.9642 -4.81368,0.48137 -9.79724,0.87779 -14.80913,0.87779 -14.9507,0 -29.95804,-3.51115 -40.91623,-18.49017 -4.41725,-6.08789 -9.34419,-11.21303 -14.5826,-15.23387 l -2.18031,-1.69894 c -3.31294,-2.63336 -9.51409,-7.5603 -12.71377,-7.64525 l 0.31148,-12.09081 c 7.24882,0.19821 14.5826,6.00293 19.93427,10.25029 l 1.9821,1.55737 c 6.14452,4.70041 11.89261,10.64671 17.01776,17.69733 4.61546,6.31441 10.25029,9.9105 17.01775,11.80766 -0.22652,-25.54079 0.59463,-68.01439 0.84947,-79.96363 -20.72711,-14.52597 -62.40787,-30.92078 -72.34669,-34.71508 -3.90757,2.40683 -13.98797,10.78829 -25.85226,22.87911 -1.18926,1.21757 -2.77494,1.8122 -4.33231,1.8122 -1.52905,0 -3.0581,-0.56631 -4.21904,-1.72726 -2.37852,-2.32189 -2.43515,-6.14451 -0.0849,-8.55135 7.50367,-7.61693 19.39628,-19.14143 27.7211,-24.29489 l -2.40684,-14.78082 c -20.27406,12.11914 -40.29328,30.92078 -52.32747,52.78053 -12.0625,21.83143 -16.13996,46.66432 -4.64378,70.70438 3.766,7.78682 11.3263,20.86869 18.91491,25.39921 6.71083,4.02083 13.81808,7.44704 21.06691,10.4485 6.42767,2.66168 11.86429,6.00294 18.46185,7.92841 5.88967,1.75557 11.97756,3.65273 17.95218,4.98357 6.03125,1.35915 12.28902,1.78389 18.34859,2.91652 5.37999,0.99105 10.81661,1.89715 16.25323,1.9821 27.89099,0.3681 56.09346,1.84052 83.47477,-4.78536 16.64965,-4.02083 33.15773,-9.03272 48.81632,-15.94176 7.92841,-3.45452 15.6586,-7.41872 22.93575,-12.0625 5.91798,-3.73768 13.70481,-7.41872 16.79122,-14.10123 3.25631,-7.05062 0.48137,-15.57365 -1.24589,-22.70922 -0.31147,-1.18926 -0.73621,-2.46347 -1.076,-3.70936 z"
     style="fill:#757f3f;stroke-width:1"
     id="path917"
     inkscape:connector-curvature="0"
     inkscape:export-xdpi="68.17437"
     inkscape:export-ydpi="68.17437" />
  <path
     d="m 151.67725,359.79431 c -2.77494,-1.64232 -6.73915,-2.20863 -12.11914,-2.97316 -7.07893,-0.99105 -14.78081,-2.97315 -21.85974,-1.69894 -6.08788,1.10431 -6.73914,2.66168 -8.72125,8.29651 -3.08641,8.86282 -12.062496,35.42298 -5.09683,43.80444 1.72726,2.06704 5.7481,2.80325 8.21157,3.53946 7.10724,2.152 14.66754,2.63336 22.1429,3.14305 6.37104,0.42473 12.65713,-0.73621 18.74501,-2.43516 4.55883,-1.2742 6.56925,-2.3502 6.93736,-7.3904 0.82115,-10.75998 -1.58569,-21.37838 -2.54842,-32.05341 -0.67958,-6.90904 -2.37852,-10.30692 -5.69146,-12.23239 z"
     style="fill:#bdcf46;stroke-width:1"
     id="path921"
     inkscape:connector-curvature="0"
     inkscape:export-xdpi="68.17437"
     inkscape:export-ydpi="68.17437" />
  <path
     d="m 397.54274,327.88248 c -2.63336,1.75557 -5.43662,3.31294 -7.90009,4.8703 -7.27714,4.61547 -15.00734,8.57967 -22.93574,12.0625 -15.6586,6.90904 -32.16667,11.92093 -48.81632,15.94176 -27.38131,6.62588 -55.58378,5.15346 -83.47478,4.78536 -5.46493,-0.0849 -10.90155,-0.99105 -16.25323,-1.9821 -1.50073,-0.28316 -2.97315,-0.50969 -4.47388,-0.73621 l 1.47242,15.71523 c 0,0 5.32335,0.39642 14.83744,-0.19821 -1.84052,18.20701 -2.43515,37.85813 2.20863,41.59581 2.09536,1.69894 6.54093,2.01042 9.25924,2.46347 7.98504,1.33084 16.25323,1.13263 24.46479,0.99105 6.99399,-0.11327 13.73313,-1.64231 20.18912,-3.62442 4.84199,-1.47241 6.93735,-2.54841 6.85241,-6.99398 -0.0849,-5.69146 -2.01042,-23.98343 -3.96421,-39.64202 17.95218,-2.35021 40.06676,-6.79578 60.05767,-15.09229 0.28316,6.28609 0.538,11.66608 0.50968,12.7704 -0.16989,4.3323 -0.22652,10.25029 3.5961,13.59155 10.64671,9.3725 37.00866,3.90757 49.24106,-0.1699 9.11766,-3.00147 6.3144,-13.61986 4.5022,-19.82101 -1.04769,-3.70936 -5.26673,-23.02069 -9.37251,-36.52729 z"
     style="fill:#bdcf46;stroke-width:1"
     id="path923"
     inkscape:connector-curvature="0"
     inkscape:export-xdpi="68.17437"
     inkscape:export-ydpi="68.17437" />
  <path
     d="m 426.67963,263.26598 c -4.75705,-4.47389 -12.57219,1.30252 -16.93281,3.62441 -3.90757,2.09537 -7.78683,4.16241 -11.75103,6.1162 2.85989,7.50367 5.35167,15.14892 7.22051,22.96406 0.84947,3.48283 1.92547,7.30546 2.46347,11.12808 0.14158,-0.16989 0.28316,-0.33979 0.42474,-0.48137 1.4441,-1.64231 2.74662,-3.31294 4.02083,-5.09683 4.95525,-7.0223 8.72125,-14.78081 12.7704,-22.31279 1.95378,-3.766 5.54988,-12.37398 1.78389,-15.94176 z"
     style="fill:#bdcf46;stroke-width:1"
     id="path925"
     inkscape:connector-curvature="0"
     inkscape:export-xdpi="68.17437"
     inkscape:export-ydpi="68.17437" />
  <path
     d="m 215.18943,378.53932 c -3.19968,0.11326 -6.42767,0.085 -9.74061,0.085 -23.587,0 -46.06969,-0.62295 -69.28859,-5.88968 -35.25309,-7.95672 -62.719347,-29.05194 -67.504706,-66.76849 -2.944836,-23.24721 1.755575,-50.79842 19.707749,-67.07997 16.847857,-15.29049 47.145687,-19.50953 67.901127,-12.45892 24.18163,8.2682 41.79401,28.14584 51.8461,51.08158 7.73019,17.66902 12.9686,33.52583 16.22491,52.58231 0.48137,2.91652 5.83304,47.00412 -0.42473,47.82527 -2.88821,0.33979 -5.80473,0.538 -8.72125,0.62295 z"
     style="fill:#bdcf46;stroke-width:1"
     id="path929"
     inkscape:connector-curvature="0"
     inkscape:export-xdpi="68.17437"
     inkscape:export-ydpi="68.17437" />
  <g
     id="g3676"
     inkscape:export-xdpi="68.17437"
     inkscape:export-ydpi="68.17437">
    <path
       d="m 152.47087,260.91052 c 6.96765,-1.24669 13.79368,4.13673 15.23819,12.07019 1.44451,7.90512 -3.03065,15.38524 -9.99829,16.66026 -6.93933,1.24669 -13.76536,-4.13673 -15.2382,-12.04186 -1.44451,-7.93346 3.03065,-15.38524 9.9983,-16.68859 z"
       style="fill:#2f2f2f;stroke-width:2.83288"
       id="path24"
       inkscape:export-xdpi="68.17437"
       inkscape:export-ydpi="68.17437" />
    <path
       d="m 88.714042,271.39402 c 1.982665,-7.7918 9.205228,-12.69354 16.031258,-10.93685 6.85435,1.7567 10.79136,9.52016 8.8087,17.31195 -2.01099,7.79179 -9.17691,12.69353 -16.031263,10.93684 -6.82603,-1.78503 -10.791359,-9.52015 -8.808695,-17.31194 z"
       style="fill:#2f2f2f;stroke-width:2.83288"
       id="path26"
       inkscape:export-xdpi="68.17437"
       inkscape:export-ydpi="68.17437" />
    <path
       d="m 134.20203,304.1288 c -3.22891,1.7567 -6.00464,3.62673 -9.7717,2.23837 -2.18093,-0.79335 -4.24857,-1.41669 -6.14626,-2.83338 -1.35954,-0.99168 -2.88903,-1.81336 -4.24857,-2.80504 -0.70809,-0.51001 -1.38787,-1.04835 -2.09596,-1.55836 -0.79307,-0.59501 -1.0763,-0.85001 -2.09596,-0.99168 -0.82139,-0.085 -2.43584,-0.14167 -3.05897,0.53834 -2.66243,2.97505 1.07631,7.39512 3.08729,9.40681 3.00232,2.91838 7.27922,6.23344 11.21622,7.93346 3.85203,1.6717 7.67574,3.6834 11.78269,1.64336 4.50348,-2.2667 8.41216,-5.55342 12.37749,-8.58513 2.60579,-1.98337 8.44049,-5.46842 7.42083,-9.35015 -0.70809,-2.83338 -3.99365,-2.23837 -6.14626,-1.55836 -2.71908,0.82168 -5.15492,2.21004 -7.67574,3.48506 -1.55781,0.76501 -3.08729,1.61502 -4.6451,2.4367 z"
       style="fill:#2f2f2f;stroke-width:2.83288"
       id="path28"
       inkscape:export-xdpi="68.17437"
       inkscape:export-ydpi="68.17437" />
  </g>
  <g
     id="g22522"
     transform="translate(465.7317,12.512195)">
    <path
       style="fill:#b33434;fill-opacity:1;stroke:none;stroke-width:0.757948px;stroke-linecap:butt;stroke-linejoin:miter;stroke-opacity:1"
       d="m 189.59201,213.00556 c -31.09741,-5.41136 -51.09271,-16.2889 -34.0094,-34.01663 45.29168,-18.33523 91.61285,-7.54886 140.89248,9.96071 -44.23336,-17.28196 -126.97004,-20.68716 -106.88308,24.05592 z"
       id="path12499"
       sodipodi:nodetypes="cccc" />
    <path
       style="fill:#f23434;fill-opacity:1;stroke:none;stroke-width:3.78974;stroke-linecap:butt;stroke-linejoin:miter;stroke-miterlimit:4;stroke-dasharray:none;stroke-opacity:1"
       d="M 336.91484,157.0201 C 286.05979,96.661985 184.07834,54.948853 174.84086,167.37662 c -8.64588,3.63484 -15.55767,7.86522 -20.0288,12.29921 l 73.90016,-3.59078 c 27.68374,-0.30263 65.48598,8.8489 103.26548,29.61436 30.48407,22.63435 55.244,-43.40681 4.93714,-48.67931 z"
       id="path1032"
       sodipodi:nodetypes="cccccc" />
    <path
       id="path2126"
       style="fill:#ffffff;fill-opacity:1;fill-rule:evenodd;stroke:none;stroke-width:3.09682;stroke-linecap:round;stroke-linejoin:round;paint-order:stroke fill markers"
       d="m 182.35903,141.02458 c -0.6613,12.79933 7.9591,25.03478 20.99443,24.17401 13.03533,-0.86075 23.50997,-13.78991 24.17126,-26.58925 0.6613,-12.79932 -8.76403,-24.6982 -21.79936,-23.83743 -13.03533,0.86074 -22.70504,13.45334 -23.36633,26.25267 z"
       sodipodi:nodetypes="sssss" />
    <path
       style="fill:#f23434;fill-opacity:1;stroke:none;stroke-width:0.757948px;stroke-linecap:butt;stroke-linejoin:miter;stroke-opacity:1"
       d="m 309.37818,194.34398 c -77.98013,-32.69171 -89.69154,-17.97824 -134.53732,-26.96736 35.96409,-10.65188 71.98943,-21.1683 134.53732,26.96736 z"
       id="path8667"
       sodipodi:nodetypes="ccc" />
    <path
       style="fill:#b33434;fill-opacity:1;stroke:none;stroke-width:0.757948px;stroke-linecap:butt;stroke-linejoin:miter;stroke-opacity:1"
       d="m 155.58261,178.98893 c 45.29168,-18.33523 91.61285,-7.54886 140.89248,9.96071 -31.46383,-12.2929 -92.84238,-18.56504 -112.40521,-4.48115 0,0 -45.65953,13.6251 -28.48727,-5.47956 z"
       id="path1356"
       sodipodi:nodetypes="cccc" />
    <path
       style="font-variation-settings:normal;fill:none;fill-opacity:1;stroke:#000000;stroke-width:1.5159;stroke-linecap:butt;stroke-linejoin:miter;stroke-miterlimit:4;stroke-dasharray:none;stroke-dashoffset:0;stroke-opacity:0.179705;stop-color:#000000"
       d="M 309.37818,194.34398 C 284.66868,174.4234 248.64406,143.22849 174.84086,167.37662"
       id="path1151"
       sodipodi:nodetypes="cc" />
    <path
       style="color:#000000;fill:#c82323;fill-opacity:1;stroke-width:0.757948"
       d="m 195.21379,121.45073 6.52728,9.3891 c 2.81792,-5.9525 5.52623,-8.89352 9.49881,-13.15057 2.8692,9.63451 7.10834,18.396 11.63724,26.97279 l -6.32856,7.5718 -8.47404,-20.38019 -6.34133,10.87704 -5.91818,-8.61246 c -2.39919,6.29432 -3.11888,14.5894 -3.79998,22.93046 l -6.94187,-5.22303 c 3.07404,-10.11099 4.13839,-20.13016 10.14063,-30.37494 z"
       id="path3301"
       sodipodi:nodetypes="ccccccccccc" />
  </g>
  <g
     id="g22438"
     transform="matrix(0.59042338,-0.02165189,0.02165189,0.59042338,-153.57764,-154.31333)">
    <path
       style="fill:#c92323;fill-opacity:1;stroke:none;stroke-width:0.956861px;stroke-linecap:butt;stroke-linejoin:miter;stroke-opacity:1"
       d="m 525.27717,596.53418 c -79.9953,-195.95593 237.58571,-91.24124 301.70928,-51.30497 59.14582,0.57039 66.11031,151.81438 -85.86768,106.45131 -101.77118,-32.75493 -173.4823,-45.64205 -215.8416,-55.14634 z"
       id="path13558"
       sodipodi:nodetypes="cccc" />
    <ellipse
       style="fill:#ffffff;fill-opacity:1;fill-rule:evenodd;stroke:none;stroke-width:3.71876;stroke-linecap:round;stroke-linejoin:round;stroke-miterlimit:4;stroke-dasharray:none;stroke-opacity:1;paint-order:stroke fill markers"
       id="path18647"
       cx="293.14087"
       cy="715.95569"
       rx="31.964645"
       ry="50.38438"
       transform="matrix(0.94059783,-0.33952279,0.39217396,0.91989107,0,0)" />
    <path
       style="fill:#a72626;fill-opacity:1;stroke:none;stroke-width:1px;stroke-linecap:butt;stroke-linejoin:miter;stroke-opacity:1"
       d="m 537.96871,583.6671 c -1.61605,-12.46071 -4.50523,-25.56681 -3.19492,-36.54406 3.58675,3.56094 7.04071,12.75961 12.38653,20.06827 2.04272,-6.7141 3.65464,-14.42094 6.78957,-18.61808 4.47207,15.41024 12.56976,27.98153 19.7171,41.29696 3.73213,-3.21526 7.56019,-5.80152 9.1042,-10.87248 -12.32938,-15.66327 -21.39036,-33.34162 -26.83118,-53.55667 l -12.50512,20.52665 -11.18533,-21.33333 c -5.35045,10.60776 -4.4863,26.79025 -4.85617,41.86579 2.86704,7.04437 6.68784,12.17263 10.57532,17.16695 z"
       id="path19088"
       sodipodi:nodetypes="ccccccccccc" />
    <path
       style="fill:#c92323;fill-opacity:1;stroke:none;stroke-width:1px;stroke-linecap:butt;stroke-linejoin:miter;stroke-opacity:1"
       d="m 525.45921,591.57012 c -31.21029,-1.20708 -43.63397,10.1816 -62.70381,17.11426 33.61284,7.99783 53.25426,22.09045 92.67309,19.09696 93.76365,25.11252 114.24652,50.06274 185.71284,23.28397 -71.22086,-27.36727 -145.62314,-62.05104 -215.68212,-59.49519 z"
       id="path14317"
       sodipodi:nodetypes="ccccc" />
    <path
       style="fill:#991a1a;fill-opacity:1;stroke:none;stroke-width:1px;stroke-linecap:butt;stroke-linejoin:miter;stroke-opacity:1"
       d="m 462.7554,608.68438 c -16.71209,22.39336 57.90095,35.97167 94.25006,18.75145 -38.83797,-3.89886 -62.70328,-14.91498 -94.25006,-18.75145 z"
       id="path14912"
       sodipodi:nodetypes="ccc" />
    <path
       style="opacity:0.109688;fill:none;stroke:#000000;stroke-width:4;stroke-linecap:butt;stroke-linejoin:miter;stroke-miterlimit:4;stroke-dasharray:none;stroke-opacity:1"
       d="m 525.45921,591.57012 c 85.41865,-0.70835 146.54031,35.4836 215.68212,59.49519"
       id="path16962"
       sodipodi:nodetypes="cc" />
  </g>
</svg>
