<?xml version="1.0" encoding="UTF-8" standalone="no"?>
<!-- Created with Inkscape (http://www.inkscape.org/) -->

<svg
   width="128"
   height="128"
   viewBox="0 0 33.866666 33.866668"
   version="1.1"
   id="svg5"
   sodipodi:docname="geekay.svg"
   inkscape:version="1.1-rc (52f87ab, 2021-05-02)"
   xmlns:inkscape="http://www.inkscape.org/namespaces/inkscape"
   xmlns:sodipodi="http://sodipodi.sourceforge.net/DTD/sodipodi-0.dtd"
   xmlns="http://www.w3.org/2000/svg"
   xmlns:svg="http://www.w3.org/2000/svg">
  <sodipodi:namedview
     id="namedview7"
     pagecolor="#ffffff"
     bordercolor="#666666"
     borderopacity="1.0"
     objecttolerance="10.0"
     gridtolerance="10.0"
     guidetolerance="10.0"
     inkscape:pageshadow="2"
     inkscape:pageopacity="0.0"
     inkscape:pagecheckerboard="0"
     inkscape:document-units="mm"
     showgrid="false"
     units="px"
     width="128px"
     inkscape:zoom="1.0444209"
     inkscape:cx="-105.32152"
     inkscape:cy="-88.08709"
     inkscape:window-width="1920"
     inkscape:window-height="1080"
     inkscape:window-x="0"
     inkscape:window-y="0"
     inkscape:window-maximized="1"
     inkscape:current-layer="layer1" />
  <defs
     id="defs2" />
  <g
     inkscape:label="Layer 1"
     inkscape:groupmode="layer"
     id="layer1">
    <g
       id="g1513">
      <path
         d="m 10.576221,9.5695212 c 0,0 0.678344,-0.3937059 1.058749,-0.5639571 l 5.916229,2.1760229 9.568649,0.258037 c 0,0 0.718248,0.744849 0.931062,1.000226 l 1.737094,4.985168 1.401912,0.561297 c 0,0 0.321881,0.962983 0.412327,1.327427 l -0.289959,2.298391 -13.870152,3.439606 -11.1381523,-2.732 0.034582,-6.84729 3.4050239,-4.434511 z"
         style="fill:#2f2f2f;stroke-width:0.093947"
         id="path909"
         inkscape:connector-curvature="0" />
      <path
         d="m 19.365438,15.352741 c -0.0266,1.346049 -0.101086,5.213943 -0.07448,7.459131 0.444249,0.01064 0.931061,-0.0133 1.468416,-0.06917 0.718247,-0.07182 1.468417,-0.215474 2.191984,-0.353803 l 0.46021,-0.08779 c 0.742189,-0.140989 1.428514,-0.316561 2.098878,-0.537355 1.034809,-0.340502 2.178684,-0.779431 3.210832,-1.415213 -0.75815,-2.641554 -2.1175,-4.623384 -2.553768,-5.216603 -2.926193,-0.231435 -5.730017,0.07714 -6.802068,0.220794 z"
         style="fill:#757f3f;stroke-width:0.093947"
         id="path911"
         inkscape:connector-curvature="0" />
      <path
         d="m 27.14379,14.541388 c 0.518734,0.710267 1.763696,2.58835 2.556428,5.112856 0.579918,-0.481491 1.080031,-1.056089 1.463096,-1.734434 -0.356463,-0.992245 -0.787412,-1.955228 -1.303486,-2.872989 -0.518734,-0.92042 -1.122593,-1.800938 -1.806258,-2.609631 -0.252717,0.827314 -0.654403,1.636007 -0.90978,2.104198 z"
         style="fill:#757f3f;stroke-width:0.093947"
         id="path913"
         inkscape:connector-curvature="0" />
      <path
         d="m 11.93291,10.862366 c 1.133234,0.433609 5.014429,1.97651 7.020201,3.399704 0.864557,-0.127689 3.907797,-0.521395 7.193113,-0.271338 0.425628,-0.784752 0.872538,-1.838181 0.970964,-2.553768 -0.0399,-0.0399 -0.07448,-0.08246 -0.114387,-0.119708 C 25.638131,10.035052 23.909017,9.3301054 22.163942,8.7395466 19.727222,7.9148924 17.075028,7.6249333 14.534561,8.0798232 13.529015,8.2607151 12.558051,8.5719556 11.63497,9.0055641 Z"
         style="fill:#757f3f;stroke-width:0.093947"
         id="path915"
         inkscape:connector-curvature="0" />
      <path
         d="m 31.594262,19.321722 c -0.529374,0.678345 -1.170476,1.242302 -1.856802,1.710493 -0.0133,0.01064 -0.02926,0.01862 -0.0399,0.02926 -1.260923,0.851256 -2.668156,1.399252 -3.830652,1.779657 -0.718247,0.236755 -1.449795,0.425628 -2.242528,0.574598 l -0.46021,0.08779 c -0.750169,0.14365 -1.52162,0.29262 -2.29041,0.372425 -0.45223,0.04522 -0.920421,0.08247 -1.391272,0.08247 -1.404572,0 -2.814465,-0.329861 -3.843953,-1.737094 -0.414987,-0.571938 -0.877857,-1.053429 -1.36999,-1.431174 L 14.06371,20.630528 c -0.311241,-0.247396 -0.893819,-0.710266 -1.194419,-0.718247 l 0.02926,-1.135895 c 0.681005,0.01862 1.36999,0.563958 1.872763,0.962984 l 0.186213,0.146309 c 0.577258,0.441589 1.117273,1.000226 1.598765,1.66261 0.433608,0.593219 0.962983,0.931061 1.598765,1.109293 -0.02128,-2.399478 0.05586,-6.38974 0.07981,-7.512334 -1.947248,-1.36467 -5.863025,-2.904911 -6.796747,-3.261375 -0.367104,0.226115 -1.314126,1.013527 -2.4287394,2.149422 -0.1117274,0.114387 -0.2606972,0.170251 -0.4070068,0.170251 -0.1436494,0 -0.2872989,-0.0532 -0.396366,-0.162271 -0.2234547,-0.218134 -0.2287751,-0.577258 -0.00798,-0.803373 0.7049464,-0.715587 1.8222202,-1.798278 2.6043112,-2.28243 L 10.576221,9.566861 c -1.9046856,1.138555 -3.7854293,2.904911 -4.9160036,4.958566 -1.1332345,2.050995 -1.5162997,4.383968 -0.4362687,6.642457 0.3538033,0.731548 1.06407,1.960549 1.7769968,2.386177 0.6304615,0.377744 1.2981654,0.699626 1.9791702,0.981604 0.6038597,0.250057 1.1146133,0.563957 1.7344343,0.744849 0.553316,0.164931 1.125254,0.343163 1.686551,0.468191 0.566617,0.127688 1.154515,0.167591 1.723793,0.273998 0.505433,0.09311 1.016187,0.178232 1.52694,0.186212 2.620273,0.03458 5.269807,0.172912 7.842196,-0.449569 1.564183,-0.377745 3.115065,-0.848596 4.586141,-1.497679 0.744849,-0.324541 1.471077,-0.696966 2.154742,-1.133234 0.555977,-0.351143 1.287525,-0.696966 1.577484,-1.324767 0.30592,-0.662384 0.04522,-1.463097 -0.117048,-2.133461 -0.02926,-0.111727 -0.06916,-0.231435 -0.101087,-0.348483 z"
         style="fill:#757f3f;stroke-width:0.093947"
         id="path917"
         inkscape:connector-curvature="0" />
      <path
         d="M 7.8761431,25.67422 C 7.6154459,25.51993 7.2430214,25.466726 6.7375882,25.394902 6.0725445,25.301796 5.3489769,25.115583 4.6839332,25.235291 c -0.5719376,0.103747 -0.6331216,0.250057 -0.8193339,0.779431 -0.289959,0.832635 -1.1332345,3.327879 -0.4788315,4.115291 0.1622707,0.194193 0.5400155,0.263357 0.7714508,0.332522 0.6677039,0.202173 1.3779706,0.247396 2.0802567,0.295279 0.5985394,0.0399 1.1890982,-0.06916 1.7610358,-0.228775 C 8.4267993,30.409331 8.6156717,30.308245 8.650254,29.834734 8.727399,28.823867 8.5012842,27.826302 8.4108382,26.823416 8.346994,26.174333 8.1873835,25.855112 7.8761431,25.67422 Z"
         style="fill:#bdcf46;stroke-width:0.093947"
         id="path921"
         inkscape:connector-curvature="0" />
      <path
         d="m 30.974442,22.676203 c -0.247397,0.164931 -0.510754,0.31124 -0.742189,0.45755 -0.683665,0.433608 -1.409893,0.806033 -2.154742,1.133234 -1.471076,0.649083 -3.021958,1.119934 -4.586141,1.497679 -2.572389,0.622481 -5.221924,0.484152 -7.842196,0.44957 -0.513414,-0.008 -1.024167,-0.09311 -1.52694,-0.186213 -0.14099,-0.0266 -0.279319,-0.04788 -0.420308,-0.06916 l 0.138329,1.476397 c 0,0 0.500113,0.03724 1.393932,-0.01862 -0.172912,1.710492 -0.228775,3.556653 0.207493,3.907796 0.196853,0.159611 0.614501,0.188873 0.869878,0.231436 0.750169,0.125028 1.52694,0.106407 2.298391,0.09311 0.657063,-0.01064 1.290185,-0.15429 1.896705,-0.340503 0.454889,-0.138329 0.651742,-0.239415 0.643762,-0.657063 -0.008,-0.534695 -0.188873,-2.253168 -0.372425,-3.724245 1.686551,-0.220794 3.764148,-0.638442 5.642231,-1.417873 0.0266,0.590559 0.05054,1.095992 0.04788,1.199739 -0.01596,0.407007 -0.02128,0.962983 0.337843,1.276884 1.000225,0.880518 3.476848,0.367104 4.626044,-0.01596 0.856576,-0.281979 0.593219,-1.279544 0.422968,-1.862122 -0.09843,-0.348483 -0.494793,-2.162723 -0.880518,-3.431626 z"
         style="fill:#bdcf46;stroke-width:0.093947"
         id="path923"
         inkscape:connector-curvature="0" />
      <path
         d="m 33.711762,16.605684 c -0.44691,-0.420308 -1.181118,0.122368 -1.590785,0.340502 -0.367104,0.196853 -0.731548,0.391046 -1.103972,0.574598 0.268677,0.704946 0.502773,1.423194 0.678344,2.157402 0.07981,0.327201 0.180892,0.686325 0.231435,1.045449 0.0133,-0.01596 0.0266,-0.03192 0.0399,-0.04522 0.135669,-0.154291 0.258037,-0.311241 0.377745,-0.478832 0.46553,-0.659723 0.819334,-1.388611 1.199739,-2.096218 0.183552,-0.353803 0.521394,-1.162496 0.167591,-1.497678 z"
         style="fill:#bdcf46;stroke-width:0.093947"
         id="path925"
         inkscape:connector-curvature="0" />
      <path
         d="m 14.741996,27.434718 c -0.320122,0.01133 -0.643079,0.0085 -0.974534,0.0085 -2.359847,0 -4.6092102,-0.06232 -6.9322293,-0.589253 -3.5270229,-0.79608 -6.27498456,-2.906629 -6.75375313,-6.680117 -0.29462682,-2.325853 0.1756429,-5.082313 1.97173333,-6.71126 1.6856053,-1.529793 4.716862,-1.951902 6.7934144,-1.246498 2.4193397,0.827221 4.1814347,2.815952 5.1871317,5.110642 0.773395,1.767761 1.297491,3.354213 1.623281,5.260789 0.04816,0.291794 0.583587,4.702697 -0.04249,4.784852 -0.288961,0.03399 -0.580755,0.05382 -0.872549,0.06232 z"
         style="fill:#bdcf46;stroke-width:0.100049"
         id="path929"
         inkscape:connector-curvature="0" />
      <path
         style="fill:#644502;fill-opacity:1;stroke:none;stroke-width:0.0939469px;stroke-linecap:butt;stroke-linejoin:miter;stroke-opacity:1"
         d="M 6.7698885,5.0412161 C 7.5106288,4.4657613 9.4213572,7.3623666 12.100529,7.260189 12.541224,5.2456746 13.37205,2.3141934 15.161184,2.2101087 c 0.916554,-0.053323 2.02274,0.9919317 3.111666,0.9947134 1.078255,0.00276 2.019618,-1.1277121 3.086161,-0.9692078 1.930223,0.2868547 2.933128,4.9990691 2.933128,4.9990691 2.795925,0.058535 4.152189,-2.8566553 5.051363,-2.2444795 3.62374,2.4671129 -3.8456,7.2945621 -10.508249,7.2945621 -8.638278,0 -15.202579,-4.8063731 -12.0653645,-7.2435499 z"
         id="path945"
         inkscape:connector-curvature="0"
         sodipodi:nodetypes="scsascsss" />
      <path
         style="fill:#805d0b;fill-opacity:1;stroke:none;stroke-width:0.0939469px;stroke-linecap:butt;stroke-linejoin:miter;stroke-opacity:1"
         d="m 13.615583,7.1529562 -0.270526,1.0460356 c 3.180186,2.2360802 7.045705,1.7685061 9.540559,-0.036072 L 22.75937,7.1529562 c -2.849277,1.4065455 -5.964883,2.128347 -9.143787,0 z"
         id="path947"
         inkscape:connector-curvature="0"
         sodipodi:nodetypes="ccccc" />
      <path
         style="fill:#805d0b;fill-opacity:1;stroke:none;stroke-width:0.0939469px;stroke-linecap:butt;stroke-linejoin:miter;stroke-opacity:1"
         d="m 13.904145,5.9626415 c 0,0 0.968602,-2.021986 1.929754,-2.3084921 0.752689,-0.2243667 1.469153,0.6682048 2.254385,0.6853332 0.893591,0.019499 1.753606,-0.963074 2.597052,-0.6672972 0.915621,0.321086 1.749404,2.3265252 1.749404,2.3265252 -3.122709,1.1046801 -6.031658,1.3543299 -8.530595,-0.036069 z"
         id="path949"
         inkscape:connector-curvature="0"
         sodipodi:nodetypes="caaacc" />
      <path
         fill="#664500"
         d="m 12.800382,20.799274 c -0.104213,-0.09426 -0.259947,-0.100103 -0.37177,-0.01704 -0.02283,0.01704 -2.296194,1.697846 -5.0935448,1.697846 -2.7903251,0 -5.0712964,-1.680868 -5.0935436,-1.697846 -0.1118112,-0.08313 -0.2675584,-0.07612 -0.3717694,0.01704 -0.1036248,0.09366 -0.1270355,0.248237 -0.055031,0.367672 0.075523,0.125882 1.8834397,3.069591 5.520347,3.069591 3.6369078,0 5.4454088,-2.943717 5.5203488,-3.069591 0.07201,-0.120024 0.04918,-0.273997 -0.05504,-0.367672 z"
         id="path866"
         style="fill:#363927;fill-opacity:1;stroke-width:0.585464" />
      <path
         fill="#ffffff"
         d="m 10.514312,22.240999 c 0.01296,-0.0035 -1.176711,0.306757 -1.9849896,0.3944 -0.2970167,0.03407 -0.5980937,0.06168 -0.9064731,0.07223 v 3.665657 h 1.2684131 c 0.8926776,0 1.6230496,-0.730372 1.6230496,-1.623049 z m -6.4921984,0 c -0.012964,-0.0035 1.1767108,0.306757 1.9849896,0.3944 0.2970166,0.03407 0.5980939,0.06168 0.9064733,0.07223 v 3.665657 H 5.6451634 c -0.8926776,0 -1.6230498,-0.730372 -1.6230498,-1.623049 z"
         id="path870"
         style="stroke-width:0.811524" />
      <path
         style="fill:#363927;fill-opacity:1;stroke-width:0.397179"
         d="m 3.4755526,18.057151 c 0,0.680764 0.372554,1.232844 0.8324874,1.232844 0.4595365,0 0.8324881,-0.55208 0.8324881,-1.232844 0,-0.680765 -0.3725544,-1.232846 -0.8324881,-1.232846 -0.4599334,0 -0.8324874,0.552081 -0.8324874,1.232846 z"
         id="path1028" />
      <path
         style="fill:#363927;fill-opacity:1;stroke-width:0.402371"
         d="m 10.59465,18.080505 c 0,0.689665 -0.377426,1.248962 -0.8433726,1.248962 -0.4655445,0 -0.8433719,-0.559297 -0.8433719,-1.248962 0,-0.689665 0.377425,-1.248964 0.8433719,-1.248964 0.4659466,0 0.8433726,0.559299 0.8433726,1.248964 z"
         id="path1026" />
      <path
         fill="#292f33"
         d="m 14.376745,16.242269 c -0.07345,-0.07132 -0.544297,0.117719 -1.020718,-0.125007 -0.982913,-0.500907 -3.4668328,-0.984202 -5.083829,0.161523 -0.1731268,0.12244 -0.8965649,0.143061 -1.0989042,0.134471 -0.2023393,0.009 -0.9257775,-0.01148 -1.0989044,-0.134471 -1.6165666,-1.14573 -4.1004859,-0.662435 -5.08339855,-0.161523 -0.47642112,0.242722 -0.94725847,0.05369 -1.02071803,0.125007 -0.10610657,0.102662 -0.10610657,0.513794 4.2865e-4,0.616896 0.10568446,0.102675 0.63451269,0.221243 0.73976364,0.529262 0.10610658,0.30845 0.10696713,2.129933 0.95069419,2.75972 0.7900243,0.589404 2.6329878,0.766828 3.8010571,0.102247 1.0189995,-0.579523 0.9833432,-1.799573 1.1702171,-2.526448 0.066586,-0.259045 0.2543204,-0.389642 0.5412899,-0.389642 0.2869695,0 0.4747025,0.130592 0.5412898,0.389642 0.1868739,0.726446 0.1507884,1.946925 1.1702171,2.526448 1.1680697,0.664154 3.0110327,0.486732 3.8006277,-0.102247 0.844155,-0.629357 0.845014,-2.45127 0.950694,-2.75972 0.105252,-0.308019 0.634082,-0.427018 0.739764,-0.529262 0.106545,-0.103102 0.106973,-0.514224 4.29e-4,-0.616896 z M 5.7015008,17.81029 c -0.033079,0.474702 -0.1177098,1.386303 -0.6860634,1.70979 -0.3484017,0.198472 -0.8024838,0.319188 -1.2776166,0.319188 h -4.286e-4 c -0.5262547,0 -1.2557065,-0.149069 -1.5409587,-0.361719 C 1.8398698,19.21163 1.7041183,18.117021 1.6529955,17.707617 1.6203435,17.446852 1.532714,16.809762 1.8196795,16.711814 2.2750499,16.556738 2.9104214,16.435585 3.560398,16.435585 c 0.2977106,0 1.2978075,0.01848 1.7849685,0.31833 0.4317431,0.265061 0.374607,0.795181 0.3561343,1.056375 z M 12.69445,17.701607 c -0.05112,0.409834 -0.186874,1.510028 -0.543437,1.775947 -0.285251,0.21265 -1.014704,0.361719 -1.540958,0.361719 h -4.29e-4 c -0.475562,0 -0.929215,-0.120723 -1.2780463,-0.319188 C 8.7632254,19.197028 8.6785952,18.291012 8.6455162,17.816309 8.6274736,17.555115 8.5699071,17.021129 9.0016505,16.756068 9.4892411,16.45621 10.488909,16.43559 10.786619,16.43559 c 0.649977,0 1.284919,0.119002 1.740719,0.274081 0.28697,0.09794 0.199762,0.731172 0.167112,0.991936 z"
         id="path874"
         style="stroke-width:0.429594" />
    </g>
  </g>
</svg>
