<?xml version="1.0" encoding="UTF-8" standalone="no"?>
<svg
   width="512"
   height="512"
   version="1.1"
   id="svg38"
   inkscape:version="1.1-rc (52f87ab, 2021-05-02)"
   inkscape:export-xdpi="96"
   inkscape:export-ydpi="96"
   sodipodi:docname="gkplead.svg"
   xmlns:inkscape="http://www.inkscape.org/namespaces/inkscape"
   xmlns:sodipodi="http://sodipodi.sourceforge.net/DTD/sodipodi-0.dtd"
   xmlns="http://www.w3.org/2000/svg"
   xmlns:svg="http://www.w3.org/2000/svg"
   xmlns:rdf="http://www.w3.org/1999/02/22-rdf-syntax-ns#"
   xmlns:cc="http://creativecommons.org/ns#"
   xmlns:dc="http://purl.org/dc/elements/1.1/">
  <metadata
     id="metadata44">
    <rdf:RDF>
      <cc:Work
         rdf:about="">
        <dc:format>image/svg+xml</dc:format>
        <dc:type
           rdf:resource="http://purl.org/dc/dcmitype/StillImage" />
      </cc:Work>
    </rdf:RDF>
  </metadata>
  <defs
     id="defs42" />
  <sodipodi:namedview
     pagecolor="#ffffff"
     bordercolor="#666666"
     borderopacity="1"
     objecttolerance="10"
     gridtolerance="10"
     guidetolerance="10"
     inkscape:pageopacity="0"
     inkscape:pageshadow="2"
     inkscape:window-width="1920"
     inkscape:window-height="1080"
     id="namedview40"
     showgrid="false"
     inkscape:zoom="2.2109375"
     inkscape:cx="256"
     inkscape:cy="633.66784"
     inkscape:window-x="0"
     inkscape:window-y="0"
     inkscape:window-maximized="1"
     inkscape:current-layer="svg38"
     inkscape:pagecheckerboard="0" />
  <path
     d="m 180.41771,188.37087 c 0,0 7.22052,-4.19073 11.26967,-6.00293 l 62.97418,23.16226 101.85169,2.74663 c 0,0 7.64524,7.9284 9.9105,10.64671 l 18.49017,53.06368 14.92239,5.97462 c 0,0 3.42621,10.2503 4.38894,14.12955 l -3.08641,24.46479 -147.63822,36.61224 -118.55797,-29.08025 0.3681,-72.88469 36.24414,-47.20233 z"
     style="fill:#2f2f2f;stroke-width:1"
     id="path909"
     inkscape:connector-curvature="0"
     inkscape:export-xdpi="34.087185"
     inkscape:export-ydpi="34.087185" />
  <path
     d="m 273.97289,249.92927 c -0.28316,14.32776 -1.076,55.49883 -0.79284,79.39731 4.72873,0.11326 9.9105,-0.14158 15.63028,-0.73621 7.64525,-0.76452 15.63029,-2.29357 23.33216,-3.76599 l 4.89863,-0.93442 c 7.90009,-1.50073 15.20554,-3.36957 22.34111,-5.71978 11.01482,-3.62441 23.19058,-8.29651 34.17709,-15.06397 -8.06999,-28.11752 -22.53933,-49.21274 -27.18311,-55.52715 -31.1473,-2.46346 -60.99208,0.82116 -72.40332,2.35021 z"
     style="fill:#757f3f;stroke-width:1"
     id="path911"
     inkscape:connector-curvature="0"
     inkscape:export-xdpi="34.087185"
     inkscape:export-ydpi="34.087185" />
  <path
     d="m 356.76809,241.29297 c 5.52156,7.5603 18.77333,27.55121 27.21141,54.42284 6.17283,-5.12515 11.49619,-11.24135 15.57366,-18.46186 -3.79431,-10.56177 -8.38146,-20.81206 -13.87471,-30.58099 -5.52157,-9.79724 -11.94924,-19.16975 -19.22638,-27.77773 -2.69,8.80619 -6.96567,17.41417 -9.68398,22.39774 z"
     style="fill:#757f3f;stroke-width:1"
     id="path913"
     inkscape:connector-curvature="0"
     inkscape:export-xdpi="34.087185"
     inkscape:export-ydpi="34.087185" />
  <path
     d="m 194.85874,202.13232 c 12.0625,4.61546 53.37515,21.03858 74.72521,36.1875 9.20261,-1.35916 41.59581,-5.54988 76.56574,-2.8882 4.53051,-8.35315 9.28756,-19.56617 10.33524,-27.18311 -0.42474,-0.42473 -0.79284,-0.87778 -1.21758,-1.2742 -14.52597,-13.64819 -32.93119,-21.15186 -51.50631,-27.43795 -25.93721,-8.77787 -54.16799,-11.86429 -81.20952,-7.0223 -10.70334,1.92547 -21.03859,5.23841 -30.86414,9.85388 z"
     style="fill:#757f3f;stroke-width:1"
     id="path915"
     inkscape:connector-curvature="0"
     inkscape:export-xdpi="34.087185"
     inkscape:export-ydpi="34.087185" />
  <path
     d="m 404.1403,292.17634 c -5.63483,7.22051 -12.45892,13.22345 -19.76438,18.20702 -0.14157,0.11326 -0.31147,0.19821 -0.42473,0.31147 -13.42166,9.06103 -28.40068,14.89407 -40.77465,18.94322 -7.64525,2.5201 -15.43208,4.53052 -23.87017,6.1162 l -4.89862,0.93442 c -7.98503,1.52905 -16.19659,3.11473 -24.37984,3.9642 -4.81368,0.48137 -9.79724,0.87779 -14.80913,0.87779 -14.9507,0 -29.95804,-3.51115 -40.91623,-18.49017 -4.41725,-6.08789 -9.34419,-11.21303 -14.5826,-15.23387 l -2.18031,-1.69894 c -3.31294,-2.63336 -9.51409,-7.5603 -12.71377,-7.64525 l 0.31148,-12.09081 c 7.24882,0.19821 14.5826,6.00293 19.93427,10.25029 l 1.9821,1.55737 c 6.14452,4.70041 11.89261,10.64671 17.01776,17.69733 4.61546,6.31441 10.25029,9.9105 17.01775,11.80766 -0.22652,-25.54079 0.59463,-68.01439 0.84947,-79.96363 -20.72711,-14.52597 -62.40787,-30.92078 -72.34669,-34.71508 -3.90757,2.40683 -13.98797,10.78829 -25.85226,22.87911 -1.18926,1.21757 -2.77494,1.8122 -4.33231,1.8122 -1.52905,0 -3.0581,-0.56631 -4.21904,-1.72726 -2.37852,-2.32189 -2.43515,-6.14451 -0.0849,-8.55135 7.50367,-7.61693 19.39628,-19.14143 27.7211,-24.29489 l -2.40684,-14.78082 c -20.27406,12.11914 -40.29328,30.92078 -52.32747,52.78053 -12.0625,21.83143 -16.13996,46.66432 -4.64378,70.70438 3.766,7.78682 11.3263,20.86869 18.91491,25.39921 6.71083,4.02083 13.81808,7.44704 21.06691,10.4485 6.42767,2.66168 11.86429,6.00294 18.46185,7.92841 5.88967,1.75557 11.97756,3.65273 17.95218,4.98357 6.03125,1.35915 12.28902,1.78389 18.34859,2.91652 5.37999,0.99105 10.81661,1.89715 16.25323,1.9821 27.89099,0.3681 56.09346,1.84052 83.47477,-4.78536 16.64965,-4.02083 33.15773,-9.03272 48.81632,-15.94176 7.92841,-3.45452 15.6586,-7.41872 22.93575,-12.0625 5.91798,-3.73768 13.70481,-7.41872 16.79122,-14.10123 3.25631,-7.05062 0.48137,-15.57365 -1.24589,-22.70922 -0.31147,-1.18926 -0.73621,-2.46347 -1.076,-3.70936 z"
     style="fill:#757f3f;stroke-width:1"
     id="path917"
     inkscape:connector-curvature="0"
     inkscape:export-xdpi="34.087185"
     inkscape:export-ydpi="34.087185" />
  <path
     d="m 151.67725,359.79431 c -2.77494,-1.64232 -6.73915,-2.20863 -12.11914,-2.97316 -7.07893,-0.99105 -14.78081,-2.97315 -21.85974,-1.69894 -6.08788,1.10431 -6.73914,2.66168 -8.72125,8.29651 -3.08641,8.86282 -12.062496,35.42298 -5.09683,43.80444 1.72726,2.06704 5.7481,2.80325 8.21157,3.53946 7.10724,2.152 14.66754,2.63336 22.1429,3.14305 6.37104,0.42473 12.65713,-0.73621 18.74501,-2.43516 4.55883,-1.2742 6.56925,-2.3502 6.93736,-7.3904 0.82115,-10.75998 -1.58569,-21.37838 -2.54842,-32.05341 -0.67958,-6.90904 -2.37852,-10.30692 -5.69146,-12.23239 z"
     style="fill:#bdcf46;stroke-width:1"
     id="path921"
     inkscape:connector-curvature="0"
     inkscape:export-xdpi="34.087185"
     inkscape:export-ydpi="34.087185" />
  <path
     d="m 397.54274,327.88248 c -2.63336,1.75557 -5.43662,3.31294 -7.90009,4.8703 -7.27714,4.61547 -15.00734,8.57967 -22.93574,12.0625 -15.6586,6.90904 -32.16667,11.92093 -48.81632,15.94176 -27.38131,6.62588 -55.58378,5.15346 -83.47478,4.78536 -5.46493,-0.0849 -10.90155,-0.99105 -16.25323,-1.9821 -1.50073,-0.28316 -2.97315,-0.50969 -4.47388,-0.73621 l 1.47242,15.71523 c 0,0 5.32335,0.39642 14.83744,-0.19821 -1.84052,18.20701 -2.43515,37.85813 2.20863,41.59581 2.09536,1.69894 6.54093,2.01042 9.25924,2.46347 7.98504,1.33084 16.25323,1.13263 24.46479,0.99105 6.99399,-0.11327 13.73313,-1.64231 20.18912,-3.62442 4.84199,-1.47241 6.93735,-2.54841 6.85241,-6.99398 -0.0849,-5.69146 -2.01042,-23.98343 -3.96421,-39.64202 17.95218,-2.35021 40.06676,-6.79578 60.05767,-15.09229 0.28316,6.28609 0.538,11.66608 0.50968,12.7704 -0.16989,4.3323 -0.22652,10.25029 3.5961,13.59155 10.64671,9.3725 37.00866,3.90757 49.24106,-0.1699 9.11766,-3.00147 6.3144,-13.61986 4.5022,-19.82101 -1.04769,-3.70936 -5.26673,-23.02069 -9.37251,-36.52729 z"
     style="fill:#bdcf46;stroke-width:1"
     id="path923"
     inkscape:connector-curvature="0"
     inkscape:export-xdpi="34.087185"
     inkscape:export-ydpi="34.087185" />
  <path
     d="m 426.67963,263.26598 c -4.75705,-4.47389 -12.57219,1.30252 -16.93281,3.62441 -3.90757,2.09537 -7.78683,4.16241 -11.75103,6.1162 2.85989,7.50367 5.35167,15.14892 7.22051,22.96406 0.84947,3.48283 1.92547,7.30546 2.46347,11.12808 0.14158,-0.16989 0.28316,-0.33979 0.42474,-0.48137 1.4441,-1.64231 2.74662,-3.31294 4.02083,-5.09683 4.95525,-7.0223 8.72125,-14.78081 12.7704,-22.31279 1.95378,-3.766 5.54988,-12.37398 1.78389,-15.94176 z"
     style="fill:#bdcf46;stroke-width:1"
     id="path925"
     inkscape:connector-curvature="0"
     inkscape:export-xdpi="34.087185"
     inkscape:export-ydpi="34.087185" />
  <path
     d="m 215.18943,378.53932 c -3.19968,0.11326 -6.42767,0.085 -9.74061,0.085 -23.587,0 -46.06969,-0.62295 -69.28859,-5.88968 -35.25309,-7.95672 -62.719347,-29.05194 -67.504706,-66.76849 -2.944836,-23.24721 1.755575,-50.79842 19.707749,-67.07997 16.847857,-15.29049 47.145687,-19.50953 67.901127,-12.45892 24.18163,8.2682 41.79401,28.14584 51.8461,51.08158 7.73019,17.66902 12.9686,33.52583 16.22491,52.58231 0.48137,2.91652 5.83304,47.00412 -0.42473,47.82527 -2.88821,0.33979 -5.80473,0.538 -8.72125,0.62295 z"
     style="fill:#bdcf46;stroke-width:1"
     id="path929"
     inkscape:connector-curvature="0"
     inkscape:export-xdpi="34.087185"
     inkscape:export-ydpi="34.087185" />
  <path
     d="m -42.845774,260.9724 c 6.96567,-1.24589 13.789761,4.1341 15.233864,12.06251 1.444102,7.90009 -3.029783,15.37544 -9.995453,16.64965 -6.937354,1.24589 -13.761446,-4.1341 -15.233864,-12.03419 -1.444102,-7.9284 3.029784,-15.37544 9.995453,-16.67797 z"
     style="fill:#2f2f2f;stroke-width:1"
     id="path931"
     inkscape:connector-curvature="0" />
  <path
     d="m -106.58448,271.44923 c 1.9821,-7.78683 9.202609,-12.68545 16.0267,-10.92988 6.852407,1.75558 10.788293,9.51409 8.806192,17.30091 -2.010417,7.78683 -9.174297,12.68545 -16.026704,10.92988 -6.824088,-1.78389 -10.788298,-9.51409 -8.806188,-17.30091 z"
     style="fill:#2f2f2f;stroke-width:1"
     id="path933"
     inkscape:connector-curvature="0" />
  <path
     d="m -61.10942,305.76789 c -3.227993,1.75558 -6.002935,3.62441 -9.768927,2.23694 -2.180312,-0.79284 -4.24736,-1.41578 -6.144514,-2.83157 -1.359155,-0.99105 -2.888204,-1.81221 -4.24736,-2.80326 -0.707893,-0.50968 -1.38747,-1.04768 -2.095364,-1.55736 -0.79284,-0.59463 -1.075997,-0.84947 -2.095364,-0.99105 -0.821156,-0.0849 -2.435153,-0.14158 -3.058099,0.538 -2.661678,2.97315 1.075998,7.3904 3.086415,9.40082 3.001468,2.91652 7.277143,6.22946 11.213029,7.9284 3.85094,1.67063 7.673564,3.68105 11.779345,1.64232 4.502201,-2.26526 8.409772,-5.54989 12.373974,-8.57967 2.605047,-1.9821 8.438088,-5.46494 7.418722,-9.34419 -0.707894,-2.83157 -3.992519,-2.23694 -6.144514,-1.55737 -2.71831,0.82116 -5.153463,2.20863 -7.673563,3.48284 -1.557365,0.76452 -3.086415,1.61399 -4.64378,2.43515 z"
     style="fill:#2f2f2f;stroke-width:1"
     id="path935"
     inkscape:connector-curvature="0" />
  <path
     style="fill:#644502;fill-opacity:1;stroke:none;stroke-width:1px;stroke-linecap:butt;stroke-linejoin:miter;stroke-opacity:1"
     d="m 139.90193,140.17018 c 7.88467,-6.12532 28.22306,24.70705 56.741,23.61944 4.6909,-21.44312 13.53447,-52.64672 32.57857,-53.75463 9.75608,-0.56759 21.53067,10.55843 33.12154,10.58804 11.47728,0.0294 21.49744,-12.00372 32.85006,-10.31655 20.5459,3.05337 31.22113,53.21165 31.22113,53.21165 29.7607,0.62306 44.19719,-30.40713 53.76828,-23.89094 38.57222,26.26072 -40.93376,77.64559 -111.85308,77.64559 -91.94852,0 -161.82099,-51.16053 -128.4275,-77.1026 z"
     id="path945"
     inkscape:connector-curvature="0"
     sodipodi:nodetypes="scsascsss"
     inkscape:export-xdpi="34.087185"
     inkscape:export-ydpi="34.087185" />
  <path
     style="fill:#805d0b;fill-opacity:1;stroke:none;stroke-width:1px;stroke-linecap:butt;stroke-linejoin:miter;stroke-opacity:1"
     d="m 212.76964,162.6482 -2.87957,11.13433 c 33.8509,23.80153 74.99669,18.82453 101.55269,-0.38396 l -1.3438,-10.75037 c -30.3286,14.97171 -63.49208,22.65479 -97.32932,0 z"
     id="path947"
     inkscape:connector-curvature="0"
     sodipodi:nodetypes="ccccc"
     inkscape:export-xdpi="34.087185"
     inkscape:export-ydpi="34.087185" />
  <path
     style="fill:#805d0b;fill-opacity:1;stroke:none;stroke-width:1px;stroke-linecap:butt;stroke-linejoin:miter;stroke-opacity:1"
     d="m 215.84118,149.97812 c 0,0 10.3101,-21.52265 20.5409,-24.57231 8.01186,-2.38823 15.63813,7.11258 23.99638,7.2949 9.51166,0.20755 18.66593,-10.25126 27.64383,-7.10292 9.74616,3.41774 18.6212,24.76426 18.6212,24.76426 -33.23908,11.75856 -64.20284,14.41591 -90.80231,-0.38393 z"
     id="path949"
     inkscape:connector-curvature="0"
     sodipodi:nodetypes="caaacc"
     inkscape:export-xdpi="34.087185"
     inkscape:export-ydpi="34.087185" />
  <path
     fill="#65471b"
     d="m 145.47166,327.87036 c -0.41032,0 -0.82065,-0.0637 -1.23097,-0.19521 -7.01139,-2.27471 -14.40123,-2.27471 -21.41261,0 -2.08748,0.67326 -4.3383,-0.46609 -5.01952,-2.55756 -0.68122,-2.09146 0.4661,-4.33829 2.56155,-5.01951 8.61285,-2.79659 17.7157,-2.79659 26.32854,0 2.09147,0.68122 3.23879,2.92805 2.56155,5.01951 -0.54577,1.67716 -2.1074,2.75277 -3.78854,2.75277 z"
     id="path845"
     style="fill:#36461e;fill-opacity:1;stroke-width:3.98374"
     inkscape:export-xdpi="34.087185"
     inkscape:export-ydpi="34.087185" />
  <path
     fill="#ffffff"
     d="m 182.67582,268.38514 c -3.59732,10.93537 -13.88334,18.78334 -25.87041,18.78334 -0.57366,0 -1.15131,-0.0199 -1.73293,-0.0558 -5.88399,-0.37049 -11.32179,-2.60935 -15.73578,-6.31024 0.14342,1.97195 0.30277,3.97179 0.54179,6.13496 0.60553,5.52943 3.52163,9.88764 8.4296,12.60057 3.26666,1.80862 7.17073,2.74081 11.20626,2.99577 6.90781,0.43423 14.22195,-1.11544 19.41277,-3.62122 5.48561,-2.64918 9.05106,-7.41772 9.78407,-13.08659 0.72902,-5.63699 -1.41025,-11.64845 -6.03537,-17.44081 z"
     id="path847"
     style="stroke-width:3.98374"
     inkscape:export-xdpi="34.087185"
     inkscape:export-ydpi="34.087185" />
  <path
     fill="#65471b"
     d="m 146.88589,250.51806 c -5.16691,2.19106 -7.75634,9.16659 -7.87586,21.07 l 0.15537,0.2709 c 3.57342,5.25455 9.45342,8.85984 16.28553,9.29008 0.45415,0.0279 0.9083,0.0438 1.35846,0.0438 10.49317,0 19.31716,-7.7165 20.92659,-18.02244 -0.45813,-0.41829 -0.88041,-0.84455 -1.36642,-1.25886 -14.7996,-12.62846 -25.76286,-12.97505 -29.48367,-11.3935 z"
     id="path849"
     style="fill:#36461e;fill-opacity:1;stroke-width:3.98374"
     inkscape:export-xdpi="34.087185"
     inkscape:export-ydpi="34.087185" />
  <path
     fill="#f4900c"
     d="m 156.80541,287.16848 c 11.98707,0 22.27309,-7.84797 25.87041,-18.78334 -1.41025,-1.7648 -3.07147,-3.5057 -4.94382,-5.21472 -1.60943,10.30594 -10.43342,18.02244 -20.92659,18.02244 -0.45017,0 -0.90431,-0.0159 -1.35846,-0.0438 -6.83212,-0.43024 -12.71212,-4.03553 -16.28553,-9.29008 l -0.15537,-0.2709 c -0.0279,2.79261 0.0837,5.86805 0.33065,9.2144 4.41399,3.70089 9.85179,5.93975 15.73578,6.31024 0.58162,0.0398 1.15927,0.0558 1.73293,0.0558 z"
     id="path851"
     style="fill:#6fd049;fill-opacity:1;stroke-width:3.98374"
     inkscape:export-xdpi="34.087185"
     inkscape:export-ydpi="34.087185" />
  <circle
     fill="#ffffff"
     cx="147.13289"
     cy="262.95529"
     r="4.4100013"
     id="circle853"
     style="stroke-width:3.98374"
     inkscape:export-xdpi="34.087185"
     inkscape:export-ydpi="34.087185" />
  <path
     fill="#ffffff"
     d="m 110.26734,287.16848 c -11.987074,0 -22.273093,-7.84797 -25.870411,-18.78334 -4.625124,5.79236 -6.760409,11.80382 -6.035368,17.43683 0.736992,5.66886 4.298457,10.44139 9.784068,13.08659 5.190815,2.50577 12.500981,4.05545 19.412771,3.62122 4.03553,-0.25496 7.93959,-1.18317 11.20626,-2.99577 4.90399,-2.71293 7.82009,-7.07114 8.4296,-12.60058 0.23902,-2.15918 0.39837,-4.15105 0.54179,-6.11902 -4.39407,3.67699 -9.83984,5.92382 -15.73578,6.29431 -0.58163,0.0438 -1.15927,0.0598 -1.73293,0.0598 z"
     id="path855"
     style="stroke-width:3.98374"
     inkscape:export-xdpi="34.087185"
     inkscape:export-ydpi="34.087185" />
  <path
     fill="#65471b"
     d="m 110.26734,281.19286 c 0.45017,0 0.90431,-0.0159 1.35846,-0.0438 6.83211,-0.43024 12.71212,-4.03553 16.28553,-9.29008 l 0.15537,-0.2709 c -0.1235,-11.90341 -2.70895,-18.87894 -7.87586,-21.07 -3.72081,-1.58155 -14.68805,-1.23496 -29.483665,11.38951 -0.486017,0.41431 -0.90431,0.84057 -1.366424,1.25887 1.609432,10.30992 10.433418,18.02642 20.926589,18.02642 z"
     id="path857"
     style="fill:#36461e;fill-opacity:1;stroke-width:3.98374"
     inkscape:export-xdpi="34.087185"
     inkscape:export-ydpi="34.087185" />
  <path
     fill="#f4900c"
     d="m 128.06271,271.58806 -0.15536,0.2709 c -3.57342,5.25455 -9.45342,8.85984 -16.28554,9.29008 -0.45414,0.0279 -0.90829,0.0438 -1.35845,0.0438 -10.493175,0 -19.317161,-7.7165 -20.926592,-18.02244 -1.872359,1.70902 -3.533579,3.44992 -4.943823,5.21472 3.597318,10.93537 13.883337,18.78334 25.870415,18.78334 0.57366,0 1.1513,-0.0199 1.73293,-0.0558 5.89593,-0.37049 11.34171,-2.61732 15.73577,-6.29431 0.247,-3.35032 0.36252,-6.42976 0.33065,-9.23033 z"
     id="path859"
     style="fill:#6fd049;fill-opacity:1;stroke-width:3.98374"
     inkscape:export-xdpi="34.087185"
     inkscape:export-ydpi="34.087185" />
  <path
     fill="#ffffff"
     d="m 100.79401,267.35733 c 2.43008,-0.15138 4.27853,-2.24683 4.12317,-4.67691 -0.15138,-2.43008 -2.24683,-4.27854 -4.67691,-4.12716 -2.430085,0.15139 -4.278541,2.24683 -4.127159,4.67692 0.155366,2.43008 2.250814,4.27853 4.680899,4.12715 z"
     id="path861"
     style="stroke-width:3.98374"
     inkscape:export-xdpi="34.087185"
     inkscape:export-ydpi="34.087185" />
</svg>
