<svg width="128" height="128" viewBox="0 0 128 128" fill="none" xmlns="http://www.w3.org/2000/svg">
<path d="M118 65.0076C119.183 62.9844 124.982 61.0907 127 62C129.313 63.5478 125 73 123.59 75.0378C122.639 76.4118 122.57 76.253 121.999 76.8307C121.943 76.8805 121.887 76.9402 121.831 77C121.618 75.6553 121.193 74.3107 120.857 73.0855C120.117 70.3365 119.131 67.6471 118 65.0076Z" fill="white"/>
<path d="M75.192 56.6804C75.0915 61.7678 74.81 76.3866 74.9105 84.8724C76.5896 84.9126 78.4295 84.8221 80.4604 84.611C83.1751 84.3395 86.0104 83.7966 88.7451 83.2737L90.4845 82.9419C93.2896 82.4091 95.8836 81.7455 98.4173 80.911C102.328 79.6241 106.652 77.9651 110.553 75.5622C107.687 65.5783 102.55 58.0879 100.901 55.8459C89.841 54.9711 79.2439 56.1374 75.192 56.6804L75.192 56.6804Z" fill="white"/>
<path d="M104.591 53.6139C106.551 56.2983 111.257 63.3966 114.253 72.938C116.445 71.1182 118.335 68.9465 119.783 66.3827C118.435 62.6325 116.807 58.9929 114.856 55.5242C112.896 52.0454 110.613 48.7175 108.029 45.661C107.074 48.7878 105.556 51.8443 104.591 53.6139V53.6139Z" fill="white"/>
<path d="M47.1007 39.7089C51.3838 41.3477 66.0529 47.1792 73.6337 52.5582C76.9013 52.0756 88.4034 50.5875 100.82 51.5326C102.429 48.5667 104.118 44.5852 104.49 41.8806C104.339 41.7298 104.209 41.569 104.058 41.4282C98.8999 36.582 92.3647 33.9177 85.7692 31.6856C79 34.5 70.5 41.4282 55.5 32.6911C51.6995 33.3748 49.4634 31.0522 45.9746 32.6911L47.1007 39.7089Z" fill="white"/>
<path d="M121.411 71.6813C119.411 74.2451 116.988 76.3766 114.394 78.1461C114.343 78.1863 114.283 78.2165 114.243 78.2567C109.477 81.4741 104.158 83.5452 99.7648 84.983C97.0502 85.8778 94.2853 86.5916 91.2891 87.1547L89.5497 87.4865C86.7145 88.0294 83.7987 88.5925 80.8931 88.8941C79.1838 89.065 77.4143 89.2058 75.6347 89.2058C70.3261 89.2058 64.9974 87.9591 61.1064 82.6404C59.5379 80.4787 57.7885 78.6589 55.9285 77.2312L55.1543 76.6279C53.9779 75.6929 51.7761 73.9435 50.6399 73.9133L50.7505 69.6202C53.3244 69.6905 55.9284 71.7517 57.8287 73.2598L58.5325 73.8128C60.7142 75.4818 62.7552 77.5931 64.5751 80.0966C66.2139 82.3387 68.2147 83.6156 70.6176 84.2892C70.5372 75.2203 70.8288 60.139 70.9193 55.8962C63.5596 50.7384 48.7598 44.917 45.2308 43.5697C43.8433 44.4243 40.264 47.4004 36.0513 51.6935C35.629 52.1258 35.066 52.337 34.513 52.337C33.9701 52.337 33.4272 52.1359 33.0149 51.7237C32.1704 50.8992 32.1503 49.5419 32.9848 48.6873C35.6491 45.9827 39.8719 41.8907 42.8278 40.0608L41.9732 34.8125C34.7744 39.1157 27.6661 45.7917 23.3931 53.5535C19.11 61.3053 46 40.0608 38.5002 78.5C39.8374 81.2649 25.7658 86.0688 28.4604 87.6775C30.8432 89.1052 33.3668 90.3218 35.9407 91.3875C38.223 92.3326 40.1534 93.519 42.496 94.2027C44.5873 94.826 46.749 95.4997 48.8704 95.9722C51.012 96.4548 53.2339 96.6056 55.3855 97.0078C57.2958 97.3597 59.2262 97.6814 61.1566 97.7116C71.06 97.8423 81.074 98.3651 90.7965 96.0124C96.7083 94.5847 102.57 92.8052 108.13 90.3519C110.945 89.1253 113.69 87.7177 116.274 86.0688C118.375 84.7417 121.14 83.4346 122.236 81.0618C123.392 78.5583 122.407 75.532 121.794 72.9984C121.683 72.5761 121.532 72.1237 121.411 71.6813Z" fill="white"/>
<path d="M31.768 95.6907C30.7827 95.1076 29.3751 94.9065 27.4648 94.635C24.9513 94.2831 22.2165 93.5793 19.703 94.0318C17.5413 94.4239 17.3101 94.9769 16.6063 96.9776C15.5104 100.125 12.3232 109.555 14.7965 112.531C15.4098 113.265 16.8375 113.527 17.7122 113.788C20.2358 114.552 22.9203 114.723 25.5746 114.904C27.8368 115.055 30.0688 114.643 32.2305 114.04C33.8492 113.587 34.5631 113.205 34.6938 111.415C34.9854 107.595 34.1307 103.825 33.7889 100.034C33.5476 97.5809 32.9444 96.3744 31.768 95.6907Z" fill="white"/>
<path d="M119.069 84.3596C118.134 84.983 117.138 85.536 116.263 86.0889C113.68 87.7278 110.935 89.1354 108.12 90.372C102.56 92.8253 96.698 94.6049 90.7861 96.0325C81.0637 98.3852 71.0497 97.8624 61.1463 97.7317C59.2058 97.7015 57.2754 97.3798 55.3752 97.0279C54.8423 96.9274 54.3195 96.8469 53.7866 96.7665L54.3094 102.347C54.3094 102.347 56.1996 102.487 59.5778 102.276C58.9243 108.741 58.7132 115.719 60.3621 117.046C61.1061 117.649 62.6846 117.76 63.6498 117.921C66.4851 118.393 69.4209 118.323 72.3366 118.272C74.82 118.232 77.2129 117.689 79.5053 116.986C81.2245 116.463 81.9686 116.081 81.9384 114.502C81.9082 112.481 81.2245 105.986 80.5308 100.426C86.9052 99.5918 94.7575 98.0133 101.856 95.0674C101.956 97.2994 102.047 99.2097 102.037 99.6018C101.976 101.14 101.956 103.241 103.314 104.428C107.094 107.756 116.454 105.815 120.798 104.368C124.035 103.302 123.04 99.5315 122.396 97.3296C122.024 96.0125 120.526 89.1555 119.069 84.3597V84.3596Z" fill="white"/>
<path fill-rule="evenodd" clip-rule="evenodd" d="M27.0109 17.7077C28.1992 16.7846 30.1841 18.2255 32.8495 20.1604C36.464 22.7843 41.3301 26.3166 47.1582 26.0944C48.8239 18.4805 51.964 7.40085 58.7261 7.00746C60.435 6.90804 62.3183 7.81908 64.2822 8.76908C66.2993 9.74483 68.4014 10.7617 70.4867 10.767C72.4052 10.7719 74.2091 9.82758 76.0016 8.88918C78.0168 7.83425 80.0176 6.78681 82.1509 7.10386C89.4463 8.18803 93.2368 25.998 93.2368 25.998C99.254 26.1239 103.507 22.6057 106.681 19.9798C109.082 17.9941 110.865 16.5186 112.329 17.5149C126.025 26.8394 97.794 45.0849 72.6123 45.0849C39.9637 45.0849 15.1538 26.9191 27.0109 17.7077ZM52.8843 25.6891L51.8618 29.6426C63.8814 38.0939 78.4913 36.3267 87.9206 29.5063L87.4435 25.6891C76.6746 31.0052 64.899 33.7332 52.8843 25.6891ZM61.2687 12.4652C57.636 13.5481 53.9751 21.1903 53.9751 21.1903C63.4199 26.4453 74.4143 25.5018 86.2167 21.3266C86.2167 21.3266 83.0654 13.747 79.6048 12.5334C77.8354 11.9129 76.0467 12.7809 74.2278 13.6636C72.7696 14.3712 71.2919 15.0883 69.7892 15.0555C68.4674 15.0267 67.1973 14.3416 65.9436 13.6654C64.3823 12.8232 62.8465 11.9949 61.2687 12.4652Z" fill="white"/>
<path fill-rule="evenodd" clip-rule="evenodd" d="M51.446 102.377C52.4186 102.379 53.3726 102.38 54.3197 102.347C55.3553 102.316 56.3909 102.246 57.4164 102.125C59.6384 101.834 57.7381 86.1794 57.5672 85.1439C56.411 78.3774 54.5509 72.747 51.8061 66.4732C48.2369 58.3293 41.9832 51.2712 33.3969 48.3354C26.0272 45.8319 15.2692 47.33 9.2869 52.7593C2.91254 58.5404 1.24354 68.3232 2.28918 76.5777C3.98834 89.9699 13.7409 97.4603 26.2584 100.286C34.5028 102.156 42.4859 102.377 50.861 102.377C51.0568 102.377 51.2518 102.377 51.446 102.377ZM8.84396 75.7438C14.9346 78.1012 26.5 77 31.5145 76.4174C36.5289 75.8347 38.2818 57.8955 30.8377 56.5484C22.5788 55.5833 12.9046 55.8749 8.84411 57.5587C4.78359 59.2425 2.75331 73.3865 8.84396 75.7438Z" fill="white"/>
<path d="M38.6877 64C30.6496 72.7904 15.4342 73.2749 4.29267 71.5C4.29267 71.5 0.549419 79.0349 19.8329 78.6433C25.2364 78.5336 31.8432 80.6824 36.0861 75.5722C40.329 70.462 38.6877 64 38.6877 64Z" fill="white" fill-opacity="0.3"/>
<path d="M22.3488 66.0107C19.1977 67.0215 13.5826 67.2987 11.2225 66.4401C8.86246 65.5814 7.85088 60.8587 10.8853 60.4293C13.9198 60 16.9543 60 21.6745 60C26.3948 60 25.5 65 22.3488 66.0107Z" fill="white" fill-opacity="0.8"/>
</svg>
