<?xml version="1.0" encoding="UTF-8" standalone="no"?>
<svg
   xmlns:dc="http://purl.org/dc/elements/1.1/"
   xmlns:cc="http://creativecommons.org/ns#"
   xmlns:rdf="http://www.w3.org/1999/02/22-rdf-syntax-ns#"
   xmlns:svg="http://www.w3.org/2000/svg"
   xmlns="http://www.w3.org/2000/svg"
   xmlns:xlink="http://www.w3.org/1999/xlink"
   xmlns:sodipodi="http://sodipodi.sourceforge.net/DTD/sodipodi-0.dtd"
   xmlns:inkscape="http://www.inkscape.org/namespaces/inkscape"
   width="512"
   height="512"
   version="1.1"
   id="svg38"
   inkscape:version="0.92.5 (2060ec1f9f, 2020-04-08)"
   inkscape:export-xdpi="96"
   inkscape:export-ydpi="96"
>
  <metadata
     id="metadata44">
    <rdf:RDF>
      <cc:Work
         rdf:about="">
        <dc:format>image/svg+xml</dc:format>
        <dc:type
           rdf:resource="http://purl.org/dc/dcmitype/StillImage" />
        <dc:title></dc:title>
      </cc:Work>
    </rdf:RDF>
  </metadata>
  <defs
     id="defs42">
    <linearGradient
       y2="758.14929"
       y1="810.21936"
       xlink:href="#linearGradient2212"
       x2="245.75005"
       x1="180.65712"
       inkscape:collect="always"
       id="linearGradient4128"
       gradientUnits="userSpaceOnUse"
       gradientTransform="matrix(0.164181,0,0,0.279005,370.379,341.0819)" />
    <linearGradient
       y2="665.02673"
       y1="810.21936"
       xlink:href="#linearGradient2212"
       x2="157.14334"
       x1="244.28572"
       inkscape:collect="always"
       id="linearGradient4131"
       gradientUnits="userSpaceOnUse"
       gradientTransform="matrix(0.164181,0,0,0.279005,370.8438,332.0167)" />
    <linearGradient
       y2="691.37769"
       y1="802.69507"
       xlink:href="#linearGradient2212"
       x2="256.58017"
       x1="337.4357"
       inkscape:collect="always"
       id="linearGradient4134"
       gradientUnits="userSpaceOnUse"
       gradientTransform="matrix(0.164181,0,0,0.279005,305.0635,339.2224)" />
    <linearGradient
       y2="624.79266"
       y1="810.21936"
       xlink:href="#linearGradient2212"
       x2="203.70448"
       x1="244.28572"
       inkscape:collect="always"
       id="linearGradient4138"
       gradientUnits="userSpaceOnUse"
       gradientTransform="matrix(0.137094,0,0,0.237759,313.5525,379.6629)" />
    <linearGradient
       id="linearGradient2212">
      <stop
         style="stop-color:#000000;stop-opacity:1;"
         offset="0"
         id="stop2214" />
      <stop
         style="stop-color:#000000;stop-opacity:0;"
         offset="1"
         id="stop2216" />
    </linearGradient>
    <linearGradient
       y2="718.16046"
       y1="810.21936"
       xlink:href="#linearGradient2212"
       x2="225.92958"
       x1="244.28572"
       inkscape:collect="always"
       id="linearGradient2233"
       gradientUnits="userSpaceOnUse"
       gradientTransform="matrix(0.451528,0,0,0.783074,122.3746,-32.89941)" />
    <linearGradient
       y2="718.16046"
       y1="810.21936"
       xlink:href="#linearGradient2212"
       x2="225.92958"
       x1="244.28572"
       inkscape:collect="always"
       id="linearGradient3991"
       gradientUnits="userSpaceOnUse"
       gradientTransform="matrix(0.540741,0,0,0.918919,94.41544,-166.0926)" />
    <linearGradient
       y2="728.99078"
       y1="810.21936"
       xlink:href="#linearGradient2212"
       x2="222.39273"
       x1="244.28572"
       inkscape:collect="always"
       id="linearGradient3995"
       gradientUnits="userSpaceOnUse"
       gradientTransform="matrix(0.540741,0,0,0.918919,311.0668,-189.8248)" />
    <linearGradient
       y2="758.14929"
       y1="810.21936"
       xlink:href="#linearGradient2212"
       x2="245.75005"
       x1="244.28572"
       inkscape:collect="always"
       id="linearGradient3999"
       gradientUnits="userSpaceOnUse"
       gradientTransform="matrix(0.540741,0,0,0.918919,309.5357,-159.9682)" />
    <linearGradient
       y2="758.14929"
       y1="857.73218"
       xlink:href="#linearGradient2212"
       x2="245.75005"
       x1="101.8843"
       inkscape:collect="always"
       id="linearGradient1564"
       gradientUnits="userSpaceOnUse"
       gradientTransform="matrix(0.631509,0,0,1.073171,344.7216,-554.2534)" />
    <linearGradient
       y2="707.90417"
       y1="810.21936"
       xlink:href="#linearGradient2212"
       x2="202.43771"
       x1="244.28572"
       inkscape:collect="always"
       id="linearGradient1567"
       gradientUnits="userSpaceOnUse"
       gradientTransform="matrix(0.631509,0,0,1.073171,346.5094,-589.122)" />
    <linearGradient
       y2="691.37769"
       y1="859.4787"
       xlink:href="#linearGradient2212"
       x2="256.58017"
       x1="428.02444"
       inkscape:collect="always"
       id="linearGradient1570"
       gradientUnits="userSpaceOnUse"
       gradientTransform="matrix(0.631509,0,0,1.073171,93.49065,-561.4058)" />
    <linearGradient
       y2="703.66602"
       y1="810.21936"
       xlink:href="#linearGradient2212"
       x2="213.13815"
       x1="244.28572"
       inkscape:collect="always"
       id="linearGradient1574"
       gradientUnits="userSpaceOnUse"
       gradientTransform="matrix(0.527321,0,0,0.914521,126.1429,-405.8546)" />
  </defs>
  <sodipodi:namedview
     pagecolor="#ffffff"
     bordercolor="#666666"
     borderopacity="1"
     objecttolerance="10"
     gridtolerance="10"
     guidetolerance="10"
     inkscape:pageopacity="0"
     inkscape:pageshadow="2"
     inkscape:window-width="1920"
     inkscape:window-height="1080"
     id="namedview40"
     showgrid="false"
     inkscape:zoom="0.65186408"
     inkscape:cx="-305.88143"
     inkscape:cy="401.81404"
     inkscape:window-x="1440"
     inkscape:window-y="0"
     inkscape:window-maximized="1"
     inkscape:current-layer="svg38" />
  <g
     id="g36"
     transform="matrix(2.8315731,0,0,2.8315731,66.871633,81.25246)"
     style="stroke-width:0.35316059">
    <path
       d="m 40.1,37.83 c 0,0 2.55,-1.48 3.98,-2.12 l 22.24,8.18 35.97,0.97 c 0,0 2.7,2.8 3.5,3.76 l 6.53,18.74 5.27,2.11 c 0,0 1.21,3.62 1.55,4.99 L 118.05,83.1 65.91,96.03 24.04,85.76 24.17,60.02 36.97,43.35 Z"
       style="fill:#2f2f2f;stroke-width:0.35316059"
       id="path2"
       inkscape:connector-curvature="0" />
    <g
       id="g34"
       style="stroke-width:0.35316059">
      <g
         id="g12"
         style="stroke-width:0.35316059">
        <path
           d="m 73.14,59.57 c -0.1,5.06 -0.38,19.6 -0.28,28.04 1.67,0.04 3.5,-0.05 5.52,-0.26 2.7,-0.27 5.52,-0.81 8.24,-1.33 l 1.73,-0.33 c 2.79,-0.53 5.37,-1.19 7.89,-2.02 3.89,-1.28 8.19,-2.93 12.07,-5.32 -2.85,-9.93 -7.96,-17.38 -9.6,-19.61 -11,-0.87 -21.54,0.29 -25.57,0.83 z"
           style="fill:#757f3f;stroke-width:0.35316059"
           id="path4"
           inkscape:connector-curvature="0" />
        <path
           d="m 102.38,56.52 c 1.95,2.67 6.63,9.73 9.61,19.22 2.18,-1.81 4.06,-3.97 5.5,-6.52 -1.34,-3.73 -2.96,-7.35 -4.9,-10.8 -1.95,-3.46 -4.22,-6.77 -6.79,-9.81 -0.95,3.11 -2.46,6.15 -3.42,7.91 z"
           style="fill:#757f3f;stroke-width:0.35316059"
           id="path6"
           inkscape:connector-curvature="0" />
        <path
           d="m 45.2,42.69 c 4.26,1.63 18.85,7.43 26.39,12.78 3.25,-0.48 14.69,-1.96 27.04,-1.02 1.6,-2.95 3.28,-6.91 3.65,-9.6 C 102.13,44.7 102,44.54 101.85,44.4 96.72,39.58 90.22,36.93 83.66,34.71 74.5,31.61 64.53,30.52 54.98,32.23 c -3.78,0.68 -7.43,1.85 -10.9,3.48 z"
           style="fill:#757f3f;stroke-width:0.35316059"
           id="path8"
           inkscape:connector-curvature="0" />
        <path
           d="m 119.11,74.49 c -1.99,2.55 -4.4,4.67 -6.98,6.43 -0.05,0.04 -0.11,0.07 -0.15,0.11 -4.74,3.2 -10.03,5.26 -14.4,6.69 -2.7,0.89 -5.45,1.6 -8.43,2.16 l -1.73,0.33 c -2.82,0.54 -5.72,1.1 -8.61,1.4 -1.7,0.17 -3.46,0.31 -5.23,0.31 -5.28,0 -10.58,-1.24 -14.45,-6.53 -1.56,-2.15 -3.3,-3.96 -5.15,-5.38 l -0.77,-0.6 c -1.17,-0.93 -3.36,-2.67 -4.49,-2.7 l 0.11,-4.27 c 2.56,0.07 5.15,2.12 7.04,3.62 l 0.7,0.55 c 2.17,1.66 4.2,3.76 6.01,6.25 1.63,2.23 3.62,3.5 6.01,4.17 -0.08,-9.02 0.21,-24.02 0.3,-28.24 -7.32,-5.13 -22.04,-10.92 -25.55,-12.26 -1.38,0.85 -4.94,3.81 -9.13,8.08 -0.42,0.43 -0.98,0.64 -1.53,0.64 -0.54,0 -1.08,-0.2 -1.49,-0.61 -0.84,-0.82 -0.86,-2.17 -0.03,-3.02 2.65,-2.69 6.85,-6.76 9.79,-8.58 L 40.1,37.82 c -7.16,4.28 -14.23,10.92 -18.48,18.64 -4.26,7.71 -5.7,16.48 -1.64,24.97 1.33,2.75 4,7.37 6.68,8.97 2.37,1.42 4.88,2.63 7.44,3.69 2.27,0.94 4.19,2.12 6.52,2.8 2.08,0.62 4.23,1.29 6.34,1.76 2.13,0.48 4.34,0.63 6.48,1.03 1.9,0.35 3.82,0.67 5.74,0.7 9.85,0.13 19.81,0.65 29.48,-1.69 5.88,-1.42 11.71,-3.19 17.24,-5.63 2.8,-1.22 5.53,-2.62 8.1,-4.26 2.09,-1.32 4.84,-2.62 5.93,-4.98 1.15,-2.49 0.17,-5.5 -0.44,-8.02 -0.11,-0.42 -0.26,-0.87 -0.38,-1.31 z"
           style="fill:#757f3f;stroke-width:0.35316059"
           id="path10"
           inkscape:connector-curvature="0" />
      </g>
      <g
         id="g32"
         style="stroke-width:0.35316059">
        <path
           d="m 29.95,98.37 c -0.98,-0.58 -2.38,-0.78 -4.28,-1.05 -2.5,-0.35 -5.22,-1.05 -7.72,-0.6 -2.15,0.39 -2.38,0.94 -3.08,2.93 -1.09,3.13 -4.26,12.51 -1.8,15.47 0.61,0.73 2.03,0.99 2.9,1.25 2.51,0.76 5.18,0.93 7.82,1.11 2.25,0.15 4.47,-0.26 6.62,-0.86 1.61,-0.45 2.32,-0.83 2.45,-2.61 0.29,-3.8 -0.56,-7.55 -0.9,-11.32 -0.24,-2.44 -0.84,-3.64 -2.01,-4.32 z"
           style="fill:#bdcf46;stroke-width:0.35316059"
           id="path14"
           inkscape:connector-curvature="0" />
        <g
           id="g20"
           style="stroke-width:0.35316059">
          <path
             d="m 116.78,87.1 c -0.93,0.62 -1.92,1.17 -2.79,1.72 -2.57,1.63 -5.3,3.03 -8.1,4.26 -5.53,2.44 -11.36,4.21 -17.24,5.63 -9.67,2.34 -19.63,1.82 -29.48,1.69 -1.93,-0.03 -3.85,-0.35 -5.74,-0.7 -0.53,-0.1 -1.05,-0.18 -1.58,-0.26 l 0.52,5.55 c 0,0 1.88,0.14 5.24,-0.07 -0.65,6.43 -0.86,13.37 0.78,14.69 0.74,0.6 2.31,0.71 3.27,0.87 2.82,0.47 5.74,0.4 8.64,0.35 2.47,-0.04 4.85,-0.58 7.13,-1.28 1.71,-0.52 2.45,-0.9 2.42,-2.47 -0.03,-2.01 -0.71,-8.47 -1.4,-14 6.34,-0.83 14.15,-2.4 21.21,-5.33 0.1,2.22 0.19,4.12 0.18,4.51 -0.06,1.53 -0.08,3.62 1.27,4.8 3.76,3.31 13.07,1.38 17.39,-0.06 3.22,-1.06 2.23,-4.81 1.59,-7 -0.37,-1.31 -1.86,-8.13 -3.31,-12.9 z"
             style="fill:#bdcf46;stroke-width:0.35316059"
             id="path16"
             inkscape:connector-curvature="0" />
          <path
             d="m 127.07,64.28 c -1.68,-1.58 -4.44,0.46 -5.98,1.28 -1.38,0.74 -2.75,1.47 -4.15,2.16 1.01,2.65 1.89,5.35 2.55,8.11 0.3,1.23 0.68,2.58 0.87,3.93 0.05,-0.06 0.1,-0.12 0.15,-0.17 0.51,-0.58 0.97,-1.17 1.42,-1.8 1.75,-2.48 3.08,-5.22 4.51,-7.88 0.69,-1.33 1.96,-4.37 0.63,-5.63 z"
             style="fill:#bdcf46;stroke-width:0.35316059"
             id="path18"
             inkscape:connector-curvature="0" />
        </g>
        <g
           id="g30"
           style="stroke-width:0.35316059">
          <path
             d="m 52.38,104.99 c -1.13,0.04 -2.27,0.03 -3.44,0.03 -8.33,0 -16.27,-0.22 -24.47,-2.08 C 12.02,100.13 2.32,92.68 0.63,79.36 -0.41,71.15 1.25,61.42 7.59,55.67 c 5.95,-5.4 16.65,-6.89 23.98,-4.4 8.54,2.92 14.76,9.94 18.31,18.04 2.73,6.24 4.58,11.84 5.73,18.57 0.17,1.03 2.06,16.6 -0.15,16.89 -1.02,0.12 -2.05,0.19 -3.08,0.22 z"
             style="fill:#bdcf46;stroke-width:0.35316059"
             id="path22"
             inkscape:connector-curvature="0" />
          <path
             d="m 30.25,63.47 c 2.46,-0.44 4.87,1.46 5.38,4.26 0.51,2.79 -1.07,5.43 -3.53,5.88 -2.45,0.44 -4.86,-1.46 -5.38,-4.25 -0.51,-2.8 1.07,-5.43 3.53,-5.89 z"
             style="fill:#2f2f2f;stroke-width:0.35316059"
             id="path24"
             inkscape:connector-curvature="0" />
          <path
             d="m 7.74,67.17 c 0.7,-2.75 3.25,-4.48 5.66,-3.86 2.42,0.62 3.81,3.36 3.11,6.11 -0.71,2.75 -3.24,4.48 -5.66,3.86 C 8.44,72.65 7.04,69.92 7.74,67.17 Z"
             style="fill:#2f2f2f;stroke-width:0.35316059"
             id="path26"
             inkscape:connector-curvature="0" />
          <path
             d="m 23.8,79.29 c -1.14,0.62 -2.12,1.28 -3.45,0.79 -0.77,-0.28 -1.5,-0.5 -2.17,-1 -0.48,-0.35 -1.02,-0.64 -1.5,-0.99 -0.25,-0.18 -0.49,-0.37 -0.74,-0.55 -0.28,-0.21 -0.38,-0.3 -0.74,-0.35 -0.29,-0.03 -0.86,-0.05 -1.08,0.19 -0.94,1.05 0.38,2.61 1.09,3.32 1.06,1.03 2.57,2.2 3.96,2.8 1.36,0.59 2.71,1.3 4.16,0.58 1.59,-0.8 2.97,-1.96 4.37,-3.03 0.92,-0.7 2.98,-1.93 2.62,-3.3 -0.25,-1 -1.41,-0.79 -2.17,-0.55 -0.96,0.29 -1.82,0.78 -2.71,1.23 -0.55,0.27 -1.09,0.57 -1.64,0.86 z"
             style="fill:#2f2f2f;stroke-width:0.35316059"
             id="path28"
             inkscape:connector-curvature="0" />
        </g>
      </g>
    </g>
  </g>
  <g
     id="g875"
     transform="matrix(-0.22122766,0.04912747,0.04912747,0.22122766,401.03107,-25.972409)">
    <path
       id="path863"
       d="m 117.883,847.142 c 0,0 -0.005,-0.01 -0.005,-0.01 0,0 -16.248,31.852 -60.052,53.326 -11.523,5.648 -9.94,22.48 2.252,26.479 14.393,4.721 29.5,8.19 45.08,9.957 -3.048,-39.809 2.699,-68.755 12.725,-89.752 z"
       inkscape:connector-curvature="0"
       style="fill:#542537" />
    <path
       id="path865"
       d="m 556.663,564.188 c 64.772,12.955 123.068,-12.955 187.844,0 38.863,6.478 32.386,51.819 12.954,77.729 -32.388,45.342 -116.593,45.342 -136.026,90.683 -19.432,64.774 97.161,12.955 103.639,38.864 32.388,51.819 -94.828,80.838 -64.774,116.593 81.098,60.629 349.857,-54.901 461.974,-195.071 L 935.637,297.155 C 828.475,396.776 686.1,447.372 543.707,492.938 c -25.909,6.476 -25.909,64.773 12.956,71.25 z"
       inkscape:connector-curvature="0"
       style="fill:#c7423d;stroke:#c7423d;stroke-opacity:1;stroke-width:1.00169085;stroke-miterlimit:4;stroke-dasharray:none" />
    <path
       id="path867"
       d="m 1148.633,748.893 -26.359,-55.908 c -112.118,140.17 -380.877,255.7 -461.974,195.071 -30.055,-35.755 97.161,-64.774 64.774,-116.593 -6.477,-25.91 -123.07,25.909 -103.639,-38.864 19.433,-45.342 103.639,-45.342 136.026,-90.683 19.432,-25.909 25.909,-71.251 -12.954,-77.729 -64.775,-12.955 -123.072,12.955 -187.844,0 C 517.798,557.71 517.798,499.413 543.707,492.936 686.1,447.37 828.475,396.775 935.637,297.153 L 892.534,205.738 C 907.026,251.033 783.373,331.074 616.346,384.515 449.32,437.956 302.172,444.559 287.68,399.264 l 146.409,578.25 c 17.119,53.509 219.25,68.428 406.221,6.001 179.41,-59.902 325.443,-181.112 308.323,-234.622 z"
       inkscape:connector-curvature="0"
       style="fill:#b8303d" />
    <path
       id="path869"
       d="m 616.346,384.517 c 167.027,-53.441 290.68,-133.482 276.188,-178.777 -0.901,-2.817 -2.321,-5.432 -4.222,-7.849 -71.546,58.261 -171.182,108.263 -262.537,115.422 -4.316,1.91 -8.902,3.529 -11.852,4.322 -9.717,2.615 -20.803,2.748 -29.068,-0.156 -63.732,-22.364 -123.672,-33.615 -176.035,-33.875 -81.46,41.999 -130.572,86.185 -121.139,115.662 14.49,45.295 161.639,38.692 328.665,-14.749 z"
       inkscape:connector-curvature="0"
       style="fill:#d34d45;stroke:#c7423d;stroke-opacity:1" />
    <path
       id="path871"
       d="m 635.297,303.15 c 5.129,2.334 -1.758,6.727 -9.523,10.163 91.355,-7.159 190.991,-57.161 262.537,-115.422 -28.656,-36.442 -167.807,-27.519 -324.447,22.598 -33.485,10.713 -65.167,22.508 -94.392,34.867 52.094,6.445 108.572,21.735 165.825,47.794 z"
       inkscape:connector-curvature="0"
       style="fill:#e65b4d" />
    <path
       id="path873"
       d="m 584.854,317.479 c 8.266,2.904 19.352,2.771 29.068,0.156 2.95,-0.794 7.536,-2.412 11.852,-4.322 7.765,-3.436 14.651,-7.829 9.523,-10.163 -57.253,-26.059 -113.731,-41.349 -165.824,-47.794 -81.928,-10.137 -152.983,1.665 -198.925,28.334 -49.615,28.799 -80.676,75.572 -92.322,139.023 -14.258,77.722 0.213,154.451 16.244,219.26 15.738,63.619 19.068,107.797 -8.325,151.381 -18.863,3.991 -50.339,16.251 -68.263,53.789 -10.025,20.997 -15.773,49.942 -12.726,89.753 1.142,14.909 3.479,31.294 7.337,49.417 1.955,9.182 12.235,14.075 20.532,9.682 63.101,-33.403 118.541,-124.035 81.202,-187.829 35.175,-58.151 24.961,-117.611 11.056,-173.818 -15.221,-61.529 -29.006,-134.109 -15.832,-205.91 9.89,-53.903 35.811,-93.366 77.035,-117.292 32.195,-18.694 74.048,-27.782 122.332,-27.541 52.365,0.259 112.304,11.51 176.036,33.874 z"
       inkscape:connector-curvature="0"
       style="fill:#6e3349" />
  </g>
  <g
     id="g951"
     transform="translate(3037.288)">
    <g
       id="g943"
       transform="matrix(2.8315731,0,0,2.8315731,66.871633,81.25246)"
       style="stroke-width:0.35316059">
      <path
         d="m 40.1,37.83 c 0,0 2.55,-1.48 3.98,-2.12 l 22.24,8.18 35.97,0.97 c 0,0 2.7,2.8 3.5,3.76 l 6.53,18.74 5.27,2.11 c 0,0 1.21,3.62 1.55,4.99 L 118.05,83.1 65.91,96.03 24.04,85.76 24.17,60.02 36.97,43.35 Z"
         style="fill:#2f2f2f;stroke-width:0.35316059"
         id="path909"
         inkscape:connector-curvature="0" />
      <g
         id="g941"
         style="stroke-width:0.35316059">
        <g
           id="g919"
           style="stroke-width:0.35316059">
          <path
             d="m 73.14,59.57 c -0.1,5.06 -0.38,19.6 -0.28,28.04 1.67,0.04 3.5,-0.05 5.52,-0.26 2.7,-0.27 5.52,-0.81 8.24,-1.33 l 1.73,-0.33 c 2.79,-0.53 5.37,-1.19 7.89,-2.02 3.89,-1.28 8.19,-2.93 12.07,-5.32 -2.85,-9.93 -7.96,-17.38 -9.6,-19.61 -11,-0.87 -21.54,0.29 -25.57,0.83 z"
             style="fill:#757f3f;stroke-width:0.35316059"
             id="path911"
             inkscape:connector-curvature="0" />
          <path
             d="m 102.38,56.52 c 1.95,2.67 6.63,9.73 9.61,19.22 2.18,-1.81 4.06,-3.97 5.5,-6.52 -1.34,-3.73 -2.96,-7.35 -4.9,-10.8 -1.95,-3.46 -4.22,-6.77 -6.79,-9.81 -0.95,3.11 -2.46,6.15 -3.42,7.91 z"
             style="fill:#757f3f;stroke-width:0.35316059"
             id="path913"
             inkscape:connector-curvature="0" />
          <path
             d="m 45.2,42.69 c 4.26,1.63 18.85,7.43 26.39,12.78 3.25,-0.48 14.69,-1.96 27.04,-1.02 1.6,-2.95 3.28,-6.91 3.65,-9.6 C 102.13,44.7 102,44.54 101.85,44.4 96.72,39.58 90.22,36.93 83.66,34.71 74.5,31.61 64.53,30.52 54.98,32.23 c -3.78,0.68 -7.43,1.85 -10.9,3.48 z"
             style="fill:#757f3f;stroke-width:0.35316059"
             id="path915"
             inkscape:connector-curvature="0" />
          <path
             d="m 119.11,74.49 c -1.99,2.55 -4.4,4.67 -6.98,6.43 -0.05,0.04 -0.11,0.07 -0.15,0.11 -4.74,3.2 -10.03,5.26 -14.4,6.69 -2.7,0.89 -5.45,1.6 -8.43,2.16 l -1.73,0.33 c -2.82,0.54 -5.72,1.1 -8.61,1.4 -1.7,0.17 -3.46,0.31 -5.23,0.31 -5.28,0 -10.58,-1.24 -14.45,-6.53 -1.56,-2.15 -3.3,-3.96 -5.15,-5.38 l -0.77,-0.6 c -1.17,-0.93 -3.36,-2.67 -4.49,-2.7 l 0.11,-4.27 c 2.56,0.07 5.15,2.12 7.04,3.62 l 0.7,0.55 c 2.17,1.66 4.2,3.76 6.01,6.25 1.63,2.23 3.62,3.5 6.01,4.17 -0.08,-9.02 0.21,-24.02 0.3,-28.24 -7.32,-5.13 -22.04,-10.92 -25.55,-12.26 -1.38,0.85 -4.94,3.81 -9.13,8.08 -0.42,0.43 -0.98,0.64 -1.53,0.64 -0.54,0 -1.08,-0.2 -1.49,-0.61 -0.84,-0.82 -0.86,-2.17 -0.03,-3.02 2.65,-2.69 6.85,-6.76 9.79,-8.58 L 40.1,37.82 c -7.16,4.28 -14.23,10.92 -18.48,18.64 -4.26,7.71 -5.7,16.48 -1.64,24.97 1.33,2.75 4,7.37 6.68,8.97 2.37,1.42 4.88,2.63 7.44,3.69 2.27,0.94 4.19,2.12 6.52,2.8 2.08,0.62 4.23,1.29 6.34,1.76 2.13,0.48 4.34,0.63 6.48,1.03 1.9,0.35 3.82,0.67 5.74,0.7 9.85,0.13 19.81,0.65 29.48,-1.69 5.88,-1.42 11.71,-3.19 17.24,-5.63 2.8,-1.22 5.53,-2.62 8.1,-4.26 2.09,-1.32 4.84,-2.62 5.93,-4.98 1.15,-2.49 0.17,-5.5 -0.44,-8.02 -0.11,-0.42 -0.26,-0.87 -0.38,-1.31 z"
             style="fill:#757f3f;stroke-width:0.35316059"
             id="path917"
             inkscape:connector-curvature="0" />
        </g>
        <g
           id="g939"
           style="stroke-width:0.35316059">
          <path
             d="m 29.95,98.37 c -0.98,-0.58 -2.38,-0.78 -4.28,-1.05 -2.5,-0.35 -5.22,-1.05 -7.72,-0.6 -2.15,0.39 -2.38,0.94 -3.08,2.93 -1.09,3.13 -4.26,12.51 -1.8,15.47 0.61,0.73 2.03,0.99 2.9,1.25 2.51,0.76 5.18,0.93 7.82,1.11 2.25,0.15 4.47,-0.26 6.62,-0.86 1.61,-0.45 2.32,-0.83 2.45,-2.61 0.29,-3.8 -0.56,-7.55 -0.9,-11.32 -0.24,-2.44 -0.84,-3.64 -2.01,-4.32 z"
             style="fill:#bdcf46;stroke-width:0.35316059"
             id="path921"
             inkscape:connector-curvature="0" />
          <g
             id="g927"
             style="stroke-width:0.35316059">
            <path
               d="m 116.78,87.1 c -0.93,0.62 -1.92,1.17 -2.79,1.72 -2.57,1.63 -5.3,3.03 -8.1,4.26 -5.53,2.44 -11.36,4.21 -17.24,5.63 -9.67,2.34 -19.63,1.82 -29.48,1.69 -1.93,-0.03 -3.85,-0.35 -5.74,-0.7 -0.53,-0.1 -1.05,-0.18 -1.58,-0.26 l 0.52,5.55 c 0,0 1.88,0.14 5.24,-0.07 -0.65,6.43 -0.86,13.37 0.78,14.69 0.74,0.6 2.31,0.71 3.27,0.87 2.82,0.47 5.74,0.4 8.64,0.35 2.47,-0.04 4.85,-0.58 7.13,-1.28 1.71,-0.52 2.45,-0.9 2.42,-2.47 -0.03,-2.01 -0.71,-8.47 -1.4,-14 6.34,-0.83 14.15,-2.4 21.21,-5.33 0.1,2.22 0.19,4.12 0.18,4.51 -0.06,1.53 -0.08,3.62 1.27,4.8 3.76,3.31 13.07,1.38 17.39,-0.06 3.22,-1.06 2.23,-4.81 1.59,-7 -0.37,-1.31 -1.86,-8.13 -3.31,-12.9 z"
               style="fill:#bdcf46;stroke-width:0.35316059"
               id="path923"
               inkscape:connector-curvature="0" />
            <path
               d="m 127.07,64.28 c -1.68,-1.58 -4.44,0.46 -5.98,1.28 -1.38,0.74 -2.75,1.47 -4.15,2.16 1.01,2.65 1.89,5.35 2.55,8.11 0.3,1.23 0.68,2.58 0.87,3.93 0.05,-0.06 0.1,-0.12 0.15,-0.17 0.51,-0.58 0.97,-1.17 1.42,-1.8 1.75,-2.48 3.08,-5.22 4.51,-7.88 0.69,-1.33 1.96,-4.37 0.63,-5.63 z"
               style="fill:#bdcf46;stroke-width:0.35316059"
               id="path925"
               inkscape:connector-curvature="0" />
          </g>
          <g
             id="g937"
             style="stroke-width:0.35316059">
            <path
               d="m 52.38,104.99 c -1.13,0.04 -2.27,0.03 -3.44,0.03 -8.33,0 -16.27,-0.22 -24.47,-2.08 C 12.02,100.13 2.32,92.68 0.63,79.36 -0.41,71.15 1.25,61.42 7.59,55.67 c 5.95,-5.4 16.65,-6.89 23.98,-4.4 8.54,2.92 14.76,9.94 18.31,18.04 2.73,6.24 4.58,11.84 5.73,18.57 0.17,1.03 2.06,16.6 -0.15,16.89 -1.02,0.12 -2.05,0.19 -3.08,0.22 z"
               style="fill:#bdcf46;stroke-width:0.35316059"
               id="path929"
               inkscape:connector-curvature="0" />
            <path
               d="m 30.25,63.47 c 2.46,-0.44 4.87,1.46 5.38,4.26 0.51,2.79 -1.07,5.43 -3.53,5.88 -2.45,0.44 -4.86,-1.46 -5.38,-4.25 -0.51,-2.8 1.07,-5.43 3.53,-5.89 z"
               style="fill:#2f2f2f;stroke-width:0.35316059"
               id="path931"
               inkscape:connector-curvature="0" />
            <path
               d="m 7.74,67.17 c 0.7,-2.75 3.25,-4.48 5.66,-3.86 2.42,0.62 3.81,3.36 3.11,6.11 -0.71,2.75 -3.24,4.48 -5.66,3.86 C 8.44,72.65 7.04,69.92 7.74,67.17 Z"
               style="fill:#2f2f2f;stroke-width:0.35316059"
               id="path933"
               inkscape:connector-curvature="0" />
            <path
               d="m 23.8,79.29 c -1.14,0.62 -2.12,1.28 -3.45,0.79 -0.77,-0.28 -1.5,-0.5 -2.17,-1 -0.48,-0.35 -1.02,-0.64 -1.5,-0.99 -0.25,-0.18 -0.49,-0.37 -0.74,-0.55 -0.28,-0.21 -0.38,-0.3 -0.74,-0.35 -0.29,-0.03 -0.86,-0.05 -1.08,0.19 -0.94,1.05 0.38,2.61 1.09,3.32 1.06,1.03 2.57,2.2 3.96,2.8 1.36,0.59 2.71,1.3 4.16,0.58 1.59,-0.8 2.97,-1.96 4.37,-3.03 0.92,-0.7 2.98,-1.93 2.62,-3.3 -0.25,-1 -1.41,-0.79 -2.17,-0.55 -0.96,0.29 -1.82,0.78 -2.71,1.23 -0.55,0.27 -1.09,0.57 -1.64,0.86 z"
               style="fill:#2f2f2f;stroke-width:0.35316059"
               id="path935"
               inkscape:connector-curvature="0" />
          </g>
        </g>
      </g>
    </g>
    <path
       style="fill:#644502;fill-opacity:1;stroke:none;stroke-width:1px;stroke-linecap:butt;stroke-linejoin:miter;stroke-opacity:1"
       d="m 139.90193,140.17018 c 7.88467,-6.12532 28.22306,24.70705 56.741,23.61944 4.6909,-21.44312 13.53447,-52.64672 32.57857,-53.75463 9.75608,-0.56759 21.53067,10.55843 33.12154,10.58804 11.47728,0.0294 21.49744,-12.00372 32.85006,-10.31655 20.5459,3.05337 31.22113,53.21165 31.22113,53.21165 29.7607,0.62306 44.19719,-30.40713 53.76828,-23.89094 38.57222,26.26072 -40.93376,77.64559 -111.85308,77.64559 -91.94852,0 -161.82099,-51.16053 -128.4275,-77.1026 z"
       id="path945"
       inkscape:connector-curvature="0"
       sodipodi:nodetypes="scsascsss" />
    <path
       style="fill:#805d0b;fill-opacity:1;stroke:none;stroke-width:1px;stroke-linecap:butt;stroke-linejoin:miter;stroke-opacity:1"
       d="m 212.76964,162.6482 -2.87957,11.13433 c 33.8509,23.80153 74.99669,18.82453 101.55269,-0.38396 l -1.3438,-10.75037 c -30.3286,14.97171 -63.49208,22.65479 -97.32932,0 z"
       id="path947"
       inkscape:connector-curvature="0"
       sodipodi:nodetypes="ccccc" />
    <path
       style="fill:#805d0b;fill-opacity:1;stroke:none;stroke-width:1px;stroke-linecap:butt;stroke-linejoin:miter;stroke-opacity:1"
       d="m 215.84118,149.97812 c 0,0 10.3101,-21.52265 20.5409,-24.57231 8.01186,-2.38823 15.63813,7.11258 23.99638,7.2949 9.51166,0.20755 18.66593,-10.25126 27.64383,-7.10292 9.74616,3.41774 18.6212,24.76426 18.6212,24.76426 -33.23908,11.75856 -64.20284,14.41591 -90.80231,-0.38393 z"
       id="path949"
       inkscape:connector-curvature="0"
       sodipodi:nodetypes="caaacc" />
  </g>
  <path
     style="fill:#31373d"
     d="M 872.75391 600.80859 C 869.28635 600.84525 866.69773 601.19195 866.38086 601.51758 C 866.12886 601.77858 866.12886 603.59447 866.38086 603.85547 C 866.63486 604.11647 867.4152 604.46064 867.7832 605.68164 C 868.0202 606.46864 868.27845 611.54559 870.06445 613.05859 C 871.83245 614.55659 877.52662 614.27531 879.39062 613.32031 C 881.92662 612.02231 882.28164 607.53564 882.68164 605.68164 C 882.88464 604.74264 883.84341 604.66602 884.06641 604.66602 C 884.28941 604.66602 885.24817 604.74264 885.45117 605.68164 C 885.85217 607.53464 886.20914 612.02131 888.74414 613.32031 C 890.60914 614.27531 896.30231 614.55659 898.07031 613.05859 C 899.85631 611.54559 900.11456 606.46864 900.35156 605.68164 C 900.71956 604.46164 901.49991 604.11647 901.75391 603.85547 C 902.00791 603.59547 902.00786 601.77858 901.75586 601.51758 C 901.24886 600.99558 894.92519 600.42344 888.49219 601.14844 C 887.20919 601.29244 887.13036 601.65734 884.06836 601.77734 C 881.00736 601.65834 880.92658 601.29344 879.64258 601.14844 C 877.2302 600.87656 874.83444 600.7866 872.75391 600.80859 z M 875.125 602.57617 C 878.273 602.57617 880.88984 603.04416 880.71484 605.28516 C 880.61684 606.54016 880.19303 610.25019 878.95703 611.36719 C 877.58103 612.61019 872.70602 612.93611 871.16602 611.41211 C 870.35802 610.61311 869.60006 607.3937 869.66406 604.5957 C 869.70206 602.9167 871.937 602.57617 875.125 602.57617 z M 893.00977 602.57617 C 896.19777 602.57617 898.4327 602.9167 898.4707 604.5957 C 898.5347 607.3937 897.77675 610.61311 896.96875 611.41211 C 895.42875 612.93611 890.55373 612.61019 889.17773 611.36719 C 887.94173 610.25019 887.51987 606.54016 887.42188 605.28516 C 887.24687 603.04416 889.86277 602.57617 893.00977 602.57617 z "
     id="path925-3" />
  <g
     transform="matrix(11.244821,0,0,11.244821,-2205.0188,-500.61512)"
     id="g988">
    <path
       style="fill:#dd2e44"
       inkscape:connector-curvature="0"
       d="m 19.341,35.455 c -0.738,0.726 -1.944,0.726 -2.681,0 L 10.027,28.926 C 9.29,28.2 9.095,26.894 9.593,26.022 l 7.5,-18.447 c 0.499,-0.871 1.315,-0.871 1.813,0 l 7.5,18.447 c 0.498,0.871 0.303,2.178 -0.434,2.903 z"
       id="path976" />
    <path
       style="fill:#a0041e"
       inkscape:connector-curvature="0"
       d="m 18,14.668 c 0.949,0 2.004,-0.952 2.899,-2.191 L 18.906,7.575 c -0.499,-0.871 -1.315,-0.871 -1.813,0 L 15.1,12.477 c 0.897,1.239 1.951,2.191 2.9,2.191 z"
       id="path978" />
    <path
       style="fill:#dd2e44"
       inkscape:connector-curvature="0"
       d="m 23,5.778 c 0,1.964 -2.791,7.112 -5,7.112 -2.209,0 -5,-5.148 -5,-7.112 C 13,3.995 15.791,3 18,3 c 2.209,0 5,0.995 5,2.778 z"
       id="path980" />
    <path
       style="fill:#4ca0d3"
       inkscape:connector-curvature="0"
       d="m 0,4 v 2.254 c 2.074,2.77 6.779,7.751 8,7.751 C 10.209,14.005 19,3.209 19,1 19,0 18,0 17,0 H 4 C 1.791,0 0,1.791 0,4 Z"
       id="path982" />
    <path
       style="fill:#4ca0d3"
       inkscape:connector-curvature="0"
       d="m 17,1 c 0,2.209 8.791,13.005 11,13.005 1.221,0 5.926,-4.981 8,-7.751 V 4 C 36,1.791 34.209,0 32,0 H 19 c -1,0 -2,0 -2,1 z"
       id="path984" />
    <path
       style="fill:#226699"
       inkscape:connector-curvature="0"
       d="M 4,0 C 3.733,0 3.474,0.029 3.222,0.079 4.405,1.736 10.562,3 18,3 25.438,3 31.595,1.736 32.778,0.079 32.526,0.029 32.267,0 32,0 Z"
       id="path986" />
  </g>
  <g
     inkscape:label="Layer 1"
     id="layer1"
     transform="matrix(0.17448803,-0.01522844,0.0149091,0.17082903,67.261122,326.99407)">
    <g
       transform="translate(9.949149,14.92372)"
       id="g1581">
      <path
         style="fill:#c7423d;fill-opacity:1;fill-rule:evenodd;stroke:none;stroke-width:4;stroke-linecap:butt;stroke-linejoin:miter;stroke-miterlimit:4;stroke-dasharray:none;stroke-opacity:1"
         sodipodi:nodetypes="csssssssssscc"
         id="path1543"
         d="m 436.47673,186.84694 c -13.14211,-1.87746 27.66853,-21.28412 39.61889,-27.06585 37.86158,-18.31786 55.78685,-33.81422 93.5269,-49.9885 23.30636,-9.988437 38.36236,1.25413 62.07862,-8.23239 15.23527,-6.094094 44.4148,11.54384 51.02235,24.75889 7.24289,14.48578 14.00873,33.64201 10.25388,48.66143 -7.29457,29.17827 -10.89076,55.74298 -15.14546,85.52597 -0.92476,6.47338 -1.2859,36.4556 -2.36091,42.9057 -4.82822,28.96934 -4.65714,47.78061 -14.04989,75.95875 -13.09533,39.28608 -60.78032,-14.34306 -89.42987,-21.25616 -8.8915,-2.14547 -38.76728,-11.78884 -75.10242,-36.44779 -14.27451,-9.68745 -34.17152,-22.01237 -56.20714,-34.44188 -2.92034,-50.46097 -1.07504,-73.66233 -1.61254,-74.19984"
         inkscape:connector-curvature="0" />
      <path
         style="fill:#c7423d;fill-opacity:1;fill-rule:evenodd;stroke:none;stroke-width:3.80046415;stroke-linecap:butt;stroke-linejoin:miter;stroke-miterlimit:4;stroke-dasharray:none;stroke-opacity:1"
         sodipodi:nodetypes="csssssssssssc"
         id="path1545"
         d="m 313.95389,187.56118 c 13.25915,-1.7982 -38.3769,-25.3518 -50.4337,-30.88953 C 225.32142,139.1269 207.64777,120.84289 170.05447,104.32259 148.28423,94.755737 128.03913,96.600173 105.71158,93.348139 84.994255,90.330622 68.451875,108.49138 61.785489,121.14872 c -7.307392,13.87443 -23.055409,35.1651 -24.498086,66.93158 -1.307091,28.78019 0.15228,40.49715 2.786694,69.20403 1.571301,17.12235 4.879415,26.97291 5.963991,45.50663 1.643614,28.0861 -0.658431,59.34973 26.080388,80.59244 30.634784,24.33788 83.673314,-15.9618 112.578014,-23.41078 8.90581,-2.29512 59.56937,-30.58651 68.32951,-36.82379 13.92397,-9.91396 53.71835,-19.77314 61.98315,-33.65222 6.05031,-10.16025 4.66083,0.75847 5.20313,0.24363"
         inkscape:connector-curvature="0" />
      <path
         style="fill:#000000;fill-opacity:1;fill-rule:evenodd;stroke:#000000;stroke-width:1.16786182;stroke-linecap:butt;stroke-linejoin:miter;stroke-miterlimit:4;stroke-dasharray:none;stroke-opacity:1"
         sodipodi:nodetypes="cssscssssssccsssccsssccsssssssssc"
         id="path1547"
         d="M 101.38182,84.112075 C 85.516868,84.532142 58.603191,102.01528 52.354373,114.51299 44.86066,129.50042 32.11889,148.61848 30.639441,182.93328 c -1.340401,31.08893 1.85586,47.61108 -0.46534,76.94654 -1.464448,18.50817 7.306469,38.04999 11.692351,48.14234 -1.006147,10.60055 8.242034,66.46512 33.85439,83.44745 23.559097,15.62094 80.470278,-18.65918 110.111998,-26.70574 9.1329,-2.47921 61.0882,-34.97692 70.07171,-41.71455 14.27899,-10.70924 46.78563,-19.19583 61.75071,-26.67835 0.011,-0.005 0.0256,-0.0308 0.0365,-0.0365 0.0536,-0.0294 0.13217,-0.0756 0.18252,-0.10947 0.55707,-0.3888 0.93672,-1.04623 1.42333,-1.53284 V 186.26352 c 13.59721,-1.94249 -39.3502,-27.41164 -51.7144,-33.39355 -39.17272,-18.95224 -58.19824,-33.8689 -96.75007,-51.7144 -22.32532,-10.334337 -42.3224,-12.227892 -65.07179,-16.678547 -1.43183,-0.280096 -2.88789,-0.404451 -4.37949,-0.364948 z m -4.14133,11.533147 c -10.082316,2.616451 45.07167,-1.735582 32.24132,-2.353702 -21.82387,-1.051458 29.6174,17.57549 50.69352,26.90633 36.39464,16.11266 31.12235,18.62652 93.13681,42.8909 11.97722,4.68633 55.4092,22.13315 42.57281,23.88701 l -2.68219,104.17635 c -0.50857,0.48642 -0.90591,1.13035 -1.5328,1.45979 -0.0102,0.005 -0.0261,0.0315 -0.0365,0.0365 -14.12768,6.75597 -40.99962,11.06931 -54.47963,20.73868 -8.48086,6.08338 -53.96171,40.95196 -62.81817,41.9061 -34.24154,3.68891 -87.73848,45.9273 -109.979334,31.82321 C 60.177147,371.78309 58.171238,361.38756 57.13932,333.96766 56.452196,315.70981 50.248457,283.24067 46.725597,267.92265 40.652521,241.51589 41.979306,200.9775 43.244701,172.90743 44.641414,141.92474 59.804621,141.76066 69.08315,120.40779 79.737544,95.888623 82.352341,96.275881 97.24049,95.645222 Z"
         inkscape:connector-curvature="0" />
      <path
         style="fill:#000000;fill-opacity:1;fill-rule:evenodd;stroke:none;stroke-width:4;stroke-linecap:butt;stroke-linejoin:miter;stroke-miterlimit:4;stroke-dasharray:none;stroke-opacity:1"
         sodipodi:nodetypes="cssccsssssssccssssssssccsssc"
         id="path1549"
         d="m 648.54401,92.879568 c -1.27583,0.06063 -56.77486,3.734297 -80.08122,13.722732 -37.74005,16.17432 -53.92191,31.66559 -91.7835,49.98349 -11.9504,5.78173 -58.69489,20.65385 -45.55274,22.53128 l 7.66715,109.32396 c 0.47873,0.47872 36.12636,34.6034 49.92742,33.91615 10.84008,-0.53981 55.82782,34.11784 64.83776,32.54214 14.82339,-2.59241 100.54042,67.45029 113.63576,28.16421 9.39271,-28.17819 11.80392,-60.78535 16.63214,-89.75466 1.07504,-6.45013 1.99034,-39.02978 2.91507,-45.50315 4.25474,-29.78299 3.61006,-35.9336 10.90459,-65.11187 3.75485,-15.01942 1.11474,-47.5616 -6.12812,-62.04739 -6.14294,-12.28588 -29.56127,-16.47084 -42.97431,-27.766892 z m -12.3547,12.117172 c 15.11072,-0.51252 38.40543,11.53581 43.86399,23.03552 6.46308,13.61608 13.40287,43.25535 10.05231,57.373 -6.50925,27.42639 -12.00621,40.2254 -15.80285,68.22018 -0.82521,6.08473 -1.93319,31.82159 -2.89247,37.88445 -4.30837,27.23002 -10.31384,53.83288 -18.69531,80.31922 -11.6854,36.92729 -83.17975,-32.29644 -113.37135,-32.29644 -8.16186,-3e-5 -27.65369,-17.10005 -35.40167,-23.22118 -12.31521,-9.72931 -63.12306,-46.87617 -69.41088,-32.68984 -7.15772,16.14907 -20.38515,-1.01155 -22.48299,16.28357 l 29.12786,-111.46641 c -11.72719,-1.76471 33.95806,-24.86588 44.62177,-30.30049 33.78526,-17.21806 51.51015,-24.00475 85.18692,-39.20793 20.79707,-9.38871 33.77771,-6.03953 54.94056,-14.95642 1.00898,-0.42514 4.73201,2.79217 10.26411,1.02277 z"
         inkscape:connector-curvature="0" />
      <path
         style="fill:#c7423d;fill-opacity:1;fill-rule:evenodd;stroke:#000000;stroke-width:6.42324066;stroke-linecap:butt;stroke-linejoin:miter;stroke-miterlimit:4;stroke-dasharray:none;stroke-opacity:1"
         sodipodi:nodetypes="cssssssssss"
         id="path1551"
         d="m 321.9064,172.54245 c -11.18066,8.28634 -10.92895,23.86435 -13.347,38.37259 -2.65703,15.9423 0,35.44623 0,51.71959 0,10.45592 3.10041,24.55286 6.6735,31.69908 8.01148,16.02296 37.17443,11.77271 53.38798,15.01539 11.77678,2.35536 47.0668,1.49218 56.72471,-3.33673 15.00708,-7.50356 15.0435,-21.80144 20.0205,-41.70936 3.893,-15.572 3.33673,-38.57045 3.33673,-55.05636 0,-12.17123 -7.856,-31.21324 -15.01535,-38.37259 -12.66415,-12.66415 -53.04122,-5.90895 -70.07171,-8.34188 -7.10245,-1.01465 -28.45636,0.18801 -41.70936,10.01027 z"
         inkscape:connector-curvature="0" />
      <path
         style="fill:url(#linearGradient1574);fill-opacity:1;stroke:none;stroke-width:4;stroke-linecap:round;stroke-miterlimit:4;stroke-opacity:1"
         sodipodi:nodetypes="cccccccc"
         id="path1553"
         d="m 215.82015,282.31815 38.28247,-13.13653 32.31001,-16.18412 20.52662,-5.498 0.72609,6.71412 c 0,0 -18.62945,2.14715 -43.5173,14.1289 -24.56293,6.9246 -56.03416,19.49328 -56.03416,19.49328 z"
         inkscape:connector-curvature="0" />
      <path
         style="opacity:0.128;fill:#000000;fill-opacity:1;stroke:none;stroke-width:5.5;stroke-linejoin:miter;stroke-miterlimit:4"
         sodipodi:nodetypes="ccccc"
         id="path1555"
         d="m 309.48189,267.36826 c 33.04698,-18.70433 134.1852,-0.58196 134.1852,-0.58196 0,0 9.95831,10.68897 -12.51683,36.90145 -30.62044,21.26067 -115.82824,-4.47027 -115.82824,-4.47027 0,0 -5.44707,-19.00629 -5.84013,-31.84922 z"
         inkscape:connector-curvature="0" />
      <path
         style="fill:url(#linearGradient1570);fill-opacity:1;stroke:none;stroke-width:4;stroke-linecap:round;stroke-miterlimit:4;stroke-opacity:1"
         sodipodi:nodetypes="ccccccc"
         id="path1557"
         d="m 204.4624,195.18687 26.17697,6.04203 19.02448,4.25387 56.7684,14.1116 0.15216,16.97456 -12.82769,-15.08281 z"
         inkscape:connector-curvature="0" />
      <path
         style="fill:url(#linearGradient1567);fill-opacity:1;stroke:none;stroke-width:4;stroke-linecap:round;stroke-miterlimit:4;stroke-opacity:1"
         sodipodi:nodetypes="ccccccc"
         id="path1559"
         d="m 453.90499,218.43244 17.23639,-3.79265 14.55421,-1.1105 42.46341,-14.49831 -46.33891,19.65675 -36.07324,7.2687 z"
         inkscape:connector-curvature="0" />
      <path
         style="fill:url(#linearGradient1564);fill-opacity:1;stroke:none;stroke-width:4;stroke-linecap:round;stroke-miterlimit:4;stroke-opacity:1"
         sodipodi:nodetypes="ccccccc"
         id="path1561"
         d="m 452.11687,253.30075 5.61362,6.93606 17.23635,4.25387 21.00604,8.74726 16.2452,8.03398 -68.25935,-20.44719 z"
         inkscape:connector-curvature="0" />
    </g>
  </g>
  <g
     id="g1147"
     transform="matrix(-3.1826586,-4.1640205,-4.1640205,3.1826586,457.21071,327.13422)">
    <g
       id="g1066">
	<polygon
   id="polygon1062"
   points="30.946,2.653 37.347,9.054 32.708,15.548 27.753,16.54 13.646,30.646 7.196,35.837 4.142,32.784 9.388,26.315 23.46,12.247 24.452,7.292 "
   style="fill:#e1ebf2" />

	<path
   id="path1064"
   d="m 30.892,3.306 5.802,5.802 -4.278,5.989 -4.612,0.922 -0.297,0.059 -0.214,0.214 -13.962,13.963 -6.099,4.911 -2.418,-2.418 4.93,-6.078 13.963,-13.963 0.214,-0.214 0.059,-0.297 0.922,-4.612 5.99,-4.278 M 31,2 24,7 23,12 9,26 3.47,32.819 7.16,36.509 14,31 28,17 33,16 38,9 Z"
   style="fill:#a3b7cc"
   inkscape:connector-curvature="0" />

</g>
    <g
       id="g1072">
	<path
   id="path1068"
   d="M 33.288,3.581 34.72,2.148 C 35.138,1.73 35.694,1.5 36.286,1.5 c 0.591,0 1.147,0.23 1.565,0.648 0.419,0.419 0.649,0.975 0.649,1.566 0,0.591 -0.23,1.147 -0.649,1.565 l -1.432,1.433 z"
   style="fill:#bae0bd"
   inkscape:connector-curvature="0" />

	<path
   id="path1070"
   d="m 36.286,2 c 0.458,0 0.888,0.178 1.212,0.503 C 37.822,2.826 38,3.256 38,3.714 38,4.172 37.822,4.602 37.498,4.926 L 36.419,6.005 33.995,3.581 35.074,2.502 C 35.398,2.178 35.828,2 36.286,2 m 0,-1 c -0.695,0 -1.39,0.265 -1.919,0.795 l -1.786,1.786 3.838,3.838 1.786,-1.786 c 1.06,-1.06 1.06,-2.779 0,-3.838 C 37.676,1.265 36.981,1 36.286,1 Z"
   style="fill:#5e9c76"
   inkscape:connector-curvature="0" />

</g>
    <g
       id="g1080">
	<polygon
   id="polygon1074"
   points="26.572,10.865 27.428,8.296 32.475,4.182 35.819,7.526 31.704,12.572 29.135,13.428 "
   style="fill:#839cb2" />

	<g
   id="g1078">
		<path
   id="path1076"
   d="M 32.44,4.855 35.145,7.56 31.408,12.143 29.27,12.856 27.144,10.73 27.857,8.592 32.44,4.855 M 32.509,3.509 27,8 l -1,3 3,3 3,-1 4.492,-5.508 z"
   style="fill:#66798f"
   inkscape:connector-curvature="0" />

	</g>

</g>
    <line
       id="line1082"
       y2="5.506"
       x2="34.493999"
       y1="14.571"
       x1="25.429001"
       style="fill:none;stroke:#a3b7cc;stroke-miterlimit:10" />
    <g
       id="g1090">
	<path
   id="path1084"
   d="M 3.716,38.5 C 3.123,38.5 2.567,38.269 2.149,37.851 1.73,37.433 1.5,36.877 1.5,36.286 1.5,35.694 1.73,35.138 2.148,34.72 L 4.08,32.788 7.211,35.919 5.28,37.851 C 4.862,38.27 4.307,38.5 3.716,38.5 Z"
   style="fill:#ffc49c"
   inkscape:connector-curvature="0" />

	<g
   id="g1088">
		<path
   id="path1086"
   d="m 4.081,33.495 2.424,2.424 -1.579,1.579 C 4.603,37.822 4.173,38 3.714,38 3.256,38 2.826,37.822 2.502,37.497 2.179,37.174 2,36.744 2,36.286 2,35.828 2.178,35.398 2.502,35.074 l 1.579,-1.579 m 0,-1.414 -2.285,2.285 c -1.06,1.059 -1.06,2.779 0,3.838 C 2.325,38.735 3.019,39 3.714,39 c 0,0 10e-4,0 10e-4,0 0.695,0 1.389,-0.265 1.919,-0.795 L 7.919,35.92 Z"
   style="fill:#a16a4a"
   inkscape:connector-curvature="0" />

	</g>

</g>
    <g
       id="g1096">
	<polygon
   id="polygon1092"
   points="9.572,25.865 10.409,23.354 12.296,22.411 15.411,19.296 16.354,17.409 18.865,16.572 23.428,21.135 22.591,23.646 20.704,24.589 17.589,27.704 16.646,29.591 14.135,30.428 "
   style="fill:#ffc49c" />

	<path
   id="path1094"
   d="m 18.73,17.144 4.126,4.126 -0.674,2.021 -1.63,0.815 -0.145,0.073 -0.115,0.115 -3,3 -0.115,0.115 -0.073,0.145 -0.815,1.63 -2.021,0.674 -4.126,-4.126 0.674,-2.021 1.63,-0.815 0.145,-0.073 0.115,-0.115 3,-3 0.115,-0.115 0.073,-0.145 0.815,-1.63 2.021,-0.674 M 19,16 l -3,1 -1,2 -3,3 -2,1 -1,3 5,5 3,-1 1,-2 3,-3 2,-1 1,-3 z"
   style="fill:#a16a4a"
   inkscape:connector-curvature="0" />

</g>
    <g
       id="g1104">
	<polygon
   id="polygon1098"
   points="10.844,23.137 12.296,22.411 15.411,19.296 16.137,17.844 22.156,23.863 20.704,24.589 17.589,27.704 16.863,29.156 "
   style="fill:#839cb2" />

	<g
   id="g1102">
		<path
   id="path1100"
   d="m 16.274,18.688 5.038,5.038 -0.759,0.38 -0.145,0.073 -0.115,0.115 -3,3 -0.115,0.115 -0.073,0.145 -0.38,0.759 -5.038,-5.038 0.759,-0.38 0.145,-0.073 0.115,-0.115 3,-3 0.115,-0.115 0.073,-0.145 0.38,-0.759 M 16,17 l -1,2 -3,3 -2,1 7,7 1,-2 3,-3 2,-1 z"
   style="fill:#66798f"
   inkscape:connector-curvature="0" />

	</g>

</g>
    <line
       id="line1106"
       y2="14.571"
       x2="25.429001"
       y1="18.643"
       x1="21.357"
       style="fill:#ffc49c;stroke:#a16a4a;stroke-miterlimit:10" />
    <g
       id="g1112">
	
		<rect
   id="rect1108"
   height="6.98"
   width="0.91900003"
   style="fill:#ffc49c"
   transform="matrix(-0.7074,0.7068,-0.7068,-0.7074,33.7764,55.0163)"
   y="31.01"
   x="5.04" />

	<polygon
   id="polygon1110"
   points="3.357,31 2,32.357 7.643,38 9,36.643 "
   style="fill:#a16a4a" />

</g>
  </g>
</svg>
